<svg width="154" height="29" viewBox="0 0 154 29" fill="none" xmlns="http://www.w3.org/2000/svg">
<g id="Vector">
<path d="M26.3271 0.0132693H20.5292L30.1525 18.9176C27.9966 21.8943 24.4851 23.836 20.5292 23.836C16.5733 23.836 13.0685 21.8943 10.9059 18.9176L20.5314 0.0132693H14.738L0 28.9624H5.79789L8.37841 23.8935C11.4697 27.0472 15.7817 29 20.5314 29C25.2812 29 29.5953 27.0472 32.6911 23.8935L35.2716 28.9624H41.065L26.3271 0.0132693Z" fill="#594A30"/>
<path d="M32.083 5.16838H43.9706V28.9624H49.1383V5.16838H61.0282V0H32.083V5.16838Z" fill="#594A30"/>
<path d="M69.3402 11.9401V0.0132693H64.1726V11.9401C64.1726 21.3458 71.8235 28.9978 81.2279 28.9978H87.2226V23.8338H81.2279C74.6716 23.8338 69.338 18.4974 69.338 11.9401H69.3402Z" fill="#594A30"/>
<path d="M122.18 11.9822L116.088 0.0132693H110.29L119.914 18.9176C117.755 21.8943 114.242 23.836 110.29 23.836C106.339 23.836 102.83 21.8943 100.667 18.9176L110.293 0.0132693H104.495L89.7611 28.9624H95.5546L98.1373 23.8935C101.229 27.0472 105.536 29 110.29 29C115.044 29 119.354 27.0472 122.448 23.8935L125.028 28.9624H130.826L122.182 11.9844L122.18 11.9822Z" fill="#594A30"/>
<path d="M134.119 10.5579C134.972 7.25166 137.975 4.80569 141.542 4.80569C145.109 4.80569 148.111 7.25166 148.965 10.5579H153.85C152.93 4.59117 147.76 0.0132693 141.544 0.0132693C134.674 0.0132693 129.086 5.60406 129.086 12.4731V14.437L148.967 18.4178C148.114 21.724 145.109 24.17 141.544 24.17C137.98 24.17 134.974 21.724 134.121 18.4178H129.236C130.158 24.3845 135.326 28.9646 141.544 28.9646C148.412 28.9646 154 23.3738 154 16.5048V14.5409L134.121 10.5601L134.119 10.5579Z" fill="#594A30"/>
</g>
</svg>
