<svg xmlns="http://www.w3.org/2000/svg" viewBox="0 0 371.79 70"><defs><style>.cls-1{fill:#fff;}</style></defs><g id="Camada_2" data-name="Camada 2"><g id="Camada_1-2" data-name="Camada 1"><path class="cls-1" d="M99.14,69.91h-14L78.92,57.67a41.1,41.1,0,0,1-58.7,0L14,69.91H0L12.16,46l8.7-17.1L35.58,0h14L26.34,45.66a28.67,28.67,0,0,0,46.46,0L49.57,0h14l14.72,28.9L87,46Z"/><polygon class="cls-1" points="77.45 0 147.34 0 147.34 12.47 118.63 12.47 118.63 69.91 106.16 69.91 106.16 12.47 77.45 12.47 77.45 0"/><path class="cls-1" d="M196.11,57.53h14.47V70H196.11a41.22,41.22,0,0,1-41.18-41.18V0H167.4V28.82A28.74,28.74,0,0,0,196.11,57.53Z"/><path class="cls-1" d="M315.85,69.91h-14l-6.23-12.24a41.09,41.09,0,0,1-58.69,0l-6.24,12.24h-14L228.87,46l8.7-17.11L252.28,0h14L243,45.66a28.67,28.67,0,0,0,46.46,0L266.27,0h14L295,28.92h0l8.7,17.1Z"/><path class="cls-1" d="M371.79,35.1v4.73A30.07,30.07,0,0,1,312,44.45h11.8a18.5,18.5,0,0,0,35.84,0l-48-9.6V30.11a30.08,30.08,0,0,1,59.8-4.62h-11.8a18.5,18.5,0,0,0-35.84,0Z"/></g></g></svg>