<svg width="241" height="69" viewBox="0 0 241 69" fill="none" xmlns="http://www.w3.org/2000/svg">
<g id="Vector">
<path d="M61.6971 33.6054C61.8285 33.0843 61.9352 32.6125 62.0133 32.1776C62.2351 30.9754 62.3502 29.8183 62.3502 28.7023C62.3502 26.2568 61.8162 23.9878 60.7359 21.8296C60.5757 21.5014 60.3909 21.1649 60.1773 20.8121C60.1363 20.7341 60.091 20.6643 60.0499 20.611C59.6597 19.9668 59.2243 19.3555 58.7642 18.8015C58.6492 18.6702 58.5424 18.5472 58.4356 18.4241L58.4478 18.4118L58.1727 18.1204C55.2974 15.0144 51.1897 12.6387 48.2528 11.1944C48.187 11.1657 48.1295 11.1288 48.0638 11.1001C48.0638 10.2959 48.0146 9.49168 47.9283 8.66696C47.9283 8.66696 47.9283 8.65875 47.9283 8.65055C47.9283 8.65055 47.9201 8.65054 47.9283 8.64234C47.7763 7.27191 47.5339 5.88097 47.1724 4.47361C47.0574 4.00997 46.922 3.53811 46.7865 3.07446C46.4907 2.08973 45.7142 1.19936 44.6585 0.620827C43.6111 0.0422935 42.4363 -0.146447 41.4505 0.11615C40.974 0.243345 40.5101 0.378746 40.046 0.53056C38.6617 0.965485 37.339 1.48247 36.0985 2.09383C36.082 2.09383 36.0779 2.11025 36.0697 2.11025C36.0697 2.11025 36.0618 2.11024 36.0536 2.11845C34.9609 2.64364 33.9257 3.23449 32.9481 3.88277C32.9481 3.88277 32.9355 3.89918 32.9273 3.90329C32.3317 4.29718 31.7609 4.71569 31.2105 5.15882C31.1078 5.13421 31.0093 5.10549 30.9066 5.08497C29.8304 4.81417 28.1997 4.43669 26.5321 4.20691C24.2976 3.90739 22.0302 3.72275 19.7916 3.6571C18.5511 3.62017 17.3313 3.76378 16.1524 3.90329L15.2528 4.00177C12.7225 4.28078 10.3853 5.00701 8.30282 6.15998C6.72552 7.03393 5.39443 8.20331 4.34701 9.63528C4.06769 10.0251 3.7967 10.4559 3.53793 10.9236C3.06556 11.5883 0.900941 15.0021 0.781822 21.5219C0.761284 22.802 0.810378 24.152 0.950035 25.5347C1.17595 27.1431 1.41426 28.6489 1.63607 29.8839L1.7264 30.4009C1.75926 30.5733 1.79653 30.7497 1.82528 30.9343L1.86605 31.1641C1.74693 31.6072 1.64021 32.0545 1.54574 32.5058C1.13909 34.3932 0.933922 36.3176 0.933922 38.2255C0.933922 40.2811 1.17199 42.3122 1.61971 44.2939C1.77991 44.9874 1.96056 45.6849 2.17416 46.3701C2.37132 46.9979 2.59319 47.6174 2.83553 48.2247C3.06556 48.8237 3.32839 49.4187 3.6036 50.0136C3.75147 50.3008 3.89953 50.588 4.0433 50.8753C4.16652 51.1173 4.29378 51.3553 4.43343 51.5851C4.55666 51.819 4.68811 52.0487 4.83187 52.2703C5.09475 52.7175 5.37808 53.1607 5.66561 53.5915H5.67367C6.0721 54.1741 6.49539 54.7445 6.9349 55.2984C7.11974 55.5241 7.30454 55.7497 7.49349 55.9713C7.68655 56.1929 7.8795 56.4062 8.06844 56.6196C8.23685 56.8083 8.41794 56.993 8.59457 57.1776C8.75887 57.3458 8.92298 57.5099 9.09139 57.6741C10.9316 59.4876 13.0344 61.0345 15.3182 62.249C16.1931 62.7167 17.1011 63.1394 18.0294 63.5086C18.0294 63.5086 18.0375 63.5086 18.0457 63.5086C20.0338 64.2923 22.141 64.8544 24.3263 65.1335C24.8397 65.2032 25.3614 65.2607 25.8953 65.2935C26.0925 65.314 26.2897 65.3181 26.4869 65.3304H26.4991C26.6223 65.3304 26.762 65.3427 26.8934 65.3468H26.9347C27.062 65.355 27.1892 65.3591 27.3206 65.3591H27.3985C27.5669 65.3673 27.7477 65.3714 27.9202 65.3714C28.0147 65.3714 28.1092 65.3714 28.2037 65.3714C28.3269 65.3714 28.4502 65.3632 28.5816 65.3632C28.8445 65.3509 29.1117 65.3427 29.4156 65.3263C29.4444 65.3263 29.4853 65.3263 29.5223 65.3263C29.6825 65.314 29.8509 65.3017 30.0111 65.2894C30.5286 65.2483 31.0504 65.1868 31.5926 65.1211C40.81 63.8328 48.7007 57.7725 52.4632 49.3407C52.6727 49.0904 52.8863 48.8319 53.0958 48.5817L53.2149 48.4339C53.2437 48.3929 53.2765 48.3601 53.3258 48.3026L53.482 48.1139C53.634 47.9252 53.7817 47.7405 53.9378 47.5559C56.123 44.9463 57.8236 42.4558 59.138 39.9652C60.358 37.6634 61.1753 35.657 61.7052 33.6259L61.6971 33.6054ZM4.98397 43.3625C4.98397 43.3625 4.95084 43.3707 4.93441 43.3749C4.90566 43.2394 4.87698 43.1082 4.84823 42.9687C4.8318 42.8743 4.81534 42.7799 4.79891 42.6814C4.79891 42.6814 4.79891 42.6732 4.79891 42.6691C4.50317 41.2043 4.36361 39.7149 4.36361 38.2091C4.36361 37.13 4.44563 36.0509 4.58529 34.9882C4.59761 34.9225 4.60588 34.8487 4.6141 34.783C4.73322 34.783 4.85236 34.783 4.96737 34.783C5.04952 34.7748 5.1316 34.7748 5.21786 34.7748C14.5831 34.7748 22.4203 41.5244 24.1619 50.4403C20.4651 45.8654 14.834 43.0425 8.61922 43.0425C8.0606 43.0425 7.49743 43.0671 6.9388 43.1123C6.79915 43.1246 6.65565 43.1328 6.5201 43.1533C6.00255 43.2066 5.49311 43.2805 4.98788 43.3666L4.98397 43.3625ZM23.2418 61.1288H23.2049C23.2049 61.1288 23.1846 61.1288 23.1764 61.1288C23.1188 61.1083 23.0735 61.1042 23.0243 61.0919C22.7983 61.0468 22.5806 61.0017 22.3629 60.9442C22.178 60.9032 21.993 60.854 21.8082 60.8047C21.7548 60.7883 21.6933 60.776 21.6317 60.7596C21.4468 60.7021 21.2579 60.6488 21.0731 60.5996C21.0033 60.579 20.9415 60.5585 20.8717 60.5339C20.6499 60.4683 20.4323 60.3944 20.2105 60.3205C20.1982 60.3205 20.186 60.3205 20.1737 60.3082C19.9436 60.2344 19.7258 60.1523 19.504 60.0662C19.4752 60.0497 19.4629 60.0456 19.4342 60.0333C19.2288 59.9636 19.0358 59.8815 18.8346 59.7953C17.8405 59.3809 16.8668 58.8968 15.9344 58.3593C15.7865 58.269 15.6471 58.187 15.5074 58.0967C14.6982 57.6002 13.9179 57.0504 13.1744 56.4596C13.0389 56.3488 12.9074 56.2503 12.7718 56.1354C12.6979 56.0698 12.6197 56.0041 12.5457 55.9385C12.4554 55.8605 12.361 55.7825 12.2706 55.6964C12.094 55.5446 11.9255 55.3969 11.753 55.2327C11.5928 55.0809 11.4328 54.9291 11.2767 54.7691H11.2684L11.1903 54.687C11.0547 54.5598 10.9314 54.4285 10.8082 54.3013C10.7548 54.2439 10.7015 54.1905 10.6563 54.1413C10.4961 53.9772 10.344 53.8049 10.1961 53.6325C10.0359 53.4602 9.88433 53.2797 9.74056 53.1032C9.71181 53.0786 9.69527 53.054 9.68295 53.0335C9.55561 52.8817 9.43239 52.7258 9.30917 52.5698C9.25988 52.5165 9.23501 52.4714 9.19393 52.418C9.0666 52.2539 8.94349 52.0857 8.80795 51.9216C8.79152 51.8969 8.78323 51.8723 8.75448 51.8436C8.61893 51.6508 8.49163 51.4661 8.36019 51.2774C8.22053 51.0681 8.07664 50.8589 7.9493 50.6496C7.81375 50.4444 7.68674 50.227 7.55941 50.0095C7.4444 49.8126 7.32925 49.6115 7.21835 49.4146C7.18548 49.3448 7.14032 49.2669 7.10335 49.193C7.02531 49.0412 6.93506 48.8812 6.85702 48.7253C6.82826 48.676 6.79952 48.635 6.78719 48.5817C6.68861 48.3888 6.59387 48.196 6.5035 48.0031C6.39671 47.7857 6.30232 47.5723 6.20785 47.3548V47.3466C6.20785 47.3466 6.19555 47.322 6.18734 47.3138H6.1954C6.71295 47.2276 7.23466 47.1784 7.76864 47.1538C7.9083 47.1415 8.05607 47.1374 8.20394 47.1333C8.33538 47.1333 8.47118 47.1333 8.60262 47.1333C15.8114 47.1333 22.0465 51.9339 23.9237 58.8804C23.9771 59.0322 24.0141 59.1881 24.047 59.3399C24.2072 59.9964 24.3263 60.6611 24.4002 61.3381C24.0059 61.2766 23.6156 61.215 23.2254 61.1329L23.2418 61.1288ZM26.9386 31.4554C26.7414 31.4185 26.5567 31.3816 26.3678 31.3323C25.3943 31.1231 24.466 30.8441 23.587 30.4912C20.7569 29.3998 18.4236 27.6355 16.7108 25.2967C14.4968 22.2481 13.5437 18.5102 13.9381 14.3784C13.9545 14.1487 13.9876 13.923 14.0123 13.6932C14.2382 13.7384 14.4723 13.7794 14.6859 13.8409C18.0828 14.5959 20.9293 16.1633 23.0611 18.4405C23.4883 18.8836 23.8787 19.3555 24.2442 19.856C26.5814 23.0688 27.5056 27.061 26.9347 31.4595L26.9386 31.4554ZM25.4886 11.8674C24.9998 12.7454 24.5727 13.6522 24.2113 14.5795C23.2378 13.7917 22.1742 13.1147 21.0282 12.5362C21.0282 12.5362 21.0197 12.5362 21.0074 12.5197C20.2475 12.1299 19.4383 11.7894 18.5963 11.5022H18.5838C18.5838 11.5022 18.5838 11.5022 18.5838 11.494C17.6144 11.1657 16.6041 10.899 15.5526 10.6939C15.2034 10.6323 14.8418 10.5749 14.4845 10.5215C13.7451 10.4108 12.9032 10.6487 12.1844 11.1739C11.4656 11.6909 10.9767 12.4172 10.8453 13.1434C10.7796 13.5045 10.7303 13.8573 10.6851 14.2184C10.5537 15.2688 10.4837 16.3151 10.5084 17.3285V17.3491C10.5084 17.3491 10.5084 17.3573 10.5084 17.3696C10.5207 18.264 10.5947 19.1257 10.7262 19.9791V19.9996C11.1533 22.7323 12.1681 25.2352 13.7618 27.4262C14.916 29.0059 16.3125 30.3517 17.939 31.4472C20.2064 32.99 22.9091 34.0363 25.961 34.545V43.2928C25.961 43.2928 25.961 43.2928 25.961 43.2846C24.4043 40.3057 22.2274 37.7044 19.6068 35.6447C15.6307 32.5304 10.6398 30.6799 5.21786 30.6799H4.96737C4.70859 30.6799 4.44978 30.6881 4.191 30.7005L4.17879 30.6471C4.15415 30.4871 4.12527 30.3271 4.09652 30.1712C4.07187 30.0111 4.03909 29.847 4.01034 29.6952L3.97347 29.4736C3.76399 28.3084 3.53797 26.8887 3.30795 25.2557C3.18472 23.9796 3.1312 22.7405 3.15585 21.567C3.25443 16.0853 4.91792 13.1352 5.37386 12.4377L5.5013 12.2202L5.6617 11.9822C5.86708 11.6171 6.07229 11.297 6.27767 11.018C7.11561 9.86916 8.18768 8.92955 9.46102 8.22382C11.2601 7.22267 13.2976 6.5908 15.5116 6.34872C15.795 6.32 16.0743 6.28718 16.3577 6.25025L16.4356 6.24204C17.6597 6.09433 18.6826 5.98355 19.7259 6.00817C21.8454 6.06561 24.0264 6.24615 26.2198 6.54157C27.0947 6.66056 28.0314 6.82878 29.0911 7.07087C27.6823 8.49874 26.4827 10.1071 25.4928 11.8674H25.4886ZM29.7813 23.0728C29.3583 21.5875 28.7542 20.1802 27.9574 18.8672C28.3763 17.2629 29.0007 15.7242 29.8099 14.2635C31.0422 12.0684 32.6482 10.1564 34.6034 8.55617C34.7307 8.44949 34.8582 8.35102 34.9937 8.24434C35.4866 7.84224 36.0123 7.47296 36.5504 7.1324C36.7024 7.02983 36.8503 6.93546 37.0023 6.84519C38.4358 5.95072 40.0049 5.20396 41.7054 4.61312C42.0053 4.50233 42.3008 4.41207 42.5965 4.30539C42.6746 4.61722 42.7526 4.91674 42.8101 5.22857C43.0977 6.50873 43.2704 7.78479 43.3443 9.03623C43.3566 9.18804 43.3607 9.33986 43.3648 9.49167C43.3895 10.0456 43.3935 10.6077 43.3812 11.1534C43.373 11.297 43.3647 11.4447 43.3565 11.5883C43.1963 14.7231 42.3501 17.6814 40.8426 20.3771C38.5835 24.4269 35.0101 27.5247 30.3973 29.4695C30.5452 27.2128 30.3276 25.0752 29.773 23.0688L29.7813 23.0728ZM49.452 47.3384C49.452 47.3384 49.4399 47.3713 49.4317 47.3918C49.3414 47.6174 49.2385 47.8349 49.1358 48.0524C49.0989 48.1221 49.0661 48.2083 49.0291 48.2821C48.9429 48.4462 48.869 48.6104 48.7786 48.7704C48.7663 48.795 48.7538 48.8319 48.7374 48.8607C48.6265 49.0699 48.5113 49.2792 48.3922 49.4966C48.2977 49.6649 48.2077 49.8372 48.0968 50.0054C48.0064 50.1572 47.916 50.3173 47.8175 50.4691C47.7764 50.5429 47.7351 50.6168 47.6817 50.6865C47.6119 50.8014 47.5382 50.9245 47.452 51.0353C47.3822 51.1543 47.3081 51.2692 47.2301 51.3758C47.1808 51.4415 47.1395 51.5112 47.0902 51.5728C47.0409 51.6384 46.9957 51.7082 46.9464 51.7738C46.8889 51.86 46.8315 51.9421 46.7699 52.02C46.7288 52.0857 46.6756 52.1431 46.6305 52.2088C46.5113 52.3688 46.388 52.5288 46.2647 52.6847C46.2442 52.7052 46.2279 52.7381 46.2032 52.7545C46.1046 52.8858 45.9978 53.0089 45.8951 53.132C45.7801 53.2674 45.669 53.411 45.5499 53.5382C45.4267 53.6777 45.3037 53.8213 45.1764 53.9526C45.0613 54.0839 44.9339 54.2111 44.8106 54.3383C44.5847 54.5762 44.3629 54.8019 44.1287 55.0276C43.9603 55.1876 43.7878 55.3476 43.607 55.5076C43.607 55.52 43.5906 55.5281 43.5865 55.5323C43.3976 55.6964 43.2088 55.8646 43.0157 56.0246L43.0033 56.0328C42.8266 56.1846 42.6503 56.3323 42.4654 56.476C42.2477 56.6483 42.0297 56.8206 41.7996 56.9848C41.6189 57.1243 41.4341 57.2555 41.2452 57.3909C40.5305 57.8833 39.783 58.3429 39.0108 58.7491C39.0108 58.7573 38.9986 58.7573 38.9945 58.7655C38.978 58.7737 38.9574 58.786 38.941 58.7901C38.8013 58.8722 38.6577 58.946 38.5098 59.0158C38.3127 59.1224 38.1153 59.225 37.9058 59.3194C37.6881 59.4261 37.4582 59.5245 37.2364 59.623C37.0064 59.7297 36.7804 59.82 36.5462 59.9102C36.3326 60.0005 36.0985 60.0867 35.8685 60.1687C35.8562 60.1769 35.8481 60.181 35.8399 60.181C35.6838 60.2426 35.5236 60.2959 35.3634 60.3493C35.2566 60.3821 35.1579 60.419 35.0511 60.456C34.932 60.497 34.8007 60.5339 34.6693 60.5708C34.5419 60.6119 34.4062 60.6488 34.2789 60.6857C34.1023 60.7391 33.9298 60.7801 33.745 60.8293C33.7285 60.8375 33.7082 60.8416 33.6917 60.8498C33.4658 60.9073 33.2438 60.9647 33.0138 61.0058C32.9809 61.0181 32.9521 61.0263 32.9151 61.0304C32.8699 61.0427 32.8207 61.0509 32.7755 61.0591C32.7303 61.0673 32.6851 61.0796 32.6358 61.0837C32.2579 61.1658 31.8676 61.2396 31.4815 61.2971C31.5514 60.6365 31.6707 59.9718 31.8267 59.3317C31.8637 59.1758 31.9007 59.024 31.9459 58.8681C33.8313 51.9257 40.0705 47.1251 47.2711 47.1251C48.0104 47.1251 48.7292 47.1743 49.4644 47.2769C49.4562 47.2933 49.4521 47.3097 49.4398 47.3302L49.452 47.3384ZM50.7459 43.3297C49.6081 43.1328 48.4501 43.0343 47.2835 43.0343C41.077 43.0343 35.4454 45.8572 31.7445 50.4321C33.4861 41.5162 41.3192 34.7666 50.6844 34.7666C50.8076 34.7666 50.935 34.7666 51.0582 34.7748C51.2225 35.8991 51.3087 37.0479 51.3087 38.205C51.3087 39.9365 51.1158 41.6557 50.742 43.3297H50.7459ZM54.3692 43.1082C54.665 41.4957 54.8087 39.8626 54.8087 38.2132C54.8087 36.2642 54.6033 34.3317 54.2008 32.4607C54.0858 31.9191 53.9504 31.3857 53.8026 30.8605L52.9974 30.7743C52.2868 30.7087 51.543 30.6717 50.7872 30.6717H50.6844C45.1269 30.6717 40.0212 32.6125 36.004 35.8703C33.5559 37.8644 31.5062 40.3304 30.0111 43.1369V34.2989C33.9174 33.1459 37.2856 31.3611 40.0377 29.0059C42.1243 27.2334 43.8537 25.1408 45.1764 22.7651C46.7372 19.9791 47.6696 16.9388 47.9571 13.7219C51.6868 15.6627 54.5581 17.706 56.4969 19.8068L56.6778 19.9996C56.7641 20.1022 56.8501 20.2007 56.9322 20.2951C57.3512 20.8038 57.7127 21.3085 58.033 21.8419L58.1112 21.9732C58.3165 22.322 58.4726 22.6051 58.6041 22.8677C59.939 25.5429 60.2922 28.452 59.6761 31.7385C59.6063 32.1365 59.5117 32.555 59.3885 33.0105C58.9202 34.8281 58.1686 36.6786 57.0267 38.841C56.2873 40.2483 55.4125 41.6475 54.3651 43.104L54.3692 43.1082Z" fill="#ADADAD"/>
<path d="M61.6971 33.6054C61.8285 33.0843 61.9352 32.6125 62.0133 32.1776C62.2351 30.9754 62.3502 29.8183 62.3502 28.7023C62.3502 26.2568 61.8162 23.9878 60.7359 21.8296C60.5757 21.5014 60.3909 21.1649 60.1773 20.8121C60.1363 20.7341 60.091 20.6643 60.0499 20.611C59.6597 19.9668 59.2243 19.3555 58.7642 18.8015C58.6492 18.6702 58.5424 18.5472 58.4356 18.4241L58.4478 18.4118L58.1727 18.1204C55.2974 15.0144 51.1897 12.6387 48.2528 11.1944C48.187 11.1657 48.1295 11.1288 48.0638 11.1001C48.0638 10.2959 48.0146 9.49168 47.9283 8.66696C47.9283 8.66696 47.9283 8.65875 47.9283 8.65055C47.9283 8.65055 47.9201 8.65054 47.9283 8.64234C47.7763 7.27191 47.5339 5.88097 47.1724 4.47361C47.0574 4.00997 46.922 3.53811 46.7865 3.07446C46.4907 2.08973 45.7142 1.19936 44.6585 0.620827C43.6111 0.0422935 42.4363 -0.146447 41.4505 0.11615C40.974 0.243345 40.5101 0.378746 40.046 0.53056C38.6617 0.965485 37.339 1.48247 36.0985 2.09383C36.082 2.09383 36.0779 2.11025 36.0697 2.11025C36.0697 2.11025 36.0618 2.11024 36.0536 2.11845C34.9609 2.64364 33.9257 3.23449 32.9481 3.88277C32.9481 3.88277 32.9355 3.89918 32.9273 3.90329C32.3317 4.29718 31.7609 4.71569 31.2105 5.15882C31.1078 5.13421 31.0093 5.10549 30.9066 5.08497C29.8304 4.81417 28.1997 4.43669 26.5321 4.20691C24.2976 3.90739 22.0302 3.72275 19.7916 3.6571C18.5511 3.62017 17.3313 3.76378 16.1524 3.90329L15.2528 4.00177C12.7225 4.28078 10.3853 5.00701 8.30282 6.15998C6.72552 7.03393 5.39443 8.20331 4.34701 9.63528C4.06769 10.0251 3.7967 10.4559 3.53793 10.9236C3.06556 11.5883 0.900941 15.0021 0.781822 21.5219C0.761284 22.802 0.810378 24.152 0.950035 25.5347C1.17595 27.1431 1.41426 28.6489 1.63607 29.8839L1.7264 30.4009C1.75926 30.5733 1.79653 30.7497 1.82528 30.9343L1.86605 31.1641C1.74693 31.6072 1.64021 32.0545 1.54574 32.5058C1.13909 34.3932 0.933922 36.3176 0.933922 38.2255C0.933922 40.2811 1.17199 42.3122 1.61971 44.2939C1.77991 44.9874 1.96056 45.6849 2.17416 46.3701C2.37132 46.9979 2.59319 47.6174 2.83553 48.2247C3.06556 48.8237 3.32839 49.4187 3.6036 50.0136C3.75147 50.3008 3.89953 50.588 4.0433 50.8753C4.16652 51.1173 4.29378 51.3553 4.43343 51.5851C4.55666 51.819 4.68811 52.0487 4.83187 52.2703C5.09475 52.7175 5.37808 53.1607 5.66561 53.5915H5.67367C6.0721 54.1741 6.49539 54.7445 6.9349 55.2984C7.11974 55.5241 7.30454 55.7497 7.49349 55.9713C7.68655 56.1929 7.8795 56.4062 8.06844 56.6196C8.23685 56.8083 8.41794 56.993 8.59457 57.1776C8.75887 57.3458 8.92298 57.5099 9.09139 57.6741C10.9316 59.4876 13.0344 61.0345 15.3182 62.249C16.1931 62.7167 17.1011 63.1394 18.0294 63.5086C18.0294 63.5086 18.0375 63.5086 18.0457 63.5086C20.0338 64.2923 22.141 64.8544 24.3263 65.1335C24.8397 65.2032 25.3614 65.2607 25.8953 65.2935C26.0925 65.314 26.2897 65.3181 26.4869 65.3304H26.4991C26.6223 65.3304 26.762 65.3427 26.8934 65.3468H26.9347C27.062 65.355 27.1892 65.3591 27.3206 65.3591H27.3985C27.5669 65.3673 27.7477 65.3714 27.9202 65.3714C28.0147 65.3714 28.1092 65.3714 28.2037 65.3714C28.3269 65.3714 28.4502 65.3632 28.5816 65.3632C28.8445 65.3509 29.1117 65.3427 29.4156 65.3263C29.4444 65.3263 29.4853 65.3263 29.5223 65.3263C29.6825 65.314 29.8509 65.3017 30.0111 65.2894C30.5286 65.2483 31.0504 65.1868 31.5926 65.1211C40.81 63.8328 48.7007 57.7725 52.4632 49.3407C52.6727 49.0904 52.8863 48.8319 53.0958 48.5817L53.2149 48.4339C53.2437 48.3929 53.2765 48.3601 53.3258 48.3026L53.482 48.1139C53.634 47.9252 53.7817 47.7405 53.9378 47.5559C56.123 44.9463 57.8236 42.4558 59.138 39.9652C60.358 37.6634 61.1753 35.657 61.7052 33.6259L61.6971 33.6054ZM4.98397 43.3625C4.98397 43.3625 4.95084 43.3707 4.93441 43.3749C4.90566 43.2394 4.87698 43.1082 4.84823 42.9687C4.8318 42.8743 4.81534 42.7799 4.79891 42.6814C4.79891 42.6814 4.79891 42.6732 4.79891 42.6691C4.50317 41.2043 4.36361 39.7149 4.36361 38.2091C4.36361 37.13 4.44563 36.0509 4.58529 34.9882C4.59761 34.9225 4.60588 34.8487 4.6141 34.783C4.73322 34.783 4.85236 34.783 4.96737 34.783C5.04952 34.7748 5.1316 34.7748 5.21786 34.7748C14.5831 34.7748 22.4203 41.5244 24.1619 50.4403C20.4651 45.8654 14.834 43.0425 8.61922 43.0425C8.0606 43.0425 7.49743 43.0671 6.9388 43.1123C6.79915 43.1246 6.65565 43.1328 6.5201 43.1533C6.00255 43.2066 5.49311 43.2805 4.98788 43.3666L4.98397 43.3625ZM23.2418 61.1288H23.2049C23.2049 61.1288 23.1846 61.1288 23.1764 61.1288C23.1188 61.1083 23.0735 61.1042 23.0243 61.0919C22.7983 61.0468 22.5806 61.0017 22.3629 60.9442C22.178 60.9032 21.993 60.854 21.8082 60.8047C21.7548 60.7883 21.6933 60.776 21.6317 60.7596C21.4468 60.7021 21.2579 60.6488 21.0731 60.5996C21.0033 60.579 20.9415 60.5585 20.8717 60.5339C20.6499 60.4683 20.4323 60.3944 20.2105 60.3205C20.1982 60.3205 20.186 60.3205 20.1737 60.3082C19.9436 60.2344 19.7258 60.1523 19.504 60.0662C19.4752 60.0497 19.4629 60.0456 19.4342 60.0333C19.2288 59.9636 19.0358 59.8815 18.8346 59.7953C17.8405 59.3809 16.8668 58.8968 15.9344 58.3593C15.7865 58.269 15.6471 58.187 15.5074 58.0967C14.6982 57.6002 13.9179 57.0504 13.1744 56.4596C13.0389 56.3488 12.9074 56.2503 12.7718 56.1354C12.6979 56.0698 12.6197 56.0041 12.5457 55.9385C12.4554 55.8605 12.361 55.7825 12.2706 55.6964C12.094 55.5446 11.9255 55.3969 11.753 55.2327C11.5928 55.0809 11.4328 54.9291 11.2767 54.7691H11.2684L11.1903 54.687C11.0547 54.5598 10.9314 54.4285 10.8082 54.3013C10.7548 54.2439 10.7015 54.1905 10.6563 54.1413C10.4961 53.9772 10.344 53.8049 10.1961 53.6325C10.0359 53.4602 9.88433 53.2797 9.74056 53.1032C9.71181 53.0786 9.69527 53.054 9.68295 53.0335C9.55561 52.8817 9.43239 52.7258 9.30917 52.5698C9.25988 52.5165 9.23501 52.4714 9.19393 52.418C9.0666 52.2539 8.94349 52.0857 8.80795 51.9216C8.79152 51.8969 8.78323 51.8723 8.75448 51.8436C8.61893 51.6508 8.49163 51.4661 8.36019 51.2774C8.22053 51.0681 8.07664 50.8589 7.9493 50.6496C7.81375 50.4444 7.68674 50.227 7.55941 50.0095C7.4444 49.8126 7.32925 49.6115 7.21835 49.4146C7.18548 49.3448 7.14032 49.2669 7.10335 49.193C7.02531 49.0412 6.93506 48.8812 6.85702 48.7253C6.82826 48.676 6.79952 48.635 6.78719 48.5817C6.68861 48.3888 6.59387 48.196 6.5035 48.0031C6.39671 47.7857 6.30232 47.5723 6.20785 47.3548V47.3466C6.20785 47.3466 6.19555 47.322 6.18734 47.3138H6.1954C6.71295 47.2276 7.23466 47.1784 7.76864 47.1538C7.9083 47.1415 8.05607 47.1374 8.20394 47.1333C8.33538 47.1333 8.47118 47.1333 8.60262 47.1333C15.8114 47.1333 22.0465 51.9339 23.9237 58.8804C23.9771 59.0322 24.0141 59.1881 24.047 59.3399C24.2072 59.9964 24.3263 60.6611 24.4002 61.3381C24.0059 61.2766 23.6156 61.215 23.2254 61.1329L23.2418 61.1288ZM26.9386 31.4554C26.7414 31.4185 26.5567 31.3816 26.3678 31.3323C25.3943 31.1231 24.466 30.8441 23.587 30.4912C20.7569 29.3998 18.4236 27.6355 16.7108 25.2967C14.4968 22.2481 13.5437 18.5102 13.9381 14.3784C13.9545 14.1487 13.9876 13.923 14.0123 13.6932C14.2382 13.7384 14.4723 13.7794 14.6859 13.8409C18.0828 14.5959 20.9293 16.1633 23.0611 18.4405C23.4883 18.8836 23.8787 19.3555 24.2442 19.856C26.5814 23.0688 27.5056 27.061 26.9347 31.4595L26.9386 31.4554ZM25.4886 11.8674C24.9998 12.7454 24.5727 13.6522 24.2113 14.5795C23.2378 13.7917 22.1742 13.1147 21.0282 12.5362C21.0282 12.5362 21.0197 12.5362 21.0074 12.5197C20.2475 12.1299 19.4383 11.7894 18.5963 11.5022H18.5838C18.5838 11.5022 18.5838 11.5022 18.5838 11.494C17.6144 11.1657 16.6041 10.899 15.5526 10.6939C15.2034 10.6323 14.8418 10.5749 14.4845 10.5215C13.7451 10.4108 12.9032 10.6487 12.1844 11.1739C11.4656 11.6909 10.9767 12.4172 10.8453 13.1434C10.7796 13.5045 10.7303 13.8573 10.6851 14.2184C10.5537 15.2688 10.4837 16.3151 10.5084 17.3285V17.3491C10.5084 17.3491 10.5084 17.3573 10.5084 17.3696C10.5207 18.264 10.5947 19.1257 10.7262 19.9791V19.9996C11.1533 22.7323 12.1681 25.2352 13.7618 27.4262C14.916 29.0059 16.3125 30.3517 17.939 31.4472C20.2064 32.99 22.9091 34.0363 25.961 34.545V43.2928C25.961 43.2928 25.961 43.2928 25.961 43.2846C24.4043 40.3057 22.2274 37.7044 19.6068 35.6447C15.6307 32.5304 10.6398 30.6799 5.21786 30.6799H4.96737C4.70859 30.6799 4.44978 30.6881 4.191 30.7005L4.17879 30.6471C4.15415 30.4871 4.12527 30.3271 4.09652 30.1712C4.07187 30.0111 4.03909 29.847 4.01034 29.6952L3.97347 29.4736C3.76399 28.3084 3.53797 26.8887 3.30795 25.2557C3.18472 23.9796 3.1312 22.7405 3.15585 21.567C3.25443 16.0853 4.91792 13.1352 5.37386 12.4377L5.5013 12.2202L5.6617 11.9822C5.86708 11.6171 6.07229 11.297 6.27767 11.018C7.11561 9.86916 8.18768 8.92955 9.46102 8.22382C11.2601 7.22267 13.2976 6.5908 15.5116 6.34872C15.795 6.32 16.0743 6.28718 16.3577 6.25025L16.4356 6.24204C17.6597 6.09433 18.6826 5.98355 19.7259 6.00817C21.8454 6.06561 24.0264 6.24615 26.2198 6.54157C27.0947 6.66056 28.0314 6.82878 29.0911 7.07087C27.6823 8.49874 26.4827 10.1071 25.4928 11.8674H25.4886ZM29.7813 23.0728C29.3583 21.5875 28.7542 20.1802 27.9574 18.8672C28.3763 17.2629 29.0007 15.7242 29.8099 14.2635C31.0422 12.0684 32.6482 10.1564 34.6034 8.55617C34.7307 8.44949 34.8582 8.35102 34.9937 8.24434C35.4866 7.84224 36.0123 7.47296 36.5504 7.1324C36.7024 7.02983 36.8503 6.93546 37.0023 6.84519C38.4358 5.95072 40.0049 5.20396 41.7054 4.61312C42.0053 4.50233 42.3008 4.41207 42.5965 4.30539C42.6746 4.61722 42.7526 4.91674 42.8101 5.22857C43.0977 6.50873 43.2704 7.78479 43.3443 9.03623C43.3566 9.18804 43.3607 9.33986 43.3648 9.49167C43.3895 10.0456 43.3935 10.6077 43.3812 11.1534C43.373 11.297 43.3647 11.4447 43.3565 11.5883C43.1963 14.7231 42.3501 17.6814 40.8426 20.3771C38.5835 24.4269 35.0101 27.5247 30.3973 29.4695C30.5452 27.2128 30.3276 25.0752 29.773 23.0688L29.7813 23.0728ZM49.452 47.3384C49.452 47.3384 49.4399 47.3713 49.4317 47.3918C49.3414 47.6174 49.2385 47.8349 49.1358 48.0524C49.0989 48.1221 49.0661 48.2083 49.0291 48.2821C48.9429 48.4462 48.869 48.6104 48.7786 48.7704C48.7663 48.795 48.7538 48.8319 48.7374 48.8607C48.6265 49.0699 48.5113 49.2792 48.3922 49.4966C48.2977 49.6649 48.2077 49.8372 48.0968 50.0054C48.0064 50.1572 47.916 50.3173 47.8175 50.4691C47.7764 50.5429 47.7351 50.6168 47.6817 50.6865C47.6119 50.8014 47.5382 50.9245 47.452 51.0353C47.3822 51.1543 47.3081 51.2692 47.2301 51.3758C47.1808 51.4415 47.1395 51.5112 47.0902 51.5728C47.0409 51.6384 46.9957 51.7082 46.9464 51.7738C46.8889 51.86 46.8315 51.9421 46.7699 52.02C46.7288 52.0857 46.6756 52.1431 46.6305 52.2088C46.5113 52.3688 46.388 52.5288 46.2647 52.6847C46.2442 52.7052 46.2279 52.7381 46.2032 52.7545C46.1046 52.8858 45.9978 53.0089 45.8951 53.132C45.7801 53.2674 45.669 53.411 45.5499 53.5382C45.4267 53.6777 45.3037 53.8213 45.1764 53.9526C45.0613 54.0839 44.9339 54.2111 44.8106 54.3383C44.5847 54.5762 44.3629 54.8019 44.1287 55.0276C43.9603 55.1876 43.7878 55.3476 43.607 55.5076C43.607 55.52 43.5906 55.5281 43.5865 55.5323C43.3976 55.6964 43.2088 55.8646 43.0157 56.0246L43.0033 56.0328C42.8266 56.1846 42.6503 56.3323 42.4654 56.476C42.2477 56.6483 42.0297 56.8206 41.7996 56.9848C41.6189 57.1243 41.4341 57.2555 41.2452 57.3909C40.5305 57.8833 39.783 58.3429 39.0108 58.7491C39.0108 58.7573 38.9986 58.7573 38.9945 58.7655C38.978 58.7737 38.9574 58.786 38.941 58.7901C38.8013 58.8722 38.6577 58.946 38.5098 59.0158C38.3127 59.1224 38.1153 59.225 37.9058 59.3194C37.6881 59.4261 37.4582 59.5245 37.2364 59.623C37.0064 59.7297 36.7804 59.82 36.5462 59.9102C36.3326 60.0005 36.0985 60.0867 35.8685 60.1687C35.8562 60.1769 35.8481 60.181 35.8399 60.181C35.6838 60.2426 35.5236 60.2959 35.3634 60.3493C35.2566 60.3821 35.1579 60.419 35.0511 60.456C34.932 60.497 34.8007 60.5339 34.6693 60.5708C34.5419 60.6119 34.4062 60.6488 34.2789 60.6857C34.1023 60.7391 33.9298 60.7801 33.745 60.8293C33.7285 60.8375 33.7082 60.8416 33.6917 60.8498C33.4658 60.9073 33.2438 60.9647 33.0138 61.0058C32.9809 61.0181 32.9521 61.0263 32.9151 61.0304C32.8699 61.0427 32.8207 61.0509 32.7755 61.0591C32.7303 61.0673 32.6851 61.0796 32.6358 61.0837C32.2579 61.1658 31.8676 61.2396 31.4815 61.2971C31.5514 60.6365 31.6707 59.9718 31.8267 59.3317C31.8637 59.1758 31.9007 59.024 31.9459 58.8681C33.8313 51.9257 40.0705 47.1251 47.2711 47.1251C48.0104 47.1251 48.7292 47.1743 49.4644 47.2769C49.4562 47.2933 49.4521 47.3097 49.4398 47.3302L49.452 47.3384ZM50.7459 43.3297C49.6081 43.1328 48.4501 43.0343 47.2835 43.0343C41.077 43.0343 35.4454 45.8572 31.7445 50.4321C33.4861 41.5162 41.3192 34.7666 50.6844 34.7666C50.8076 34.7666 50.935 34.7666 51.0582 34.7748C51.2225 35.8991 51.3087 37.0479 51.3087 38.205C51.3087 39.9365 51.1158 41.6557 50.742 43.3297H50.7459ZM54.3692 43.1082C54.665 41.4957 54.8087 39.8626 54.8087 38.2132C54.8087 36.2642 54.6033 34.3317 54.2008 32.4607C54.0858 31.9191 53.9504 31.3857 53.8026 30.8605L52.9974 30.7743C52.2868 30.7087 51.543 30.6717 50.7872 30.6717H50.6844C45.1269 30.6717 40.0212 32.6125 36.004 35.8703C33.5559 37.8644 31.5062 40.3304 30.0111 43.1369V34.2989C33.9174 33.1459 37.2856 31.3611 40.0377 29.0059C42.1243 27.2334 43.8537 25.1408 45.1764 22.7651C46.7372 19.9791 47.6696 16.9388 47.9571 13.7219C51.6868 15.6627 54.5581 17.706 56.4969 19.8068L56.6778 19.9996C56.7641 20.1022 56.8501 20.2007 56.9322 20.2951C57.3512 20.8038 57.7127 21.3085 58.033 21.8419L58.1112 21.9732C58.3165 22.322 58.4726 22.6051 58.6041 22.8677C59.939 25.5429 60.2922 28.452 59.6761 31.7385C59.6063 32.1365 59.5117 32.555 59.3885 33.0105C58.9202 34.8281 58.1686 36.6786 57.0267 38.841C56.2873 40.2483 55.4125 41.6475 54.3651 43.104L54.3692 43.1082Z" fill="#ADADAD"/>
<path d="M67.0846 33.8531H70.5802C70.9488 33.8531 71.2486 33.5546 71.2486 33.1857V27.1668C71.2486 26.7978 71.5485 26.4994 71.9171 26.4994H75.1129C80.9459 26.4994 83.8424 23.8588 83.8424 18.5819V17.8067C83.8424 12.563 80.9418 9.92245 75.1129 9.92245H67.0846C66.7159 9.92245 66.4161 10.2209 66.4161 10.5898V33.1857C66.4161 33.5546 66.7159 33.8531 67.0846 33.8531ZM71.2445 15.0253C71.2445 14.6563 71.5443 14.3579 71.9129 14.3579H75.3682C77.8473 14.3579 79.0096 15.3776 79.0096 17.8067V18.5819C79.0096 21.0815 77.9161 22.0639 75.3682 22.0639H71.9129C71.5443 22.0639 71.2445 21.7655 71.2445 21.3965V15.0253Z" fill="#ADADAD"/>
<path d="M67.0846 33.8531H70.5802C70.9488 33.8531 71.2486 33.5546 71.2486 33.1857V27.1668C71.2486 26.7978 71.5485 26.4994 71.9171 26.4994H75.1129C80.9459 26.4994 83.8424 23.8588 83.8424 18.5819V17.8067C83.8424 12.563 80.9418 9.92245 75.1129 9.92245H67.0846C66.7159 9.92245 66.4161 10.2209 66.4161 10.5898V33.1857C66.4161 33.5546 66.7159 33.8531 67.0846 33.8531ZM71.2445 15.0253C71.2445 14.6563 71.5443 14.3579 71.9129 14.3579H75.3682C77.8473 14.3579 79.0096 15.3776 79.0096 17.8067V18.5819C79.0096 21.0815 77.9161 22.0639 75.3682 22.0639H71.9129C71.5443 22.0639 71.2445 21.7655 71.2445 21.3965V15.0253Z" fill="#ADADAD"/>
<path d="M97.2845 33.5047H99.4298C99.8031 33.5047 100.107 33.2096 100.107 32.8449V22.1648C100.107 19.9394 99.5528 18.3042 98.474 17.2919C97.3992 16.2838 95.4384 15.7592 92.5997 15.7592C90.9055 15.7592 89.1868 15.9313 87.3941 16.3042C87.0824 16.3698 86.8607 16.6444 86.8607 16.9518V19.0706C86.8607 19.4968 87.2671 19.8083 87.6937 19.7099C88.9818 19.4107 90.4748 19.2714 92.21 19.2714C94.5934 19.2714 95.6026 20.0706 95.6026 22.1607V22.6279C95.6026 23.0623 95.1801 23.3738 94.7494 23.2631C93.6664 22.9885 92.485 22.8574 91.1969 22.8574C87.9028 22.8574 85.585 24.5951 85.585 27.9024V28.5294C85.585 32.0416 87.4106 33.8531 90.7088 33.8531C92.2636 33.8531 93.7154 33.3121 95.065 32.2056C95.3645 31.9597 95.8119 32.0129 96.0416 32.3203L96.7349 33.2383C96.8621 33.4064 97.0632 33.5088 97.2806 33.5088L97.2845 33.5047ZM95.6026 28.9146C95.6026 29.1482 95.4754 29.3736 95.2662 29.4884C94.3924 29.9556 93.4941 30.2015 92.5711 30.2015C90.9056 30.2015 90.0892 29.5745 90.0892 28.3245V27.9761C90.0892 26.8286 91.1025 26.0991 92.6327 26.0991C93.5228 26.0991 94.368 26.218 95.1351 26.4762C95.414 26.5704 95.6026 26.8204 95.6026 27.1073V28.9187V28.9146Z" fill="#ADADAD"/>
<path d="M97.2845 33.5047H99.4298C99.8031 33.5047 100.107 33.2096 100.107 32.8449V22.1648C100.107 19.9394 99.5528 18.3042 98.474 17.2919C97.3992 16.2838 95.4384 15.7592 92.5997 15.7592C90.9055 15.7592 89.1868 15.9313 87.3941 16.3042C87.0824 16.3698 86.8607 16.6444 86.8607 16.9518V19.0706C86.8607 19.4968 87.2671 19.8083 87.6937 19.7099C88.9818 19.4107 90.4748 19.2714 92.21 19.2714C94.5934 19.2714 95.6026 20.0706 95.6026 22.1607V22.6279C95.6026 23.0623 95.1801 23.3738 94.7494 23.2631C93.6664 22.9885 92.485 22.8574 91.1969 22.8574C87.9028 22.8574 85.585 24.5951 85.585 27.9024V28.5294C85.585 32.0416 87.4106 33.8531 90.7088 33.8531C92.2636 33.8531 93.7154 33.3121 95.065 32.2056C95.3645 31.9597 95.8119 32.0129 96.0416 32.3203L96.7349 33.2383C96.8621 33.4064 97.0632 33.5088 97.2806 33.5088L97.2845 33.5047ZM95.6026 28.9146C95.6026 29.1482 95.4754 29.3736 95.2662 29.4884C94.3924 29.9556 93.4941 30.2015 92.5711 30.2015C90.9056 30.2015 90.0892 29.5745 90.0892 28.3245V27.9761C90.0892 26.8286 91.1025 26.0991 92.6327 26.0991C93.5228 26.0991 94.368 26.218 95.1351 26.4762C95.414 26.5704 95.6026 26.8204 95.6026 27.1073V28.9187V28.9146Z" fill="#ADADAD"/>
<path d="M103.098 19.5249H103.664C104.034 19.5249 104.336 19.822 104.336 20.1893V27.7207C104.336 29.7882 104.694 31.2945 105.407 32.3096C106.087 33.3248 107.479 33.8531 109.584 33.8531C110.435 33.8531 111.351 33.7788 112.341 33.6055C112.658 33.5518 112.886 33.2712 112.886 32.9493V30.7374C112.886 30.3329 112.524 30.0275 112.12 30.0812C111.64 30.1431 111.225 30.1761 110.879 30.1761C109.193 30.1761 108.806 29.4415 108.806 27.7248V20.1935C108.806 19.8262 109.108 19.529 109.478 19.529H112.214C112.585 19.529 112.886 19.2319 112.886 18.8646V16.6568C112.886 16.2895 112.585 15.9924 112.214 15.9924H109.478C109.108 15.9924 108.806 15.6953 108.806 15.328V11.7542C108.806 11.3869 108.505 11.0898 108.134 11.0898H106.18C105.875 11.0898 105.61 11.292 105.533 11.585L104.409 15.7365C104.364 15.9057 104.254 16.0502 104.104 16.1368L102.76 16.9251C102.557 17.0447 102.43 17.2635 102.43 17.4987V18.8729C102.43 19.2402 102.732 19.5373 103.102 19.5373L103.098 19.5249Z" fill="#ADADAD"/>
<path d="M103.098 19.5249H103.664C104.034 19.5249 104.336 19.822 104.336 20.1893V27.7207C104.336 29.7882 104.694 31.2945 105.407 32.3096C106.087 33.3248 107.479 33.8531 109.584 33.8531C110.435 33.8531 111.351 33.7788 112.341 33.6055C112.658 33.5518 112.886 33.2712 112.886 32.9493V30.7374C112.886 30.3329 112.524 30.0275 112.12 30.0812C111.64 30.1431 111.225 30.1761 110.879 30.1761C109.193 30.1761 108.806 29.4415 108.806 27.7248V20.1935C108.806 19.8262 109.108 19.529 109.478 19.529H112.214C112.585 19.529 112.886 19.2319 112.886 18.8646V16.6568C112.886 16.2895 112.585 15.9924 112.214 15.9924H109.478C109.108 15.9924 108.806 15.6953 108.806 15.328V11.7542C108.806 11.3869 108.505 11.0898 108.134 11.0898H106.18C105.875 11.0898 105.61 11.292 105.533 11.585L104.409 15.7365C104.364 15.9057 104.254 16.0502 104.104 16.1368L102.76 16.9251C102.557 17.0447 102.43 17.2635 102.43 17.4987V18.8729C102.43 19.2402 102.732 19.5373 103.102 19.5373L103.098 19.5249Z" fill="#ADADAD"/>
<path d="M128.497 32.6564V30.4925C128.497 30.0786 128.109 29.763 127.696 29.845C125.98 30.181 124.465 30.3367 123.17 30.3367C120.355 30.3367 119.445 29.2056 119.273 27.1442C119.24 26.7631 119.555 26.4393 119.947 26.4393H128.476C128.848 26.4393 129.15 26.1442 129.15 25.7795V23.0664C129.15 20.7714 128.632 18.9599 127.59 17.6731C126.553 16.3862 124.698 15.7592 122.002 15.7592C117.096 15.7592 114.629 18.3001 114.629 23.3451V26.2672C114.629 28.4597 115.049 30.0581 116.254 31.5211C117.423 32.9842 119.763 33.8531 123.043 33.8531C124.522 33.8531 126.164 33.6809 127.966 33.308C128.276 33.2424 128.501 32.9719 128.501 32.6605L128.497 32.6564ZM122.002 19.2714C124.081 19.2714 124.796 20.4189 124.796 22.509C124.796 22.8738 124.494 23.1689 124.122 23.1689H119.915C119.543 23.1689 119.24 22.8738 119.24 22.509C119.24 20.423 119.923 19.2714 122.002 19.2714Z" fill="#ADADAD"/>
<path d="M128.497 32.6564V30.4925C128.497 30.0786 128.109 29.763 127.696 29.845C125.98 30.181 124.465 30.3367 123.17 30.3367C120.355 30.3367 119.445 29.2056 119.273 27.1442C119.24 26.7631 119.555 26.4393 119.947 26.4393H128.476C128.848 26.4393 129.15 26.1442 129.15 25.7795V23.0664C129.15 20.7714 128.632 18.9599 127.59 17.6731C126.553 16.3862 124.698 15.7592 122.002 15.7592C117.096 15.7592 114.629 18.3001 114.629 23.3451V26.2672C114.629 28.4597 115.049 30.0581 116.254 31.5211C117.423 32.9842 119.763 33.8531 123.043 33.8531C124.522 33.8531 126.164 33.6809 127.966 33.308C128.276 33.2424 128.501 32.9719 128.501 32.6605L128.497 32.6564ZM122.002 19.2714C124.081 19.2714 124.796 20.4189 124.796 22.509C124.796 22.8738 124.494 23.1689 124.122 23.1689H119.915C119.543 23.1689 119.24 22.8738 119.24 22.509C119.24 20.423 119.923 19.2714 122.002 19.2714Z" fill="#ADADAD"/>
<path d="M142.752 33.8531H145.899C146.273 33.8531 146.576 33.5522 146.576 33.1803V20.9032C146.576 17.4641 144.977 15.7592 141.813 15.7592C140.052 15.7592 138.468 16.315 137.065 17.4516C136.765 17.6939 136.318 17.6354 136.092 17.322L135.424 16.3943C135.296 16.2188 135.091 16.1144 134.874 16.1144H132.732C132.358 16.1144 132.055 16.4152 132.055 16.7872V33.1761C132.055 33.548 132.358 33.8489 132.732 33.8489H135.846C136.22 33.8489 136.523 33.548 136.523 33.1761V21.0703C136.523 20.8322 136.646 20.6107 136.851 20.4895C137.853 19.9128 138.85 19.6245 139.818 19.6245C141.386 19.6245 142.071 20.1552 142.071 21.576V33.1761C142.071 33.548 142.375 33.8489 142.748 33.8489L142.752 33.8531Z" fill="#ADADAD"/>
<path d="M142.752 33.8531H145.899C146.273 33.8531 146.576 33.5522 146.576 33.1803V20.9032C146.576 17.4641 144.977 15.7592 141.813 15.7592C140.052 15.7592 138.468 16.315 137.065 17.4516C136.765 17.6939 136.318 17.6354 136.092 17.322L135.424 16.3943C135.296 16.2188 135.091 16.1144 134.874 16.1144H132.732C132.358 16.1144 132.055 16.4152 132.055 16.7872V33.1761C132.055 33.548 132.358 33.8489 132.732 33.8489H135.846C136.22 33.8489 136.523 33.548 136.523 33.1761V21.0703C136.523 20.8322 136.646 20.6107 136.851 20.4895C137.853 19.9128 138.85 19.6245 139.818 19.6245C141.386 19.6245 142.071 20.1552 142.071 21.576V33.1761C142.071 33.548 142.375 33.8489 142.748 33.8489L142.752 33.8531Z" fill="#ADADAD"/>
<path d="M162.841 28.2848V27.6579C162.841 25.2937 161.499 23.7982 159.828 23.2409C157.408 22.4747 154.297 22.4051 154.297 20.9792V20.6309C154.297 19.7254 155.181 19.2747 156.98 19.2747C158.235 19.2747 159.738 19.4345 161.508 19.7705C161.927 19.8524 162.314 19.5369 162.314 19.1231V16.9351C162.314 16.6319 162.108 16.3656 161.804 16.2918C160.26 15.9272 158.532 15.7592 156.618 15.7592C152.164 15.7592 149.679 17.5333 149.679 20.6309V21.3971C149.679 28.1823 158.223 25.8837 158.223 28.3544V28.7027C158.223 29.7803 157.239 30.3375 155.243 30.3375C153.663 30.3375 152.008 30.1818 150.304 29.85C149.88 29.768 149.481 30.0753 149.481 30.4973V32.6771C149.481 32.9803 149.691 33.2508 149.995 33.3204C151.601 33.6851 153.523 33.8531 155.733 33.8531C160.479 33.8531 162.837 32.0093 162.837 28.2889L162.841 28.2848Z" fill="#ADADAD"/>
<path d="M162.841 28.2848V27.6579C162.841 25.2937 161.499 23.7982 159.828 23.2409C157.408 22.4747 154.297 22.4051 154.297 20.9792V20.6309C154.297 19.7254 155.181 19.2747 156.98 19.2747C158.235 19.2747 159.738 19.4345 161.508 19.7705C161.927 19.8524 162.314 19.5369 162.314 19.1231V16.9351C162.314 16.6319 162.108 16.3656 161.804 16.2918C160.26 15.9272 158.532 15.7592 156.618 15.7592C152.164 15.7592 149.679 17.5333 149.679 20.6309V21.3971C149.679 28.1823 158.223 25.8837 158.223 28.3544V28.7027C158.223 29.7803 157.239 30.3375 155.243 30.3375C153.663 30.3375 152.008 30.1818 150.304 29.85C149.88 29.768 149.481 30.0753 149.481 30.4973V32.6771C149.481 32.9803 149.691 33.2508 149.995 33.3204C151.601 33.6851 153.523 33.8531 155.733 33.8531C160.479 33.8531 162.837 32.0093 162.837 28.2889L162.841 28.2848Z" fill="#ADADAD"/>
<path d="M172.837 15.7592C167.733 15.7592 165.164 18.3001 165.164 23.3451V26.2672C165.164 28.4597 165.602 30.0581 166.854 31.5211C168.072 32.9842 170.504 33.8531 173.916 33.8531C175.456 33.8531 177.162 33.6809 179.036 33.308C179.359 33.2424 179.59 32.9719 179.59 32.6605V30.4966C179.59 30.0827 179.189 29.7671 178.756 29.849C176.972 30.1851 175.394 30.3408 174.048 30.3408C171.12 30.3408 170.174 29.2097 169.992 27.1483C169.959 26.7671 170.285 26.4434 170.694 26.4434H179.565C179.953 26.4434 180.267 26.1483 180.267 25.7836V23.0705C180.267 20.7755 179.726 18.964 178.644 17.6772C177.562 16.3903 175.638 15.7633 172.834 15.7633L172.837 15.7592ZM175.043 23.173H170.665C170.277 23.173 169.963 22.8779 169.963 22.5131C169.963 20.4271 170.673 19.2755 172.837 19.2755C175.002 19.2755 175.745 20.423 175.745 22.5131C175.745 22.8779 175.431 23.173 175.043 23.173Z" fill="#ADADAD"/>
<path d="M172.837 15.7592C167.733 15.7592 165.164 18.3001 165.164 23.3451V26.2672C165.164 28.4597 165.602 30.0581 166.854 31.5211C168.072 32.9842 170.504 33.8531 173.916 33.8531C175.456 33.8531 177.162 33.6809 179.036 33.308C179.359 33.2424 179.59 32.9719 179.59 32.6605V30.4966C179.59 30.0827 179.189 29.7671 178.756 29.849C176.972 30.1851 175.394 30.3408 174.048 30.3408C171.12 30.3408 170.174 29.2097 169.992 27.1483C169.959 26.7671 170.285 26.4434 170.694 26.4434H179.565C179.953 26.4434 180.267 26.1483 180.267 25.7836V23.0705C180.267 20.7755 179.726 18.964 178.644 17.6772C177.562 16.3903 175.638 15.7633 172.834 15.7633L172.837 15.7592ZM175.043 23.173H170.665C170.277 23.173 169.963 22.8779 169.963 22.5131C169.963 20.4271 170.673 19.2755 172.837 19.2755C175.002 19.2755 175.745 20.423 175.745 22.5131C175.745 22.8779 175.431 23.173 175.043 23.173Z" fill="#ADADAD"/>
<path d="M70.2911 37.25C70.2103 36.9654 69.9479 36.7714 69.6532 36.7714H64.3433C64.0486 36.7714 63.7862 36.9654 63.7054 37.25L57.1483 59.8521C57.0271 60.2771 57.3459 60.702 57.786 60.702H61.2828C61.5816 60.702 61.84 60.504 61.9207 60.2193L63.1361 55.9118C63.2168 55.6271 63.4795 55.4291 63.7743 55.4291H70.2183C70.5171 55.4291 70.7755 55.6271 70.8563 55.9118L72.0716 60.2193C72.1524 60.504 72.4148 60.702 72.7096 60.702H76.2064C76.6505 60.702 76.9697 60.2771 76.8446 59.8521L70.2869 37.25H70.2911ZM65.4176 51.0225C64.9774 51.0225 64.6582 50.6017 64.7794 50.1767L66.3746 44.5489C66.5563 43.9052 67.4727 43.9052 67.6544 44.5489L69.2494 50.1767C69.3705 50.6017 69.0515 51.0225 68.6114 51.0225H65.4176Z" fill="#ADADAD"/>
<path d="M70.2911 37.25C70.2103 36.9654 69.9479 36.7714 69.6532 36.7714H64.3433C64.0486 36.7714 63.7862 36.9654 63.7054 37.25L57.1483 59.8521C57.0271 60.2771 57.3459 60.702 57.786 60.702H61.2828C61.5816 60.702 61.84 60.504 61.9207 60.2193L63.1361 55.9118C63.2168 55.6271 63.4795 55.4291 63.7743 55.4291H70.2183C70.5171 55.4291 70.7755 55.6271 70.8563 55.9118L72.0716 60.2193C72.1524 60.504 72.4148 60.702 72.7096 60.702H76.2064C76.6505 60.702 76.9697 60.2771 76.8446 59.8521L70.2869 37.25H70.2911ZM65.4176 51.0225C64.9774 51.0225 64.6582 50.6017 64.7794 50.1767L66.3746 44.5489C66.5563 43.9052 67.4727 43.9052 67.6544 44.5489L69.2494 50.1767C69.3705 50.6017 69.0515 51.0225 68.6114 51.0225H65.4176Z" fill="#ADADAD"/>
<path d="M93.0269 42.9645H90.8675C90.6444 42.9645 90.4382 43.0693 90.3077 43.2412L89.609 44.1719C89.3733 44.4864 88.9145 44.5409 88.6073 44.2893C87.2224 43.1616 85.7827 42.6082 84.2674 42.6082C80.5002 42.6082 78.6146 45.0942 78.6146 50.0622V53.3281C78.6146 58.2961 80.5002 60.7822 84.2674 60.7822C85.5807 60.7822 86.8393 60.3671 88.0516 59.5203C88.5146 59.1974 89.1585 59.5035 89.1585 60.0569V61.1343C89.1585 63.7965 88.3674 65.289 85.0589 65.289C83.6699 65.289 82.1375 65.1339 80.5001 64.7985C80.0707 64.7104 79.671 65.0333 79.671 65.4567V67.6577C79.671 67.9721 79.8983 68.253 80.214 68.3201C82.0155 68.6974 83.6571 68.8735 85.1893 68.8735C92.1977 68.8735 93.7171 65.2554 93.7171 61.1343V43.6353C93.7171 43.2622 93.4058 42.9603 93.0228 42.9603L93.0269 42.9645ZM89.1585 55.4704C89.1585 55.6842 89.0575 55.8938 88.8765 56.0154C88.0263 56.5898 87.1005 56.8749 86.1197 56.8749C83.973 56.8749 83.3077 55.7764 83.3077 53.3239V50.058C83.3077 47.5384 83.9688 46.4736 86.1197 46.4736C87.0415 46.4736 87.9631 46.7586 88.8597 47.333C89.0491 47.4546 89.1585 47.6684 89.1585 47.8906V55.4704Z" fill="#ADADAD"/>
<path d="M93.0269 42.9645H90.8675C90.6444 42.9645 90.4382 43.0693 90.3077 43.2412L89.609 44.1719C89.3733 44.4864 88.9145 44.5409 88.6073 44.2893C87.2224 43.1616 85.7827 42.6082 84.2674 42.6082C80.5002 42.6082 78.6146 45.0942 78.6146 50.0622V53.3281C78.6146 58.2961 80.5002 60.7822 84.2674 60.7822C85.5807 60.7822 86.8393 60.3671 88.0516 59.5203C88.5146 59.1974 89.1585 59.5035 89.1585 60.0569V61.1343C89.1585 63.7965 88.3674 65.289 85.0589 65.289C83.6699 65.289 82.1375 65.1339 80.5001 64.7985C80.0707 64.7104 79.671 65.0333 79.671 65.4567V67.6577C79.671 67.9721 79.8983 68.253 80.214 68.3201C82.0155 68.6974 83.6571 68.8735 85.1893 68.8735C92.1977 68.8735 93.7171 65.2554 93.7171 61.1343V43.6353C93.7171 43.2622 93.4058 42.9603 93.0228 42.9603L93.0269 42.9645ZM89.1585 55.4704C89.1585 55.6842 89.0575 55.8938 88.8765 56.0154C88.0263 56.5898 87.1005 56.8749 86.1197 56.8749C83.973 56.8749 83.3077 55.7764 83.3077 53.3239V50.058C83.3077 47.5384 83.9688 46.4736 86.1197 46.4736C87.0415 46.4736 87.9631 46.7586 88.8597 47.333C89.0491 47.4546 89.1585 47.6684 89.1585 47.8906V55.4704Z" fill="#ADADAD"/>
<path d="M105.724 43.1995C104.273 43.3458 102.986 43.9227 101.857 44.9221C101.527 45.2146 100.995 45.1659 100.754 44.8043L100.097 43.817C99.9688 43.622 99.7415 43.5042 99.4969 43.5042H97.3297C96.9391 43.5042 96.6214 43.7967 96.6214 44.1583V60.0479C96.6214 60.4095 96.9391 60.702 97.3297 60.702H100.531C100.922 60.702 101.239 60.4095 101.239 60.0479V48.599C101.239 48.3511 101.394 48.1236 101.63 48.0099C102.664 47.5223 104.059 47.2501 105.818 47.1932C106.196 47.1811 106.496 46.8926 106.496 46.5432V43.8496C106.496 43.4636 106.136 43.1548 105.724 43.1954V43.1995Z" fill="#ADADAD"/>
<path d="M105.724 43.1995C104.273 43.3458 102.986 43.9227 101.857 44.9221C101.527 45.2146 100.995 45.1659 100.754 44.8043L100.097 43.817C99.9688 43.622 99.7415 43.5042 99.4969 43.5042H97.3297C96.9391 43.5042 96.6214 43.7967 96.6214 44.1583V60.0479C96.6214 60.4095 96.9391 60.702 97.3297 60.702H100.531C100.922 60.702 101.239 60.4095 101.239 60.0479V48.599C101.239 48.3511 101.394 48.1236 101.63 48.0099C102.664 47.5223 104.059 47.2501 105.818 47.1932C106.196 47.1811 106.496 46.8926 106.496 46.5432V43.8496C106.496 43.4636 106.136 43.1548 105.724 43.1954V43.1995Z" fill="#ADADAD"/>
<path d="M132.461 42.6124C127.554 42.6124 125.084 45.234 125.084 50.4431V53.4592C125.084 55.7202 125.506 57.3746 126.71 58.8805C127.881 60.3907 130.219 61.2857 133.499 61.2857C134.976 61.2857 136.619 61.1076 138.419 60.7215C138.733 60.6537 138.956 60.3737 138.956 60.0513V57.8158C138.956 57.3873 138.563 57.0649 138.141 57.1498C136.433 57.4934 134.919 57.6546 133.628 57.6546C130.814 57.6546 129.904 56.4838 129.73 54.3585C129.697 53.964 130.016 53.6331 130.409 53.6331H138.923C139.3 53.6331 139.606 53.3277 139.606 52.9502V50.1504C139.606 47.7792 139.085 45.9127 138.046 44.5849C137.008 43.2572 135.154 42.6082 132.457 42.6082L132.461 42.6124ZM134.575 50.2607H130.38C130.003 50.2607 129.697 49.9553 129.697 49.5778C129.697 47.4229 130.38 46.2393 132.457 46.2393C134.534 46.2393 135.25 47.4229 135.25 49.5778C135.25 49.9553 134.943 50.2607 134.567 50.2607H134.575Z" fill="#ADADAD"/>
<path d="M132.461 42.6124C127.554 42.6124 125.084 45.234 125.084 50.4431V53.4592C125.084 55.7202 125.506 57.3746 126.71 58.8805C127.881 60.3907 130.219 61.2857 133.499 61.2857C134.976 61.2857 136.619 61.1076 138.419 60.7215C138.733 60.6537 138.956 60.3737 138.956 60.0513V57.8158C138.956 57.3873 138.563 57.0649 138.141 57.1498C136.433 57.4934 134.919 57.6546 133.628 57.6546C130.814 57.6546 129.904 56.4838 129.73 54.3585C129.697 53.964 130.016 53.6331 130.409 53.6331H138.923C139.3 53.6331 139.606 53.3277 139.606 52.9502V50.1504C139.606 47.7792 139.085 45.9127 138.046 44.5849C137.008 43.2572 135.154 42.6082 132.457 42.6082L132.461 42.6124ZM134.575 50.2607H130.38C130.003 50.2607 129.697 49.9553 129.697 49.5778C129.697 47.4229 130.38 46.2393 132.457 46.2393C134.534 46.2393 135.25 47.4229 135.25 49.5778C135.25 49.9553 134.943 50.2607 134.567 50.2607H134.575Z" fill="#ADADAD"/>
<path d="M154.176 43.1724C152.397 42.7863 150.803 42.6082 149.397 42.6082C144.409 42.6082 141.93 45.2297 141.93 50.4389V53.455C141.93 58.6642 144.409 61.2857 149.397 61.2857C150.803 61.2857 152.397 61.1076 154.176 60.7215C154.488 60.6537 154.709 60.3737 154.709 60.0513V57.8158C154.709 57.3873 154.315 57.0607 153.897 57.1498C152.237 57.4934 150.864 57.6546 149.782 57.6546C147.335 57.6546 146.499 56.2165 146.499 53.455V50.4389C146.499 47.6731 147.335 46.2351 149.782 46.2351C150.967 46.2351 152.336 46.392 153.893 46.7314C154.311 46.8205 154.705 46.4981 154.705 46.0654V43.8426C154.705 43.5202 154.483 43.2402 154.172 43.1724H154.176Z" fill="#ADADAD"/>
<path d="M154.176 43.1724C152.397 42.7863 150.803 42.6082 149.397 42.6082C144.409 42.6082 141.93 45.2297 141.93 50.4389V53.455C141.93 58.6642 144.409 61.2857 149.397 61.2857C150.803 61.2857 152.397 61.1076 154.176 60.7215C154.488 60.6537 154.709 60.3737 154.709 60.0513V57.8158C154.709 57.3873 154.315 57.0607 153.897 57.1498C152.237 57.4934 150.864 57.6546 149.782 57.6546C147.335 57.6546 146.499 56.2165 146.499 53.455V50.4389C146.499 47.6731 147.335 46.2351 149.782 46.2351C150.967 46.2351 152.336 46.392 153.893 46.7314C154.311 46.8205 154.705 46.4981 154.705 46.0654V43.8426C154.705 43.5202 154.483 43.2402 154.172 43.1724H154.176Z" fill="#ADADAD"/>
<path d="M164.567 42.6082C159.554 42.6082 157.032 45.2297 157.032 50.4389V53.455C157.032 58.6642 159.554 61.2857 164.567 61.2857C169.581 61.2857 172.135 58.6642 172.135 53.455V50.4389C172.135 45.2297 169.614 42.6082 164.567 42.6082ZM167.601 53.455C167.601 56.0765 166.963 57.6546 164.567 57.6546C162.172 57.6546 161.566 56.1444 161.566 53.455V50.4389C161.566 49.1112 161.757 48.0676 162.172 47.3125C162.587 46.5956 163.384 46.2351 164.567 46.2351C165.751 46.2351 166.58 46.5957 166.995 47.3465C167.41 48.1016 167.601 49.1069 167.601 50.4347V53.455Z" fill="#ADADAD"/>
<path d="M164.567 42.6082C159.554 42.6082 157.032 45.2297 157.032 50.4389V53.455C157.032 58.6642 159.554 61.2857 164.567 61.2857C169.581 61.2857 172.135 58.6642 172.135 53.455V50.4389C172.135 45.2297 169.614 42.6082 164.567 42.6082ZM167.601 53.455C167.601 56.0765 166.963 57.6546 164.567 57.6546C162.172 57.6546 161.566 56.1444 161.566 53.455V50.4389C161.566 49.1112 161.757 48.0676 162.172 47.3125C162.587 46.5956 163.384 46.2351 164.567 46.2351C165.751 46.2351 166.58 46.5957 166.995 47.3465C167.41 48.1016 167.601 49.1069 167.601 50.4347V53.455Z" fill="#ADADAD"/>
<path d="M115.193 42.6082C110.179 42.6082 107.658 45.2297 107.658 50.4389V53.455C107.658 58.6642 110.179 61.2857 115.193 61.2857C120.207 61.2857 122.761 58.6642 122.761 53.455V50.4389C122.761 45.2297 120.24 42.6082 115.193 42.6082ZM118.227 53.455C118.227 56.0765 117.588 57.6546 115.193 57.6546C112.798 57.6546 112.192 56.1444 112.192 53.455V50.4389C112.192 49.1112 112.383 48.0676 112.798 47.3125C113.213 46.5956 114.01 46.2351 115.193 46.2351C116.377 46.2351 117.206 46.5957 117.621 47.3465C118.036 48.1016 118.227 49.1069 118.227 50.4347V53.455Z" fill="#ADADAD"/>
<path d="M115.193 42.6082C110.179 42.6082 107.658 45.2297 107.658 50.4389V53.455C107.658 58.6642 110.179 61.2857 115.193 61.2857C120.207 61.2857 122.761 58.6642 122.761 53.455V50.4389C122.761 45.2297 120.24 42.6082 115.193 42.6082ZM118.227 53.455C118.227 56.0765 117.588 57.6546 115.193 57.6546C112.798 57.6546 112.192 56.1444 112.192 53.455V50.4389C112.192 49.1112 112.383 48.0676 112.798 47.3125C113.213 46.5956 114.01 46.2351 115.193 46.2351C116.377 46.2351 117.206 46.5957 117.621 47.3465C118.036 48.1016 118.227 49.1069 118.227 50.4347V53.455Z" fill="#ADADAD"/>
<path d="M178.974 36.1878H175.752C175.359 36.1878 175.039 36.4856 175.039 36.8537V60.0362C175.039 60.4043 175.359 60.702 175.752 60.702H178.974C179.367 60.702 179.686 60.4043 179.686 60.0362V36.8537C179.686 36.4856 179.367 36.1878 178.974 36.1878Z" fill="#ADADAD"/>
<path d="M178.974 36.1878H175.752C175.359 36.1878 175.039 36.4856 175.039 36.8537V60.0362C175.039 60.4043 175.359 60.702 175.752 60.702H178.974C179.367 60.702 179.686 60.4043 179.686 60.0362V36.8537C179.686 36.4856 179.367 36.1878 178.974 36.1878Z" fill="#ADADAD"/>
<path d="M190.126 42.6082C185.112 42.6082 182.591 45.2297 182.591 50.4389V53.455C182.591 58.6642 185.112 61.2857 190.126 61.2857C195.14 61.2857 197.693 58.6642 197.693 53.455V50.4389C197.693 45.2297 195.172 42.6082 190.126 42.6082ZM193.159 53.455C193.159 56.0765 192.521 57.6546 190.126 57.6546C187.731 57.6546 187.125 56.1444 187.125 53.455V50.4389C187.125 49.1112 187.316 48.0676 187.731 47.3125C188.145 46.5956 188.942 46.2351 190.126 46.2351C191.309 46.2351 192.139 46.5957 192.553 47.3465C192.968 48.1016 193.159 49.1069 193.159 50.4347V53.455Z" fill="#ADADAD"/>
<path d="M190.126 42.6082C185.112 42.6082 182.591 45.2297 182.591 50.4389V53.455C182.591 58.6642 185.112 61.2857 190.126 61.2857C195.14 61.2857 197.693 58.6642 197.693 53.455V50.4389C197.693 45.2297 195.172 42.6082 190.126 42.6082ZM193.159 53.455C193.159 56.0765 192.521 57.6546 190.126 57.6546C187.731 57.6546 187.125 56.1444 187.125 53.455V50.4389C187.125 49.1112 187.316 48.0676 187.731 47.3125C188.145 46.5956 188.942 46.2351 190.126 46.2351C191.309 46.2351 192.139 46.5957 192.553 47.3465C192.968 48.1016 193.159 49.1069 193.159 50.4347V53.455Z" fill="#ADADAD"/>
<path d="M214.456 42.9645H212.379C212.165 42.9645 211.967 43.0693 211.841 43.2412L211.169 44.1719C210.943 44.4864 210.502 44.5409 210.206 44.2893C208.875 43.1616 207.491 42.6082 206.034 42.6082C202.411 42.6082 200.598 45.0942 200.598 50.0622V53.3281C200.598 58.2961 202.411 60.7822 206.034 60.7822C207.296 60.7822 208.506 60.3671 209.672 59.5203C210.117 59.1974 210.736 59.5035 210.736 60.0569V61.1343C210.736 63.7965 209.971 65.289 206.794 65.289C205.458 65.289 203.985 65.1339 202.411 64.7985C201.998 64.7104 201.614 65.0333 201.614 65.4567V67.6577C201.614 67.9721 201.832 68.253 202.136 68.3201C203.868 68.6974 205.447 68.8735 206.92 68.8735C213.659 68.8735 215.119 65.2554 215.119 61.1343V43.6353C215.119 43.2622 214.82 42.9603 214.452 42.9603L214.456 42.9645ZM210.736 55.4662C210.736 55.68 210.639 55.8897 210.465 56.0154C209.648 56.5898 208.757 56.8749 207.814 56.8749C205.75 56.8749 205.115 55.7764 205.115 53.3239V50.058C205.115 47.5384 205.75 46.4736 207.814 46.4736C208.7 46.4736 209.587 46.7586 210.449 47.333C210.631 47.4546 210.736 47.6684 210.736 47.8906V55.4662Z" fill="#ADADAD"/>
<path d="M214.456 42.9645H212.379C212.165 42.9645 211.967 43.0693 211.841 43.2412L211.169 44.1719C210.943 44.4864 210.502 44.5409 210.206 44.2893C208.875 43.1616 207.491 42.6082 206.034 42.6082C202.411 42.6082 200.598 45.0942 200.598 50.0622V53.3281C200.598 58.2961 202.411 60.7822 206.034 60.7822C207.296 60.7822 208.506 60.3671 209.672 59.5203C210.117 59.1974 210.736 59.5035 210.736 60.0569V61.1343C210.736 63.7965 209.971 65.289 206.794 65.289C205.458 65.289 203.985 65.1339 202.411 64.7985C201.998 64.7104 201.614 65.0333 201.614 65.4567V67.6577C201.614 67.9721 201.832 68.253 202.136 68.3201C203.868 68.6974 205.447 68.8735 206.92 68.8735C213.659 68.8735 215.119 65.2554 215.119 61.1343V43.6353C215.119 43.2622 214.82 42.9603 214.452 42.9603L214.456 42.9645ZM210.736 55.4662C210.736 55.68 210.639 55.8897 210.465 56.0154C209.648 56.5898 208.757 56.8749 207.814 56.8749C205.75 56.8749 205.115 55.7764 205.115 53.3239V50.058C205.115 47.5384 205.75 46.4736 207.814 46.4736C208.7 46.4736 209.587 46.7586 210.449 47.333C210.631 47.4546 210.736 47.6684 210.736 47.8906V55.4662Z" fill="#ADADAD"/>
<path d="M222.539 43.1918H219.317C218.924 43.1918 218.605 43.4897 218.605 43.8578V60.0361C218.605 60.4042 218.924 60.702 219.317 60.702H222.539C222.932 60.702 223.252 60.4042 223.252 60.0361V43.8578C223.252 43.4897 222.932 43.1918 222.539 43.1918Z" fill="#ADADAD"/>
<path d="M222.539 43.1918H219.317C218.924 43.1918 218.605 43.4897 218.605 43.8578V60.0361C218.605 60.4042 218.924 60.702 219.317 60.702H222.539C222.932 60.702 223.252 60.4042 223.252 60.0361V43.8578C223.252 43.4897 222.932 43.1918 222.539 43.1918Z" fill="#ADADAD"/>
<path d="M220.638 35.0204C218.884 35.0204 218.024 35.9036 218.024 37.6282C218.024 39.3528 218.884 40.2735 220.638 40.2735C222.392 40.2735 223.252 39.3903 223.252 37.6282C223.252 35.8661 222.392 35.0204 220.638 35.0204Z" fill="#ADADAD"/>
<path d="M220.638 35.0204C218.884 35.0204 218.024 35.9036 218.024 37.6282C218.024 39.3528 218.884 40.2735 220.638 40.2735C222.392 40.2735 223.252 39.3903 223.252 37.6282C223.252 35.8661 222.392 35.0204 220.638 35.0204Z" fill="#ADADAD"/>
<path d="M232.889 42.6082C231.266 42.6082 229.615 42.7863 227.895 43.1681C227.592 43.236 227.377 43.516 227.377 43.8384V46.023C227.377 46.4642 227.772 46.7865 228.187 46.6847C229.423 46.3793 230.855 46.2351 232.514 46.2351C234.8 46.2351 235.773 47.0623 235.773 49.2172V49.6966C235.773 50.1462 235.362 50.4644 234.943 50.3541C233.906 50.0699 232.774 49.9384 231.545 49.9384C228.382 49.9384 226.156 51.7327 226.156 55.1475V55.7923C226.156 59.4192 227.911 61.2857 231.074 61.2857C232.562 61.2857 233.954 60.73 235.251 59.5932C235.542 59.3386 235.981 59.3895 236.204 59.7119L236.862 60.6494C236.986 60.8276 237.181 60.9294 237.393 60.9294H239.439C239.802 60.9294 240.097 60.624 240.097 60.2464V49.2215C240.097 46.9223 239.562 45.234 238.529 44.1947C237.496 43.1511 235.618 42.6124 232.889 42.6124V42.6082ZM235.769 56.1868C235.769 56.4286 235.65 56.6577 235.446 56.7765C234.608 57.2601 233.747 57.5103 232.857 57.5103C231.258 57.5103 230.476 56.8655 230.476 55.5717V55.2112C230.476 54.0276 231.445 53.2726 232.917 53.2726C233.771 53.2726 234.585 53.3956 235.315 53.6586C235.582 53.7562 235.765 54.0149 235.765 54.3076V56.1826L235.769 56.1868Z" fill="#ADADAD"/>
<path d="M232.889 42.6082C231.266 42.6082 229.615 42.7863 227.895 43.1681C227.592 43.236 227.377 43.516 227.377 43.8384V46.023C227.377 46.4642 227.772 46.7865 228.187 46.6847C229.423 46.3793 230.855 46.2351 232.514 46.2351C234.8 46.2351 235.773 47.0623 235.773 49.2172V49.6966C235.773 50.1462 235.362 50.4644 234.943 50.3541C233.906 50.0699 232.774 49.9384 231.545 49.9384C228.382 49.9384 226.156 51.7327 226.156 55.1475V55.7923C226.156 59.4192 227.911 61.2857 231.074 61.2857C232.562 61.2857 233.954 60.73 235.251 59.5932C235.542 59.3386 235.981 59.3895 236.204 59.7119L236.862 60.6494C236.986 60.8276 237.181 60.9294 237.393 60.9294H239.439C239.802 60.9294 240.097 60.624 240.097 60.2464V49.2215C240.097 46.9223 239.562 45.234 238.529 44.1947C237.496 43.1511 235.618 42.6124 232.889 42.6124V42.6082ZM235.769 56.1868C235.769 56.4286 235.65 56.6577 235.446 56.7765C234.608 57.2601 233.747 57.5103 232.857 57.5103C231.258 57.5103 230.476 56.8655 230.476 55.5717V55.2112C230.476 54.0276 231.445 53.2726 232.917 53.2726C233.771 53.2726 234.585 53.3956 235.315 53.6586C235.582 53.7562 235.765 54.0149 235.765 54.3076V56.1826L235.769 56.1868Z" fill="#ADADAD"/>
</g>
</svg>
