<svg width="484" height="78" viewBox="0 0 484 78" fill="none" xmlns="http://www.w3.org/2000/svg">
<path fill-rule="evenodd" clip-rule="evenodd" d="M134.411 61.3625C131.263 63.2922 127.429 64.3218 122.923 64.4375C112.711 65.5636 105.354 61.4086 99.6476 54.2491C89.5329 41.5545 83.2982 28.1085 72.077 14.8982C67.9736 10.1397 63.075 6.46732 57.3996 3.88022C51.7086 1.29225 45.8105 0 39.6879 0C17.1499 0 4.05753 14.6617 0.81619 31.273C-3.41774 52.9725 9.16573 77.9991 39.4792 77.9991C45.4138 77.9991 50.7412 77.0704 55.4353 75.199C58.2904 73.9772 61.1673 72.3614 63.8858 70.4552C63.8858 72.711 63.878 74.9677 63.878 77.2217H77.4044V62.5235C77.4001 62.2165 77.3949 61.9087 77.3896 61.6017C77.3879 61.3799 77.3818 61.1625 77.3783 60.9417C77.3601 60.0407 76.7589 59.0702 76.0212 58.2589C73.254 55.2161 69.9152 51.3168 67.0427 48.3018C63.3838 54.2552 57.9703 58.972 51.5259 61.7739C51.3267 61.8704 51.1301 61.9634 50.9335 62.0504C48.9039 62.9679 46.7448 63.607 44.4603 63.9723L44.4516 63.974H44.4499C42.9127 64.2201 41.319 64.3427 39.6705 64.3427C20.6696 64.3427 12.4697 49.054 14.4253 35.2698C16.0312 23.957 24.479 13.6547 39.4104 13.6547C47.8452 13.6547 55.4162 17.2053 62.1607 24.3092C73.2671 37.5064 80.4448 50.2054 87.4903 60.4025L87.4938 60.4103C90.9074 65.7593 95.3362 69.9422 100.812 72.9815C106.865 76.3269 113.747 77.9991 121.457 77.9991C128.667 77.9991 134.962 76.4651 140.326 73.4128C144.752 70.8744 148.503 67.389 151.58 62.9705L139.885 56.2188C138.309 58.378 136.482 60.0912 134.411 61.3625Z" fill="#ADADAD"/>
<path fill-rule="evenodd" clip-rule="evenodd" d="M103.6 20.409C108.395 16.0348 114.265 13.8625 121.2 13.8625C129.582 13.8625 136.929 17.1888 143.225 23.8457L153.177 14.0008C148.624 9.08659 143.967 5.60379 139.223 3.58629C133.582 1.18876 127.529 0 121.061 0C108.694 0 98.6392 4.3272 90.9299 12.9825C88.8403 15.3156 87.0857 17.7827 85.666 20.3829C88.5759 24.517 91.2013 28.8503 93.7624 33.0731C96.634 28.2807 99.6431 23.9231 103.6 20.409Z" fill="#ADADAD"/>
<path d="M176.36 45.1069H167.832L181.302 8.8918H190.535L203.951 45.1069H195.097L192.328 36.7994H179.074L176.36 45.1069ZM185.701 16.6557L181.085 30.6643H190.318L185.701 16.6557Z" fill="#ADADAD"/>
<path d="M207.373 19.642H214.542L214.923 22.9543C215.719 21.6882 216.841 20.6838 218.29 19.9411C219.737 19.1993 221.367 18.8271 223.178 18.8271C226.075 18.8271 228.338 19.742 229.967 21.5699C231.598 23.3978 232.413 25.9223 232.413 29.1442V45.1069H224.59V30.7739C224.59 27.4441 223.159 25.778 220.3 25.778C218.743 25.778 217.502 26.331 216.579 27.4346C215.656 28.539 215.194 30.0504 215.194 31.9679V45.1077H207.372L207.373 19.642Z" fill="#ADADAD"/>
<path d="M238.007 19.642H245.176L245.557 22.9543C246.353 21.6882 247.475 20.6838 248.924 19.9411C250.371 19.1993 252.001 18.8271 253.812 18.8271C256.709 18.8271 258.972 19.742 260.602 21.5699C262.231 23.3978 263.046 25.9223 263.046 29.1442V45.1069H255.225V30.7739C255.225 27.4441 253.795 25.778 250.934 25.778C249.377 25.778 248.137 26.331 247.214 27.4346C246.291 28.539 245.828 30.0504 245.828 31.9679V45.1077H238.007V19.642Z" fill="#ADADAD"/>
<path d="M267.391 37.9395C267.391 35.1524 268.386 32.954 270.378 31.3426C272.369 29.7321 275.338 28.926 279.286 28.926C279.939 28.926 280.635 28.9538 281.377 29.0077C282.119 29.0616 282.925 29.1434 283.794 29.2512V28.7633C283.794 26.1215 281.966 24.7996 278.308 24.7996C275.557 24.7996 273.203 25.5049 271.248 26.9172L268.423 21.976C271.392 19.8768 275.013 18.8263 279.286 18.8263C283.161 18.8263 286.148 19.7141 288.248 21.4873C290.347 23.2613 291.398 25.7588 291.398 28.9799V45.106H284.5L284.228 42.3371C283.395 43.4589 282.291 44.3373 280.915 44.9703C279.538 45.6034 277.909 45.9199 276.027 45.9199C273.455 45.9199 271.373 45.1947 269.78 43.7477C268.186 42.3006 267.39 40.364 267.39 37.9386M274.776 37.0151C274.776 38.1013 275.11 38.9152 275.781 39.4587C276.451 40.0014 277.401 40.2727 278.633 40.2727C280.116 40.2727 281.349 39.8848 282.326 39.1048C283.303 38.3274 283.792 37.3229 283.792 36.0916V33.648C282.489 33.468 281.311 33.3766 280.262 33.3766C278.487 33.3766 277.13 33.6662 276.187 34.2454C275.246 34.8254 274.776 35.7481 274.776 37.0142" fill="#ADADAD"/>
<path d="M305.628 27.0259C305.628 23.3343 306.423 20.0576 308.017 17.1984C309.61 14.3391 311.82 12.0946 314.643 10.4658C317.468 8.83701 320.69 8.02219 324.312 8.02219C327.426 8.02219 330.259 8.64657 332.812 9.89533C335.365 11.1441 337.419 12.8912 338.976 15.1348L333.49 20.1837C331.317 16.9992 328.42 15.4061 324.8 15.4061C322.735 15.4061 320.907 15.8948 319.313 16.8714C317.719 17.8488 316.48 19.1985 315.593 20.9168C314.706 22.6369 314.262 24.6544 314.262 26.9711C314.262 29.2877 314.715 31.2687 315.621 33.0244C316.525 34.7802 317.775 36.1464 319.369 37.1238C320.962 38.1013 322.809 38.5891 324.909 38.5891C328.42 38.5891 331.427 36.9795 333.924 33.7575L339.247 38.5891C337.582 40.9788 335.473 42.8059 332.921 44.0738C330.367 45.3408 327.497 45.9747 324.311 45.9747C320.689 45.9747 317.468 45.1695 314.643 43.5581C311.819 41.9476 309.609 39.7126 308.016 36.8525C306.423 33.9932 305.627 30.7174 305.627 27.025" fill="#ADADAD"/>
<path d="M351.089 8.89093H343.267V45.106H351.089V8.89093Z" fill="#ADADAD"/>
<path d="M355.651 37.9395C355.651 35.1524 356.646 32.954 358.638 31.3426C360.629 29.7321 363.598 28.926 367.546 28.926C368.199 28.926 368.895 28.9538 369.637 29.0077C370.379 29.0616 371.185 29.1434 372.054 29.2512V28.7633C372.054 26.1215 370.226 24.7996 366.568 24.7996C363.816 24.7996 361.463 25.5049 359.508 26.9172L356.683 21.976C359.652 19.8768 363.273 18.8263 367.546 18.8263C371.421 18.8263 374.408 19.7141 376.508 21.4873C378.607 23.2613 379.658 25.7588 379.658 28.9799V45.106H372.76L372.489 42.3371C371.656 43.4589 370.552 44.3373 369.176 44.9703C367.799 45.6034 366.17 45.9199 364.287 45.9199C361.715 45.9199 359.633 45.1947 358.04 43.7477C356.446 42.3006 355.651 40.3649 355.651 37.9395ZM363.037 37.0151C363.037 38.1013 363.372 38.9152 364.043 39.4587C364.712 40.0014 365.663 40.2727 366.894 40.2727C368.378 40.2727 369.611 39.8848 370.587 39.1048C371.564 38.3274 372.054 37.3229 372.054 36.0916V33.648C370.75 33.468 369.573 33.3766 368.523 33.3766C366.748 33.3766 365.391 33.6662 364.449 34.2454C363.508 34.8254 363.036 35.7481 363.036 37.0142" fill="#ADADAD"/>
<path d="M385.089 35.6055V19.6428H392.91V33.868C392.91 37.2708 394.285 38.9717 397.038 38.9717C398.595 38.9717 399.826 38.3943 400.731 37.2342C401.636 36.0768 402.089 34.5019 402.089 32.5105V19.6428H409.911V45.1077H402.904L402.523 41.6328C401.69 42.972 400.55 44.0216 399.102 44.7816C397.653 45.5417 396.041 45.9226 394.268 45.9226C391.407 45.9226 389.161 45.0086 387.532 43.1798C385.903 41.3527 385.089 38.8282 385.089 35.6055Z" fill="#ADADAD"/>
<path d="M414.419 33.1618C414.419 30.3382 414.989 27.8502 416.13 25.6962C417.271 23.5431 418.827 21.8603 420.8 20.6472C422.773 19.435 425.01 18.828 427.509 18.828C428.558 18.828 429.528 18.9463 430.415 19.1819C431.301 19.4176 432.162 19.7698 432.994 20.2403V8.89093H440.816V45.106H433.701L433.32 42.011C432.524 43.2424 431.464 44.2016 430.143 44.8895C428.821 45.5765 427.292 45.9208 425.554 45.9208C423.38 45.9208 421.452 45.3869 419.77 44.319C418.085 43.252 416.773 41.7589 415.831 39.8396C414.888 37.9212 414.419 35.6968 414.419 33.1618ZM422.295 32.6183C422.295 34.6463 422.784 36.2472 423.761 37.4238C424.739 38.6004 426.06 39.1883 427.726 39.1883C429.392 39.1883 430.596 38.6456 431.555 37.5595C432.515 36.4733 432.995 35.0446 432.995 33.2706V26.7545C431.655 25.9588 430.243 25.5597 428.759 25.5597C426.766 25.5597 425.191 26.1841 424.034 27.4328C422.874 28.6816 422.295 30.4104 422.295 32.6183Z" fill="#ADADAD"/>
<path d="M446.519 9.1092H454.612V15.8965H446.519V9.1092ZM446.628 19.6428H454.449V45.1077H446.628V19.6428Z" fill="#ADADAD"/>
<path d="M459.011 37.9395C459.011 35.1524 460.007 32.954 461.998 31.3426C463.99 29.7321 466.959 28.926 470.906 28.926C471.559 28.926 472.255 28.9538 472.998 29.0077C473.74 29.0616 474.546 29.1434 475.415 29.2512V28.7633C475.415 26.1215 473.586 24.7996 469.929 24.7996C467.177 24.7996 464.823 25.5049 462.868 26.9172L460.044 21.976C463.013 19.8768 466.633 18.8263 470.906 18.8263C474.781 18.8263 477.768 19.7141 479.868 21.4873C481.968 23.2613 483.018 25.7588 483.018 28.9799V45.106H476.121L475.849 42.3371C475.016 43.4589 473.911 44.3373 472.536 44.9703C471.16 45.6034 469.53 45.9199 467.648 45.9199C465.076 45.9199 462.994 45.1947 461.401 43.7477C459.807 42.3006 459.011 40.3649 459.011 37.9395ZM466.398 37.0151C466.398 38.1013 466.732 38.9152 467.402 39.4587C468.072 40.0014 469.022 40.2727 470.254 40.2727C471.737 40.2727 472.97 39.8848 473.947 39.1048C474.925 38.3274 475.414 37.3229 475.414 36.0916V33.648C474.109 33.468 472.932 33.3766 471.883 33.3766C470.107 33.3766 468.75 33.6662 467.808 34.2454C466.867 34.8254 466.396 35.7481 466.396 37.0142" fill="#ADADAD"/>
<path d="M173.45 67.6812C173.45 66.9524 173.2 66.3541 172.7 65.8845C172.199 65.4158 171.413 65.0384 170.338 64.7549L169.616 64.5697C167.405 63.9897 166.299 62.9157 166.299 61.3478C166.299 60.7182 166.459 60.1686 166.781 59.6998C167.102 59.2303 167.547 58.8659 168.114 58.6067C168.683 58.3467 169.343 58.2172 170.097 58.2172C171.69 58.2172 172.894 58.785 173.709 59.9216L173.172 60.366C172.456 59.3911 171.424 58.9033 170.077 58.9033C169.15 58.9033 168.417 59.1224 167.873 59.5607C167.329 59.999 167.058 60.5947 167.058 61.3486C167.058 61.9782 167.28 62.4965 167.725 62.9044C168.17 63.3114 168.892 63.6514 169.893 63.9227L170.634 64.1088C173.006 64.7384 174.191 65.9237 174.191 67.6646C174.191 68.3568 174.018 68.9673 173.673 69.4987C173.327 70.03 172.849 70.4404 172.237 70.73C171.625 71.0196 170.906 71.1648 170.078 71.1648C169.251 71.1648 168.432 70.9987 167.697 70.6648C166.962 70.3309 166.329 69.8439 165.798 69.2012L166.317 68.7386C167.355 69.8996 168.614 70.4787 170.096 70.4787C171.12 70.4787 171.936 70.2257 172.541 69.7204C173.147 69.2143 173.448 68.5351 173.448 67.6829" fill="#ADADAD"/>
<path d="M183.936 66.7176H177.989L176.285 70.8666H175.544L180.657 58.5137H181.325L186.438 70.8666H185.641L183.936 66.7176ZM180.972 59.4207L178.23 66.088H183.695L180.972 59.4207Z" fill="#ADADAD"/>
<path d="M187.846 65.9402V58.5137H188.568V65.9402C188.568 67.4707 188.889 68.6125 189.532 69.3665C190.174 70.1196 191.15 70.4961 192.459 70.4961C195.053 70.4961 196.35 68.9778 196.35 65.9411V58.5146H197.072V65.9411C197.072 69.423 195.534 71.1631 192.458 71.1631C189.382 71.1631 187.845 69.423 187.845 65.9411M193.755 54.81H194.644L192.699 57.3658H192.05L193.755 54.81Z" fill="#ADADAD"/>
<path d="M200.407 58.5137H203.834C205.971 58.5137 207.638 59.045 208.836 60.1068C210.034 61.1686 210.634 62.6931 210.634 64.681C210.634 66.6689 210.044 68.1812 208.865 69.256C207.684 70.33 206.008 70.8666 203.835 70.8666H200.407L200.407 58.5137ZM209.874 64.681C209.874 62.8905 209.346 61.5234 208.29 60.5782C207.234 59.6338 205.743 59.1616 203.816 59.1616H201.129V70.2187H203.835C205.786 70.2187 207.281 69.743 208.318 68.7925C209.356 67.842 209.874 66.4715 209.874 64.681Z" fill="#ADADAD"/>
<path d="M213.468 58.5128H220.787V59.1616H214.19V64.0879H219.305V64.7358H214.19V70.2178H221.231V70.8666H213.468V58.5128Z" fill="#ADADAD"/>
<path d="M223.881 69.7369H224.622C224.622 71.2431 224.202 72.4719 223.362 73.4224L222.917 73.1076C223.56 72.2058 223.881 71.0822 223.881 69.7369Z" fill="#ADADAD"/>
<path d="M231.495 58.5137H235.182C236.479 58.5137 237.479 58.8163 238.183 59.4207C238.888 60.026 239.239 60.8903 239.239 62.013C239.239 63.1357 238.89 63.9983 238.193 64.5966C237.494 65.1958 236.497 65.495 235.2 65.495H232.199V70.8657H231.495V58.5137ZM238.48 62.0322C238.48 61.1191 238.195 60.4121 237.627 59.912C237.059 59.4111 236.249 59.1616 235.199 59.1616H232.198V64.8662H235.181C236.243 64.8662 237.058 64.6201 237.626 64.1253C238.194 63.6314 238.48 62.9339 238.48 62.0322Z" fill="#ADADAD"/>
<path d="M241.907 58.5128H249.225V59.1616H242.629V64.0879H247.743V64.7358H242.629V70.2178H249.67V70.8666H241.907V58.5128Z" fill="#ADADAD"/>
<path d="M252.282 58.5128H256.21C257.495 58.5128 258.489 58.8094 259.193 59.4016C259.897 59.9946 260.249 60.8408 260.249 61.9391C260.249 62.8409 260.014 63.5757 259.545 64.1436C259.075 64.7114 258.403 65.0871 257.526 65.2732L260.583 70.8666H259.767L256.822 65.3845C256.625 65.3967 256.42 65.4028 256.211 65.4028H252.987V70.8657H252.283L252.282 58.5128ZM259.489 61.9948C259.489 61.0686 259.208 60.3616 258.646 59.8738C258.084 59.3868 257.272 59.1424 256.21 59.1424H252.987V64.7732H256.21C257.272 64.7732 258.084 64.5349 258.646 64.0601C259.207 63.5853 259.489 62.8957 259.489 61.9948Z" fill="#ADADAD"/>
<path d="M263.213 58.5128H270.513V59.1616H263.936V64.0505H269.086V64.6984H263.936V70.8666H263.213V58.5128Z" fill="#ADADAD"/>
<path d="M271.94 64.6801C271.94 63.767 272.094 62.9183 272.402 62.1339C272.712 61.3495 273.144 60.6642 273.699 60.0781C274.255 59.492 274.901 59.0346 275.636 58.7076C276.371 58.3806 277.171 58.2163 278.036 58.2163C278.901 58.2163 279.704 58.3798 280.444 58.7076C281.184 59.0346 281.834 59.492 282.389 60.0781C282.945 60.6651 283.377 61.3495 283.686 62.1339C283.995 62.9183 284.149 63.767 284.149 64.6801C284.149 65.5932 283.995 66.4463 283.686 67.2359C283.377 68.0255 282.948 68.7151 282.398 69.3013C281.848 69.8874 281.203 70.3448 280.462 70.6718C279.721 70.9987 278.918 71.1622 278.053 71.1622C277.189 71.1622 276.386 70.9979 275.645 70.6718C274.903 70.3448 274.255 69.8874 273.699 69.3013C273.144 68.7151 272.712 68.0255 272.402 67.2359C272.094 66.4463 271.94 65.5941 271.94 64.6801ZM272.699 64.6801C272.699 65.7915 272.933 66.7829 273.403 67.6525C273.872 68.5229 274.511 69.2117 275.32 69.7178C276.129 70.2248 277.04 70.477 278.053 70.477C279.067 70.477 279.993 70.2239 280.795 69.7178C281.598 69.2117 282.232 68.5229 282.694 67.6525C283.157 66.7829 283.39 65.7915 283.39 64.6801C283.39 63.5688 283.157 62.5774 282.694 61.7078C282.231 60.8373 281.598 60.1512 280.795 59.652C279.993 59.152 279.078 58.9024 278.053 58.9024C277.029 58.9024 276.111 59.152 275.303 59.652C274.494 60.1521 273.858 60.8373 273.394 61.7078C272.93 62.5774 272.699 63.5688 272.699 64.6801Z" fill="#ADADAD"/>
<path d="M286.984 58.5128H290.912C292.196 58.5128 293.191 58.8094 293.894 59.4016C294.599 59.9946 294.951 60.8408 294.951 61.9391C294.951 62.8409 294.716 63.5757 294.246 64.1436C293.777 64.7114 293.104 65.0871 292.226 65.2732L295.283 70.8666H294.468L291.523 65.3845C291.325 65.3967 291.121 65.4028 290.911 65.4028H287.687V70.8657H286.983L286.984 58.5128ZM294.191 61.9948C294.191 61.0686 293.91 60.3616 293.348 59.8738C292.786 59.3868 291.973 59.1424 290.912 59.1424H287.688V64.7732H290.912C291.973 64.7732 292.786 64.5349 293.348 64.0601C293.91 63.5853 294.191 62.8957 294.191 61.9948Z" fill="#ADADAD"/>
<path d="M307.882 59.6616L303.547 66.9029H303.102L298.767 59.6799L298.284 70.8666H297.599L298.155 58.5137H298.841L303.343 66.0324L307.827 58.5137H308.511L309.068 70.8666H308.363L307.882 59.6616Z" fill="#ADADAD"/>
<path d="M319.295 66.7176H313.348L311.643 70.8666H310.902L316.015 58.5137H316.682L321.796 70.8666H320.999L319.295 66.7176ZM316.33 59.4207L313.587 66.088H319.053L316.33 59.4207Z" fill="#ADADAD"/>
<path d="M323.945 58.5128H324.649L332.856 69.7552V58.5128H333.561V70.8666H332.856L324.649 59.6242V70.8666H323.945V58.5128Z" fill="#ADADAD"/>
<path d="M336.395 64.7175C336.395 63.7914 336.54 62.9331 336.83 62.1426C337.12 61.353 337.532 60.6643 338.062 60.0781C338.593 59.4911 339.216 59.0346 339.933 58.7068C340.649 58.3798 341.427 58.2154 342.267 58.2154C343.242 58.2154 344.139 58.4285 344.954 58.8546C345.769 59.2807 346.424 59.8703 346.918 60.6234L346.38 61.0678C345.923 60.3755 345.336 59.8425 344.62 59.4651C343.903 59.0885 343.12 58.8998 342.267 58.8998C341.279 58.8998 340.398 59.1503 339.628 59.6503C338.855 60.1503 338.251 60.8382 337.812 61.7156C337.374 62.5913 337.154 63.5983 337.154 64.734C337.154 65.8698 337.37 66.8333 337.803 67.6977C338.235 68.5621 338.837 69.2413 339.608 69.7352C340.381 70.2291 341.261 70.4752 342.25 70.4752C343.101 70.4752 343.891 70.2874 344.621 69.91C345.35 69.5334 345.967 68.9943 346.474 68.2899L346.992 68.7343C346.462 69.5004 345.782 70.0952 344.955 70.5213C344.127 70.9474 343.226 71.1605 342.25 71.1605C341.126 71.1605 340.123 70.8831 339.239 70.3274C338.356 69.7717 337.661 69.0065 337.155 68.0307C336.648 67.055 336.396 65.9498 336.396 64.7149" fill="#ADADAD"/>
<path d="M349.624 58.5128H356.942V59.1616H350.346V64.0879H355.459V64.7358H350.346V70.2178H357.386V70.8666H349.624V58.5128Z" fill="#ADADAD"/>
<path d="M363.482 58.5128H370.8V59.1616H364.204V64.0879H369.317V64.7358H364.204V70.2178H371.244V70.8666H363.482V58.5128Z" fill="#ADADAD"/>
<path d="M387.307 59.6616L382.972 66.9029H382.527L378.192 59.6799L377.71 70.8666H377.025L377.581 58.5137H378.265L382.768 66.0324L387.252 58.5137H387.937L388.493 70.8666H387.789L387.307 59.6616Z" fill="#ADADAD"/>
<path d="M391.012 64.6801C391.012 63.767 391.167 62.9183 391.476 62.1339C391.786 61.3495 392.217 60.6642 392.773 60.0781C393.329 59.492 393.975 59.0346 394.709 58.7076C395.443 58.3806 396.243 58.2163 397.108 58.2163C397.973 58.2163 398.776 58.3798 399.517 58.7076C400.258 59.0346 400.907 59.492 401.462 60.0781C402.018 60.6651 402.45 61.3495 402.759 62.1339C403.068 62.9183 403.223 63.767 403.223 64.6801C403.223 65.5932 403.068 66.4463 402.759 67.2359C402.45 68.0255 402.021 68.7151 401.472 69.3013C400.922 69.8874 400.276 70.3448 399.536 70.6718C398.795 70.9987 397.992 71.1622 397.127 71.1622C396.262 71.1622 395.46 70.9979 394.718 70.6718C393.976 70.3448 393.328 69.8874 392.772 69.3013C392.216 68.7151 391.785 68.0255 391.475 67.2359C391.166 66.4463 391.012 65.5941 391.012 64.6801ZM391.771 64.6801C391.771 65.7915 392.006 66.7829 392.476 67.6525C392.945 68.5229 393.583 69.2117 394.393 69.7178C395.202 70.2248 396.113 70.477 397.126 70.477C398.14 70.477 399.065 70.2239 399.868 69.7178C400.671 69.2117 401.305 68.5229 401.767 67.6525C402.23 66.7829 402.462 65.7915 402.462 64.6801C402.462 63.5688 402.23 62.5774 401.767 61.7078C401.304 60.8373 400.67 60.1512 399.868 59.652C399.065 59.152 398.15 58.9024 397.126 58.9024C396.102 58.9024 395.184 59.152 394.376 59.652C393.567 60.1521 392.93 60.8373 392.467 61.7078C392.004 62.5774 391.771 63.5688 391.771 64.6801Z" fill="#ADADAD"/>
<path d="M414.116 58.5128H414.875L409.762 70.8666H409.077L403.963 58.5128H404.759L409.447 69.9404L414.116 58.5128Z" fill="#ADADAD"/>
<path d="M417.766 58.5137H417.043V70.8666H417.766V58.5137Z" fill="#ADADAD"/>
<path d="M431.253 59.6616L426.918 66.9029H426.473L422.138 59.6799L421.656 70.8666H420.971L421.527 58.5137H422.211L426.714 66.0324L431.198 58.5137H431.883L432.439 70.8666H431.735L431.253 59.6616Z" fill="#ADADAD"/>
<path d="M435.644 58.5128H442.963V59.1616H436.367V64.0879H441.48V64.7358H436.367V70.2178H443.406V70.8666H435.644V58.5128Z" fill="#ADADAD"/>
<path d="M446.02 58.5128H446.724L454.93 69.7552V58.5128H455.635V70.8666H454.93L446.724 59.6242V70.8666H446.02V58.5128Z" fill="#ADADAD"/>
<path d="M462.787 59.1616H458.006V58.5128H468.271V59.1616H463.491V70.8666H462.787V59.1616Z" fill="#ADADAD"/>
<path d="M469.252 64.6801C469.252 63.767 469.407 62.9183 469.715 62.1339C470.025 61.3495 470.457 60.6642 471.013 60.0781C471.568 59.492 472.214 59.0346 472.948 58.7076C473.682 58.3806 474.483 58.2163 475.347 58.2163C476.212 58.2163 477.015 58.3798 477.755 58.7076C478.497 59.0346 479.145 59.492 479.701 60.0781C480.256 60.6651 480.689 61.3495 480.998 62.1339C481.306 62.9183 481.46 63.767 481.46 64.6801C481.46 65.5932 481.306 66.4463 480.998 67.2359C480.689 68.0255 480.259 68.7151 479.71 69.3013C479.16 69.8874 478.516 70.3448 477.774 70.6718C477.033 70.9987 476.23 71.1622 475.366 71.1622C474.501 71.1622 473.698 70.9979 472.957 70.6718C472.215 70.3448 471.567 69.8874 471.011 69.3013C470.455 68.7151 470.023 68.0255 469.714 67.2359C469.405 66.4463 469.25 65.5941 469.25 64.6801M470.01 64.6801C470.01 65.7915 470.244 66.7829 470.714 67.6525C471.183 68.5229 471.822 69.2117 472.631 69.7178C473.441 70.2248 474.351 70.477 475.365 70.477C476.378 70.477 477.304 70.2239 478.107 69.7178C478.91 69.2117 479.543 68.5229 480.006 67.6525C480.469 66.7829 480.701 65.7915 480.701 64.6801C480.701 63.5688 480.469 62.5774 480.006 61.7078C479.542 60.8373 478.909 60.1512 478.107 59.652C477.304 59.152 476.389 58.9024 475.365 58.9024C474.341 58.9024 473.422 59.152 472.614 59.652C471.805 60.1521 471.168 60.8373 470.705 61.7078C470.243 62.5774 470.01 63.5688 470.01 64.6801Z" fill="#ADADAD"/>
</svg>
