<svg width="283" height="89" viewBox="0 0 283 89" fill="none" xmlns="http://www.w3.org/2000/svg">
<path d="M178.046 27.0265C178.046 27.0265 177.626 26.8325 177.175 26.6062C176.562 26.283 176.143 25.6041 175.949 24.9898C175.949 24.9898 169.564 7.66182 167.854 2.94188C167.564 2.23066 166.919 1.77806 166.145 1.77806H161.759C160.985 1.77806 160.308 2.26299 160.05 2.97421C158.437 7.72648 152.696 24.6989 152.696 24.6989C152.309 25.992 151.761 26.4446 150.6 27.0265C149.987 27.3498 149.6 27.9317 149.6 28.6106C149.6 29.6128 150.374 30.3887 151.374 30.3887H157.115C158.05 30.3887 158.888 29.6128 158.888 28.6106C158.888 27.9317 158.469 27.3821 157.889 27.0265C157.889 27.0265 157.437 26.8325 156.986 26.6062C156.212 26.186 155.954 25.7011 156.276 24.6989C156.276 24.6989 156.728 23.3411 156.953 22.7592C156.986 22.6299 157.115 22.5005 157.276 22.5005H166.79C166.951 22.5005 167.08 22.6299 167.113 22.7592C167.371 23.3734 167.951 24.9898 167.951 24.9898C168.241 25.895 167.79 26.283 167.177 26.6062C166.725 26.8002 166.306 27.0265 166.306 27.0265C165.693 27.3498 165.306 27.9317 165.306 28.6106C165.306 29.6128 166.08 30.3887 167.08 30.3887H177.272C178.271 30.3887 179.045 29.6128 179.045 28.6106C179.045 27.9317 178.658 27.3821 178.046 27.0265ZM165.564 18.7828C165.564 18.7828 165.403 18.9444 165.274 18.9444H158.727C158.727 18.9444 158.469 18.9121 158.437 18.7828C158.34 18.6858 158.34 18.5888 158.405 18.4918C159.082 16.4875 161.533 9.1166 161.533 9.1166C161.565 8.95496 161.727 8.85797 161.856 8.85797C162.017 8.85797 162.146 8.95496 162.243 9.1166C162.243 9.1166 164.887 16.4875 165.597 18.4918C165.629 18.5888 165.597 18.6858 165.564 18.7828Z" fill="#ADADAD"/>
<path d="M196.332 9.63385C194.816 9.63385 192.72 10.4097 191.494 11.5736C191.397 11.6705 191.236 11.7029 191.107 11.6705C190.978 11.6382 190.914 11.5412 190.914 11.4119C190.656 10.5067 190.011 9.63385 188.527 9.63385C186.721 9.63385 183.754 9.92481 182.077 10.5067C180.884 10.927 180.303 11.5089 180.303 12.5111C180.303 13.19 180.69 13.7396 181.303 14.0952C181.303 14.0952 181.722 14.2891 182.174 14.5154C182.786 14.8387 183.173 15.453 183.173 16.1319V25.0545C183.173 25.7334 182.786 26.3476 182.174 26.6709C181.722 26.8649 181.303 27.0912 181.303 27.0912C180.69 27.4145 180.303 27.9964 180.303 28.6753C180.303 29.6774 181.077 30.4533 182.077 30.4533H192.075C193.075 30.4533 193.849 29.6774 193.849 28.6753C193.849 27.9964 193.462 27.4468 192.849 27.0912C192.849 27.0912 192.43 26.8972 191.978 26.6709C191.365 26.3476 190.978 25.7334 190.978 25.0545V17.5866C190.978 17.5866 190.978 14.3538 192.397 14.3538C193.236 14.3538 193.397 15.4206 193.849 16.5198C194.59 18.2979 195.784 19.0091 197.557 19.0091C199.331 19.0091 201.331 17.5866 201.331 14.3538C201.331 11.5089 199.912 9.66618 196.332 9.66618V9.63385Z" fill="#ADADAD"/>
<path d="M204.491 26.6062C204.04 26.8002 203.621 27.0265 203.621 27.0265C203.008 27.3498 202.621 27.9317 202.621 28.6106C202.621 29.6128 203.395 30.3887 204.395 30.3887H214.392C215.392 30.3887 216.166 29.6128 216.166 28.6106C216.166 27.9317 215.779 27.3821 215.166 27.0265C215.166 27.0265 214.747 26.8325 214.296 26.6062C213.683 26.283 213.296 25.6687 213.296 24.9898V2.48928C213.296 1.42245 212.715 0 210.813 0C208.91 0 206.039 0.290955 204.362 0.872866C203.169 1.29313 202.589 1.87505 202.589 2.81257C202.589 3.52379 202.976 4.1057 203.588 4.39666C203.588 4.39666 204.008 4.65528 204.459 4.84926C205.072 5.17254 205.459 5.81911 205.459 6.46567V24.9898C205.459 25.6687 205.072 26.283 204.459 26.6062H204.491Z" fill="#ADADAD"/>
<path d="M239.193 23.9553C238.806 23.9553 238.452 24.117 238.032 24.4079C236.452 25.5717 235.517 26.5739 232.582 26.5739C230.679 26.5739 227.809 25.5717 226.583 23.1471C226.551 23.0178 226.551 22.8885 226.616 22.8238C226.648 22.6945 226.777 22.6622 226.906 22.6622C228.647 22.5329 231.163 22.3389 233.356 21.9833C237.323 21.4014 240.677 19.3324 240.129 15.3883C239.516 11.024 234.743 9.3429 229.034 9.63385C222.487 9.95714 217.069 13.9335 217.65 21.0781C218.23 28.255 224.293 31.1645 230.937 30.7443C233.324 30.615 236.839 30.1624 239.322 27.8024C241.322 25.8627 240.516 23.9876 239.161 23.9876L239.193 23.9553ZM225.842 19.1061C225.809 15.9056 227.583 13.19 230.131 13.19C231.84 13.19 232.872 14.9357 232.034 17.037C231.485 18.3625 230.421 18.9768 228.26 19.3324C227.873 19.3647 226.938 19.4617 226.196 19.494C226.003 19.494 225.809 19.3324 225.809 19.1061H225.842Z" fill="#ADADAD"/>
<path d="M257.383 25.992C257.093 25.798 256.803 25.7011 256.512 25.7011C255.932 25.7011 255.448 25.992 255.158 26.186C254.706 26.6062 254.384 26.8002 253.739 26.8002C252.674 26.8002 252.674 25.7334 252.674 25.7334V14.2891C252.674 13.8689 252.997 13.5779 253.384 13.5779H256.609C256.77 13.5779 256.996 13.4809 257.093 13.3839C257.222 13.2223 257.286 13.0607 257.286 12.8344V10.733C257.286 10.539 257.19 10.3451 257.093 10.1834C256.964 10.0541 256.77 9.98947 256.609 9.98947H253.384C253.223 9.98947 252.997 9.95714 252.9 9.7955C252.771 9.66618 252.707 9.50454 252.707 9.31057V5.36651C252.707 4.97857 252.384 4.65529 251.997 4.65529H249.03C248.708 4.65529 248.353 4.91391 248.321 5.2372C248.03 6.59499 246.998 10.0218 244.128 10.0218H242.677C242.29 10.0218 241.967 10.3451 241.967 10.7653V12.8667C241.967 13.287 242.29 13.6102 242.677 13.6102H244.128C244.515 13.6102 244.837 13.9012 244.837 14.3215V24.4402C244.87 26.3153 245.386 30.7766 251.61 30.7766C255.287 30.7766 256.609 29.6451 257.319 28.7076C258.318 27.4145 257.77 26.3153 257.415 26.0243L257.383 25.992Z" fill="#ADADAD"/>
<path d="M274.67 22.0156C274.67 22.0156 274.476 22.0479 274.089 22.1126C273.122 22.2419 271.09 22.5329 268.639 22.6299C269.993 22.5329 271.767 22.3712 273.509 22.1773C273.702 22.1773 273.896 22.1449 274.089 22.1126C274.283 22.1126 274.476 22.0479 274.67 22.0156Z" fill="#ADADAD"/>
<path d="M280.765 23.9553C280.378 23.9553 280.023 24.117 279.604 24.4079C278.024 25.5717 277.088 26.5739 274.154 26.5739C272.541 26.5739 270.283 25.8627 268.864 24.1816C268.348 24.117 267.865 24.0523 267.413 23.9553C267.187 23.923 266.962 23.8583 266.736 23.826C265.639 23.5674 264.833 23.2764 264.285 23.0501C264.123 22.9855 264.188 22.7268 264.349 22.7592C264.349 22.7592 264.414 22.7592 264.543 22.7592C264.801 22.7592 265.285 22.7592 265.962 22.7592C269.477 22.7592 277.701 22.4682 279.991 19.9466C281.249 18.8474 281.958 17.3603 281.668 15.4206C281.055 11.0563 276.282 9.37523 270.574 9.66618C264.704 9.95714 259.737 13.19 259.189 19.0414C258.318 19.0414 257.448 18.9444 256.609 18.6535C256.319 18.5565 255.996 18.4272 255.706 18.5242C255.448 18.6211 255.254 18.8798 255.222 19.1707C255.158 19.4617 255.222 19.7203 255.319 20.0113C255.77 21.3367 257.028 22.2742 258.351 22.7268C258.705 22.8562 259.092 22.9208 259.447 22.9855C260.834 28.8046 266.413 31.1645 272.444 30.7766C274.831 30.6473 278.346 30.1947 280.829 27.8347C282.797 25.895 282.023 24.02 280.668 24.02L280.765 23.9553ZM271.702 13.19C273.412 13.19 274.444 14.9357 273.605 17.037C273.057 18.3625 271.993 18.9768 269.832 19.3C269.445 19.3324 268.51 19.4293 267.768 19.4617C267.574 19.4617 267.413 19.3 267.413 19.1061C267.381 15.9056 269.155 13.19 271.702 13.19Z" fill="#ADADAD"/>
<path d="M182.367 48.1046C185.012 48.1046 187.495 47.0378 187.495 44.3222C187.495 41.6066 185.012 40.6044 182.367 40.6044C179.723 40.6044 177.207 41.6389 177.207 44.3222C177.207 47.0054 179.723 48.1046 182.367 48.1046Z" fill="#ADADAD"/>
<path d="M174.756 66.1438C175.014 65.3033 174.627 64.4304 173.853 64.0425C173.595 63.9132 173.305 63.8809 173.079 63.8809C172.531 63.8809 172.015 64.0748 171.628 64.5597C171.015 65.4003 170.467 66.0792 170.047 66.6288C169.628 67.1137 169.015 67.4693 168.338 67.4693H162.081C161.082 67.4693 160.308 66.6934 160.308 65.6912V47.8137C160.308 47.1348 160.695 46.5205 161.307 46.2296C161.759 45.9709 162.178 45.777 162.178 45.777C162.791 45.4537 163.178 44.8718 163.178 44.1929C163.178 43.1907 162.404 42.4148 161.404 42.4148H151.406C150.406 42.4148 149.632 43.1907 149.632 44.1929C149.632 44.8718 150.019 45.4214 150.632 45.777C150.632 45.777 151.052 45.9709 151.503 46.2296C152.116 46.5205 152.503 47.1348 152.503 47.8137V65.6589C152.503 66.3378 152.116 66.952 151.503 67.2753C151.052 67.4693 150.632 67.6956 150.632 67.6956C150.019 68.0189 149.632 68.6008 149.632 69.2797C149.632 70.2819 150.406 71.0577 151.406 71.0577H171.95C172.724 71.0577 173.434 70.5728 173.692 69.8293C173.95 68.9241 174.304 67.6309 174.756 66.2085V66.1438Z" fill="#ADADAD"/>
<path d="M177.917 67.1783C177.465 67.437 177.046 67.6309 177.046 67.6309C176.433 67.9219 176.046 68.5361 176.046 69.215C176.046 70.2172 176.82 70.9931 177.82 70.9931H187.818C188.817 70.9931 189.591 70.2172 189.591 69.215C189.591 68.5361 189.204 67.9219 188.592 67.6309C188.592 67.6309 188.172 67.437 187.721 67.1783C187.108 66.8874 186.721 66.2732 186.721 65.5943V52.6952C186.721 51.6284 186.141 50.206 184.238 50.206C182.335 50.206 179.465 50.4969 177.788 51.0788C176.594 51.4991 176.014 52.081 176.014 53.0185C176.014 53.6974 176.401 54.3117 177.014 54.6026C177.014 54.6026 177.433 54.8612 177.884 55.0552C178.497 55.3785 178.884 55.9604 178.884 56.6716V65.5943C178.884 66.2732 178.497 66.8874 177.884 67.1783H177.917Z" fill="#ADADAD"/>
<path d="M232.324 67.6309C232.324 67.6309 231.905 67.437 231.453 67.2107C230.84 66.8874 230.453 66.2732 230.453 65.5943V58.1587C230.453 52.0487 227.067 50.206 221.907 50.206C219.52 50.206 216.747 51.0465 215.489 52.6629C215.392 52.7599 215.295 52.8246 215.199 52.8246C215.07 52.8246 214.941 52.7276 214.908 52.6629C213.328 50.4969 209.684 50.206 208.491 50.206C205.169 50.206 203.492 51.2728 202.298 52.4043C202.202 52.5336 202.105 52.5336 201.976 52.5013C201.847 52.4689 201.782 52.3396 201.718 52.2103C201.718 51.2081 201.395 50.206 199.234 50.206C197.461 50.206 194.752 50.4969 193.075 51.0788C191.881 51.4991 191.301 52.081 191.301 53.0832C191.301 53.7621 191.688 54.3117 192.301 54.6673C192.301 54.6673 192.72 54.8612 193.171 55.0875C193.784 55.4108 194.171 56.0251 194.171 56.704V65.6266C194.171 66.3055 193.784 66.9197 193.171 67.243C192.72 67.437 192.301 67.6633 192.301 67.6633C191.688 67.9866 191.301 68.5685 191.301 69.2474C191.301 70.2495 192.075 71.0254 193.075 71.0254H202.847C203.782 71.0254 204.588 70.2495 204.588 69.2474C204.588 68.5685 204.201 68.0189 203.653 67.6633C203.653 67.6633 203.201 67.4693 202.75 67.243C202.169 66.9197 201.75 66.3055 201.75 65.6266V61.036C201.75 59.2256 202.879 54.5703 206.136 54.5703C208.523 54.5703 208.523 56.51 208.523 58.87V65.6266C208.523 66.3055 208.136 66.9197 207.523 67.243C207.071 67.437 206.652 67.6633 206.652 67.6633C206.039 67.9866 205.652 68.5685 205.652 69.2474C205.652 70.2495 206.426 71.0254 207.426 71.0254H217.198C218.134 71.0254 218.972 70.2495 218.972 69.2474C218.972 68.5685 218.553 68.0189 217.972 67.6633C217.972 67.6633 217.521 67.4693 217.069 67.243C216.489 66.9197 216.134 66.3055 216.134 65.6266V61.036C216.134 59.2579 217.198 54.5703 220.52 54.5703C222.874 54.5703 222.874 56.51 222.874 58.87V65.6266C222.874 66.3055 222.487 66.9197 221.939 67.243C221.488 67.437 221.036 67.6633 221.036 67.6633C220.456 67.9866 220.036 68.5685 220.036 69.2474C220.036 70.2495 220.875 71.0254 221.81 71.0254H231.582C232.582 71.0254 233.356 70.2495 233.356 69.2474C233.356 68.5685 232.969 68.0189 232.356 67.6633L232.324 67.6309Z" fill="#ADADAD"/>
<path d="M260.415 57.7385C260.189 57.6738 259.931 57.7385 259.705 57.8354C258.609 58.2557 257.448 58.5143 256.254 58.6437V57.7061C256.254 50.206 248.611 50.206 246.063 50.206C235.098 50.206 234.195 56.219 237.097 57.7061C237.71 58.0294 238.29 58.1587 238.871 58.1587C240.935 58.1587 242.451 56.3807 243.16 55.7664C244.321 54.7643 245.063 53.7621 246.418 53.7621C247.353 53.7621 248.353 54.15 248.353 57.7061V58.1264C248.353 58.3204 248.192 58.4497 247.966 58.4497H245.482C239.58 58.4497 234.775 60.2277 234.775 65.4973C234.775 69.3443 237.516 71.284 241.806 71.284C244.708 71.284 246.611 70.5082 247.901 69.3767C247.966 69.312 248.095 69.2474 248.224 69.312C248.353 69.3443 248.417 69.4413 248.482 69.506C248.546 69.8293 248.772 70.0879 248.966 70.3465C249.385 70.7668 249.933 70.9608 250.514 70.9608H257.286C258.286 70.9608 259.06 70.1849 259.06 69.1827C259.06 68.5038 258.705 67.9219 258.06 67.5986C258.06 67.5986 257.641 67.4046 257.19 67.1783C256.577 66.8551 256.19 66.2408 256.19 65.5619V62.1351C256.673 62.0381 257.157 61.8765 257.609 61.6502C258.77 61.1006 259.737 60.2277 260.415 59.1609C260.576 58.9346 260.705 58.676 260.705 58.385C260.705 58.0941 260.576 57.8031 260.318 57.7061L260.415 57.7385ZM248.417 63.4929V64.1072C248.417 66.2732 246.805 67.4046 245.031 67.4046C244.321 67.4046 243.031 67.0814 243.031 65.3033C243.031 64.0102 243.838 62.5877 245.611 62.1998C245.611 62.1998 245.676 62.1998 245.805 62.1674C246.482 62.0381 248.837 61.7149 253.384 62.1674C253.384 62.1674 253.384 62.1674 253.416 62.1674C253.803 62.1998 253.642 62.4261 253.642 62.4261C252.287 62.4907 249.546 63.0726 248.353 63.4929H248.417Z" fill="#ADADAD"/>
<path d="M20.435 27.3175C20.7898 27.5761 21.1768 27.6731 21.596 27.6731C22.2088 27.6731 22.8216 27.3821 23.2086 26.8325C31.3358 15.3883 44.5587 8.53469 58.5879 8.53469C72.5849 8.53469 85.8078 15.356 93.9673 26.8325C94.3543 27.3821 94.967 27.6731 95.5798 27.6731C95.9668 27.6731 96.3861 27.5438 96.7408 27.3175C97.6439 26.6709 97.8374 25.4424 97.1924 24.5372C88.3233 12.0585 73.8749 4.59063 58.5879 4.59063C43.301 4.59063 28.8848 12.0585 19.9835 24.5372C19.3385 25.4424 19.5642 26.6709 20.435 27.3175Z" fill="#ADADAD"/>
<path d="M6.37358 88.806C7.24435 88.806 8.05063 88.2241 8.27638 87.3189L12.1788 72.2862C12.469 71.2194 11.824 70.1526 10.7597 69.8616C9.69543 69.5706 8.63115 70.2172 8.34089 71.284L4.43852 86.3167C4.14826 87.3836 4.79328 88.4504 5.85756 88.7414C6.01882 88.7737 6.18007 88.806 6.34133 88.806H6.37358Z" fill="#ADADAD"/>
<path d="M87.001 40.5398C85.2595 34.4944 81.5506 29.0309 76.5517 25.1838C71.3593 21.2074 65.1671 19.1061 58.6202 19.1061C52.0732 19.1061 45.881 21.2074 40.6886 25.1838C35.6575 29.0309 31.9486 34.4944 30.2393 40.5398C29.949 41.6066 30.5618 42.7058 31.5939 42.9967C31.7874 43.0614 31.9486 43.0614 32.1421 43.0614C33.0129 43.0614 33.7869 42.4795 34.0449 41.6389C37.1733 30.7119 47.2678 23.0825 58.6202 23.0825C69.9725 23.0825 80.0671 30.7119 83.1954 41.6389C83.4534 42.5118 84.2275 43.0614 85.0982 43.0614C85.2917 43.0614 85.453 43.0614 85.6465 42.9967C86.7108 42.7058 87.2913 41.6066 87.001 40.5398Z" fill="#ADADAD"/>
<path d="M83.4212 47.652C75.2939 49.2361 66.9732 50.0443 58.6202 50.0443C50.2672 50.0443 41.9464 49.2361 33.8192 47.652C32.7549 47.4257 31.6906 48.1369 31.4971 49.2038C31.2713 50.2706 31.9809 51.3374 33.0451 51.5314C41.3981 53.1802 50.0092 54.0207 58.6202 54.0207C67.2312 54.0207 75.81 53.1802 84.1952 51.5314C85.2595 51.3051 85.969 50.2706 85.7433 49.2038C85.5175 48.1369 84.4855 47.4257 83.4212 47.652Z" fill="#ADADAD"/>
<path d="M112.77 86.3167L108.867 71.284C108.577 70.2172 107.513 69.603 106.448 69.8616C105.384 70.1526 104.771 71.2194 105.029 72.2862L108.932 87.3189C109.157 88.2241 109.964 88.806 110.835 88.806C110.996 88.806 111.157 88.806 111.318 88.7414C112.383 88.4504 112.995 87.3836 112.737 86.3167H112.77Z" fill="#ADADAD"/>
<path d="M58.5879 76.0687C69.7145 76.1333 79.4543 75.1958 87.5816 73.2238C88.7104 81.4028 90.5809 87.3189 90.7099 87.6099C90.9679 88.4504 91.7419 88.9677 92.5805 88.9677C92.774 88.9677 92.9997 88.9677 93.1932 88.8707C94.2253 88.5474 94.8058 87.4159 94.451 86.3814C94.4188 86.2521 92.516 80.2713 91.4517 72.1569C92.387 71.866 93.29 71.575 94.193 71.2517C102.385 68.3745 108.512 64.2365 112.447 58.9669C117.059 52.7276 118.414 44.8718 116.124 37.4039C114.737 32.8133 111.802 29.6451 108.125 28.6429C104.578 27.6731 100.804 28.8692 97.4826 31.9728C93.0642 36.0785 89.9681 41.6066 88.2911 48.4279C86.9688 53.7621 86.5173 59.9045 86.9365 66.6611C87.001 67.534 87.0656 68.4068 87.1301 69.2474C79.8736 71.0578 70.553 72.1569 58.6202 72.0923C46.6873 72.1569 37.3668 71.0578 30.1103 69.2474C30.1748 68.4068 30.2716 67.534 30.3038 66.6611C30.7231 59.9045 30.3038 53.7621 28.9493 48.4279C27.2722 41.6066 24.1761 36.0785 19.7577 31.9728C16.4359 28.8692 12.6625 27.7054 9.11491 28.6429C5.4383 29.6451 2.50346 32.8456 1.11667 37.4039C-1.17315 44.9041 0.149136 52.7599 4.79328 58.9669C8.69565 64.2365 14.8556 68.3745 23.0473 71.2517C23.9504 71.575 24.8534 71.866 25.7887 72.1569C24.7244 80.2713 22.7893 86.2521 22.7571 86.3814C22.4346 87.4159 22.9828 88.5474 24.0149 88.8707C24.2084 88.9353 24.4341 88.9677 24.6276 88.9677C25.4662 88.9677 26.2402 88.4181 26.4982 87.6099C26.5949 87.2866 28.4978 81.4028 29.6265 73.2238C37.786 75.1958 47.4936 76.1333 58.6202 76.0687H58.5879ZM100.192 34.9146C101.998 33.2336 103.933 32.3284 105.739 32.3284C106.223 32.3284 106.674 32.393 107.126 32.5223C109.48 33.1689 111.383 35.3672 112.383 38.6324C113.511 42.3178 114.608 49.5594 109.319 56.6716C106.352 60.6803 100.933 65.1093 91.0647 68.2129C90.0971 57.0272 91.2259 43.2554 100.192 34.947V34.9146ZM26.3047 66.3378C26.2724 66.9521 26.2079 67.5663 26.1757 68.1805C16.3069 65.1093 10.8887 60.648 7.92162 56.6393C2.63246 49.5271 3.729 42.2855 4.85778 38.6001C5.85756 35.3672 7.76037 33.1366 10.1147 32.49C10.5662 32.3607 11.0177 32.296 11.5015 32.296C13.3075 32.296 15.2426 33.1689 17.0487 34.8823C25.8209 43.0291 26.9175 56.4777 26.3047 66.3055V66.3378Z" fill="#ADADAD"/>
<path d="M150.213 88.806V82.3727H151.019L154.373 87.4159V82.3727H155.18V88.806H154.373L151.019 83.7628V88.806H150.213Z" fill="#ADADAD"/>
<path d="M159.082 88.806V82.3727H163.146V83.1162H159.888V85.1206H162.63V85.8641H159.888V88.0301H163.146V88.7737H159.082V88.806Z" fill="#ADADAD"/>
<path d="M169.435 88.9353C168.951 88.9353 168.499 88.8384 168.112 88.6121C167.725 88.4181 167.435 88.1271 167.209 87.7392C166.983 87.3836 166.887 86.931 166.887 86.4461V82.3727H167.693V86.3814C167.693 86.6724 167.758 86.9633 167.854 87.1896C167.951 87.4159 168.08 87.6099 168.274 87.7392C168.467 87.8685 168.628 87.9978 168.822 88.0625C169.015 88.1271 169.241 88.1595 169.435 88.1595C169.628 88.1595 169.854 88.1271 170.047 88.0625C170.241 87.9978 170.434 87.8685 170.596 87.7392C170.757 87.5775 170.886 87.4159 171.015 87.1896C171.112 86.9633 171.176 86.7047 171.176 86.4137V82.405H171.982V86.4784C171.982 86.9633 171.886 87.4159 171.66 87.7715C171.434 88.1271 171.144 88.4181 170.757 88.6444C170.37 88.8384 169.951 88.9677 169.435 88.9677V88.9353Z" fill="#ADADAD"/>
<path d="M175.885 88.806V82.3727H178.433C178.433 82.3727 178.562 82.3727 178.658 82.3727C178.755 82.3727 178.82 82.3727 178.916 82.3727C179.271 82.4373 179.561 82.5343 179.787 82.7283C180.013 82.9223 180.206 83.1486 180.335 83.4395C180.464 83.7305 180.529 84.0214 180.529 84.377C180.529 84.862 180.4 85.3146 180.142 85.6702C179.884 86.0258 179.497 86.2521 179.013 86.3491L178.723 86.4137H176.756V88.806H175.885ZM176.691 85.6702H178.4C178.4 85.6702 178.529 85.6702 178.594 85.6702C178.658 85.6702 178.723 85.6702 178.787 85.6702C178.981 85.6378 179.174 85.5409 179.271 85.4115C179.4 85.2822 179.497 85.1206 179.561 84.959C179.626 84.7973 179.658 84.6033 179.658 84.4417C179.658 84.2801 179.658 84.0861 179.561 83.9244C179.497 83.7628 179.4 83.6012 179.271 83.4718C179.142 83.3425 178.981 83.2455 178.787 83.2132C178.723 83.2132 178.658 83.2132 178.594 83.2132C178.529 83.2132 178.465 83.2132 178.4 83.2132H176.691V85.7672V85.6702ZM179.723 88.806L178.465 86.1874L179.239 85.9611L180.626 88.806H179.723Z" fill="#ADADAD"/>
<path d="M186.915 88.9353C186.27 88.9353 185.721 88.806 185.302 88.5151C184.851 88.2241 184.528 87.8362 184.27 87.3512C184.044 86.834 183.915 86.2521 183.915 85.6055C183.915 84.9589 184.044 84.377 184.27 83.8598C184.496 83.3425 184.851 82.9546 185.302 82.696C185.754 82.405 186.302 82.2757 186.915 82.2757C187.527 82.2757 188.108 82.405 188.559 82.696C189.011 82.9869 189.333 83.3749 189.591 83.8598C189.817 84.377 189.946 84.9589 189.946 85.6055C189.946 86.2521 189.817 86.834 189.591 87.3512C189.366 87.8685 189.011 88.2564 188.559 88.5151C188.108 88.806 187.56 88.9353 186.915 88.9353ZM186.915 88.1918C187.398 88.1918 187.785 88.0948 188.108 87.8685C188.43 87.6422 188.656 87.3512 188.817 86.9633C188.979 86.5754 189.043 86.1228 189.043 85.6055C189.043 85.0883 188.979 84.6357 188.817 84.2477C188.656 83.8598 188.43 83.5688 188.108 83.3425C187.785 83.1162 187.398 83.0192 186.915 83.0192C186.431 83.0192 186.044 83.1162 185.721 83.3425C185.399 83.5688 185.173 83.8598 185.012 84.2477C184.851 84.6357 184.754 85.0883 184.754 85.6055C184.754 86.1228 184.818 86.5754 184.98 86.9633C185.141 87.3512 185.367 87.6422 185.689 87.8685C186.012 88.0948 186.399 88.1918 186.882 88.1918H186.915Z" fill="#ADADAD"/>
<path d="M193.462 88.806V82.3727H196.009C196.009 82.3727 196.138 82.3727 196.235 82.3727C196.332 82.3727 196.396 82.3727 196.493 82.3727C196.848 82.4373 197.138 82.5343 197.364 82.7283C197.59 82.9223 197.783 83.1486 197.912 83.4395C198.041 83.7305 198.106 84.0214 198.106 84.377C198.106 84.7327 198.041 85.0236 197.912 85.3146C197.783 85.6055 197.622 85.8318 197.364 86.0258C197.106 86.2198 196.848 86.3167 196.493 86.3814C196.429 86.3814 196.332 86.3814 196.235 86.3814C196.138 86.3814 196.074 86.3814 196.009 86.3814H194.268V88.7737H193.462V88.806ZM194.268 85.6702H195.977C195.977 85.6702 196.106 85.6702 196.171 85.6702C196.235 85.6702 196.3 85.6702 196.364 85.6702C196.558 85.6378 196.751 85.5409 196.848 85.4115C196.977 85.2822 197.074 85.1206 197.138 84.959C197.203 84.7973 197.235 84.6033 197.235 84.4417C197.235 84.2801 197.235 84.0861 197.138 83.9244C197.074 83.7628 196.977 83.6012 196.848 83.4718C196.719 83.3425 196.558 83.2455 196.364 83.2132C196.3 83.2132 196.235 83.2132 196.171 83.2132C196.106 83.2132 196.042 83.2132 195.977 83.2132H194.268V85.7672V85.6702Z" fill="#ADADAD"/>
<path d="M203.911 88.9353C203.459 88.9353 203.04 88.8707 202.685 88.709C202.331 88.5474 202.008 88.3211 201.782 88.0301C201.557 87.7392 201.395 87.4159 201.331 86.9956L202.137 86.8663C202.234 87.2866 202.46 87.5775 202.782 87.8038C203.105 88.0301 203.492 88.1595 203.943 88.1595C204.233 88.1595 204.491 88.1271 204.717 88.0301C204.943 87.9332 205.136 87.8038 205.265 87.6422C205.394 87.4806 205.459 87.2866 205.459 87.028C205.459 86.8987 205.459 86.7693 205.394 86.6724C205.33 86.5754 205.265 86.4784 205.201 86.4137C205.104 86.3491 205.007 86.2844 204.911 86.2198C204.814 86.1551 204.685 86.1228 204.588 86.0904L202.943 85.6055C202.75 85.5409 202.589 85.4762 202.427 85.4115C202.266 85.3469 202.105 85.2176 201.976 85.0883C201.847 84.9589 201.75 84.8296 201.653 84.6357C201.589 84.474 201.524 84.2477 201.524 84.0214C201.524 83.6335 201.621 83.3102 201.815 83.0516C202.008 82.793 202.266 82.5666 202.621 82.4373C202.943 82.308 203.33 82.211 203.782 82.211C204.201 82.211 204.588 82.2757 204.943 82.4373C205.298 82.599 205.556 82.793 205.781 83.0839C206.007 83.3749 206.168 83.6981 206.233 84.0861L205.394 84.2477C205.362 83.9891 205.265 83.7628 205.104 83.5688C204.943 83.3749 204.749 83.2455 204.524 83.1162C204.298 82.9869 204.04 82.9546 203.782 82.9546C203.524 82.9546 203.298 82.9869 203.072 83.0839C202.847 83.1809 202.685 83.2779 202.556 83.4395C202.427 83.6012 202.363 83.7628 202.363 83.9568C202.363 84.1507 202.427 84.3124 202.524 84.4417C202.621 84.571 202.782 84.668 202.943 84.7326C203.105 84.7973 203.266 84.862 203.427 84.8943L204.653 85.2499C204.653 85.2499 204.943 85.3469 205.136 85.4115C205.33 85.4762 205.491 85.5732 205.685 85.7025C205.846 85.8318 206.007 85.9935 206.104 86.1874C206.233 86.3814 206.265 86.64 206.265 86.9633C206.265 87.2866 206.201 87.5452 206.072 87.8038C205.943 88.0301 205.781 88.2564 205.556 88.4181C205.33 88.5797 205.072 88.709 204.782 88.7737C204.491 88.8384 204.169 88.903 203.846 88.903L203.911 88.9353Z" fill="#ADADAD"/>
<path d="M210.006 88.806V82.3727H210.813V88.806H210.006Z" fill="#ADADAD"/>
<path d="M217.456 88.9353C216.811 88.9353 216.263 88.806 215.844 88.5151C215.392 88.2241 215.07 87.8362 214.812 87.3512C214.586 86.834 214.457 86.2521 214.457 85.6055C214.457 84.9589 214.586 84.377 214.812 83.8598C215.037 83.3425 215.392 82.9546 215.844 82.696C216.295 82.405 216.844 82.2757 217.456 82.2757C218.198 82.2757 218.811 82.4697 219.295 82.8576C219.778 83.2455 220.101 83.7305 220.294 84.377L219.488 84.6033C219.359 84.1184 219.133 83.7305 218.779 83.4718C218.456 83.1809 218.005 83.0516 217.456 83.0516C216.973 83.0516 216.586 83.1486 216.263 83.3749C215.941 83.6012 215.715 83.8921 215.553 84.2801C215.392 84.668 215.295 85.1206 215.295 85.6378C215.295 86.1551 215.36 86.6077 215.521 86.9956C215.682 87.3836 215.908 87.6745 216.231 87.9008C216.553 88.1271 216.94 88.2241 217.424 88.2241C217.972 88.2241 218.392 88.0948 218.746 87.8038C219.069 87.5129 219.327 87.1573 219.456 86.6724L220.262 86.8986C220.069 87.5452 219.746 88.0625 219.262 88.4181C218.779 88.806 218.166 89 217.424 89L217.456 88.9353Z" fill="#ADADAD"/>
<path d="M226.583 88.9353C225.938 88.9353 225.39 88.806 224.971 88.5151C224.519 88.2241 224.197 87.8362 223.939 87.3512C223.713 86.834 223.584 86.2521 223.584 85.6055C223.584 84.9589 223.713 84.377 223.939 83.8598C224.165 83.3425 224.519 82.9546 224.971 82.696C225.422 82.405 225.971 82.2757 226.583 82.2757C227.196 82.2757 227.777 82.405 228.228 82.696C228.68 82.9869 229.002 83.3749 229.26 83.8598C229.486 84.377 229.615 84.9589 229.615 85.6055C229.615 86.2521 229.486 86.834 229.26 87.3512C229.034 87.8685 228.68 88.2564 228.228 88.5151C227.777 88.806 227.228 88.9353 226.583 88.9353ZM226.583 88.1918C227.067 88.1918 227.454 88.0948 227.777 87.8685C228.099 87.6422 228.325 87.3512 228.486 86.9633C228.647 86.5754 228.712 86.1228 228.712 85.6055C228.712 85.0883 228.647 84.6357 228.486 84.2477C228.325 83.8598 228.099 83.5688 227.777 83.3425C227.454 83.1162 227.067 83.0192 226.583 83.0192C226.1 83.0192 225.713 83.1162 225.39 83.3425C225.068 83.5688 224.842 83.8598 224.681 84.2477C224.519 84.6357 224.423 85.0883 224.423 85.6055C224.423 86.1228 224.487 86.5754 224.648 86.9633C224.81 87.3512 225.035 87.6422 225.358 87.8685C225.68 88.0948 226.067 88.1918 226.551 88.1918H226.583ZM226.97 81.6291H226.325L226.906 80.142H227.551L226.97 81.6291Z" fill="#ADADAD"/>
<path d="M233.227 88.806V82.3727H234.033V88.0625H237V88.806H233.227Z" fill="#ADADAD"/>
<path d="M242.902 88.9353C242.257 88.9353 241.709 88.806 241.29 88.5151C240.838 88.2241 240.516 87.8362 240.258 87.3512C240.032 86.834 239.903 86.2521 239.903 85.6055C239.903 84.9589 240.032 84.377 240.258 83.8598C240.484 83.3425 240.838 82.9546 241.29 82.696C241.741 82.405 242.29 82.2757 242.902 82.2757C243.515 82.2757 244.096 82.405 244.547 82.696C244.999 82.9869 245.321 83.3749 245.579 83.8598C245.805 84.377 245.934 84.9589 245.934 85.6055C245.934 86.2521 245.805 86.834 245.579 87.3512C245.353 87.8685 244.999 88.2564 244.547 88.5151C244.096 88.806 243.547 88.9353 242.902 88.9353ZM242.902 88.1918C243.386 88.1918 243.773 88.0948 244.096 87.8685C244.418 87.6422 244.644 87.3512 244.805 86.9633C244.966 86.5754 245.031 86.1228 245.031 85.6055C245.031 85.0883 244.966 84.6357 244.805 84.2477C244.644 83.8598 244.418 83.5688 244.096 83.3425C243.773 83.1162 243.386 83.0192 242.902 83.0192C242.419 83.0192 242.032 83.1162 241.709 83.3425C241.387 83.5688 241.161 83.8598 241 84.2477C240.838 84.6357 240.742 85.0883 240.742 85.6055C240.742 86.1228 240.806 86.5754 240.967 86.9633C241.129 87.3512 241.354 87.6422 241.677 87.8685C241.999 88.0948 242.386 88.1918 242.87 88.1918H242.902Z" fill="#ADADAD"/>
<path d="M252.062 88.9353C251.61 88.9353 251.223 88.8707 250.868 88.709C250.514 88.5474 250.191 88.3211 249.933 88.0301C249.675 87.7392 249.482 87.3836 249.32 86.9633C249.191 86.543 249.095 86.0904 249.095 85.5732C249.095 84.8943 249.224 84.2801 249.449 83.7951C249.707 83.3102 250.03 82.9223 250.481 82.6313C250.933 82.3727 251.449 82.211 252.029 82.211C252.739 82.211 253.319 82.3727 253.771 82.7283C254.222 83.0516 254.513 83.5365 254.674 84.0861L253.868 84.2477C253.739 83.8598 253.513 83.5365 253.19 83.3102C252.9 83.0839 252.513 82.9546 252.062 82.9546C251.578 82.9546 251.191 83.0516 250.868 83.2779C250.546 83.5042 250.32 83.7951 250.159 84.1831C249.998 84.571 249.901 85.0236 249.901 85.5409C249.901 86.0581 249.965 86.5107 250.127 86.8986C250.288 87.2866 250.514 87.5775 250.836 87.8038C251.159 88.0301 251.546 88.1271 252.029 88.1271C252.449 88.1271 252.803 88.0625 253.061 87.9008C253.352 87.7392 253.545 87.5129 253.706 87.1896C253.868 86.8986 253.964 86.5107 253.997 86.0904H252.642V85.4439H254.835C254.835 85.4439 254.835 85.5732 254.835 85.6702C254.835 85.7672 254.835 85.7995 254.835 85.8318C254.835 86.4137 254.738 86.931 254.513 87.4159C254.287 87.8685 253.964 88.2564 253.545 88.5151C253.126 88.7737 252.578 88.903 251.965 88.903L252.062 88.9353Z" fill="#ADADAD"/>
<path d="M257.867 88.806L260.028 82.3727H261.124L263.285 88.806H262.446L260.447 82.8253H260.705L258.705 88.806H257.867ZM258.899 87.2866V86.543H262.221V87.2866H258.899Z" fill="#ADADAD"/>
</svg>
