<svg width="220" height="81" viewBox="0 0 220 81" fill="none" xmlns="http://www.w3.org/2000/svg">
<g id="Vector">
<path fill-rule="evenodd" clip-rule="evenodd" d="M79.1964 24.9335C83.8518 25.7626 87.2391 29.8336 87.2391 34.5481C87.2391 39.2626 83.7816 43.4038 79.0683 44.1833C78.5354 44.2699 77.9943 44.3153 77.4532 44.3153C76.912 44.3153 76.3709 44.2699 75.838 44.1833L75.7017 44.1627C71.0504 43.3295 67.6672 39.2626 67.6672 34.5481C67.6672 29.8336 71.1247 25.6925 75.838 24.9129C76.3709 24.8222 76.912 24.7809 77.4532 24.7809C77.9943 24.7809 78.5354 24.8263 79.0683 24.9129L79.1964 24.9335ZM75.4456 18.4785C67.3285 19.4807 61.2355 26.3895 61.2355 34.5522C61.2355 42.7149 67.3326 49.6237 75.4456 50.626C76.1106 50.7085 76.784 50.7498 77.4532 50.7498C78.1224 50.7498 78.7957 50.7085 79.4607 50.626C87.5778 49.6237 93.6708 42.7149 93.6708 34.5522C93.6708 26.3895 87.5737 19.4807 79.4607 18.4785C78.7957 18.396 78.1224 18.3547 77.4532 18.3547C76.784 18.3547 76.1106 18.396 75.4456 18.4785Z" fill="#ADADAD"/>
<path d="M7.27853 5.74977V21.0564C7.50986 20.8254 7.89402 20.5944 8.34429 20.2892C8.88129 19.918 9.94292 19.456 11.5292 18.9363C13.1278 18.4001 14.871 18.1072 16.6225 18.1072C21.3192 18.1072 25.2601 19.6911 28.4449 22.9455C31.6298 26.1297 33.2326 29.9862 33.2326 34.6141C33.2326 39.242 31.6298 43.0202 28.383 46.2828C25.1816 49.5412 21.2408 51.1251 16.6225 51.1251C12.0042 51.1251 8.20384 49.6196 4.93635 46.6664C1.67712 43.7007 0 39.6132 0 34.3831V0L7.27853 5.74977ZM16.6225 25.0738C11.3887 25.0738 7.27853 29.0871 7.27853 34.6182C7.27853 40.1494 11.2359 44.1668 16.6225 44.1668C22.0091 44.1668 25.954 40.0752 25.954 34.6182C25.954 29.1613 21.8562 25.0738 16.6225 25.0738Z" fill="#ADADAD"/>
<path d="M44.0347 5.74977C45.7738 4.00092 48.6654 4.00092 50.4086 5.74977C52.1477 7.48625 52.1477 10.3611 50.4086 12.1141C48.6695 13.8506 45.7738 13.8506 44.0347 12.1141C42.2956 10.3653 42.2956 7.49038 44.0347 5.74977ZM43.572 51.1251V18.8456L50.8671 24.5953V51.1251H43.572Z" fill="#ADADAD"/>
<path d="M113.445 51.1251C110.413 51.1251 107.071 50.2177 105.547 49.3886L104.407 48.7864V41.7333C107.071 43.3295 110.029 44.1627 113.445 44.1627C116.403 44.1627 117.849 43.1769 117.849 41.1311C117.849 36.1402 104.039 37.951 104.039 27.5774C104.039 21.7369 108.81 18.1072 115.416 18.1072C118.526 18.1072 121.632 18.9363 122.847 19.6127L123.76 20.1531V26.8886C121.558 25.6719 118.757 25.0779 115.416 25.0779C112.673 25.0779 111.318 25.907 111.318 27.5816C111.318 29.1613 113.441 30.2255 116.167 31.2071C120.108 32.3497 125.206 34.775 125.127 41.1352C125.127 47.2727 120.496 51.1292 113.445 51.1292" fill="#ADADAD"/>
<path d="M201.738 31.4216V51.1292H194.455V31.4216C194.455 27.4083 192.947 25.445 189.977 25.445C187.007 25.445 185.574 27.4083 185.574 31.4216V51.1292H178.295V31.4216C178.295 22.9372 183.083 18.4826 189.762 18.4826C193.472 18.4826 196.198 19.8355 198.107 22.5701C200.077 19.8355 202.878 18.4826 206.604 18.4826C213.192 18.4826 217.906 23.0156 217.906 31.4216V51.1292H210.627V31.4216C210.627 27.4083 209.181 25.445 206.224 25.445C203.266 25.445 201.746 27.4083 201.746 31.4216" fill="#ADADAD"/>
<path d="M216.134 79.775C215.043 79.775 214.481 79.2511 214.481 78.484C214.481 77.6178 215.208 77.0816 216.679 77.0816C217.348 77.0816 218.005 77.1806 218.55 77.3909V77.4239C218.55 78.9418 217.352 79.775 216.134 79.775ZM216.443 72.3506C215.262 72.3506 214.266 72.6599 213.502 73.1013V74.4377C214.337 73.9633 215.117 73.7365 216.171 73.7365C217.769 73.7365 218.55 74.3552 218.55 75.906V76.4299C217.984 76.2195 217.241 76.1205 216.427 76.1205C214.32 76.1205 213.015 77.0321 213.015 78.5499C213.015 80.0678 214.068 80.9505 215.737 80.9505C217.208 80.9505 218.24 80.2658 218.678 79.1398L218.641 80.7401H220.004V75.5513C220.004 73.3818 218.732 72.3547 216.443 72.3547V72.3506ZM209.636 72.5774L206.748 79.3171L203.935 72.5774H202.299L206.005 80.736H207.438L211.143 72.5774H209.636ZM198.144 80.736H199.598V72.5774H198.144V80.736ZM198.871 70.8781C199.47 70.8781 199.941 70.5192 199.941 69.9335C199.941 69.3932 199.577 69.0014 198.871 69.0014C198.164 69.0014 197.797 69.3932 197.797 69.9335C197.797 70.5192 198.268 70.8781 198.871 70.8781ZM194.261 79.7214C193.1 79.7214 192.208 79.2305 192.208 77.6508V73.8148H195.26V72.5733H192.208V70.6471H190.898C190.828 71.9381 190.754 72.5073 189.448 72.6393L188.849 72.6723V73.8148H190.754V78.0756C190.754 79.8698 191.898 80.9464 193.967 80.9464C194.513 80.9464 194.951 80.8969 195.31 80.7649V79.5894C195.021 79.6719 194.695 79.7214 194.257 79.7214H194.261ZM184.764 80.7319H186.218V72.5733H184.764V80.7319ZM185.491 70.874C186.09 70.874 186.561 70.5151 186.561 69.9294C186.561 69.3891 186.197 68.9972 185.491 68.9972C184.785 68.9972 184.421 69.3891 184.421 69.9294C184.421 70.5151 184.892 70.874 185.491 70.874ZM176.56 79.7667C174.962 79.7667 173.635 78.7232 173.635 76.7145C173.635 74.7058 174.945 73.7282 176.577 73.7282C178.208 73.7282 179.518 74.7223 179.518 76.7145C179.518 78.7067 178.208 79.7667 176.556 79.7667H176.56ZM179.501 68.8982V73.8767C178.828 72.8002 177.684 72.3423 176.358 72.3423C174.069 72.3423 172.181 73.9757 172.181 76.6815C172.181 79.5357 174.144 80.9423 176.304 80.9423C177.667 80.9423 178.849 80.3895 179.534 79.2759L179.501 80.7278H180.951V68.8982H179.501ZM167.571 72.5692V77.2383C167.571 78.9995 166.444 79.7007 165.32 79.7007C163.973 79.7007 163.069 79.1934 163.069 77.2837V72.5692H161.615V77.791C161.615 79.7997 162.652 80.9423 164.775 80.9423C166.266 80.9423 167.191 80.1421 167.609 79.2635L167.571 80.7319H169.025V72.5733H167.571V72.5692ZM151.085 76.4381L153.448 70.8245L155.811 76.4381H151.085ZM159.206 80.7319L154.357 69.3107H152.597L147.727 80.7319H149.288L150.54 77.7456H156.352L157.604 80.7319H159.206ZM138.123 73.7323C139.593 73.7323 140.428 74.45 140.486 75.8854H135.529C135.764 74.549 136.71 73.7323 138.127 73.7323H138.123ZM141.882 76.0339C141.882 73.6993 140.411 72.3465 138.16 72.3465C135.743 72.3465 134 74.1077 134 76.7186C134 79.3295 135.743 80.9464 138.47 80.9464C139.705 80.9464 140.721 80.6865 141.539 80.1297V78.8057C140.704 79.4904 139.849 79.7708 138.577 79.7708C136.76 79.7708 135.599 78.8057 135.471 76.9661H141.791C141.861 76.7392 141.882 76.3928 141.882 76.0339ZM126.449 79.7708C124.85 79.7708 123.524 78.7273 123.524 76.7186C123.524 74.7099 124.834 73.7323 126.465 73.7323C128.097 73.7323 129.407 74.7264 129.407 76.7186C129.407 78.7108 128.097 79.7708 126.445 79.7708H126.449ZM129.39 68.9024V73.8808C128.717 72.8043 127.573 72.3465 126.251 72.3465C123.962 72.3465 122.074 73.9798 122.074 76.6856C122.074 79.5399 124.037 80.9464 126.197 80.9464C127.56 80.9464 128.737 80.3937 129.427 79.28L129.39 80.7319H130.844V68.9024H129.39ZM117.46 72.5733V77.2424C117.46 79.0037 116.333 79.7049 115.209 79.7049C113.866 79.7049 112.958 79.1975 112.958 77.2878V72.5733H111.504V77.7951C111.504 79.8038 112.536 80.9464 114.664 80.9464C116.155 80.9464 117.08 80.1462 117.497 79.2676L117.46 80.736H118.91V72.5774H117.46V72.5733ZM117.968 69.1127L116.514 68.4445L113.937 71.5628H115.279L117.968 69.1169V69.1127ZM104.043 79.7708C102.953 79.7708 102.391 79.247 102.391 78.4798C102.391 77.6137 103.118 77.0774 104.589 77.0774C105.262 77.0774 105.915 77.1764 106.46 77.3868V77.4198C106.46 78.9377 105.262 79.7708 104.043 79.7708ZM104.353 72.3465C103.172 72.3465 102.172 72.6558 101.412 73.0972V74.4335C102.246 73.9592 103.027 73.7323 104.081 73.7323C105.679 73.7323 106.46 74.3511 106.46 75.9019V76.4258C105.898 76.2154 105.15 76.1164 104.337 76.1164C102.23 76.1164 100.92 77.0279 100.92 78.5458C100.92 80.0637 101.974 80.9464 103.643 80.9464C105.113 80.9464 106.15 80.2617 106.584 79.1357L106.547 80.736H107.91V75.5472C107.91 73.3776 106.637 72.3506 104.349 72.3506L104.353 72.3465ZM93.4064 80.9959C96.6739 80.9959 98.4171 79.8698 98.4171 77.5889C98.4171 73.2333 91.1717 75.3203 91.1717 72.4331C91.1717 71.2534 92.3159 70.5852 94.2946 70.5852C95.6784 70.5852 96.8763 70.8286 97.9297 71.3029V69.7851C97.0209 69.2942 95.8602 69.0839 94.4061 69.0839C91.5186 69.0839 89.7217 70.3254 89.7217 72.4331C89.7217 76.7887 96.9672 74.4583 96.9672 77.6879C96.9672 79.0903 95.7528 79.7255 93.4436 79.7255C91.9359 79.7255 90.6099 79.4161 89.7011 78.8304V80.2163C90.6264 80.7236 91.9896 81 93.4064 81V80.9959ZM78.9155 73.7323C80.386 73.7323 81.2205 74.45 81.2742 75.8854H76.3172C76.5526 74.549 77.4986 73.7323 78.9155 73.7323ZM82.6745 76.0339C82.6745 73.6993 81.2039 72.3465 78.9526 72.3465C76.5402 72.3465 74.7929 74.1077 74.7929 76.7186C74.7929 79.3295 76.5361 80.9464 79.2625 80.9464C80.4976 80.9464 81.5138 80.6865 82.3317 80.1297V78.8057C81.4972 79.4904 80.6422 79.7708 79.3699 79.7708C77.5523 79.7708 76.3915 78.8057 76.2635 76.9661H82.5836C82.6539 76.7392 82.6745 76.3928 82.6745 76.0339ZM67.2417 79.7708C65.6431 79.7708 64.3171 78.7273 64.3171 76.7186C64.3171 74.7099 65.6266 73.7323 67.2583 73.7323C68.8899 73.7323 70.1994 74.7264 70.1994 76.7186C70.1994 78.7108 68.8899 79.7708 67.2376 79.7708H67.2417ZM70.1829 68.9024V73.8808C69.5096 72.8043 68.3653 72.3465 67.0393 72.3465C64.7508 72.3465 62.863 73.9798 62.863 76.6856C62.863 79.5399 64.8252 80.9464 66.9856 80.9464C68.3488 80.9464 69.5261 80.3937 70.2159 79.28L70.1787 80.7319H71.6328V68.9024H70.1787H70.1829ZM51.59 79.7708C50.4995 79.7708 49.9377 79.247 49.9377 78.4798C49.9377 77.6137 50.6606 77.0774 52.1353 77.0774C52.8086 77.0774 53.4613 77.1764 54.0065 77.3868V77.4198C54.0065 78.9377 52.8086 79.7708 51.59 79.7708ZM51.8998 72.3465C50.7184 72.3465 49.7187 72.6558 48.9586 73.0972V74.4335C49.7931 73.9592 50.5738 73.7323 51.6272 73.7323C53.2258 73.7323 54.0065 74.3511 54.0065 75.9019V76.4258C53.4447 76.2154 52.7012 76.1164 51.8833 76.1164C49.7766 76.1164 48.4712 77.0279 48.4712 78.5458C48.4712 80.0637 49.5246 80.9464 51.1934 80.9464C52.664 80.9464 53.7009 80.2617 54.1346 79.1357L54.0974 80.736H55.4565V75.5472C55.4565 73.3776 54.1883 72.3506 51.8957 72.3506L51.8998 72.3465ZM43.6216 80.9464C44.7122 80.9464 45.5259 80.6865 46.0175 80.3442V79.0243C45.402 79.4656 44.675 79.742 43.6216 79.742C41.7297 79.742 40.4946 78.5005 40.4946 76.6732C40.4946 74.945 41.7503 73.7365 43.6216 73.7365C44.6543 73.7365 45.3813 73.9963 46.0175 74.4377V72.9528C45.5259 72.6269 44.7452 72.3506 43.6216 72.3506C40.8416 72.3506 39.0446 74.2438 39.0446 76.6732C39.0446 79.2841 40.8416 80.9505 43.6216 80.9505V80.9464ZM34.4346 80.736H35.8887V72.5774H34.4346V80.736ZM35.1617 70.8781C35.7606 70.8781 36.2357 70.5192 36.2357 69.9335C36.2357 69.3932 35.8722 69.0014 35.1617 69.0014C34.4512 69.0014 34.0918 69.3932 34.0918 69.9335C34.0918 70.5192 34.5627 70.8781 35.1617 70.8781ZM27.5898 72.3465C25.9747 72.3465 25.0287 73.1466 24.6322 74.1242L24.6652 72.5733H23.2153V80.7319H24.6652V76.0958C24.6652 74.4624 25.8301 73.7282 26.9909 73.7282C28.3375 73.7282 29.2794 74.4129 29.2794 76.0958V80.7319H30.7334V75.5596C30.7334 73.7158 29.6429 72.3465 27.5898 72.3465ZM17.932 80.736H19.386V72.5774H17.932V80.736ZM17.2958 71.5628H18.6383L21.344 69.1169L19.89 68.4487L17.2917 71.5669L17.2958 71.5628ZM12.6486 80.736H14.1027V68.9065H12.6486V80.736ZM6.38627 80.9464C7.58421 80.9464 8.58387 80.7195 9.54636 80.2452V78.8593C8.67475 79.412 7.65857 79.709 6.40692 79.709C3.28401 79.709 1.5408 77.6508 1.5408 74.945C1.5408 72.4001 3.26749 70.5894 6.283 70.5894C7.6627 70.5894 8.69954 70.8657 9.55049 71.3565V69.7397C8.58801 69.2653 7.57182 69.088 6.3904 69.088C2.43306 69.088 0.0165233 71.5999 0.0165233 74.945C0.0165233 78.5211 2.39588 80.9505 6.3904 80.9505L6.38627 80.9464Z" fill="#ADADAD"/>
<path fill-rule="evenodd" clip-rule="evenodd" d="M140.961 17.8185C140.696 18.0082 140.44 18.2062 140.188 18.4083C140.056 18.5156 139.858 18.495 139.75 18.363L136.285 14.0651C136.177 13.9331 136.198 13.7351 136.334 13.6279C139.887 10.7654 144.154 8.967 148.685 8.41017C149.689 8.28643 150.701 8.22456 151.713 8.22456C152.725 8.22456 153.737 8.28643 154.741 8.41017C159.273 8.967 163.536 10.7695 167.092 13.6279C167.224 13.7351 167.249 13.9331 167.138 14.0651L163.672 18.363C163.565 18.495 163.366 18.5156 163.234 18.4083C162.982 18.2062 162.722 18.0082 162.457 17.8185C159.954 16.016 157.046 14.8776 153.985 14.4982C153.233 14.4074 152.469 14.3579 151.709 14.3579C150.949 14.3579 150.189 14.4033 149.433 14.4982C146.372 14.8776 143.464 16.0119 140.961 17.8185ZM153.452 24.9335C158.108 25.7626 161.495 29.8336 161.495 34.5481C161.495 39.2626 158.037 43.4038 153.328 44.1833C152.795 44.2699 152.254 44.3153 151.713 44.3153C151.172 44.3153 150.631 44.2699 150.098 44.1833L149.962 44.1627C145.31 43.3295 141.927 39.2626 141.927 34.5481C141.927 29.8336 145.385 25.6925 150.098 24.9129C150.631 24.8222 151.172 24.7809 151.713 24.7809C152.254 24.7809 152.795 24.8263 153.328 24.9129L153.456 24.9335H153.452ZM149.701 18.4785C141.588 19.4807 135.491 26.3895 135.491 34.5522C135.491 42.7149 141.588 49.6237 149.701 50.626C150.367 50.7085 151.04 50.7498 151.709 50.7498C152.378 50.7498 153.052 50.7085 153.717 50.626C161.834 49.6237 167.927 42.7149 167.927 34.5522C167.927 26.3895 161.83 19.4807 153.717 18.4785C153.052 18.396 152.378 18.3547 151.709 18.3547C151.04 18.3547 150.367 18.396 149.701 18.4785ZM140.961 51.418C140.696 51.2282 140.44 51.0302 140.188 50.8281C140.056 50.7209 139.858 50.7415 139.75 50.8776L136.285 55.1755C136.177 55.3075 136.198 55.5055 136.334 55.6127C139.887 58.4711 144.154 60.2736 148.685 60.8304C149.689 60.9542 150.701 61.016 151.713 61.016C152.725 61.016 153.737 60.9542 154.741 60.8304C159.273 60.2695 163.536 58.4711 167.092 55.6127C167.224 55.5055 167.249 55.3075 167.138 55.1755L163.672 50.8776C163.565 50.7456 163.366 50.725 163.234 50.8281C162.982 51.0302 162.722 51.2282 162.457 51.418C159.954 53.2204 157.046 54.3588 153.985 54.7383C153.233 54.8332 152.469 54.8785 151.709 54.8785C150.949 54.8785 150.189 54.8332 149.433 54.7383C146.372 54.3588 143.464 53.2246 140.961 51.418Z" fill="#ADADAD"/>
</g>
</svg>
