<svg width="274" height="58" viewBox="0 0 274 58" fill="none" xmlns="http://www.w3.org/2000/svg">
<path d="M230.733 3.65246C230.733 1.63475 229.112 0 227.112 0C225.111 0 223.49 1.63475 223.49 3.65246V17.2288C219.395 13.321 213.864 10.9286 207.793 10.9286C205.421 10.9286 203.134 11.295 200.975 11.9704C200.795 12.0239 200.62 12.0815 200.44 12.1433C194.524 14.1693 189.682 18.5588 187.037 24.2002C186.906 24.4843 186.779 24.7684 186.657 25.0649C186.44 25.5837 186.241 26.1149 186.065 26.6461C185.865 27.2267 185.693 27.8197 185.546 28.425C185.469 28.7256 185.404 29.0303 185.338 29.335C185.314 29.4585 185.289 29.5903 185.265 29.718C185.179 30.1586 185.069 30.8874 185.016 31.3321C184.983 31.5998 184.954 31.8675 184.934 32.1392C184.909 32.4522 184.889 32.7734 184.873 33.0946C184.857 33.4199 184.853 33.7452 184.853 34.0663C184.853 35.4582 184.975 36.817 185.216 38.1512C185.244 38.3159 185.281 38.4847 185.31 38.6494C185.477 39.5142 185.702 40.3665 185.967 41.1901C186.057 41.466 186.151 41.7378 186.249 42.0095C186.379 42.3595 186.514 42.7137 186.661 43.0596C186.804 43.4055 186.959 43.7472 187.122 44.0849C187.526 44.929 187.984 45.7443 188.474 46.5267C188.772 46.9962 189.086 47.4573 189.421 47.8938C189.535 48.0421 189.649 48.1944 189.755 48.3385C189.898 48.5238 190.05 48.705 190.192 48.8821C190.486 49.2362 190.784 49.5821 191.107 49.9156C191.262 50.0845 191.426 50.2492 191.589 50.4139C193.406 52.2422 195.524 53.7699 197.864 54.9105C198.195 55.0752 198.537 55.2317 198.872 55.3758C199.387 55.5941 199.913 55.7958 200.448 55.9811C201.963 56.5 203.547 56.8665 205.184 57.0476C205.42 57.0723 205.657 57.0971 205.89 57.1177C206.2 57.1424 206.519 57.1588 206.842 57.1794C207.152 57.1959 207.478 57.2 207.797 57.2C209.177 57.2 210.532 57.0765 211.851 56.8335C212.41 56.7347 212.961 56.6153 213.504 56.4753C214.047 56.3353 214.582 56.1747 215.109 55.9976C215.301 55.9276 215.488 55.8617 215.672 55.7917C215.852 55.7217 216.023 55.6599 216.195 55.5899C216.289 55.5488 216.383 55.5158 216.477 55.4746C216.905 55.2935 217.338 55.1041 217.758 54.9023C218.591 54.4864 219.396 54.0375 220.163 53.5352C220.461 53.3416 220.759 53.144 221.041 52.9381C221.335 52.7281 221.609 52.514 221.895 52.2998C222.037 52.1887 222.176 52.0816 222.311 51.9663C222.715 51.6328 223.111 51.2828 223.495 50.9163V53.5434C223.495 55.5611 225.115 57.1959 227.116 57.1959C229.116 57.1959 230.737 55.5611 230.737 53.5434V34.3752C230.741 34.2763 230.741 34.1693 230.741 34.0705C230.741 33.9593 230.741 33.8563 230.737 33.7452V3.65246H230.733ZM223.49 34.0705C223.49 43.1666 215.84 50.4963 206.687 49.858C199.154 49.3351 192.964 43.3272 192.185 35.7546C191.491 29.0591 194.965 23.0801 200.321 20.1483C200.538 20.0289 200.767 19.9094 200.995 19.7983C201.224 19.6871 201.456 19.58 201.689 19.4853C201.897 19.3947 202.106 19.3124 202.314 19.2341C202.943 18.9953 203.596 18.7935 204.257 18.6412C204.396 18.6082 204.539 18.5753 204.686 18.5464C204.968 18.4847 205.261 18.4435 205.551 18.3982C205.735 18.3735 205.919 18.3488 206.107 18.3282C206.662 18.2664 207.226 18.2376 207.793 18.2376C216.452 18.2376 223.49 25.3284 223.49 34.0705Z" fill="#ADADAD"/>
<path d="M230.733 3.65246C230.733 1.63475 229.112 0 227.112 0C225.111 0 223.49 1.63475 223.49 3.65246V17.2288C219.395 13.321 213.864 10.9286 207.793 10.9286C205.421 10.9286 203.134 11.295 200.975 11.9704C200.795 12.0239 200.62 12.0815 200.44 12.1433C194.524 14.1693 189.682 18.5588 187.037 24.2002C186.906 24.4843 186.779 24.7684 186.657 25.0649C186.44 25.5837 186.241 26.1149 186.065 26.6461C185.865 27.2267 185.693 27.8197 185.546 28.425C185.469 28.7256 185.404 29.0303 185.338 29.335C185.314 29.4585 185.289 29.5903 185.265 29.718C185.179 30.1586 185.069 30.8874 185.016 31.3321C184.983 31.5998 184.954 31.8675 184.934 32.1392C184.909 32.4522 184.889 32.7734 184.873 33.0946C184.857 33.4199 184.853 33.7452 184.853 34.0663C184.853 35.4582 184.975 36.817 185.216 38.1512C185.244 38.3159 185.281 38.4847 185.31 38.6494C185.477 39.5142 185.702 40.3665 185.967 41.1901C186.057 41.466 186.151 41.7378 186.249 42.0095C186.379 42.3595 186.514 42.7137 186.661 43.0596C186.804 43.4055 186.959 43.7472 187.122 44.0849C187.526 44.929 187.984 45.7443 188.474 46.5267C188.772 46.9962 189.086 47.4573 189.421 47.8938C189.535 48.0421 189.649 48.1944 189.755 48.3385C189.898 48.5238 190.05 48.705 190.192 48.8821C190.486 49.2362 190.784 49.5821 191.107 49.9156C191.262 50.0845 191.426 50.2492 191.589 50.4139C193.406 52.2422 195.524 53.7699 197.864 54.9105C198.195 55.0752 198.537 55.2317 198.872 55.3758C199.387 55.5941 199.913 55.7958 200.448 55.9811C201.963 56.5 203.547 56.8665 205.184 57.0476C205.42 57.0723 205.657 57.0971 205.89 57.1177C206.2 57.1424 206.519 57.1588 206.842 57.1794C207.152 57.1959 207.478 57.2 207.797 57.2C209.177 57.2 210.532 57.0765 211.851 56.8335C212.41 56.7347 212.961 56.6153 213.504 56.4753C214.047 56.3353 214.582 56.1747 215.109 55.9976C215.301 55.9276 215.488 55.8617 215.672 55.7917C215.852 55.7217 216.023 55.6599 216.195 55.5899C216.289 55.5488 216.383 55.5158 216.477 55.4746C216.905 55.2935 217.338 55.1041 217.758 54.9023C218.591 54.4864 219.396 54.0375 220.163 53.5352C220.461 53.3416 220.759 53.144 221.041 52.9381C221.335 52.7281 221.609 52.514 221.895 52.2998C222.037 52.1887 222.176 52.0816 222.311 51.9663C222.715 51.6328 223.111 51.2828 223.495 50.9163V53.5434C223.495 55.5611 225.115 57.1959 227.116 57.1959C229.116 57.1959 230.737 55.5611 230.737 53.5434V34.3752C230.741 34.2763 230.741 34.1693 230.741 34.0705C230.741 33.9593 230.741 33.8563 230.737 33.7452V3.65246H230.733ZM223.49 34.0705C223.49 43.1666 215.84 50.4963 206.687 49.858C199.154 49.3351 192.964 43.3272 192.185 35.7546C191.491 29.0591 194.965 23.0801 200.321 20.1483C200.538 20.0289 200.767 19.9094 200.995 19.7983C201.224 19.6871 201.456 19.58 201.689 19.4853C201.897 19.3947 202.106 19.3124 202.314 19.2341C202.943 18.9953 203.596 18.7935 204.257 18.6412C204.396 18.6082 204.539 18.5753 204.686 18.5464C204.968 18.4847 205.261 18.4435 205.551 18.3982C205.735 18.3735 205.919 18.3488 206.107 18.3282C206.662 18.2664 207.226 18.2376 207.793 18.2376C216.452 18.2376 223.49 25.3284 223.49 34.0705Z" fill="#ADADAD"/>
<path d="M147.047 10.924C139.026 11.0187 131.987 15.2484 127.939 21.5889C123.842 15.1784 116.685 10.924 108.552 10.924C102.206 10.924 96.4454 13.5121 92.2788 17.6965C91.1071 18.8774 90.0547 20.1858 89.1533 21.6012C84.7614 14.7053 76.8335 10.3027 67.9595 10.9899C56.7215 11.8663 47.667 20.9882 46.8271 32.2743C46.7821 32.8668 46.7617 33.451 46.7617 34.0353V33.9859C46.7617 33.6403 46.7412 33.0807 46.7207 32.7351C46.7084 32.5253 46.6961 32.3195 46.6797 32.1138C46.6469 31.7599 46.6098 31.4102 46.5688 31.0646C46.5115 30.5873 46.4295 30.1141 46.3394 29.6451C46.3189 29.534 46.2944 29.4188 46.2739 29.3118C46.2084 29.0073 46.1392 28.7029 46.0654 28.4025C45.9179 27.7977 45.7416 27.2052 45.5449 26.625C45.3647 26.0901 45.1678 25.5635 44.9507 25.0451C44.8278 24.7488 44.6972 24.4649 44.562 24.181C41.9113 18.5441 37.0518 14.158 31.1152 12.1337C30.935 12.0679 30.7589 12.0144 30.5786 11.9609C28.4113 11.282 26.1172 10.9199 23.7368 10.9199C17.6487 10.9199 12.0892 13.3105 7.97998 17.2151V3.64546C7.97998 1.62935 6.35303 0 4.34961 0C2.34619 0 0.719728 1.63346 0.719728 3.64546V33.7143C0.715631 33.8254 0.715822 33.9283 0.715822 34.0394C0.715822 34.1381 0.715631 34.2451 0.719728 34.3439V53.5011C0.719728 55.5131 2.34619 57.1465 4.34961 57.1465C6.35303 57.1465 7.97998 55.5131 7.97998 53.5011V50.8719C8.36919 51.2381 8.76628 51.5837 9.17188 51.9211C9.30708 52.0363 9.44645 52.1474 9.58984 52.2544C9.86844 52.4683 10.1508 52.6823 10.4458 52.8921C10.7285 53.1019 11.0281 53.2953 11.3271 53.4887C12.0974 53.9907 12.8999 54.4433 13.7397 54.8547C14.1617 55.0604 14.5962 55.2497 15.0264 55.4266C15.1206 55.4678 15.2149 55.5007 15.3091 55.5419C15.4812 55.6118 15.6571 55.6735 15.8374 55.7435C16.0218 55.8134 16.2108 55.8792 16.4033 55.9492C16.9318 56.1302 17.4642 56.2866 18.0132 56.4265C18.5581 56.5664 19.1111 56.6857 19.6724 56.7844C20.9957 57.0231 22.3519 57.1506 23.7407 57.1506C24.0603 57.1506 24.3879 57.1465 24.6992 57.1301C25.0229 57.1095 25.3383 57.0971 25.6538 57.0683C25.8873 57.0478 26.1252 57.0231 26.3628 56.9984C28.0057 56.8132 29.5954 56.4512 31.1113 55.9327C31.6521 55.7476 32.1724 55.5501 32.6968 55.3279C33.0327 55.1839 33.3766 55.0275 33.7085 54.863C36.0561 53.7191 38.1827 52.1926 40.0059 50.3699C40.1697 50.2053 40.3295 50.0407 40.4893 49.872C40.8129 49.5388 41.1159 49.1931 41.4067 48.8393C41.5501 48.6583 41.7018 48.4813 41.8452 48.2962C41.9558 48.1522 42.0705 47.9999 42.1812 47.8518C42.513 47.4116 42.8287 46.9549 43.1318 46.4858C43.6235 45.704 44.0822 44.8894 44.4878 44.0459C44.6517 43.7126 44.8073 43.367 44.9507 43.0214C45.0941 42.6758 45.2336 42.3219 45.3647 41.9722C45.4631 41.7047 45.5573 41.4291 45.6475 41.1534C45.9138 40.3305 46.1392 39.4788 46.3071 38.6147C46.3358 38.4502 46.3722 38.2814 46.4009 38.1169C46.6385 36.7838 46.7656 35.4301 46.7656 34.0353C46.7697 46.782 57.0857 57.1465 69.7822 57.1465C75.8785 57.1465 81.4222 54.756 85.5273 50.8513C89.9971 46.6504 92.7954 40.6596 92.7954 34.0353C92.7954 25.1438 100.129 17.9475 109.027 18.215C117.594 18.4701 124.301 25.7569 124.301 34.3644V53.5545C124.301 55.5665 125.927 57.2 127.931 57.2C129.934 57.2 131.561 55.5665 131.561 53.5545V34.3686C131.561 25.7569 138.272 18.4701 146.838 18.215C155.741 17.9475 163.07 25.1438 163.07 34.0271V53.4805C163.07 55.4925 164.697 57.1259 166.7 57.1259C168.704 57.1259 170.331 55.4925 170.331 53.4805V34.4262C170.331 21.5601 159.85 10.7595 147.039 10.9117L147.047 10.924ZM39.4077 35.7263C38.6211 43.2929 32.4103 49.296 24.8555 49.8186C15.666 50.4563 7.99238 43.1325 7.98828 34.0435C7.99238 25.3043 15.0549 18.2191 23.7446 18.2191C24.3141 18.2191 24.8839 18.2479 25.437 18.3096C25.6255 18.3302 25.8098 18.3549 25.9941 18.3795C26.2891 18.4248 26.5801 18.4701 26.8628 18.5277C27.0062 18.5565 27.1578 18.5894 27.293 18.6223C27.9567 18.7787 28.6122 18.9762 29.2432 19.2148C29.4521 19.2889 29.6609 19.3753 29.8657 19.4658C30.1033 19.5604 30.337 19.6715 30.5664 19.7785C30.7958 19.8896 31.025 20.0089 31.2422 20.1282C36.6174 23.0578 40.1042 29.032 39.4077 35.7222V35.7263ZM68.6025 49.8144C60.8429 49.2466 54.5785 42.9103 54.0664 35.1174C53.456 25.8968 60.7402 18.2232 69.7822 18.2232C78.8242 18.2232 85.5273 25.3125 85.5273 34.0476C85.5273 42.7827 77.8127 50.4933 68.5986 49.8144H68.6025Z" fill="#ADADAD"/>
<path d="M147.047 10.924C139.026 11.0187 131.987 15.2484 127.939 21.5889C123.842 15.1784 116.685 10.924 108.552 10.924C102.206 10.924 96.4454 13.5121 92.2788 17.6965C91.1071 18.8774 90.0547 20.1858 89.1533 21.6012C84.7614 14.7053 76.8335 10.3027 67.9595 10.9899C56.7215 11.8663 47.667 20.9882 46.8271 32.2743C46.7821 32.8668 46.7617 33.451 46.7617 34.0353V33.9859C46.7617 33.6403 46.7412 33.0807 46.7207 32.7351C46.7084 32.5253 46.6961 32.3195 46.6797 32.1138C46.6469 31.7599 46.6098 31.4102 46.5688 31.0646C46.5115 30.5873 46.4295 30.1141 46.3394 29.6451C46.3189 29.534 46.2944 29.4188 46.2739 29.3118C46.2084 29.0073 46.1392 28.7029 46.0654 28.4025C45.9179 27.7977 45.7416 27.2052 45.5449 26.625C45.3647 26.0901 45.1678 25.5635 44.9507 25.0451C44.8278 24.7488 44.6972 24.4649 44.562 24.181C41.9113 18.5441 37.0518 14.158 31.1152 12.1337C30.935 12.0679 30.7589 12.0144 30.5786 11.9609C28.4113 11.282 26.1172 10.9199 23.7368 10.9199C17.6487 10.9199 12.0892 13.3105 7.97998 17.2151V3.64546C7.97998 1.62935 6.35303 0 4.34961 0C2.34619 0 0.719728 1.63346 0.719728 3.64546V33.7143C0.715631 33.8254 0.715822 33.9283 0.715822 34.0394C0.715822 34.1381 0.715631 34.2451 0.719728 34.3439V53.5011C0.719728 55.5131 2.34619 57.1465 4.34961 57.1465C6.35303 57.1465 7.97998 55.5131 7.97998 53.5011V50.8719C8.36919 51.2381 8.76628 51.5837 9.17188 51.9211C9.30708 52.0363 9.44645 52.1474 9.58984 52.2544C9.86844 52.4683 10.1508 52.6823 10.4458 52.8921C10.7285 53.1019 11.0281 53.2953 11.3271 53.4887C12.0974 53.9907 12.8999 54.4433 13.7397 54.8547C14.1617 55.0604 14.5962 55.2497 15.0264 55.4266C15.1206 55.4678 15.2149 55.5007 15.3091 55.5419C15.4812 55.6118 15.6571 55.6735 15.8374 55.7435C16.0218 55.8134 16.2108 55.8792 16.4033 55.9492C16.9318 56.1302 17.4642 56.2866 18.0132 56.4265C18.5581 56.5664 19.1111 56.6857 19.6724 56.7844C20.9957 57.0231 22.3519 57.1506 23.7407 57.1506C24.0603 57.1506 24.3879 57.1465 24.6992 57.1301C25.0229 57.1095 25.3383 57.0971 25.6538 57.0683C25.8873 57.0478 26.1252 57.0231 26.3628 56.9984C28.0057 56.8132 29.5954 56.4512 31.1113 55.9327C31.6521 55.7476 32.1724 55.5501 32.6968 55.3279C33.0327 55.1839 33.3766 55.0275 33.7085 54.863C36.0561 53.7191 38.1827 52.1926 40.0059 50.3699C40.1697 50.2053 40.3295 50.0407 40.4893 49.872C40.8129 49.5388 41.1159 49.1931 41.4067 48.8393C41.5501 48.6583 41.7018 48.4813 41.8452 48.2962C41.9558 48.1522 42.0705 47.9999 42.1812 47.8518C42.513 47.4116 42.8287 46.9549 43.1318 46.4858C43.6235 45.704 44.0822 44.8894 44.4878 44.0459C44.6517 43.7126 44.8073 43.367 44.9507 43.0214C45.0941 42.6758 45.2336 42.3219 45.3647 41.9722C45.4631 41.7047 45.5573 41.4291 45.6475 41.1534C45.9138 40.3305 46.1392 39.4788 46.3071 38.6147C46.3358 38.4502 46.3722 38.2814 46.4009 38.1169C46.6385 36.7838 46.7656 35.4301 46.7656 34.0353C46.7697 46.782 57.0857 57.1465 69.7822 57.1465C75.8785 57.1465 81.4222 54.756 85.5273 50.8513C89.9971 46.6504 92.7954 40.6596 92.7954 34.0353C92.7954 25.1438 100.129 17.9475 109.027 18.215C117.594 18.4701 124.301 25.7569 124.301 34.3644V53.5545C124.301 55.5665 125.927 57.2 127.931 57.2C129.934 57.2 131.561 55.5665 131.561 53.5545V34.3686C131.561 25.7569 138.272 18.4701 146.838 18.215C155.741 17.9475 163.07 25.1438 163.07 34.0271V53.4805C163.07 55.4925 164.697 57.1259 166.7 57.1259C168.704 57.1259 170.331 55.4925 170.331 53.4805V34.4262C170.331 21.5601 159.85 10.7595 147.039 10.9117L147.047 10.924ZM39.4077 35.7263C38.6211 43.2929 32.4103 49.296 24.8555 49.8186C15.666 50.4563 7.99238 43.1325 7.98828 34.0435C7.99238 25.3043 15.0549 18.2191 23.7446 18.2191C24.3141 18.2191 24.8839 18.2479 25.437 18.3096C25.6255 18.3302 25.8098 18.3549 25.9941 18.3795C26.2891 18.4248 26.5801 18.4701 26.8628 18.5277C27.0062 18.5565 27.1578 18.5894 27.293 18.6223C27.9567 18.7787 28.6122 18.9762 29.2432 19.2148C29.4521 19.2889 29.6609 19.3753 29.8657 19.4658C30.1033 19.5604 30.337 19.6715 30.5664 19.7785C30.7958 19.8896 31.025 20.0089 31.2422 20.1282C36.6174 23.0578 40.1042 29.032 39.4077 35.7222V35.7263ZM68.6025 49.8144C60.8429 49.2466 54.5785 42.9103 54.0664 35.1174C53.456 25.8968 60.7402 18.2232 69.7822 18.2232C78.8242 18.2232 85.5273 25.3125 85.5273 34.0476C85.5273 42.7827 77.8127 50.4933 68.5986 49.8144H68.6025Z" fill="#ADADAD"/>
<path d="M254.648 38.1671L253.034 36.5455L248.771 32.2543C248.303 31.7803 247.666 31.5184 247 31.5184H240.216C238.833 31.5184 237.712 32.6452 237.712 34.034C237.712 35.4228 238.833 36.5496 240.216 36.5496H247.517C250.555 36.5496 253.026 39.0278 253.034 42.0798V49.4313C253.034 50.8201 254.156 51.9469 255.538 51.9469C256.921 51.9469 258.043 50.8201 258.043 49.4313V42.6162C258.043 41.951 257.777 41.3106 257.31 40.8366L254.652 38.1713L254.648 38.1671Z" fill="#ADADAD"/>
<path d="M254.648 38.1671L253.034 36.5455L248.771 32.2543C248.303 31.7803 247.666 31.5184 247 31.5184H240.216C238.833 31.5184 237.712 32.6452 237.712 34.034C237.712 35.4228 238.833 36.5496 240.216 36.5496H247.517C250.555 36.5496 253.026 39.0278 253.034 42.0798V49.4313C253.034 50.8201 254.156 51.9469 255.538 51.9469C256.921 51.9469 258.043 50.8201 258.043 49.4313V42.6162C258.043 41.951 257.777 41.3106 257.31 40.8366L254.652 38.1713L254.648 38.1671Z" fill="#ADADAD"/>
<path d="M270.645 31.7433H263.342C260.303 31.7433 257.832 29.2646 257.824 26.212V18.859C257.824 17.4699 256.702 16.3429 255.319 16.3429C253.936 16.3429 252.814 17.4699 252.814 18.859V25.6755C252.814 26.3409 253.079 26.9813 253.547 27.4555L257.819 31.7433L262.084 36.0353C262.551 36.5094 263.189 36.7714 263.855 36.7714H270.641C272.023 36.7714 273.145 35.6444 273.145 34.2553C273.145 32.8662 272.023 31.7391 270.641 31.7391L270.645 31.7433Z" fill="#ADADAD"/>
<path d="M270.645 31.7433H263.342C260.303 31.7433 257.832 29.2646 257.824 26.212V18.859C257.824 17.4699 256.702 16.3429 255.319 16.3429C253.936 16.3429 252.814 17.4699 252.814 18.859V25.6755C252.814 26.3409 253.079 26.9813 253.547 27.4555L257.819 31.7433L262.084 36.0353C262.551 36.5094 263.189 36.7714 263.855 36.7714H270.641C272.023 36.7714 273.145 35.6444 273.145 34.2553C273.145 32.8662 272.023 31.7391 270.641 31.7391L270.645 31.7433Z" fill="#ADADAD"/>
</svg>
