<svg width="211" height="101" viewBox="0 0 211 101" fill="none" xmlns="http://www.w3.org/2000/svg">
<g id="Vector">
<path d="M65.9731 27.0796L66.0312 27.0221C66.0312 27.0221 66.0474 27.0385 66.0557 27.0467C66.6405 26.8166 67.5013 25.6042 67.9502 25.1562C69.2105 23.8986 68.5805 24.5274 69.5278 23.5821C69.6637 23.4465 69.7791 23.3109 69.8862 23.1753L71.3154 21.7492C71.3154 21.7492 71.3235 21.7492 71.3276 21.7451C71.3647 21.6916 71.41 21.6382 71.4512 21.5848C71.4718 21.5601 71.4885 21.5355 71.5132 21.5108C71.575 21.4409 71.6409 21.3752 71.7109 21.3135L87.8228 0L68.251 19.2709C66.4923 18.1983 64.6473 17.2654 62.7197 16.4886C58.6052 14.8241 54.2805 13.8994 49.8447 13.7309L48.354 3.37416L46.8628 13.7309C42.427 13.8994 38.1019 14.8241 33.9873 16.4927C30.4452 17.927 27.1753 19.8628 24.2305 22.267L2.43457 5.98389L26.8623 30.351C37.4967 19.7354 54.116 18.6504 65.9819 27.0796H65.9731Z" fill="#ADADAD"/>
<path d="M65.9731 27.0796L66.0312 27.0221C66.0312 27.0221 66.0474 27.0385 66.0557 27.0467C66.6405 26.8166 67.5013 25.6042 67.9502 25.1562C69.2105 23.8986 68.5805 24.5274 69.5278 23.5821C69.6637 23.4465 69.7791 23.3109 69.8862 23.1753L71.3154 21.7492C71.3154 21.7492 71.3235 21.7492 71.3276 21.7451C71.3647 21.6916 71.41 21.6382 71.4512 21.5848C71.4718 21.5601 71.4885 21.5355 71.5132 21.5108C71.575 21.4409 71.6409 21.3752 71.7109 21.3135L87.8228 0L68.251 19.2709C66.4923 18.1983 64.6473 17.2654 62.7197 16.4886C58.6052 14.8241 54.2805 13.8994 49.8447 13.7309L48.354 3.37416L46.8628 13.7309C42.427 13.8994 38.1019 14.8241 33.9873 16.4927C30.4452 17.927 27.1753 19.8628 24.2305 22.267L2.43457 5.98389L26.8623 30.351C37.4967 19.7354 54.116 18.6504 65.9819 27.0796H65.9731Z" fill="#ADADAD"/>
<path d="M26.8311 73.0418C16.3164 62.4057 15.238 45.7801 23.5952 33.9123L18.8081 27.4327C16.4308 30.378 14.5172 33.6405 13.1006 37.179C11.4519 41.2942 10.536 45.6195 10.3691 50.056L0.111328 51.5472L10.3691 53.0383C10.536 57.4749 11.4518 61.8001 13.1045 65.9153C14.5252 69.458 16.4428 72.7287 18.8242 75.674L2.6958 97.4735L26.8311 73.0418Z" fill="#ADADAD"/>
<path d="M26.8311 73.0418C16.3164 62.4057 15.238 45.7801 23.5952 33.9123L18.8081 27.4327C16.4308 30.378 14.5172 33.6405 13.1006 37.179C11.4519 41.2942 10.536 45.6195 10.3691 50.056L0.111328 51.5472L10.3691 53.0383C10.536 57.4749 11.4518 61.8001 13.1045 65.9153C14.5252 69.458 16.4428 72.7287 18.8242 75.674L2.6958 97.4735L26.8311 73.0418Z" fill="#ADADAD"/>
<path d="M30.9561 76.2775L24.5078 81.1965C27.439 83.6372 30.6896 85.6014 34.207 87.0558C38.3025 88.7484 42.6072 89.6888 47.0225 89.8601L48.5068 100.392L49.9902 89.8601C54.4055 89.6888 58.7107 88.7484 62.8062 87.0516C66.3318 85.5931 69.5864 83.6246 72.5176 81.1798L94.2124 97.738L69.8979 72.9592C59.3088 83.7542 42.763 84.8617 30.9521 76.2775H30.9561Z" fill="#ADADAD"/>
<path d="M30.9561 76.2775L24.5078 81.1965C27.439 83.6372 30.6896 85.6014 34.207 87.0558C38.3025 88.7484 42.6072 89.6888 47.0225 89.8601L48.5068 100.392L49.9902 89.8601C54.4055 89.6888 58.7107 88.7484 62.8062 87.0516C66.3318 85.5931 69.5864 83.6246 72.5176 81.1798L94.2124 97.738L69.8979 72.9592C59.3088 83.7542 42.763 84.8617 30.9521 76.2775H30.9561Z" fill="#ADADAD"/>
<path d="M44.1377 55.5648L48.0557 66.5388L58.1982 41.4408L33.2207 51.6324L44.1377 55.5648Z" fill="#ADADAD"/>
<path d="M44.1377 55.5648L48.0557 66.5388L58.1982 41.4408L33.2207 51.6324L44.1377 55.5648Z" fill="#ADADAD"/>
<path d="M68.8735 60.5891H78.3096L79.7148 64.7878H86.6611L76.5693 37.9388H70.6704L60.522 64.7878H67.4678L68.8735 60.5891ZM73.29 47.3453L73.5713 46.1243H73.6079L73.9048 47.3453L76.4146 54.8621H70.7803L73.29 47.3453Z" fill="#ADADAD"/>
<path d="M68.8735 60.5891H78.3096L79.7148 64.7878H86.6611L76.5693 37.9388H70.6704L60.522 64.7878H67.4678L68.8735 60.5891ZM73.29 47.3453L73.5713 46.1243H73.6079L73.9048 47.3453L76.4146 54.8621H70.7803L73.29 47.3453Z" fill="#ADADAD"/>
<path d="M109.398 51.4631C110.095 50.2446 110.442 48.7848 110.442 47.0756C110.442 45.3663 110.046 43.7111 109.257 42.3263C108.469 40.9414 107.364 39.8684 105.948 39.0949C104.533 38.3255 102.907 37.9388 101.075 37.9388H89.5654V64.7878H96.3906V56.2249H99.1392C99.494 56.2249 99.7667 56.2207 99.9565 56.2041L103.938 64.7836H111.639L106.48 54.4241C107.731 53.6589 108.704 52.6691 109.402 51.4506L109.398 51.4631ZM103.122 48.6642C102.857 49.1342 102.49 49.5126 102.02 49.7912C101.553 50.0699 101.025 50.2113 100.447 50.2113H96.3906V44.152H100.505C101.351 44.152 102.065 44.414 102.646 44.9338C103.228 45.4578 103.518 46.1773 103.518 47.0922C103.518 47.6661 103.385 48.1901 103.117 48.6601L103.122 48.6642Z" fill="#ADADAD"/>
<path d="M109.398 51.4631C110.095 50.2446 110.442 48.7848 110.442 47.0756C110.442 45.3663 110.046 43.7111 109.257 42.3263C108.469 40.9414 107.364 39.8684 105.948 39.0949C104.533 38.3255 102.907 37.9388 101.075 37.9388H89.5654V64.7878H96.3906V56.2249H99.1392C99.494 56.2249 99.7667 56.2207 99.9565 56.2041L103.938 64.7836H111.639L106.48 54.4241C107.731 53.6589 108.704 52.6691 109.402 51.4506L109.398 51.4631ZM103.122 48.6642C102.857 49.1342 102.49 49.5126 102.02 49.7912C101.553 50.0699 101.025 50.2113 100.447 50.2113H96.3906V44.152H100.505C101.351 44.152 102.065 44.414 102.646 44.9338C103.228 45.4578 103.518 46.1773 103.518 47.0922C103.518 47.6661 103.385 48.1901 103.117 48.6601L103.122 48.6642Z" fill="#ADADAD"/>
<path d="M131.481 39.6979C129.361 38.5252 127.025 37.9388 124.472 37.9388H114.543V64.7878H124.529C127.07 64.7878 129.398 64.2014 131.509 63.0286C133.625 61.8558 135.296 60.2464 136.521 58.192C137.746 56.1417 138.359 53.8585 138.359 51.3508C138.359 48.8431 137.742 46.5641 136.509 44.5179C135.275 42.4718 133.6 40.8665 131.477 39.6938L131.481 39.6979ZM130.635 54.9398C130.055 55.992 129.251 56.8113 128.222 57.3976C127.197 57.984 126.037 58.2751 124.75 58.2751H121.294V44.4597H124.729C126.02 44.4597 127.18 44.755 128.209 45.3497C129.243 45.9402 130.047 46.7595 130.631 47.8034C131.211 48.8472 131.505 50.0325 131.505 51.3591C131.505 52.6857 131.215 53.8918 130.631 54.944L130.635 54.9398Z" fill="#ADADAD"/>
<path d="M131.481 39.6979C129.361 38.5252 127.025 37.9388 124.472 37.9388H114.543V64.7878H124.529C127.07 64.7878 129.398 64.2014 131.509 63.0286C133.625 61.8558 135.296 60.2464 136.521 58.192C137.746 56.1417 138.359 53.8585 138.359 51.3508C138.359 48.8431 137.742 46.5641 136.509 44.5179C135.275 42.4718 133.6 40.8665 131.477 39.6938L131.481 39.6979ZM130.635 54.9398C130.055 55.992 129.251 56.8113 128.222 57.3976C127.197 57.984 126.037 58.2751 124.75 58.2751H121.294V44.4597H124.729C126.02 44.4597 127.18 44.755 128.209 45.3497C129.243 45.9402 130.047 46.7595 130.631 47.8034C131.211 48.8472 131.505 50.0325 131.505 51.3591C131.505 52.6857 131.215 53.8918 130.631 54.944L130.635 54.9398Z" fill="#ADADAD"/>
<path d="M149.29 54.0872H159.146V48.3315H149.29V44.1478H161.888V37.9388H142.425V64.7878H162.174V58.5746H149.29V54.0872Z" fill="#ADADAD"/>
<path d="M149.29 54.0872H159.146V48.3315H149.29V44.1478H161.888V37.9388H142.425V64.7878H162.174V58.5746H149.29V54.0872Z" fill="#ADADAD"/>
<path d="M173.71 37.9388L163.336 64.7878H170.437L171.874 60.5891H181.519L182.956 64.7878H190.056L179.741 37.9388H173.71ZM173.827 54.8663L176.392 47.3494L176.68 46.1284H176.717L177.021 47.3494L179.586 54.8663H173.827Z" fill="#ADADAD"/>
<path d="M173.71 37.9388L163.336 64.7878H170.437L171.874 60.5891H181.519L182.956 64.7878H190.056L179.741 37.9388H173.71ZM173.827 54.8663L176.392 47.3494L176.68 46.1284H176.717L177.021 47.3494L179.586 54.8663H173.827Z" fill="#ADADAD"/>
<path d="M199.619 37.9388H192.961V64.7878H210.387V58.2128H199.619V37.9388Z" fill="#ADADAD"/>
<path d="M199.619 37.9388H192.961V64.7878H210.387V58.2128H199.619V37.9388Z" fill="#ADADAD"/>
<path d="M66.3306 31.5511C64.0068 29.5222 61.4058 27.9377 58.5195 26.8018C55.6332 25.6659 52.5435 25.098 49.2373 25.098C44.4961 25.098 40.1462 26.2585 36.1836 28.5797C32.221 30.9009 29.0942 34.0657 26.7949 38.0783C24.4957 42.091 23.3462 46.5234 23.3462 51.3797C23.3462 56.236 24.4957 60.6356 26.7949 64.6482C29.0942 68.6608 32.221 71.8257 36.1836 74.1468C40.1462 76.468 44.4961 77.6286 49.2373 77.6286C52.4905 77.6286 55.56 77.0359 58.4463 75.8507C61.3285 74.6654 63.9581 73.0603 66.3267 71.0314L64.2065 68.167C59.5876 72.0356 54.5938 73.9657 49.2329 73.9657C45.2337 73.9657 41.5445 72.9698 38.1567 70.9738C34.769 68.9818 32.0905 66.2615 30.1133 62.8168C28.1402 59.3721 27.1494 55.5611 27.1494 51.3797C27.1494 47.1983 28.1361 43.3833 30.1133 39.9262C32.0864 36.4692 34.769 33.7447 38.1567 31.7528C41.5445 29.7609 45.2337 28.7608 49.2329 28.7608C52.0336 28.7608 54.704 29.2505 57.2397 30.23C59.7755 31.2095 62.0867 32.58 64.1699 34.3456L66.3228 31.5552L66.3306 31.5511Z" fill="#ADADAD"/>
<path d="M66.3306 31.5511C64.0068 29.5222 61.4058 27.9377 58.5195 26.8018C55.6332 25.6659 52.5435 25.098 49.2373 25.098C44.4961 25.098 40.1462 26.2585 36.1836 28.5797C32.221 30.9009 29.0942 34.0657 26.7949 38.0783C24.4957 42.091 23.3462 46.5234 23.3462 51.3797C23.3462 56.236 24.4957 60.6356 26.7949 64.6482C29.0942 68.6608 32.221 71.8257 36.1836 74.1468C40.1462 76.468 44.4961 77.6286 49.2373 77.6286C52.4905 77.6286 55.56 77.0359 58.4463 75.8507C61.3285 74.6654 63.9581 73.0603 66.3267 71.0314L64.2065 68.167C59.5876 72.0356 54.5938 73.9657 49.2329 73.9657C45.2337 73.9657 41.5445 72.9698 38.1567 70.9738C34.769 68.9818 32.0905 66.2615 30.1133 62.8168C28.1402 59.3721 27.1494 55.5611 27.1494 51.3797C27.1494 47.1983 28.1361 43.3833 30.1133 39.9262C32.0864 36.4692 34.769 33.7447 38.1567 31.7528C41.5445 29.7609 45.2337 28.7608 49.2329 28.7608C52.0336 28.7608 54.704 29.2505 57.2397 30.23C59.7755 31.2095 62.0867 32.58 64.1699 34.3456L66.3228 31.5552L66.3306 31.5511Z" fill="#ADADAD"/>
<path d="M90.6465 26.516V25.6816H84.9185V33.2694H90.7271V32.4311H85.876V29.7948H89.7656V28.9761H85.876V26.516H90.6465Z" fill="#ADADAD"/>
<path d="M90.6465 26.516V25.6816H84.9185V33.2694H90.7271V32.4311H85.876V29.7948H89.7656V28.9761H85.876V26.516H90.6465Z" fill="#ADADAD"/>
<path d="M93.4814 27.0879L95.8647 33.2694H96.6387L99.0254 27.0879L99.6875 33.2694H100.602L99.7192 25.6816H98.6807L96.2534 32.0002L93.8184 25.6816H92.7715L91.8892 33.2694H92.8076L93.4814 27.0879Z" fill="#ADADAD"/>
<path d="M93.4814 27.0879L95.8647 33.2694H96.6387L99.0254 27.0879L99.6875 33.2694H100.602L99.7192 25.6816H98.6807L96.2534 32.0002L93.8184 25.6816H92.7715L91.8892 33.2694H92.8076L93.4814 27.0879Z" fill="#ADADAD"/>
<path d="M103.319 30.5821H105.331C105.907 30.5821 106.409 30.4803 106.833 30.2766C107.258 30.0729 107.586 29.7869 107.812 29.4109C108.037 29.0387 108.153 28.6039 108.153 28.1064C108.153 27.6089 108.037 27.2055 107.807 26.8372C107.578 26.469 107.249 26.187 106.82 25.9833C106.392 25.7835 105.894 25.6816 105.327 25.6816H102.345V33.2694H103.323V30.5821H103.319ZM103.319 26.5003H105.257C105.638 26.5003 105.976 26.5669 106.262 26.7001C106.552 26.8333 106.772 27.0213 106.928 27.2642C107.084 27.5071 107.162 27.793 107.162 28.1182C107.162 28.4433 107.084 28.741 106.928 28.9878C106.772 29.2346 106.547 29.4265 106.262 29.5637C105.972 29.6968 105.638 29.7673 105.257 29.7673H103.319V26.5003Z" fill="#ADADAD"/>
<path d="M103.319 30.5821H105.331C105.907 30.5821 106.409 30.4803 106.833 30.2766C107.258 30.0729 107.586 29.7869 107.812 29.4109C108.037 29.0387 108.153 28.6039 108.153 28.1064C108.153 27.6089 108.037 27.2055 107.807 26.8372C107.578 26.469 107.249 26.187 106.82 25.9833C106.392 25.7835 105.894 25.6816 105.327 25.6816H102.345V33.2694H103.323V30.5821H103.319ZM103.319 26.5003H105.257C105.638 26.5003 105.976 26.5669 106.262 26.7001C106.552 26.8333 106.772 27.0213 106.928 27.2642C107.084 27.5071 107.162 27.793 107.162 28.1182C107.162 28.4433 107.084 28.741 106.928 28.9878C106.772 29.2346 106.547 29.4265 106.262 29.5637C105.972 29.6968 105.638 29.7673 105.257 29.7673H103.319V26.5003Z" fill="#ADADAD"/>
<path d="M113.649 30.3001C114.104 30.1121 114.463 29.8339 114.715 29.4657C114.971 29.0975 115.099 28.647 115.099 28.1182C115.099 27.6324 114.988 27.2055 114.769 26.8372C114.55 26.469 114.236 26.183 113.835 25.9833C113.434 25.7835 112.963 25.6816 112.43 25.6816H109.315V33.2694H110.249V30.5625H112.203C112.393 30.5625 112.575 30.5508 112.748 30.5312L114.07 33.2694H115.124L113.649 30.304V30.3001ZM112.352 29.7634H110.249V26.4925H112.352C112.711 26.4925 113.029 26.5591 113.298 26.6884C113.571 26.8176 113.782 27.0096 113.926 27.2525C114.075 27.4992 114.149 27.7852 114.149 28.1221C114.149 28.459 114.075 28.7371 113.926 28.9878C113.778 29.2346 113.566 29.4265 113.298 29.5636C113.025 29.6968 112.711 29.7673 112.352 29.7673V29.7634Z" fill="#ADADAD"/>
<path d="M113.649 30.3001C114.104 30.1121 114.463 29.8339 114.715 29.4657C114.971 29.0975 115.099 28.647 115.099 28.1182C115.099 27.6324 114.988 27.2055 114.769 26.8372C114.55 26.469 114.236 26.183 113.835 25.9833C113.434 25.7835 112.963 25.6816 112.43 25.6816H109.315V33.2694H110.249V30.5625H112.203C112.393 30.5625 112.575 30.5508 112.748 30.5312L114.07 33.2694H115.124L113.649 30.304V30.3001ZM112.352 29.7634H110.249V26.4925H112.352C112.711 26.4925 113.029 26.5591 113.298 26.6884C113.571 26.8176 113.782 27.0096 113.926 27.2525C114.075 27.4992 114.149 27.7852 114.149 28.1221C114.149 28.459 114.075 28.7371 113.926 28.9878C113.778 29.2346 113.566 29.4265 113.298 29.5636C113.025 29.6968 112.711 29.7673 112.352 29.7673V29.7634Z" fill="#ADADAD"/>
<path d="M122.094 32.4311H117.728V29.7948H121.226V28.9761H117.728V26.516H122.022V25.6816H116.867V33.2694H122.094V32.4311Z" fill="#ADADAD"/>
<path d="M122.094 32.4311H117.728V29.7948H121.226V28.9761H117.728V26.516H122.022V25.6816H116.867V33.2694H122.094V32.4311Z" fill="#ADADAD"/>
<path d="M129.646 32.4311H124.798V29.7948H128.685V28.9761H124.798V26.516H129.565V25.6816H123.837V33.2694H129.646V32.4311Z" fill="#ADADAD"/>
<path d="M129.646 32.4311H124.798V29.7948H128.685V28.9761H124.798V26.516H129.565V25.6816H123.837V33.2694H129.646V32.4311Z" fill="#ADADAD"/>
<path d="M132.277 27.0723L136.901 33.2694H137.778V25.6816H136.889V31.8278L132.304 25.6816H131.388V33.2694H132.277V27.0723Z" fill="#ADADAD"/>
<path d="M132.277 27.0723L136.901 33.2694H137.778V25.6816H136.889V31.8278L132.304 25.6816H131.388V33.2694H132.277V27.0723Z" fill="#ADADAD"/>
<path d="M145.001 32.768C145.639 32.435 146.141 31.9767 146.514 31.4009C146.887 30.8211 147.072 30.1865 147.072 29.4853C147.072 28.7841 146.887 28.1417 146.514 27.5619C146.141 26.9822 145.634 26.5238 144.993 26.187C144.351 25.8501 143.647 25.6816 142.88 25.6816H140.102V33.2694H142.897C143.66 33.2694 144.36 33.1009 144.998 32.768H145.001ZM141.049 26.5317H142.897C143.488 26.5317 144.033 26.661 144.519 26.9195C145.009 27.178 145.395 27.5345 145.676 27.985C145.961 28.4355 146.1 28.9369 146.1 29.4853C146.1 30.0337 145.957 30.5273 145.676 30.9778C145.395 31.4283 145.01 31.7808 144.528 32.0433C144.042 32.3018 143.505 32.4311 142.914 32.4311H141.041V26.5356L141.049 26.5317Z" fill="#ADADAD"/>
<path d="M145.001 32.768C145.639 32.435 146.141 31.9767 146.514 31.4009C146.887 30.8211 147.072 30.1865 147.072 29.4853C147.072 28.7841 146.887 28.1417 146.514 27.5619C146.141 26.9822 145.634 26.5238 144.993 26.187C144.351 25.8501 143.647 25.6816 142.88 25.6816H140.102V33.2694H142.897C143.66 33.2694 144.36 33.1009 144.998 32.768H145.001ZM141.049 26.5317H142.897C143.488 26.5317 144.033 26.661 144.519 26.9195C145.009 27.178 145.395 27.5345 145.676 27.985C145.961 28.4355 146.1 28.9369 146.1 29.4853C146.1 30.0337 145.957 30.5273 145.676 30.9778C145.395 31.4283 145.01 31.7808 144.528 32.0433C144.042 32.3018 143.505 32.4311 142.914 32.4311H141.041V26.5356L141.049 26.5317Z" fill="#ADADAD"/>
<path d="M149.976 25.6816H148.814V33.2694H149.976V25.6816Z" fill="#ADADAD"/>
<path d="M149.976 25.6816H148.814V33.2694H149.976V25.6816Z" fill="#ADADAD"/>
<path d="M152.836 27.0879L155.378 33.2694H156.204L158.75 27.0879L159.452 33.2694H160.432L159.491 25.6816H158.382L155.789 32.0002L153.196 25.6816H152.079L151.138 33.2694H152.114L152.836 27.0879Z" fill="#ADADAD"/>
<path d="M152.836 27.0879L155.378 33.2694H156.204L158.75 27.0879L159.452 33.2694H160.432L159.491 25.6816H158.382L155.789 32.0002L153.196 25.6816H152.079L151.138 33.2694H152.114L152.836 27.0879Z" fill="#ADADAD"/>
<path d="M167.402 32.4311H163.039V29.7948H166.538V28.9761H163.039V26.516H167.33V25.6816H162.174V33.2694H167.402V32.4311Z" fill="#ADADAD"/>
<path d="M167.402 32.4311H163.039V29.7948H166.538V28.9761H163.039V26.516H167.33V25.6816H162.174V33.2694H167.402V32.4311Z" fill="#ADADAD"/>
<path d="M170.114 27.0723L175.159 33.2694H176.115V25.6816H175.146V31.8278L170.145 25.6816H169.145V33.2694H170.114V27.0723Z" fill="#ADADAD"/>
<path d="M170.114 27.0723L175.159 33.2694H176.115V25.6816H175.146V31.8278L170.145 25.6816H169.145V33.2694H170.114V27.0723Z" fill="#ADADAD"/>
<path d="M179.978 33.2694H180.953V26.516H183.667V25.6816H177.277V26.516H179.978V33.2694Z" fill="#ADADAD"/>
<path d="M179.978 33.2694H180.953V26.516H183.667V25.6816H177.277V26.516H179.978V33.2694Z" fill="#ADADAD"/>
<path d="M189.786 25.6373C189.162 25.2777 188.48 25.098 187.733 25.098C186.986 25.098 186.304 25.2777 185.684 25.6373C185.063 25.9968 184.569 26.4912 184.209 27.1163C183.846 27.7414 183.667 28.4278 183.667 29.1796C183.667 29.9314 183.846 30.6178 184.209 31.2429C184.573 31.868 185.063 32.3624 185.684 32.726C186.304 33.0896 186.99 33.2694 187.733 33.2694C188.476 33.2694 189.166 33.0896 189.786 32.726C190.407 32.3624 190.901 31.8721 191.26 31.2429C191.62 30.6178 191.799 29.9314 191.799 29.1796C191.799 28.4278 191.62 27.7414 191.26 27.1163C190.901 26.4912 190.407 25.9968 189.786 25.6373ZM190.443 30.8016C190.162 31.2878 189.782 31.6719 189.3 31.9538C188.819 32.2357 188.296 32.3746 187.729 32.3746C187.162 32.3746 186.639 32.2357 186.161 31.9538C185.683 31.6719 185.304 31.2878 185.022 30.8016C184.74 30.3154 184.602 29.7761 184.602 29.1878C184.602 28.5994 184.74 28.0601 185.022 27.5698C185.304 27.0795 185.683 26.6955 186.161 26.4136C186.639 26.1316 187.162 25.9927 187.729 25.9927C188.296 25.9927 188.819 26.1316 189.3 26.4136C189.782 26.6955 190.162 27.0795 190.443 27.5698C190.725 28.0601 190.864 28.5994 190.864 29.1878C190.864 29.7761 190.725 30.3154 190.443 30.8016Z" fill="#ADADAD"/>
<path d="M189.786 25.6373C189.162 25.2777 188.48 25.098 187.733 25.098C186.986 25.098 186.304 25.2777 185.684 25.6373C185.063 25.9968 184.569 26.4912 184.209 27.1163C183.846 27.7414 183.667 28.4278 183.667 29.1796C183.667 29.9314 183.846 30.6178 184.209 31.2429C184.573 31.868 185.063 32.3624 185.684 32.726C186.304 33.0896 186.99 33.2694 187.733 33.2694C188.476 33.2694 189.166 33.0896 189.786 32.726C190.407 32.3624 190.901 31.8721 191.26 31.2429C191.62 30.6178 191.799 29.9314 191.799 29.1796C191.799 28.4278 191.62 27.7414 191.26 27.1163C190.901 26.4912 190.407 25.9968 189.786 25.6373ZM190.443 30.8016C190.162 31.2878 189.782 31.6719 189.3 31.9538C188.819 32.2357 188.296 32.3746 187.729 32.3746C187.162 32.3746 186.639 32.2357 186.161 31.9538C185.683 31.6719 185.304 31.2878 185.022 30.8016C184.74 30.3154 184.602 29.7761 184.602 29.1878C184.602 28.5994 184.74 28.0601 185.022 27.5698C185.304 27.0795 185.683 26.6955 186.161 26.4136C186.639 26.1316 187.162 25.9927 187.729 25.9927C188.296 25.9927 188.819 26.1316 189.3 26.4136C189.782 26.6955 190.162 27.0795 190.443 27.5698C190.725 28.0601 190.864 28.5994 190.864 29.1878C190.864 29.7761 190.725 30.3154 190.443 30.8016Z" fill="#ADADAD"/>
<path d="M196.956 32.2341C196.675 32.345 196.363 32.3984 196.01 32.3984C195.544 32.3984 195.095 32.3039 194.654 32.1108C194.217 31.9177 193.851 31.6425 193.559 31.2851L192.961 31.8726C193.314 32.3204 193.763 32.6655 194.301 32.9079C194.842 33.1502 195.408 33.2694 196.006 33.2694C196.527 33.2694 196.992 33.179 197.414 32.9982C197.831 32.8175 198.164 32.5504 198.404 32.2012C198.649 31.852 198.77 31.4371 198.77 30.9523C198.77 30.5045 198.653 30.1347 198.42 29.8431C198.188 29.5514 197.891 29.3254 197.534 29.1611C197.173 28.9967 196.712 28.8283 196.15 28.664C195.681 28.5366 195.324 28.4216 195.071 28.3271C194.822 28.2326 194.613 28.097 194.445 27.9286C194.28 27.7601 194.196 27.5342 194.196 27.2589C194.196 26.9837 194.277 26.7618 194.438 26.5646C194.598 26.3674 194.814 26.2154 195.087 26.1127C195.36 26.01 195.661 25.9566 195.99 25.9566C196.363 25.9566 196.732 26.0264 197.093 26.1702C197.458 26.314 197.767 26.503 198.023 26.7454L198.565 26.1045C198.228 25.784 197.835 25.5334 197.378 25.3609C196.921 25.1842 196.443 25.098 195.949 25.098C195.428 25.098 194.962 25.1883 194.561 25.3691C194.16 25.5499 193.847 25.8046 193.623 26.125C193.398 26.4455 193.29 26.8152 193.29 27.2302C193.29 27.6862 193.406 28.06 193.639 28.3476C193.871 28.6352 194.156 28.8571 194.493 29.0091C194.83 29.1611 195.243 29.3008 195.729 29.4281C196.23 29.5637 196.623 29.6869 196.904 29.7979C197.185 29.9088 197.413 30.0567 197.59 30.2416C197.766 30.4264 197.855 30.6688 197.855 30.9646C197.855 31.2604 197.775 31.5316 197.614 31.7452C197.454 31.9588 197.233 32.1191 196.952 32.23L196.956 32.2341Z" fill="#ADADAD"/>
<path d="M196.956 32.2341C196.675 32.345 196.363 32.3984 196.01 32.3984C195.544 32.3984 195.095 32.3039 194.654 32.1108C194.217 31.9177 193.851 31.6425 193.559 31.2851L192.961 31.8726C193.314 32.3204 193.763 32.6655 194.301 32.9079C194.842 33.1502 195.408 33.2694 196.006 33.2694C196.527 33.2694 196.992 33.179 197.414 32.9982C197.831 32.8175 198.164 32.5504 198.404 32.2012C198.649 31.852 198.77 31.4371 198.77 30.9523C198.77 30.5045 198.653 30.1347 198.42 29.8431C198.188 29.5514 197.891 29.3254 197.534 29.1611C197.173 28.9967 196.712 28.8283 196.15 28.664C195.681 28.5366 195.324 28.4216 195.071 28.3271C194.822 28.2326 194.613 28.097 194.445 27.9286C194.28 27.7601 194.196 27.5342 194.196 27.2589C194.196 26.9837 194.277 26.7618 194.438 26.5646C194.598 26.3674 194.814 26.2154 195.087 26.1127C195.36 26.01 195.661 25.9566 195.99 25.9566C196.363 25.9566 196.732 26.0264 197.093 26.1702C197.458 26.314 197.767 26.503 198.023 26.7454L198.565 26.1045C198.228 25.784 197.835 25.5334 197.378 25.3609C196.921 25.1842 196.443 25.098 195.949 25.098C195.428 25.098 194.962 25.1883 194.561 25.3691C194.16 25.5499 193.847 25.8046 193.623 26.125C193.398 26.4455 193.29 26.8152 193.29 27.2302C193.29 27.6862 193.406 28.06 193.639 28.3476C193.871 28.6352 194.156 28.8571 194.493 29.0091C194.83 29.1611 195.243 29.3008 195.729 29.4281C196.23 29.5637 196.623 29.6869 196.904 29.7979C197.185 29.9088 197.413 30.0567 197.59 30.2416C197.766 30.4264 197.855 30.6688 197.855 30.9646C197.855 31.2604 197.775 31.5316 197.614 31.7452C197.454 31.9588 197.233 32.1191 196.952 32.23L196.956 32.2341Z" fill="#ADADAD"/>
</g>
</svg>
