<svg width="263" height="68" viewBox="0 0 263 68" fill="none" xmlns="http://www.w3.org/2000/svg">
<path d="M84.1006 29.7632C86.4762 29.7632 88.591 29.3698 90.4409 28.5789C92.2909 27.788 94.2587 26.3702 96.3409 24.3294L92.7021 20.5142C91.1578 22.0592 89.7398 23.1205 88.4521 23.7065C87.1645 24.2925 85.7385 24.5835 84.186 24.5835C82.3605 24.5835 80.7018 24.1655 79.2104 23.3295C77.7191 22.4935 76.562 21.342 75.7471 19.879C74.9321 18.412 74.521 16.7359 74.521 14.8468C74.521 12.134 75.4417 9.85142 77.2876 7.99916C79.1294 6.14689 81.3989 5.22076 84.0923 5.22076C87.2828 5.22076 90.1512 6.57718 92.7061 9.29L96.4591 5.69203C94.9025 3.87255 93.0445 2.46695 90.8931 1.47935C88.7416 0.491751 86.5044 0 84.1777 0C81.4436 0 78.8928 0.667967 76.5254 2.00389C74.1579 3.33982 72.3368 5.10602 71.0654 7.30251C69.7941 9.499 69.1582 12.011 69.1582 14.8345C69.1582 19.2029 70.5516 22.7804 73.3428 25.5752C76.134 28.3699 79.7202 29.7673 84.1006 29.7673V29.7632Z" fill="#ADADAD"/>
<path d="M84.1006 29.7632C86.4762 29.7632 88.591 29.3698 90.4409 28.5789C92.2909 27.788 94.2587 26.3702 96.3409 24.3294L92.7021 20.5142C91.1578 22.0592 89.7398 23.1205 88.4521 23.7065C87.1645 24.2925 85.7385 24.5835 84.186 24.5835C82.3605 24.5835 80.7018 24.1655 79.2104 23.3295C77.7191 22.4935 76.562 21.342 75.7471 19.879C74.9321 18.412 74.521 16.7359 74.521 14.8468C74.521 12.134 75.4417 9.85142 77.2876 7.99916C79.1294 6.14689 81.3989 5.22076 84.0923 5.22076C87.2828 5.22076 90.1512 6.57718 92.7061 9.29L96.4591 5.69203C94.9025 3.87255 93.0445 2.46695 90.8931 1.47935C88.7416 0.491751 86.5044 0 84.1777 0C81.4436 0 78.8928 0.667967 76.5254 2.00389C74.1579 3.33982 72.3368 5.10602 71.0654 7.30251C69.7941 9.499 69.1582 12.011 69.1582 14.8345C69.1582 19.2029 70.5516 22.7804 73.3428 25.5752C76.134 28.3699 79.7202 29.7673 84.1006 29.7673V29.7632Z" fill="#ADADAD"/>
<path d="M104.591 0H99.3639V29.7673H104.591V0Z" fill="#ADADAD"/>
<path d="M104.591 0H99.3639V29.7673H104.591V0Z" fill="#ADADAD"/>
<path d="M128.155 25.2578L123.711 23.2179C122.292 24.5631 120.598 25.2378 118.629 25.2378C116.98 25.2378 115.624 24.8081 114.559 23.9447C113.494 23.0814 112.84 21.9209 112.598 20.4632H129.549L129.569 19.4794C129.569 16.0822 128.533 13.3475 126.457 11.2755C124.381 9.20343 121.688 8.17143 118.378 8.17143C115.258 8.17143 112.668 9.20745 110.6 11.2755C108.532 13.3475 107.496 15.9497 107.496 19.0818C107.496 22.214 108.532 24.6876 110.608 26.7195C112.684 28.7514 115.369 29.7673 118.666 29.7673C120.792 29.7673 122.629 29.3979 124.175 28.6631C125.721 27.9282 127.049 26.7918 128.159 25.2538L128.155 25.2578ZM114.764 13.7411C115.874 12.9379 117.166 12.5324 118.637 12.5324C119.994 12.5324 121.182 12.8898 122.21 13.6086C123.238 14.3273 123.924 15.259 124.274 16.4034H112.832C113.424 15.1305 114.07 14.243 114.769 13.7411H114.764Z" fill="#ADADAD"/>
<path d="M128.155 25.2578L123.711 23.2179C122.292 24.5631 120.598 25.2378 118.629 25.2378C116.98 25.2378 115.624 24.8081 114.559 23.9447C113.494 23.0814 112.84 21.9209 112.598 20.4632H129.549L129.569 19.4794C129.569 16.0822 128.533 13.3475 126.457 11.2755C124.381 9.20343 121.688 8.17143 118.378 8.17143C115.258 8.17143 112.668 9.20745 110.6 11.2755C108.532 13.3475 107.496 15.9497 107.496 19.0818C107.496 22.214 108.532 24.6876 110.608 26.7195C112.684 28.7514 115.369 29.7673 118.666 29.7673C120.792 29.7673 122.629 29.3979 124.175 28.6631C125.721 27.9282 127.049 26.7918 128.159 25.2538L128.155 25.2578ZM114.764 13.7411C115.874 12.9379 117.166 12.5324 118.637 12.5324C119.994 12.5324 121.182 12.8898 122.21 13.6086C123.238 14.3273 123.924 15.259 124.274 16.4034H112.832C113.424 15.1305 114.07 14.243 114.769 13.7411H114.764Z" fill="#ADADAD"/>
<path d="M126.084 5.25306L120.538 0H118.532L120.538 5.25306H126.084Z" fill="#ADADAD"/>
<path d="M126.084 5.25306L120.538 0H118.532L120.538 5.25306H126.084Z" fill="#ADADAD"/>
<path d="M118.532 0H116.493L110.981 5.25306H116.493L118.532 0Z" fill="#ADADAD"/>
<path d="M118.532 0H116.493L110.981 5.25306H116.493L118.532 0Z" fill="#ADADAD"/>
<path d="M151.061 29.7673V16.1946C151.061 13.8294 150.451 12.0425 149.234 10.8338C147.783 9.41225 145.763 8.70149 144.267 8.70149C137.961 8.70149 137.731 19.1702 137.731 19.1702V8.17143H132.473V29.7673H137.731V21.5273C137.731 19.391 137.809 18.0016 137.961 17.3591C138.256 16.1263 138.784 15.1626 139.547 14.4639C140.309 13.7652 141.223 13.4158 142.284 13.4158C143.104 13.4158 143.792 13.6246 144.349 14.0463C144.906 14.4679 145.3 15.0783 145.521 15.8854C145.747 16.6885 145.857 18.3189 145.857 20.7684V29.7633H151.057L151.061 29.7673Z" fill="#ADADAD"/>
<path d="M151.061 29.7673V16.1946C151.061 13.8294 150.451 12.0425 149.234 10.8338C147.783 9.41225 145.763 8.70149 144.267 8.70149C137.961 8.70149 137.731 19.1702 137.731 19.1702V8.17143H132.473V29.7673H137.731V21.5273C137.731 19.391 137.809 18.0016 137.961 17.3591C138.256 16.1263 138.784 15.1626 139.547 14.4639C140.309 13.7652 141.223 13.4158 142.284 13.4158C143.104 13.4158 143.792 13.6246 144.349 14.0463C144.906 14.4679 145.3 15.0783 145.521 15.8854C145.747 16.6885 145.857 18.3189 145.857 20.7684V29.7633H151.057L151.061 29.7673Z" fill="#ADADAD"/>
<path d="M156.603 5.24936C157.312 5.24936 157.919 5.0233 158.43 4.57118C158.94 4.11907 159.194 3.5706 159.194 2.92948C159.194 2.28837 158.936 1.72508 158.422 1.26926C157.907 0.813435 157.291 0.583675 156.573 0.583675C155.856 0.583675 155.24 0.806027 154.73 1.25444C154.219 1.70285 153.966 2.24389 153.966 2.8776C153.966 3.5113 154.223 4.09683 154.738 4.56007C155.253 5.0233 155.873 5.25306 156.603 5.25306V5.24936Z" fill="#ADADAD"/>
<path d="M156.603 5.24936C157.312 5.24936 157.919 5.0233 158.43 4.57118C158.94 4.11907 159.194 3.5706 159.194 2.92948C159.194 2.28837 158.936 1.72508 158.422 1.26926C157.907 0.813435 157.291 0.583675 156.573 0.583675C155.856 0.583675 155.24 0.806027 154.73 1.25444C154.219 1.70285 153.966 2.24389 153.966 2.8776C153.966 3.5113 154.223 4.09683 154.738 4.56007C155.253 5.0233 155.873 5.25306 156.603 5.25306V5.24936Z" fill="#ADADAD"/>
<path d="M159.194 8.17143H153.966V29.7673H159.194V8.17143Z" fill="#ADADAD"/>
<path d="M159.194 8.17143H153.966V29.7673H159.194V8.17143Z" fill="#ADADAD"/>
<path d="M173.026 29.7673C175.075 29.7673 176.953 29.2936 178.656 28.3421C180.36 27.3905 181.706 26.0737 182.69 24.3874C183.677 22.7012 184.171 20.8905 184.171 18.9513C184.171 17.0121 183.681 15.2336 182.702 13.5714C181.722 11.9093 180.356 10.5964 178.611 9.62481C176.862 8.65722 174.993 8.17143 173.009 8.17143C170.26 8.17143 167.827 9.10287 165.716 10.9658C163.304 13.1057 162.098 15.7796 162.098 18.9875C162.098 21.9825 163.164 24.528 165.3 26.6237C167.436 28.7195 170.013 29.7673 173.03 29.7673H173.026ZM168.992 14.6956C170.083 13.5835 171.449 13.0254 173.092 13.0254C174.734 13.0254 176.149 13.5754 177.232 14.6755C178.31 15.7756 178.849 17.2089 178.849 18.9714C178.849 20.7339 178.298 22.1753 177.203 23.2954C176.104 24.4155 174.73 24.9736 173.075 24.9736C171.42 24.9736 170.054 24.4196 168.975 23.3115C167.897 22.2034 167.358 20.758 167.358 18.9714C167.358 17.1848 167.906 15.8077 168.996 14.6956H168.992Z" fill="#ADADAD"/>
<path d="M173.026 29.7673C175.075 29.7673 176.953 29.2936 178.656 28.3421C180.36 27.3905 181.706 26.0737 182.69 24.3874C183.677 22.7012 184.171 20.8905 184.171 18.9513C184.171 17.0121 183.681 15.2336 182.702 13.5714C181.722 11.9093 180.356 10.5964 178.611 9.62481C176.862 8.65722 174.993 8.17143 173.009 8.17143C170.26 8.17143 167.827 9.10287 165.716 10.9658C163.304 13.1057 162.098 15.7796 162.098 18.9875C162.098 21.9825 163.164 24.528 165.3 26.6237C167.436 28.7195 170.013 29.7673 173.03 29.7673H173.026ZM168.992 14.6956C170.083 13.5835 171.449 13.0254 173.092 13.0254C174.734 13.0254 176.149 13.5754 177.232 14.6755C178.31 15.7756 178.849 17.2089 178.849 18.9714C178.849 20.7339 178.298 22.1753 177.203 23.2954C176.104 24.4155 174.73 24.9736 173.075 24.9736C171.42 24.9736 170.054 24.4196 168.975 23.3115C167.897 22.2034 167.358 20.758 167.358 18.9714C167.358 17.1848 167.906 15.8077 168.996 14.6956H168.992Z" fill="#ADADAD"/>
<path d="M138.461 38.4832C132.153 38.4832 131.924 49.2348 131.924 49.2348V37.9388H126.665V60.1184H131.924V51.6556C131.924 49.4616 132.001 48.0347 132.153 47.3748C132.448 46.1087 132.977 45.1189 133.739 44.4013C134.501 43.6837 135.416 43.3249 136.477 43.3249C137.297 43.3249 137.985 43.5393 138.543 43.9724C139.1 44.4054 139.494 45.0323 139.715 45.8612C139.941 46.6861 140.052 48.3605 140.052 50.8762V60.1142H145.253V46.1747C145.253 43.7456 144.642 41.9103 143.425 40.6689C141.974 39.209 139.953 38.479 138.457 38.479L138.461 38.4832Z" fill="#ADADAD"/>
<path d="M138.461 38.4832C132.153 38.4832 131.924 49.2348 131.924 49.2348V37.9388H126.665V60.1184H131.924V51.6556C131.924 49.4616 132.001 48.0347 132.153 47.3748C132.448 46.1087 132.977 45.1189 133.739 44.4013C134.501 43.6837 135.416 43.3249 136.477 43.3249C137.297 43.3249 137.985 43.5393 138.543 43.9724C139.1 44.4054 139.494 45.0323 139.715 45.8612C139.941 46.6861 140.052 48.3605 140.052 50.8762V60.1142H145.253V46.1747C145.253 43.7456 144.642 41.9103 143.425 40.6689C141.974 39.209 139.953 38.479 138.457 38.479L138.461 38.4832Z" fill="#ADADAD"/>
<path d="M84.4072 49.9025H92.6621C91.8708 51.6072 90.8369 52.8565 89.5469 53.6546C88.261 54.4526 86.678 54.8537 84.8027 54.8537C81.9178 54.8537 79.4947 53.8844 77.5288 51.9457C75.5629 50.0069 74.582 47.642 74.582 44.8551C74.582 42.0682 75.5297 39.8663 77.4214 37.9777C79.3172 36.0933 81.6665 35.149 84.4731 35.149C87.6919 35.149 90.5114 36.4442 92.9307 39.0389L96.7511 35.2075C95.0078 33.2938 93.223 31.9484 91.4014 31.1629C89.2459 30.2311 86.9254 29.7673 84.4443 29.7673C79.7047 29.7673 75.851 31.4512 72.896 34.8147C70.4026 37.6434 69.1582 40.9693 69.1582 44.7924C69.1582 47.5835 69.8344 50.1824 71.1821 52.5933C72.5298 55.0042 74.3674 56.8593 76.6836 58.1629C79.0039 59.4665 81.6421 60.1184 84.5972 60.1184C87.3626 60.1184 89.7691 59.5209 91.8257 58.3301C93.8781 57.1393 95.5517 55.4094 96.8458 53.1448C98.1358 50.8802 98.7828 48.4819 98.7828 45.954L98.7457 44.7339H84.4072V49.9025Z" fill="#ADADAD"/>
<path d="M84.4072 49.9025H92.6621C91.8708 51.6072 90.8369 52.8565 89.5469 53.6546C88.261 54.4526 86.678 54.8537 84.8027 54.8537C81.9178 54.8537 79.4947 53.8844 77.5288 51.9457C75.5629 50.0069 74.582 47.642 74.582 44.8551C74.582 42.0682 75.5297 39.8663 77.4214 37.9777C79.3172 36.0933 81.6665 35.149 84.4731 35.149C87.6919 35.149 90.5114 36.4442 92.9307 39.0389L96.7511 35.2075C95.0078 33.2938 93.223 31.9484 91.4014 31.1629C89.2459 30.2311 86.9254 29.7673 84.4443 29.7673C79.7047 29.7673 75.851 31.4512 72.896 34.8147C70.4026 37.6434 69.1582 40.9693 69.1582 44.7924C69.1582 47.5835 69.8344 50.1824 71.1821 52.5933C72.5298 55.0042 74.3674 56.8593 76.6836 58.1629C79.0039 59.4665 81.6421 60.1184 84.5972 60.1184C87.3626 60.1184 89.7691 59.5209 91.8257 58.3301C93.8781 57.1393 95.5517 55.4094 96.8458 53.1448C98.1358 50.8802 98.7828 48.4819 98.7828 45.954L98.7457 44.7339H84.4072V49.9025Z" fill="#ADADAD"/>
<path d="M118.197 39.4314C116.448 38.4377 114.58 37.9388 112.596 37.9388C109.847 37.9388 107.415 38.8954 105.304 40.8086C102.893 43.0064 101.687 45.7526 101.687 49.0471C101.687 52.1232 102.753 54.7374 104.888 56.8898C107.024 59.0422 109.6 60.1184 112.617 60.1184C114.666 60.1184 116.543 59.6318 118.246 58.6546C119.95 57.6773 121.296 56.3249 122.279 54.593C123.267 52.8612 123.76 51.0016 123.76 49.01C123.76 47.0184 123.271 45.1918 122.292 43.4847C121.312 41.7776 119.946 40.4293 118.201 39.4314H118.197ZM116.794 53.4674C115.695 54.6178 114.32 55.1909 112.666 55.1909C111.012 55.1909 109.646 54.6219 108.568 53.4839C107.489 52.3458 106.95 50.8614 106.95 49.0265C106.95 47.1916 107.498 45.7773 108.588 44.6351C109.679 43.4929 111.045 42.9198 112.687 42.9198C114.329 42.9198 115.744 43.4847 116.826 44.6145C117.904 45.7443 118.443 47.2164 118.443 49.0265C118.443 50.8367 117.892 52.317 116.797 53.4674H116.794Z" fill="#ADADAD"/>
<path d="M118.197 39.4314C116.448 38.4377 114.58 37.9388 112.596 37.9388C109.847 37.9388 107.415 38.8954 105.304 40.8086C102.893 43.0064 101.687 45.7526 101.687 49.0471C101.687 52.1232 102.753 54.7374 104.888 56.8898C107.024 59.0422 109.6 60.1184 112.617 60.1184C114.666 60.1184 116.543 59.6318 118.246 58.6546C119.95 57.6773 121.296 56.3249 122.279 54.593C123.267 52.8612 123.76 51.0016 123.76 49.01C123.76 47.0184 123.271 45.1918 122.292 43.4847C121.312 41.7776 119.946 40.4293 118.201 39.4314H118.197ZM116.794 53.4674C115.695 54.6178 114.32 55.1909 112.666 55.1909C111.012 55.1909 109.646 54.6219 108.568 53.4839C107.489 52.3458 106.95 50.8614 106.95 49.0265C106.95 47.1916 107.498 45.7773 108.588 44.6351C109.679 43.4929 111.045 42.9198 112.687 42.9198C114.329 42.9198 115.744 43.4847 116.826 44.6145C117.904 45.7443 118.443 47.2164 118.443 49.0265C118.443 50.8367 117.892 52.317 116.797 53.4674H116.794Z" fill="#ADADAD"/>
<path d="M160.026 42.8975C161.105 42.8975 162.045 43.0676 162.846 43.4037C163.648 43.7398 164.461 44.3457 165.283 45.2171L169.649 42.7771C168.598 41.2294 167.246 40.0343 165.594 39.1961C163.942 38.3579 162.078 37.9388 160.001 37.9388C157.756 37.9388 155.733 38.4326 153.918 39.4202C152.103 40.4078 150.692 41.7688 149.678 43.4991C148.664 45.2295 148.157 47.1217 148.157 49.1757C148.157 52.1426 149.2 54.7278 151.281 56.9395C152.85 58.6076 154.87 59.645 157.347 60.0558L156.865 61.7197L157.94 61.6824C158.463 61.6824 158.852 61.7779 159.093 61.9729C159.338 62.1679 159.457 62.4335 159.457 62.7737C159.457 63.1887 159.298 63.5248 158.979 63.7779C158.66 64.031 158.173 64.1597 157.519 64.1597C156.636 64.1597 155.733 64.0103 154.809 63.7115L154.118 66.2262C155.708 66.8237 157.127 67.1225 158.386 67.1225C159.935 67.1225 161.146 66.7448 162.021 65.9938C162.892 65.2427 163.329 64.3381 163.329 63.2883C163.329 62.6119 163.084 61.9936 162.589 61.4293C162.094 60.865 161.42 60.4873 160.561 60.2923L160.573 60.2384C164.346 60.089 167.299 58.6159 169.421 55.815L165.283 52.9393C163.975 54.566 162.147 55.3793 159.797 55.3793C157.9 55.3793 156.367 54.8066 155.198 53.6655C154.028 52.5244 153.448 51.0472 153.448 49.2421C153.448 47.4371 154.053 45.8644 155.267 44.6735C156.477 43.4867 158.067 42.8933 160.03 42.8933L160.026 42.8975Z" fill="#ADADAD"/>
<path d="M160.026 42.8975C161.105 42.8975 162.045 43.0676 162.846 43.4037C163.648 43.7398 164.461 44.3457 165.283 45.2171L169.649 42.7771C168.598 41.2294 167.246 40.0343 165.594 39.1961C163.942 38.3579 162.078 37.9388 160.001 37.9388C157.756 37.9388 155.733 38.4326 153.918 39.4202C152.103 40.4078 150.692 41.7688 149.678 43.4991C148.664 45.2295 148.157 47.1217 148.157 49.1757C148.157 52.1426 149.2 54.7278 151.281 56.9395C152.85 58.6076 154.87 59.645 157.347 60.0558L156.865 61.7197L157.94 61.6824C158.463 61.6824 158.852 61.7779 159.093 61.9729C159.338 62.1679 159.457 62.4335 159.457 62.7737C159.457 63.1887 159.298 63.5248 158.979 63.7779C158.66 64.031 158.173 64.1597 157.519 64.1597C156.636 64.1597 155.733 64.0103 154.809 63.7115L154.118 66.2262C155.708 66.8237 157.127 67.1225 158.386 67.1225C159.935 67.1225 161.146 66.7448 162.021 65.9938C162.892 65.2427 163.329 64.3381 163.329 63.2883C163.329 62.6119 163.084 61.9936 162.589 61.4293C162.094 60.865 161.42 60.4873 160.561 60.2923L160.573 60.2384C164.346 60.089 167.299 58.6159 169.421 55.815L165.283 52.9393C163.975 54.566 162.147 55.3793 159.797 55.3793C157.9 55.3793 156.367 54.8066 155.198 53.6655C154.028 52.5244 153.448 51.0472 153.448 49.2421C153.448 47.4371 154.053 45.8644 155.267 44.6735C156.477 43.4867 158.067 42.8933 160.03 42.8933L160.026 42.8975Z" fill="#ADADAD"/>
<path d="M187.094 40.8086C186.169 39.852 185.158 39.1345 184.062 38.6562C182.97 38.1779 181.801 37.9388 180.554 37.9388C177.847 37.9388 175.545 38.9779 173.653 41.0602C171.761 43.1425 170.811 45.8103 170.811 49.0677C170.811 52.3252 171.79 54.8363 173.746 56.9475C175.703 59.0587 178.021 60.1184 180.705 60.1184C181.898 60.1184 183.006 59.8998 184.03 59.471C185.053 59.038 186.072 58.3288 187.091 57.3475V59.5782H192.303V38.4872H187.091V40.8128L187.094 40.8086ZM185.706 53.5375C184.626 54.6961 183.271 55.2734 181.635 55.2734C179.998 55.2734 178.716 54.6838 177.632 53.5086C176.548 52.3335 176.004 50.8326 176.004 49.01C176.004 47.1875 176.536 45.7196 177.603 44.5609C178.671 43.4022 180.007 42.825 181.618 42.825C183.23 42.825 184.63 43.394 185.706 44.532C186.782 45.6701 187.323 47.1545 187.323 48.9894C187.323 50.8243 186.782 52.3788 185.706 53.5375Z" fill="#ADADAD"/>
<path d="M187.094 40.8086C186.169 39.852 185.158 39.1345 184.062 38.6562C182.97 38.1779 181.801 37.9388 180.554 37.9388C177.847 37.9388 175.545 38.9779 173.653 41.0602C171.761 43.1425 170.811 45.8103 170.811 49.0677C170.811 52.3252 171.79 54.8363 173.746 56.9475C175.703 59.0587 178.021 60.1184 180.705 60.1184C181.898 60.1184 183.006 59.8998 184.03 59.471C185.053 59.038 186.072 58.3288 187.091 57.3475V59.5782H192.303V38.4872H187.091V40.8128L187.094 40.8086ZM185.706 53.5375C184.626 54.6961 183.271 55.2734 181.635 55.2734C179.998 55.2734 178.716 54.6838 177.632 53.5086C176.548 52.3335 176.004 50.8326 176.004 49.01C176.004 47.1875 176.536 45.7196 177.603 44.5609C178.671 43.4022 180.007 42.825 181.618 42.825C183.23 42.825 184.63 43.394 185.706 44.532C186.782 45.6701 187.323 47.1545 187.323 48.9894C187.323 50.8243 186.782 52.3788 185.706 53.5375Z" fill="#ADADAD"/>
<path d="M200.436 30.9347H195.208V60.1184H200.436V30.9347Z" fill="#ADADAD"/>
<path d="M200.436 30.9347H195.208V60.1184H200.436V30.9347Z" fill="#ADADAD"/>
<path d="M219.445 39.1061L214.107 51.504L208.753 39.1061H203.34L212.372 60.1184H215.817L224.832 39.1061H219.445Z" fill="#ADADAD"/>
<path d="M219.445 39.1061L214.107 51.504L208.753 39.1061H203.34L212.372 60.1184H215.817L224.832 39.1061H219.445Z" fill="#ADADAD"/>
<path d="M235.426 37.9429C232.388 37.9429 229.867 39.0067 227.854 41.1303C225.841 43.2538 224.832 45.9299 224.832 49.1461C224.832 52.3623 225.84 54.9023 227.862 56.9887C229.883 59.0752 232.497 60.1184 235.706 60.1184C237.775 60.1184 239.564 59.739 241.069 58.9844C242.574 58.2299 243.867 57.063 244.948 55.4837L240.621 53.389C239.241 54.7704 237.591 55.4631 235.674 55.4631C234.069 55.4631 232.749 55.0219 231.712 54.1354C230.676 53.2488 230.039 52.0572 229.803 50.5604H246.304L246.324 49.5502C246.324 46.0618 245.316 43.2538 243.295 41.1261C241.274 38.9985 238.652 37.9388 235.43 37.9388L235.426 37.9429ZM230.027 46.3958C230.603 45.0887 231.232 44.1774 231.912 43.662C232.993 42.8373 234.25 42.4209 235.682 42.4209C237.003 42.4209 238.16 42.7879 239.16 43.5259C240.161 44.264 240.829 45.2206 241.169 46.3958H230.027Z" fill="#ADADAD"/>
<path d="M235.426 37.9429C232.388 37.9429 229.867 39.0067 227.854 41.1303C225.841 43.2538 224.832 45.9299 224.832 49.1461C224.832 52.3623 225.84 54.9023 227.862 56.9887C229.883 59.0752 232.497 60.1184 235.706 60.1184C237.775 60.1184 239.564 59.739 241.069 58.9844C242.574 58.2299 243.867 57.063 244.948 55.4837L240.621 53.389C239.241 54.7704 237.591 55.4631 235.674 55.4631C234.069 55.4631 232.749 55.0219 231.712 54.1354C230.676 53.2488 230.039 52.0572 229.803 50.5604H246.304L246.324 49.5502C246.324 46.0618 245.316 43.2538 243.295 41.1261C241.274 38.9985 238.652 37.9388 235.43 37.9388L235.426 37.9429ZM230.027 46.3958C230.603 45.0887 231.232 44.1774 231.912 43.662C232.993 42.8373 234.25 42.4209 235.682 42.4209C237.003 42.4209 238.16 42.7879 239.16 43.5259C240.161 44.264 240.829 45.2206 241.169 46.3958H230.027Z" fill="#ADADAD"/>
<path d="M257.189 46.7809L255.233 45.8117C254.384 45.3993 253.856 45.0735 253.639 44.8343C253.423 44.5951 253.315 44.3353 253.315 44.0507C253.315 43.6754 253.486 43.362 253.823 43.1104C254.16 42.8589 254.63 42.731 255.229 42.731C256.323 42.731 257.542 43.3909 258.886 44.7106L262.194 41.4319C261.345 40.306 260.313 39.4441 259.094 38.842C257.875 38.2398 256.573 37.9388 255.192 37.9388C253.17 37.9388 251.51 38.5285 250.216 39.7122C248.918 40.8958 248.269 42.3186 248.269 43.9889C248.269 46.5747 249.991 48.7275 253.431 50.4473L255.233 51.3381C256.785 52.1134 257.559 52.9094 257.559 53.7218C257.559 54.1631 257.342 54.5508 256.914 54.8848C256.485 55.223 255.915 55.388 255.212 55.388C254.559 55.388 253.814 55.1653 252.974 54.7199C252.133 54.2745 251.401 53.6888 250.773 52.9671L247.486 56.5139C249.338 58.9183 251.817 60.1184 254.921 60.1184C257.255 60.1184 259.115 59.4915 260.504 58.2378C261.894 56.984 262.589 55.421 262.589 53.5445C262.589 52.134 262.202 50.9092 261.436 49.8616C260.667 48.8141 259.252 47.7872 257.193 46.7768L257.189 46.7809Z" fill="#ADADAD"/>
<path d="M257.189 46.7809L255.233 45.8117C254.384 45.3993 253.856 45.0735 253.639 44.8343C253.423 44.5951 253.315 44.3353 253.315 44.0507C253.315 43.6754 253.486 43.362 253.823 43.1104C254.16 42.8589 254.63 42.731 255.229 42.731C256.323 42.731 257.542 43.3909 258.886 44.7106L262.194 41.4319C261.345 40.306 260.313 39.4441 259.094 38.842C257.875 38.2398 256.573 37.9388 255.192 37.9388C253.17 37.9388 251.51 38.5285 250.216 39.7122C248.918 40.8958 248.269 42.3186 248.269 43.9889C248.269 46.5747 249.991 48.7275 253.431 50.4473L255.233 51.3381C256.785 52.1134 257.559 52.9094 257.559 53.7218C257.559 54.1631 257.342 54.5508 256.914 54.8848C256.485 55.223 255.915 55.388 255.212 55.388C254.559 55.388 253.814 55.1653 252.974 54.7199C252.133 54.2745 251.401 53.6888 250.773 52.9671L247.486 56.5139C249.338 58.9183 251.817 60.1184 254.921 60.1184C257.255 60.1184 259.115 59.4915 260.504 58.2378C261.894 56.984 262.589 55.421 262.589 53.5445C262.589 52.134 262.202 50.9092 261.436 49.8616C260.667 48.8141 259.252 47.7872 257.193 46.7768L257.189 46.7809Z" fill="#ADADAD"/>
<path d="M32.5635 35.0812H48.5317C46.4539 42.308 40.2207 47.801 32.5635 48.8445V59.4197C38.8838 58.8691 44.6368 56.3671 49.2188 52.5298V59.5347H59.8643V24.5143H32.5674V35.0812H32.5635Z" fill="#ADADAD"/>
<path d="M32.5635 35.0812H48.5317C46.4539 42.308 40.2207 47.801 32.5635 48.8445V59.4197C38.8838 58.8691 44.6368 56.3671 49.2188 52.5298V59.5347H59.8643V24.5143H32.5674V35.0812H32.5635Z" fill="#ADADAD"/>
<path d="M0.615234 29.7673C0.615234 45.3777 12.3609 58.1929 27.3354 59.5347V48.9076C18.0979 47.6154 10.979 39.5398 10.979 29.7673C10.979 19.9949 18.0979 11.9193 27.3354 10.6271V0C12.3609 1.3418 0.615234 14.157 0.615234 29.7673Z" fill="#ADADAD"/>
<path d="M0.615234 29.7673C0.615234 45.3777 12.3609 58.1929 27.3354 59.5347V48.9076C18.0979 47.6154 10.979 39.5398 10.979 29.7673C10.979 19.9949 18.0979 11.9193 27.3354 10.6271V0C12.3609 1.3418 0.615234 14.157 0.615234 29.7673Z" fill="#ADADAD"/>
<path d="M43.9463 16.3429L51.1514 8.61879C46.3054 3.80458 39.8055 0.62794 32.5635 0V10.5642C37.0156 11.1675 40.9867 13.2729 43.9424 16.3429H43.9463Z" fill="#ADADAD"/>
<path d="M43.9463 16.3429L51.1514 8.61879C46.3054 3.80458 39.8055 0.62794 32.5635 0V10.5642C37.0156 11.1675 40.9867 13.2729 43.9424 16.3429H43.9463Z" fill="#ADADAD"/>
</svg>
