<svg width="202" height="123" viewBox="0 0 202 123" fill="none" xmlns="http://www.w3.org/2000/svg">
<g id="Vector">
<path d="M94.3802 54.0742C93.0742 54.0742 91.889 53.5462 91.033 52.6844C90.177 51.83 89.6466 50.6419 89.6466 49.3327C92.2585 49.3327 94.3802 51.4523 94.3802 54.0742Z" fill="#ADADAD"/>
<path d="M108.918 36.1791C108.918 38.6617 109.92 40.9059 111.544 42.5304C113.165 44.1549 115.407 45.1633 117.88 45.1633C117.88 40.2018 113.867 36.1791 108.918 36.1791Z" fill="#ADADAD"/>
<path d="M108.043 36.1791C106.8 36.1791 105.673 36.6851 104.861 37.4992C104.045 38.3169 103.544 39.4427 103.544 40.6895C106.031 40.6895 108.047 38.669 108.047 36.1754L108.043 36.1791Z" fill="#ADADAD"/>
<path d="M99.8528 30.9242C98.1042 32.677 97.2262 34.9763 97.2262 37.2755C97.2262 39.5747 98.1005 41.874 99.8528 43.6268C103.354 40.1175 103.354 34.4299 99.8528 30.9205V30.9242Z" fill="#ADADAD"/>
<path d="M99.2345 30.3045C98.3566 29.4244 97.2043 28.9843 96.052 28.9843C94.8996 28.9843 93.7473 29.4244 92.8694 30.3045C94.629 32.0683 97.4786 32.0683 99.2382 30.3045H99.2345Z" fill="#ADADAD"/>
<path d="M97.1494 20.7848C94.6728 20.7848 92.4341 21.7896 90.8135 23.4177C89.193 25.0422 88.187 27.2901 88.187 29.7691C93.1364 29.7691 97.1494 25.7463 97.1494 20.7848Z" fill="#ADADAD"/>
<path d="M97.1494 19.9084C97.1494 18.6616 96.6446 17.5321 95.8325 16.7181C95.0167 15.9003 93.8937 15.3979 92.6499 15.3979C92.6499 17.8915 94.6655 19.912 97.1531 19.912L97.1494 19.9084Z" fill="#ADADAD"/>
<path d="M102.388 11.6979C100.639 9.94502 98.3456 9.06493 96.052 9.06493C93.7583 9.06493 91.4647 9.94136 89.7161 11.6979C93.2169 15.2072 98.8907 15.2072 102.392 11.6979H102.388Z" fill="#ADADAD"/>
<path d="M103.006 11.0745C103.884 10.1944 104.323 9.03926 104.323 7.88415C104.323 6.72903 103.884 5.57391 103.006 4.69382C101.247 6.45767 101.247 9.31429 103.006 11.0781V11.0745Z" fill="#ADADAD"/>
<path d="M112.506 8.98426C112.506 6.50167 111.504 4.25744 109.88 2.63294C108.256 1.00477 106.017 0 103.54 0C103.54 4.96151 107.553 8.98426 112.503 8.98426H112.506Z" fill="#ADADAD"/>
<path d="M113.381 8.98426C114.624 8.98426 115.751 8.47821 116.563 7.66412C117.379 6.84637 117.88 5.72059 117.88 4.47379C115.393 4.47379 113.377 6.49434 113.377 8.98793L113.381 8.98426Z" fill="#ADADAD"/>
<path d="M121.571 14.2391C123.32 12.4863 124.198 10.187 124.198 7.88781C124.198 5.58858 123.323 3.28934 121.571 1.53649C118.07 5.04585 118.07 10.7334 121.571 14.2428V14.2391Z" fill="#ADADAD"/>
<path d="M122.189 14.8589C123.067 15.739 124.22 16.179 125.372 16.179C126.524 16.179 127.677 15.739 128.555 14.8589C126.795 13.095 123.945 13.095 122.186 14.8589H122.189Z" fill="#ADADAD"/>
<path d="M124.274 24.3785C126.751 24.3785 128.99 23.3737 130.61 21.7456C132.231 20.1211 133.237 17.8732 133.237 15.3943C128.287 15.3943 124.274 19.417 124.274 24.3785Z" fill="#ADADAD"/>
<path d="M124.274 25.2549C124.274 26.5017 124.779 27.6312 125.591 28.4453C126.407 29.263 127.53 29.7654 128.774 29.7654C128.774 27.2718 126.758 25.2513 124.271 25.2513L124.274 25.2549Z" fill="#ADADAD"/>
<path d="M119.036 33.4654C120.785 35.2183 123.078 36.0984 125.372 36.0984C127.666 36.0984 129.959 35.222 131.708 33.4654C128.207 29.9561 122.533 29.9561 119.032 33.4654H119.036Z" fill="#ADADAD"/>
<path d="M118.418 34.0852C117.54 34.9653 117.101 36.1204 117.101 37.2755C117.101 38.4306 117.54 39.5857 118.418 40.4658C120.177 38.702 120.177 35.8454 118.418 34.0815V34.0852Z" fill="#ADADAD"/>
<path d="M110.71 18.8413C111.588 17.9612 112.027 16.8061 112.027 15.6509C112.027 14.4958 111.588 13.3407 110.71 12.4606C108.951 14.2245 108.951 17.0811 110.71 18.8449V18.8413Z" fill="#ADADAD"/>
<path d="M110.71 32.7027C111.588 31.8226 112.027 30.6675 112.027 29.5124C112.027 28.3573 111.588 27.2021 110.71 26.322C108.951 28.0859 108.951 30.9425 110.71 32.7064V32.7027Z" fill="#ADADAD"/>
<path d="M114.441 22.5817C115.319 23.4617 116.472 23.9018 117.624 23.9018C118.776 23.9018 119.929 23.4617 120.807 22.5817C119.047 20.8178 116.197 20.8178 114.438 22.5817H114.441Z" fill="#ADADAD"/>
<path d="M100.617 22.5817C101.495 23.4617 102.648 23.9018 103.8 23.9018C104.952 23.9018 106.105 23.4617 106.982 22.5817C105.223 20.8178 102.373 20.8178 100.614 22.5817H100.617Z" fill="#ADADAD"/>
<path d="M113.348 19.9377C114.591 19.9377 115.718 19.4317 116.53 18.6176C117.346 17.7998 117.847 16.674 117.847 15.4273C115.36 15.4273 113.344 17.4478 113.344 19.9414L113.348 19.9377Z" fill="#ADADAD"/>
<path d="M103.573 29.7361C104.817 29.7361 105.944 29.23 106.756 28.4159C107.571 27.5982 108.073 26.4724 108.073 25.2256C105.585 25.2256 103.569 27.2461 103.569 29.7397L103.573 29.7361Z" fill="#ADADAD"/>
<path d="M113.348 25.2256C113.348 26.4724 113.852 27.6018 114.665 28.4159C115.48 29.2337 116.603 29.7361 117.847 29.7361C117.847 27.2425 115.832 25.2219 113.344 25.2219L113.348 25.2256Z" fill="#ADADAD"/>
<path d="M103.573 15.4236C103.573 16.6704 104.078 17.7998 104.89 18.6139C105.706 19.4317 106.829 19.9341 108.073 19.9341C108.073 17.4405 106.057 15.4199 103.569 15.4199L103.573 15.4236Z" fill="#ADADAD"/>
<path d="M110.71 23.7624C111.361 23.7624 111.888 23.2338 111.888 22.5817C111.888 21.9295 111.361 21.4009 110.71 21.4009C110.06 21.4009 109.532 21.9295 109.532 22.5817C109.532 23.2338 110.06 23.7624 110.71 23.7624Z" fill="#ADADAD"/>
<path d="M5.72525 79.1275C5.43626 78.5481 5.02654 78.1007 4.49977 77.7817C3.973 77.459 3.36575 77.3013 2.68168 77.3013H0.0185547V84.8627H2.67802C3.36941 84.8627 3.97666 84.7051 4.50343 84.397C5.0302 84.089 5.43991 83.6489 5.72525 83.0769C6.01424 82.5085 6.15691 81.8558 6.15691 81.1113C6.15691 80.3669 6.01058 79.6995 5.72159 79.1275H5.72525ZM4.98265 82.6405C4.77047 83.0769 4.46685 83.4106 4.07177 83.6453C3.67669 83.88 3.21577 83.9973 2.68168 83.9973H0.881875V78.163H2.68168C3.20479 78.163 3.66572 78.2804 4.05714 78.5261C4.45222 78.7644 4.7595 79.1091 4.97533 79.5565C5.19116 80.0002 5.29725 80.521 5.29725 81.1077C5.29725 81.6944 5.19116 82.2005 4.97899 82.6368L4.98265 82.6405Z" fill="#ADADAD"/>
<path d="M10.2174 79.0028C10.2174 79.0028 10.2394 79.0175 10.2467 79.0248L9.8626 79.8059C9.84065 79.7912 9.81505 79.7766 9.7931 79.7656C9.78944 79.7619 9.77846 79.7582 9.77115 79.7509C9.76749 79.7472 9.75652 79.7472 9.75286 79.7436C9.69433 79.7142 9.63946 79.6849 9.58093 79.6629C9.5224 79.6372 9.46752 79.6189 9.40899 79.6042C9.35778 79.5859 9.30291 79.5749 9.25169 79.5675C9.23706 79.5638 9.22609 79.5602 9.20779 79.5602C9.13463 79.5455 9.05781 79.5419 8.97733 79.5419C8.69566 79.5419 8.43227 79.6115 8.17986 79.7509C7.92745 79.8866 7.72625 80.0699 7.56895 80.2899C7.41531 80.5136 7.33849 80.752 7.33849 81.005V84.8627H6.47517V78.7021H7.33849V78.8745C7.33849 78.9478 7.31654 79.0138 7.27264 79.0761C7.26898 79.0798 7.26532 79.0908 7.25435 79.0945C7.25069 79.1018 7.24703 79.1128 7.2324 79.1201C7.20679 79.1568 7.17021 79.1898 7.12632 79.2265C7.08973 79.2522 7.05681 79.2852 7.01291 79.3182L6.88488 79.4208C6.88488 79.4208 6.88122 79.4245 6.88122 79.4282C6.85561 79.4539 6.84098 79.4869 6.84098 79.5162C6.84098 79.5895 6.90317 79.6409 6.96901 79.6409C6.98365 79.6409 6.99462 79.6409 7.0056 79.6335H7.00925C7.00925 79.6335 7.03852 79.6262 7.04949 79.6115L7.21045 79.4612C7.23972 79.4208 7.26167 79.3878 7.28362 79.3548C7.28727 79.3512 7.29093 79.3402 7.30191 79.3365C7.44091 79.1422 7.48115 79.1275 7.79575 78.9661C8.08109 78.8194 8.39935 78.7204 8.7176 78.6911C8.8054 78.6838 8.88954 78.6764 8.97367 78.6764C9.30656 78.6764 9.62482 78.7388 9.92113 78.8561C10.0236 78.8965 10.1187 78.9441 10.2101 78.9955L10.2174 79.0028Z" fill="#ADADAD"/>
<path d="M14.9035 79.6849C14.7023 79.3658 14.406 79.1201 14.0292 78.9441C13.6451 78.7681 13.1988 78.6801 12.6794 78.6801C12.244 78.6801 11.838 78.7534 11.4649 78.9001C11.0917 79.0505 10.7954 79.2485 10.5796 79.5015C10.3638 79.7582 10.254 80.0296 10.254 80.3266V80.499H11.1173V80.3266C11.1173 80.1946 11.1905 80.0699 11.3332 79.9526C11.4795 79.8352 11.6734 79.7362 11.9112 79.6629C12.1526 79.5895 12.4087 79.5492 12.6794 79.5492C13.2208 79.5492 13.6341 79.6629 13.9195 79.8829C14.2048 80.1066 14.3511 80.4073 14.3511 80.7923V81.104L12.9171 81.4817C11.9697 81.7237 11.2893 82.0024 10.8759 82.3105C10.4625 82.6222 10.254 83.0035 10.254 83.4583C10.254 83.913 10.415 84.265 10.7332 84.5437C11.0552 84.8224 11.4575 84.9617 11.9477 84.9617C12.1672 84.9617 12.4013 84.9251 12.6391 84.8664C12.961 84.7711 13.2756 84.6207 13.5793 84.4117C13.8829 84.199 14.1426 83.9606 14.3475 83.6893L14.6035 83.3189C14.6292 83.2786 14.6694 83.2676 14.706 83.2676C14.7718 83.2676 14.834 83.3116 14.834 83.3923C14.834 83.4179 14.8304 83.4399 14.8121 83.4619L14.6767 83.671C14.6548 83.6966 14.6145 83.7516 14.5633 83.8213C14.5121 83.891 14.4609 83.9716 14.417 84.056C14.3731 84.1367 14.3511 84.2137 14.3511 84.287V84.8737H15.2145V80.7997C15.2145 80.3816 15.112 80.0149 14.9072 79.6959L14.9035 79.6849ZM14.3475 82.4498C13.9743 82.9155 13.6524 83.2639 13.3854 83.4949C13.1183 83.7186 12.844 83.88 12.5733 83.9753C12.3648 84.045 12.1636 84.0817 11.9697 84.0817C11.7173 84.0817 11.5124 84.0303 11.3551 83.913C11.1978 83.803 11.1173 83.6489 11.1173 83.4546C11.1173 83.2382 11.2564 83.0476 11.5344 82.8825C11.8087 82.7212 12.2697 82.5488 12.9171 82.3765L14.3511 81.9988V82.4535L14.3475 82.4498Z" fill="#ADADAD"/>
<path d="M16.3887 84.1697C16.4729 84.254 16.5168 84.3603 16.5168 84.4814C16.5168 84.595 16.4729 84.6977 16.3887 84.7821C16.3082 84.8701 16.2022 84.9141 16.0851 84.9141C15.968 84.9141 15.8546 84.8701 15.7742 84.7894C15.6864 84.7051 15.6425 84.606 15.6425 84.4814C15.6425 84.3567 15.6864 84.2503 15.7742 84.1697C15.8583 84.0817 15.9644 84.0377 16.0851 84.0377C16.2058 84.0377 16.3082 84.0817 16.3887 84.1697Z" fill="#ADADAD"/>
<path d="M42.0615 84.8627H20.4127V51.8337H42.0615V55.6071H24.1769V68.042C24.1769 68.3684 24.4403 68.6324 24.7659 68.6324C25.0914 68.6324 25.3512 68.3684 25.3512 68.042V67.778C25.3512 67.3379 25.4792 67.0886 25.7279 66.8392C25.9804 66.5862 26.3206 66.4615 26.7632 66.4615H34.3904V70.2349H24.1769V81.0893H42.0615V84.8627Z" fill="#ADADAD"/>
<path d="M47.706 51.8337H43.9418V84.8627H47.706V51.8337Z" fill="#ADADAD"/>
<path d="M53.3578 57.965H49.59V84.8627H53.3578V57.965Z" fill="#ADADAD"/>
<path d="M50.574 90.0919H54.565V122.63H50.852V100.928L43.437 122.63H39.4021L31.9321 100.785V122.63H28.2228V90.0919H32.2138L40.9275 115.842C41.0811 116.308 41.1616 116.696 41.1616 117.004C41.1616 117.129 41.1324 117.345 41.0702 117.653L40.9531 118.138C40.869 118.46 41.1104 118.768 41.4396 118.768C41.725 118.768 41.9445 118.534 41.9445 118.262C41.9445 118.222 41.9408 118.178 41.9298 118.138L41.8128 117.653C41.7469 117.345 41.7213 117.129 41.7213 117.004C41.7213 116.696 41.7945 116.308 41.9518 115.842L50.5777 90.0919H50.574Z" fill="#ADADAD"/>
<path d="M73.035 78.02C73.0972 77.2976 72.5082 76.5569 71.2681 75.8015C70.028 75.0461 68.5318 74.276 66.7722 73.4912L65.3163 72.8788C63.5275 72.1858 61.9947 71.5037 60.7253 70.8253C59.456 70.1505 58.3512 69.2851 57.4074 68.2327C56.4673 67.1803 56.0575 65.9445 56.1856 64.529C56.31 63.2052 56.8294 62.0207 57.7366 60.9646C58.6439 59.9122 59.862 59.0907 61.3838 58.5077C62.9056 57.9246 64.5774 57.6349 66.3991 57.6349C69.4134 57.6349 71.8168 58.3573 73.6203 59.8058C75.4237 61.258 76.5943 63.3482 77.1321 66.0838L73.88 67.3086C73.0972 63.3739 70.6169 61.4083 66.443 61.4083C64.6578 61.4083 63.1251 61.7567 61.8557 62.4498C60.5863 63.1428 59.9498 63.9899 59.9498 64.9984C59.9498 65.7208 60.3851 66.3478 61.2667 66.8869C62.1447 67.4186 63.4653 68.0347 65.2212 68.7241L67.1051 69.5272L68.5647 70.1872C70.2877 70.9096 71.7107 71.577 72.8228 72.1931C73.9385 72.8055 74.8823 73.5829 75.6469 74.5253C76.4151 75.4678 76.8028 76.5715 76.8028 77.8293C76.8028 79.2815 76.3748 80.5686 75.5335 81.7017C74.6848 82.8349 73.5215 83.7076 72.0509 84.32C70.573 84.9324 68.9086 85.2368 67.0612 85.2368C66.743 85.2368 66.2125 85.2074 65.459 85.1451C62.7593 84.8921 60.5315 84.078 58.7719 82.6918C57.0123 81.3057 55.8564 79.5309 55.2893 77.3563L59.0536 75.8968C59.5547 77.7193 60.4217 79.0981 61.6435 80.0222C62.8654 80.95 64.5774 81.4157 66.7722 81.4157C68.433 81.4157 69.8743 81.093 71.0779 80.4439C72.2887 79.7985 72.9399 78.9881 73.035 78.0127V78.02Z" fill="#ADADAD"/>
<path d="M72.5301 117.774C71.0925 118.655 69.5561 119.098 67.9172 119.098C65.6931 119.098 63.8311 118.332 62.3313 116.795C60.8314 115.266 59.9608 113.242 59.7084 110.734C60.7912 111.632 62.0313 112.311 63.4214 112.78C64.8115 113.242 66.2491 113.477 67.7307 113.477C69.6183 113.477 71.4071 113.128 73.1118 112.432C74.8092 111.731 76.1773 110.734 77.2162 109.432C78.2515 108.126 78.7673 106.627 78.7673 104.921C78.7673 103.345 78.2698 101.863 77.2857 100.481C76.2944 99.1055 74.9665 98.0018 73.2947 97.184C71.6266 96.3626 69.8341 95.9556 67.9136 95.9556C65.6565 95.9556 63.6153 96.5423 61.7935 97.7194C59.9681 98.8965 58.5378 100.51 57.5062 102.556C56.4673 104.599 55.9551 106.876 55.9551 109.388C55.9551 111.9 56.4709 114.177 57.5062 116.223C58.5414 118.266 59.9681 119.879 61.7935 121.056C63.6153 122.234 65.6565 122.82 67.9136 122.82C70.017 122.82 71.9741 122.325 73.7812 121.335C75.5883 120.341 77.0626 118.952 78.2076 117.151L75.8883 114.225C75.0872 115.714 73.9678 116.902 72.5265 117.782L72.5301 117.774ZM62.7922 101.595C64.2298 100.312 65.9382 99.6703 67.9172 99.6703C69.2451 99.6703 70.4523 99.905 71.5315 100.367C72.6143 100.829 73.4703 101.46 74.1105 102.248C74.7397 103.037 75.0616 103.928 75.0616 104.921C75.0616 106.407 74.4177 107.558 73.1337 108.361C71.8497 109.168 70.2511 109.568 68.3343 109.568C66.8527 109.568 65.3639 109.322 63.8823 108.827C62.4008 108.328 61.0838 107.62 59.9425 106.689C60.4071 104.58 61.3582 102.883 62.7922 101.595Z" fill="#ADADAD"/>
<path d="M91.033 52.6844C90.177 51.83 89.6466 50.6419 89.6466 49.3327C92.2585 49.3327 94.3802 51.4523 94.3802 54.0742C93.0742 54.0742 91.889 53.5462 91.033 52.6844Z" fill="#ADADAD"/>
<path d="M99.3187 62.2591C98.4261 60.8729 97.1457 59.7985 95.4813 59.0284C93.8205 58.2583 91.8561 57.8733 89.5954 57.8733C87.6821 57.8733 85.9079 58.196 84.2764 58.8377C82.6449 59.4831 81.3609 60.3559 80.4171 61.456C79.4769 62.5598 79.005 63.7516 79.005 65.0424V65.8014H82.7693V65.0424C82.7693 64.4776 83.0802 63.9349 83.7094 63.4142C84.335 62.8935 85.1727 62.4718 86.2262 62.1417C87.2761 61.8117 88.3991 61.6467 89.5917 61.6467C91.9439 61.6467 93.751 62.1344 95.0057 63.1098C96.2605 64.0853 96.8897 65.4017 96.8897 67.0702V68.4417L90.6306 70.0919C86.4859 71.1627 83.5155 72.3765 81.7121 73.7259C79.9086 75.0791 79.0087 76.7476 79.0087 78.7314C79.0087 80.7153 79.7037 82.2628 81.1012 83.4729C82.4949 84.6867 84.2581 85.2881 86.3981 85.2881C87.3712 85.2881 88.3735 85.1488 89.4124 84.8664C90.8245 84.4557 92.1963 83.7956 93.5278 82.8825C94.8594 81.9731 95.9825 80.9207 96.8933 79.7215L98.0091 78.108C98.1225 77.9394 98.2908 77.8697 98.459 77.8697C98.7407 77.8697 99.0151 78.0824 99.0151 78.4197C99.0151 78.5297 98.9785 78.6398 98.9199 78.7278L98.3091 79.6262C98.2176 79.7545 98.0493 79.9746 97.8152 80.2863C97.5774 80.598 97.3653 80.939 97.1787 81.302C96.9958 81.6651 96.897 82.0024 96.897 82.3178V84.8664H100.661V67.0739C100.661 65.2514 100.219 63.6489 99.3187 62.2627V62.2591ZM96.8933 74.3347C95.2618 76.3809 93.8571 77.899 92.6792 78.8891C91.5049 79.8829 90.316 80.5833 89.1235 80.9867C88.2126 81.3057 87.3383 81.4597 86.4896 81.4597C85.3885 81.4597 84.4959 81.2177 83.8082 80.7336C83.1168 80.2459 82.7729 79.5749 82.7729 78.7278C82.7729 77.7853 83.3765 76.9493 84.5837 76.2232C85.7872 75.5044 87.8065 74.7637 90.6306 74.0083L96.8897 72.3545V74.3347H96.8933Z" fill="#ADADAD"/>
<path d="M100.072 101.133C101.012 102.699 101.484 104.408 101.484 106.271V122.63H97.775V106.271C97.775 105.094 97.464 104.008 96.8458 103.018C96.2239 102.024 95.3862 101.236 94.318 100.646C93.2535 100.059 92.1195 99.7656 90.9123 99.7656C89.7051 99.7656 88.5638 100.063 87.4809 100.646C86.3981 101.236 85.5238 102.014 84.8581 102.971C84.1923 103.931 83.8594 104.954 83.8594 106.04V122.633H80.15V96.1426H83.8594V96.8833C83.8594 97.195 83.7679 97.4847 83.5814 97.7487C83.3948 98.0091 83.0253 98.3575 82.4693 98.7938L81.9242 99.2375C81.7999 99.3402 81.7304 99.4906 81.7304 99.6483C81.7304 99.96 81.9901 100.173 82.2571 100.173C82.3742 100.173 82.4986 100.132 82.6046 100.037L83.3143 99.3916C84.3057 98.0274 84.2398 98.1008 85.8311 97.2793C87.0712 96.6413 88.4211 96.2159 89.8112 96.0986C92.156 95.8895 94.2887 96.3333 96.2202 97.4224C97.8445 98.3355 99.1248 99.5749 100.069 101.141L100.072 101.133Z" fill="#ADADAD"/>
<path d="M102.545 84.8627V57.965H106.309V58.7204C106.309 59.0394 106.218 59.3291 106.028 59.5931C105.837 59.8608 105.464 60.2165 104.897 60.6566L104.341 61.1113C104.217 61.214 104.144 61.3643 104.144 61.5257C104.144 61.8484 104.407 62.0647 104.682 62.0647C104.806 62.0647 104.934 62.0207 105.036 61.9254L105.753 61.2726C106.759 59.8865 106.693 59.9598 108.31 59.1311C109.569 58.4784 110.941 58.0493 112.349 57.9283C114.727 57.7193 116.896 58.1667 118.853 59.2704C120.503 60.2019 121.805 61.456 122.76 63.0438C123.718 64.6353 124.198 66.3735 124.198 68.2584V84.8664H120.433V68.2584C120.433 67.0629 120.115 65.9628 119.493 64.9544C118.864 63.9496 118.012 63.1465 116.925 62.5451C115.842 61.951 114.69 61.6503 113.468 61.6503C112.247 61.6503 111.083 61.951 109.986 62.5451C108.885 63.1465 108.003 63.9313 107.326 64.903C106.653 65.8785 106.313 66.9162 106.313 68.02V84.8627H102.545Z" fill="#ADADAD"/>
<path d="M119.453 117.774C118.015 118.655 116.475 119.098 114.84 119.098C112.616 119.098 110.754 118.332 109.254 116.795C107.754 115.266 106.88 113.242 106.631 110.734C107.714 111.632 108.951 112.311 110.341 112.78C111.734 113.242 113.172 113.477 114.657 113.477C116.541 113.477 118.334 113.128 120.038 112.432C121.736 111.731 123.104 110.734 124.143 109.432C125.178 108.126 125.694 106.627 125.694 104.921C125.694 103.345 125.196 101.863 124.209 100.481C123.217 99.1055 121.889 98.0018 120.225 97.184C118.553 96.3626 116.764 95.9556 114.844 95.9556C112.587 95.9556 110.546 96.5423 108.724 97.7194C106.898 98.8965 105.468 100.51 104.429 102.556C103.394 104.599 102.878 106.876 102.878 109.388C102.878 111.9 103.398 114.177 104.429 116.223C105.468 118.266 106.898 119.879 108.724 121.056C110.546 122.234 112.587 122.82 114.844 122.82C116.947 122.82 118.901 122.325 120.708 121.335C122.519 120.341 123.993 118.952 125.138 117.151L122.819 114.225C122.014 115.714 120.898 116.902 119.457 117.782L119.453 117.774ZM109.715 101.595C111.153 100.312 112.861 99.6703 114.84 99.6703C116.168 99.6703 117.375 99.905 118.454 100.367C119.537 100.829 120.393 101.46 121.026 102.248C121.659 103.037 121.977 103.928 121.977 104.921C121.977 106.407 121.333 107.558 120.057 108.361C118.773 109.168 117.174 109.568 115.257 109.568C113.776 109.568 112.287 109.322 110.805 108.827C109.324 108.328 108.007 107.62 106.865 106.689C107.326 104.58 108.277 102.883 109.715 101.595Z" fill="#ADADAD"/>
<path d="M143.966 57.965V60.6052C143.026 59.7288 141.969 59.0357 140.791 58.5334C139.617 58.0273 138.399 57.7743 137.144 57.7743C135.165 57.7743 133.332 58.3243 131.638 59.4281C129.941 60.5319 128.595 62.017 127.589 63.8872C126.586 65.7611 126.085 67.8 126.085 70.0002C126.085 72.2004 126.586 74.199 127.589 76.0838C128.595 77.9724 129.941 79.4759 131.638 80.5906C133.332 81.7091 135.165 82.2665 137.144 82.2665C138.962 82.2665 140.732 81.8741 142.225 80.7593C143.791 79.5895 143.249 80.2019 144.573 78.6618L145.155 77.8623C145.269 77.7083 145.429 77.6387 145.587 77.6387C145.865 77.6387 146.136 77.8513 146.136 78.1851C146.136 78.3207 146.084 78.4527 145.986 78.5554L145.378 79.2045C144.972 79.6445 144.636 80.1176 144.365 80.62C144.102 81.1223 143.966 81.5477 143.966 81.8924V83.1649C143.966 84.1697 143.663 85.1121 143.052 85.9959C142.441 86.8723 141.603 87.5653 140.557 88.0714C139.5 88.5738 138.366 88.8268 137.144 88.8268C135.574 88.8268 134.239 88.4381 133.142 87.6717C132.041 86.9016 131.496 85.9665 131.496 84.8627H127.728C127.728 86.3076 128.137 87.624 128.953 88.8011C129.765 89.9819 130.896 90.9097 132.341 91.5881C133.782 92.2628 135.384 92.6039 137.144 92.6039C139.086 92.6039 140.868 92.1858 142.485 91.3534C144.043 90.5503 145.283 89.4649 146.209 88.1008C147.237 86.5899 147.73 84.7747 147.73 82.9449V57.9723H143.966V57.965ZM142.134 76.2012C140.912 77.7267 139.247 78.4894 137.144 78.4894C135.732 78.4894 134.466 78.1264 133.354 77.404C132.242 76.6816 131.379 75.6768 130.768 74.3823C130.157 73.0952 129.85 71.632 129.85 69.9965C129.85 68.361 130.157 66.9052 130.768 65.6328C131.379 64.3603 132.242 63.3629 133.354 62.6405C134.466 61.9144 135.732 61.5513 137.144 61.5513C139.181 61.5513 140.831 62.3324 142.082 63.8872C143.341 65.4421 143.966 67.4809 143.966 70.0002C143.966 72.5195 143.355 74.6794 142.134 76.2049V76.2012Z" fill="#ADADAD"/>
<path d="M135.425 118.911H148.872V122.63H126.616L141.826 99.8573L142.741 98.4931C142.964 98.1631 142.726 97.7157 142.331 97.7157C142.159 97.7157 142.002 97.8037 141.914 97.9504L141.592 98.4601C141.53 98.5518 141.417 98.7462 141.245 99.0432C141.073 99.3402 140.89 99.5456 140.689 99.6703C140.487 99.7949 140.25 99.8573 139.968 99.8573H126.616V96.1389H148.78L133.573 118.911L132.655 120.275C132.436 120.605 132.67 121.053 133.069 121.053C133.237 121.053 133.394 120.965 133.486 120.818L133.804 120.308C133.866 120.217 133.983 120.022 134.151 119.729C134.323 119.432 134.506 119.223 134.711 119.098C134.912 118.974 135.15 118.915 135.428 118.915L135.425 118.911Z" fill="#ADADAD"/>
<path d="M164.057 117.774C162.619 118.655 161.079 119.098 159.444 119.098C157.22 119.098 155.354 118.332 153.858 116.795C152.358 115.266 151.484 113.242 151.235 110.734C152.318 111.632 153.554 112.311 154.944 112.78C156.338 113.242 157.772 113.477 159.261 113.477C161.145 113.477 162.937 113.128 164.635 112.432C166.336 111.731 167.704 110.734 168.739 109.432C169.778 108.126 170.29 106.627 170.29 104.921C170.29 103.345 169.796 101.863 168.809 100.481C167.817 99.1055 166.489 98.0018 164.825 97.184C163.153 96.3626 161.357 95.9556 159.444 95.9556C157.187 95.9556 155.146 96.5423 153.32 97.7194C151.498 98.8965 150.068 100.51 149.033 102.556C147.998 104.599 147.482 106.876 147.482 109.388C147.482 111.9 148.001 114.177 149.033 116.223C150.072 118.266 151.502 119.879 153.32 121.056C155.146 122.234 157.187 122.82 159.444 122.82C161.547 122.82 163.501 122.325 165.308 121.335C167.115 120.341 168.593 118.952 169.738 117.151L167.419 114.225C166.614 115.714 165.491 116.902 164.057 117.782V117.774ZM154.319 101.595C155.756 100.312 157.465 99.6703 159.444 99.6703C160.772 99.6703 161.979 99.905 163.058 100.367C164.141 100.829 164.997 101.46 165.63 102.248C166.263 103.037 166.581 103.928 166.581 104.921C166.581 106.407 165.937 107.558 164.66 108.361C163.376 109.168 161.774 109.568 159.861 109.568C158.376 109.568 156.89 109.322 155.409 108.827C153.924 108.328 152.61 107.62 151.469 106.689C151.93 104.58 152.881 102.883 154.319 101.595Z" fill="#ADADAD"/>
<path d="M165.97 79.9342C164.51 80.829 162.948 81.28 161.284 81.28C159.027 81.28 157.136 80.499 155.614 78.9441C154.092 77.3893 153.203 75.3321 152.954 72.7835C154.055 73.6966 155.306 74.3897 156.719 74.859C158.131 75.3284 159.59 75.5704 161.101 75.5704C163.014 75.5704 164.836 75.2147 166.559 74.507C168.282 73.7956 169.672 72.7835 170.726 71.4634C171.775 70.1395 172.299 68.6141 172.299 66.8869C172.299 65.2807 171.797 63.7772 170.795 62.3801C169.793 60.9793 168.443 59.8608 166.749 59.0284C165.055 58.196 163.234 57.7779 161.288 57.7779C158.998 57.7779 156.927 58.3793 155.076 59.5711C153.225 60.7666 151.773 62.4021 150.723 64.4776C149.673 66.5532 149.143 68.8634 149.143 71.412C149.143 73.9606 149.669 76.2708 150.723 78.3464C151.773 80.4219 153.225 82.0574 155.076 83.2529C156.927 84.4484 158.994 85.0461 161.288 85.0461C163.42 85.0461 165.41 84.5437 167.243 83.5353C169.076 82.5305 170.576 81.115 171.739 79.2888L169.387 76.3185C168.567 77.8257 167.433 79.0285 165.974 79.9306L165.97 79.9342ZM156.086 63.5132C157.545 62.2077 159.279 61.5513 161.284 61.5513C162.634 61.5513 163.856 61.7897 164.957 62.2627C166.058 62.7358 166.928 63.3702 167.569 64.1733C168.212 64.9764 168.531 65.8784 168.531 66.8905C168.531 68.3977 167.879 69.5638 166.577 70.3816C165.275 71.1957 163.651 71.6064 161.708 71.6064C160.201 71.6064 158.694 71.3533 157.187 70.851C155.683 70.3486 154.348 69.6225 153.188 68.6764C153.66 66.5385 154.622 64.8187 156.082 63.5132H156.086Z" fill="#ADADAD"/>
<path d="M177.482 51.8337H173.714V84.8627H177.482V51.8337Z" fill="#ADADAD"/>
<path d="M176.271 103.059C176.271 103.774 176.707 104.393 177.57 104.918C178.437 105.446 179.736 106.051 181.466 106.729L183.317 107.518L184.754 108.17C186.456 108.886 187.857 109.542 188.95 110.147C190.051 110.752 190.973 111.518 191.734 112.45C192.491 113.381 192.868 114.463 192.868 115.703C192.868 117.125 192.451 118.398 191.613 119.513C190.783 120.627 189.638 121.489 188.182 122.091C186.73 122.696 185.091 123 183.269 123C182.962 123 182.435 122.971 181.696 122.908C179.037 122.655 176.842 121.856 175.112 120.488C173.378 119.124 172.236 117.375 171.68 115.237L175.39 113.799C175.883 115.593 176.736 116.953 177.939 117.866C179.143 118.779 180.829 119.238 182.995 119.238C184.63 119.238 186.046 118.919 187.235 118.284C188.427 117.65 189.067 116.85 189.163 115.89C189.225 115.175 188.643 114.448 187.421 113.704C186.203 112.963 184.725 112.204 182.995 111.43L181.557 110.825C179.794 110.143 178.291 109.472 177.036 108.801C175.788 108.134 174.695 107.283 173.769 106.249C172.84 105.207 172.441 103.99 172.566 102.597C172.69 101.295 173.198 100.129 174.095 99.0872C174.987 98.0494 176.187 97.2427 177.687 96.6706C179.183 96.0986 180.833 95.8125 182.622 95.8125C185.592 95.8125 187.963 96.5276 189.737 97.9504C191.515 99.3732 192.667 101.434 193.194 104.133L189.993 105.34C189.225 101.467 186.777 99.5272 182.669 99.5272C180.906 99.5272 179.403 99.872 178.148 100.55C176.893 101.232 176.271 102.072 176.271 103.059Z" fill="#ADADAD"/>
<path d="M199.672 62.2591C198.78 60.8729 197.499 59.7985 195.839 59.0284C194.174 58.2583 192.213 57.8733 189.953 57.8733C188.039 57.8733 186.265 58.196 184.634 58.8377C183.002 59.4831 181.718 60.3559 180.774 61.456C179.827 62.5598 179.362 63.7516 179.362 65.0424V65.8014H183.127V65.0424C183.127 64.4776 183.438 63.9349 184.067 63.4142C184.692 62.8935 185.53 62.4718 186.584 62.1417C187.633 61.8117 188.756 61.6467 189.949 61.6467C192.301 61.6467 194.105 62.1344 195.363 63.1098C196.618 64.0853 197.247 65.4017 197.247 67.0702V68.4417L190.988 70.0919C186.843 71.1627 183.873 72.3765 182.069 73.7259C180.262 75.0791 179.366 76.7476 179.366 78.7314C179.366 80.7153 180.061 82.2628 181.458 83.4729C182.852 84.6867 184.615 85.2881 186.755 85.2881C187.729 85.2881 188.731 85.1488 189.77 84.8664C191.182 84.4557 192.554 83.7956 193.885 82.8825C195.217 81.9731 196.34 80.9207 197.251 79.7215L198.366 78.108C198.48 77.9394 198.648 77.8697 198.816 77.8697C199.098 77.8697 199.372 78.0824 199.372 78.4197C199.372 78.5297 199.336 78.6398 199.277 78.7278L198.666 79.6262C198.575 79.7545 198.407 79.9746 198.173 80.2863C197.935 80.598 197.723 80.939 197.536 81.302C197.346 81.6651 197.254 82.0024 197.254 82.3178V84.8664H201.019V67.0739C201.019 65.2514 200.569 63.6489 199.676 62.2627L199.672 62.2591ZM197.247 74.3347C195.615 76.3809 194.211 77.899 193.033 78.8891C191.859 79.8829 190.67 80.5833 189.477 80.9867C188.566 81.3057 187.692 81.4597 186.843 81.4597C185.742 81.4597 184.85 81.2177 184.162 80.7336C183.47 80.2459 183.127 79.5749 183.127 78.7278C183.127 77.7853 183.73 76.9493 184.937 76.2232C186.141 75.5044 188.16 74.7637 190.984 74.0083L197.243 72.3545V74.3347H197.247Z" fill="#ADADAD"/>
<path d="M88.2638 52.6844C87.4078 53.5425 86.2262 54.0742 84.9203 54.0742C84.9203 51.456 87.0347 49.3327 89.6502 49.3327C89.6502 50.6419 89.1235 51.83 88.2638 52.6844Z" fill="#ADADAD"/>
<path d="M50.1826 53.9679C49.9704 53.9679 49.7546 53.8835 49.59 53.7222C49.9192 53.3922 50.4533 53.3922 50.7789 53.7222C50.6179 53.8835 50.4021 53.9679 50.1862 53.9679H50.1826Z" fill="#ADADAD"/>
<path d="M50.9837 54.2136C50.9837 54.4483 50.8886 54.6536 50.7386 54.8076C50.585 54.958 50.3765 55.0533 50.146 55.0533C50.146 54.5876 50.5191 54.2099 50.9874 54.2099L50.9837 54.2136Z" fill="#ADADAD"/>
<path d="M50.3911 52.9778C50.2375 52.8274 50.146 52.6148 50.146 52.3837C50.6069 52.3837 50.9874 52.7614 50.9874 53.2271C50.7533 53.2271 50.5447 53.1355 50.3948 52.9815L50.3911 52.9778Z" fill="#ADADAD"/>
<path d="M51.4776 55.6071C51.1483 55.2807 51.1483 54.749 51.4776 54.4153C51.6385 54.5766 51.719 54.793 51.719 55.0093C51.719 55.2257 51.6385 55.442 51.4776 55.6034V55.6071Z" fill="#ADADAD"/>
<path d="M52.2129 54.8076C52.0629 54.6536 51.9678 54.4446 51.9678 54.2136C52.4323 54.2136 52.8091 54.5876 52.8091 55.057C52.575 55.057 52.3702 54.9617 52.2165 54.8113L52.2129 54.8076Z" fill="#ADADAD"/>
<path d="M52.5604 52.9778C52.4104 53.1318 52.1982 53.2235 51.9678 53.2235C51.9678 52.7614 52.3445 52.3801 52.8091 52.3801C52.8091 52.6148 52.7177 52.8238 52.564 52.9741L52.5604 52.9778Z" fill="#ADADAD"/>
<path d="M53.3615 53.7185C53.1932 53.8799 52.9774 53.9642 52.7689 53.9642C52.5604 53.9642 52.3372 53.8799 52.1763 53.7185C52.5018 53.3885 53.0323 53.3885 53.3652 53.7185H53.3615Z" fill="#ADADAD"/>
<path d="M51.4776 53.4985C51.5946 53.4985 51.6934 53.5939 51.6934 53.7185C51.6934 53.8432 51.5983 53.9386 51.4776 53.9386C51.3568 53.9386 51.2581 53.8432 51.2581 53.7185C51.2581 53.5939 51.3532 53.4985 51.4776 53.4985Z" fill="#ADADAD"/>
<path d="M51.4776 53.0218C51.1483 52.6918 51.1483 52.1637 51.4776 51.83C51.6385 51.9914 51.719 52.2077 51.719 52.4241C51.719 52.6404 51.6385 52.8568 51.4776 53.0181V53.0218Z" fill="#ADADAD"/>
</g>
</svg>
