<svg width="259" height="133" viewBox="0 0 259 133" fill="none" xmlns="http://www.w3.org/2000/svg">
<path d="M111.645 78.462H124.064V70.6218H111.645V63.9513H124.85V56.0327H102.196V92.2204H111.645V78.462Z" fill="#ADADAD"/>
<path d="M111.645 78.462H124.064V70.6218H111.645V63.9513H124.85V56.0327H102.196V92.2204H111.645V78.462Z" fill="#ADADAD"/>
<path d="M159.117 92.2204L148.488 56.0327H135.771L125.431 92.2204H135.307L137.318 83.8296H146.534L148.809 92.2204H159.121H159.117ZM138.584 76.6748L140.119 70.206C140.636 68.1517 141.165 65.1716 141.69 63.0387H141.796C142.349 65.1716 143.025 68.1269 143.566 70.1647L145.22 76.6748H138.584Z" fill="#ADADAD"/>
<path d="M159.117 92.2204L148.488 56.0327H135.771L125.431 92.2204H135.307L137.318 83.8296H146.534L148.809 92.2204H159.121H159.117ZM138.584 76.6748L140.119 70.206C140.636 68.1517 141.165 65.1716 141.69 63.0387H141.796C142.349 65.1716 143.025 68.1269 143.566 70.1647L145.22 76.6748H138.584Z" fill="#ADADAD"/>
<path d="M179.981 83.9486C181.01 88.3695 181.938 91.1787 182.479 92.2204H192.231C191.543 90.8343 190.368 85.6136 189.298 81.9637C188.386 78.8469 187.105 76.5544 184.741 75.5291V75.3445C187.516 74.3193 190.844 71.1369 190.844 66.6626C190.844 63.148 189.615 60.5889 187.328 58.8296C184.647 56.7914 180.733 56.0327 175.278 56.0327C170.51 56.0327 166.466 56.3771 163.768 56.8037V92.2163H173.215V78.7525H174.761C177.706 78.7525 179.017 79.6466 179.981 83.9486ZM173.215 71.8545V63.3571C173.691 63.2382 174.643 63.1439 176.437 63.1439C179.606 63.1726 181.364 64.7023 181.364 67.3926C181.364 70.0829 179.29 71.8545 175.697 71.8545H173.211H173.215Z" fill="#ADADAD"/>
<path d="M179.981 83.9486C181.01 88.3695 181.938 91.1787 182.479 92.2204H192.231C191.543 90.8343 190.368 85.6136 189.298 81.9637C188.386 78.8469 187.105 76.5544 184.741 75.5291V75.3445C187.516 74.3193 190.844 71.1369 190.844 66.6626C190.844 63.148 189.615 60.5889 187.328 58.8296C184.647 56.7914 180.733 56.0327 175.278 56.0327C170.51 56.0327 166.466 56.3771 163.768 56.8037V92.2163H173.215V78.7525H174.761C177.706 78.7525 179.017 79.6466 179.981 83.9486ZM173.215 71.8545V63.3571C173.691 63.2382 174.643 63.1439 176.437 63.1439C179.606 63.1726 181.364 64.7023 181.364 67.3926C181.364 70.0829 179.29 71.8545 175.697 71.8545H173.211H173.215Z" fill="#ADADAD"/>
<path d="M212.486 55.449C201.436 55.449 194.555 63.8066 194.555 74.3414C194.555 84.8761 200.698 92.8041 211.884 92.8041C223.07 92.8041 229.988 85.3967 229.988 73.7671C229.988 64.0792 224.088 55.4531 212.486 55.4531V55.449ZM212.353 85.1282C207.739 85.1282 204.781 80.9679 204.781 74.1678C204.781 67.3678 207.739 63.1249 212.3 63.1249C216.861 63.1249 219.766 67.847 219.766 74.0728C219.766 80.2987 217.05 85.1282 212.353 85.1282Z" fill="#ADADAD"/>
<path d="M212.486 55.449C201.436 55.449 194.555 63.8066 194.555 74.3414C194.555 84.8761 200.698 92.8041 211.884 92.8041C223.07 92.8041 229.988 85.3967 229.988 73.7671C229.988 64.0792 224.088 55.4531 212.486 55.4531V55.449ZM212.353 85.1282C207.739 85.1282 204.781 80.9679 204.781 74.1678C204.781 67.3678 207.739 63.1249 212.3 63.1249C216.861 63.1249 219.766 67.847 219.766 74.0728C219.766 80.2987 217.05 85.1282 212.353 85.1282Z" fill="#ADADAD"/>
<path d="M258.451 84.0993H244.748V56.0327H235.216V92.2204H258.451V84.0993Z" fill="#ADADAD"/>
<path d="M258.451 84.0993H244.748V56.0327H235.216V92.2204H258.451V84.0993Z" fill="#ADADAD"/>
<path d="M106.182 99.3156C105.733 98.878 105.027 98.6408 104.069 98.6408C103.283 98.6408 102.667 98.7144 102.196 98.8044V106.812H103.168V103.561C103.393 103.626 103.658 103.634 103.954 103.634C104.904 103.634 105.737 103.34 106.258 102.747C106.641 102.326 106.843 101.745 106.843 101.013C106.843 100.281 106.588 99.7042 106.182 99.3156ZM103.974 102.8C103.655 102.8 103.385 102.776 103.168 102.71V99.5569C103.339 99.516 103.658 99.4751 104.088 99.4751C105.155 99.4751 105.866 99.9986 105.866 101.074C105.866 102.15 105.152 102.804 103.974 102.804V102.8Z" fill="#ADADAD"/>
<path d="M106.182 99.3156C105.733 98.878 105.027 98.6408 104.069 98.6408C103.283 98.6408 102.667 98.7144 102.196 98.8044V106.812H103.168V103.561C103.393 103.626 103.658 103.634 103.954 103.634C104.904 103.634 105.737 103.34 106.258 102.747C106.641 102.326 106.843 101.745 106.843 101.013C106.843 100.281 106.588 99.7042 106.182 99.3156ZM103.974 102.8C103.655 102.8 103.385 102.776 103.168 102.71V99.5569C103.339 99.516 103.658 99.4751 104.088 99.4751C105.155 99.4751 105.866 99.9986 105.866 101.074C105.866 102.15 105.152 102.804 103.974 102.804V102.8Z" fill="#ADADAD"/>
<path d="M113.755 102.943V102.915C114.593 102.62 115.268 101.913 115.268 100.849C115.268 100.215 115.033 99.6633 114.641 99.3075C114.139 98.8535 113.415 98.6408 112.319 98.6408C111.607 98.6408 110.854 98.7103 110.328 98.8167V106.812H111.364V103.299H112.343C113.281 103.332 113.715 103.761 113.953 104.87C114.172 105.884 114.354 106.575 114.479 106.812H115.556C115.394 106.497 115.204 105.72 114.941 104.587C114.747 103.749 114.374 103.164 113.763 102.947L113.755 102.943ZM112.415 102.502H111.356V99.5406C111.53 99.4956 111.878 99.4465 112.379 99.4465C113.472 99.4465 114.224 99.9046 114.224 100.96C114.224 101.888 113.52 102.498 112.411 102.498L112.415 102.502Z" fill="#ADADAD"/>
<path d="M113.755 102.943V102.915C114.593 102.62 115.268 101.913 115.268 100.849C115.268 100.215 115.033 99.6633 114.641 99.3075C114.139 98.8535 113.415 98.6408 112.319 98.6408C111.607 98.6408 110.854 98.7103 110.328 98.8167V106.812H111.364V103.299H112.343C113.281 103.332 113.715 103.761 113.953 104.87C114.172 105.884 114.354 106.575 114.479 106.812H115.556C115.394 106.497 115.204 105.72 114.941 104.587C114.747 103.749 114.374 103.164 113.763 102.947L113.755 102.943ZM112.415 102.502H111.356V99.5406C111.53 99.4956 111.878 99.4465 112.379 99.4465C113.472 99.4465 114.224 99.9046 114.224 100.96C114.224 101.888 113.52 102.498 112.411 102.498L112.415 102.502Z" fill="#ADADAD"/>
<path d="M121.707 98.6408C119.502 98.6408 117.879 100.289 117.879 102.796C117.879 105.303 119.402 106.812 121.595 106.812C123.788 106.812 125.431 105.363 125.431 102.649C125.431 100.297 123.963 98.6408 121.707 98.6408ZM121.653 105.982C119.969 105.982 119.009 104.465 119.009 102.772C119.009 101.08 119.893 99.4711 121.665 99.4711C123.438 99.4711 124.301 101.116 124.301 102.693C124.301 104.489 123.35 105.982 121.653 105.982Z" fill="#ADADAD"/>
<path d="M121.707 98.6408C119.502 98.6408 117.879 100.289 117.879 102.796C117.879 105.303 119.402 106.812 121.595 106.812C123.788 106.812 125.431 105.363 125.431 102.649C125.431 100.297 123.963 98.6408 121.707 98.6408ZM121.653 105.982C119.969 105.982 119.009 104.465 119.009 102.772C119.009 101.08 119.893 99.4711 121.665 99.4711C123.438 99.4711 124.301 101.116 124.301 102.693C124.301 104.489 123.35 105.982 121.653 105.982Z" fill="#ADADAD"/>
<path d="M127.173 99.5313H129.563V106.812H130.584V99.5313H132.982V98.6408H127.173V99.5313Z" fill="#ADADAD"/>
<path d="M127.173 99.5313H129.563V106.812H130.584V99.5313H132.982V98.6408H127.173V99.5313Z" fill="#ADADAD"/>
<path d="M136.379 102.982H139.574V102.108H136.379V99.519H139.766V98.6408H135.306V106.812H139.953V105.934H136.379V102.982Z" fill="#ADADAD"/>
<path d="M136.379 102.982H139.574V102.108H136.379V99.519H139.766V98.6408H135.306V106.812H139.953V105.934H136.379V102.982Z" fill="#ADADAD"/>
<path d="M142.857 98.6408H143.691L145.181 96.8898H143.937L142.857 98.6408Z" fill="#ADADAD"/>
<path d="M142.857 98.6408H143.691L145.181 96.8898H143.937L142.857 98.6408Z" fill="#ADADAD"/>
<path d="M144.018 98.6408H143.438V106.812H144.018V98.6408Z" fill="#ADADAD"/>
<path d="M144.018 98.6408H143.438V106.812H144.018V98.6408Z" fill="#ADADAD"/>
<path d="M152.86 102.067C152.86 103.333 152.882 104.33 152.98 105.423L152.954 105.435C152.551 104.59 152.058 103.732 151.436 102.772L148.713 98.6408H147.504V106.812H148.537V103.316C148.537 101.964 148.52 100.978 148.455 99.9436L148.494 99.9313C148.919 100.822 149.49 101.754 150.077 102.669L152.779 106.812H153.893V98.6408H152.86V102.067Z" fill="#ADADAD"/>
<path d="M152.86 102.067C152.86 103.333 152.882 104.33 152.98 105.423L152.954 105.435C152.551 104.59 152.058 103.732 151.436 102.772L148.713 98.6408H147.504V106.812H148.537V103.316C148.537 101.964 148.52 100.978 148.455 99.9436L148.494 99.9313C148.919 100.822 149.49 101.754 150.077 102.669L152.779 106.812H153.893V98.6408H152.86V102.067Z" fill="#ADADAD"/>
<path d="M159.63 98.6408L156.798 106.812H157.911L158.773 104.244H161.726L162.617 106.812H163.768L160.924 98.6408H159.63ZM158.991 103.419L159.81 101.053C159.974 100.554 160.105 100.055 160.223 99.5767H160.251C160.373 100.047 160.499 100.533 160.68 101.069L161.504 103.419H158.987H158.991Z" fill="#ADADAD"/>
<path d="M159.63 98.6408L156.798 106.812H157.911L158.773 104.244H161.726L162.617 106.812H163.768L160.924 98.6408H159.63ZM158.991 103.419L159.81 101.053C159.974 100.554 160.105 100.055 160.223 99.5767H160.251C160.373 100.047 160.499 100.533 160.68 101.069L161.504 103.419H158.987H158.991Z" fill="#ADADAD"/>
<path d="M168.783 102.193C167.722 101.77 167.257 101.406 167.257 100.671C167.257 100.131 167.656 99.4879 168.709 99.4879C169.399 99.4879 169.914 99.7157 170.158 99.8635L170.432 99.0244C170.099 98.8286 169.519 98.6408 168.741 98.6408C167.246 98.6408 166.25 99.5559 166.25 100.791C166.25 101.897 167.029 102.581 168.28 103.036C169.314 103.436 169.732 103.867 169.732 104.603C169.732 105.406 169.136 105.953 168.121 105.953C167.439 105.953 166.793 105.725 166.351 105.442L166.092 106.297C166.502 106.58 167.312 106.812 168.051 106.812C169.871 106.812 170.739 105.741 170.739 104.527C170.739 103.312 170.084 102.721 168.779 102.193H168.783Z" fill="#ADADAD"/>
<path d="M168.783 102.193C167.722 101.77 167.257 101.406 167.257 100.671C167.257 100.131 167.656 99.4879 168.709 99.4879C169.399 99.4879 169.914 99.7157 170.158 99.8635L170.432 99.0244C170.099 98.8286 169.519 98.6408 168.741 98.6408C167.246 98.6408 166.25 99.5559 166.25 100.791C166.25 101.897 167.029 102.581 168.28 103.036C169.314 103.436 169.732 103.867 169.732 104.603C169.732 105.406 169.136 105.953 168.121 105.953C167.439 105.953 166.793 105.725 166.351 105.442L166.092 106.297C166.502 106.58 167.312 106.812 168.051 106.812C169.871 106.812 170.739 105.741 170.739 104.527C170.739 103.312 170.084 102.721 168.779 102.193H168.783Z" fill="#ADADAD"/>
<path d="M179.359 102.982H182.558V102.108H179.359V99.519H182.745V98.6408H178.29V106.812H182.937V105.934H179.359V102.982Z" fill="#ADADAD"/>
<path d="M179.359 102.982H182.558V102.108H179.359V99.519H182.745V98.6408H178.29V106.812H182.937V105.934H179.359V102.982Z" fill="#ADADAD"/>
<path d="M193.499 103.357H195.218V105.745C194.965 105.867 194.477 105.96 193.761 105.96C191.773 105.96 190.483 104.759 190.483 102.727C190.483 100.694 191.833 99.5097 193.893 99.5097C194.75 99.5097 195.316 99.6592 195.77 99.8532L196.044 99.0086C195.68 98.8429 194.9 98.6408 193.919 98.6408C191.074 98.6408 189.331 100.391 189.327 102.779C189.327 104.024 189.777 105.091 190.509 105.753C191.336 106.505 192.399 106.812 193.684 106.812C194.828 106.812 195.805 106.546 196.297 106.372V102.529H193.499V103.357Z" fill="#ADADAD"/>
<path d="M193.499 103.357H195.218V105.745C194.965 105.867 194.477 105.96 193.761 105.96C191.773 105.96 190.483 104.759 190.483 102.727C190.483 100.694 191.833 99.5097 193.893 99.5097C194.75 99.5097 195.316 99.6592 195.77 99.8532L196.044 99.0086C195.68 98.8429 194.9 98.6408 193.919 98.6408C191.074 98.6408 189.331 100.391 189.327 102.779C189.327 104.024 189.777 105.091 190.509 105.753C191.336 106.505 192.399 106.812 193.684 106.812C194.828 106.812 195.805 106.546 196.297 106.372V102.529H193.499V103.357Z" fill="#ADADAD"/>
<path d="M202.735 98.6408C200.699 98.6408 199.202 100.289 199.202 102.796C199.202 105.303 200.606 106.812 202.631 106.812C204.655 106.812 206.172 105.363 206.172 102.649C206.172 100.297 204.817 98.6408 202.735 98.6408ZM202.684 105.982C201.13 105.982 200.245 104.465 200.245 102.772C200.245 101.08 201.06 99.4711 202.696 99.4711C204.332 99.4711 205.129 101.116 205.129 102.693C205.129 104.489 204.251 105.982 202.684 105.982Z" fill="#ADADAD"/>
<path d="M202.735 98.6408C200.699 98.6408 199.202 100.289 199.202 102.796C199.202 105.303 200.606 106.812 202.631 106.812C204.655 106.812 206.172 105.363 206.172 102.649C206.172 100.297 204.817 98.6408 202.735 98.6408ZM202.684 105.982C201.13 105.982 200.245 104.465 200.245 102.772C200.245 101.08 201.06 99.4711 202.696 99.4711C204.332 99.4711 205.129 101.116 205.129 102.693C205.129 104.489 204.251 105.982 202.684 105.982Z" fill="#ADADAD"/>
<path d="M213.084 102.943V102.915C213.922 102.62 214.598 101.913 214.598 100.849C214.598 100.215 214.363 99.6633 213.971 99.3075C213.469 98.8535 212.744 98.6408 211.648 98.6408C210.936 98.6408 210.183 98.7103 209.657 98.8167V106.812H210.693V103.299H211.672C212.611 103.332 213.044 103.761 213.283 104.87C213.501 105.884 213.683 106.575 213.808 106.812H214.885C214.723 106.497 214.533 105.72 214.27 104.587C214.076 103.749 213.704 103.164 213.093 102.947L213.084 102.943ZM211.745 102.502H210.685V99.5406C210.859 99.4956 211.207 99.4465 211.709 99.4465C212.801 99.4465 213.554 99.9046 213.554 100.96C213.554 101.888 212.85 102.498 211.741 102.498L211.745 102.502Z" fill="#ADADAD"/>
<path d="M213.084 102.943V102.915C213.922 102.62 214.598 101.913 214.598 100.849C214.598 100.215 214.363 99.6633 213.971 99.3075C213.469 98.8535 212.744 98.6408 211.648 98.6408C210.936 98.6408 210.183 98.7103 209.657 98.8167V106.812H210.693V103.299H211.672C212.611 103.332 213.044 103.761 213.283 104.87C213.501 105.884 213.683 106.575 213.808 106.812H214.885C214.723 106.497 214.533 105.72 214.27 104.587C214.076 103.749 213.704 103.164 213.093 102.947L213.084 102.943ZM211.745 102.502H210.685V99.5406C210.859 99.4956 211.207 99.4465 211.709 99.4465C212.801 99.4465 213.554 99.9046 213.554 100.96C213.554 101.888 212.85 102.498 211.741 102.498L211.745 102.502Z" fill="#ADADAD"/>
<path d="M219.927 98.6408C219.134 98.6408 218.405 98.7097 217.789 98.8151V106.723C218.299 106.784 218.895 106.812 219.617 106.812C221.123 106.812 222.324 106.403 223.061 105.653C223.783 104.911 224.179 103.845 224.179 102.528C224.179 101.211 223.775 100.303 223.077 99.6541C222.398 98.9975 221.366 98.6449 219.927 98.6449V98.6408ZM219.809 105.973C219.425 105.973 219.052 105.965 218.801 105.925V99.5771C219.068 99.5204 219.46 99.4717 219.978 99.4717C222.096 99.4717 223.135 100.667 223.123 102.568C223.123 104.741 221.962 105.981 219.813 105.973H219.809Z" fill="#ADADAD"/>
<path d="M219.927 98.6408C219.134 98.6408 218.405 98.7097 217.789 98.8151V106.723C218.299 106.784 218.895 106.812 219.617 106.812C221.123 106.812 222.324 106.403 223.061 105.653C223.783 104.911 224.179 103.845 224.179 102.528C224.179 101.211 223.775 100.303 223.077 99.6541C222.398 98.9975 221.366 98.6449 219.927 98.6449V98.6408ZM219.809 105.973C219.425 105.973 219.052 105.965 218.801 105.925V99.5771C219.068 99.5204 219.46 99.4717 219.978 99.4717C222.096 99.4717 223.135 100.667 223.123 102.568C223.123 104.741 221.962 105.981 219.813 105.973H219.809Z" fill="#ADADAD"/>
<path d="M232.349 103.406C232.349 105.174 231.517 105.961 230.239 105.961C229.07 105.961 228.208 105.198 228.208 103.406V98.6408H227.083V103.377C227.083 105.875 228.422 106.812 230.19 106.812C232.072 106.812 233.473 105.802 233.473 103.333V98.6408H232.349V103.406Z" fill="#ADADAD"/>
<path d="M232.349 103.406C232.349 105.174 231.517 105.961 230.239 105.961C229.07 105.961 228.208 105.198 228.208 103.406V98.6408H227.083V103.377C227.083 105.875 228.422 106.812 230.19 106.812C232.072 106.812 233.473 105.802 233.473 103.333V98.6408H232.349V103.406Z" fill="#ADADAD"/>
<path d="M240.389 102.943V102.915C241.227 102.62 241.903 101.913 241.903 100.849C241.903 100.215 241.668 99.6633 241.271 99.3075C240.77 98.8535 240.046 98.6408 238.949 98.6408C238.237 98.6408 237.484 98.7103 236.958 98.8167V106.812H237.994V103.299H238.973C239.912 103.332 240.345 103.761 240.584 104.87C240.802 105.884 240.984 106.575 241.11 106.812H242.186C242.024 106.497 241.834 105.72 241.571 104.587C241.376 103.749 241.004 103.164 240.393 102.947L240.389 102.943ZM239.05 102.502H237.99V99.5406C238.164 99.4956 238.512 99.4465 239.014 99.4465C240.106 99.4465 240.859 99.9046 240.859 100.96C240.859 101.888 240.154 102.498 239.046 102.498L239.05 102.502Z" fill="#ADADAD"/>
<path d="M240.389 102.943V102.915C241.227 102.62 241.903 101.913 241.903 100.849C241.903 100.215 241.668 99.6633 241.271 99.3075C240.77 98.8535 240.046 98.6408 238.949 98.6408C238.237 98.6408 237.484 98.7103 236.958 98.8167V106.812H237.994V103.299H238.973C239.912 103.332 240.345 103.761 240.584 104.87C240.802 105.884 240.984 106.575 241.11 106.812H242.186C242.024 106.497 241.834 105.72 241.571 104.587C241.376 103.749 241.004 103.164 240.393 102.947L240.389 102.943ZM239.05 102.502H237.99V99.5406C238.164 99.4956 238.512 99.4465 239.014 99.4465C240.106 99.4465 240.859 99.9046 240.859 100.96C240.859 101.888 240.154 102.498 239.046 102.498L239.05 102.502Z" fill="#ADADAD"/>
<path d="M247.103 98.6408L244.51 106.812H245.533L246.323 104.244H249.028L249.844 106.812H250.899L248.293 98.6408H247.103ZM246.519 103.419L247.269 101.053C247.42 100.554 247.539 100.055 247.646 99.5767H247.673C247.785 100.047 247.9 100.533 248.066 101.069L248.82 103.419H246.515H246.519Z" fill="#ADADAD"/>
<path d="M247.103 98.6408L244.51 106.812H245.533L246.323 104.244H249.028L249.844 106.812H250.899L248.293 98.6408H247.103ZM246.519 103.419L247.269 101.053C247.42 100.554 247.539 100.055 247.646 99.5767H247.673C247.785 100.047 247.9 100.533 248.066 101.069L248.82 103.419H246.515H246.519Z" fill="#ADADAD"/>
<path d="M256.495 102.193C255.434 101.77 254.97 101.406 254.97 100.671C254.97 100.131 255.368 99.4879 256.422 99.4879C257.111 99.4879 257.626 99.7157 257.87 99.8635L258.144 99.0244C257.811 98.8286 257.23 98.6408 256.452 98.6408C254.957 98.6408 253.962 99.5559 253.962 100.791C253.962 101.897 254.741 102.581 255.992 103.036C257.026 103.436 257.444 103.867 257.444 104.603C257.444 105.406 256.847 105.953 255.833 105.953C255.151 105.953 254.504 105.725 254.063 105.442L253.804 106.297C254.214 106.58 255.023 106.812 255.763 106.812C257.583 106.812 258.451 105.741 258.451 104.527C258.451 103.312 257.796 102.721 256.491 102.193H256.495Z" fill="#ADADAD"/>
<path d="M256.495 102.193C255.434 101.77 254.97 101.406 254.97 100.671C254.97 100.131 255.368 99.4879 256.422 99.4879C257.111 99.4879 257.626 99.7157 257.87 99.8635L258.144 99.0244C257.811 98.8286 257.23 98.6408 256.452 98.6408C254.957 98.6408 253.962 99.5559 253.962 100.791C253.962 101.897 254.741 102.581 255.992 103.036C257.026 103.436 257.444 103.867 257.444 104.603C257.444 105.406 256.847 105.953 255.833 105.953C255.151 105.953 254.504 105.725 254.063 105.442L253.804 106.297C254.214 106.58 255.023 106.812 255.763 106.812C257.583 106.812 258.451 105.741 258.451 104.527C258.451 103.312 257.796 102.721 256.491 102.193H256.495Z" fill="#ADADAD"/>
<path d="M27.7524 32.1171H31.5145V44.686H23.397C22.4318 44.686 21.7727 45.6718 22.1367 46.5711L23.5151 50.0072C23.7237 50.5269 24.2228 50.8652 24.7749 50.8652H31.5145L30.2098 69.6297C30.1362 70.7105 30.2143 71.7953 30.4637 72.8513C31.2244 76.0853 32.9951 81.9263 34.766 87.5445C37.1053 94.9571 39.4486 101.986 39.4813 102.143C41.6857 100.975 43.7919 99.4946 45.7714 97.7044L46.1561 97.3579C48.3932 95.3366 50.7036 93.2411 52.7362 91.026C55.325 88.1963 57.8238 85.1727 60.2367 82.2439L61.3124 80.9404C62.1589 79.9133 62.985 78.8367 63.7948 77.7601L61.9296 50.8693H68.6698C69.2219 50.8693 69.721 50.5311 69.9296 50.0113L71.308 46.5752C71.672 45.6718 71.0134 44.6901 70.0482 44.6901H61.9296V32.1213H65.6962C66.1828 32.1213 66.58 31.7253 66.58 31.2303V28.8831C66.58 28.3923 66.1828 27.9921 65.6962 27.9921H62.9974C62.0282 20.1629 55.6682 14.0291 47.7792 13.4969V1.188C47.7792 0.598123 47.358 0.0618748 46.7772 0.00412498C46.7363 0.00412498 46.6998 0 46.663 0C46.0454 0 45.5463 0.503248 45.5463 1.12612V13.4969C37.6572 14.0291 31.3023 20.167 30.329 27.9921H27.748C27.2614 27.9921 26.8652 28.3923 26.8652 28.8831V31.2303C26.8652 31.7211 27.2614 32.1213 27.748 32.1213L27.7524 32.1171ZM52.536 37.0382C52.536 36.2875 53.1369 35.6811 53.8812 35.6811H54.9242C55.6685 35.6811 56.2694 36.2875 56.2694 37.0382V39.769C56.2694 40.5197 55.6685 41.1261 54.9242 41.1261H53.8812C53.1369 41.1261 52.536 40.5197 52.536 39.769V37.0382ZM44.8553 37.0382C44.8553 36.2875 45.4562 35.6811 46.2006 35.6811H47.2435C47.9879 35.6811 48.5892 36.2875 48.5892 37.0382V39.769C48.5892 40.5197 47.9879 41.1261 47.2435 41.1261H46.2006C45.4562 41.1261 44.8553 40.5197 44.8553 39.769V37.0382ZM37.1708 37.0382C37.1708 36.2875 37.7717 35.6811 38.516 35.6811H39.5594C40.3038 35.6811 40.9047 36.2875 40.9047 37.0382V39.769C40.9047 40.5197 40.3038 41.1261 39.5594 41.1261H38.516C37.7717 41.1261 37.1708 40.5197 37.1708 39.769V37.0382Z" fill="#ADADAD"/>
<path d="M27.7524 32.1171H31.5145V44.686H23.397C22.4318 44.686 21.7727 45.6718 22.1367 46.5711L23.5151 50.0072C23.7237 50.5269 24.2228 50.8652 24.7749 50.8652H31.5145L30.2098 69.6297C30.1362 70.7105 30.2143 71.7953 30.4637 72.8513C31.2244 76.0853 32.9951 81.9263 34.766 87.5445C37.1053 94.9571 39.4486 101.986 39.4813 102.143C41.6857 100.975 43.7919 99.4946 45.7714 97.7044L46.1561 97.3579C48.3932 95.3366 50.7036 93.2411 52.7362 91.026C55.325 88.1963 57.8238 85.1727 60.2367 82.2439L61.3124 80.9404C62.1589 79.9133 62.985 78.8367 63.7948 77.7601L61.9296 50.8693H68.6698C69.2219 50.8693 69.721 50.5311 69.9296 50.0113L71.308 46.5752C71.672 45.6718 71.0134 44.6901 70.0482 44.6901H61.9296V32.1213H65.6962C66.1828 32.1213 66.58 31.7253 66.58 31.2303V28.8831C66.58 28.3923 66.1828 27.9921 65.6962 27.9921H62.9974C62.0282 20.1629 55.6682 14.0291 47.7792 13.4969V1.188C47.7792 0.598123 47.358 0.0618748 46.7772 0.00412498C46.7363 0.00412498 46.6998 0 46.663 0C46.0454 0 45.5463 0.503248 45.5463 1.12612V13.4969C37.6572 14.0291 31.3023 20.167 30.329 27.9921H27.748C27.2614 27.9921 26.8652 28.3923 26.8652 28.8831V31.2303C26.8652 31.7211 27.2614 32.1213 27.748 32.1213L27.7524 32.1171ZM52.536 37.0382C52.536 36.2875 53.1369 35.6811 53.8812 35.6811H54.9242C55.6685 35.6811 56.2694 36.2875 56.2694 37.0382V39.769C56.2694 40.5197 55.6685 41.1261 54.9242 41.1261H53.8812C53.1369 41.1261 52.536 40.5197 52.536 39.769V37.0382ZM44.8553 37.0382C44.8553 36.2875 45.4562 35.6811 46.2006 35.6811H47.2435C47.9879 35.6811 48.5892 36.2875 48.5892 37.0382V39.769C48.5892 40.5197 47.9879 41.1261 47.2435 41.1261H46.2006C45.4562 41.1261 44.8553 40.5197 44.8553 39.769V37.0382ZM37.1708 37.0382C37.1708 36.2875 37.7717 35.6811 38.516 35.6811H39.5594C40.3038 35.6811 40.9047 36.2875 40.9047 37.0382V39.769C40.9047 40.5197 40.3038 41.1261 39.5594 41.1261H38.516C37.7717 41.1261 37.1708 40.5197 37.1708 39.769V37.0382Z" fill="#ADADAD"/>
<path d="M92.5746 63.7213C91.4949 61.5528 89.992 59.6771 88.8055 58.2836C87.3194 56.5398 85.5374 54.9773 83.4149 53.5386C80.886 51.568 78.0001 49.8159 74.806 48.3359L73.8085 50.6445C82.6311 54.7341 91.2276 62.2248 92.139 71.9953C92.2663 75.3387 91.7329 78.7315 90.5424 82.0791C90.4028 82.4748 90.2628 82.8747 90.1273 83.2705L90.099 83.3571C89.5407 84.9772 88.9619 86.6551 88.1654 88.2052C86.6833 91.0869 85.0206 93.9479 83.2142 96.7142C81.8512 98.8043 80.3076 100.754 78.4027 103.034C76.6415 105.149 74.7817 107.14 73.0287 108.995C71.1812 110.949 69.2022 113.027 67.1044 115.006C65.0599 116.935 62.9372 118.753 60.5765 120.757C59.6323 121.557 58.6225 122.303 57.6454 123.024L56.7958 123.651C56.3934 123.952 56.0277 124.146 55.6747 124.249C55.416 124.327 55.0794 124.335 54.829 124.278L53.6097 123.989C53.8889 123.383 54.2546 122.81 54.661 122.266C57.0996 118.997 59.6447 115.81 62.1039 112.557C65.651 107.862 68.8862 102.98 71.3905 97.6459C72.8356 94.5704 73.8948 91.429 73.8373 88.7535C73.8783 83.5755 72.0143 80.1332 68.3153 77.6349C67.8883 77.3464 67.6337 77.3793 67.3011 77.8534C66.3446 79.2098 65.3925 80.5661 64.3251 81.84C61.0448 85.7605 57.8382 89.7594 54.3773 93.5233C52.1645 95.9268 49.7054 98.1241 47.2709 100.317C44.3314 102.968 41.0304 105.091 37.2821 106.509C32.955 108.146 28.8785 107.598 25.0029 105.215C22.5807 103.727 20.6103 101.764 18.9106 99.5257C16.2216 95.9927 13.9229 92.2164 12.0303 88.2258C9.85029 83.6415 7.87138 78.9624 5.80224 74.3245C5.19464 72.9682 4.7879 71.5129 3.94629 70.2679C3.90523 70.2102 3.81515 69.9917 3.70019 69.7073C3.4826 69.1548 3.38013 68.5612 3.42529 67.9716C4.44754 54.4414 14.4068 43.1414 27.8603 40.6555C28.3941 40.5566 28.9404 40.47 29.4823 40.3999L29.1665 37.9388C28.5835 38.013 27.992 38.1078 27.4131 38.215C12.5555 40.9606 1.63483 53.6334 0.90817 68.6725C0.579736 69.3939 0.464785 70.272 0.596159 71.2532C0.879433 73.4011 1.17144 75.3923 1.49167 77.3422C2.26759 82.0708 3.2692 86.3995 4.5542 90.5798C5.38349 93.2759 6.27415 96.1411 7.27588 98.9362C7.87527 100.606 8.56958 102.222 9.23877 103.788C9.47278 104.337 9.70642 104.885 9.94043 105.433C11.9234 110.158 14.0579 114.161 16.4678 117.673C19.2225 121.689 21.8828 124.649 24.8428 126.986C29.5312 130.692 34.4168 132.494 39.7826 132.494C40.4682 132.494 41.1701 132.461 41.868 132.403C46.6344 131.983 50.6418 130.074 53.9261 128.26C54.5173 127.934 57.6368 126.145 58.2772 125.667L59.1195 125.044C60.1294 124.298 61.1721 123.531 62.182 122.674C64.5714 120.646 66.7183 118.807 68.808 116.836C70.9551 114.812 72.9628 112.706 74.8348 110.727C76.6166 108.843 78.5055 106.819 80.3119 104.65C82.2702 102.3 83.8671 100.284 85.2958 98.0952C87.1473 95.2548 88.8588 92.3195 90.3778 89.3595C91.2564 87.6528 91.8643 85.8883 92.4554 84.1692L92.4799 84.095C92.6153 83.7034 92.747 83.3158 92.8866 82.9283C93.3957 81.5019 93.7896 80.0672 94.077 78.6285H94.1019C94.496 76.9135 94.6683 75.1903 94.6395 73.4794C94.6477 72.9105 94.6476 72.3457 94.6229 71.7768C94.4998 68.9157 93.8101 66.2072 92.5785 63.7295L92.5746 63.7213Z" fill="#ADADAD"/>
<path d="M92.5746 63.7213C91.4949 61.5528 89.992 59.6771 88.8055 58.2836C87.3194 56.5398 85.5374 54.9773 83.4149 53.5386C80.886 51.568 78.0001 49.8159 74.806 48.3359L73.8085 50.6445C82.6311 54.7341 91.2276 62.2248 92.139 71.9953C92.2663 75.3387 91.7329 78.7315 90.5424 82.0791C90.4028 82.4748 90.2628 82.8747 90.1273 83.2705L90.099 83.3571C89.5407 84.9772 88.9619 86.6551 88.1654 88.2052C86.6833 91.0869 85.0206 93.9479 83.2142 96.7142C81.8512 98.8043 80.3076 100.754 78.4027 103.034C76.6415 105.149 74.7817 107.14 73.0287 108.995C71.1812 110.949 69.2022 113.027 67.1044 115.006C65.0599 116.935 62.9372 118.753 60.5765 120.757C59.6323 121.557 58.6225 122.303 57.6454 123.024L56.7958 123.651C56.3934 123.952 56.0277 124.146 55.6747 124.249C55.416 124.327 55.0794 124.335 54.829 124.278L53.6097 123.989C53.8889 123.383 54.2546 122.81 54.661 122.266C57.0996 118.997 59.6447 115.81 62.1039 112.557C65.651 107.862 68.8862 102.98 71.3905 97.6459C72.8356 94.5704 73.8948 91.429 73.8373 88.7535C73.8783 83.5755 72.0143 80.1332 68.3153 77.6349C67.8883 77.3464 67.6337 77.3793 67.3011 77.8534C66.3446 79.2098 65.3925 80.5661 64.3251 81.84C61.0448 85.7605 57.8382 89.7594 54.3773 93.5233C52.1645 95.9268 49.7054 98.1241 47.2709 100.317C44.3314 102.968 41.0304 105.091 37.2821 106.509C32.955 108.146 28.8785 107.598 25.0029 105.215C22.5807 103.727 20.6103 101.764 18.9106 99.5257C16.2216 95.9927 13.9229 92.2164 12.0303 88.2258C9.85029 83.6415 7.87138 78.9624 5.80224 74.3245C5.19464 72.9682 4.7879 71.5129 3.94629 70.2679C3.90523 70.2102 3.81515 69.9917 3.70019 69.7073C3.4826 69.1548 3.38013 68.5612 3.42529 67.9716C4.44754 54.4414 14.4068 43.1414 27.8603 40.6555C28.3941 40.5566 28.9404 40.47 29.4823 40.3999L29.1665 37.9388C28.5835 38.013 27.992 38.1078 27.4131 38.215C12.5555 40.9606 1.63483 53.6334 0.90817 68.6725C0.579736 69.3939 0.464785 70.272 0.596159 71.2532C0.879433 73.4011 1.17144 75.3923 1.49167 77.3422C2.26759 82.0708 3.2692 86.3995 4.5542 90.5798C5.38349 93.2759 6.27415 96.1411 7.27588 98.9362C7.87527 100.606 8.56958 102.222 9.23877 103.788C9.47278 104.337 9.70642 104.885 9.94043 105.433C11.9234 110.158 14.0579 114.161 16.4678 117.673C19.2225 121.689 21.8828 124.649 24.8428 126.986C29.5312 130.692 34.4168 132.494 39.7826 132.494C40.4682 132.494 41.1701 132.461 41.868 132.403C46.6344 131.983 50.6418 130.074 53.9261 128.26C54.5173 127.934 57.6368 126.145 58.2772 125.667L59.1195 125.044C60.1294 124.298 61.1721 123.531 62.182 122.674C64.5714 120.646 66.7183 118.807 68.808 116.836C70.9551 114.812 72.9628 112.706 74.8348 110.727C76.6166 108.843 78.5055 106.819 80.3119 104.65C82.2702 102.3 83.8671 100.284 85.2958 98.0952C87.1473 95.2548 88.8588 92.3195 90.3778 89.3595C91.2564 87.6528 91.8643 85.8883 92.4554 84.1692L92.4799 84.095C92.6153 83.7034 92.747 83.3158 92.8866 82.9283C93.3957 81.5019 93.7896 80.0672 94.077 78.6285H94.1019C94.496 76.9135 94.6683 75.1903 94.6395 73.4794C94.6477 72.9105 94.6476 72.3457 94.6229 71.7768C94.4998 68.9157 93.8101 66.2072 92.5785 63.7295L92.5746 63.7213Z" fill="#ADADAD"/>
</svg>
