<svg width="262" height="50" viewBox="0 0 262 50" fill="none" xmlns="http://www.w3.org/2000/svg">
<path d="M59.4762 3.46373L54.9852 3.48893L55.0223 10.1962L59.5133 10.171L59.4762 3.46373Z" fill="#ADADAD"/>
<path d="M59.4762 3.46373L54.9852 3.48893L55.0223 10.1962L59.5133 10.171L59.4762 3.46373Z" fill="#ADADAD"/>
<path d="M26.4273 24.0771L26.4517 28.4709L43.0687 28.3757C42.6987 30.6161 42.1175 32.6867 41.3287 34.5875C40.5359 36.4883 39.4055 38.1944 37.9337 39.7101C36.4618 41.2258 34.5672 42.4184 32.2455 43.2964C29.9239 44.1702 27.1387 44.6174 23.8819 44.634C17.9213 44.6671 13.3757 42.9609 10.2491 39.5113C7.12244 36.0617 5.54077 31.1958 5.50824 24.9095C5.47572 18.7516 7.11831 13.8981 10.4401 10.3491C13.7619 6.8001 18.4662 5.00697 24.5528 4.97384C28.822 4.94899 32.473 5.88904 35.5062 7.7857C38.5393 9.68651 40.5114 12.5067 41.4181 16.2462L46.4923 16.2172C46.1833 14.0679 45.4556 12.047 44.3009 10.1586C43.1503 8.27023 41.6171 6.59718 39.7062 5.14777C37.7952 3.69421 35.5591 2.56781 32.9976 1.76442C30.4361 0.961032 27.6105 0.567613 24.5245 0.584178C20.8489 0.604884 17.5108 1.21778 14.5142 2.41873C11.5177 3.61967 8.97239 5.32584 6.86628 7.53309C4.76422 9.74034 3.16238 12.3244 2.05646 15.2771C0.950545 18.2339 0.409911 21.4558 0.43024 24.9426C0.450569 28.5579 0.983015 31.8501 2.03607 34.8152C3.08913 37.7803 4.63417 40.3313 6.67524 42.4764C8.7163 44.6174 11.2167 46.249 14.1848 47.3754C17.1488 48.4977 20.5155 49.0526 24.2764 49.0278C28.631 49.0029 32.2618 48.1954 35.1729 46.6093C38.08 45.0233 40.7108 42.4971 43.0568 39.0392H43.1827L43.8656 47.7564L47.4804 47.7357L47.3502 23.9653L26.423 24.0854L26.4273 24.0771Z" fill="#ADADAD"/>
<path d="M26.4273 24.0771L26.4517 28.4709L43.0687 28.3757C42.6987 30.6161 42.1175 32.6867 41.3287 34.5875C40.5359 36.4883 39.4055 38.1944 37.9337 39.7101C36.4618 41.2258 34.5672 42.4184 32.2455 43.2964C29.9239 44.1702 27.1387 44.6174 23.8819 44.634C17.9213 44.6671 13.3757 42.9609 10.2491 39.5113C7.12244 36.0617 5.54077 31.1958 5.50824 24.9095C5.47572 18.7516 7.11831 13.8981 10.4401 10.3491C13.7619 6.8001 18.4662 5.00697 24.5528 4.97384C28.822 4.94899 32.473 5.88904 35.5062 7.7857C38.5393 9.68651 40.5114 12.5067 41.4181 16.2462L46.4923 16.2172C46.1833 14.0679 45.4556 12.047 44.3009 10.1586C43.1503 8.27023 41.6171 6.59718 39.7062 5.14777C37.7952 3.69421 35.5591 2.56781 32.9976 1.76442C30.4361 0.961032 27.6105 0.567613 24.5245 0.584178C20.8489 0.604884 17.5108 1.21778 14.5142 2.41873C11.5177 3.61967 8.97239 5.32584 6.86628 7.53309C4.76422 9.74034 3.16238 12.3244 2.05646 15.2771C0.950545 18.2339 0.409911 21.4558 0.43024 24.9426C0.450569 28.5579 0.983015 31.8501 2.03607 34.8152C3.08913 37.7803 4.63417 40.3313 6.67524 42.4764C8.7163 44.6174 11.2167 46.249 14.1848 47.3754C17.1488 48.4977 20.5155 49.0526 24.2764 49.0278C28.631 49.0029 32.2618 48.1954 35.1729 46.6093C38.08 45.0233 40.7108 42.4971 43.0568 39.0392H43.1827L43.8656 47.7564L47.4804 47.7357L47.3502 23.9653L26.423 24.0854L26.4273 24.0771Z" fill="#ADADAD"/>
<path d="M59.5441 15.6753L55.0531 15.7005L55.2294 47.4129L59.7203 47.3877L59.5441 15.6753Z" fill="#ADADAD"/>
<path d="M59.5441 15.6753L55.0531 15.7005L55.2294 47.4129L59.7203 47.3877L59.5441 15.6753Z" fill="#ADADAD"/>
<path d="M107.343 6.00934C105.022 3.976 102.383 2.46445 99.4298 1.46641C96.4766 0.472516 93.3478 -0.0161576 90.0397 0.000407327C86.7316 0.0169722 83.6073 0.542917 80.6622 1.56994C77.7212 2.59697 75.0981 4.14164 72.7975 6.19983C70.4969 8.25802 68.6981 10.8214 67.401 13.886C66.1039 16.9505 65.4634 20.4415 65.4879 24.3591C65.5083 28.2767 66.1857 31.7636 67.5155 34.8116C68.8494 37.8595 70.6726 40.4022 72.9977 42.4356C75.3187 44.4689 77.9578 45.9805 80.911 46.9785C83.8643 47.9724 86.9969 48.4611 90.3051 48.4445C93.6132 48.4279 96.7377 47.902 99.6827 46.875C102.624 45.848 105.246 44.3033 107.547 42.2451C109.848 40.1869 111.647 37.6235 112.944 34.559C114.241 31.4945 114.881 28.0034 114.861 24.0858C114.841 20.1682 114.164 16.6813 112.83 13.6333C111.5 10.5854 109.672 8.04268 107.347 6.00934H107.343ZM108.22 32.9397C107.172 35.4659 105.732 37.5489 103.896 39.1971C102.061 40.8453 99.9806 42.0629 97.6515 42.8497C95.3223 43.6407 92.8667 44.0382 90.2765 44.0548C87.6904 44.0672 85.2266 43.6862 82.8893 42.9035C80.552 42.1209 78.4553 40.924 76.6034 39.3214C74.7515 37.7187 73.2831 35.6564 72.2103 33.1468C71.1375 30.6331 70.5908 27.6969 70.5704 24.3384C70.55 20.9799 71.0682 18.0396 72.1124 15.5135C73.1607 12.9873 74.6008 10.9043 76.4364 9.25606C78.272 7.60785 80.3562 6.39033 82.6813 5.6035C85.0104 4.81666 87.4658 4.41496 90.056 4.39839C92.6422 4.38183 95.1062 4.75869 97.4435 5.52067C99.7808 6.28266 101.877 7.47534 103.729 9.10284C105.581 10.7303 107.05 12.7968 108.122 15.3105C109.195 17.8243 109.742 20.7604 109.762 24.1189C109.778 27.4775 109.265 30.4177 108.22 32.9439V32.9397Z" fill="#ADADAD"/>
<path d="M107.343 6.00934C105.022 3.976 102.383 2.46445 99.4298 1.46641C96.4766 0.472516 93.3478 -0.0161576 90.0397 0.000407327C86.7316 0.0169722 83.6073 0.542917 80.6622 1.56994C77.7212 2.59697 75.0981 4.14164 72.7975 6.19983C70.4969 8.25802 68.6981 10.8214 67.401 13.886C66.1039 16.9505 65.4634 20.4415 65.4879 24.3591C65.5083 28.2767 66.1857 31.7636 67.5155 34.8116C68.8494 37.8595 70.6726 40.4022 72.9977 42.4356C75.3187 44.4689 77.9578 45.9805 80.911 46.9785C83.8643 47.9724 86.9969 48.4611 90.3051 48.4445C93.6132 48.4279 96.7377 47.902 99.6827 46.875C102.624 45.848 105.246 44.3033 107.547 42.2451C109.848 40.1869 111.647 37.6235 112.944 34.559C114.241 31.4945 114.881 28.0034 114.861 24.0858C114.841 20.1682 114.164 16.6813 112.83 13.6333C111.5 10.5854 109.672 8.04268 107.347 6.00934H107.343ZM108.22 32.9397C107.172 35.4659 105.732 37.5489 103.896 39.1971C102.061 40.8453 99.9806 42.0629 97.6515 42.8497C95.3223 43.6407 92.8667 44.0382 90.2765 44.0548C87.6904 44.0672 85.2266 43.6862 82.8893 42.9035C80.552 42.1209 78.4553 40.924 76.6034 39.3214C74.7515 37.7187 73.2831 35.6564 72.2103 33.1468C71.1375 30.6331 70.5908 27.6969 70.5704 24.3384C70.55 20.9799 71.0682 18.0396 72.1124 15.5135C73.1607 12.9873 74.6008 10.9043 76.4364 9.25606C78.272 7.60785 80.3562 6.39033 82.6813 5.6035C85.0104 4.81666 87.4658 4.41496 90.056 4.39839C92.6422 4.38183 95.1062 4.75869 97.4435 5.52067C99.7808 6.28266 101.877 7.47534 103.729 9.10284C105.581 10.7303 107.05 12.7968 108.122 15.3105C109.195 17.8243 109.742 20.7604 109.762 24.1189C109.778 27.4775 109.265 30.4177 108.22 32.9439V32.9397Z" fill="#ADADAD"/>
<path d="M163.61 43.5819C162.73 43.586 162.097 43.3253 161.716 42.7955C161.331 42.2658 161.136 41.3471 161.128 40.0394L161.039 23.3659C161.022 20.1793 159.895 17.8163 157.664 16.2768C155.434 14.7373 151.776 13.98 146.69 14.009C141.604 14.0379 137.946 14.9691 135.712 16.7982C133.481 18.6274 132.192 21.3215 131.851 24.8805L135.935 24.8557C136.081 22.3602 137.002 20.5683 138.701 19.4758C140.396 18.3832 143.028 17.8287 146.593 17.808C150.275 17.7873 152.923 18.2425 154.529 19.1737C156.135 20.1048 156.947 21.7146 156.959 24.0032C156.963 24.8598 156.845 25.5137 156.61 25.9689C156.375 26.42 155.896 26.7883 155.174 27.078C154.457 27.3677 153.406 27.5994 152.023 27.7691C150.644 27.9388 148.653 28.1126 146.049 28.2947C143.888 28.4312 141.965 28.634 140.286 28.9071C138.607 29.1803 137.018 29.6603 135.517 30.3432C134.021 31.026 132.812 32.0233 131.9 33.3352C130.987 34.6471 130.533 36.3273 130.545 38.3716C130.553 40.0891 130.922 41.5582 131.652 42.779C132.378 43.9998 133.348 44.9848 134.552 45.7338C135.757 46.4828 137.062 47.0291 138.466 47.3643C139.869 47.7037 141.292 47.8692 142.732 47.8609C145.133 47.8485 147.197 47.6209 148.917 47.1822C150.636 46.7436 152.043 46.1808 153.142 45.5021C154.242 44.8234 155.077 44.1654 155.657 43.528C156.233 42.8907 156.78 42.1831 157.296 41.4051H157.417C157.421 42.1789 157.474 42.8866 157.579 43.5156C157.685 44.1488 157.896 44.7323 158.22 45.2579C158.545 45.7876 159.035 46.2139 159.7 46.5366C160.361 46.8594 161.213 47.0208 162.255 47.0126C163.135 47.0084 164.315 46.8594 165.8 46.5615C165.881 46.5201 165.938 46.4994 165.978 46.4994L165.962 43.437C164.92 43.5239 164.141 43.5694 163.618 43.5736L163.61 43.5819ZM155.896 38.6944C155.142 39.9442 154.128 40.9912 152.85 41.8355C151.573 42.6797 150.166 43.3211 148.625 43.7598C147.088 44.1985 145.555 44.4219 144.034 44.4302C141.353 44.4468 139.175 43.9667 137.508 42.9983C135.842 42.0258 135.002 40.3746 134.99 38.0488C134.978 36.2114 135.663 34.8292 137.038 33.9022C138.413 32.9752 140.444 32.3792 143.125 32.1227L144.147 31.9944C148.669 31.5598 151.723 31.2039 153.305 30.9308C154.882 30.6577 156.115 30.2314 156.991 29.6521L157.02 34.494C157.028 36.0458 156.654 37.4488 155.9 38.6986L155.896 38.6944Z" fill="#ADADAD"/>
<path d="M163.61 43.5819C162.73 43.586 162.097 43.3253 161.716 42.7955C161.331 42.2658 161.136 41.3471 161.128 40.0394L161.039 23.3659C161.022 20.1793 159.895 17.8163 157.664 16.2768C155.434 14.7373 151.776 13.98 146.69 14.009C141.604 14.0379 137.946 14.9691 135.712 16.7982C133.481 18.6274 132.192 21.3215 131.851 24.8805L135.935 24.8557C136.081 22.3602 137.002 20.5683 138.701 19.4758C140.396 18.3832 143.028 17.8287 146.593 17.808C150.275 17.7873 152.923 18.2425 154.529 19.1737C156.135 20.1048 156.947 21.7146 156.959 24.0032C156.963 24.8598 156.845 25.5137 156.61 25.9689C156.375 26.42 155.896 26.7883 155.174 27.078C154.457 27.3677 153.406 27.5994 152.023 27.7691C150.644 27.9388 148.653 28.1126 146.049 28.2947C143.888 28.4312 141.965 28.634 140.286 28.9071C138.607 29.1803 137.018 29.6603 135.517 30.3432C134.021 31.026 132.812 32.0233 131.9 33.3352C130.987 34.6471 130.533 36.3273 130.545 38.3716C130.553 40.0891 130.922 41.5582 131.652 42.779C132.378 43.9998 133.348 44.9848 134.552 45.7338C135.757 46.4828 137.062 47.0291 138.466 47.3643C139.869 47.7037 141.292 47.8692 142.732 47.8609C145.133 47.8485 147.197 47.6209 148.917 47.1822C150.636 46.7436 152.043 46.1808 153.142 45.5021C154.242 44.8234 155.077 44.1654 155.657 43.528C156.233 42.8907 156.78 42.1831 157.296 41.4051H157.417C157.421 42.1789 157.474 42.8866 157.579 43.5156C157.685 44.1488 157.896 44.7323 158.22 45.2579C158.545 45.7876 159.035 46.2139 159.7 46.5366C160.361 46.8594 161.213 47.0208 162.255 47.0126C163.135 47.0084 164.315 46.8594 165.8 46.5615C165.881 46.5201 165.938 46.4994 165.978 46.4994L165.962 43.437C164.92 43.5239 164.141 43.5694 163.618 43.5736L163.61 43.5819ZM155.896 38.6944C155.142 39.9442 154.128 40.9912 152.85 41.8355C151.573 42.6797 150.166 43.3211 148.625 43.7598C147.088 44.1985 145.555 44.4219 144.034 44.4302C141.353 44.4468 139.175 43.9667 137.508 42.9983C135.842 42.0258 135.002 40.3746 134.99 38.0488C134.978 36.2114 135.663 34.8292 137.038 33.9022C138.413 32.9752 140.444 32.3792 143.125 32.1227L144.147 31.9944C148.669 31.5598 151.723 31.2039 153.305 30.9308C154.882 30.6577 156.115 30.2314 156.991 29.6521L157.02 34.494C157.028 36.0458 156.654 37.4488 155.9 38.6986L155.896 38.6944Z" fill="#ADADAD"/>
<path d="M194.911 31.3548C192.914 30.1377 189.377 29.1979 184.303 28.5314C181.809 28.2168 179.813 27.9228 178.322 27.6455C176.83 27.3681 175.673 27.0576 174.846 26.714C174.018 26.3704 173.444 25.9357 173.118 25.4058C172.792 24.8759 172.629 24.1845 172.625 23.3234C172.616 22.2595 172.857 21.3694 173.334 20.6532C173.81 19.9329 174.475 19.3698 175.314 18.9559C176.158 18.5419 177.111 18.2521 178.175 18.0823C179.243 17.9126 180.396 17.8257 181.643 17.8174C185.021 17.7967 187.531 18.2645 189.165 19.2125C190.799 20.1647 191.903 21.8869 192.482 24.375L196.585 24.3501C196.284 20.8768 194.951 18.2811 192.588 16.5547C190.224 14.8325 186.569 13.9839 181.618 14.0087C177.193 14.0335 173.835 14.9112 171.553 16.6417C169.267 18.3721 168.134 20.6656 168.151 23.5304C168.167 26.3497 169.161 28.4196 171.141 29.7403C173.122 31.0567 176.545 31.9468 181.419 32.4105C183.872 32.6423 185.877 32.9073 187.429 33.2053C188.978 33.5034 190.2 33.8636 191.088 34.29C191.977 34.7164 192.592 35.2132 192.938 35.7803C193.285 36.3517 193.46 37.0637 193.464 37.9248C193.476 40.1728 192.588 41.7542 190.803 42.6608C189.018 43.5716 186.435 44.0353 183.053 44.056C179.031 44.0808 176.158 43.5633 174.442 42.5077C172.727 41.4561 171.659 39.6015 171.243 36.9478L167.14 36.9726C167.16 40.6903 168.542 43.4433 171.288 45.2276C174.035 47.0119 177.963 47.8895 183.073 47.8605C187.942 47.8316 191.638 46.9249 194.165 45.1324C196.691 43.3398 197.942 40.8517 197.926 37.6599C197.91 34.675 196.903 32.5761 194.906 31.3631L194.911 31.3548Z" fill="#ADADAD"/>
<path d="M194.911 31.3548C192.914 30.1377 189.377 29.1979 184.303 28.5314C181.809 28.2168 179.813 27.9228 178.322 27.6455C176.83 27.3681 175.673 27.0576 174.846 26.714C174.018 26.3704 173.444 25.9357 173.118 25.4058C172.792 24.8759 172.629 24.1845 172.625 23.3234C172.616 22.2595 172.857 21.3694 173.334 20.6532C173.81 19.9329 174.475 19.3698 175.314 18.9559C176.158 18.5419 177.111 18.2521 178.175 18.0823C179.243 17.9126 180.396 17.8257 181.643 17.8174C185.021 17.7967 187.531 18.2645 189.165 19.2125C190.799 20.1647 191.903 21.8869 192.482 24.375L196.585 24.3501C196.284 20.8768 194.951 18.2811 192.588 16.5547C190.224 14.8325 186.569 13.9839 181.618 14.0087C177.193 14.0335 173.835 14.9112 171.553 16.6417C169.267 18.3721 168.134 20.6656 168.151 23.5304C168.167 26.3497 169.161 28.4196 171.141 29.7403C173.122 31.0567 176.545 31.9468 181.419 32.4105C183.872 32.6423 185.877 32.9073 187.429 33.2053C188.978 33.5034 190.2 33.8636 191.088 34.29C191.977 34.7164 192.592 35.2132 192.938 35.7803C193.285 36.3517 193.46 37.0637 193.464 37.9248C193.476 40.1728 192.588 41.7542 190.803 42.6608C189.018 43.5716 186.435 44.0353 183.053 44.056C179.031 44.0808 176.158 43.5633 174.442 42.5077C172.727 41.4561 171.659 39.6015 171.243 36.9478L167.14 36.9726C167.16 40.6903 168.542 43.4433 171.288 45.2276C174.035 47.0119 177.963 47.8895 183.073 47.8605C187.942 47.8316 191.638 46.9249 194.165 45.1324C196.691 43.3398 197.942 40.8517 197.926 37.6599C197.91 34.675 196.903 32.5761 194.906 31.3631L194.911 31.3548Z" fill="#ADADAD"/>
<path d="M125.099 3.10292L120.607 3.12813L120.851 47.0364L125.342 47.0112L125.099 3.10292Z" fill="#ADADAD"/>
<path d="M125.099 3.10292L120.607 3.12813L120.851 47.0364L125.342 47.0112L125.099 3.10292Z" fill="#ADADAD"/>
<path d="M235.256 23.0796C234.214 20.7559 232.834 18.9327 231.11 17.6183C229.391 16.3038 227.499 15.3678 225.437 14.8184C223.378 14.2649 221.238 13.9964 219.02 14.0086C216.198 14.0248 213.698 14.4806 211.526 15.3759C209.353 16.2712 207.564 17.4962 206.163 19.0507C204.758 20.6053 203.712 22.3796 203.018 24.3696C202.323 26.3637 201.98 28.484 201.993 30.7344C202.005 32.7855 202.319 34.7796 202.932 36.7248C203.549 38.6701 204.537 40.4444 205.897 42.0437C207.257 43.643 209.05 44.9209 211.272 45.8732C213.498 46.8254 216.141 47.2934 219.204 47.2771C221.704 47.2649 223.921 46.9475 225.853 46.3371C227.785 45.7226 229.427 44.9005 230.771 43.8669C232.115 42.8332 233.222 41.6734 234.079 40.3833C234.937 39.0933 235.607 37.7015 236.081 36.212L231.604 36.2365C230.812 38.6904 229.452 40.5176 227.52 41.7141C225.592 42.9105 222.811 43.521 219.184 43.5372C215.312 43.5576 212.232 42.4507 209.941 40.2124C207.649 37.9742 206.494 35.1662 206.477 31.7925L236.845 31.6216C236.824 28.2479 236.297 25.3952 235.256 23.0715V23.0796ZM206.461 28.4229C206.694 26.5753 207.217 24.9638 208.037 23.5924C208.858 22.2209 209.859 21.1099 211.044 20.2594C212.228 19.4089 213.535 18.7781 214.964 18.3671C216.394 17.956 217.856 17.7485 219.347 17.7403C222.615 17.7241 225.359 18.5095 227.585 20.1048C228.802 20.9797 229.815 22.0907 230.628 23.4337C231.441 24.7766 232.017 26.3881 232.348 28.2764L206.457 28.4189L206.461 28.4229Z" fill="#ADADAD"/>
<path d="M235.256 23.0796C234.214 20.7559 232.834 18.9327 231.11 17.6183C229.391 16.3038 227.499 15.3678 225.437 14.8184C223.378 14.2649 221.238 13.9964 219.02 14.0086C216.198 14.0248 213.698 14.4806 211.526 15.3759C209.353 16.2712 207.564 17.4962 206.163 19.0507C204.758 20.6053 203.712 22.3796 203.018 24.3696C202.323 26.3637 201.98 28.484 201.993 30.7344C202.005 32.7855 202.319 34.7796 202.932 36.7248C203.549 38.6701 204.537 40.4444 205.897 42.0437C207.257 43.643 209.05 44.9209 211.272 45.8732C213.498 46.8254 216.141 47.2934 219.204 47.2771C221.704 47.2649 223.921 46.9475 225.853 46.3371C227.785 45.7226 229.427 44.9005 230.771 43.8669C232.115 42.8332 233.222 41.6734 234.079 40.3833C234.937 39.0933 235.607 37.7015 236.081 36.212L231.604 36.2365C230.812 38.6904 229.452 40.5176 227.52 41.7141C225.592 42.9105 222.811 43.521 219.184 43.5372C215.312 43.5576 212.232 42.4507 209.941 40.2124C207.649 37.9742 206.494 35.1662 206.477 31.7925L236.845 31.6216C236.824 28.2479 236.297 25.3952 235.256 23.0715V23.0796ZM206.461 28.4229C206.694 26.5753 207.217 24.9638 208.037 23.5924C208.858 22.2209 209.859 21.1099 211.044 20.2594C212.228 19.4089 213.535 18.7781 214.964 18.3671C216.394 17.956 217.856 17.7485 219.347 17.7403C222.615 17.7241 225.359 18.5095 227.585 20.1048C228.802 20.9797 229.815 22.0907 230.628 23.4337C231.441 24.7766 232.017 26.3881 232.348 28.2764L206.457 28.4189L206.461 28.4229Z" fill="#ADADAD"/>
<path d="M258.575 13.4245C256.816 13.4329 255.264 13.6793 253.926 14.164C252.589 14.6486 251.458 15.2921 250.546 16.1026C249.63 16.9131 248.873 17.7947 248.281 18.7473C247.685 19.6998 247.15 20.736 246.676 21.8515H246.555L246.514 14.4899L242.072 14.515L242.247 46.6939L246.688 46.6688L246.599 30.2702C246.587 28.0851 246.887 26.1925 247.499 24.6006C248.111 23.0088 248.934 21.7345 249.971 20.7819C251.009 19.8252 252.143 19.1275 253.383 18.6888C254.619 18.2501 255.88 18.0245 257.16 18.0161C258.522 18.0078 259.88 18.1248 261.241 18.3629L261.217 13.6585C260.333 13.4997 259.454 13.4203 258.575 13.4287V13.4245Z" fill="#ADADAD"/>
<path d="M258.575 13.4245C256.816 13.4329 255.264 13.6793 253.926 14.164C252.589 14.6486 251.458 15.2921 250.546 16.1026C249.63 16.9131 248.873 17.7947 248.281 18.7473C247.685 19.6998 247.15 20.736 246.676 21.8515H246.555L246.514 14.4899L242.072 14.515L242.247 46.6939L246.688 46.6688L246.599 30.2702C246.587 28.0851 246.887 26.1925 247.499 24.6006C248.111 23.0088 248.934 21.7345 249.971 20.7819C251.009 19.8252 252.143 19.1275 253.383 18.6888C254.619 18.2501 255.88 18.0245 257.16 18.0161C258.522 18.0078 259.88 18.1248 261.241 18.3629L261.217 13.6585C260.333 13.4997 259.454 13.4203 258.575 13.4287V13.4245Z" fill="#ADADAD"/>
</svg>
