<svg width="332" height="92" viewBox="0 0 332 92" fill="none" xmlns="http://www.w3.org/2000/svg">
<path d="M118.376 42.0703H110.798V1.24633H118.376V42.0703Z" fill="#ADADAD"/>
<path d="M152.782 23.2009V42.0724H145.499V25.4253C145.499 22.8212 144.976 20.9593 143.93 19.8374C142.884 18.7155 141.592 18.1545 140.053 18.1545C139.145 18.1545 138.267 18.325 137.417 18.6659C136.567 19.0068 135.808 19.4685 135.138 20.0488C134.466 20.6292 133.924 21.3217 133.51 22.1222C133.095 22.9247 132.887 23.7856 132.887 24.7068V42.0746H125.308V11.9604H132.887V17.3088C133.716 15.5052 135.019 14.1136 136.796 13.1319C138.573 12.1503 140.625 11.6605 142.955 11.6605C146.152 11.6605 148.59 12.6422 150.267 14.6055C151.944 16.5688 152.784 19.4339 152.784 23.2009H152.782Z" fill="#ADADAD"/>
<path d="M171.534 17.5785C170.011 17.5785 168.919 17.8395 168.253 18.3617C167.588 18.8816 167.254 19.49 167.254 20.1847C167.254 21.0348 167.654 21.7014 168.453 22.1826C169.253 22.6658 170.25 23.0909 171.449 23.4555C172.647 23.8223 173.948 24.1998 175.356 24.5839C176.763 24.97 178.066 25.4814 179.265 26.1178C180.464 26.7543 181.461 27.5849 182.26 28.6076C183.059 29.6302 183.459 30.9722 183.459 32.6313C183.459 34.0207 183.155 35.285 182.545 36.4241C181.937 37.5633 181.08 38.5579 179.977 39.4058C178.874 40.2558 177.532 40.9117 175.955 41.3756C174.376 41.8394 172.618 42.0703 170.677 42.0703C168.09 42.0703 165.732 41.6841 163.602 40.9117C161.472 40.1393 159.799 39.2526 158.581 38.2472L160.008 31.6453C161.111 32.8039 162.612 33.7877 164.514 34.5989C166.417 35.4101 168.413 35.8157 170.505 35.8157C172.139 35.8157 173.5 35.5547 174.584 35.0326C175.668 34.5126 176.21 33.7489 176.21 32.7456C176.21 31.8977 175.811 31.2505 175.011 30.806C174.212 30.3616 173.215 29.9668 172.016 29.6194C170.817 29.2721 169.514 28.9161 168.107 28.5472C166.7 28.1804 165.396 27.6798 164.2 27.0412C163.001 26.4048 162.004 25.5741 161.204 24.5515C160.405 23.5288 160.005 22.1696 160.005 20.4695C160.005 17.8827 160.994 15.818 162.973 14.2732C164.95 12.7285 167.671 11.9561 171.132 11.9561C172.309 11.9561 173.479 12.0532 174.641 12.2452C175.802 12.4394 176.903 12.6983 177.951 13.0262C178.997 13.3541 179.958 13.749 180.832 14.2128C181.705 14.6767 182.428 15.1966 183 15.7748L181.404 22.0294C181.061 21.6044 180.577 21.1405 179.949 20.64C179.322 20.1394 178.58 19.6562 177.724 19.1923C176.867 18.7284 175.917 18.3444 174.871 18.0337C173.825 17.7252 172.711 17.5699 171.534 17.5699V17.5785Z" fill="#ADADAD"/>
<path d="M203.918 40.148C202.734 41.19 201.598 41.8524 200.512 42.1307C199.426 42.4112 198.488 42.5514 197.7 42.5514C195.213 42.5514 193.318 41.7704 192.015 40.2084C190.712 38.6463 190.06 36.6226 190.06 34.1394V19.0542H186.567V11.9626H193.14V11.7835C192.39 11.462 191.69 10.9615 191.038 10.2819C190.387 9.60011 190.06 8.57962 190.06 7.21609V1.24633H197.166V11.9604H203.918V19.0521H197.166V31.313C197.166 32.5148 197.443 33.587 197.995 34.5277C198.548 35.4684 199.475 35.9409 200.778 35.9409C201.567 35.9409 202.209 35.8416 202.702 35.641C203.195 35.4403 203.599 35.2418 203.916 35.039V40.148H203.918Z" fill="#ADADAD"/>
<path d="M209.304 4.87953C209.304 3.79432 209.659 2.91838 210.374 2.24956C211.086 1.58074 212.01 1.24633 213.152 1.24633C214.294 1.24633 215.21 1.58074 215.903 2.24956C216.596 2.91838 216.944 3.79432 216.944 4.87953C216.944 5.96475 216.598 6.84069 215.903 7.50951C215.208 8.17833 214.291 8.51274 213.152 8.51274C212.013 8.51274 211.086 8.17833 210.374 7.50951C209.661 6.84069 209.304 5.96475 209.304 4.87953ZM216.885 42.0703H209.304V11.9604H216.885V42.0703Z" fill="#ADADAD"/>
<path d="M238.912 40.148C237.728 41.19 236.593 41.8524 235.507 42.1307C234.42 42.4112 233.483 42.5514 232.694 42.5514C230.207 42.5514 228.313 41.7704 227.01 40.2084C225.707 38.6463 225.054 36.6226 225.054 34.1394V19.0542H221.562V11.9626H228.134V11.7835C227.384 11.462 226.685 10.9615 226.032 10.2819C225.382 9.60011 225.054 8.57962 225.054 7.21609V1.24633H232.161V11.9604H238.912V19.0521H232.161V31.313C232.161 32.5148 232.437 33.587 232.99 34.5277C233.542 35.4684 234.469 35.9409 235.772 35.9409C236.561 35.9409 237.203 35.8416 237.696 35.641C238.189 35.4403 238.593 35.2418 238.91 35.039V40.148H238.912Z" fill="#ADADAD"/>
<path d="M245.84 31.134V11.9604H253.123V28.9075C253.123 31.5137 253.646 33.3756 254.692 34.4975C255.738 35.6194 257.03 36.1803 258.571 36.1803C259.479 36.1803 260.357 36.0099 261.207 35.669C262.056 35.3281 262.814 34.8686 263.486 34.2861C264.158 33.7057 264.7 33.0153 265.115 32.2127C265.529 31.4123 265.735 30.5515 265.735 29.6281V11.9604H273.316V42.0703H265.735V37.0218C264.906 38.8254 263.603 40.217 261.828 41.1986C260.051 42.1803 258 42.6701 255.67 42.6701C252.473 42.6701 250.034 41.6884 248.357 39.7251C246.678 37.7639 245.84 34.8988 245.84 31.1318V31.134Z" fill="#ADADAD"/>
<path d="M297.061 40.148C295.877 41.19 294.741 41.8524 293.655 42.1307C292.569 42.4112 291.631 42.5514 290.843 42.5514C288.356 42.5514 286.462 41.7704 285.158 40.2084C283.855 38.6463 283.203 36.6226 283.203 34.1394V19.0542H279.71V11.9626H286.283V11.7835C285.533 11.462 284.833 10.9615 284.181 10.2819C283.53 9.60011 283.203 8.57962 283.203 7.21609V1.24633H290.309V11.9604H297.061V19.0521H290.309V31.313C290.309 32.5148 290.586 33.587 291.138 34.5277C291.691 35.4684 292.618 35.9409 293.921 35.9409C294.71 35.9409 295.352 35.8416 295.845 35.641C296.338 35.4403 296.742 35.2418 297.059 35.039V40.148H297.061Z" fill="#ADADAD"/>
<path d="M300.555 26.8665C300.555 24.3422 300.97 22.079 301.799 20.0747C302.628 18.0726 303.753 16.3789 305.175 14.996C306.597 13.613 308.264 12.5516 310.179 11.8115C312.092 11.0715 314.137 10.7004 316.307 10.7004C318.478 10.7004 320.512 11.0715 322.406 11.8115C324.3 12.5537 325.959 13.6152 327.381 14.996C328.803 16.3789 329.927 18.0704 330.756 20.0747C331.585 22.079 332 24.3422 332 26.8665C332 29.3907 331.585 31.6561 330.756 33.6582C329.927 35.6625 328.803 37.354 327.381 38.737C325.959 40.1199 324.3 41.1814 322.406 41.9236C320.51 42.6636 318.478 43.0347 316.307 43.0347C314.137 43.0347 312.092 42.6636 310.179 41.9236C308.264 41.1835 306.597 40.1199 305.175 38.737C303.753 37.354 302.628 35.6625 301.799 33.6582C300.97 31.6561 300.555 29.3907 300.555 26.8665ZM308.963 26.8665C308.963 30.1523 309.664 32.586 311.065 34.1696C312.466 35.7532 314.214 36.5428 316.305 36.5428C318.397 36.5428 320.085 35.751 321.486 34.1696C322.887 32.5881 323.588 30.1545 323.588 26.8665C323.588 23.5785 322.887 21.147 321.486 19.5655C320.085 17.9819 318.357 17.1923 316.305 17.1923C314.254 17.1923 312.464 17.9841 311.065 19.5655C309.664 21.1491 308.963 23.5828 308.963 26.8665Z" fill="#ADADAD"/>
<path d="M130.102 91.2178H122.522V55.0972H110.798V49.1468H141.116V55.2158H130.102V91.2178Z" fill="#ADADAD"/>
<path d="M148.046 76.1327C148.046 77.4962 148.263 78.7389 148.696 79.8586C149.13 80.9805 149.753 81.932 150.563 82.713C151.371 83.494 152.329 84.1067 153.435 84.5469C154.54 84.9891 155.762 85.207 157.106 85.207C158.802 85.207 160.333 84.8662 161.695 84.1844C163.058 83.5048 164.172 82.5835 165.041 81.4207L169.304 86.9503C168.594 87.5522 167.813 88.152 166.965 88.754C166.115 89.3559 165.188 89.8758 164.183 90.316C163.175 90.7583 162.059 91.1186 160.837 91.399C159.612 91.6795 158.252 91.8197 156.751 91.8197C154.342 91.8197 152.132 91.4292 150.118 90.6482C148.105 89.8672 146.377 88.7863 144.938 87.4034C143.497 86.0204 142.372 84.3592 141.562 82.4153C140.752 80.4714 140.348 78.3398 140.348 76.014C140.348 73.6882 140.742 71.5782 141.532 69.6731C142.321 67.7702 143.416 66.1478 144.819 64.8059C146.22 63.4639 147.878 62.4218 149.793 61.6818C151.709 60.9418 153.771 60.5707 155.981 60.5707C158.192 60.5707 160.216 60.9418 161.934 61.6818C163.651 62.424 165.101 63.4747 166.285 64.8361C167.469 66.1996 168.366 67.8307 168.978 69.7336C169.591 71.6365 169.897 73.7702 169.897 76.1348H148.046V76.1327ZM161.666 71.3236C161.151 69.9622 160.341 68.8706 159.238 68.0486C158.133 67.2266 156.889 66.8166 155.507 66.8166C154.126 66.8166 152.833 67.2481 151.747 68.109C150.661 68.972 149.802 70.0421 149.17 71.3236H161.666Z" fill="#ADADAD"/>
<path d="M193.404 86.3505C192.772 87.9125 191.548 89.2459 189.732 90.3483C187.915 91.4508 185.706 92.001 183.1 92.001C181.756 92.001 180.475 91.8197 179.25 91.4594C178.026 91.0991 176.942 90.549 175.993 89.8068C175.045 89.0668 174.295 88.1434 173.744 87.0431C173.192 85.9406 172.915 84.6483 172.915 83.1661C172.915 81.8435 173.23 80.562 173.863 79.3193C174.495 78.0787 175.451 76.987 176.735 76.0442C178.017 75.1035 179.656 74.3916 181.65 73.9105C183.644 73.4293 186.002 73.3085 188.727 73.5501L188.134 71.8673C187.738 70.7864 187.156 69.9752 186.386 69.4337C185.617 68.8921 184.698 68.5318 183.633 68.3506C182.566 68.1694 181.355 68.1003 179.992 68.1413C178.629 68.1823 177.18 68.2017 175.641 68.2017V61.1101C178.404 61.1101 180.872 61.1015 183.042 61.0799C185.213 61.0605 187.118 61.2503 188.757 61.6495C190.393 62.0507 191.796 62.7908 192.961 63.8738C194.126 64.9569 195.083 66.6182 195.833 68.8619L203.295 91.22H195.183L193.406 86.3527L193.404 86.3505ZM190.325 77.9363C189.299 77.8565 188.321 77.8565 187.394 77.9363C186.465 78.0161 185.647 78.2168 184.937 78.5383C184.227 78.8597 183.663 79.3106 183.249 79.891C182.834 80.4714 182.626 81.2243 182.626 82.1456C182.626 83.6278 183.119 84.7605 184.105 85.5415C185.092 86.3225 186.178 86.713 187.362 86.713C187.955 86.713 188.516 86.6137 189.05 86.4131C189.584 86.2124 190.058 85.9018 190.472 85.4811C190.887 85.0603 191.212 84.5296 191.45 83.8888C191.688 83.2481 191.767 82.4865 191.688 81.604L190.325 77.9385V77.9363Z" fill="#ADADAD"/>
<path d="M225.856 69.4617C225.42 69.1424 224.81 68.8598 224.021 68.6203C223.23 68.3808 222.382 68.26 221.474 68.26C219.54 68.26 217.941 68.8209 216.679 69.9428C215.414 71.0647 214.782 72.4283 214.782 74.0291V91.2178H207.204V61.1079H214.782V66.4563C215.492 64.6527 216.579 63.2611 218.039 62.2794C219.5 61.2978 221.215 60.808 223.19 60.808C225.165 60.808 226.88 61.3496 228.341 62.4305L225.854 69.4617H225.856Z" fill="#ADADAD"/>
<path d="M8.47574 12.6206C7.38097 11.5095 7.38097 9.7123 8.47574 8.6012C9.56839 7.49225 11.3413 7.49225 12.4339 8.6012C13.5266 9.7123 13.5266 11.5095 12.4339 12.6206C11.3413 13.7295 9.56839 13.7295 8.47574 12.6206Z" fill="#ADADAD"/>
<path d="M12.4361 78.5965C13.5287 79.7076 13.5287 81.507 12.4361 82.6159C11.3434 83.7249 9.57052 83.7249 8.47787 82.6159C7.38309 81.507 7.38309 79.7076 8.47787 78.5965C9.57052 77.4876 11.3434 77.4876 12.4361 78.5965Z" fill="#ADADAD"/>
<path d="M77.4424 12.6227C76.3476 11.5116 76.3476 9.71446 77.4424 8.60335C78.535 7.49441 80.3079 7.49441 81.4006 8.60335C82.4932 9.71446 82.4932 11.5116 81.4006 12.6227C80.3079 13.7317 78.535 13.7317 77.4424 12.6227Z" fill="#ADADAD"/>
<path d="M81.5026 78.7022C82.5974 79.8112 82.5974 81.6105 81.5026 82.7195C80.4099 83.8284 78.637 83.8284 77.5444 82.7195C76.4517 81.6105 76.4517 79.8112 77.5444 78.7022C78.637 77.5911 80.4099 77.5911 81.5026 78.7022Z" fill="#ADADAD"/>
<path d="M46.6951 21.1621V21.1686C46.6951 21.2009 46.6908 21.229 46.6866 21.2613C46.6781 21.3476 46.6632 21.4318 46.642 21.5138C46.6356 21.544 46.6271 21.5699 46.6186 21.6001C46.6058 21.6432 46.5909 21.6842 46.5761 21.7252C46.5165 21.8849 46.4358 22.0359 46.3358 22.1718C46.2955 22.2236 46.2551 22.2754 46.2083 22.3228C46.1998 22.3336 46.1913 22.3422 46.1828 22.353C46.1509 22.3854 46.1211 22.4156 46.0893 22.4436C46.085 22.448 46.0808 22.4523 46.0765 22.4566C46.051 22.4803 46.0255 22.4997 45.9979 22.5213C45.9936 22.5256 45.9893 22.5299 45.983 22.5343C45.9787 22.5343 45.9766 22.5407 45.9723 22.5429C45.9596 22.5515 45.9468 22.5623 45.9341 22.5709C45.9086 22.5904 45.8852 22.6098 45.8575 22.6227C45.8384 22.6357 45.8172 22.6486 45.798 22.6615C45.7938 22.6659 45.7874 22.6702 45.7831 22.6702C45.7683 22.681 45.7534 22.6896 45.7406 22.6961C45.7215 22.709 45.7024 22.7198 45.6854 22.7284C45.6854 22.7284 45.6854 22.7284 45.6811 22.7284C45.662 22.7392 45.6428 22.7478 45.6237 22.7565C45.8299 22.6723 46.0234 22.5429 46.1934 22.3724C46.5463 22.0143 46.7185 21.544 46.7079 21.078C46.7079 21.106 46.7015 21.1319 46.6994 21.1621H46.6951ZM46.6951 26.0855C46.6951 26.0661 46.6908 26.0466 46.6866 26.0294C46.6823 26.0013 46.6781 25.9754 46.6717 25.9474C46.6675 25.9258 46.6632 25.9042 46.6568 25.8848C46.5888 25.5849 46.44 25.3045 46.2189 25.0671C46.1998 25.0456 46.1785 25.024 46.1594 25.0067C46.1148 24.9636 46.0723 24.9269 46.0276 24.8902C45.983 24.8536 45.9341 24.8212 45.8873 24.7888C45.8405 24.7565 45.7916 24.7306 45.7406 24.7047C45.6917 24.6766 45.6407 24.6551 45.5897 24.6356C45.5387 24.6141 45.4855 24.5947 45.4324 24.5817C45.3814 24.5666 45.3261 24.5537 45.273 24.5429C45.1645 24.5213 45.0561 24.5105 44.9477 24.5105C44.8393 24.5105 44.7288 24.5213 44.6203 24.5429C44.5714 24.5515 44.5204 24.5645 44.4737 24.5774C44.4652 24.5774 44.4567 24.5817 44.4482 24.586C44.412 24.5968 44.378 24.6076 44.3419 24.6227C44.3419 24.6227 44.3405 24.6227 44.3376 24.6227C44.3376 24.6227 44.3376 24.6227 44.3334 24.6227C44.3142 24.6292 44.2951 24.6378 44.2781 24.6464C44.2717 24.6464 44.2675 24.6507 44.2611 24.6529C44.2611 24.6529 44.2611 24.6529 44.2611 24.6572C44.2568 24.6572 44.2526 24.6572 44.2483 24.6615C44.2271 24.6702 44.2058 24.6788 44.1867 24.6896C44.1867 24.6896 44.1853 24.6896 44.1824 24.6896C44.1612 24.6982 44.1399 24.7112 44.1187 24.7241C44.1102 24.7284 44.1017 24.7327 44.0953 24.737C44.0761 24.7478 44.057 24.7586 44.04 24.7716C44.0358 24.7716 44.0336 24.7716 44.0315 24.7759C44.0124 24.7888 43.9911 24.8039 43.9741 24.8147C43.9507 24.8298 43.9295 24.8471 43.9061 24.8643C43.9061 24.8643 43.9061 24.8643 43.9018 24.8687C43.8848 24.8794 43.8678 24.8924 43.8529 24.9053C43.8529 24.9053 43.8466 24.9118 43.8444 24.914C43.8211 24.9334 43.7998 24.9528 43.7764 24.9744C43.7764 24.9744 43.7722 24.9744 43.7722 24.9787C43.7679 24.9787 43.7615 24.9852 43.7573 24.9916C43.753 24.9959 43.7467 25.0003 43.7424 25.0046C43.0622 25.6302 42.0248 25.6022 41.37 24.942C40.7004 24.2602 40.7004 23.1491 41.37 22.4695C42.0269 21.805 43.0664 21.7791 43.7445 22.4048C43.7339 22.394 43.7254 22.3832 43.7148 22.3746C43.6149 22.2732 43.5277 22.1589 43.4533 22.038C43.432 22.0035 43.4129 21.969 43.3959 21.9345C43.364 21.8741 43.3364 21.8072 43.3109 21.7425C43.2917 21.695 43.2747 21.6454 43.2641 21.5979C43.2641 21.5936 43.2641 21.5914 43.2598 21.5871C43.2556 21.572 43.2535 21.5569 43.2513 21.5418C43.2407 21.5073 43.2322 21.4728 43.2258 21.4361C43.2195 21.4016 43.2131 21.3649 43.211 21.3282C43.2067 21.3088 43.2046 21.2894 43.2025 21.2721C43.1961 21.2182 43.1939 21.1621 43.1939 21.106V18.407C41.6591 18.2236 40.0627 18.7371 38.8765 19.9366C36.8315 22.0165 36.8315 25.3972 38.8765 27.4771C39.9054 28.5191 41.2489 29.0434 42.5924 29.0434C42.7943 29.0434 42.9941 29.0304 43.1939 29.0046V33.7661C43.1939 33.8114 43.1939 33.8589 43.1939 33.9042C43.1939 33.9646 43.1939 34.025 43.2025 34.0833C43.2067 34.1372 43.2152 34.1955 43.2237 34.2494C43.2492 34.3745 43.2832 34.4954 43.3321 34.6097C43.3513 34.655 43.3704 34.6982 43.3916 34.7435C43.5596 35.0692 43.8232 35.3389 44.1463 35.5094C44.1931 35.5353 44.2462 35.5568 44.2972 35.5784C44.3482 35.6021 44.4035 35.6194 44.4567 35.6345C44.4843 35.6431 44.5098 35.6496 44.5396 35.6582C44.6225 35.6798 44.7075 35.6949 44.7947 35.7014C44.8265 35.7014 44.8542 35.7057 44.8839 35.7079C44.9094 35.7079 44.9328 35.7079 44.9583 35.7079C44.9817 35.7079 45.0051 35.7079 45.0285 35.7079C45.0583 35.7079 45.0859 35.7036 45.1178 35.7014C45.2049 35.6949 45.29 35.6798 45.3729 35.6582C45.4026 35.6496 45.4281 35.6431 45.4558 35.6345C45.5089 35.6194 45.5642 35.6 45.6152 35.5784C45.6662 35.5568 45.7194 35.5331 45.7661 35.5094C46.0871 35.3411 46.3529 35.0714 46.5208 34.7435C46.542 34.7003 46.5633 34.6572 46.5803 34.6097C46.6271 34.4954 46.6632 34.3745 46.6887 34.2494C46.6972 34.1955 46.7057 34.1372 46.71 34.0833C46.7142 34.0509 46.7142 34.0229 46.7164 33.9927C46.7185 33.9625 46.7164 33.9344 46.7164 33.9042C46.7164 33.8589 46.7164 33.8093 46.7164 33.7661V26.2991C46.7164 26.2279 46.7121 26.1567 46.7036 26.0833L46.6951 26.0855ZM44.5842 22.8579C44.5842 22.8579 44.5757 22.8579 44.5714 22.8579C44.5863 22.8622 44.6033 22.8665 44.6161 22.8687C44.6055 22.8687 44.5948 22.8643 44.5842 22.86V22.8579ZM44.1761 22.7176H44.1718H44.1782H44.1761ZM33.2729 43.82H25.9156C25.8901 43.82 25.8646 43.82 25.8391 43.8243C25.8667 43.8243 25.8901 43.8243 25.9178 43.8243H33.3771C33.3431 43.8243 33.307 43.8243 33.2729 43.8243V43.82ZM25.4288 43.8891C25.4161 43.8934 25.4033 43.8955 25.3927 43.902C25.4203 43.8934 25.4458 43.8847 25.4756 43.8783C25.5011 43.8696 25.5245 43.8632 25.5521 43.8588C25.5096 43.8653 25.4692 43.8761 25.4267 43.8891H25.4288ZM25.2715 43.943C25.2439 43.9516 25.2205 43.9646 25.195 43.9754C25.2077 43.971 25.2205 43.9667 25.2333 43.9624C25.2588 43.9495 25.2843 43.9387 25.3119 43.93C25.3247 43.9236 25.3395 43.9171 25.3544 43.9128C25.3268 43.9214 25.3013 43.9322 25.2736 43.943H25.2715ZM25.1376 44.0034C25.1376 44.0034 25.1248 44.0099 25.1206 44.012C25.0993 44.0228 25.0781 44.0314 25.0589 44.0465C25.0653 44.0465 25.0717 44.0401 25.0781 44.0379C25.1036 44.0228 25.127 44.0099 25.1546 43.9969C25.1674 43.9883 25.1801 43.9818 25.195 43.9754C25.1759 43.984 25.1567 43.9926 25.1397 44.0034H25.1376ZM24.9739 44.0962C24.9484 44.1113 24.9271 44.1285 24.9016 44.1436C24.9144 44.1372 24.925 44.1285 24.9378 44.1221C24.9612 44.107 24.9803 44.0919 25.0058 44.0768C25.0058 44.0768 25.0058 44.0768 25.01 44.0724C24.9973 44.0789 24.9845 44.0875 24.9739 44.094V44.0962ZM24.8336 44.1976C24.8209 44.2084 24.8081 44.217 24.7953 44.2299C24.7953 44.2256 24.8017 44.2235 24.806 44.2235C24.8209 44.2105 24.8379 44.1976 24.8527 44.1825C24.8464 44.1868 24.8379 44.1911 24.8315 44.1976H24.8336ZM24.7167 44.299C24.7167 44.299 24.7061 44.3098 24.6997 44.3141C24.6891 44.3249 24.6784 44.3335 24.6699 44.3464C24.6912 44.3249 24.7103 44.3054 24.7316 44.2882C24.7507 44.2666 24.772 44.2472 24.7932 44.2321C24.7656 44.2537 24.7401 44.2752 24.7146 44.3011L24.7167 44.299ZM24.2958 44.9095C24.3383 44.806 24.3914 44.7089 24.4488 44.6183C24.3872 44.7111 24.334 44.8081 24.2958 44.9095ZM24.1852 45.9387C24.1852 45.9387 24.1852 45.9387 24.1852 45.9343C24.1852 45.9451 24.1895 45.9581 24.1916 45.971C24.1916 45.9753 24.1916 45.9797 24.1959 45.984C24.1916 45.9689 24.1895 45.9538 24.1874 45.9408L24.1852 45.9387ZM24.1534 45.6107C24.1534 45.5589 24.1534 45.5028 24.1597 45.4511C24.1534 45.5028 24.1512 45.5568 24.1512 45.6086C24.1512 45.6237 24.1512 45.6409 24.1512 45.656C24.1512 45.6711 24.1512 45.6862 24.1512 45.7013C24.1512 45.7315 24.1555 45.7596 24.1576 45.792C24.164 45.8351 24.1682 45.8804 24.1767 45.9236C24.1597 45.82 24.1491 45.7143 24.1491 45.6107H24.1534ZM22.5505 45.3993C22.5505 45.3993 22.5505 45.4187 22.5505 45.4295C22.5505 45.4295 22.5505 45.4309 22.5505 45.4338C22.5505 45.4209 22.5505 45.4101 22.5463 45.3993H22.5505ZM22.525 45.9602C22.525 45.9732 22.5208 45.9861 22.5165 45.9991C22.5165 46.0099 22.5123 46.0206 22.5101 46.0314C22.525 45.9861 22.5335 45.9408 22.5399 45.8955C22.5356 45.9192 22.5314 45.9408 22.525 45.9624V45.9602ZM22.4485 44.9807C22.4485 44.9807 22.4527 44.9915 22.4527 44.9958C22.4634 45.0174 22.4719 45.0412 22.4782 45.0606C22.4697 45.0325 22.4612 45.0088 22.4485 44.9807ZM22.0148 44.3141C22.0148 44.3141 21.9936 44.2925 21.9808 44.286C22.0021 44.3054 22.0233 44.327 22.0425 44.3443C22.034 44.3313 22.0233 44.3227 22.0127 44.3119L22.0148 44.3141ZM70.2381 39.4382C69.2454 38.4306 67.9274 37.8783 66.5244 37.8783C65.1214 37.8783 63.8012 38.4328 62.8085 39.4382C61.6266 40.6377 61.1228 42.2602 61.3035 43.82H56.5311C56.4971 43.82 56.4652 43.82 56.4312 43.82C52.9194 43.8632 49.6159 45.2763 47.1245 47.7941C46.2614 48.6657 45.5281 49.6388 44.9392 50.6851C46.0574 52.6679 46.6675 54.9138 46.7015 57.2547V57.3216C46.7674 51.958 51.07 47.5481 56.3206 47.4036L56.3823 47.4187L56.6034 47.3993H63.9607C63.9756 47.3993 63.9904 47.3993 64.0053 47.3993C64.0457 47.3993 64.0861 47.3993 64.1286 47.3928C64.1733 47.3885 64.2136 47.3842 64.2562 47.3755C64.2668 47.3755 64.2774 47.3712 64.288 47.3691C64.2966 47.3691 64.3051 47.3691 64.3136 47.3626C64.3284 47.3626 64.3433 47.3583 64.3561 47.354C64.388 47.3475 64.4156 47.341 64.4475 47.3302C64.4602 47.3259 64.4709 47.3238 64.4836 47.3173C64.4964 47.3173 64.5113 47.3108 64.5261 47.3044C64.5538 47.2957 64.5793 47.2871 64.6069 47.2741C64.6345 47.2655 64.6579 47.2526 64.6856 47.2396C64.7047 47.2332 64.7238 47.2245 64.7408 47.2116C64.7472 47.2116 64.7536 47.2073 64.7578 47.2029C64.8067 47.1792 64.8578 47.1512 64.9045 47.1188C64.9045 47.1188 64.9045 47.1188 64.9088 47.1145C64.9322 47.1015 64.9577 47.0843 64.9789 47.0692C64.9981 47.0584 65.0151 47.0455 65.0278 47.0325C65.0321 47.026 65.0384 47.0217 65.0448 47.0174C65.0873 46.985 65.1235 46.9527 65.1617 46.916C65.1681 46.9117 65.1724 46.9074 65.1787 46.9009C65.1894 46.8901 65.1979 46.8815 65.2064 46.8729C65.2319 46.8491 65.2532 46.8254 65.2765 46.7995C65.285 46.7909 65.2935 46.7801 65.3042 46.7693C65.3042 46.7693 65.3084 46.7628 65.3105 46.7607C65.3297 46.7369 65.3467 46.7154 65.3594 46.6938C65.3637 46.6895 65.3679 46.683 65.3722 46.6787C65.3828 46.6636 65.3935 46.6485 65.4041 46.6355C65.4083 46.6291 65.4105 46.6247 65.4147 46.6204C65.4317 46.5945 65.4487 46.5708 65.4636 46.5428C65.4636 46.5428 65.4636 46.5384 65.4679 46.5363C65.4891 46.5018 65.5104 46.4672 65.5252 46.4284V46.4219C65.5337 46.409 65.5401 46.3961 65.5465 46.3831C65.5593 46.3572 65.572 46.3313 65.5826 46.3033C65.5954 46.2731 65.606 46.2472 65.6167 46.217C65.6252 46.1911 65.6337 46.1674 65.6422 46.1393C65.6507 46.1113 65.6592 46.0832 65.6677 46.0552V46.0509C65.6847 45.9969 65.6953 45.9387 65.7038 45.8804V45.8739C65.7187 45.7876 65.7251 45.6992 65.7251 45.6086C65.7251 45.4964 65.7144 45.3907 65.6932 45.2871V45.2785C65.6847 45.2375 65.6762 45.2008 65.6677 45.162C65.6634 45.149 65.6592 45.1339 65.6549 45.1188C65.6507 45.1037 65.6464 45.0886 65.6422 45.0735C65.6379 45.0606 65.6337 45.0498 65.6294 45.039C65.6252 45.0217 65.6209 45.0066 65.6145 44.9937C65.6145 44.9872 65.6103 44.9829 65.6082 44.9786C65.6039 44.9635 65.5975 44.9505 65.5933 44.9376C65.589 44.929 65.5869 44.9203 65.5826 44.9117C65.5656 44.8707 65.5486 44.834 65.5295 44.7952C65.5231 44.7801 65.5146 44.765 65.5082 44.752C65.487 44.7132 65.4657 44.6765 65.4423 44.6377C65.419 44.601 65.3977 44.5687 65.3722 44.5341C65.3658 44.5255 65.3594 44.5169 65.3531 44.5082C65.3531 44.5082 65.3531 44.5068 65.3531 44.5039C65.3382 44.4867 65.3254 44.4694 65.3105 44.4543C65.2957 44.4392 65.2808 44.4176 65.2659 44.4025C65.2616 44.3961 65.2553 44.3917 65.251 44.3853C65.2446 44.3766 65.2383 44.3702 65.2298 44.3615C64.6218 43.6733 64.6494 42.6248 65.2999 41.9624C65.6252 41.6323 66.0567 41.4511 66.518 41.4511C66.9793 41.4511 67.4108 41.6323 67.7339 41.9624C68.3908 42.6291 68.4142 43.6906 67.7871 44.3788C67.7807 44.3853 67.7743 44.3917 67.7701 44.4004C67.9784 44.1674 68.2462 43.9905 68.5481 43.8955C68.6735 43.8545 68.8032 43.8308 68.9392 43.82C68.9839 43.8157 69.0307 43.8135 69.0753 43.8135H71.7368C71.9175 42.2558 71.4115 40.6334 70.2296 39.4317L70.2381 39.4382ZM68.7947 47.3691C68.7394 47.3561 68.6841 47.3432 68.6331 47.3281H68.6289C68.5757 47.3108 68.5226 47.2914 68.4716 47.2741C68.4312 47.2569 68.3929 47.2396 68.3547 47.2245C68.2781 47.1857 68.2058 47.1469 68.1357 47.1015C68.0996 47.0778 68.0655 47.0562 68.0315 47.0304C67.9635 46.9807 67.8997 46.9246 67.8423 46.8664C67.8232 46.8448 67.8041 46.8254 67.7849 46.806C67.7509 46.7693 67.7212 46.7326 67.6914 46.6938C67.6595 46.6549 67.634 46.6161 67.6064 46.5751C67.5894 46.5492 67.5745 46.5255 67.5596 46.4996C67.5405 46.4673 67.5214 46.4349 67.5065 46.4004C67.5001 46.3939 67.4958 46.3853 67.4916 46.3766C67.5809 46.5708 67.7063 46.7499 67.8679 46.9074C68.1782 47.2094 68.5715 47.3712 68.969 47.395C68.9137 47.3885 68.8563 47.382 68.8011 47.3691H68.7947ZM67.3534 45.2504C67.3577 45.2202 67.364 45.1943 67.3725 45.1663C67.364 45.1965 67.3577 45.2245 67.3513 45.2526L67.3534 45.2504ZM67.3385 45.3303C67.3385 45.3303 67.3385 45.3367 67.3385 45.341V45.3303ZM67.3194 45.5352V45.5115C67.3194 45.5266 67.3152 45.5438 67.3194 45.5589C67.3194 45.5503 67.3194 45.5417 67.3194 45.5331V45.5352ZM46.6994 62.2191C46.6994 62.2191 46.6994 62.2191 46.7036 62.2191V57.4553C46.7036 57.4122 46.7036 57.369 46.7036 57.3259V62.2191H46.6994ZM46.6994 21.078C46.6994 21.106 46.693 21.1319 46.6909 21.1621V21.1686C46.6909 21.2009 46.6866 21.229 46.6823 21.2613C46.6738 21.3476 46.659 21.4318 46.6377 21.5138C46.6313 21.544 46.6228 21.5699 46.6143 21.6001C46.6016 21.6432 46.5867 21.6842 46.5718 21.7252C46.5123 21.8849 46.4315 22.0359 46.3316 22.1718C46.2912 22.2236 46.2508 22.2754 46.2041 22.3228C46.1955 22.3336 46.187 22.3422 46.1785 22.353C46.1467 22.3854 46.1169 22.4156 46.085 22.4436C46.0808 22.448 46.0765 22.4523 46.0723 22.4566C46.0467 22.4803 46.0212 22.4997 45.9936 22.5213C45.9893 22.5256 45.9851 22.5299 45.9787 22.5343C45.9745 22.5343 45.9723 22.5407 45.9681 22.5429C45.9553 22.5537 45.9426 22.5623 45.9298 22.5709C45.9043 22.5904 45.8809 22.6098 45.8533 22.6227C45.8342 22.6378 45.8129 22.6508 45.7938 22.6615C45.7895 22.6659 45.7831 22.6702 45.7789 22.6702C45.764 22.681 45.7491 22.6896 45.7364 22.6961C45.7172 22.709 45.6981 22.7198 45.6811 22.7284C45.6811 22.7284 45.6811 22.7284 45.6769 22.7284C45.6577 22.7392 45.6386 22.7478 45.6195 22.7565C45.8257 22.6723 46.0191 22.5429 46.1892 22.3724C46.5421 22.0143 46.7142 21.544 46.7036 21.078H46.6994ZM46.6887 26.0855C46.6887 26.0661 46.6845 26.0466 46.6802 26.0294C46.676 26.0013 46.6717 25.9754 46.6653 25.9474C46.6611 25.9258 46.6568 25.9042 46.6505 25.8848C46.5824 25.5849 46.4336 25.3045 46.2125 25.0671C46.1934 25.0456 46.1722 25.024 46.153 25.0067C46.1084 24.9636 46.0659 24.9269 46.0212 24.8902C45.9766 24.8536 45.9277 24.8212 45.8809 24.7888C45.8342 24.7565 45.7853 24.7306 45.7343 24.7047C45.6854 24.6766 45.6343 24.6551 45.5833 24.6356C45.5323 24.6141 45.4792 24.5947 45.426 24.5817C45.375 24.5666 45.3197 24.5537 45.2666 24.5429C45.1582 24.5213 45.0498 24.5105 44.9413 24.5105C44.8329 24.5105 44.7224 24.5213 44.614 24.5429C44.5651 24.5515 44.5141 24.5645 44.4673 24.5774C44.4588 24.5774 44.4503 24.5817 44.4418 24.586C44.4056 24.5968 44.3716 24.6076 44.3355 24.6227C44.3355 24.6227 44.3341 24.6227 44.3312 24.6227C44.3312 24.6227 44.3312 24.6227 44.327 24.6227C44.3079 24.6292 44.2887 24.6378 44.2717 24.6464C44.2653 24.6464 44.2611 24.6507 44.2547 24.6529C44.2547 24.6529 44.2547 24.6529 44.2547 24.6572C44.2505 24.6572 44.2462 24.6572 44.242 24.6615C44.2207 24.6702 44.1994 24.6788 44.1803 24.6896C44.1803 24.6896 44.1789 24.6896 44.1761 24.6896C44.1548 24.6982 44.1335 24.7112 44.1123 24.7241C44.1038 24.7284 44.0953 24.7327 44.0889 24.737C44.0698 24.7478 44.0506 24.7586 44.0336 24.7716C44.0294 24.7716 44.0273 24.7716 44.0251 24.7759C44.006 24.7888 43.9847 24.8039 43.9677 24.8147C43.9443 24.8298 43.9231 24.8471 43.8997 24.8643C43.8997 24.8643 43.8997 24.8643 43.8955 24.8687C43.8784 24.8794 43.8614 24.8924 43.8466 24.9053C43.8466 24.9053 43.8402 24.9118 43.8381 24.914C43.8147 24.9334 43.7934 24.9528 43.77 24.9744C43.77 24.9744 43.7658 24.9744 43.7658 24.9787C43.7615 24.9787 43.7552 24.9852 43.7509 24.9916C43.7466 24.9959 43.7403 25.0003 43.736 25.0046C43.0558 25.6302 42.0184 25.6022 41.3637 24.942C40.694 24.2602 40.694 23.1491 41.3637 22.4695C42.0205 21.805 43.06 21.7791 43.7381 22.4048C43.7275 22.394 43.719 22.3832 43.7084 22.3746C43.6085 22.2732 43.5213 22.1589 43.4469 22.038C43.4257 22.0035 43.4065 21.969 43.3895 21.9345C43.3576 21.8741 43.33 21.8072 43.3045 21.7425C43.2854 21.695 43.2683 21.6454 43.2577 21.5979C43.2577 21.5936 43.2577 21.5914 43.2535 21.5871C43.2407 21.5397 43.228 21.4879 43.2195 21.4361C43.2088 21.3822 43.2003 21.3261 43.1961 21.2721C43.1897 21.2182 43.1876 21.1621 43.1876 21.106V18.407C41.6528 18.2236 40.0563 18.7371 38.8701 19.9366C36.8251 22.0165 36.8251 25.3972 38.8701 27.4771C39.899 28.5191 41.2425 29.0434 42.586 29.0434C42.7879 29.0434 42.9877 29.0304 43.1876 29.0046V33.7661C43.1876 33.8114 43.1876 33.8589 43.1876 33.9042C43.1876 33.9646 43.1876 34.025 43.1961 34.0833C43.2003 34.1372 43.2088 34.1955 43.2173 34.2494C43.2428 34.3745 43.2769 34.4954 43.3257 34.6097C43.3449 34.655 43.364 34.6982 43.3853 34.7435C43.5532 35.0692 43.8168 35.3389 44.1399 35.5094C44.1867 35.5353 44.2398 35.5568 44.2908 35.5784C44.3419 35.6021 44.3971 35.6194 44.4503 35.6345C44.4779 35.6431 44.5034 35.6496 44.5332 35.6582C44.6161 35.6798 44.7011 35.6949 44.7883 35.7014C44.8202 35.7014 44.8478 35.7057 44.8776 35.7079C44.9031 35.7079 44.9265 35.7079 44.952 35.7079C44.9754 35.7079 44.9987 35.7079 45.0221 35.7079C45.0519 35.7079 45.0795 35.7036 45.1114 35.7014C45.1986 35.6949 45.2836 35.6798 45.3665 35.6582C45.3963 35.6496 45.4218 35.6431 45.4494 35.6345C45.5025 35.6194 45.5578 35.6 45.6088 35.5784C45.6598 35.5568 45.713 35.5331 45.7598 35.5094C46.0808 35.3411 46.3465 35.0714 46.5144 34.7435C46.5357 34.7003 46.5569 34.6572 46.5739 34.6097C46.6207 34.4954 46.6568 34.3745 46.6823 34.2494C46.6909 34.1955 46.6994 34.1372 46.7036 34.0833C46.7079 34.0509 46.7079 34.0229 46.71 33.9927C46.7121 33.9625 46.71 33.9344 46.71 33.9042C46.71 33.8589 46.71 33.8093 46.71 33.7661V26.2991C46.71 26.2279 46.7057 26.1567 46.6972 26.0833L46.6887 26.0855ZM44.5778 22.8579C44.5778 22.8579 44.5693 22.8579 44.5651 22.8579C44.58 22.8622 44.597 22.8665 44.6097 22.8687C44.5991 22.8687 44.5885 22.8643 44.5778 22.86V22.8579ZM44.1697 22.7176H44.1654H44.1718H44.1697ZM25.9092 43.82C25.8837 43.82 25.8582 43.82 25.8327 43.8243C25.8604 43.8243 25.8837 43.8243 25.9114 43.8243H33.3707C33.3367 43.8243 33.3006 43.8243 33.2666 43.8243H25.9092V43.82ZM25.3884 43.902C25.4161 43.8934 25.4416 43.8847 25.4713 43.8783C25.4968 43.8696 25.5202 43.8632 25.5479 43.8588C25.5054 43.8653 25.465 43.8761 25.4224 43.8891C25.4097 43.8934 25.3969 43.8955 25.3863 43.902H25.3884ZM25.1886 43.9754C25.2014 43.971 25.2141 43.9667 25.2269 43.9624C25.2524 43.9495 25.2779 43.9387 25.3055 43.93C25.3183 43.9236 25.3332 43.9171 25.348 43.9128C25.3204 43.9214 25.2949 43.9322 25.2673 43.943C25.2396 43.9516 25.2162 43.9646 25.1907 43.9754H25.1886ZM25.1142 44.0142C25.093 44.025 25.0717 44.0336 25.0526 44.0487C25.0589 44.0487 25.0653 44.0422 25.0717 44.0401C25.0972 44.025 25.1206 44.012 25.1482 43.9991C25.161 43.9905 25.1737 43.984 25.1886 43.9775C25.1695 43.9861 25.1503 43.9948 25.1333 44.0056C25.127 44.0056 25.1206 44.012 25.1163 44.0142H25.1142ZM24.8953 44.148C24.908 44.1415 24.9186 44.1328 24.9314 44.1264C24.9548 44.1113 24.9739 44.0962 24.9994 44.0811C24.9994 44.0811 24.9994 44.0811 25.0037 44.0768C24.9909 44.0832 24.9782 44.0919 24.9675 44.0983C24.942 44.1134 24.9208 44.1307 24.8953 44.1458V44.148ZM24.789 44.2321C24.789 44.2321 24.7953 44.2256 24.7996 44.2256C24.8145 44.2127 24.8315 44.1997 24.8464 44.1846C24.84 44.1889 24.8315 44.1933 24.8251 44.1997C24.8123 44.2105 24.7996 44.2191 24.7868 44.2321H24.789ZM24.6933 44.3162C24.6933 44.3162 24.672 44.3357 24.6635 44.3486C24.6848 44.327 24.7039 44.3076 24.7252 44.2903C24.7443 44.2688 24.7656 44.2494 24.7868 44.2343C24.7592 44.2558 24.7337 44.2774 24.7082 44.3033C24.7018 44.3076 24.6976 44.3141 24.6912 44.3184L24.6933 44.3162ZM24.4425 44.6226C24.3808 44.7154 24.3277 44.8125 24.2894 44.9139C24.3319 44.8103 24.3851 44.7132 24.4425 44.6226ZM24.2533 45.0023C24.2639 44.9743 24.2724 44.9505 24.2852 44.9246C24.2788 44.9376 24.2724 44.9505 24.2682 44.9635C24.2618 44.9764 24.2575 44.9894 24.2533 45.0045V45.0023ZM24.1767 45.9387C24.1767 45.9387 24.181 45.9624 24.1831 45.9753C24.1831 45.9797 24.1831 45.984 24.1874 45.9883C24.1831 45.9732 24.181 45.9581 24.1789 45.9451C24.1789 45.9451 24.1789 45.9437 24.1789 45.9408L24.1767 45.9387ZM24.1534 45.4532C24.147 45.505 24.1449 45.5589 24.1449 45.6107C24.1449 45.6258 24.1449 45.6431 24.1449 45.6582C24.1449 45.6733 24.1449 45.6884 24.1449 45.7035C24.1449 45.7337 24.1491 45.7617 24.1512 45.7941C24.1576 45.8373 24.1619 45.8826 24.1704 45.9257C24.1534 45.8222 24.1427 45.7164 24.1427 45.6129C24.1427 45.5611 24.1427 45.505 24.1491 45.4532H24.1534ZM22.5463 45.4317C22.5463 45.4317 22.5463 45.4317 22.5463 45.436C22.5463 45.423 22.5463 45.4122 22.542 45.4014C22.542 45.4122 22.542 45.4209 22.542 45.4317H22.5463ZM22.5101 46.0012C22.5101 46.0012 22.5059 46.0228 22.5038 46.0336C22.5186 45.9883 22.5271 45.943 22.5335 45.8977C22.5293 45.9214 22.525 45.943 22.5186 45.9646C22.5186 45.9775 22.5144 45.9904 22.5101 46.0034V46.0012ZM22.4464 44.998C22.457 45.0196 22.4655 45.0433 22.4719 45.0627C22.4634 45.0347 22.4549 45.0109 22.4421 44.9829C22.4421 44.9872 22.4464 44.9937 22.4464 44.998ZM21.9744 44.2882C21.9957 44.3076 22.017 44.3292 22.0361 44.3464C22.0276 44.3335 22.017 44.3249 22.0063 44.3141C21.9957 44.3033 21.9851 44.2925 21.9723 44.286L21.9744 44.2882ZM88.7898 52.1997C87.5972 49.3302 85.5905 47.0627 83.1012 45.6107C85.5926 44.1609 87.5951 41.8934 88.7876 39.0261C90.89 33.9754 89.8888 28.3875 86.1644 24.4307C86.0858 24.3487 86.005 24.2646 85.9221 24.1804C82.9354 21.1491 78.9623 19.4793 74.7405 19.4793C73.0866 19.4793 71.471 19.736 69.9384 20.2301C71.6624 14.6961 70.3656 8.39193 66.0461 4.00792C65.9589 3.91947 65.8717 3.83101 65.7803 3.74687C61.9093 -0.00931494 56.4205 -1.02765 51.4568 1.08885C48.6189 2.29704 46.372 4.33586 44.9392 6.87307C43.5064 4.33802 41.2616 2.29704 38.4237 1.08885C33.4536 -1.02981 27.9606 -0.00715736 24.0875 3.74903C23.9982 3.83532 23.9089 3.92378 23.8217 4.01224C19.5064 8.39194 18.2139 14.694 19.9358 20.2279C18.4031 19.736 16.7897 19.4771 15.1337 19.4771C10.9098 19.4771 6.93881 21.147 3.95209 24.1783C3.86919 24.2624 3.79053 24.3444 3.697 24.4415C-0.0167357 28.3854 -1.01798 33.9732 1.08229 39.0218C2.27485 41.8912 4.27946 44.1587 6.77087 45.6086C4.27734 47.0606 2.2706 49.3345 1.07804 52.2083C-1.01585 57.2547 -0.0146104 62.8383 3.69487 66.7778L3.71826 66.8037C3.79478 66.8814 3.87131 66.9612 3.94997 67.041C6.93668 70.0723 10.9098 71.7422 15.1316 71.7422C16.7875 71.7422 18.4031 71.4855 19.9337 70.9914C18.2097 76.5275 19.5064 82.8295 23.8217 87.2092L23.9046 87.2933C23.9663 87.3516 24.0279 87.4142 24.0811 87.4638C26.6193 89.9276 29.8526 91.2178 33.1794 91.2178C34.9289 91.2178 36.7061 90.8597 38.4173 90.1304C41.2552 88.9223 43.5022 86.8834 44.9371 84.3462C46.372 86.8813 48.6168 88.9223 51.4547 90.1304C53.1681 90.8618 54.9431 91.2178 56.6948 91.2178C60.0195 91.2178 63.2528 89.9298 65.7888 87.4703C65.8781 87.384 65.9674 87.2955 66.0546 87.2071C70.3699 82.8274 71.6645 76.5253 69.9405 70.9914C71.4753 71.4833 73.0888 71.7422 74.7426 71.7422C78.9665 71.7422 82.9375 70.0723 85.9263 67.0389C86.0029 66.9612 86.0794 66.8814 86.1538 66.8037L86.1793 66.7778C89.893 62.8339 90.8922 57.246 88.7919 52.1975L88.7898 52.1997ZM4.33261 37.6302C2.78929 33.9172 3.52056 29.8115 6.23518 26.9269C6.3032 26.8557 6.37335 26.7823 6.44563 26.709C8.76698 24.353 11.8515 23.0564 15.1337 23.0564C17.8696 23.0564 20.4673 23.9582 22.6015 25.6195C22.9332 25.8805 23.3307 26.0056 23.7239 26.0056C24.215 26.0056 24.7061 25.8115 25.0759 25.4361C25.7498 24.7521 25.8008 23.6756 25.2226 22.9053C21.562 18.023 21.9255 11.0003 26.3174 6.54081C26.3833 6.47393 26.4492 6.40921 26.5215 6.33801C29.37 3.57858 33.4047 2.82994 37.059 4.38764C40.7791 5.97124 43.1195 9.47715 43.1769 13.5397V13.557C43.1769 13.6023 43.1769 13.6497 43.1769 13.6972V18.4005C41.6421 18.2171 40.0457 18.7306 38.8595 19.9302C36.8145 22.01 36.8145 25.3908 38.8595 27.4706C39.8884 28.5126 41.2319 29.0369 42.5753 29.0369C42.7773 29.0369 42.9771 29.024 43.1769 28.9981V33.7597C43.1769 33.805 43.1769 33.8524 43.1769 33.8977C43.1769 33.9581 43.1769 34.0186 43.1854 34.0768C43.1897 34.1307 43.1982 34.189 43.2067 34.2429C43.2322 34.3681 43.2662 34.4889 43.3151 34.6032C43.3342 34.6485 43.3534 34.6917 43.3746 34.737C43.5426 35.0628 43.8062 35.3325 44.1293 35.5029C44.1761 35.5288 44.2292 35.5504 44.2802 35.5719C44.3312 35.5957 44.3865 35.6129 44.4397 35.628C44.4673 35.6367 44.4928 35.6431 44.5226 35.6518C44.6055 35.6733 44.6905 35.6884 44.7777 35.6949C44.8095 35.6949 44.8372 35.6992 44.8669 35.7014C44.8924 35.7014 44.9158 35.7014 44.9413 35.7014C44.9647 35.7014 44.9881 35.7014 45.0115 35.7014C45.0413 35.7014 45.0689 35.6971 45.1008 35.6949C45.1879 35.6884 45.273 35.6733 45.3559 35.6518C45.3856 35.6431 45.4111 35.6367 45.4388 35.628C45.4919 35.6129 45.5472 35.5935 45.5982 35.5719C45.6492 35.5504 45.7024 35.5266 45.7491 35.5029C46.0701 35.3346 46.3358 35.0649 46.5038 34.737C46.525 34.6938 46.5463 34.6507 46.5633 34.6032C46.6101 34.4889 46.6462 34.3681 46.6717 34.2429C46.6802 34.189 46.6887 34.1307 46.693 34.0768C46.6972 34.0444 46.6972 34.0164 46.6994 33.9862C46.7015 33.956 46.6994 33.9279 46.6994 33.8977C46.6994 33.8524 46.6994 33.8028 46.6994 33.7597V26.2926C46.6994 26.2214 46.6951 26.1502 46.6866 26.0768C46.6866 26.0574 46.6824 26.038 46.6781 26.0208C46.6738 25.9927 46.6696 25.9668 46.6632 25.9388C46.659 25.9172 46.6547 25.8956 46.6483 25.8762C46.5803 25.5763 46.4315 25.2958 46.2104 25.0585C46.1913 25.0369 46.17 25.0154 46.1509 24.9981C46.1063 24.955 46.0637 24.9183 46.0191 24.8816C45.9745 24.8449 45.9256 24.8126 45.8788 24.7802C45.832 24.7478 45.7831 24.7219 45.7321 24.6961C45.6832 24.668 45.6322 24.6464 45.5812 24.627C45.5302 24.6054 45.477 24.586 45.4239 24.5731C45.3729 24.558 45.3176 24.545 45.2645 24.5342C45.156 24.5127 45.0476 24.5019 44.9392 24.5019C44.8308 24.5019 44.7203 24.5127 44.6118 24.5342C44.563 24.5429 44.5119 24.5558 44.4652 24.5688C44.4567 24.5688 44.4482 24.5731 44.4397 24.5774C44.4035 24.5882 44.3695 24.599 44.3334 24.6141C44.3334 24.6141 44.3319 24.6141 44.3291 24.6141C44.3291 24.6141 44.3291 24.6141 44.3249 24.6141C44.3057 24.6205 44.2866 24.6292 44.2696 24.6378C44.2632 24.6378 44.259 24.6421 44.2526 24.6443C44.2526 24.6443 44.2526 24.6443 44.2526 24.6486C44.2483 24.6486 44.2441 24.6486 44.2398 24.6529C44.2186 24.6615 44.1973 24.6702 44.1782 24.681C44.1782 24.681 44.1768 24.681 44.1739 24.681C44.1527 24.6896 44.1314 24.7025 44.1102 24.7155C44.1017 24.7198 44.0932 24.7241 44.0868 24.7284C44.0676 24.7392 44.0485 24.75 44.0315 24.7629C44.0273 24.7629 44.0251 24.7629 44.023 24.7673C44.0039 24.7802 43.9826 24.7953 43.9656 24.8061C43.9422 24.8212 43.921 24.8384 43.8976 24.8557C43.8976 24.8557 43.8976 24.8557 43.8933 24.86C43.8763 24.8708 43.8593 24.8838 43.8444 24.8967C43.8444 24.8967 43.8381 24.9032 43.8359 24.9053C43.8126 24.9247 43.7913 24.9442 43.7679 24.9657C43.7679 24.9657 43.7637 24.9657 43.7637 24.9701C43.7594 24.9701 43.753 24.9765 43.7488 24.983C43.7445 24.9873 43.7381 24.9916 43.7339 24.9959C43.0536 25.6216 42.0163 25.5936 41.3615 24.9334C40.6919 24.2516 40.6919 23.1405 41.3615 22.4609C42.0184 21.7964 43.0579 21.7705 43.736 22.3962C43.7445 22.4048 43.753 22.4134 43.7637 22.4199C43.8062 22.4609 43.8487 22.4976 43.8933 22.5299C43.9167 22.5515 43.9401 22.5688 43.9656 22.5817C43.972 22.5882 43.9784 22.5925 43.9847 22.5947C44.0039 22.6098 44.023 22.6227 44.0421 22.6335C44.0506 22.64 44.0591 22.6464 44.0698 22.6508C44.0783 22.6572 44.0889 22.6637 44.0995 22.6659C44.0995 22.6702 44.1038 22.6723 44.108 22.6702H44.1123V22.6745C44.1335 22.6874 44.1548 22.6982 44.1739 22.7069C44.1739 22.7069 44.1754 22.7069 44.1782 22.7069H44.1846C44.1994 22.7133 44.2143 22.722 44.2271 22.7284C44.2335 22.7284 44.2377 22.7327 44.2441 22.7349H44.2632C44.2866 22.7478 44.3079 22.7586 44.3312 22.7651C44.3631 22.7781 44.3929 22.7888 44.4248 22.7996C44.446 22.8061 44.4673 22.8126 44.4907 22.819C44.497 22.819 44.5013 22.8234 44.5077 22.8234C44.5268 22.8298 44.5459 22.8341 44.5608 22.8363H44.5714C44.5863 22.8406 44.6033 22.8449 44.6161 22.8471C44.6692 22.8579 44.7245 22.8665 44.7798 22.8708C44.8329 22.8773 44.8882 22.8795 44.9413 22.8795H44.9456C44.9924 22.8795 45.0412 22.8795 45.088 22.873C45.105 22.873 45.122 22.873 45.1369 22.8665C45.1815 22.8622 45.2241 22.8557 45.2666 22.8471C45.273 22.8471 45.2793 22.8471 45.2836 22.8471C45.324 22.8385 45.3622 22.8298 45.4026 22.8169C45.4281 22.8104 45.4494 22.8039 45.4749 22.7953C45.5047 22.7867 45.5323 22.7759 45.5621 22.7629C45.5833 22.7543 45.6025 22.7478 45.6216 22.7371C45.8278 22.6529 46.0212 22.5235 46.1913 22.353C46.5442 21.9949 46.7164 21.5246 46.7057 21.0585V21.0521C46.7057 21.0477 46.7057 21.0413 46.7057 21.037V13.6821C46.7057 13.6346 46.7057 13.5872 46.7057 13.5419C46.7057 13.5354 46.7057 13.5311 46.7057 13.5246C46.7631 9.46205 49.1057 5.95613 52.8237 4.37254C56.4779 2.81483 60.5148 3.56348 63.3612 6.32291L63.3846 6.34664C63.4441 6.40273 63.5036 6.46314 63.5632 6.52355C67.9571 10.9831 68.3228 18.0078 64.6579 22.8902C64.3922 23.2441 64.2604 23.6626 64.2604 24.0812C64.2604 24.5688 64.4432 25.052 64.8067 25.421C65.4721 26.0963 66.535 26.1869 67.2833 25.6044C69.4154 23.9431 72.0131 23.0413 74.749 23.0413C78.0312 23.0413 81.1157 24.3379 83.4349 26.6917C83.5072 26.7651 83.5752 26.8363 83.6347 26.8988C86.3621 29.7942 87.0955 33.8999 85.5479 37.6151C83.9791 41.3885 80.5205 43.7574 76.524 43.8049C76.5049 43.8049 76.4836 43.8049 76.4666 43.8049H71.7495C71.9302 42.2472 71.4243 40.6248 70.2423 39.4231C69.2496 38.4155 67.9316 37.8632 66.5286 37.8632C65.1256 37.8632 63.8055 38.4177 62.8128 39.4231C61.6308 40.6226 61.127 42.245 61.3077 43.8049H56.5353C56.5013 43.8049 56.4694 43.8049 56.4354 43.8049C52.9236 43.8481 49.6202 45.2612 47.1288 47.779C46.2657 48.6506 45.5323 49.6237 44.9435 50.67C44.3525 49.6258 43.6234 48.6571 42.7624 47.7833C40.2753 45.2655 36.976 43.8524 33.4685 43.8049C33.4366 43.8049 33.409 43.8049 33.3771 43.8049C33.3431 43.8049 33.307 43.8049 33.2729 43.8049H25.9156C25.8901 43.8049 25.8646 43.8049 25.8391 43.8092C25.8093 43.8092 25.7817 43.8092 25.7519 43.8135C25.7477 43.8135 25.7434 43.8135 25.7371 43.8135C25.7073 43.8135 25.6797 43.82 25.6499 43.8265C25.6201 43.8308 25.5946 43.8351 25.5649 43.8416C25.5606 43.8416 25.5585 43.8416 25.5542 43.8416C25.5117 43.8481 25.4713 43.8588 25.4288 43.8718C25.4161 43.8761 25.4033 43.8783 25.3927 43.8847C25.3778 43.889 25.3629 43.8934 25.3502 43.8977C25.3225 43.9063 25.297 43.9171 25.2694 43.9279C25.2418 43.9365 25.2184 43.9495 25.1929 43.9602C25.1737 43.971 25.1546 43.9797 25.1376 43.9905C25.1312 43.9905 25.1248 43.9969 25.1206 43.9991C25.0993 44.0099 25.0781 44.0185 25.0589 44.0336C25.0526 44.0336 25.0483 44.0401 25.0419 44.0444C25.0292 44.0509 25.0185 44.0573 25.0079 44.0638C24.9952 44.0703 24.9824 44.0789 24.9718 44.0854C24.9463 44.1005 24.925 44.1177 24.8995 44.1328C24.8868 44.1458 24.8761 44.1544 24.8634 44.1652C24.8634 44.1652 24.8591 44.1652 24.857 44.1695C24.857 44.1695 24.857 44.1695 24.8527 44.1695C24.8464 44.1738 24.8379 44.1782 24.8315 44.1846C24.8187 44.1954 24.806 44.204 24.7932 44.217C24.7656 44.2386 24.7401 44.2601 24.7146 44.286C24.7082 44.2903 24.7039 44.2968 24.6976 44.3011C24.6869 44.3119 24.6763 44.3205 24.6678 44.3335C24.6465 44.3529 24.6274 44.3723 24.6104 44.3939C24.6019 44.4025 24.5955 44.409 24.5891 44.4176C24.5764 44.4306 24.5636 44.4457 24.553 44.4608C24.5275 44.491 24.5062 44.519 24.485 44.5514C24.4765 44.56 24.4701 44.5708 24.4637 44.5816C24.4595 44.5902 24.4531 44.5989 24.4446 44.6097C24.3829 44.7024 24.3298 44.7995 24.2915 44.9009C24.2915 44.9052 24.2873 44.9074 24.2873 44.9117C24.2809 44.9246 24.2745 44.9376 24.2703 44.9505C24.2639 44.9635 24.2596 44.9764 24.2554 44.9915C24.2448 45.0196 24.2363 45.0455 24.2278 45.0735C24.2086 45.1296 24.1937 45.19 24.1831 45.2504C24.1746 45.2979 24.1661 45.3497 24.1597 45.3993C24.1597 45.4079 24.1597 45.4165 24.1597 45.4252C24.1597 45.4317 24.1597 45.4381 24.1597 45.4446C24.1534 45.4964 24.1512 45.5503 24.1512 45.6021C24.1512 45.6172 24.1512 45.6345 24.1512 45.6496C24.1512 45.6647 24.1512 45.6798 24.1512 45.6949C24.1512 45.7251 24.1555 45.7531 24.1576 45.7855C24.164 45.8286 24.1682 45.8739 24.1767 45.9171C24.1767 45.9214 24.1767 45.9279 24.1767 45.9279C24.1767 45.9387 24.181 45.9516 24.1831 45.9646C24.1831 45.9689 24.1831 45.9732 24.1874 45.9775C24.1916 46.0034 24.198 46.025 24.2044 46.0509C24.2044 46.0616 24.2086 46.0703 24.2129 46.0811C24.2129 46.0897 24.2171 46.1005 24.2214 46.1091C24.2278 46.1285 24.232 46.1479 24.2384 46.1652C24.2448 46.1825 24.249 46.2019 24.2575 46.2191C24.266 46.2472 24.2767 46.2731 24.2894 46.299C24.2979 46.3184 24.3064 46.3378 24.3149 46.3551C24.3213 46.3745 24.3298 46.3917 24.3404 46.4047C24.3617 46.4478 24.3829 46.4888 24.4063 46.5298C24.4106 46.5363 24.4148 46.5428 24.417 46.5471C24.4446 46.5902 24.4701 46.6312 24.4999 46.6722C24.5062 46.6808 24.5126 46.6916 24.5211 46.7003C24.5488 46.7369 24.5764 46.7715 24.6083 46.806C24.6147 46.8124 24.6189 46.8189 24.6253 46.8254C25.2545 47.5158 25.2311 48.5773 24.5764 49.2461C24.2511 49.5762 23.8196 49.7574 23.3562 49.7574C22.8928 49.7574 22.4634 49.5762 22.1381 49.2461C21.4813 48.5794 21.46 47.5179 22.0871 46.8297C22.0935 46.8211 22.102 46.8146 22.1062 46.806C22.1721 46.7348 22.2317 46.6571 22.2805 46.5773L22.3103 46.532C22.3103 46.532 22.3188 46.5212 22.3188 46.5147C22.3422 46.4802 22.3613 46.4435 22.3783 46.4068C22.3975 46.3723 22.4123 46.3378 22.4251 46.299C22.4379 46.2731 22.4485 46.2472 22.457 46.2191C22.4697 46.1846 22.4825 46.1501 22.4931 46.1134C22.4995 46.0918 22.5038 46.0746 22.508 46.0552C22.508 46.0444 22.5144 46.0358 22.5144 46.025C22.5293 45.9797 22.5378 45.9343 22.5441 45.889C22.5484 45.8653 22.5526 45.8416 22.5526 45.8157C22.5569 45.8006 22.559 45.7855 22.559 45.7704C22.559 45.7553 22.5633 45.7402 22.559 45.7272C22.5633 45.6884 22.5654 45.6496 22.5654 45.6107V45.6064C22.5654 45.5611 22.5654 45.5158 22.559 45.4726C22.559 45.4575 22.559 45.4424 22.559 45.4295C22.559 45.4166 22.559 45.4058 22.5548 45.395C22.5484 45.3475 22.542 45.3 22.5314 45.2526V45.2461C22.5208 45.2008 22.508 45.1512 22.4953 45.1059C22.491 45.0908 22.4889 45.0735 22.4825 45.0584C22.474 45.0304 22.4655 45.0066 22.4527 44.9786C22.4442 44.957 22.4357 44.9333 22.4251 44.9139C22.4166 44.8923 22.406 44.8729 22.3953 44.8534C22.3826 44.8254 22.3698 44.7995 22.355 44.7715C22.3507 44.7628 22.3464 44.7564 22.3422 44.7499C22.3422 44.7413 22.3358 44.7326 22.3294 44.7262C22.3146 44.696 22.2976 44.6679 22.2805 44.6399C22.2699 44.6204 22.2572 44.601 22.2444 44.5859C22.2338 44.5687 22.221 44.5514 22.2083 44.5363C22.2083 44.532 22.204 44.5277 22.1998 44.5234C22.1551 44.4608 22.0999 44.3982 22.0446 44.3443C22.0361 44.3313 22.0255 44.3227 22.0148 44.3119C22.0042 44.3011 21.9936 44.2903 21.9808 44.2839C21.9808 44.2774 21.9744 44.2731 21.9702 44.2731C21.9553 44.2558 21.9383 44.2429 21.9255 44.2321C21.9255 44.2256 21.9192 44.2235 21.917 44.2256C21.8958 44.2084 21.8745 44.1889 21.8511 44.1738C21.8278 44.1523 21.8065 44.135 21.7831 44.1242C21.7597 44.1091 21.7363 44.0919 21.713 44.0789C21.6875 44.0617 21.6641 44.0465 21.6386 44.0358C21.6131 44.0207 21.5897 44.0077 21.562 43.9948C21.5578 43.9905 21.5535 43.9861 21.5472 43.9861C21.5301 43.9753 21.5131 43.9689 21.4961 43.9624C21.4919 43.9581 21.4898 43.9581 21.4855 43.9581C21.4579 43.9451 21.4324 43.9344 21.4047 43.9257C21.3218 43.8912 21.2389 43.8696 21.1539 43.8524C21.1284 43.8481 21.105 43.8437 21.0774 43.8394C21.0391 43.8308 21.003 43.8265 20.9647 43.8243C20.9519 43.8243 20.9413 43.8243 20.9286 43.8243H20.9137C20.8945 43.8243 20.8754 43.82 20.8584 43.82C20.8393 43.82 20.8201 43.82 20.8031 43.82H20.784C20.7691 43.82 20.7542 43.82 20.7394 43.82H13.5011C13.4671 43.82 13.4373 43.82 13.4033 43.82H13.3502C9.35157 43.7639 5.90143 41.3928 4.33686 37.6302H4.33261ZM37.0547 86.8316C33.4026 88.3872 29.3658 87.6385 26.513 84.8705C26.4705 84.8273 26.4237 84.7842 26.3812 84.7389L26.3131 84.672C21.9255 80.2125 21.562 73.1942 25.2226 68.3118C25.4883 67.958 25.6201 67.5394 25.6201 67.1209C25.6201 66.6333 25.4373 66.15 25.0738 65.7811C24.4084 65.1058 23.3456 65.0152 22.5994 65.5977C20.4651 67.2589 17.8674 68.1608 15.1316 68.1608C11.8494 68.1608 8.76485 66.8641 6.4435 64.5081C6.37548 64.4391 6.30958 64.3722 6.24581 64.3032C3.52056 61.4122 2.78717 57.3086 4.32835 53.5956C5.89718 49.8157 9.36857 47.4403 13.382 47.3993H18.131C17.9503 48.9591 18.4563 50.5794 19.6403 51.7811C20.6331 52.7887 21.9511 53.341 23.3541 53.341C24.7571 53.341 26.0772 52.7865 27.0699 51.7811C28.2519 50.5794 28.7578 48.9591 28.5771 47.3993H33.3941C38.7022 47.464 43.0749 51.8761 43.1748 57.2547V57.287C43.1748 57.287 43.1748 57.2978 43.1748 57.3043C43.1748 57.3086 43.1748 57.3151 43.1748 57.3194C43.1748 57.3194 43.1748 57.3208 43.1748 57.3237C43.1748 57.3669 43.1748 57.41 43.1748 57.4532V64.9202C43.1748 64.9763 43.1748 65.0346 43.1833 65.0928C43.1833 65.1209 43.1876 65.1468 43.1939 65.177C43.1939 65.205 43.2025 65.2331 43.2088 65.2633C43.2195 65.3172 43.2322 65.3755 43.2492 65.4294C43.2598 65.4661 43.2726 65.5006 43.2854 65.5351C43.2854 65.5416 43.2896 65.548 43.2917 65.5524C43.2981 65.5739 43.3066 65.5934 43.3151 65.6128V65.6171C43.33 65.6559 43.347 65.6904 43.364 65.7271C43.3725 65.7465 43.3831 65.7638 43.3938 65.7789C43.4108 65.8156 43.4299 65.8458 43.4512 65.8803C43.4512 65.8803 43.4512 65.8868 43.4554 65.8889C43.4618 65.8997 43.4703 65.9105 43.4767 65.9213C43.5064 65.9666 43.5362 66.0098 43.5723 66.0507C43.5893 66.0723 43.6064 66.0939 43.6234 66.1112C43.6446 66.137 43.668 66.1608 43.6914 66.1867C43.7169 66.2126 43.7403 66.2341 43.7658 66.2557C43.7849 66.2751 43.8062 66.2924 43.8253 66.3075C43.8678 66.3442 43.9082 66.3744 43.9528 66.4046C43.9635 66.411 43.9741 66.4197 43.9847 66.4261L43.9932 66.4305C44.0273 66.4542 44.057 66.4736 44.0932 66.4887C44.1102 66.4995 44.1272 66.5103 44.1442 66.5189C44.1803 66.5383 44.2143 66.5556 44.2526 66.5685C44.2526 66.5685 44.2526 66.5685 44.2568 66.5685C44.2781 66.5772 44.2972 66.5858 44.3164 66.5923C44.3227 66.5923 44.327 66.5966 44.3334 66.5987C44.3695 66.6117 44.4014 66.6246 44.4375 66.6354C44.4737 66.6462 44.5056 66.6548 44.5417 66.6635C44.5629 66.6678 44.5842 66.6721 44.6033 66.6764C44.631 66.6829 44.6586 66.6872 44.6884 66.6915C44.716 66.6958 44.7415 66.7001 44.7713 66.7023C44.8265 66.7088 44.8839 66.7109 44.9392 66.7109C45.0498 66.7109 45.1582 66.7001 45.2666 66.6786C45.2963 66.6743 45.3218 66.6678 45.3516 66.6592C45.3729 66.6548 45.3941 66.6505 45.4133 66.6441C45.4218 66.6441 45.4303 66.6397 45.4388 66.6354C45.443 66.6354 45.4494 66.6354 45.4537 66.6311C45.4579 66.6311 45.4643 66.6268 45.4685 66.6246C45.4962 66.6182 45.5195 66.6095 45.5451 66.5987C45.5451 66.5987 45.5465 66.5987 45.5493 66.5987C45.5642 66.5944 45.5812 66.5901 45.594 66.5815C45.6046 66.5772 45.6152 66.5729 45.6258 66.5685C45.6343 66.5685 45.6407 66.5621 45.6471 66.5577C45.6513 66.5577 45.6556 66.5577 45.662 66.5513C45.6854 66.5426 45.7066 66.5297 45.7279 66.5189C45.7406 66.5146 45.7513 66.5081 45.764 66.4995C45.764 66.4995 45.7746 66.4952 45.7789 66.4909C45.8044 66.4779 45.8257 66.465 45.849 66.4499C45.8724 66.4348 45.8937 66.4197 45.9149 66.4046L45.9192 66.4003C45.9596 66.3744 45.9957 66.3485 46.0319 66.3161C46.0467 66.3053 46.0616 66.2945 46.0744 66.2816C46.0893 66.2686 46.1041 66.2557 46.1169 66.2428C46.1169 66.2428 46.1211 66.2428 46.1233 66.2363C46.1339 66.2298 46.1424 66.2212 46.1509 66.2126C46.829 65.5869 47.8664 65.6149 48.5211 66.2751C48.8464 66.6052 49.025 67.0432 49.025 67.5114C49.025 67.9795 48.8464 68.4197 48.5233 68.7476C47.8664 69.4121 46.829 69.438 46.1488 68.8123C46.1403 68.8037 46.1318 68.7951 46.1211 68.7886C46.0935 68.7605 46.0659 68.7347 46.034 68.7131C46.0212 68.7023 46.0064 68.6915 45.9915 68.6786C45.9681 68.6591 45.9447 68.6397 45.9192 68.6268L45.9149 68.6225C45.9107 68.6225 45.9064 68.616 45.9001 68.6138C45.8831 68.5987 45.8639 68.5879 45.8469 68.5793C45.8469 68.5793 45.8469 68.575 45.8427 68.5793C45.8427 68.5793 45.8427 68.575 45.8384 68.575C45.8214 68.5642 45.8023 68.5534 45.7874 68.5448C45.7831 68.5448 45.7789 68.5405 45.7746 68.5383C45.7534 68.5232 45.7321 68.5124 45.7109 68.5016C45.7109 68.5016 45.7094 68.5016 45.7066 68.5016H45.7024C45.6769 68.4887 45.6535 68.4779 45.628 68.4693V68.465C45.5493 68.4283 45.4664 68.4024 45.3835 68.3808C45.3622 68.3744 45.341 68.37 45.3219 68.3657C45.3048 68.3614 45.2878 68.3571 45.273 68.3549C45.2198 68.3441 45.1645 68.3355 45.1093 68.3312C45.0561 68.3247 45.0009 68.3226 44.9477 68.3226H44.9435C44.8924 68.3226 44.8372 68.3226 44.7862 68.3312H44.7777C44.7245 68.3355 44.6714 68.3441 44.6182 68.3549C44.5693 68.3636 44.5162 68.3765 44.4673 68.3916C44.4439 68.3981 44.4205 68.4046 44.395 68.4154C44.1548 68.4952 43.9252 68.6289 43.7318 68.8166C43.3598 69.1769 43.1748 69.6624 43.1854 70.1435C43.1854 70.15 43.1854 70.1564 43.1854 70.1629V77.5199C43.1854 77.5674 43.1854 77.617 43.1854 77.6623C43.1854 77.6688 43.1854 77.6731 43.1854 77.6796C43.128 81.7421 40.7833 85.2481 37.0653 86.8316H37.0547ZM83.6326 64.3032C83.5667 64.3722 83.5008 64.4413 83.4328 64.5103C81.1115 66.8663 78.0269 68.1629 74.7447 68.1629C72.0089 68.1629 69.4112 67.2611 67.279 65.5998C66.5392 65.0238 65.5019 65.0734 64.8471 65.7401L64.8025 65.7832C64.1286 66.4671 64.0776 67.5437 64.6558 68.3139C68.3185 73.1963 67.955 80.219 63.561 84.6785C63.4951 84.7454 63.4314 84.8101 63.357 84.8813C60.5084 87.6407 56.4737 88.3894 52.8195 86.8316C49.1015 85.2481 46.7589 81.7443 46.7015 77.6817V77.6645C46.7015 77.6192 46.7015 77.5696 46.7015 77.5221V72.8188C46.9013 72.8447 47.099 72.8576 47.3009 72.8576C48.6444 72.8576 49.9858 72.3333 51.0189 71.2913C52.0117 70.2837 52.5559 68.9461 52.5559 67.52C52.5559 66.0939 52.0096 64.7584 51.0168 63.7487C49.8349 62.5513 48.2384 62.0378 46.7015 62.2212V57.4575C46.7015 57.4143 46.7015 57.3712 46.7015 57.328C46.7674 51.9645 51.07 47.5546 56.3206 47.4101L56.3823 47.4252L56.6034 47.4058H63.9607C63.9756 47.4058 63.9904 47.4058 64.0053 47.4058C64.0457 47.4058 64.0861 47.4058 64.1286 47.3993C64.1733 47.395 64.2136 47.3907 64.2562 47.382C64.2668 47.382 64.2774 47.3777 64.288 47.3755C64.2966 47.3755 64.3051 47.3755 64.3136 47.3691C64.3284 47.3691 64.3433 47.3648 64.3561 47.3604C64.388 47.354 64.4156 47.3475 64.4475 47.3367C64.4602 47.3324 64.4709 47.3302 64.4836 47.3238C64.4964 47.3238 64.5113 47.3173 64.5261 47.3108C64.5538 47.3022 64.5793 47.2936 64.6069 47.2806C64.6345 47.272 64.6579 47.259 64.6856 47.2461C64.7047 47.2396 64.7238 47.231 64.7408 47.2181C64.7472 47.2181 64.7536 47.2137 64.7578 47.2094C64.8067 47.1857 64.8578 47.1576 64.9045 47.1253C64.9045 47.1253 64.9045 47.1253 64.9088 47.121C64.9322 47.108 64.9577 47.0908 64.9789 47.0757C64.9981 47.0649 65.0151 47.0519 65.0278 47.039C65.0321 47.0325 65.0384 47.0282 65.0448 47.0239C65.0873 46.9915 65.1235 46.9592 65.1617 46.9225C65.1681 46.9182 65.1724 46.9138 65.1787 46.9074C65.1894 46.8966 65.1979 46.888 65.2064 46.8793C65.2319 46.8556 65.2532 46.8319 65.2765 46.806C65.285 46.7973 65.2935 46.7866 65.3042 46.7758C65.3042 46.7758 65.3084 46.7693 65.3105 46.7671C65.3297 46.7434 65.3467 46.7218 65.3594 46.7003C65.3637 46.6959 65.3679 46.6895 65.3722 46.6852C65.3828 46.6701 65.3935 46.6549 65.4041 46.642C65.4083 46.6355 65.4105 46.6312 65.4147 46.6269C65.4317 46.601 65.4487 46.5773 65.4636 46.5492C65.4636 46.5492 65.4636 46.5449 65.4679 46.5428C65.4891 46.5082 65.5104 46.4737 65.5252 46.4349V46.4284C65.5337 46.4155 65.5401 46.4025 65.5465 46.3896C65.5593 46.3637 65.572 46.3378 65.5826 46.3097C65.5954 46.2795 65.606 46.2537 65.6167 46.2235C65.6252 46.1976 65.6337 46.1738 65.6422 46.1458C65.6507 46.1177 65.6592 46.0897 65.6677 46.0616V46.0573C65.6847 46.0034 65.6953 45.9451 65.7038 45.8869V45.8804C65.7187 45.7941 65.7251 45.7057 65.7251 45.615C65.7251 45.5028 65.7144 45.3971 65.6932 45.2936V45.2849C65.6847 45.244 65.6762 45.2073 65.6677 45.1684C65.6634 45.1555 65.6592 45.1404 65.6549 45.1253C65.6507 45.1102 65.6464 45.0951 65.6422 45.08C65.6379 45.067 65.6337 45.0563 65.6294 45.0455C65.6252 45.0282 65.6209 45.0131 65.6145 45.0002C65.6145 44.9937 65.6103 44.9894 65.6082 44.9851C65.6039 44.97 65.5975 44.957 65.5933 44.9441C65.589 44.9354 65.5869 44.9268 65.5826 44.9182C65.5656 44.8772 65.5486 44.8405 65.5295 44.8017C65.5231 44.7866 65.5146 44.7715 65.5082 44.7585C65.487 44.7197 65.4657 44.683 65.4423 44.6442C65.419 44.6075 65.3977 44.5751 65.3722 44.5406C65.3658 44.532 65.3594 44.5234 65.3531 44.5147C65.3531 44.5147 65.3531 44.5133 65.3531 44.5104C65.3382 44.4931 65.3254 44.4759 65.3105 44.4608C65.2957 44.4457 65.2808 44.4241 65.2659 44.409C65.2616 44.4025 65.2553 44.3982 65.251 44.3917C65.2446 44.3831 65.2383 44.3766 65.2298 44.368C64.6218 43.6798 64.6494 42.6312 65.2999 41.9689C65.6252 41.6388 66.0567 41.4576 66.518 41.4576C66.9793 41.4576 67.4108 41.6388 67.7339 41.9689C68.3908 42.6356 68.4142 43.697 67.7871 44.3853C67.7807 44.3917 67.7743 44.3982 67.7701 44.4068C67.7658 44.4068 67.7637 44.4112 67.7616 44.4155C67.7382 44.4414 67.7169 44.4651 67.6978 44.4931C67.685 44.5083 67.6744 44.5234 67.6617 44.5385C67.6361 44.5708 67.6149 44.601 67.5936 44.6355C67.5873 44.6506 67.5766 44.6657 67.566 44.6809C67.5447 44.7132 67.5277 44.7434 67.515 44.7758C67.5043 44.7952 67.4958 44.8125 67.4852 44.8297C67.4703 44.8578 67.4576 44.8837 67.4469 44.9139C67.4363 44.9397 67.4257 44.9656 67.4151 44.9937C67.4023 45.0239 67.3938 45.0541 67.3853 45.0843C67.3853 45.0886 67.381 45.0951 67.3789 45.0994C67.3725 45.121 67.3683 45.1382 67.364 45.1577C67.364 45.1577 67.364 45.1577 67.364 45.162C67.3555 45.1922 67.3492 45.2202 67.3428 45.2483C67.3428 45.2526 67.3428 45.2591 67.3428 45.2655L67.3364 45.3044V45.3108C67.3364 45.3173 67.3364 45.3238 67.3364 45.3281C67.3364 45.3324 67.3364 45.3346 67.3364 45.3389C67.3322 45.3648 67.3279 45.3907 67.3279 45.4187C67.3237 45.4273 67.3237 45.436 67.3237 45.4446C67.3237 45.4662 67.3194 45.4877 67.3194 45.5093C67.3194 45.5244 67.3152 45.5417 67.3194 45.5568V45.5676C67.3194 45.5805 67.3194 45.5935 67.3194 45.6043V45.6086C67.3194 45.628 67.3194 45.6474 67.3237 45.6647V45.6776C67.3237 45.6949 67.3237 45.7121 67.3237 45.7272C67.3237 45.7402 67.3237 45.7553 67.3279 45.7704C67.3279 45.7769 67.3279 45.7812 67.3279 45.7876C67.3279 45.8027 67.3279 45.8178 67.3279 45.8308C67.3279 45.8524 67.3343 45.8761 67.3385 45.8955C67.3492 45.9559 67.3619 46.0185 67.3789 46.0789C67.3789 46.094 67.3853 46.1091 67.3896 46.1242C67.3896 46.135 67.3959 46.1479 67.4002 46.1587C67.4087 46.1868 67.4193 46.2127 67.4299 46.2407C67.447 46.286 67.464 46.327 67.4831 46.3702C67.4831 46.3702 67.4831 46.3766 67.4873 46.3788C67.5766 46.573 67.702 46.752 67.8636 46.9095C68.174 47.2116 68.5672 47.3734 68.9648 47.3971C69.003 47.4036 69.0413 47.4036 69.0795 47.4036C69.0987 47.4036 69.1199 47.4036 69.1391 47.4036H76.3008L76.5687 47.4187L76.6261 47.4058C80.58 47.4985 83.9876 49.8567 85.5416 53.5913C87.0849 57.3043 86.3536 61.41 83.6284 64.3053L83.6326 64.3032ZM22.0127 44.3141C22.0127 44.3141 21.9914 44.2925 21.9787 44.286C21.9999 44.3054 22.0212 44.327 22.0403 44.3443C22.0318 44.3313 22.0212 44.3227 22.0106 44.3119L22.0127 44.3141ZM22.4464 44.9807C22.4464 44.9807 22.4506 44.9915 22.4506 44.9958C22.4612 45.0174 22.4697 45.0412 22.4761 45.0606C22.4676 45.0325 22.4591 45.0088 22.4464 44.9807ZM22.5229 45.9602C22.5229 45.9732 22.5186 45.9861 22.5144 45.9991C22.5144 46.0099 22.5101 46.0206 22.508 46.0314C22.5229 45.9861 22.5314 45.9408 22.5378 45.8955C22.5335 45.9192 22.5293 45.9408 22.5229 45.9624V45.9602ZM22.5484 45.3993C22.5484 45.3993 22.5484 45.4187 22.5484 45.4295C22.5484 45.4295 22.5484 45.4309 22.5484 45.4338C22.5484 45.4209 22.5484 45.4101 22.5441 45.3993H22.5484ZM24.1512 45.6107C24.1512 45.5589 24.1512 45.5028 24.1576 45.4511C24.1512 45.5028 24.1491 45.5568 24.1491 45.6086C24.1491 45.6237 24.1491 45.6409 24.1491 45.656C24.1491 45.6711 24.1491 45.6862 24.1491 45.7013C24.1491 45.7315 24.1534 45.7596 24.1555 45.792C24.1619 45.8351 24.1661 45.8804 24.1746 45.9236C24.1576 45.82 24.147 45.7143 24.147 45.6107H24.1512ZM24.1831 45.9387C24.1831 45.9387 24.1831 45.9387 24.1831 45.9343C24.1831 45.9451 24.1874 45.9581 24.1895 45.971C24.1895 45.9753 24.1895 45.9797 24.1937 45.984C24.1895 45.9689 24.1874 45.9538 24.1852 45.9408L24.1831 45.9387ZM24.2937 44.9095C24.3362 44.806 24.3893 44.7089 24.4467 44.6183C24.3851 44.7111 24.3319 44.8081 24.2937 44.9095ZM24.7146 44.299C24.7146 44.299 24.7039 44.3098 24.6976 44.3141C24.6869 44.3249 24.6763 44.3335 24.6678 44.3464C24.6891 44.3249 24.7082 44.3054 24.7294 44.2882C24.7486 44.2666 24.7698 44.2472 24.7911 44.2321C24.7635 44.2537 24.7379 44.2752 24.7124 44.3011L24.7146 44.299ZM24.8315 44.1976C24.8187 44.2084 24.806 44.217 24.7932 44.2299C24.7932 44.2256 24.7996 44.2235 24.8038 44.2235C24.8187 44.2105 24.8357 44.1976 24.8506 44.1825C24.8442 44.1868 24.8357 44.1911 24.8294 44.1976H24.8315ZM24.9718 44.0962C24.9463 44.1113 24.925 44.1285 24.8995 44.1436C24.9123 44.1372 24.9229 44.1285 24.9356 44.1221C24.959 44.107 24.9782 44.0919 25.0037 44.0768C25.0037 44.0768 25.0037 44.0768 25.0079 44.0724C24.9952 44.0789 24.9824 44.0875 24.9718 44.094V44.0962ZM25.1355 44.0034C25.1355 44.0034 25.1227 44.0099 25.1185 44.012C25.0972 44.0228 25.0759 44.0314 25.0568 44.0465C25.0632 44.0465 25.0696 44.0401 25.0759 44.0379C25.1015 44.0228 25.1248 44.0099 25.1525 43.9969C25.1652 43.9883 25.178 43.9818 25.1929 43.9754C25.1737 43.984 25.1546 43.9926 25.1376 44.0034H25.1355ZM25.2694 43.943C25.2418 43.9516 25.2184 43.9646 25.1929 43.9754C25.2056 43.971 25.2184 43.9667 25.2311 43.9624C25.2566 43.9495 25.2821 43.9387 25.3098 43.93C25.3225 43.9236 25.3374 43.9171 25.3523 43.9128C25.3247 43.9214 25.2992 43.9322 25.2715 43.943H25.2694ZM25.4267 43.8891C25.4139 43.8934 25.4012 43.8955 25.3906 43.902C25.4182 43.8934 25.4437 43.8847 25.4735 43.8783C25.499 43.8696 25.5224 43.8632 25.55 43.8588C25.5075 43.8653 25.4671 43.8761 25.4246 43.8891H25.4267ZM33.2708 43.82H25.9135C25.888 43.82 25.8625 43.82 25.837 43.8243C25.8646 43.8243 25.888 43.8243 25.9156 43.8243H33.375C33.341 43.8243 33.3048 43.8243 33.2708 43.8243V43.82ZM44.5821 22.8579C44.5821 22.8579 44.5736 22.8579 44.5693 22.8579C44.5842 22.8622 44.6012 22.8665 44.614 22.8687C44.6033 22.8687 44.5927 22.8643 44.5821 22.86V22.8579ZM46.693 26.0855C46.693 26.0661 46.6887 26.0466 46.6845 26.0294C46.6802 26.0013 46.676 25.9754 46.6696 25.9474C46.6653 25.9258 46.6611 25.9042 46.6547 25.8848C46.5867 25.5849 46.4379 25.3045 46.2168 25.0671C46.1977 25.0456 46.1764 25.024 46.1573 25.0067C46.1126 24.9636 46.0701 24.9269 46.0255 24.8902C45.9808 24.8536 45.9319 24.8212 45.8852 24.7888C45.8384 24.7565 45.7895 24.7306 45.7385 24.7047C45.6896 24.6766 45.6386 24.6551 45.5876 24.6356C45.5366 24.6141 45.4834 24.5947 45.4303 24.5817C45.3793 24.5666 45.324 24.5537 45.2708 24.5429C45.1624 24.5213 45.054 24.5105 44.9456 24.5105C44.8372 24.5105 44.7266 24.5213 44.6182 24.5429C44.5693 24.5515 44.5183 24.5645 44.4715 24.5774C44.463 24.5774 44.4545 24.5817 44.446 24.586C44.4099 24.5968 44.3759 24.6076 44.3397 24.6227C44.3397 24.6227 44.3383 24.6227 44.3355 24.6227C44.3355 24.6227 44.3355 24.6227 44.3312 24.6227C44.3121 24.6292 44.293 24.6378 44.276 24.6464C44.2696 24.6464 44.2653 24.6507 44.259 24.6529C44.259 24.6529 44.259 24.6529 44.259 24.6572C44.2547 24.6572 44.2505 24.6572 44.2462 24.6615C44.2249 24.6702 44.2037 24.6788 44.1846 24.6896C44.1846 24.6896 44.1831 24.6896 44.1803 24.6896C44.1591 24.6982 44.1378 24.7112 44.1165 24.7241C44.108 24.7284 44.0995 24.7327 44.0932 24.737C44.074 24.7478 44.0549 24.7586 44.0379 24.7716C44.0336 24.7716 44.0315 24.7716 44.0294 24.7759C44.0102 24.7888 43.989 24.8039 43.972 24.8147C43.9486 24.8298 43.9273 24.8471 43.904 24.8643C43.904 24.8643 43.904 24.8643 43.8997 24.8687C43.8827 24.8794 43.8657 24.8924 43.8508 24.9053C43.8508 24.9053 43.8444 24.9118 43.8423 24.914C43.8189 24.9334 43.7977 24.9528 43.7743 24.9744C43.7743 24.9744 43.77 24.9744 43.77 24.9787C43.7658 24.9787 43.7594 24.9852 43.7552 24.9916C43.7509 24.9959 43.7445 25.0003 43.7403 25.0046C43.06 25.6302 42.0226 25.6022 41.3679 24.942C40.6983 24.2602 40.6983 23.1491 41.3679 22.4695C42.0248 21.805 43.0643 21.7791 43.7424 22.4048C43.7318 22.394 43.7233 22.3832 43.7126 22.3746C43.6127 22.2732 43.5256 22.1589 43.4512 22.038C43.4299 22.0035 43.4108 21.969 43.3938 21.9345C43.3619 21.8741 43.3342 21.8072 43.3087 21.7425C43.2896 21.695 43.2726 21.6454 43.262 21.5979C43.262 21.5936 43.262 21.5914 43.2577 21.5871C43.245 21.5397 43.2322 21.4879 43.2237 21.4361C43.2131 21.3822 43.2046 21.3261 43.2003 21.2721C43.1939 21.2182 43.1918 21.1621 43.1918 21.106V18.407C41.657 18.2236 40.0606 18.7371 38.8744 19.9366C36.8294 22.0165 36.8294 25.3972 38.8744 27.4771C39.9032 28.5191 41.2467 29.0434 42.5902 29.0434C42.7922 29.0434 42.992 29.0304 43.1918 29.0046V33.7661C43.1918 33.8114 43.1918 33.8589 43.1918 33.9042C43.1918 33.9646 43.1918 34.025 43.2003 34.0833C43.2046 34.1372 43.2131 34.1955 43.2216 34.2494C43.2471 34.3745 43.2811 34.4954 43.33 34.6097C43.3491 34.655 43.3683 34.6982 43.3895 34.7435C43.5575 35.0692 43.8211 35.3389 44.1442 35.5094C44.1909 35.5353 44.2441 35.5568 44.2951 35.5784C44.3461 35.6021 44.4014 35.6194 44.4545 35.6345C44.4822 35.6431 44.5077 35.6496 44.5374 35.6582C44.6203 35.6798 44.7054 35.6949 44.7925 35.7014C44.8244 35.7014 44.8521 35.7057 44.8818 35.7079C44.9073 35.7079 44.9307 35.7079 44.9562 35.7079C44.9796 35.7079 45.003 35.7079 45.0264 35.7079C45.0561 35.7079 45.0838 35.7036 45.1156 35.7014C45.2028 35.6949 45.2878 35.6798 45.3707 35.6582C45.4005 35.6496 45.426 35.6431 45.4537 35.6345C45.5068 35.6194 45.5621 35.6 45.6131 35.5784C45.6641 35.5568 45.7172 35.5331 45.764 35.5094C46.085 35.3411 46.3507 35.0714 46.5187 34.7435C46.5399 34.7003 46.5612 34.6572 46.5782 34.6097C46.625 34.4954 46.6611 34.3745 46.6866 34.2494C46.6951 34.1955 46.7036 34.1372 46.7079 34.0833C46.7121 34.0509 46.7121 34.0229 46.7142 33.9927C46.7164 33.9625 46.7142 33.9344 46.7142 33.9042C46.7142 33.8589 46.7142 33.8093 46.7142 33.7661V26.2991C46.7142 26.2279 46.71 26.1567 46.7015 26.0833L46.693 26.0855ZM46.693 21.1621V21.1686C46.693 21.2009 46.6887 21.229 46.6845 21.2613C46.676 21.3476 46.6611 21.4318 46.6398 21.5138C46.6335 21.544 46.6249 21.5699 46.6164 21.6001C46.6037 21.6432 46.5888 21.6842 46.5739 21.7252C46.5144 21.8849 46.4336 22.0359 46.3337 22.1718C46.2933 22.2236 46.2529 22.2754 46.2062 22.3228C46.1977 22.3336 46.1892 22.3422 46.1807 22.353C46.1488 22.3854 46.119 22.4156 46.0871 22.4436C46.0829 22.448 46.0786 22.4523 46.0744 22.4566C46.0489 22.4803 46.0234 22.4997 45.9957 22.5213C45.9915 22.5256 45.9872 22.5299 45.9808 22.5343C45.9766 22.5343 45.9745 22.5407 45.9702 22.5429C45.9575 22.5515 45.9447 22.5623 45.9319 22.5709C45.9064 22.5904 45.8831 22.6098 45.8554 22.6227C45.8363 22.6357 45.815 22.6486 45.7959 22.6615C45.7916 22.6659 45.7853 22.6702 45.781 22.6702C45.7661 22.681 45.7513 22.6896 45.7385 22.6961C45.7194 22.709 45.7002 22.7198 45.6832 22.7284C45.6832 22.7284 45.6832 22.7284 45.679 22.7284C45.6599 22.7392 45.6407 22.7478 45.6216 22.7565C45.8278 22.6723 46.0212 22.5429 46.1913 22.3724C46.5442 22.0143 46.7164 21.544 46.7057 21.078C46.7057 21.106 46.6994 21.1319 46.6972 21.1621H46.693Z" fill="#ADADAD"/>
</svg>
