<svg width="342" height="73" viewBox="0 0 342 73" fill="none" xmlns="http://www.w3.org/2000/svg">
<path d="M60.1545 33.2044C56.266 33.2044 53.7411 31.9423 52.4493 31.0626C51.836 30.6419 51.6468 29.8387 52.0317 29.214L53.8585 26.218C54.25 25.5742 55.0916 25.3639 55.7636 25.7145C56.6966 26.2117 58.1385 26.7662 59.9262 26.7662C63.8538 26.7662 65.6806 24.822 65.7394 20.1177V1.38325C65.7459 0.61832 66.3788 0 67.1617 0H71.0241C71.807 0 72.4399 0.61832 72.4399 1.38325V21.4117C72.3877 27.9009 68.6753 33.2044 60.1545 33.2044Z" fill="#ADADAD"/>
<path d="M107.808 30.5463L95.7644 0.873297C95.5491 0.350594 95.0272 0 94.44 0H89.3379C88.7507 0 88.2353 0.344219 88.0135 0.873297L75.9696 30.5463C75.5977 31.4578 76.2827 32.4459 77.2875 32.4459H81.3521C81.9524 32.4459 82.4809 32.0889 82.6831 31.5471L84.3729 27.0786C84.5752 26.5368 85.1102 26.1798 85.7039 26.1798H98.0545C98.6547 26.1798 99.1832 26.5368 99.3854 27.0786L101.082 31.5471C101.284 32.0889 101.819 32.4459 102.413 32.4459H106.471C107.476 32.4459 108.161 31.4642 107.789 30.5463M95.0011 20.8699H88.7312C87.746 20.8699 87.0609 19.9074 87.4002 19.0022L90.5189 10.7537C90.969 9.54253 92.7176 9.54253 93.1743 10.7537L96.3321 19.0086C96.6778 19.9074 95.9863 20.8763 95.0011 20.8763" fill="#ADADAD"/>
<path d="M106.106 2.08444C105.557 1.15377 106.236 0 107.332 0H111.351C111.867 0 112.336 0.267726 112.591 0.701188L118.724 11.2381C118.75 11.2764 118.776 11.3274 118.789 11.3656C119.037 11.9202 119.565 12.2007 120.094 12.2007C120.622 12.2007 121.144 11.9266 121.392 11.372V11.3592C121.412 11.3146 121.438 11.2827 121.457 11.2445L127.492 0.707562C127.734 0.274101 128.21 0 128.725 0H132.784C133.873 0 134.558 1.16015 134.01 2.08444L123.604 19.5185C123.473 19.7289 123.408 19.9711 123.408 20.2197V31.0562C123.408 31.8212 122.775 32.4395 121.992 32.4395H118.13C117.347 32.4395 116.714 31.8212 116.714 31.0562V20.3217C116.714 20.0795 116.649 19.8372 116.518 19.6269L106.106 2.08444Z" fill="#ADADAD"/>
<path d="M170.136 32.4395H166.325C165.542 32.4395 164.91 31.8212 164.91 31.0562V12.513C164.91 11.2827 163.383 10.6581 162.489 11.5377L160.864 13.1186C160.316 13.6604 160.31 14.5401 160.864 15.0755L161.406 15.6046C161.673 15.866 161.823 16.2166 161.823 16.5799V21.8324C161.823 23.0691 160.297 23.6874 159.403 22.8205L150.471 14.0939L147.848 11.5377C146.954 10.6644 145.428 11.2827 145.428 12.513V31.0562C145.428 31.8212 144.795 32.4395 144.012 32.4395H140.208C139.425 32.4395 138.793 31.8212 138.793 31.0562V1.38325C138.793 0.61832 139.425 0 140.208 0H144.847C145.219 0 145.584 0.146612 145.852 0.407964L154.17 8.52899C154.725 9.07082 155.619 9.07082 156.173 8.52899L164.485 0.407964C164.753 0.146612 165.112 0 165.49 0H170.136C170.918 0 171.551 0.61832 171.551 1.38325V31.0562C171.551 31.8212 170.918 32.4395 170.136 32.4395Z" fill="#ADADAD"/>
<path d="M179.08 31.0562V1.38325C179.08 0.61832 179.713 0 180.496 0H201.57C202.353 0 202.986 0.61832 202.986 1.38325V4.34099C202.986 5.10592 202.353 5.72424 201.57 5.72424H187.197C186.414 5.72424 185.781 6.34256 185.781 7.10749V11.9584C185.781 12.7234 186.414 13.3417 187.197 13.3417H198.862C199.645 13.3417 200.278 13.96 200.278 14.7249V17.2556C200.278 18.0205 199.645 18.6388 198.862 18.6388H187.197C186.414 18.6388 185.781 19.2572 185.781 20.0221V25.3129C185.781 26.0778 186.414 26.6961 187.197 26.6961H201.57C202.353 26.6961 202.986 27.3144 202.986 28.0794V31.0371C202.986 31.802 202.353 32.4204 201.57 32.4204H180.496C179.713 32.4204 179.08 31.802 179.08 31.0371" fill="#ADADAD"/>
<path d="M87.2697 41.1852V70.8582C87.2697 71.6231 86.6369 72.2414 85.8539 72.2414H82.0437C81.2608 72.2414 80.6279 71.6231 80.6279 70.8582V52.315C80.6279 51.0847 79.1012 50.4664 78.2074 51.3333L76.5828 52.9142C76.0348 53.456 76.0283 54.3357 76.5828 54.8711L77.1244 55.4002C77.3919 55.6615 77.5419 56.0121 77.5419 56.3818V61.6344C77.5419 62.871 76.0152 63.4893 75.1214 62.616L66.1895 53.8895L63.5668 51.3333C62.6729 50.46 61.1462 51.0783 61.1462 52.315V70.8582C61.1462 71.6231 60.5134 72.2414 59.7304 72.2414H55.9202C55.1373 72.2414 54.5044 71.6231 54.5044 70.8582V41.1852C54.5044 40.4203 55.1373 39.802 55.9202 39.802H60.559C60.9309 39.802 61.2963 39.9486 61.5638 40.2099L69.8823 48.3309C70.4369 48.8728 71.3307 48.8728 71.8853 48.3309L80.1973 40.2099C80.4648 39.9486 80.8237 39.802 81.2021 39.802H85.8474C86.6303 39.802 87.2632 40.4203 87.2632 41.1852" fill="#ADADAD"/>
<path d="M109.629 39.088C99.6138 39.088 92.8024 46.6608 92.8024 56.0121C92.8024 65.3634 99.6073 72.9936 109.629 72.9936C119.65 72.9936 126.514 65.3698 126.514 56.0121C126.514 46.6545 119.761 39.088 109.629 39.088ZM109.629 66.6638C103.926 66.6638 99.7834 62.1762 99.7834 56.0121C99.7834 49.8481 103.926 45.3605 109.629 45.3605C115.331 45.3605 119.591 49.8481 119.591 56.0121C119.591 62.1762 115.442 66.6638 109.629 66.6638Z" fill="#ADADAD"/>
<path d="M161.484 41.7079V70.3227C161.484 71.3873 160.61 72.2414 159.52 72.2414H157.263C156.676 72.2414 156.115 71.9801 155.749 71.5339L142.27 55.3811C141.102 53.9851 138.786 54.7882 138.786 56.5922V70.3291C138.786 71.3936 137.912 72.2478 136.822 72.2478H134.049C132.966 72.2478 132.085 71.3936 132.085 70.3291V41.7143C132.085 40.6561 132.96 39.802 134.049 39.802H136.313C136.9 39.802 137.455 40.0569 137.82 40.4968L151.3 56.503C152.474 57.8862 154.777 57.083 154.777 55.2855V41.7207C154.777 40.6625 155.651 39.8083 156.741 39.8083H159.514C160.603 39.8083 161.478 40.6625 161.478 41.7207" fill="#ADADAD"/>
<path d="M187.034 41.1788V61.2073C186.981 67.6965 183.269 73 174.748 73C170.86 73 168.335 71.7379 167.043 70.8582C166.43 70.4375 166.247 69.6343 166.632 69.0096L168.459 66.0136C168.85 65.3698 169.692 65.1594 170.364 65.51C171.284 66.0072 172.732 66.5618 174.52 66.5618C178.448 66.5618 180.274 64.6176 180.333 59.9133V41.1852C180.333 40.4203 180.972 39.802 181.755 39.802H185.611C186.394 39.802 187.027 40.4203 187.027 41.1852" fill="#ADADAD"/>
<path d="M222.304 70.3419L210.26 40.6689C210.045 40.1398 209.523 39.7892 208.936 39.7892H203.834C203.247 39.7892 202.731 40.1398 202.509 40.6689L190.465 70.3419C190.094 71.247 190.779 72.2414 191.783 72.2414H195.848C196.448 72.2414 196.977 71.8781 197.179 71.3363L198.869 66.8742C199.071 66.3323 199.606 65.969 200.2 65.969H212.55C213.151 65.969 213.679 66.3323 213.881 66.8742L215.578 71.3363C215.786 71.8781 216.315 72.2414 216.909 72.2414H220.967C221.965 72.2414 222.657 71.2534 222.285 70.3419M209.497 60.6655H203.227C202.242 60.6655 201.557 59.6966 201.896 58.7978L205.015 50.5429C205.465 49.3317 207.213 49.3317 207.677 50.5429L210.828 58.7978C211.174 59.7029 210.482 60.6718 209.497 60.6718" fill="#ADADAD"/>
<path d="M254.319 71.094L246.979 60.9396V60.5061C251.024 58.887 253.569 55.4257 253.569 50.6704C253.569 44.1238 248.532 39.802 240.84 39.802H228.633C227.543 39.802 226.669 40.6561 226.669 41.7143V70.3291C226.669 71.3936 227.543 72.2478 228.633 72.2478H231.406C232.495 72.2478 233.37 71.3936 233.37 70.3291V63.4575C233.37 62.3929 234.244 61.5388 235.333 61.5388H238.648C239.3 61.5388 239.9 61.8511 240.272 62.3738L246.568 71.4064C246.934 71.9291 247.54 72.2414 248.193 72.2414H254.678V72.1968C254.678 71.8016 254.548 71.4191 254.319 71.094ZM240.625 55.9101H235.333C234.25 55.9101 233.37 55.056 233.37 53.9914V47.4449C233.37 46.3867 234.244 45.5262 235.333 45.5262H240.455C244.109 45.5262 246.653 47.2027 246.653 50.715C246.653 54.2273 244.109 55.9101 240.625 55.9101Z" fill="#ADADAD"/>
<path d="M272.052 39.7892H261.783C260.693 39.7892 259.819 40.6434 259.819 41.7079V70.3227C259.819 71.3873 260.693 72.2414 261.783 72.2414H272.052C282.57 72.2414 289.322 65.5355 289.322 56.0185C289.322 46.5015 282.57 39.7956 272.052 39.7956M271.615 66.5045H268.484C267.401 66.5045 266.52 65.6503 266.52 64.5857V47.4449C266.52 46.3867 267.394 45.5262 268.484 45.5262H271.615C277.644 45.5262 282.407 49.1979 282.407 56.0121C282.407 62.8264 277.644 66.4981 271.615 66.4981" fill="#ADADAD"/>
<path d="M301.66 41.7079V70.3227C301.66 71.3873 300.786 72.2414 299.696 72.2414H296.917C295.834 72.2414 294.953 71.3873 294.953 70.3227V41.7079C294.953 40.6498 295.827 39.7956 296.917 39.7956H299.696C300.779 39.7956 301.66 40.6498 301.66 41.7079Z" fill="#ADADAD"/>
<path d="M342 41.1852V70.8582C342 71.6231 341.367 72.2414 340.584 72.2414H336.774C335.991 72.2414 335.358 71.6231 335.358 70.8582V52.315C335.358 51.0847 333.831 50.4664 332.938 51.3333L331.313 52.9142C330.765 53.456 330.759 54.3357 331.313 54.8711L331.855 55.4002C332.122 55.6615 332.272 56.0121 332.272 56.3818V61.6344C332.272 62.871 330.745 63.4893 329.852 62.616L320.92 53.8895L318.297 51.3333C317.403 50.46 315.876 51.0783 315.876 52.315V70.8582C315.876 71.6231 315.244 72.2414 314.461 72.2414H310.65C309.868 72.2414 309.235 71.6231 309.235 70.8582V41.1852C309.235 40.4203 309.868 39.802 310.65 39.802H315.289C315.661 39.802 316.027 39.9486 316.294 40.2099L324.613 48.3309C325.167 48.8728 326.061 48.8728 326.616 48.3309L334.928 40.2099C335.195 39.9486 335.554 39.802 335.932 39.802H340.578C341.361 39.802 341.993 40.4203 341.993 41.1852" fill="#ADADAD"/>
<path d="M11.2088 57.44L15.1561 61.2965C15.4105 61.5451 15.2344 61.9722 14.869 61.9722H10.9218C10.6999 61.9722 10.5173 61.7937 10.5173 61.577V57.7205C10.5173 57.3699 10.9544 57.1914 11.2088 57.44Z" fill="#ADADAD"/>
<path d="M15.2148 27.2188V31.8148C15.2148 32.1399 15.3453 32.4459 15.5802 32.6753L23.6834 40.5924C23.9183 40.8219 24.0488 41.1278 24.0488 41.4529V44.519C24.0488 45.5963 22.7113 46.1381 21.9349 45.3732L17.3352 40.8856C16.5523 40.1207 15.2213 40.6625 15.2213 41.7398V46.3294C15.2213 46.6481 15.3518 46.9604 15.5867 47.1899L23.7095 55.1261C23.9444 55.3556 24.0749 55.6615 24.0749 55.9866V59.0527C24.0749 60.13 22.7374 60.6718 21.961 59.9069L10.8891 49.0895C10.6543 48.86 10.5238 48.5541 10.5238 48.229V18.403C10.5238 17.7337 11.0783 17.1918 11.7634 17.1918H14.0796C14.4058 17.1918 14.7255 17.3193 14.9603 17.5488L15.2213 17.8102L23.7095 26.1033C23.9444 26.3328 24.0749 26.6388 24.0749 26.9638V30.0299C24.0749 31.1072 22.7374 31.6491 21.961 30.8841L17.3417 26.371C16.5588 25.6061 15.2278 26.1479 15.2278 27.2252" fill="#ADADAD"/>
<path d="M0 41.8481V1.21114C0 0.541827 0.55457 0 1.23963 0H11.3393C11.6655 0 11.9852 0.127489 12.2201 0.356968L16.4153 4.44935C16.8981 4.92106 17.681 4.92106 18.1703 4.44935L22.3655 0.350594C22.5938 0.127489 22.9135 0 23.2397 0H33.3394C34.0245 0 34.5791 0.541827 34.5791 1.21114V60.7611C34.5791 61.4304 34.0245 61.9722 33.3394 61.9722H31.1212C30.4361 61.9722 29.8815 61.4304 29.8815 60.7611V5.80073C29.8815 5.13142 29.327 4.58959 28.6419 4.58959H25.184C24.8578 4.58959 24.5381 4.71708 24.3097 4.94018L21.4912 7.69394C21.0084 8.16565 21.0084 8.93058 21.4912 9.40866L23.703 11.5696C23.9378 11.7991 24.0683 12.105 24.0683 12.4301V15.4962C24.0683 16.5735 22.7308 17.1154 21.9479 16.3504L10.2693 4.94656C10.041 4.72345 9.72128 4.59597 9.39507 4.59597H5.93716C5.2521 4.59597 4.69753 5.13779 4.69753 5.80711V41.8481C4.69753 42.5175 4.14296 43.0593 3.45791 43.0593H1.23963C0.55457 43.0593 0 42.5175 0 41.8481Z" fill="#ADADAD"/>
<path d="M45.0898 1.21114V71.0239C45.0898 71.6932 44.5352 72.2351 43.8502 72.2351H1.23963C0.55457 72.2351 0 71.6932 0 71.0239V49.9373C0 49.268 0.55457 48.7262 1.23963 48.7262H3.45791C4.14296 48.7262 4.69753 49.268 4.69753 49.9373V66.428C4.69753 67.0973 5.2521 67.6391 5.93716 67.6391H39.1461C39.8312 67.6391 40.3857 67.0973 40.3857 66.428V1.21114C40.3857 0.541827 40.9403 0 41.6319 0H43.8502C44.5352 0 45.0898 0.541827 45.0898 1.21114Z" fill="#ADADAD"/>
</svg>
