<svg width="168" height="89" viewBox="0 0 168 89" fill="none" xmlns="http://www.w3.org/2000/svg">
<g id="Vector">
<path d="M20.7858 52.2592C15.7633 52.2592 11.5163 50.6009 8.03864 47.2778C4.56717 43.9548 2.8499 39.567 2.89914 34.1017H10.1498C10.1991 37.5474 11.2516 40.2252 13.3197 42.148C15.3817 44.0645 17.8745 45.0259 20.7858 45.0259C27.6365 45.0259 31.0648 40.1542 31.0648 30.4109V7.16233H8.18021V0H38.3894V31.3723C38.3894 37.7732 36.826 42.8514 33.7054 46.6132C30.5848 50.375 26.2762 52.2592 20.7858 52.2592Z" fill="#ADADAD"/>
<path d="M64.5793 67.242V0.070978H67.2568V67.242H64.5793Z" fill="#ADADAD"/>
<path d="M93.8653 51.743V0.070978H106.397L121.114 47.6779L135.831 0.070978H148.436V51.743H141.395V5.09106L127.103 51.743H115.131L100.907 5.38788V51.743H93.8653Z" fill="#ADADAD"/>
<path d="M163.258 50.859C162.298 51.8462 161.134 52.3366 159.774 52.3366C158.414 52.3366 157.275 51.8462 156.358 50.859C155.441 49.8782 154.985 48.6716 154.985 47.2391C154.985 45.8066 155.441 44.6065 156.358 43.6257C157.275 42.6384 158.414 42.148 159.774 42.148C161.134 42.148 162.298 42.6384 163.258 43.6257C164.218 44.6129 164.698 45.8131 164.698 47.2391C164.698 48.6651 164.218 49.8717 163.258 50.859Z" fill="#ADADAD"/>
<path d="M5.67509 87.8256C5.32425 88.0837 4.9611 88.2709 4.59179 88.3935C4.21633 88.5161 3.79778 88.5741 3.32999 88.5741C2.66524 88.5741 2.08051 88.4064 1.58195 88.0644C1.08339 87.7224 0.695615 87.2836 0.424791 86.7352C0.153967 86.1867 0.0185547 85.6189 0.0185547 85.0317C0.0185547 84.2122 0.190897 83.5153 0.535583 82.9411C0.880268 82.3668 1.31112 81.9409 1.822 81.657C2.33287 81.3731 2.83759 81.2311 3.33615 81.2311C3.69315 81.2311 4.03783 81.2892 4.37636 81.4118L4.39483 81.4247C4.39483 81.4247 4.41945 81.4247 4.4256 81.4376C4.54255 81.4763 4.68412 81.5409 4.8503 81.6312L4.88108 81.6505L4.89339 81.6635L4.88108 81.6054L4.86877 81.586C4.86261 81.5538 4.83799 81.4957 4.80106 81.4118L4.76413 81.3537L5.00418 81.2118L5.35502 81.9538L5.73048 82.683L5.49659 82.8249L5.45966 82.7668C5.25654 82.4507 4.99803 82.1797 4.67181 81.9538C4.53639 81.8699 4.37636 81.799 4.18555 81.728C3.84702 81.6118 3.51465 81.5667 3.17612 81.586C2.76373 81.6054 2.36365 81.7473 1.98203 82.0054C1.60041 82.2635 1.29266 82.6378 1.05261 83.1153C0.812562 83.5928 0.695615 84.1477 0.695615 84.78C0.695615 85.3091 0.769476 85.7931 0.917198 86.2254C1.06492 86.6577 1.2865 87.032 1.57579 87.3417C1.822 87.6063 2.10513 87.8127 2.43135 87.9547C2.75757 88.1031 3.08995 88.1741 3.44079 88.1741C4.19171 88.1741 4.84415 87.9805 5.41042 87.5869C5.61354 87.4514 5.8105 87.2901 6.00131 87.0965L6.03824 87.0578L6.30291 87.2643L6.24751 87.3223C6.05055 87.5288 5.86589 87.6966 5.6874 87.8321L5.67509 87.8256Z" fill="#ADADAD"/>
<path d="M12.0764 81.8054V88.1418C12.0764 88.1741 12.0887 88.1999 12.1072 88.2257C12.1379 88.258 12.2056 88.2773 12.3041 88.2773H12.5011V88.5741H10.9992V88.2773H11.2331C11.2701 88.2773 11.3255 88.2644 11.387 88.2386C11.4116 88.2063 11.4239 88.1612 11.4239 88.1031V81.8119C11.4239 81.7602 11.4116 81.7151 11.387 81.6764C11.3132 81.6441 11.2516 81.6312 11.2024 81.6376H10.9992V81.3408H12.5011V81.6376H12.3041C12.1995 81.6376 12.1379 81.6505 12.1072 81.6764C12.0825 81.7151 12.0702 81.7602 12.0764 81.8119V81.8054Z" fill="#ADADAD"/>
<path d="M21.6291 88.529C21.5183 88.5935 21.3952 88.6258 21.2659 88.6258C21.1982 88.6258 21.1551 88.6258 21.1182 88.6128C20.8843 88.5677 20.6935 88.3999 20.5458 88.1225C20.3981 87.8385 20.2565 87.4772 20.1272 87.0384C20.1211 87.0255 20.0965 86.9352 20.0472 86.7739C19.9549 86.3932 19.8441 86.077 19.7087 85.8124C19.5733 85.5479 19.3702 85.3801 19.0993 85.2898C18.9208 85.2511 18.7424 85.2317 18.5762 85.2382L18.5208 85.2511L18.2807 85.2382V88.0966C18.2807 88.1483 18.293 88.1934 18.3176 88.2322C18.3423 88.258 18.41 88.2709 18.5146 88.2709H18.7116V88.5677H17.2097V88.2709H17.4436C17.4806 88.2709 17.536 88.258 17.5975 88.2322C17.6221 88.1999 17.6344 88.1547 17.6344 88.0966V81.8054C17.6344 81.7538 17.6221 81.7086 17.5975 81.6699C17.5236 81.6376 17.4621 81.6247 17.4129 81.6312H17.2097V81.3344H18.2192C18.2746 81.3344 18.3915 81.3215 18.57 81.3215C18.9516 81.3215 19.3332 81.3666 19.7087 81.457C20.0842 81.5473 20.4042 81.7151 20.6627 81.9603C20.8228 82.1151 20.952 82.3023 21.0444 82.5216C21.1367 82.741 21.1859 82.9604 21.1859 83.1927C21.1859 83.7992 21.0074 84.2638 20.6504 84.5929C20.3611 84.851 20.0226 85.0188 19.641 85.1027C20.0349 85.3479 20.3304 85.7221 20.5212 86.2319C20.6012 86.4125 20.6689 86.5997 20.7243 86.7803C20.8782 87.1997 21.0074 87.5159 21.1059 87.7224C21.2044 87.9289 21.3275 88.0708 21.4814 88.1547C21.5306 88.1805 21.586 88.1934 21.6476 88.1934C21.7091 88.1934 21.7583 88.1805 21.8014 88.1547L22.0415 87.9805L21.9061 88.258C21.8322 88.3741 21.7399 88.4644 21.6291 88.529ZM20.3919 82.6765C20.3119 82.4894 20.2011 82.3216 20.0534 82.1861C19.7887 81.9474 19.5056 81.7925 19.2163 81.7151C18.9208 81.6376 18.6131 81.6118 18.2807 81.6247V84.9284C18.6131 84.9413 18.9208 84.9091 19.2163 84.8381C19.5117 84.7607 19.7887 84.6058 20.0472 84.3671C20.195 84.2316 20.3119 84.0638 20.3919 83.8702C20.4719 83.6766 20.5089 83.4702 20.5027 83.2572C20.5089 83.0572 20.4719 82.8572 20.3981 82.67L20.3919 82.6765Z" fill="#ADADAD"/>
<path d="M32.3697 81.386V81.6828H32.1358C32.0989 81.6828 32.0435 81.6957 31.982 81.7215C31.9635 81.7409 31.9512 81.7667 31.9512 81.8054V86.2706C31.9512 86.5351 31.9204 86.7932 31.865 87.0513C31.785 87.3288 31.668 87.574 31.508 87.7934C31.2987 88.0644 31.0525 88.2644 30.7694 88.3935C30.4801 88.5419 30.0739 88.6193 29.5445 88.6193C28.7752 88.6193 28.1843 88.4193 27.778 88.0063C27.3656 87.6063 27.1564 86.9868 27.1564 86.1544V81.8119C27.1564 81.7796 27.1441 81.7473 27.1256 81.7215C27.0517 81.6893 26.9902 81.6764 26.9286 81.6828L26.7255 81.6699V81.386H28.2458V81.6828H28.0427C27.9442 81.6828 27.8827 81.6957 27.858 81.7215C27.8334 81.7473 27.8211 81.7796 27.8211 81.8248V86.2577C27.815 86.5738 27.8519 86.9029 27.9258 87.2449C27.9811 87.4901 28.0858 87.703 28.2335 87.8837C28.3812 88.045 28.5474 88.1547 28.7382 88.2192C28.9537 88.2967 29.1875 88.3289 29.4461 88.3289C29.8031 88.3289 30.1354 88.2773 30.4432 88.1676C30.7325 88.0515 30.9787 87.8644 31.1818 87.6063L31.3541 87.3546C31.4157 87.232 31.4588 87.1352 31.4772 87.0707C31.5142 86.9352 31.5449 86.7997 31.5634 86.6642C31.5819 86.4706 31.5942 86.2706 31.5942 86.077V81.8248C31.5942 81.7861 31.5819 81.7473 31.5573 81.7215C31.5019 81.6893 31.4403 81.6764 31.3726 81.6828H31.1756V81.386H32.3697Z" fill="#ADADAD"/>
<path d="M41.4916 88.529C41.3808 88.5935 41.2577 88.6258 41.1284 88.6258C41.0607 88.6258 41.0176 88.6258 40.9807 88.6128C40.7468 88.5677 40.556 88.3999 40.4083 88.1225C40.2606 87.8385 40.119 87.4772 39.9897 87.0384C39.9836 87.0255 39.959 86.9352 39.9097 86.7739C39.8174 86.3932 39.7066 86.077 39.5712 85.8124C39.4358 85.5479 39.2327 85.3801 38.9618 85.2898C38.7833 85.2511 38.6048 85.2317 38.4387 85.2382L38.3833 85.2511L38.1432 85.2382V88.0966C38.1432 88.1483 38.1555 88.1934 38.1801 88.2322C38.2048 88.258 38.2725 88.2709 38.3771 88.2709H38.5741V88.5677H37.0722V88.2709H37.3061C37.343 88.2709 37.3984 88.258 37.46 88.2322C37.4846 88.1999 37.4969 88.1547 37.4969 88.0966V81.8054C37.4969 81.7538 37.4846 81.7086 37.46 81.6699C37.3861 81.6376 37.3246 81.6247 37.2753 81.6312H37.0722V81.3344H38.0817C38.1371 81.3344 38.254 81.3215 38.4325 81.3215C38.8141 81.3215 39.1957 81.3666 39.5712 81.457C39.9466 81.5473 40.2667 81.7151 40.5252 81.9603C40.6853 82.1151 40.8145 82.3023 40.9068 82.5216C40.9992 82.741 41.0484 82.9604 41.0484 83.1927C41.0484 83.7992 40.8699 84.2638 40.5129 84.5929C40.2236 84.851 39.8851 85.0188 39.5035 85.1027C39.8974 85.3479 40.1929 85.7221 40.3837 86.2319C40.4637 86.4125 40.5314 86.5997 40.5868 86.7803C40.7407 87.1997 40.8699 87.5159 40.9684 87.7224C41.0669 87.9289 41.19 88.0708 41.3439 88.1547C41.3931 88.1805 41.4485 88.1934 41.51 88.1934C41.5716 88.1934 41.6208 88.1805 41.6639 88.1547L41.904 87.9805L41.7686 88.258C41.6947 88.3741 41.6024 88.4644 41.4916 88.529ZM40.2544 82.6765C40.1744 82.4894 40.0636 82.3216 39.9159 82.1861C39.6512 81.9474 39.3681 81.7925 39.0788 81.7151C38.7833 81.6376 38.4756 81.6118 38.1432 81.6247V84.9284C38.4756 84.9413 38.7833 84.9091 39.0788 84.8381C39.3742 84.7607 39.6512 84.6058 39.9097 84.3671C40.0574 84.2316 40.1744 84.0638 40.2544 83.8702C40.3344 83.6766 40.3714 83.4702 40.3652 83.2572C40.3714 83.0572 40.3344 82.8572 40.2606 82.67L40.2544 82.6765Z" fill="#ADADAD"/>
<path d="M51.9429 88.5677L51.9306 88.4967C51.9306 88.3999 51.9183 88.3031 51.8998 88.1999C51.8814 88.0966 51.8506 88.0386 51.8137 88.0192C51.8075 88.0192 51.7952 88.0063 51.7767 88.0063L51.7398 88.0386L51.709 88.0515C51.1181 88.4064 50.4534 88.5806 49.7025 88.5806C49.0377 88.5806 48.453 88.4128 47.9544 88.0708C47.4559 87.7289 47.0681 87.2901 46.7973 86.7416C46.5264 86.1931 46.391 85.6253 46.391 85.0381C46.391 84.2187 46.5634 83.5218 46.9081 82.9475C47.2527 82.3732 47.6836 81.9474 48.1945 81.6635C48.7053 81.3795 49.2101 81.2376 49.7086 81.2376C50.0718 81.2376 50.4165 81.2957 50.7488 81.4183L50.7673 81.4312C50.7673 81.4312 50.7919 81.4312 50.7981 81.4441C50.915 81.4828 51.0566 81.5473 51.2228 81.6376L51.2536 81.657L51.2659 81.6699L51.2536 81.6118L51.2412 81.5989C51.2351 81.5602 51.2105 81.4957 51.1735 81.4183L51.1366 81.3602L51.3767 81.2182L51.7275 81.9603L52.103 82.6894L51.8691 82.8314L51.8321 82.7733C51.629 82.4571 51.3705 82.1861 51.0443 81.9603C50.9089 81.8764 50.7488 81.8054 50.558 81.7344C50.2687 81.6376 49.9795 81.5925 49.6963 81.5925C49.2716 81.5925 48.8531 81.7151 48.453 81.9667C48.0467 82.2184 47.7144 82.5862 47.4559 83.0637C47.1973 83.5476 47.0681 84.1154 47.0681 84.7736C47.0681 85.3027 47.142 85.7866 47.2958 86.2254C47.4497 86.6642 47.6651 87.0384 47.9483 87.3481C48.1945 87.6127 48.4776 87.8192 48.8038 87.9611C49.13 88.1096 49.4624 88.1805 49.8071 88.1805C50.4842 88.1805 51.0812 88.0192 51.6044 87.703V86.0835C51.6106 86.0383 51.6106 85.9996 51.6044 85.9673C51.6044 85.935 51.6044 85.9092 51.6044 85.8899C51.5921 85.8124 51.5613 85.7673 51.5182 85.735C51.4136 85.7092 51.3028 85.6963 51.1858 85.7028H51.0504V85.3866H52.2261V88.5677H51.9429Z" fill="#ADADAD"/>
<path d="M58.0057 81.8054V88.1418C58.0057 88.1741 58.018 88.1999 58.0365 88.2257C58.0672 88.258 58.1349 88.2773 58.2334 88.2773H58.4304V88.5741H56.9286V88.2773H57.1624C57.1994 88.2773 57.2548 88.2644 57.3163 88.2386C57.3409 88.2063 57.3533 88.1612 57.3533 88.1031V81.8119C57.3533 81.7602 57.3409 81.7151 57.3163 81.6764C57.2425 81.6441 57.1809 81.6312 57.1317 81.6376H56.9286V81.3408H58.4304V81.6376H58.2334C58.1288 81.6376 58.0672 81.6505 58.0365 81.6764C58.0118 81.7151 57.9995 81.7602 58.0057 81.8119V81.8054Z" fill="#ADADAD"/>
<path d="M68.3093 88.587V88.2902H68.377C68.494 88.2902 68.6048 88.2773 68.7094 88.258C68.7402 88.2451 68.771 88.2257 68.7956 88.1999V88.1676C68.7956 88.1676 68.7894 88.1096 68.7771 88.0579L68.2047 86.819H64.6655L64.247 87.8773L64.2346 87.9289C64.21 87.9999 64.2039 88.0773 64.2162 88.1612C64.2285 88.2128 64.2531 88.2515 64.2962 88.2709C64.4316 88.2967 64.567 88.3096 64.7024 88.3031H64.7701V88.587H63.1329V88.3031L63.416 88.2902C63.6007 88.258 63.7484 88.1547 63.853 87.987L66.112 82.2313L65.7119 81.3537H66.4382L69.4665 87.987C69.5526 88.1547 69.6819 88.258 69.8542 88.2902H70.1435V88.587H68.3093ZM64.8009 86.4706H68.0508L66.3028 82.6507L64.8009 86.4706ZM65.5888 80.8891C65.5888 80.773 65.638 80.6698 65.7426 80.5859C65.8165 80.5278 65.8965 80.4955 65.9827 80.4955L66.1366 80.5149L66.2904 80.5536L66.3766 80.5859C66.3766 80.5859 66.4259 80.5988 66.4628 80.5988C66.4813 80.5988 66.512 80.5988 66.549 80.5794C66.5859 80.5665 66.6167 80.5472 66.6351 80.5214C66.6659 80.4891 66.7028 80.4697 66.7398 80.4697C66.7705 80.4697 66.789 80.4826 66.7952 80.502C66.8259 80.5407 66.8321 80.5859 66.8075 80.6375C66.789 80.7407 66.7336 80.8246 66.6536 80.8891C66.5797 80.9343 66.4936 80.9601 66.3889 80.9601C66.3397 80.9601 66.2966 80.9601 66.272 80.9472L66.1489 80.9085C66.1489 80.9085 66.1243 80.8956 66.1058 80.8891C66.0873 80.8827 66.0689 80.8762 66.0442 80.8762C66.0073 80.8633 65.9704 80.8569 65.9458 80.8569C65.8719 80.8569 65.8104 80.8891 65.7611 80.9601C65.7242 80.9988 65.6873 81.0182 65.6565 81.0182H65.6257L65.5949 80.9859C65.5949 80.9859 65.5765 80.9279 65.5765 80.8956L65.5888 80.8891Z" fill="#ADADAD"/>
<path d="M81.7767 86.1996C81.6289 86.5997 81.4197 86.9674 81.1427 87.2901C80.8165 87.6708 80.4349 87.974 79.9978 88.1934C79.5424 88.4193 79.0623 88.5419 78.5452 88.5612C78.5145 88.5677 78.4652 88.5741 78.4098 88.5741C78.0159 88.5741 77.6343 88.5161 77.265 88.3935C76.7664 88.2257 76.3356 87.9611 75.9724 87.6127C75.6093 87.2836 75.3261 86.8836 75.1292 86.4125C74.926 85.9415 74.8276 85.4575 74.8276 84.9478C74.8276 84.5219 74.9014 84.1025 75.0492 83.696C75.1969 83.2895 75.4061 82.9217 75.677 82.5991C75.9847 82.2313 76.3663 81.9345 76.8218 81.6957C77.3388 81.4441 77.8682 81.3215 78.4037 81.3215C78.8592 81.3215 79.29 81.4054 79.7147 81.5731C80.1333 81.7409 80.5149 81.9796 80.8473 82.2894C81.2166 82.6184 81.4997 83.0185 81.6967 83.4831C81.8936 83.9477 81.9921 84.4381 81.9921 84.9543C81.9921 85.3866 81.9182 85.806 81.7767 86.2125V86.1996ZM81.1242 86.1157C81.2596 85.7415 81.3273 85.3543 81.3273 84.9607C81.3273 84.4768 81.235 84.0122 81.0565 83.5605C80.8842 83.1669 80.6564 82.8314 80.3795 82.541C80.0532 82.1861 79.6655 81.9345 79.2161 81.7796C78.933 81.6764 78.6314 81.6312 78.3113 81.6441C77.9113 81.6699 77.5358 81.7796 77.1788 81.9667C76.828 82.1538 76.5202 82.412 76.2617 82.7346C76.0032 83.0508 75.8062 83.4056 75.6647 83.7992C75.5231 84.1864 75.4554 84.5929 75.4554 85.0059C75.4554 85.4447 75.5416 85.8705 75.7077 86.2835C75.8739 86.6964 76.114 87.0513 76.4156 87.3546C76.6741 87.6256 76.9757 87.8385 77.3204 87.987C77.6651 88.1354 78.0221 88.2128 78.3914 88.2128C78.8038 88.2128 79.1977 88.116 79.5731 87.9289C79.9486 87.7418 80.2687 87.4772 80.5456 87.1352C80.7918 86.8384 80.9827 86.5029 81.1181 86.1222L81.1242 86.1157Z" fill="#ADADAD"/>
<path d="M97.3183 82.5216C97.4106 82.741 97.4537 82.9604 97.4537 83.1927C97.4537 83.7992 97.2752 84.2638 96.9182 84.5865C96.4504 85.0188 95.7426 85.2382 94.7947 85.2382H94.5546V88.0966C94.5546 88.1483 94.567 88.1934 94.5916 88.2322C94.6408 88.258 94.7024 88.2709 94.7762 88.2709H94.9793V88.5677H93.4775V88.2709H93.7114C93.7606 88.2709 93.816 88.2515 93.8653 88.2192C93.8899 88.1934 93.9022 88.1547 93.9022 88.0966V81.8054C93.9022 81.7538 93.8899 81.7086 93.8653 81.6699C93.7914 81.6376 93.7299 81.6247 93.6806 81.6312H93.4775V81.3344H94.4869C94.5423 81.3344 94.6593 81.3215 94.8378 81.3215C95.2194 81.3215 95.601 81.3666 95.9765 81.457C96.3519 81.5473 96.672 81.7151 96.9305 81.9603C97.0967 82.1151 97.226 82.3023 97.3183 82.5216ZM96.672 82.6765C96.5981 82.4894 96.4873 82.3216 96.3396 82.1861C96.075 81.9474 95.7918 81.7925 95.4964 81.7151C95.2009 81.6376 94.887 81.6118 94.5546 81.6247V84.9284C94.8809 84.9413 95.1886 84.9091 95.4779 84.8381C95.7734 84.7607 96.0503 84.6058 96.315 84.3671C96.4689 84.2251 96.5858 84.0574 96.672 83.8638C96.752 83.6702 96.7889 83.4702 96.7766 83.2572C96.7828 83.0572 96.752 82.8572 96.672 82.67V82.6765Z" fill="#ADADAD"/>
<path d="M106.188 89L105.935 88.858L105.972 88.8C106.009 88.7483 106.034 88.6903 106.04 88.6258L106.052 88.6064C106.052 88.6064 106.065 88.5677 106.065 88.5354H102.156V88.2515L102.359 88.2386H102.39C102.427 88.2386 102.482 88.2257 102.544 88.1999C102.569 88.1676 102.581 88.1225 102.581 88.0644V81.7731C102.581 81.7215 102.569 81.6764 102.544 81.6505C102.476 81.6054 102.421 81.586 102.359 81.5989H102.156V81.3021H103.658V81.5989H103.461C103.363 81.5989 103.301 81.6183 103.264 81.6505C103.239 81.6764 103.227 81.7215 103.227 81.7731V88.187H106.009C106.009 88.187 106.046 88.1805 106.089 88.1676C106.206 88.116 106.36 87.9224 106.557 87.5869L106.637 87.4514L106.674 87.3998L106.908 87.5417L106.539 88.2644L106.188 88.9935V89Z" fill="#ADADAD"/>
<path d="M116.775 88.587V88.2902H116.842C116.959 88.2902 117.07 88.2773 117.175 88.258C117.205 88.2451 117.236 88.2257 117.261 88.1999V88.1676C117.261 88.1676 117.255 88.1096 117.242 88.0579L116.67 86.819H113.131L112.712 87.8773L112.7 87.9289C112.675 87.9999 112.669 88.0773 112.681 88.1612C112.694 88.2128 112.718 88.2515 112.761 88.2709C112.897 88.2967 113.032 88.3096 113.168 88.3031H113.235V88.587H111.598V88.3031L111.881 88.2902C112.066 88.258 112.214 88.1547 112.318 87.987C112.521 87.503 113.272 85.5866 114.577 82.2313L114.177 81.3537H114.903L117.932 87.974L117.876 88.0128L117.932 87.9805C117.962 88.0644 118.012 88.1289 118.079 88.187C118.147 88.2451 118.227 88.2773 118.319 88.2902H118.609V88.587H116.775ZM113.266 86.4706H116.516L114.768 82.6507L113.266 86.4706ZM114.109 81.0376L114.786 80.231L115.211 80.5149L115.143 80.573L114.368 81.1731L114.331 81.2053L114.109 81.0311V81.0376Z" fill="#ADADAD"/>
<path d="M126.506 84.7865C126.85 84.9736 127.127 85.2059 127.349 85.4898C127.571 85.7737 127.681 86.1222 127.681 86.5287C127.681 86.9804 127.564 87.3675 127.324 87.6901C127.127 87.9547 126.887 88.1676 126.598 88.3289C126.223 88.4967 125.841 88.5806 125.453 88.5806C125.238 88.5806 125.041 88.5548 124.85 88.5096C124.807 88.5096 124.752 88.4967 124.696 88.4773L124.641 88.4644C124.505 88.4193 124.351 88.3483 124.173 88.2644L124.142 88.245L124.13 88.2322L124.148 88.2902V88.3096C124.173 88.3935 124.198 88.4515 124.228 88.4902L124.265 88.5483L124.013 88.7032L123.662 87.9289L123.293 87.1868L123.527 87.032L123.564 87.09C123.779 87.4385 124.038 87.7159 124.351 87.9224C124.456 87.9999 124.579 88.0644 124.727 88.116C124.758 88.1225 124.838 88.1354 124.961 88.1547C125.078 88.1741 125.189 88.187 125.299 88.187C125.533 88.187 125.779 88.1418 126.044 88.0515C126.155 88.0128 126.266 87.9547 126.383 87.8773C126.623 87.703 126.795 87.5159 126.9 87.3288C127.004 87.1417 127.06 86.8836 127.06 86.5674C127.047 86.2641 126.974 85.9802 126.844 85.7221C126.715 85.464 126.518 85.2575 126.26 85.1091C125.995 84.9542 125.582 84.7671 125.016 84.5477L124.918 84.509C124.653 84.3993 124.395 84.2703 124.154 84.1154C123.933 83.967 123.767 83.7863 123.65 83.5734C123.533 83.3605 123.477 83.1282 123.477 82.8765C123.477 82.5539 123.564 82.2571 123.736 81.9925C123.908 81.728 124.142 81.5215 124.45 81.3666C124.752 81.2118 125.09 81.1408 125.459 81.1408C125.687 81.1408 125.921 81.1666 126.167 81.2247V81.2118L126.186 81.2247L126.223 81.2376L126.253 81.2505C126.395 81.2957 126.543 81.3666 126.69 81.457L126.709 81.4763H126.721L126.709 81.4183L126.697 81.4054C126.69 81.3666 126.666 81.3021 126.629 81.2247L126.592 81.1666L126.844 81.0117L127.195 81.7861L127.564 82.5281L127.331 82.683L127.294 82.6249C127.084 82.2829 126.826 82.0054 126.506 81.7796C126.383 81.7022 126.278 81.6505 126.186 81.6183C125.946 81.5538 125.724 81.515 125.515 81.515C125.152 81.515 124.862 81.5925 124.641 81.7409C124.419 81.8893 124.265 82.1345 124.167 82.4571C124.13 82.5862 124.111 82.7088 124.111 82.8314C124.111 83.1411 124.222 83.425 124.438 83.6702C124.653 83.9154 124.924 84.1025 125.238 84.2316C125.743 84.4122 126.167 84.5994 126.506 84.7865Z" fill="#ADADAD"/>
<path d="M138.028 82.412L137.942 82.2764C137.745 81.9474 137.597 81.7538 137.486 81.6957C137.449 81.6828 137.419 81.6764 137.4 81.6764H135.671V88.1225C135.671 88.1612 135.683 88.1934 135.701 88.2128C135.732 88.2451 135.8 88.2644 135.898 88.2644H136.095V88.5612H134.594V88.2644H134.827C134.877 88.2644 134.932 88.2451 134.981 88.2128C135.006 88.187 135.018 88.1483 135.018 88.0902V81.6764H133.282C133.282 81.6764 133.233 81.6828 133.202 81.6957C133.086 81.7473 132.932 81.9409 132.735 82.2764L132.655 82.412L132.618 82.4636L132.384 82.3216L132.753 81.5989L133.092 80.8891L133.344 81.0311L133.307 81.0892C133.289 81.1214 133.264 81.1731 133.239 81.244V81.2634C133.239 81.2634 133.227 81.3021 133.227 81.3344H137.456C137.456 81.3344 137.449 81.2892 137.437 81.2634V81.244C137.431 81.2118 137.419 81.1795 137.406 81.1602C137.394 81.1343 137.382 81.115 137.376 81.0956L137.339 81.0376L137.579 80.8956L137.917 81.6054L138.287 82.3281L138.065 82.47L138.028 82.4184V82.412Z" fill="#ADADAD"/>
<path d="M144.072 81.8054V88.1418C144.072 88.1741 144.085 88.1999 144.103 88.2257C144.134 88.258 144.202 88.2773 144.3 88.2773H144.497V88.5741H142.995V88.2773H143.229C143.266 88.2773 143.321 88.2644 143.383 88.2386C143.408 88.2063 143.42 88.1612 143.42 88.1031V81.8119C143.42 81.7602 143.408 81.7151 143.383 81.6764C143.309 81.6441 143.248 81.6312 143.198 81.6376H142.995V81.3408H144.497V81.6376H144.3C144.195 81.6376 144.134 81.6505 144.103 81.6764C144.079 81.7151 144.066 81.7602 144.072 81.8119V81.8054Z" fill="#ADADAD"/>
<path d="M154.856 87.8256C154.505 88.0837 154.142 88.2709 153.773 88.3935C153.397 88.5161 152.979 88.5741 152.511 88.5741C151.846 88.5741 151.262 88.4064 150.763 88.0644C150.264 87.7224 149.877 87.2836 149.606 86.7352C149.335 86.1867 149.2 85.6189 149.2 85.0317C149.2 84.2122 149.372 83.5153 149.717 82.9411C150.061 82.3668 150.492 81.9409 151.003 81.657C151.514 81.3731 152.019 81.2311 152.517 81.2311C152.874 81.2311 153.219 81.2892 153.557 81.4118L153.576 81.4247C153.576 81.4247 153.6 81.4247 153.607 81.4376C153.724 81.4763 153.865 81.5409 154.031 81.6312L154.062 81.6505L154.074 81.6635L154.062 81.6054L154.05 81.586C154.044 81.5538 154.019 81.4957 153.982 81.4118L153.945 81.3537L154.185 81.2118L154.536 81.9538L154.911 82.683L154.678 82.8249L154.641 82.7668C154.438 82.4507 154.179 82.1797 153.853 81.9538C153.717 81.8699 153.557 81.799 153.367 81.728C153.028 81.6118 152.696 81.5667 152.357 81.586C151.945 81.6054 151.545 81.7473 151.163 82.0054C150.781 82.2635 150.474 82.6378 150.234 83.1153C149.994 83.5928 149.877 84.1477 149.877 84.78C149.877 85.3091 149.95 85.7931 150.098 86.2254C150.246 86.6577 150.468 87.032 150.757 87.3417C151.003 87.6063 151.286 87.8127 151.612 87.9547C151.939 88.1031 152.271 88.1741 152.622 88.1741C153.373 88.1741 154.025 87.9805 154.591 87.5869C154.795 87.4514 154.992 87.2901 155.182 87.0965L155.219 87.0578L155.484 87.2643L155.429 87.3223C155.232 87.5288 155.047 87.6966 154.868 87.8321L154.856 87.8256Z" fill="#ADADAD"/>
<path d="M166.803 86.1996C166.655 86.5997 166.446 86.9674 166.169 87.2901C165.843 87.6708 165.461 87.974 165.024 88.1934C164.569 88.4193 164.089 88.5419 163.572 88.5612C163.541 88.5677 163.492 88.5741 163.436 88.5741C163.042 88.5741 162.661 88.5161 162.291 88.3935C161.793 88.2257 161.362 87.9611 160.999 87.6127C160.636 87.2836 160.353 86.8836 160.156 86.4125C159.953 85.9415 159.854 85.4575 159.854 84.9478C159.854 84.5219 159.928 84.1025 160.076 83.696C160.223 83.2895 160.433 82.9217 160.703 82.5991C161.011 82.2313 161.393 81.9345 161.848 81.6957C162.365 81.4441 162.895 81.3215 163.43 81.3215C163.886 81.3215 164.316 81.4054 164.741 81.5731C165.16 81.7409 165.541 81.9796 165.874 82.2894C166.243 82.6184 166.526 83.0185 166.723 83.4831C166.92 83.9477 167.019 84.4381 167.019 84.9543C167.019 85.3866 166.945 85.806 166.803 86.2125V86.1996ZM166.151 86.1157C166.286 85.7415 166.354 85.3543 166.354 84.9607C166.354 84.4768 166.261 84.0122 166.083 83.5605C165.911 83.1669 165.683 82.8314 165.406 82.541C165.08 82.1861 164.692 81.9345 164.243 81.7796C163.959 81.6764 163.658 81.6312 163.338 81.6441C162.938 81.6699 162.562 81.7796 162.205 81.9667C161.854 82.1538 161.547 82.412 161.288 82.7346C161.03 83.0508 160.833 83.4056 160.691 83.7992C160.55 84.1864 160.482 84.5929 160.482 85.0059C160.482 85.4447 160.568 85.8705 160.734 86.2835C160.9 86.6964 161.14 87.0513 161.442 87.3546C161.701 87.6256 162.002 87.8385 162.347 87.987C162.692 88.1354 163.049 88.2128 163.418 88.2128C163.83 88.2128 164.224 88.116 164.6 87.9289C164.975 87.7418 165.295 87.4772 165.572 87.1352C165.818 86.8384 166.009 86.5029 166.145 86.1222L166.151 86.1157Z" fill="#ADADAD"/>
</g>
</svg>
