<svg width="106" height="73" viewBox="0 0 106 73" fill="none" xmlns="http://www.w3.org/2000/svg">
<g id="Vector">
<path d="M56.8572 22.6582C56.9028 22.5142 56.9255 22.3792 56.9255 22.2531C56.9255 21.8345 56.6387 21.5959 55.8466 21.5959C54.8224 21.5959 54.317 22.037 54.0211 23.3469H55.3504C56.4293 23.3469 56.6934 23.1804 56.8572 22.6582Z" fill="#ADADAD"/>
<path d="M56.8572 22.6582C56.9028 22.5142 56.9255 22.3792 56.9255 22.2531C56.9255 21.8345 56.6387 21.5959 55.8466 21.5959C54.8224 21.5959 54.317 22.037 54.0211 23.3469H55.3504C56.4293 23.3469 56.6934 23.1804 56.8572 22.6582Z" fill="#ADADAD"/>
<path d="M0 12.7741V60.1439C5.01313 62.66 26.9446 72.9592 52.8471 72.9592C78.7496 72.9592 100.706 62.66 105.719 60.1439V12.7741C100.706 10.1798 78.7742 0 52.8471 0C26.92 0 5.01313 10.1798 0 12.7741ZM48.1376 4.72339C47.3458 3.93684 47.4073 4.17157 46.8576 3.69388C47.8381 3.71447 49.1631 4.50924 49.7128 5.06106C52.0676 7.40834 49.8975 10.0645 48.8185 12.0864C47.9734 13.6678 47.235 15.3067 48.1621 17.0569C47.4893 16.8798 46.7632 15.5868 46.5786 14.9238C45.992 12.8153 47.0422 11.234 47.9283 9.48795C48.7406 7.88191 48.9662 7.93545 48.9662 6.20587C48.9662 5.65406 48.4945 5.07342 48.1376 4.72339ZM41.7173 19.5977C41.8486 19.4906 41.9962 19.4371 42.1603 19.4371C42.3244 19.4371 42.4762 19.4906 42.6075 19.5977C42.7388 19.7048 42.8044 19.8448 42.8044 20.0136C42.8044 20.1825 42.7388 20.3225 42.6075 20.4296C42.4762 20.5366 42.3244 20.5902 42.1603 20.5902C41.9962 20.5902 41.8486 20.5366 41.7173 20.4296C41.5819 20.3225 41.5163 20.1866 41.5163 20.0136C41.5163 19.8407 41.5819 19.7048 41.7173 19.5977ZM42.6157 21.179L41.5778 26.5201H40.5153L41.5491 21.179H42.6157ZM39.5553 18.8194H40.6178C40.6178 18.8194 39.9574 22.1509 39.7604 23.1928L39.1204 26.4995H38.0538L39.5553 18.8194ZM33.0038 21.002C33.1597 20.2278 33.4796 19.6389 33.9514 19.2353C34.4273 18.8318 35.0509 18.6176 35.814 18.597C36.5893 18.5764 37.1349 18.7618 37.4508 19.1489C37.7667 19.5401 37.8446 20.1166 37.6887 20.8743L36.5605 26.4954H35.5473L36.2446 23.0198L33.5822 23.0939L32.9012 26.4954H31.8961L33.0038 21.002ZM24.1426 53.2915H5.71466L15.0312 18.5929H21.6442L13.8169 48.4816H25.5333L24.1426 53.2915ZM44.9008 38.9525C44.47 40.8921 43.2967 42.6052 41.3809 44.0835C39.4691 45.566 37.3851 46.3073 35.1329 46.3073C34.296 46.3073 33.4961 46.1961 32.7207 45.9819C33.4673 50.5406 38.1605 48.7822 40.5481 46.3526L38.9276 52.5502C37.6313 53.3821 36.2405 53.798 34.7596 53.798C33.4632 53.798 32.1669 53.4768 30.8705 52.8302C28.0317 51.4425 26.6082 48.7905 26.6082 44.8701C26.6082 42.774 27.1045 40.7068 28.0932 38.6724C29.1721 36.4528 30.6696 34.6697 32.5854 33.3314C34.4971 31.9889 36.4252 31.3176 38.3738 31.3176C39.4528 31.3176 40.4578 31.5318 41.3809 31.9642C43.8218 32.796 45.0402 34.6491 45.0402 37.5153C45.0402 38.0383 44.9951 38.5201 44.9008 38.9525ZM44.7285 23.2133L44.0844 26.5201H43.0219L43.6905 23.061C43.9695 21.5497 44.7982 21.0143 46.3202 21.0143C47.0791 21.0143 47.6658 21.2079 48.0145 21.595C48.4575 21.1832 49.0934 21.0143 49.9467 21.0143C51.2307 21.0143 52.0143 21.562 52.0143 22.678C52.0143 22.8304 51.9938 23.0075 51.9651 23.2051L51.3209 26.5201H50.2543L50.8984 23.2051C50.9272 23.0404 50.9477 22.8716 50.9477 22.7604C50.9477 22.1385 50.5867 21.912 49.9262 21.912C48.9006 21.912 48.5477 22.1715 48.3508 23.2133L47.7109 26.5201H46.632L47.2719 23.2051C47.3047 23.0404 47.3253 22.8716 47.3253 22.7604C47.3253 22.1385 46.9601 21.912 46.2996 21.912C45.274 21.912 44.9254 22.1715 44.7285 23.2133ZM58.8284 51.7431C56.9782 53.0814 55.0952 53.7527 53.1794 53.7527C52.0676 53.7527 51.0339 53.5221 50.078 53.0609C47.1735 51.6401 45.7253 48.9263 45.7253 44.9195C45.7253 42.7575 46.2341 40.645 47.2515 38.5819C48.3345 36.3293 49.799 34.5338 51.6533 33.1913C53.5035 31.8489 55.3865 31.1776 57.3023 31.1776C58.4141 31.1776 59.4478 31.4247 60.4037 31.9189C63.3041 33.3066 64.7563 36.004 64.7563 40.0149C64.7563 42.1728 64.2476 44.2853 63.2302 46.3526C62.1472 48.6051 60.6827 50.4006 58.8284 51.7431ZM93.4691 23.1516C94.2075 22.5833 95.1059 22.2827 96.152 22.2497C97.2022 22.2209 98.1006 22.4598 98.8391 22.9663C99.5816 23.4769 99.9507 24.1152 99.9507 24.8853C99.9507 25.6553 99.5816 26.3266 98.8391 26.899C98.1006 27.4714 97.2022 27.772 96.152 27.8008C95.1059 27.8338 94.2075 27.5949 93.4691 27.0843C92.7265 26.5778 92.3572 25.9354 92.3572 25.1653C92.3572 24.3952 92.7265 23.724 93.4691 23.1516ZM97.637 31.3629L91.8937 53.3368H85.5021L91.2455 31.3629H97.637ZM86.1503 37.2847C86.1503 40.0232 83.2663 48.984 82.413 52.2002C82.1259 53.2832 81.9987 53.8186 82.2777 54.9716C82.7864 57.0553 84.7062 57.2818 86.1052 55.8817L87.4959 60.045C86.0437 61.5852 83.9596 62.4211 81.2438 62.5447C79.4511 62.5447 77.9865 61.9105 76.842 60.6463C74.8318 58.5131 75.0328 55.9641 75.7302 53.2915L79.5742 38.6272C79.6358 38.4707 79.6686 38.3183 79.6686 38.1659C79.6686 37.8571 79.5742 37.5976 79.406 37.3753H79.4019C79.2829 37.2188 79.1311 37.0747 78.926 36.9594C78.7127 36.774 78.4625 36.6834 78.1876 36.6834C72.994 36.6834 71.2258 50.1906 70.4053 53.2915H64.0179L69.7571 31.4577H76.1487L75.7795 32.936C80.0624 30.4158 86.1503 30.8276 86.1503 37.2847ZM74.0236 25.6224C74.9549 25.6553 75.0575 25.643 75.722 25.643C76.5794 25.643 76.9528 25.5483 77.0225 25.0953C77.0348 25.0212 77.0348 24.9923 77.0348 24.9388C77.0348 24.6629 76.879 24.5146 76.4769 24.4035L75.4718 24.1152C74.7785 23.9175 74.3641 23.5757 74.3641 22.8633C74.3641 22.7398 74.3764 22.5956 74.4052 22.4392C74.561 21.6238 75.2133 21.1585 76.5794 21.1585C77.4081 21.1585 77.843 21.1667 78.5855 21.1996L78.2532 22.0891C77.3465 22.0562 77.0636 22.0562 76.4769 22.0562C75.7713 22.0562 75.5046 22.1715 75.4103 22.5545C75.398 22.6039 75.3898 22.678 75.3898 22.748C75.3898 22.9869 75.5333 23.0898 75.8533 23.1845L76.7435 23.4398C77.7363 23.7405 78.1096 24.1152 78.1096 24.7741C78.1096 24.8976 78.0891 25.0747 78.0604 25.2394C77.9045 26.0671 77.2317 26.5407 75.6892 26.5407C74.9344 26.5407 74.4175 26.5531 73.6913 26.5201L74.0236 25.6224ZM68.4485 23.6787C68.8013 21.8173 69.5972 21.0143 71.2914 21.0143C72.6698 21.0143 73.4534 21.5291 73.4534 22.9663C73.4534 23.2875 73.4124 23.6169 73.3386 24.0205C72.9899 25.8818 72.194 26.6849 70.4956 26.6849C69.1213 26.6849 68.3336 26.1701 68.3336 24.7329C68.3336 24.4117 68.3746 24.0823 68.4485 23.6787ZM64.4733 24.5064L65.384 19.8325L66.4711 19.7213L66.1921 21.179H67.948L67.6075 22.0768H66.0157L65.5194 24.63C65.4866 24.8276 65.4661 24.9718 65.4661 25.0747C65.4661 25.4865 65.663 25.643 66.1717 25.643H67.3203L66.988 26.5201H66.0363C64.8753 26.5201 64.3994 26.0136 64.3994 25.1447C64.3994 24.9512 64.4322 24.7453 64.4733 24.5064ZM63.4271 22.678C63.4271 22.8304 63.4066 23.0075 63.3738 23.2051L62.7339 26.5201H61.6672L62.3072 23.2051C62.34 23.0404 62.3605 22.8716 62.3605 22.7604C62.3605 22.1385 61.9995 21.912 61.335 21.912C60.3135 21.912 59.9606 22.1715 59.7637 23.2133L59.1237 26.5201H58.0571L58.7299 23.061C59.0089 21.5497 59.8376 21.0143 61.3555 21.0143C62.6395 21.0143 63.4271 21.562 63.4271 22.678ZM56.1741 12.0041C56.3546 11.5428 56.5146 11.0775 56.7402 10.6616C57.7207 8.82907 58.414 8.12076 58.414 6.20587C58.414 5.65406 57.9422 5.07342 57.5853 4.72339C57.3392 4.47631 57.2531 4.36099 56.9495 4.15509L56.3587 3.73917L56.3054 3.69388C57.4992 3.71859 59.2345 4.78516 59.8171 5.90938C60.6417 7.49482 60.0919 8.68492 59.3863 10.0933C59.013 10.8469 58.5863 11.4852 58.1966 12.2182C57.6223 13.3054 56.9372 14.6643 57.2121 15.9491C57.3639 16.6657 57.4992 16.6698 57.61 17.1598C56.9987 16.748 56.3218 15.8091 56.0634 14.9896C55.7352 13.9354 55.7844 12.9883 56.1741 12.0041ZM57.7043 22.398C57.7043 22.5503 57.6838 22.7192 57.6428 22.8921C57.4253 23.8352 56.8141 24.2882 55.2511 24.2882H53.9055C53.8973 24.3829 53.8849 24.5064 53.8849 24.597C53.8849 25.3012 54.2049 25.643 55.0746 25.643C55.891 25.643 56.2152 25.643 56.8552 25.5895L56.5146 26.479C56.047 26.5201 55.6449 26.5325 54.9803 26.5325C53.3681 26.5325 52.8389 25.7459 52.8389 24.6382C52.8389 24.3417 52.8841 24.0081 52.9538 23.6499C53.401 21.4467 54.5578 21.002 55.7598 21.002C57.1259 21.002 57.7043 21.562 57.7043 22.398ZM52.3835 15.352C52.3835 16.258 52.7404 16.5339 52.8881 17.1598C52.5353 16.9251 52.1989 16.5751 51.9404 16.1962C49.3108 12.4035 53.6921 9.47559 53.6921 6.50649C53.6921 5.76936 53.2983 5.16813 52.9168 4.7728C52.203 4.03567 52.3466 4.28687 51.7435 3.82977C51.5343 3.67329 51.6984 3.79683 51.5794 3.69388C52.4778 3.71447 53.7865 4.43924 54.2706 4.92105C57.8397 8.46256 52.3835 11.7117 52.3835 15.352Z" fill="#ADADAD"/>
<path d="M0 12.7741V60.1439C5.01313 62.66 26.9446 72.9592 52.8471 72.9592C78.7496 72.9592 100.706 62.66 105.719 60.1439V12.7741C100.706 10.1798 78.7742 0 52.8471 0C26.92 0 5.01313 10.1798 0 12.7741ZM48.1376 4.72339C47.3458 3.93684 47.4073 4.17157 46.8576 3.69388C47.8381 3.71447 49.1631 4.50924 49.7128 5.06106C52.0676 7.40834 49.8975 10.0645 48.8185 12.0864C47.9734 13.6678 47.235 15.3067 48.1621 17.0569C47.4893 16.8798 46.7632 15.5868 46.5786 14.9238C45.992 12.8153 47.0422 11.234 47.9283 9.48795C48.7406 7.88191 48.9662 7.93545 48.9662 6.20587C48.9662 5.65406 48.4945 5.07342 48.1376 4.72339ZM41.7173 19.5977C41.8486 19.4906 41.9962 19.4371 42.1603 19.4371C42.3244 19.4371 42.4762 19.4906 42.6075 19.5977C42.7388 19.7048 42.8044 19.8448 42.8044 20.0136C42.8044 20.1825 42.7388 20.3225 42.6075 20.4296C42.4762 20.5366 42.3244 20.5902 42.1603 20.5902C41.9962 20.5902 41.8486 20.5366 41.7173 20.4296C41.5819 20.3225 41.5163 20.1866 41.5163 20.0136C41.5163 19.8407 41.5819 19.7048 41.7173 19.5977ZM42.6157 21.179L41.5778 26.5201H40.5153L41.5491 21.179H42.6157ZM39.5553 18.8194H40.6178C40.6178 18.8194 39.9574 22.1509 39.7604 23.1928L39.1204 26.4995H38.0538L39.5553 18.8194ZM33.0038 21.002C33.1597 20.2278 33.4796 19.6389 33.9514 19.2353C34.4273 18.8318 35.0509 18.6176 35.814 18.597C36.5893 18.5764 37.1349 18.7618 37.4508 19.1489C37.7667 19.5401 37.8446 20.1166 37.6887 20.8743L36.5605 26.4954H35.5473L36.2446 23.0198L33.5822 23.0939L32.9012 26.4954H31.8961L33.0038 21.002ZM24.1426 53.2915H5.71466L15.0312 18.5929H21.6442L13.8169 48.4816H25.5333L24.1426 53.2915ZM44.9008 38.9525C44.47 40.8921 43.2967 42.6052 41.3809 44.0835C39.4691 45.566 37.3851 46.3073 35.1329 46.3073C34.296 46.3073 33.4961 46.1961 32.7207 45.9819C33.4673 50.5406 38.1605 48.7822 40.5481 46.3526L38.9276 52.5502C37.6313 53.3821 36.2405 53.798 34.7596 53.798C33.4632 53.798 32.1669 53.4768 30.8705 52.8302C28.0317 51.4425 26.6082 48.7905 26.6082 44.8701C26.6082 42.774 27.1045 40.7068 28.0932 38.6724C29.1721 36.4528 30.6696 34.6697 32.5854 33.3314C34.4971 31.9889 36.4252 31.3176 38.3738 31.3176C39.4528 31.3176 40.4578 31.5318 41.3809 31.9642C43.8218 32.796 45.0402 34.6491 45.0402 37.5153C45.0402 38.0383 44.9951 38.5201 44.9008 38.9525ZM44.7285 23.2133L44.0844 26.5201H43.0219L43.6905 23.061C43.9695 21.5497 44.7982 21.0143 46.3202 21.0143C47.0791 21.0143 47.6658 21.2079 48.0145 21.595C48.4575 21.1832 49.0934 21.0143 49.9467 21.0143C51.2307 21.0143 52.0143 21.562 52.0143 22.678C52.0143 22.8304 51.9938 23.0075 51.9651 23.2051L51.3209 26.5201H50.2543L50.8984 23.2051C50.9272 23.0404 50.9477 22.8716 50.9477 22.7604C50.9477 22.1385 50.5867 21.912 49.9262 21.912C48.9006 21.912 48.5477 22.1715 48.3508 23.2133L47.7109 26.5201H46.632L47.2719 23.2051C47.3047 23.0404 47.3253 22.8716 47.3253 22.7604C47.3253 22.1385 46.9601 21.912 46.2996 21.912C45.274 21.912 44.9254 22.1715 44.7285 23.2133ZM58.8284 51.7431C56.9782 53.0814 55.0952 53.7527 53.1794 53.7527C52.0676 53.7527 51.0339 53.5221 50.078 53.0609C47.1735 51.6401 45.7253 48.9263 45.7253 44.9195C45.7253 42.7575 46.2341 40.645 47.2515 38.5819C48.3345 36.3293 49.799 34.5338 51.6533 33.1913C53.5035 31.8489 55.3865 31.1776 57.3023 31.1776C58.4141 31.1776 59.4478 31.4247 60.4037 31.9189C63.3041 33.3066 64.7563 36.004 64.7563 40.0149C64.7563 42.1728 64.2476 44.2853 63.2302 46.3526C62.1472 48.6051 60.6827 50.4006 58.8284 51.7431ZM93.4691 23.1516C94.2075 22.5833 95.1059 22.2827 96.152 22.2497C97.2022 22.2209 98.1006 22.4598 98.8391 22.9663C99.5816 23.4769 99.9507 24.1152 99.9507 24.8853C99.9507 25.6553 99.5816 26.3266 98.8391 26.899C98.1006 27.4714 97.2022 27.772 96.152 27.8008C95.1059 27.8338 94.2075 27.5949 93.4691 27.0843C92.7265 26.5778 92.3572 25.9354 92.3572 25.1653C92.3572 24.3952 92.7265 23.724 93.4691 23.1516ZM97.637 31.3629L91.8937 53.3368H85.5021L91.2455 31.3629H97.637ZM86.1503 37.2847C86.1503 40.0232 83.2663 48.984 82.413 52.2002C82.1259 53.2832 81.9987 53.8186 82.2777 54.9716C82.7864 57.0553 84.7062 57.2818 86.1052 55.8817L87.4959 60.045C86.0437 61.5852 83.9596 62.4211 81.2438 62.5447C79.4511 62.5447 77.9865 61.9105 76.842 60.6463C74.8318 58.5131 75.0328 55.9641 75.7302 53.2915L79.5742 38.6272C79.6358 38.4707 79.6686 38.3183 79.6686 38.1659C79.6686 37.8571 79.5742 37.5976 79.406 37.3753H79.4019C79.2829 37.2188 79.1311 37.0747 78.926 36.9594C78.7127 36.774 78.4625 36.6834 78.1876 36.6834C72.994 36.6834 71.2258 50.1906 70.4053 53.2915H64.0179L69.7571 31.4577H76.1487L75.7795 32.936C80.0624 30.4158 86.1503 30.8276 86.1503 37.2847ZM74.0236 25.6224C74.9549 25.6553 75.0575 25.643 75.722 25.643C76.5794 25.643 76.9528 25.5483 77.0225 25.0953C77.0348 25.0212 77.0348 24.9923 77.0348 24.9388C77.0348 24.6629 76.879 24.5146 76.4769 24.4035L75.4718 24.1152C74.7785 23.9175 74.3641 23.5757 74.3641 22.8633C74.3641 22.7398 74.3764 22.5956 74.4052 22.4392C74.561 21.6238 75.2133 21.1585 76.5794 21.1585C77.4081 21.1585 77.843 21.1667 78.5855 21.1996L78.2532 22.0891C77.3465 22.0562 77.0636 22.0562 76.4769 22.0562C75.7713 22.0562 75.5046 22.1715 75.4103 22.5545C75.398 22.6039 75.3898 22.678 75.3898 22.748C75.3898 22.9869 75.5333 23.0898 75.8533 23.1845L76.7435 23.4398C77.7363 23.7405 78.1096 24.1152 78.1096 24.7741C78.1096 24.8976 78.0891 25.0747 78.0604 25.2394C77.9045 26.0671 77.2317 26.5407 75.6892 26.5407C74.9344 26.5407 74.4175 26.5531 73.6913 26.5201L74.0236 25.6224ZM68.4485 23.6787C68.8013 21.8173 69.5972 21.0143 71.2914 21.0143C72.6698 21.0143 73.4534 21.5291 73.4534 22.9663C73.4534 23.2875 73.4124 23.6169 73.3386 24.0205C72.9899 25.8818 72.194 26.6849 70.4956 26.6849C69.1213 26.6849 68.3336 26.1701 68.3336 24.7329C68.3336 24.4117 68.3746 24.0823 68.4485 23.6787ZM64.4733 24.5064L65.384 19.8325L66.4711 19.7213L66.1921 21.179H67.948L67.6075 22.0768H66.0157L65.5194 24.63C65.4866 24.8276 65.4661 24.9718 65.4661 25.0747C65.4661 25.4865 65.663 25.643 66.1717 25.643H67.3203L66.988 26.5201H66.0363C64.8753 26.5201 64.3994 26.0136 64.3994 25.1447C64.3994 24.9512 64.4322 24.7453 64.4733 24.5064ZM63.4271 22.678C63.4271 22.8304 63.4066 23.0075 63.3738 23.2051L62.7339 26.5201H61.6672L62.3072 23.2051C62.34 23.0404 62.3605 22.8716 62.3605 22.7604C62.3605 22.1385 61.9995 21.912 61.335 21.912C60.3135 21.912 59.9606 22.1715 59.7637 23.2133L59.1237 26.5201H58.0571L58.7299 23.061C59.0089 21.5497 59.8376 21.0143 61.3555 21.0143C62.6395 21.0143 63.4271 21.562 63.4271 22.678ZM56.1741 12.0041C56.3546 11.5428 56.5146 11.0775 56.7402 10.6616C57.7207 8.82907 58.414 8.12076 58.414 6.20587C58.414 5.65406 57.9422 5.07342 57.5853 4.72339C57.3392 4.47631 57.2531 4.36099 56.9495 4.15509L56.3587 3.73917L56.3054 3.69388C57.4992 3.71859 59.2345 4.78516 59.8171 5.90938C60.6417 7.49482 60.0919 8.68492 59.3863 10.0933C59.013 10.8469 58.5863 11.4852 58.1966 12.2182C57.6223 13.3054 56.9372 14.6643 57.2121 15.9491C57.3639 16.6657 57.4992 16.6698 57.61 17.1598C56.9987 16.748 56.3218 15.8091 56.0634 14.9896C55.7352 13.9354 55.7844 12.9883 56.1741 12.0041ZM57.7043 22.398C57.7043 22.5503 57.6838 22.7192 57.6428 22.8921C57.4253 23.8352 56.8141 24.2882 55.2511 24.2882H53.9055C53.8973 24.3829 53.8849 24.5064 53.8849 24.597C53.8849 25.3012 54.2049 25.643 55.0746 25.643C55.891 25.643 56.2152 25.643 56.8552 25.5895L56.5146 26.479C56.047 26.5201 55.6449 26.5325 54.9803 26.5325C53.3681 26.5325 52.8389 25.7459 52.8389 24.6382C52.8389 24.3417 52.8841 24.0081 52.9538 23.6499C53.401 21.4467 54.5578 21.002 55.7598 21.002C57.1259 21.002 57.7043 21.562 57.7043 22.398ZM52.3835 15.352C52.3835 16.258 52.7404 16.5339 52.8881 17.1598C52.5353 16.9251 52.1989 16.5751 51.9404 16.1962C49.3108 12.4035 53.6921 9.47559 53.6921 6.50649C53.6921 5.76936 53.2983 5.16813 52.9168 4.7728C52.203 4.03567 52.3466 4.28687 51.7435 3.82977C51.5343 3.67329 51.6984 3.79683 51.5794 3.69388C52.4778 3.71447 53.7865 4.43924 54.2706 4.92105C57.8397 8.46256 52.3835 11.7117 52.3835 15.352Z" fill="#ADADAD"/>
<path d="M36.5184 20.9998C36.5668 20.7521 36.5909 20.5211 36.595 20.307C36.595 20.0929 36.5627 19.9081 36.4941 19.7486C36.4296 19.589 36.3167 19.4673 36.1674 19.3833C36.0141 19.2951 35.8084 19.2573 35.5502 19.2615C35.2921 19.2699 35.0701 19.3203 34.8846 19.4169C34.699 19.5135 34.5417 19.6436 34.4127 19.8074C34.2836 19.9711 34.1787 20.1601 34.098 20.3784C34.0173 20.5925 33.9488 20.8276 33.9004 21.0754L33.6906 22.1796L36.3045 22.1082L36.5184 20.9998Z" fill="#ADADAD"/>
<path d="M36.5184 20.9998C36.5668 20.7521 36.5909 20.5211 36.595 20.307C36.595 20.0929 36.5627 19.9081 36.4941 19.7486C36.4296 19.589 36.3167 19.4673 36.1674 19.3833C36.0141 19.2951 35.8084 19.2573 35.5502 19.2615C35.2921 19.2699 35.0701 19.3203 34.8846 19.4169C34.699 19.5135 34.5417 19.6436 34.4127 19.8074C34.2836 19.9711 34.1787 20.1601 34.098 20.3784C34.0173 20.5925 33.9488 20.8276 33.9004 21.0754L33.6906 22.1796L36.3045 22.1082L36.5184 20.9998Z" fill="#ADADAD"/>
<path d="M58.8173 36.8879C58.7622 36.8309 58.6987 36.7862 58.6352 36.7414C58.3389 36.3831 57.941 36.1878 57.4331 36.1878C56.7008 36.1878 55.8881 36.6233 54.995 37.4945C54.1061 38.3616 53.34 39.5258 52.7051 40.9913C52.0321 42.5463 51.6976 44.024 51.6976 45.4285C51.6976 47.4394 52.303 48.4449 53.5135 48.4449C54.2458 48.4449 55.0585 48.0175 55.9516 47.1667C56.8447 46.3118 57.6151 45.1313 58.2712 43.621C58.923 42.1108 59.249 40.6575 59.249 39.2531C59.249 38.1743 59.0754 37.3886 58.7368 36.8798L58.8173 36.8879Z" fill="#ADADAD"/>
<path d="M58.8173 36.8879C58.7622 36.8309 58.6987 36.7862 58.6352 36.7414C58.3389 36.3831 57.941 36.1878 57.4331 36.1878C56.7008 36.1878 55.8881 36.6233 54.995 37.4945C54.1061 38.3616 53.34 39.5258 52.7051 40.9913C52.0321 42.5463 51.6976 44.024 51.6976 45.4285C51.6976 47.4394 52.303 48.4449 53.5135 48.4449C54.2458 48.4449 55.0585 48.0175 55.9516 47.1667C56.8447 46.3118 57.6151 45.1313 58.2712 43.621C58.923 42.1108 59.249 40.6575 59.249 39.2531C59.249 38.1743 59.0754 37.3886 58.7368 36.8798L58.8173 36.8879Z" fill="#ADADAD"/>
<path d="M70.8799 25.6816C71.9038 25.6816 72.2146 25.2373 72.4775 23.861C72.5572 23.395 72.6091 23.0369 72.6091 22.7435C72.6091 21.8677 72.2345 21.5959 71.4297 21.5959C70.4059 21.5959 70.0951 22.0403 69.8361 23.4166C69.7525 23.8825 69.7047 24.2406 69.7047 24.534C69.7047 25.4098 70.0752 25.6816 70.8799 25.6816Z" fill="#ADADAD"/>
<path d="M70.8799 25.6816C71.9038 25.6816 72.2146 25.2373 72.4775 23.861C72.5572 23.395 72.6091 23.0369 72.6091 22.7435C72.6091 21.8677 72.2345 21.5959 71.4297 21.5959C70.4059 21.5959 70.0951 22.0403 69.8361 23.4166C69.7525 23.8825 69.7047 24.2406 69.7047 24.534C69.7047 25.4098 70.0752 25.6816 70.8799 25.6816Z" fill="#ADADAD"/>
<path d="M39.5555 36.8938L39.5111 36.8614C38.1146 35.1606 35.9795 37.072 35.0229 38.2909C34.1107 39.445 33.473 40.6274 33.1097 41.8423C33.6869 41.9637 34.2641 42.0245 34.8412 42.0245C36.3588 42.0245 37.602 41.66 38.5747 40.9311C39.5797 40.0524 40.0802 39.1737 40.0802 38.2909C40.0802 37.809 39.8986 37.3433 39.5353 36.8898H39.5555V36.8938Z" fill="#ADADAD"/>
<path d="M39.5555 36.8938L39.5111 36.8614C38.1146 35.1606 35.9795 37.072 35.0229 38.2909C34.1107 39.445 33.473 40.6274 33.1097 41.8423C33.6869 41.9637 34.2641 42.0245 34.8412 42.0245C36.3588 42.0245 37.602 41.66 38.5747 40.9311C39.5797 40.0524 40.0802 39.1737 40.0802 38.2909C40.0802 37.809 39.8986 37.3433 39.5353 36.8898H39.5555V36.8938Z" fill="#ADADAD"/>
</g>
</svg>
