<svg width="172" height="75" viewBox="0 0 172 75" fill="none" xmlns="http://www.w3.org/2000/svg">
<g id="Vector">
<path d="M40.8196 48.3693C40.8196 50.2075 42.9541 51.3206 44.722 51.3633C44.9999 50.7491 46.4698 43.1321 46.4698 41.8143C46.4698 40.0444 43.7474 39.1061 41.8949 39.1061H29.9139C28.9474 39.1061 27.6103 39.9975 27.1432 40.5903C26.2733 41.6821 26.1767 42.1299 25.8263 43.7548L24.3966 51.3633C26.7646 51.3633 29.1568 50.0454 29.7327 47.6059C30.3126 45.1494 30.3891 40.9613 32.3383 40.9613H40.9525C42.6036 40.9613 41.5284 44.3903 41.3915 45.1323C41.2344 45.9597 40.8196 47.6401 40.8196 48.3736V48.3693Z" fill="#ADADAD"/>
<path d="M40.8196 48.3693C40.8196 50.2075 42.9541 51.3206 44.722 51.3633C44.9999 50.7491 46.4698 43.1321 46.4698 41.8143C46.4698 40.0444 43.7474 39.1061 41.8949 39.1061H29.9139C28.9474 39.1061 27.6103 39.9975 27.1432 40.5903C26.2733 41.6821 26.1767 42.1299 25.8263 43.7548L24.3966 51.3633C26.7646 51.3633 29.1568 50.0454 29.7327 47.6059C30.3126 45.1494 30.3891 40.9613 32.3383 40.9613H40.9525C42.6036 40.9613 41.5284 44.3903 41.3915 45.1323C41.2344 45.9597 40.8196 47.6401 40.8196 48.3736V48.3693Z" fill="#ADADAD"/>
<path d="M17.9107 43.1882L16.4136 50.3093C16.2341 51.1129 15.7789 51.7797 18.3484 51.0488C19.6485 50.6769 20.5284 50.1255 21.3557 49.1296C22.3406 47.9456 22.9228 43.1198 23.378 41.2476C23.5181 40.6706 23.7676 39.7045 23.8158 39.1061C20.8041 39.1061 18.5629 40.3457 17.9063 43.1924L17.9107 43.1882Z" fill="#ADADAD"/>
<path d="M17.9107 43.1882L16.4136 50.3093C16.2341 51.1129 15.7789 51.7797 18.3484 51.0488C19.6485 50.6769 20.5284 50.1255 21.3557 49.1296C22.3406 47.9456 22.9228 43.1198 23.378 41.2476C23.5181 40.6706 23.7676 39.7045 23.8158 39.1061C20.8041 39.1061 18.5629 40.3457 17.9063 43.1924L17.9107 43.1882Z" fill="#ADADAD"/>
<path d="M107.613 51.3633C108.322 51.3633 108.194 49.5536 106.521 49.5241L98.9353 49.5325C98.206 49.5368 97.7032 49.6336 97.2458 49.2885C96.1292 48.4383 96.7843 46.6665 96.9945 45.5807C98.0452 40.219 97.0769 41.0902 106.509 41.0902C107.922 41.0902 109.875 41.41 110.366 39.2637C105.59 39.2637 97.3077 38.4388 94.4274 40.5641C92.8492 41.7257 92.9646 42.3317 92.602 43.9057L91.7778 48.4047C91.7778 50.4668 94.8312 51.3591 97.011 51.3591H107.613V51.3633Z" fill="#ADADAD"/>
<path d="M107.613 51.3633C108.322 51.3633 108.194 49.5536 106.521 49.5241L98.9353 49.5325C98.206 49.5368 97.7032 49.6336 97.2458 49.2885C96.1292 48.4383 96.7843 46.6665 96.9945 45.5807C98.0452 40.219 97.0769 41.0902 106.509 41.0902C107.922 41.0902 109.875 41.41 110.366 39.2637C105.59 39.2637 97.3077 38.4388 94.4274 40.5641C92.8492 41.7257 92.9646 42.3317 92.602 43.9057L91.7778 48.4047C91.7778 50.4668 94.8312 51.3591 97.011 51.3591H107.613V51.3633Z" fill="#ADADAD"/>
<path d="M23.2099 34.4367C21.8125 34.4367 19.1688 35.6659 19.1688 36.9958C19.1688 37.7977 20.2791 37.9388 20.9362 37.9388C24.1238 37.9388 26.9186 34.4367 23.2099 34.4367Z" fill="#ADADAD"/>
<path d="M23.2099 34.4367C21.8125 34.4367 19.1688 35.6659 19.1688 36.9958C19.1688 37.7977 20.2791 37.9388 20.9362 37.9388C24.1238 37.9388 26.9186 34.4367 23.2099 34.4367Z" fill="#ADADAD"/>
<path d="M98.7483 46.0831C99.6747 46.0831 107.284 46.1705 107.826 46.0315C108.531 45.8448 109.184 45.2013 109.204 44.3592H101.001C99.7974 44.3592 98.8433 44.9788 98.7523 46.0831H98.7483Z" fill="#ADADAD"/>
<path d="M98.7483 46.0831C99.6747 46.0831 107.284 46.1705 107.826 46.0315C108.531 45.8448 109.184 45.2013 109.204 44.3592H101.001C99.7974 44.3592 98.8433 44.9788 98.7523 46.0831H98.7483Z" fill="#ADADAD"/>
<path d="M35.5676 42.6254C33.5681 42.6254 33.41 46.3094 32.9595 48.7204C32.8094 49.5129 32.5289 50.5666 32.5289 51.3633C34.2912 51.3211 36.1287 50.4317 36.9822 49.3527C37.6539 48.5054 38.3376 45.1502 38.3376 43.8984C38.3376 42.3388 36.6226 42.6296 35.5636 42.6296L35.5676 42.6254Z" fill="#ADADAD"/>
<path d="M35.5676 42.6254C33.5681 42.6254 33.41 46.3094 32.9595 48.7204C32.8094 49.5129 32.5289 50.5666 32.5289 51.3633C34.2912 51.3211 36.1287 50.4317 36.9822 49.3527C37.6539 48.5054 38.3376 45.1502 38.3376 43.8984C38.3376 42.3388 36.6226 42.6296 35.5636 42.6296L35.5676 42.6254Z" fill="#ADADAD"/>
<path d="M41.7001 27.0073C41.1706 25.9346 38.3533 25.9935 37.563 27.39C37.2192 28 36.6661 31.4913 36.4883 32.4293L36.0141 35.0204C38.2545 35.0204 40.4396 33.7964 41.0521 32.0886C41.3247 31.3272 42.1269 27.878 41.7001 27.0073Z" fill="#ADADAD"/>
<path d="M41.7001 27.0073C41.1706 25.9346 38.3533 25.9935 37.563 27.39C37.2192 28 36.6661 31.4913 36.4883 32.4293L36.0141 35.0204C38.2545 35.0204 40.4396 33.7964 41.0521 32.0886C41.3247 31.3272 42.1269 27.878 41.7001 27.0073Z" fill="#ADADAD"/>
<path d="M76.2509 42.0019C76.5003 41.4816 77.0359 40.9656 77.7146 40.9656H84.2724C84.8203 40.9656 85.176 41.2428 85.3027 41.7418C85.5399 42.6758 85.131 42.6971 86.3085 42.6843C87.5432 42.6715 88.7738 42.6715 90.0085 42.6715C90.0985 41.5584 90.0249 40.8291 88.7575 39.9847C87.9725 39.4601 86.6356 39.1061 85.36 39.1061H77.0236C75.4618 39.1061 73.5116 39.9122 72.6285 40.65C71.1363 41.8953 71.2957 42.8464 70.8419 45.0598C70.5108 46.6805 69.738 48.6849 70.9155 49.8962C71.954 50.9624 73.9859 51.3633 75.5191 51.3633H82.4899C84.6731 51.3633 86.8605 50.6852 87.993 49.5507C89.1704 48.3736 89.0886 47.4311 89.4688 45.529C89.567 45.047 89.9472 44.2367 89.3176 44.2367H77.4284C76.5453 44.2367 77.134 45.9128 78.1234 46.0791C78.9452 46.2156 81.9093 45.9725 83.0173 46.1047C85.409 46.3819 84.3624 49.5123 82.2078 49.5123H76.4676C74.0227 49.5123 75.2084 46.7615 75.7276 44.0363C75.8748 43.2643 75.9402 42.6033 76.2346 41.9977L76.2509 42.0019Z" fill="#ADADAD"/>
<path d="M76.2509 42.0019C76.5003 41.4816 77.0359 40.9656 77.7146 40.9656H84.2724C84.8203 40.9656 85.176 41.2428 85.3027 41.7418C85.5399 42.6758 85.131 42.6971 86.3085 42.6843C87.5432 42.6715 88.7738 42.6715 90.0085 42.6715C90.0985 41.5584 90.0249 40.8291 88.7575 39.9847C87.9725 39.4601 86.6356 39.1061 85.36 39.1061H77.0236C75.4618 39.1061 73.5116 39.9122 72.6285 40.65C71.1363 41.8953 71.2957 42.8464 70.8419 45.0598C70.5108 46.6805 69.738 48.6849 70.9155 49.8962C71.954 50.9624 73.9859 51.3633 75.5191 51.3633H82.4899C84.6731 51.3633 86.8605 50.6852 87.993 49.5507C89.1704 48.3736 89.0886 47.4311 89.4688 45.529C89.567 45.047 89.9472 44.2367 89.3176 44.2367H77.4284C76.5453 44.2367 77.134 45.9128 78.1234 46.0791C78.9452 46.2156 81.9093 45.9725 83.0173 46.1047C85.409 46.3819 84.3624 49.5123 82.2078 49.5123H76.4676C74.0227 49.5123 75.2084 46.7615 75.7276 44.0363C75.8748 43.2643 75.9402 42.6033 76.2346 41.9977L76.2509 42.0019Z" fill="#ADADAD"/>
<path d="M106.103 35.0204H114.435C116.838 35.0204 120.136 33.7074 120.307 31.643H115.665C115.583 32.6126 114.803 33.263 113.752 33.263H107.472C105.592 33.263 106.56 30.6693 106.912 28.9321C107.815 24.4679 107.296 25.1628 115.256 25.1628C116.887 25.1628 116.76 26.193 116.76 26.7828H121.402C121.402 24.0558 118.82 23.4054 115.804 23.4054C111.946 23.4054 107.811 22.9771 104.832 24.4396C102.38 25.6395 102.584 27.2555 101.91 30.5966C101.722 31.5177 101.456 32.3257 101.877 33.1256C102.474 34.2447 104.358 35.0204 106.111 35.0204H106.103Z" fill="#ADADAD"/>
<path d="M106.103 35.0204H114.435C116.838 35.0204 120.136 33.7074 120.307 31.643H115.665C115.583 32.6126 114.803 33.263 113.752 33.263H107.472C105.592 33.263 106.56 30.6693 106.912 28.9321C107.815 24.4679 107.296 25.1628 115.256 25.1628C116.887 25.1628 116.76 26.193 116.76 26.7828H121.402C121.402 24.0558 118.82 23.4054 115.804 23.4054C111.946 23.4054 107.811 22.9771 104.832 24.4396C102.38 25.6395 102.584 27.2555 101.91 30.5966C101.722 31.5177 101.456 32.3257 101.877 33.1256C102.474 34.2447 104.358 35.0204 106.111 35.0204H106.103Z" fill="#ADADAD"/>
<path d="M60.1224 28.6787C59.3785 28.8654 58.689 29.5089 58.6681 30.351H67.469C68.6266 30.351 69.6127 29.6638 69.7047 28.6271C68.7268 28.6271 60.6949 28.5397 60.1224 28.6787Z" fill="#ADADAD"/>
<path d="M60.1224 28.6787C59.3785 28.8654 58.689 29.5089 58.6681 30.351H67.469C68.6266 30.351 69.6127 29.6638 69.7047 28.6271C68.7268 28.6271 60.6949 28.5397 60.1224 28.6787Z" fill="#ADADAD"/>
<path d="M70.4638 23.4065C67.2604 23.4065 59.3943 23.0954 56.7723 23.8953C52.8351 25.095 53.3999 27.0543 52.5795 30.4556C52.4228 31.102 52.2785 31.5504 52.2785 32.3179C52.2785 34.0994 55.1727 35.0204 56.8259 35.0204H68.5385C68.5385 34.4508 68.5385 33.8166 67.9036 33.4853C66.5802 32.7946 58.3843 33.7358 57.6298 33.0168C56.6981 32.128 57.3248 30.4758 57.5268 29.4942C57.6834 28.7186 57.84 27.9793 58.0049 27.127C58.4048 25.095 59.3449 25.1597 61.6494 25.1597C62.9357 25.1597 69.025 25.3859 69.9196 24.889C70.2329 24.7153 71.4986 23.4024 70.472 23.4024L70.4638 23.4065Z" fill="#ADADAD"/>
<path d="M70.4638 23.4065C67.2604 23.4065 59.3943 23.0954 56.7723 23.8953C52.8351 25.095 53.3999 27.0543 52.5795 30.4556C52.4228 31.102 52.2785 31.5504 52.2785 32.3179C52.2785 34.0994 55.1727 35.0204 56.8259 35.0204H68.5385C68.5385 34.4508 68.5385 33.8166 67.9036 33.4853C66.5802 32.7946 58.3843 33.7358 57.6298 33.0168C56.6981 32.128 57.3248 30.4758 57.5268 29.4942C57.6834 28.7186 57.84 27.9793 58.0049 27.127C58.4048 25.095 59.3449 25.1597 61.6494 25.1597C62.9357 25.1597 69.025 25.3859 69.9196 24.889C70.2329 24.7153 71.4986 23.4024 70.472 23.4024L70.4638 23.4065Z" fill="#ADADAD"/>
<path d="M66.6453 51.3547C66.8683 50.9115 68.5429 43.1549 68.5429 42.098C68.5429 40.1631 66.1222 39.1061 64.2043 39.1061H55.3974C53.7552 39.1061 51.9428 39.8264 50.7993 40.9686C50.7791 40.9899 50.7507 41.0197 50.7304 41.0368C50.7264 41.041 50.5439 41.2456 50.5358 41.2584C49.7451 42.2301 49.2829 45.8058 49.0153 47.2122L48.2124 51.3547C49.6194 51.3547 50.9818 51.099 51.9225 50.5535C54.2094 49.2281 53.8891 43.6024 54.8541 41.9531C55.0933 41.5439 55.588 40.96 56.2124 40.96C64.0137 40.96 64.4314 40.1673 63.5312 44.2374C61.8607 44.2374 60.1861 44.2374 58.5155 44.2374C57.6073 44.2374 56.9301 44.1692 56.3463 44.523C55.8354 44.8341 55.4137 45.3967 55.2636 46.0913H63.1217C63.1055 46.948 61.4512 50.9072 66.6453 51.3633V51.3547Z" fill="#ADADAD"/>
<path d="M66.6453 51.3547C66.8683 50.9115 68.5429 43.1549 68.5429 42.098C68.5429 40.1631 66.1222 39.1061 64.2043 39.1061H55.3974C53.7552 39.1061 51.9428 39.8264 50.7993 40.9686C50.7791 40.9899 50.7507 41.0197 50.7304 41.0368C50.7264 41.041 50.5439 41.2456 50.5358 41.2584C49.7451 42.2301 49.2829 45.8058 49.0153 47.2122L48.2124 51.3547C49.6194 51.3547 50.9818 51.099 51.9225 50.5535C54.2094 49.2281 53.8891 43.6024 54.8541 41.9531C55.0933 41.5439 55.588 40.96 56.2124 40.96C64.0137 40.96 64.4314 40.1673 63.5312 44.2374C61.8607 44.2374 60.1861 44.2374 58.5155 44.2374C57.6073 44.2374 56.9301 44.1692 56.3463 44.523C55.8354 44.8341 55.4137 45.3967 55.2636 46.0913H63.1217C63.1055 46.948 61.4512 50.9072 66.6453 51.3633V51.3547Z" fill="#ADADAD"/>
<path d="M98.5613 31.1731C98.713 30.3816 100.113 23.6743 99.8851 23.4295C99.6651 23.1929 98.5576 23.5274 98.1631 23.6539C94.867 24.7147 94.9656 27.0116 94.226 31.0099L93.5204 35.0204C96.0314 35.0204 98.0568 33.776 98.5613 31.169V31.1731Z" fill="#ADADAD"/>
<path d="M98.5613 31.1731C98.713 30.3816 100.113 23.6743 99.8851 23.4295C99.6651 23.1929 98.5576 23.5274 98.1631 23.6539C94.867 24.7147 94.9656 27.0116 94.226 31.0099L93.5204 35.0204C96.0314 35.0204 98.0568 33.776 98.5613 31.169V31.1731Z" fill="#ADADAD"/>
<path d="M131.675 49.0781C131.716 47.2406 132.917 43.8598 132.917 41.8134C132.917 40.1464 130.276 39.1061 128.507 39.1061H116.234C113.556 39.1061 112.265 41.4211 111.811 43.7958L110.693 49.4789C110.648 49.6835 110.561 50.1184 110.495 50.4296C110.376 50.9966 109.848 51.7683 112.323 51.0222C116.126 49.8711 115.817 47.1255 116.568 43.7233C116.708 43.0838 116.931 40.9607 118.445 40.9607H127.133C128.903 40.9607 128.131 43.2927 127.97 44.107C127.43 46.8995 126.345 49.3211 128.738 50.6982C129.526 51.1501 130.52 51.3633 131.679 51.3633H162.425C162.891 51.3633 162.838 51.1117 162.838 50.6513C162.838 50.4296 162.627 50.3017 162.297 50.2378C162.058 50.1909 161.761 50.1738 161.435 50.1695C151.448 50.1013 141.398 50.225 131.403 50.225C131.576 49.449 131.53 49.6494 133.333 49.6537H171.938C171.814 49.3936 171.831 49.4746 171.802 49.0824H131.679L131.675 49.0781Z" fill="#ADADAD"/>
<path d="M131.675 49.0781C131.716 47.2406 132.917 43.8598 132.917 41.8134C132.917 40.1464 130.276 39.1061 128.507 39.1061H116.234C113.556 39.1061 112.265 41.4211 111.811 43.7958L110.693 49.4789C110.648 49.6835 110.561 50.1184 110.495 50.4296C110.376 50.9966 109.848 51.7683 112.323 51.0222C116.126 49.8711 115.817 47.1255 116.568 43.7233C116.708 43.0838 116.931 40.9607 118.445 40.9607H127.133C128.903 40.9607 128.131 43.2927 127.97 44.107C127.43 46.8995 126.345 49.3211 128.738 50.6982C129.526 51.1501 130.52 51.3633 131.679 51.3633H162.425C162.891 51.3633 162.838 51.1117 162.838 50.6513C162.838 50.4296 162.627 50.3017 162.297 50.2378C162.058 50.1909 161.761 50.1738 161.435 50.1695C151.448 50.1013 141.398 50.225 131.403 50.225C131.576 49.449 131.53 49.6494 133.333 49.6537H171.938C171.814 49.3936 171.831 49.4746 171.802 49.0824H131.679L131.675 49.0781Z" fill="#ADADAD"/>
<path d="M48.7974 32.295C48.9937 31.3283 49.1735 30.4347 49.3657 29.468C49.7581 27.5062 50.6575 25.6337 48.9487 24.4274C47.5342 23.4322 45.6209 23.3469 43.2048 23.3469L8.92532 23.3551L8.13223 23.9806L31.1814 24.0252C30.5804 24.8417 28.7285 24.5695 27.081 24.5695H12.8704C12.9031 24.9879 13.0013 25.2235 13.1443 25.52H29.677L29.2314 26.7182L27.4898 35.0204C29.1578 35.0204 30.5518 34.4761 31.5371 33.745C33.7079 32.1284 33.1928 27.4209 34.2925 25.8937C35.0979 24.7807 37.1011 25.1097 38.9694 25.1097C46.3976 25.1097 45.8212 24.1674 44.3536 31.1374C43.7853 33.8303 45.7435 35.0163 48.2578 35.0163C48.3232 34.2487 48.638 33.0586 48.7933 32.2909L48.7974 32.295Z" fill="#ADADAD"/>
<path d="M48.7974 32.295C48.9937 31.3283 49.1735 30.4347 49.3657 29.468C49.7581 27.5062 50.6575 25.6337 48.9487 24.4274C47.5342 23.4322 45.6209 23.3469 43.2048 23.3469L8.92532 23.3551L8.13223 23.9806L31.1814 24.0252C30.5804 24.8417 28.7285 24.5695 27.081 24.5695H12.8704C12.9031 24.9879 13.0013 25.2235 13.1443 25.52H29.677L29.2314 26.7182L27.4898 35.0204C29.1578 35.0204 30.5518 34.4761 31.5371 33.745C33.7079 32.1284 33.1928 27.4209 34.2925 25.8937C35.0979 24.7807 37.1011 25.1097 38.9694 25.1097C46.3976 25.1097 45.8212 24.1674 44.3536 31.1374C43.7853 33.8303 45.7435 35.0163 48.2578 35.0163C48.3232 34.2487 48.638 33.0586 48.7933 32.2909L48.7974 32.295Z" fill="#ADADAD"/>
<path d="M85.9087 34.8983C87.8631 34.5883 89.8745 33.759 90.5571 32.2413C90.8944 31.4965 91.0528 30.1157 91.2479 29.2944C91.9021 26.569 92.5725 24.7735 89.1512 23.751C87.1358 23.1511 76.4492 23.3967 73.8893 23.3967C73.4708 25.1801 75.088 25.1519 76.0591 25.1479C77.3594 25.1399 85.9736 24.9668 86.5994 25.3371C87.7412 26.0094 86.762 28.441 86.3963 30.2727C85.6202 34.1495 85.352 33.2236 76.4696 33.2236C77.0303 30.8323 77.8348 28.8113 76.0673 27.5674C74.9743 26.7985 74.2835 26.7663 73.0767 26.7663C73.0767 27.4506 72.8614 28.1672 72.7273 28.8395C72.5769 29.5803 72.4834 30.1318 72.3168 30.8564C71.9918 32.2574 71.7683 33.6221 71.4473 34.9748C73.7593 34.9748 84.5759 35.1157 85.9046 34.9023L85.9087 34.8983Z" fill="#ADADAD"/>
<path d="M85.9087 34.8983C87.8631 34.5883 89.8745 33.759 90.5571 32.2413C90.8944 31.4965 91.0528 30.1157 91.2479 29.2944C91.9021 26.569 92.5725 24.7735 89.1512 23.751C87.1358 23.1511 76.4492 23.3967 73.8893 23.3967C73.4708 25.1801 75.088 25.1519 76.0591 25.1479C77.3594 25.1399 85.9736 24.9668 86.5994 25.3371C87.7412 26.0094 86.762 28.441 86.3963 30.2727C85.6202 34.1495 85.352 33.2236 76.4696 33.2236C77.0303 30.8323 77.8348 28.8113 76.0673 27.5674C74.9743 26.7985 74.2835 26.7663 73.0767 26.7663C73.0767 27.4506 72.8614 28.1672 72.7273 28.8395C72.5769 29.5803 72.4834 30.1318 72.3168 30.8564C71.9918 32.2574 71.7683 33.6221 71.4473 34.9748C73.7593 34.9748 84.5759 35.1157 85.9046 34.9023L85.9087 34.8983Z" fill="#ADADAD"/>
<path d="M123.418 42.6082C120.172 42.6082 120.144 42.5491 119.441 46.2928L118.498 51.3633C120.327 51.321 122.101 50.4548 122.98 49.3477C123.676 48.4731 125.327 42.6082 123.414 42.6082H123.418Z" fill="#ADADAD"/>
<path d="M123.418 42.6082C120.172 42.6082 120.144 42.5491 119.441 46.2928L118.498 51.3633C120.327 51.321 122.101 50.4548 122.98 49.3477C123.676 48.4731 125.327 42.6082 123.414 42.6082H123.418Z" fill="#ADADAD"/>
<path d="M74.7089 57.2042C73.8852 57.2042 73.121 57.2764 72.4713 57.3699L70.8664 65.278C71.3802 65.3375 71.9916 65.3714 72.7303 65.3714C74.2928 65.3714 75.6133 64.968 76.5177 64.2162C77.4178 63.4772 78.0419 62.4027 78.3094 61.0904C78.5726 59.7907 78.3434 58.8606 77.7617 58.2023C77.1928 57.5483 76.2035 57.2 74.7132 57.2L74.7089 57.2042ZM77.2097 61.1286C76.7682 63.2988 75.3119 64.539 73.0955 64.539C72.6922 64.539 72.31 64.5263 72.0595 64.4795L73.346 58.1344C73.6305 58.0749 74.0466 58.0282 74.5815 58.0282C76.7724 58.0282 77.6004 59.2344 77.2055 61.1286H77.2097Z" fill="#ADADAD"/>
<path d="M74.7089 57.2042C73.8852 57.2042 73.121 57.2764 72.4713 57.3699L70.8664 65.278C71.3802 65.3375 71.9916 65.3714 72.7303 65.3714C74.2928 65.3714 75.6133 64.968 76.5177 64.2162C77.4178 63.4772 78.0419 62.4027 78.3094 61.0904C78.5726 59.7907 78.3434 58.8606 77.7617 58.2023C77.1928 57.5483 76.2035 57.2 74.7132 57.2L74.7089 57.2042ZM77.2097 61.1286C76.7682 63.2988 75.3119 64.539 73.0955 64.539C72.6922 64.539 72.31 64.5263 72.0595 64.4795L73.346 58.1344C73.6305 58.0749 74.0466 58.0282 74.5815 58.0282C76.7724 58.0282 77.6004 59.2344 77.2055 61.1286H77.2097Z" fill="#ADADAD"/>
<path d="M81.903 65.3714H83.0003L84.2265 59.5347H83.1292L81.903 65.3714Z" fill="#ADADAD"/>
<path d="M81.903 65.3714H83.0003L84.2265 59.5347H83.1292L81.903 65.3714Z" fill="#ADADAD"/>
<path d="M84.1184 57.2C83.6177 57.2 83.1838 57.4556 83.0836 57.7875C82.9891 58.1079 83.2561 58.3674 83.7401 58.3674C84.2853 58.3674 84.7081 58.1118 84.7859 57.7875C84.8861 57.4556 84.6302 57.2 84.1184 57.2Z" fill="#ADADAD"/>
<path d="M84.1184 57.2C83.6177 57.2 83.1838 57.4556 83.0836 57.7875C82.9891 58.1079 83.2561 58.3674 83.7401 58.3674C84.2853 58.3674 84.7081 58.1118 84.7859 57.7875C84.8861 57.4556 84.6302 57.2 84.1184 57.2Z" fill="#ADADAD"/>
<path d="M90.4956 59.5347C89.741 59.5347 88.9774 59.7318 88.417 60.0317L88.5185 60.7012C88.9951 60.4466 89.613 60.2864 90.169 60.2864C91.3959 60.2864 91.3473 61.1161 91.2502 61.5802L91.2238 61.6952C88.9113 61.6829 87.4637 62.4223 87.168 63.7695C86.9915 64.5787 87.4372 65.3714 88.6508 65.3714C89.507 65.3714 90.2352 64.9771 90.6633 64.5417H90.6986L90.6324 65.2441H91.6254C91.6343 64.8621 91.7137 64.3897 91.8196 63.905L92.2741 61.8185C92.5169 60.7012 92.3271 59.5347 90.4956 59.5347ZM90.884 63.3629C90.8619 63.4656 90.8089 63.5806 90.7516 63.6874C90.4735 64.1597 89.8777 64.6198 89.0966 64.6198C88.5405 64.6198 88.1389 64.3076 88.2802 63.6504C88.5185 62.566 89.9086 62.3689 91.0914 62.3935L90.8796 63.3629H90.884Z" fill="#ADADAD"/>
<path d="M90.4956 59.5347C89.741 59.5347 88.9774 59.7318 88.417 60.0317L88.5185 60.7012C88.9951 60.4466 89.613 60.2864 90.169 60.2864C91.3959 60.2864 91.3473 61.1161 91.2502 61.5802L91.2238 61.6952C88.9113 61.6829 87.4637 62.4223 87.168 63.7695C86.9915 64.5787 87.4372 65.3714 88.6508 65.3714C89.507 65.3714 90.2352 64.9771 90.6633 64.5417H90.6986L90.6324 65.2441H91.6254C91.6343 64.8621 91.7137 64.3897 91.8196 63.905L92.2741 61.8185C92.5169 60.7012 92.3271 59.5347 90.4956 59.5347ZM90.884 63.3629C90.8619 63.4656 90.8089 63.5806 90.7516 63.6874C90.4735 64.1597 89.8777 64.6198 89.0966 64.6198C88.5405 64.6198 88.1389 64.3076 88.2802 63.6504C88.5185 62.566 89.9086 62.3689 91.0914 62.3935L90.8796 63.3629H90.884Z" fill="#ADADAD"/>
<path d="M101.69 60.5096H101.665C101.514 60.047 101.078 59.5347 100.087 59.5347C98.7784 59.5347 97.2975 60.6129 96.9073 62.5174C96.5885 64.0707 97.3562 65.2563 98.7659 65.2563C99.6469 65.2563 100.348 64.8391 100.771 64.3186H100.796L100.666 64.9465C100.373 66.3635 99.4833 66.9088 98.426 66.9088C97.7212 66.9088 97.1758 66.6981 96.8444 66.4668L96.4248 67.2434C96.8234 67.545 97.5408 67.7061 98.2246 67.7061C98.942 67.7061 99.7769 67.545 100.436 67.0327C101.09 66.5453 101.51 65.7562 101.778 64.4673L102.449 61.2078C102.592 60.522 102.705 60.0717 102.814 59.6628H101.908L101.686 60.5096H101.69ZM101.292 61.8771L101.082 62.8851C101.044 63.0586 100.981 63.2569 100.889 63.4304C100.532 64.079 99.8735 64.4756 99.2357 64.4756C98.1156 64.4756 97.7422 63.5584 97.9687 62.4554C98.2372 61.1541 99.1141 60.332 100.1 60.332C100.855 60.332 101.258 60.8195 101.325 61.4102C101.342 61.5507 101.325 61.6994 101.287 61.8729L101.292 61.8771Z" fill="#ADADAD"/>
<path d="M101.69 60.5096H101.665C101.514 60.047 101.078 59.5347 100.087 59.5347C98.7784 59.5347 97.2975 60.6129 96.9073 62.5174C96.5885 64.0707 97.3562 65.2563 98.7659 65.2563C99.6469 65.2563 100.348 64.8391 100.771 64.3186H100.796L100.666 64.9465C100.373 66.3635 99.4833 66.9088 98.426 66.9088C97.7212 66.9088 97.1758 66.6981 96.8444 66.4668L96.4248 67.2434C96.8234 67.545 97.5408 67.7061 98.2246 67.7061C98.942 67.7061 99.7769 67.545 100.436 67.0327C101.09 66.5453 101.51 65.7562 101.778 64.4673L102.449 61.2078C102.592 60.522 102.705 60.0717 102.814 59.6628H101.908L101.686 60.5096H101.69ZM101.292 61.8771L101.082 62.8851C101.044 63.0586 100.981 63.2569 100.889 63.4304C100.532 64.079 99.8735 64.4756 99.2357 64.4756C98.1156 64.4756 97.7422 63.5584 97.9687 62.4554C98.2372 61.1541 99.1141 60.332 100.1 60.332C100.855 60.332 101.258 60.8195 101.325 61.4102C101.342 61.5507 101.325 61.6994 101.287 61.8729L101.292 61.8771Z" fill="#ADADAD"/>
<path d="M110.039 59.5347C109.162 59.5347 108.452 60.0638 108.086 60.6097H108.062L108.187 59.6649H107.333C107.278 60.1352 107.196 60.6181 107.083 61.2101L106.3 65.3714H107.263L107.91 61.9408C107.945 61.7644 108 61.588 108.066 61.4579C108.339 60.8784 108.924 60.3955 109.556 60.3955C110.464 60.3955 110.636 61.1639 110.464 62.0835L109.844 65.3714H110.807L111.451 61.9618C111.821 60.005 110.772 59.5347 110.039 59.5347Z" fill="#ADADAD"/>
<path d="M110.039 59.5347C109.162 59.5347 108.452 60.0638 108.086 60.6097H108.062L108.187 59.6649H107.333C107.278 60.1352 107.196 60.6181 107.083 61.2101L106.3 65.3714H107.263L107.91 61.9408C107.945 61.7644 108 61.588 108.066 61.4579C108.339 60.8784 108.924 60.3955 109.556 60.3955C110.464 60.3955 110.636 61.1639 110.464 62.0835L109.844 65.3714H110.807L111.451 61.9618C111.821 60.005 110.772 59.5347 110.039 59.5347Z" fill="#ADADAD"/>
<path d="M120.821 57.2H119.77L118.498 58.951H119.182L120.821 57.2Z" fill="#ADADAD"/>
<path d="M120.821 57.2H119.77L118.498 58.951H119.182L120.821 57.2Z" fill="#ADADAD"/>
<path d="M119.151 59.5347C117.556 59.5347 116.062 60.6314 115.672 62.5003C115.303 64.2665 116.27 65.3714 117.832 65.3714C119.223 65.3714 120.891 64.4719 121.323 62.4058C121.68 60.6971 120.806 59.5347 119.151 59.5347ZM120.242 62.4387C119.979 63.6956 119.037 64.6074 118.035 64.6074C117.034 64.6074 116.478 63.6833 116.737 62.4633C116.962 61.4036 117.726 60.2946 118.965 60.2946C120.203 60.2946 120.441 61.494 120.242 62.4387Z" fill="#ADADAD"/>
<path d="M119.151 59.5347C117.556 59.5347 116.062 60.6314 115.672 62.5003C115.303 64.2665 116.27 65.3714 117.832 65.3714C119.223 65.3714 120.891 64.4719 121.323 62.4058C121.68 60.6971 120.806 59.5347 119.151 59.5347ZM120.242 62.4387C119.979 63.6956 119.037 64.6074 118.035 64.6074C117.034 64.6074 116.478 63.6833 116.737 62.4633C116.962 61.4036 117.726 60.2946 118.965 60.2946C120.203 60.2946 120.441 61.494 120.242 62.4387Z" fill="#ADADAD"/>
<path d="M125.734 61.17C125.612 61.8414 125.938 62.3974 126.778 62.7558C127.405 63.0318 127.617 63.2995 127.528 63.7856C127.442 64.2469 127.064 64.6176 126.395 64.6176C125.938 64.6176 125.497 64.4076 125.259 64.214L124.888 64.9884C125.199 65.219 125.682 65.3714 126.236 65.3714C127.435 65.3714 128.248 64.6794 128.43 63.695C128.582 62.8629 128.222 62.3769 127.416 62.0061C126.811 61.7302 126.547 61.5201 126.633 61.0588C126.711 60.6427 127.075 60.2967 127.617 60.2967C128.085 60.2967 128.415 60.4821 128.59 60.6221L128.954 59.8807C128.705 59.6953 128.289 59.5347 127.777 59.5347C126.692 59.5347 125.901 60.2761 125.734 61.1782V61.17Z" fill="#ADADAD"/>
<path d="M125.734 61.17C125.612 61.8414 125.938 62.3974 126.778 62.7558C127.405 63.0318 127.617 63.2995 127.528 63.7856C127.442 64.2469 127.064 64.6176 126.395 64.6176C125.938 64.6176 125.497 64.4076 125.259 64.214L124.888 64.9884C125.199 65.219 125.682 65.3714 126.236 65.3714C127.435 65.3714 128.248 64.6794 128.43 63.695C128.582 62.8629 128.222 62.3769 127.416 62.0061C126.811 61.7302 126.547 61.5201 126.633 61.0588C126.711 60.6427 127.075 60.2967 127.617 60.2967C128.085 60.2967 128.415 60.4821 128.59 60.6221L128.954 59.8807C128.705 59.6953 128.289 59.5347 127.777 59.5347C126.692 59.5347 125.901 60.2761 125.734 61.1782V61.17Z" fill="#ADADAD"/>
<path d="M136.527 57.7837L135.478 58.0611L135.206 59.4523H134.338L134.182 60.2546H135.049L134.425 63.4169C134.289 64.0997 134.293 64.6161 134.524 64.9276C134.71 65.2135 135.061 65.3714 135.54 65.3714C135.932 65.3714 136.259 65.3117 136.473 65.2263L136.581 64.4368C136.444 64.471 136.242 64.5094 135.978 64.5094C135.408 64.5094 135.292 64.104 135.433 63.3827L136.048 60.2546H137.51L137.667 59.4523H136.205L136.531 57.788L136.527 57.7837Z" fill="#ADADAD"/>
<path d="M136.527 57.7837L135.478 58.0611L135.206 59.4523H134.338L134.182 60.2546H135.049L134.425 63.4169C134.289 64.0997 134.293 64.6161 134.524 64.9276C134.71 65.2135 135.061 65.3714 135.54 65.3714C135.932 65.3714 136.259 65.3117 136.473 65.2263L136.581 64.4368C136.444 64.471 136.242 64.5094 135.978 64.5094C135.408 64.5094 135.292 64.104 135.433 63.3827L136.048 60.2546H137.51L137.667 59.4523H136.205L136.531 57.788L136.527 57.7837Z" fill="#ADADAD"/>
<path d="M143.367 57.2C142.867 57.2 142.433 57.4556 142.333 57.7875C142.238 58.1079 142.505 58.3674 142.989 58.3674C143.534 58.3674 143.957 58.1118 144.035 57.7875C144.135 57.4556 143.879 57.2 143.367 57.2Z" fill="#ADADAD"/>
<path d="M143.367 57.2C142.867 57.2 142.433 57.4556 142.333 57.7875C142.238 58.1079 142.505 58.3674 142.989 58.3674C143.534 58.3674 143.957 58.1118 144.035 57.7875C144.135 57.4556 143.879 57.2 143.367 57.2Z" fill="#ADADAD"/>
<path d="M141.152 65.3714H142.247L143.475 59.5347H142.381L141.152 65.3714Z" fill="#ADADAD"/>
<path d="M141.152 65.3714H142.247L143.475 59.5347H142.381L141.152 65.3714Z" fill="#ADADAD"/>
<path d="M147.039 62.5087C146.68 64.2247 147.578 65.3714 149.327 65.3714C150.106 65.3714 150.76 65.1858 151.064 65.0456L151.047 64.2825C150.722 64.4103 150.294 64.5588 149.691 64.5588C148.54 64.5588 147.843 63.7586 148.117 62.4634C148.365 61.2919 149.284 60.3432 150.615 60.3432C151.192 60.3432 151.56 60.471 151.782 60.6113L152.189 59.8234C151.932 59.6832 151.41 59.5347 150.786 59.5347C148.891 59.5347 147.402 60.7845 147.039 62.5129V62.5087Z" fill="#ADADAD"/>
<path d="M147.039 62.5087C146.68 64.2247 147.578 65.3714 149.327 65.3714C150.106 65.3714 150.76 65.1858 151.064 65.0456L151.047 64.2825C150.722 64.4103 150.294 64.5588 149.691 64.5588C148.54 64.5588 147.843 63.7586 148.117 62.4634C148.365 61.2919 149.284 60.3432 150.615 60.3432C151.192 60.3432 151.56 60.471 151.782 60.6113L152.189 59.8234C151.932 59.6832 151.41 59.5347 150.786 59.5347C148.891 59.5347 147.402 60.7845 147.039 62.5129V62.5087Z" fill="#ADADAD"/>
<path d="M158.651 59.5347C157.055 59.5347 155.562 60.6314 155.171 62.5003C154.802 64.2665 155.77 65.3714 157.331 65.3714C158.723 65.3714 160.39 64.4719 160.823 62.4058C161.179 60.6971 160.305 59.5347 158.651 59.5347ZM159.741 62.4387C159.478 63.6956 158.536 64.6074 157.535 64.6074C156.533 64.6074 155.978 63.6833 156.236 62.4633C156.461 61.4036 157.225 60.2946 158.464 60.2946C159.703 60.2946 159.94 61.494 159.741 62.4387Z" fill="#ADADAD"/>
<path d="M158.651 59.5347C157.055 59.5347 155.562 60.6314 155.171 62.5003C154.802 64.2665 155.77 65.3714 157.331 65.3714C158.723 65.3714 160.39 64.4719 160.823 62.4058C161.179 60.6971 160.305 59.5347 158.651 59.5347ZM159.741 62.4387C159.478 63.6956 158.536 64.6074 157.535 64.6074C156.533 64.6074 155.978 63.6833 156.236 62.4633C156.461 61.4036 157.225 60.2946 158.464 60.2946C159.703 60.2946 159.94 61.494 159.741 62.4387Z" fill="#ADADAD"/>
<path d="M165.354 61.17C165.214 61.8414 165.588 62.3974 166.547 62.7558C167.264 63.0318 167.506 63.2995 167.404 63.7856C167.307 64.2469 166.874 64.6176 166.11 64.6176C165.588 64.6176 165.083 64.4076 164.811 64.214L164.387 64.9884C164.743 65.219 165.295 65.3714 165.927 65.3714C167.298 65.3714 168.228 64.6794 168.435 63.695C168.609 62.8629 168.198 62.3769 167.277 62.0061C166.585 61.7302 166.284 61.5201 166.381 61.0588C166.471 60.6427 166.887 60.2967 167.506 60.2967C168.041 60.2967 168.419 60.4821 168.618 60.6221L169.034 59.8807C168.75 59.6953 168.274 59.5347 167.689 59.5347C166.449 59.5347 165.545 60.2761 165.354 61.1782V61.17Z" fill="#ADADAD"/>
<path d="M165.354 61.17C165.214 61.8414 165.588 62.3974 166.547 62.7558C167.264 63.0318 167.506 63.2995 167.404 63.7856C167.307 64.2469 166.874 64.6176 166.11 64.6176C165.588 64.6176 165.083 64.4076 164.811 64.214L164.387 64.9884C164.743 65.219 165.295 65.3714 165.927 65.3714C167.298 65.3714 168.228 64.6794 168.435 63.695C168.609 62.8629 168.198 62.3769 167.277 62.0061C166.585 61.7302 166.284 61.5201 166.381 61.0588C166.471 60.6427 166.887 60.2967 167.506 60.2967C168.041 60.2967 168.419 60.4821 168.618 60.6221L169.034 59.8807C168.75 59.6953 168.274 59.5347 167.689 59.5347C166.449 59.5347 165.545 60.2761 165.354 61.1782V61.17Z" fill="#ADADAD"/>
<path d="M168.287 53.1306C168.226 53.0717 168.149 53.0173 168.05 52.9765C168.287 52.9584 168.48 52.8678 168.626 52.7092C168.772 52.5506 168.841 52.3647 168.841 52.1518C168.841 52.0022 168.798 51.8572 168.712 51.7258C168.626 51.5898 168.51 51.4992 168.364 51.4448C168.218 51.3904 167.982 51.3633 167.66 51.3633H166.71V54.2816H167.157V53.04H167.419C167.574 53.04 167.694 53.0717 167.776 53.1397C167.896 53.2303 168.05 53.4569 168.244 53.8194L168.488 54.2816H169.034L168.699 53.7106C168.536 53.4387 168.403 53.2484 168.291 53.1306H168.287ZM167.698 52.6366H167.157V51.7575H167.664C167.883 51.7575 168.033 51.7756 168.11 51.8074C168.192 51.8391 168.252 51.8935 168.299 51.9614C168.347 52.0294 168.368 52.1065 168.368 52.1926C168.368 52.3285 168.321 52.4327 168.226 52.5143C168.132 52.5959 167.956 52.6366 167.698 52.6366Z" fill="#ADADAD"/>
<path d="M168.287 53.1306C168.226 53.0717 168.149 53.0173 168.05 52.9765C168.287 52.9584 168.48 52.8678 168.626 52.7092C168.772 52.5506 168.841 52.3647 168.841 52.1518C168.841 52.0022 168.798 51.8572 168.712 51.7258C168.626 51.5898 168.51 51.4992 168.364 51.4448C168.218 51.3904 167.982 51.3633 167.66 51.3633H166.71V54.2816H167.157V53.04H167.419C167.574 53.04 167.694 53.0717 167.776 53.1397C167.896 53.2303 168.05 53.4569 168.244 53.8194L168.488 54.2816H169.034L168.699 53.7106C168.536 53.4387 168.403 53.2484 168.291 53.1306H168.287ZM167.698 52.6366H167.157V51.7575H167.664C167.883 51.7575 168.033 51.7756 168.11 51.8074C168.192 51.8391 168.252 51.8935 168.299 51.9614C168.347 52.0294 168.368 52.1065 168.368 52.1926C168.368 52.3285 168.321 52.4327 168.226 52.5143C168.132 52.5959 167.956 52.6366 167.698 52.6366Z" fill="#ADADAD"/>
<path d="M169.012 50.5341C168.639 50.3057 168.258 50.1959 167.87 50.1959C167.482 50.1959 167.102 50.3101 166.729 50.5341C166.356 50.7625 166.069 51.0831 165.859 51.5048C165.65 51.9264 165.549 52.3657 165.549 52.8225C165.549 53.2792 165.65 53.7097 165.855 54.1269C166.061 54.5442 166.348 54.8692 166.717 55.102C167.086 55.3348 167.47 55.449 167.874 55.449C168.278 55.449 168.662 55.3348 169.031 55.102C169.4 54.8692 169.687 54.5442 169.889 54.1269C170.095 53.7097 170.196 53.2748 170.196 52.8225C170.196 52.3701 170.091 51.9264 169.885 51.5048C169.679 51.0831 169.388 50.7581 169.015 50.5341H169.012ZM169.551 53.9117C169.38 54.2587 169.144 54.531 168.833 54.7243C168.522 54.9175 168.204 55.0141 167.87 55.0141C167.536 55.0141 167.214 54.9175 166.907 54.7243C166.601 54.531 166.36 54.2587 166.189 53.9117C166.018 53.5647 165.933 53.2002 165.933 52.8225C165.933 52.4447 166.018 52.0758 166.193 51.7244C166.368 51.373 166.608 51.1007 166.919 50.9118C167.226 50.723 167.544 50.6264 167.87 50.6264C168.196 50.6264 168.511 50.723 168.821 50.9118C169.132 51.1007 169.373 51.373 169.547 51.7244C169.722 52.0758 169.807 52.4403 169.807 52.8225C169.807 53.2046 169.722 53.5647 169.551 53.9117Z" fill="#ADADAD"/>
<path d="M169.012 50.5341C168.639 50.3057 168.258 50.1959 167.87 50.1959C167.482 50.1959 167.102 50.3101 166.729 50.5341C166.356 50.7625 166.069 51.0831 165.859 51.5048C165.65 51.9264 165.549 52.3657 165.549 52.8225C165.549 53.2792 165.65 53.7097 165.855 54.1269C166.061 54.5442 166.348 54.8692 166.717 55.102C167.086 55.3348 167.47 55.449 167.874 55.449C168.278 55.449 168.662 55.3348 169.031 55.102C169.4 54.8692 169.687 54.5442 169.889 54.1269C170.095 53.7097 170.196 53.2748 170.196 52.8225C170.196 52.3701 170.091 51.9264 169.885 51.5048C169.679 51.0831 169.388 50.7581 169.015 50.5341H169.012ZM169.551 53.9117C169.38 54.2587 169.144 54.531 168.833 54.7243C168.522 54.9175 168.204 55.0141 167.87 55.0141C167.536 55.0141 167.214 54.9175 166.907 54.7243C166.601 54.531 166.36 54.2587 166.189 53.9117C166.018 53.5647 165.933 53.2002 165.933 52.8225C165.933 52.4447 166.018 52.0758 166.193 51.7244C166.368 51.373 166.608 51.1007 166.919 50.9118C167.226 50.723 167.544 50.6264 167.87 50.6264C168.196 50.6264 168.511 50.723 168.821 50.9118C169.132 51.1007 169.373 51.373 169.547 51.7244C169.722 52.0758 169.807 52.4403 169.807 52.8225C169.807 53.2046 169.722 53.5647 169.551 53.9117Z" fill="#ADADAD"/>
<path d="M70.3557 52.5306C63.6831 64.9815 53.0095 73.0923 37.7109 73.0923C51.6553 71.7038 62.4028 65.8379 68.2957 52.5306H32.3597C26.5448 60.0219 19.9256 61.5643 12.1983 61.5643C30.0494 81.5023 61.1471 77.1331 71.4473 52.5306H70.3516H70.3557Z" fill="#ADADAD"/>
<path d="M70.3557 52.5306C63.6831 64.9815 53.0095 73.0923 37.7109 73.0923C51.6553 71.7038 62.4028 65.8379 68.2957 52.5306H32.3597C26.5448 60.0219 19.9256 61.5643 12.1983 61.5643C30.0494 81.5023 61.1471 77.1331 71.4473 52.5306H70.3516H70.3557Z" fill="#ADADAD"/>
<path d="M31.0596 53.0549C31.1689 52.9268 31.3024 52.8108 31.3671 52.5306C31.096 52.5546 30.8573 52.6387 30.6954 52.8068C24.035 59.7384 14.9751 59.8865 9.29398 57.6854C9.66625 58.3777 11.2362 60.6189 11.9929 60.6589C20.6522 61.0912 26.6733 58.2536 31.0596 53.0549Z" fill="#ADADAD"/>
<path d="M31.0596 53.0549C31.1689 52.9268 31.3024 52.8108 31.3671 52.5306C31.096 52.5546 30.8573 52.6387 30.6954 52.8068C24.035 59.7384 14.9751 59.8865 9.29398 57.6854C9.66625 58.3777 11.2362 60.6189 11.9929 60.6589C20.6522 61.0912 26.6733 58.2536 31.0596 53.0549Z" fill="#ADADAD"/>
<path d="M29.6296 20.8025C29.7745 20.9074 29.9678 20.9579 30.2054 21.0122C30.1168 20.6278 30.0725 20.5812 29.9799 20.488C25.6957 16.1542 18.7541 13.0514 11.3413 14.2786C10.9427 14.3446 10.6568 14.4455 10.2582 14.5349C9.60992 15.3581 8.40603 16.5192 8.13223 17.5095C14.2283 15.2921 20.7995 14.4417 29.6255 20.8025H29.6296Z" fill="#ADADAD"/>
<path d="M29.6296 20.8025C29.7745 20.9074 29.9678 20.9579 30.2054 21.0122C30.1168 20.6278 30.0725 20.5812 29.9799 20.488C25.6957 16.1542 18.7541 13.0514 11.3413 14.2786C10.9427 14.3446 10.6568 14.4455 10.2582 14.5349C9.60992 15.3581 8.40603 16.5192 8.13223 17.5095C14.2283 15.2921 20.7995 14.4417 29.6255 20.8025H29.6296Z" fill="#ADADAD"/>
<path d="M31.0677 20.8095C31.2041 20.9392 31.3859 21.0122 31.7206 21.0122H68.0438C70.4157 21.0122 56.5889 1.32214 40.4233 1.32214V0.94902C51.9649 0.94902 64.4279 9.1049 69.5644 19.248C69.9074 19.9294 70.1636 21.0082 71.0851 21.0082C71.705 21.0082 71.3827 20.6067 71.1884 20.2457C65.1759 9.11707 54.0971 0 40.7002 0C28.2949 0 18.9849 4.1327 10.6582 13.1281C10.5797 13.2133 10.5177 13.3228 10.4557 13.5539C19.0799 12.7266 24.1585 14.142 31.0719 20.8054L31.0677 20.8095Z" fill="#ADADAD"/>
<path d="M31.0677 20.8095C31.2041 20.9392 31.3859 21.0122 31.7206 21.0122H68.0438C70.4157 21.0122 56.5889 1.32214 40.4233 1.32214V0.94902C51.9649 0.94902 64.4279 9.1049 69.5644 19.248C69.9074 19.9294 70.1636 21.0082 71.0851 21.0082C71.705 21.0082 71.3827 20.6067 71.1884 20.2457C65.1759 9.11707 54.0971 0 40.7002 0C28.2949 0 18.9849 4.1327 10.6582 13.1281C10.5797 13.2133 10.5177 13.3228 10.4557 13.5539C19.0799 12.7266 24.1585 14.142 31.0719 20.8054L31.0677 20.8095Z" fill="#ADADAD"/>
<path d="M23.0276 53.4097C23.3734 53.2619 23.6871 53.0935 23.8158 52.9128C22.3641 53.036 17.8321 55.4427 11.7198 52.3665C-2.41095 45.249 0.299383 23.2722 15.0052 20.3028C16.4568 20.0112 17.2812 19.9742 18.9862 19.966C20.7958 19.9578 21.9298 20.4999 22.7461 20.5204C22.7179 20.4999 22.6737 20.4424 22.6617 20.4711L21.9258 20.1262C18.0412 18.738 13.3685 19.0419 9.80164 20.886C-10.1599 31.782 3.46813 61.7717 23.0396 53.4138L23.0276 53.4097Z" fill="#ADADAD"/>
<path d="M23.0276 53.4097C23.3734 53.2619 23.6871 53.0935 23.8158 52.9128C22.3641 53.036 17.8321 55.4427 11.7198 52.3665C-2.41095 45.249 0.299383 23.2722 15.0052 20.3028C16.4568 20.0112 17.2812 19.9742 18.9862 19.966C20.7958 19.9578 21.9298 20.4999 22.7461 20.5204C22.7179 20.4999 22.6737 20.4424 22.6617 20.4711L21.9258 20.1262C18.0412 18.738 13.3685 19.0419 9.80164 20.886C-10.1599 31.782 3.46813 61.7717 23.0396 53.4138L23.0276 53.4097Z" fill="#ADADAD"/>
<path d="M30.7863 52.1908C29.7515 52.1908 27.6738 51.9809 26.9429 52.3267C16.2424 59.1615 8.12046 52.9731 5.80871 51.3633C6.37946 53.0267 8.01784 56.1847 8.88013 56.8187C17.4907 60.4543 26.1956 57.1893 30.7863 52.1908Z" fill="#ADADAD"/>
<path d="M30.7863 52.1908C29.7515 52.1908 27.6738 51.9809 26.9429 52.3267C16.2424 59.1615 8.12046 52.9731 5.80871 51.3633C6.37946 53.0267 8.01784 56.1847 8.88013 56.8187C17.4907 60.4543 26.1956 57.1893 30.7863 52.1908Z" fill="#ADADAD"/>
<path d="M10.2515 20.1895C14.6478 18.1008 20.4055 18.3842 24.691 20.5053C25.1093 20.7117 25.5604 21.0356 25.9336 21.1732C26.7292 21.4727 28.5582 21.3189 29.6245 21.3189C29.4071 20.5255 25.097 18.2587 24.0841 17.8579C18.9948 15.8502 13.032 15.7287 8.04932 18.1534C7.1143 18.6068 5.4616 22.3592 5.22784 23.3469C6.68369 22.3835 6.37202 22.3147 8.86951 20.8534C9.38213 20.5539 9.71022 20.4486 10.2556 20.1895H10.2515Z" fill="#ADADAD"/>
<path d="M10.2515 20.1895C14.6478 18.1008 20.4055 18.3842 24.691 20.5053C25.1093 20.7117 25.5604 21.0356 25.9336 21.1732C26.7292 21.4727 28.5582 21.3189 29.6245 21.3189C29.4071 20.5255 25.097 18.2587 24.0841 17.8579C18.9948 15.8502 13.032 15.7287 8.04932 18.1534C7.1143 18.6068 5.4616 22.3592 5.22784 23.3469C6.68369 22.3835 6.37202 22.3147 8.86951 20.8534C9.38213 20.5539 9.71022 20.4486 10.2556 20.1895H10.2515Z" fill="#ADADAD"/>
</g>
</svg>
