<svg width="175" height="112" viewBox="0 0 175 112" fill="none" xmlns="http://www.w3.org/2000/svg">
<g id="Vector">
<path d="M80.9803 89.8857V77.0449H80.2299V82.8727H72.4408V77.0449H71.6864V89.8857H72.4408V83.5559H80.2299V89.8857H80.9803Z" fill="#ADADAD"/>
<path d="M80.9803 89.8857V77.0449H80.2299V82.8727H72.4408V77.0449H71.6864V89.8857H72.4408V83.5559H80.2299V89.8857H80.9803Z" fill="#ADADAD"/>
<path d="M85.2162 89.5123C85.757 89.7626 86.3779 89.8857 87.0793 89.8857C87.7808 89.8857 88.4018 89.7626 88.9426 89.5123C89.4835 89.2621 89.9402 88.9284 90.3079 88.5073C90.6755 88.0863 90.958 87.5898 91.1482 87.0217C91.3383 86.4537 91.4358 85.8539 91.4358 85.2183C91.4358 84.5828 91.3383 83.9829 91.1482 83.4229C90.958 82.8628 90.6797 82.3662 90.3079 81.9372C89.9402 81.5082 89.4835 81.1706 88.9426 80.9203C88.4018 80.6701 87.7808 80.5469 87.0793 80.5469C86.3779 80.5469 85.757 80.6701 85.2162 80.9203C84.6753 81.1706 84.2191 81.5082 83.8514 81.9372C83.4838 82.3662 83.2003 82.8588 83.0101 83.4229C82.82 83.9829 82.723 84.5828 82.723 85.2183C82.723 85.8539 82.82 86.4577 83.0101 87.0217C83.2003 87.5898 83.4796 88.0823 83.8514 88.5073C84.2191 88.9284 84.6753 89.266 85.2162 89.5123ZM83.4242 85.2143C83.4242 84.6821 83.5048 84.1696 83.6654 83.6771C83.826 83.1845 84.0581 82.7476 84.3666 82.3662C84.675 81.9849 85.0552 81.679 85.5116 81.4566C85.9679 81.2302 86.492 81.1189 87.0793 81.1189C87.6667 81.1189 88.1946 81.2302 88.6467 81.4566C89.1031 81.683 89.4838 81.9849 89.7922 82.3662C90.1007 82.7476 90.3328 83.1845 90.4934 83.6771C90.654 84.1696 90.7346 84.6821 90.7346 85.2143C90.7346 85.7466 90.654 86.259 90.4934 86.7516C90.3328 87.2442 90.1007 87.6811 89.7922 88.0624C89.4838 88.4438 89.1031 88.7497 88.6467 88.9721C88.1904 89.1985 87.6667 89.3097 87.0793 89.3097C86.492 89.3097 85.9637 89.1985 85.5116 88.9721C85.0552 88.7457 84.675 88.4438 84.3666 88.0624C84.0581 87.6811 83.826 87.2442 83.6654 86.7516C83.5048 86.259 83.4242 85.7466 83.4242 85.2143Z" fill="#ADADAD"/>
<path d="M85.2162 89.5123C85.757 89.7626 86.3779 89.8857 87.0793 89.8857C87.7808 89.8857 88.4018 89.7626 88.9426 89.5123C89.4835 89.2621 89.9402 88.9284 90.3079 88.5073C90.6755 88.0863 90.958 87.5898 91.1482 87.0217C91.3383 86.4537 91.4358 85.8539 91.4358 85.2183C91.4358 84.5828 91.3383 83.9829 91.1482 83.4229C90.958 82.8628 90.6797 82.3662 90.3079 81.9372C89.9402 81.5082 89.4835 81.1706 88.9426 80.9203C88.4018 80.6701 87.7808 80.5469 87.0793 80.5469C86.3779 80.5469 85.757 80.6701 85.2162 80.9203C84.6753 81.1706 84.2191 81.5082 83.8514 81.9372C83.4838 82.3662 83.2003 82.8588 83.0101 83.4229C82.82 83.9829 82.723 84.5828 82.723 85.2183C82.723 85.8539 82.82 86.4577 83.0101 87.0217C83.2003 87.5898 83.4796 88.0823 83.8514 88.5073C84.2191 88.9284 84.6753 89.266 85.2162 89.5123ZM83.4242 85.2143C83.4242 84.6821 83.5048 84.1696 83.6654 83.6771C83.826 83.1845 84.0581 82.7476 84.3666 82.3662C84.675 81.9849 85.0552 81.679 85.5116 81.4566C85.9679 81.2302 86.492 81.1189 87.0793 81.1189C87.6667 81.1189 88.1946 81.2302 88.6467 81.4566C89.1031 81.683 89.4838 81.9849 89.7922 82.3662C90.1007 82.7476 90.3328 83.1845 90.4934 83.6771C90.654 84.1696 90.7346 84.6821 90.7346 85.2143C90.7346 85.7466 90.654 86.259 90.4934 86.7516C90.3328 87.2442 90.1007 87.6811 89.7922 88.0624C89.4838 88.4438 89.1031 88.7497 88.6467 88.9721C88.1904 89.1985 87.6667 89.3097 87.0793 89.3097C86.492 89.3097 85.9637 89.1985 85.5116 88.9721C85.0552 88.7457 84.675 88.4438 84.3666 88.0624C84.0581 87.6811 83.826 87.2442 83.6654 86.7516C83.5048 86.259 83.4242 85.7466 83.4242 85.2143Z" fill="#ADADAD"/>
<path d="M93.7219 89.0793C94.0684 89.3534 94.4698 89.552 94.9304 89.6871C95.391 89.8182 95.8939 89.8857 96.4348 89.8857C96.8531 89.8857 97.2795 89.85 97.719 89.7745C98.1542 89.699 98.5517 89.5679 98.9109 89.3733C99.2658 89.1826 99.5614 88.9324 99.7981 88.6186C100.031 88.3048 100.149 87.9075 100.149 87.4189C100.149 86.9303 100.065 86.5728 99.8913 86.2749C99.7181 85.973 99.4814 85.7268 99.1814 85.5361C98.8814 85.3454 98.5219 85.1945 98.1121 85.0833C97.6979 84.972 97.259 84.8767 96.7942 84.7972C96.4139 84.7178 96.0331 84.6344 95.657 84.5549C95.2809 84.4755 94.9428 84.3682 94.6428 84.2332C94.3428 84.1021 94.0978 83.9234 93.9119 83.7049C93.7259 83.4864 93.633 83.1964 93.633 82.835C93.633 82.5211 93.7173 82.255 93.8821 82.0365C94.0469 81.8181 94.2625 81.6393 94.5203 81.5003C94.778 81.3613 95.0696 81.2619 95.3992 81.2063C95.7245 81.1467 96.05 81.1189 96.3669 81.1189C96.7599 81.1189 97.1321 81.1626 97.4744 81.25C97.8166 81.3374 98.1168 81.4685 98.3704 81.6512C98.6239 81.83 98.818 82.0643 98.9617 82.3543C99.1011 82.6443 99.1731 82.9899 99.1731 83.395H99.8743C99.8743 82.8866 99.7856 82.4536 99.6081 82.0921C99.4307 81.7346 99.1853 81.4367 98.8684 81.2063C98.5557 80.9759 98.1842 80.8051 97.7532 80.7019C97.3221 80.5986 96.8613 80.5469 96.3669 80.5469C95.9613 80.5469 95.5558 80.5827 95.1501 80.6582C94.7445 80.7336 94.3769 80.8568 94.0515 81.0316C93.7261 81.2063 93.4553 81.4407 93.2483 81.7346C93.037 82.0286 92.9358 82.398 92.9358 82.835C92.9358 83.4467 93.0966 83.9154 93.4177 84.2332C93.7389 84.551 94.1398 84.7973 94.6257 84.972C95.1117 85.1468 95.6363 85.2739 96.1941 85.3613C96.7561 85.4487 97.276 85.5599 97.762 85.699C98.2479 85.838 98.6488 86.0366 98.97 86.2908C99.2911 86.545 99.4524 86.9224 99.4524 87.4189C99.4524 87.8003 99.3546 88.1181 99.156 88.3643C98.9574 88.6146 98.708 88.8053 98.408 88.9443C98.1079 89.0833 97.7787 89.1787 97.428 89.2303C97.0772 89.2819 96.7472 89.3097 96.4387 89.3097C96.0077 89.3097 95.6066 89.2502 95.239 89.135C94.8714 89.0198 94.5459 88.849 94.2712 88.6225C93.9923 88.3961 93.7687 88.126 93.5955 87.8082C93.4222 87.4904 93.3244 87.121 93.2991 86.7079H92.5979C92.6106 87.2283 92.716 87.6851 92.9104 88.0783C93.109 88.4716 93.3796 88.8053 93.7219 89.0754V89.0793Z" fill="#ADADAD"/>
<path d="M93.7219 89.0793C94.0684 89.3534 94.4698 89.552 94.9304 89.6871C95.391 89.8182 95.8939 89.8857 96.4348 89.8857C96.8531 89.8857 97.2795 89.85 97.719 89.7745C98.1542 89.699 98.5517 89.5679 98.9109 89.3733C99.2658 89.1826 99.5614 88.9324 99.7981 88.6186C100.031 88.3048 100.149 87.9075 100.149 87.4189C100.149 86.9303 100.065 86.5728 99.8913 86.2749C99.7181 85.973 99.4814 85.7268 99.1814 85.5361C98.8814 85.3454 98.5219 85.1945 98.1121 85.0833C97.6979 84.972 97.259 84.8767 96.7942 84.7972C96.4139 84.7178 96.0331 84.6344 95.657 84.5549C95.2809 84.4755 94.9428 84.3682 94.6428 84.2332C94.3428 84.1021 94.0978 83.9234 93.9119 83.7049C93.7259 83.4864 93.633 83.1964 93.633 82.835C93.633 82.5211 93.7173 82.255 93.8821 82.0365C94.0469 81.8181 94.2625 81.6393 94.5203 81.5003C94.778 81.3613 95.0696 81.2619 95.3992 81.2063C95.7245 81.1467 96.05 81.1189 96.3669 81.1189C96.7599 81.1189 97.1321 81.1626 97.4744 81.25C97.8166 81.3374 98.1168 81.4685 98.3704 81.6512C98.6239 81.83 98.818 82.0643 98.9617 82.3543C99.1011 82.6443 99.1731 82.9899 99.1731 83.395H99.8743C99.8743 82.8866 99.7856 82.4536 99.6081 82.0921C99.4307 81.7346 99.1853 81.4367 98.8684 81.2063C98.5557 80.9759 98.1842 80.8051 97.7532 80.7019C97.3221 80.5986 96.8613 80.5469 96.3669 80.5469C95.9613 80.5469 95.5558 80.5827 95.1501 80.6582C94.7445 80.7336 94.3769 80.8568 94.0515 81.0316C93.7261 81.2063 93.4553 81.4407 93.2483 81.7346C93.037 82.0286 92.9358 82.398 92.9358 82.835C92.9358 83.4467 93.0966 83.9154 93.4177 84.2332C93.7389 84.551 94.1398 84.7973 94.6257 84.972C95.1117 85.1468 95.6363 85.2739 96.1941 85.3613C96.7561 85.4487 97.276 85.5599 97.762 85.699C98.2479 85.838 98.6488 86.0366 98.97 86.2908C99.2911 86.545 99.4524 86.9224 99.4524 87.4189C99.4524 87.8003 99.3546 88.1181 99.156 88.3643C98.9574 88.6146 98.708 88.8053 98.408 88.9443C98.1079 89.0833 97.7787 89.1787 97.428 89.2303C97.0772 89.2819 96.7472 89.3097 96.4387 89.3097C96.0077 89.3097 95.6066 89.2502 95.239 89.135C94.8714 89.0198 94.5459 88.849 94.2712 88.6225C93.9923 88.3961 93.7687 88.126 93.5955 87.8082C93.4222 87.4904 93.3244 87.121 93.2991 86.7079H92.5979C92.6106 87.2283 92.716 87.6851 92.9104 88.0783C93.109 88.4716 93.3796 88.8053 93.7219 89.0754V89.0793Z" fill="#ADADAD"/>
<path d="M107.74 89.9158C108.256 89.6758 108.683 89.3406 109.02 88.9102C109.358 88.484 109.609 87.975 109.776 87.3832C109.943 86.7915 110.024 86.1418 110.024 85.43C110.024 84.7803 109.939 84.1596 109.776 83.5678C109.609 82.9761 109.358 82.4588 109.02 82.0119C108.683 81.5649 108.256 81.209 107.74 80.9442C107.224 80.6794 106.614 80.5469 105.915 80.5469C105.415 80.5469 104.976 80.6256 104.59 80.7828C104.204 80.9401 103.875 81.1346 103.602 81.3704C103.33 81.6063 103.111 81.8629 102.944 82.1401C102.777 82.4174 102.66 82.6698 102.587 82.9016H102.55V80.7663H101.892V93.3878H102.55V88.124H102.587C102.859 88.8854 103.294 89.4316 103.887 89.771C104.481 90.1103 105.155 90.2758 105.915 90.2758C106.614 90.2758 107.224 90.1558 107.74 89.9158ZM103.269 88.3888C103.013 87.9957 102.835 87.5446 102.725 87.0315C102.619 86.5184 102.567 85.9845 102.567 85.43C102.567 84.8755 102.627 84.3417 102.745 83.8285C102.863 83.3154 103.058 82.8602 103.322 82.4629C103.59 82.0657 103.936 81.747 104.363 81.5029C104.789 81.2628 105.305 81.1428 105.911 81.1428C106.516 81.1428 107.053 81.267 107.488 81.5153C107.922 81.7636 108.276 82.0864 108.549 82.4919C108.821 82.8974 109.024 83.3526 109.154 83.8658C109.284 84.3789 109.349 84.9003 109.349 85.43C109.349 86.0093 109.28 86.5556 109.146 87.0646C109.008 87.5777 108.801 88.0247 108.524 88.4137C108.244 88.7985 107.891 89.1089 107.456 89.3365C107.021 89.5641 106.509 89.6799 105.915 89.6799C105.273 89.6799 104.736 89.5641 104.302 89.3282C103.867 89.0923 103.525 88.7778 103.269 88.3888Z" fill="#ADADAD"/>
<path d="M107.74 89.9158C108.256 89.6758 108.683 89.3406 109.02 88.9102C109.358 88.484 109.609 87.975 109.776 87.3832C109.943 86.7915 110.024 86.1418 110.024 85.43C110.024 84.7803 109.939 84.1596 109.776 83.5678C109.609 82.9761 109.358 82.4588 109.02 82.0119C108.683 81.5649 108.256 81.209 107.74 80.9442C107.224 80.6794 106.614 80.5469 105.915 80.5469C105.415 80.5469 104.976 80.6256 104.59 80.7828C104.204 80.9401 103.875 81.1346 103.602 81.3704C103.33 81.6063 103.111 81.8629 102.944 82.1401C102.777 82.4174 102.66 82.6698 102.587 82.9016H102.55V80.7663H101.892V93.3878H102.55V88.124H102.587C102.859 88.8854 103.294 89.4316 103.887 89.771C104.481 90.1103 105.155 90.2758 105.915 90.2758C106.614 90.2758 107.224 90.1558 107.74 89.9158ZM103.269 88.3888C103.013 87.9957 102.835 87.5446 102.725 87.0315C102.619 86.5184 102.567 85.9845 102.567 85.43C102.567 84.8755 102.627 84.3417 102.745 83.8285C102.863 83.3154 103.058 82.8602 103.322 82.4629C103.59 82.0657 103.936 81.747 104.363 81.5029C104.789 81.2628 105.305 81.1428 105.911 81.1428C106.516 81.1428 107.053 81.267 107.488 81.5153C107.922 81.7636 108.276 82.0864 108.549 82.4919C108.821 82.8974 109.024 83.3526 109.154 83.8658C109.284 84.3789 109.349 84.9003 109.349 85.43C109.349 86.0093 109.28 86.5556 109.146 87.0646C109.008 87.5777 108.801 88.0247 108.524 88.4137C108.244 88.7985 107.891 89.1089 107.456 89.3365C107.021 89.5641 106.509 89.6799 105.915 89.6799C105.273 89.6799 104.736 89.5641 104.302 89.3282C103.867 89.0923 103.525 88.7778 103.269 88.3888Z" fill="#ADADAD"/>
<path d="M112.347 77.0449H111.766V78.7959H112.347V77.0449Z" fill="#ADADAD"/>
<path d="M112.347 77.0449H111.766V78.7959H112.347V77.0449Z" fill="#ADADAD"/>
<path d="M112.347 80.5469H111.766V89.8857H112.347V80.5469Z" fill="#ADADAD"/>
<path d="M112.347 80.5469H111.766V89.8857H112.347V80.5469Z" fill="#ADADAD"/>
<path d="M116.035 77.6286H115.313V80.5329H113.509V81.1313H115.313V87.6505C115.287 88.1824 115.353 88.6021 115.513 88.9054C115.67 89.2087 115.883 89.4331 116.148 89.5868C116.413 89.7364 116.722 89.8278 117.07 89.861C117.417 89.8901 117.773 89.8943 118.143 89.8693V89.271C117.799 89.2835 117.5 89.2793 117.239 89.2544C116.978 89.2295 116.756 89.1588 116.573 89.0466C116.391 88.9303 116.252 88.7641 116.165 88.548C116.078 88.332 116.031 88.0328 116.031 87.6589V81.1396H118.156V80.5412H116.031V77.6369L116.035 77.6286Z" fill="#ADADAD"/>
<path d="M116.035 77.6286H115.313V80.5329H113.509V81.1313H115.313V87.6505C115.287 88.1824 115.353 88.6021 115.513 88.9054C115.67 89.2087 115.883 89.4331 116.148 89.5868C116.413 89.7364 116.722 89.8278 117.07 89.861C117.417 89.8901 117.773 89.8943 118.143 89.8693V89.271C117.799 89.2835 117.5 89.2793 117.239 89.2544C116.978 89.2295 116.756 89.1588 116.573 89.0466C116.391 88.9303 116.252 88.7641 116.165 88.548C116.078 88.332 116.031 88.0328 116.031 87.6589V81.1396H118.156V80.5412H116.031V77.6369L116.035 77.6286Z" fill="#ADADAD"/>
<path d="M119.529 89.2695C120.053 89.679 120.792 89.8857 121.748 89.8857C122.18 89.8857 122.575 89.834 122.935 89.7307C123.295 89.6273 123.619 89.4802 123.906 89.2973C124.19 89.1105 124.435 88.8998 124.631 88.6612C124.831 88.4227 124.978 88.1722 125.086 87.9059H125.122V88.375C125.122 88.5618 125.138 88.7328 125.166 88.8878C125.194 89.0429 125.25 89.182 125.334 89.2973C125.414 89.4126 125.534 89.504 125.694 89.5756C125.85 89.6432 126.062 89.679 126.33 89.679C126.518 89.679 126.697 89.6551 126.869 89.6114V89.0548C126.661 89.0906 126.498 89.1065 126.382 89.1065C126.23 89.1065 126.113 89.0747 126.033 89.0111C125.953 88.9475 125.894 88.864 125.858 88.7606C125.822 88.6572 125.802 88.542 125.798 88.4147C125.794 88.2875 125.79 88.1603 125.79 88.0331V82.8369C125.79 82.1531 125.542 81.6005 125.046 81.1791C124.55 80.7576 123.763 80.5469 122.679 80.5469C121.596 80.5469 120.76 80.7934 120.172 81.2864C119.584 81.7794 119.265 82.5188 119.221 83.5008H119.885C119.932 82.7017 120.2 82.1054 120.696 81.7118C121.192 81.3182 121.84 81.1194 122.643 81.1194C123.099 81.1194 123.483 81.1671 123.795 81.2586C124.111 81.35 124.366 81.4772 124.562 81.6402C124.762 81.8032 124.906 81.9861 124.998 82.1968C125.09 82.4036 125.138 82.6302 125.138 82.8727C125.138 83.1868 125.122 83.4452 125.086 83.6559C125.05 83.8666 124.962 84.0336 124.822 84.1687C124.682 84.3039 124.474 84.4073 124.202 84.4828C123.927 84.5584 123.555 84.614 123.075 84.6498L122.043 84.7373C121.683 84.773 121.308 84.8287 120.916 84.9122C120.524 84.9917 120.172 85.1309 119.848 85.3217C119.529 85.5125 119.265 85.7749 119.053 86.1049C118.841 86.4349 118.737 86.8603 118.737 87.3811C118.737 88.2398 119.001 88.8719 119.525 89.2814L119.529 89.2695ZM119.653 86.3474C119.817 86.085 120.028 85.8822 120.288 85.7312C120.552 85.5801 120.844 85.4728 121.172 85.4091C121.5 85.3455 121.823 85.2978 122.151 85.262L123.271 85.1587C123.679 85.1229 124.047 85.0712 124.379 85.0036C124.711 84.936 124.958 84.8009 125.122 84.6021V86.2719C125.122 86.3872 125.09 86.6098 125.026 86.9398C124.962 87.2698 124.814 87.6117 124.582 87.9655C124.35 88.3193 124.01 88.6334 123.571 88.9037C123.127 89.1781 122.527 89.3132 121.772 89.3132C121.016 89.3132 120.46 89.1542 120.04 88.8362C119.62 88.5181 119.413 88.0291 119.413 87.3691C119.413 86.9517 119.493 86.6138 119.656 86.3514L119.653 86.3474Z" fill="#ADADAD"/>
<path d="M119.529 89.2695C120.053 89.679 120.792 89.8857 121.748 89.8857C122.18 89.8857 122.575 89.834 122.935 89.7307C123.295 89.6273 123.619 89.4802 123.906 89.2973C124.19 89.1105 124.435 88.8998 124.631 88.6612C124.831 88.4227 124.978 88.1722 125.086 87.9059H125.122V88.375C125.122 88.5618 125.138 88.7328 125.166 88.8878C125.194 89.0429 125.25 89.182 125.334 89.2973C125.414 89.4126 125.534 89.504 125.694 89.5756C125.85 89.6432 126.062 89.679 126.33 89.679C126.518 89.679 126.697 89.6551 126.869 89.6114V89.0548C126.661 89.0906 126.498 89.1065 126.382 89.1065C126.23 89.1065 126.113 89.0747 126.033 89.0111C125.953 88.9475 125.894 88.864 125.858 88.7606C125.822 88.6572 125.802 88.542 125.798 88.4147C125.794 88.2875 125.79 88.1603 125.79 88.0331V82.8369C125.79 82.1531 125.542 81.6005 125.046 81.1791C124.55 80.7576 123.763 80.5469 122.679 80.5469C121.596 80.5469 120.76 80.7934 120.172 81.2864C119.584 81.7794 119.265 82.5188 119.221 83.5008H119.885C119.932 82.7017 120.2 82.1054 120.696 81.7118C121.192 81.3182 121.84 81.1194 122.643 81.1194C123.099 81.1194 123.483 81.1671 123.795 81.2586C124.111 81.35 124.366 81.4772 124.562 81.6402C124.762 81.8032 124.906 81.9861 124.998 82.1968C125.09 82.4036 125.138 82.6302 125.138 82.8727C125.138 83.1868 125.122 83.4452 125.086 83.6559C125.05 83.8666 124.962 84.0336 124.822 84.1687C124.682 84.3039 124.474 84.4073 124.202 84.4828C123.927 84.5584 123.555 84.614 123.075 84.6498L122.043 84.7373C121.683 84.773 121.308 84.8287 120.916 84.9122C120.524 84.9917 120.172 85.1309 119.848 85.3217C119.529 85.5125 119.265 85.7749 119.053 86.1049C118.841 86.4349 118.737 86.8603 118.737 87.3811C118.737 88.2398 119.001 88.8719 119.525 89.2814L119.529 89.2695ZM119.653 86.3474C119.817 86.085 120.028 85.8822 120.288 85.7312C120.552 85.5801 120.844 85.4728 121.172 85.4091C121.5 85.3455 121.823 85.2978 122.151 85.262L123.271 85.1587C123.679 85.1229 124.047 85.0712 124.379 85.0036C124.711 84.936 124.958 84.8009 125.122 84.6021V86.2719C125.122 86.3872 125.09 86.6098 125.026 86.9398C124.962 87.2698 124.814 87.6117 124.582 87.9655C124.35 88.3193 124.01 88.6334 123.571 88.9037C123.127 89.1781 122.527 89.3132 121.772 89.3132C121.016 89.3132 120.46 89.1542 120.04 88.8362C119.62 88.5181 119.413 88.0291 119.413 87.3691C119.413 86.9517 119.493 86.6138 119.656 86.3514L119.653 86.3474Z" fill="#ADADAD"/>
<path d="M129.193 77.0449H128.031V89.8857H129.193V77.0449Z" fill="#ADADAD"/>
<path d="M129.193 77.0449H128.031V89.8857H129.193V77.0449Z" fill="#ADADAD"/>
<path d="M81.6966 96.5022C81.1747 95.8984 80.5381 95.4219 79.786 95.0768C79.0298 94.7317 78.1748 94.5551 77.2172 94.5551C76.2595 94.5551 75.4004 94.7276 74.64 95.0768C73.8797 95.426 73.2386 95.8984 72.7167 96.5022C72.1947 97.1061 71.7957 97.8208 71.5204 98.6383C71.245 99.4599 71.1053 100.335 71.1053 101.267C71.1053 102.2 71.2409 103.079 71.5204 103.896C71.7957 104.718 72.1947 105.429 72.7167 106.032C73.2386 106.636 73.8797 107.113 74.64 107.458C75.4004 107.803 76.2595 107.98 77.2172 107.98C78.1748 107.98 79.0298 107.807 79.786 107.458C80.5422 107.113 81.1788 106.636 81.6966 106.032C82.2186 105.429 82.6176 104.718 82.8929 103.896C83.1683 103.075 83.3041 102.2 83.3041 101.267C83.3041 100.335 83.1683 99.4558 82.8929 98.6383C82.6176 97.8167 82.2186 97.1061 81.6966 96.5022ZM82.1571 103.605C81.9187 104.336 81.5692 104.973 81.1171 105.515C80.6608 106.061 80.1104 106.493 79.4569 106.817C78.8034 107.142 78.0595 107.302 77.2211 107.302C76.3826 107.302 75.6345 107.142 74.9769 106.817C74.3193 106.493 73.7601 106.061 73.308 105.515C72.8518 104.969 72.5073 104.332 72.2689 103.605C72.0305 102.874 71.911 102.097 71.911 101.271C71.911 100.446 72.0305 99.6694 72.2689 98.9382C72.5073 98.207 72.8559 97.5703 73.308 97.028C73.7642 96.4817 74.3193 96.0504 74.9769 95.7258C75.6345 95.4013 76.3826 95.2411 77.2211 95.2411C78.0595 95.2411 78.8034 95.4013 79.4569 95.7258C80.1104 96.0504 80.6608 96.4817 81.1171 97.028C81.5733 97.5744 81.9187 98.2111 82.1571 98.9382C82.3955 99.6694 82.515 100.446 82.515 101.271C82.515 102.097 82.3955 102.874 82.1571 103.605Z" fill="#ADADAD"/>
<path d="M81.6966 96.5022C81.1747 95.8984 80.5381 95.4219 79.786 95.0768C79.0298 94.7317 78.1748 94.5551 77.2172 94.5551C76.2595 94.5551 75.4004 94.7276 74.64 95.0768C73.8797 95.426 73.2386 95.8984 72.7167 96.5022C72.1947 97.1061 71.7957 97.8208 71.5204 98.6383C71.245 99.4599 71.1053 100.335 71.1053 101.267C71.1053 102.2 71.2409 103.079 71.5204 103.896C71.7957 104.718 72.1947 105.429 72.7167 106.032C73.2386 106.636 73.8797 107.113 74.64 107.458C75.4004 107.803 76.2595 107.98 77.2172 107.98C78.1748 107.98 79.0298 107.807 79.786 107.458C80.5422 107.113 81.1788 106.636 81.6966 106.032C82.2186 105.429 82.6176 104.718 82.8929 103.896C83.1683 103.075 83.3041 102.2 83.3041 101.267C83.3041 100.335 83.1683 99.4558 82.8929 98.6383C82.6176 97.8167 82.2186 97.1061 81.6966 96.5022ZM82.1571 103.605C81.9187 104.336 81.5692 104.973 81.1171 105.515C80.6608 106.061 80.1104 106.493 79.4569 106.817C78.8034 107.142 78.0595 107.302 77.2211 107.302C76.3826 107.302 75.6345 107.142 74.9769 106.817C74.3193 106.493 73.7601 106.061 73.308 105.515C72.8518 104.969 72.5073 104.332 72.2689 103.605C72.0305 102.874 71.911 102.097 71.911 101.271C71.911 100.446 72.0305 99.6694 72.2689 98.9382C72.5073 98.207 72.8559 97.5703 73.308 97.028C73.7642 96.4817 74.3193 96.0504 74.9769 95.7258C75.6345 95.4013 76.3826 95.2411 77.2211 95.2411C78.0595 95.2411 78.8034 95.4013 79.4569 95.7258C80.1104 96.0504 80.6608 96.4817 81.1171 97.028C81.5733 97.5744 81.9187 98.2111 82.1571 98.9382C82.3955 99.6694 82.515 100.446 82.515 101.271C82.515 102.097 82.3955 102.874 82.1571 103.605Z" fill="#ADADAD"/>
<path d="M85.7167 97.0028C85.7167 96.4941 85.849 96.1522 86.1171 95.9813C86.3852 95.8103 86.7168 95.7249 87.1125 95.7249C87.3253 95.7249 87.602 95.7533 87.9509 95.8144V95.2283C87.602 95.1673 87.3253 95.1388 87.1125 95.1388C86.8274 95.1388 86.5589 95.1754 86.3036 95.2446C86.0483 95.3138 85.8271 95.4237 85.6356 95.5661C85.4441 95.7086 85.2912 95.8958 85.1805 96.1278C85.0699 96.3598 85.0145 96.6365 85.0145 96.954V98.8384H83.3041V99.4245H85.0145V107.98H85.7211V99.4245H87.7126V98.8384H85.7211V97.0069L85.7167 97.0028Z" fill="#ADADAD"/>
<path d="M85.7167 97.0028C85.7167 96.4941 85.849 96.1522 86.1171 95.9813C86.3852 95.8103 86.7168 95.7249 87.1125 95.7249C87.3253 95.7249 87.602 95.7533 87.9509 95.8144V95.2283C87.602 95.1673 87.3253 95.1388 87.1125 95.1388C86.8274 95.1388 86.5589 95.1754 86.3036 95.2446C86.0483 95.3138 85.8271 95.4237 85.6356 95.5661C85.4441 95.7086 85.2912 95.8958 85.1805 96.1278C85.0699 96.3598 85.0145 96.6365 85.0145 96.954V98.8384H83.3041V99.4245H85.0145V107.98H85.7211V99.4245H87.7126V98.8384H85.7211V97.0069L85.7167 97.0028Z" fill="#ADADAD"/>
<path d="M90.1609 95.7225H89.5295V98.6268H87.9509V99.2252H89.5295V105.744C89.5067 106.276 89.5636 106.696 89.7043 106.999C89.8413 107.303 90.0275 107.527 90.2595 107.681C90.4915 107.83 90.7614 107.922 91.0657 107.955C91.3699 107.984 91.6818 107.988 92.0051 107.963V107.365C91.7046 107.377 91.4423 107.373 91.2141 107.348C90.9859 107.323 90.7923 107.253 90.6326 107.141C90.4728 107.024 90.3507 106.858 90.2747 106.642C90.1986 106.426 90.157 106.127 90.157 105.753V99.2335H92.0168V98.6351H90.157V95.7308L90.1609 95.7225Z" fill="#ADADAD"/>
<path d="M90.1609 95.7225H89.5295V98.6268H87.9509V99.2252H89.5295V105.744C89.5067 106.276 89.5636 106.696 89.7043 106.999C89.8413 107.303 90.0275 107.527 90.2595 107.681C90.4915 107.83 90.7614 107.922 91.0657 107.955C91.3699 107.984 91.6818 107.988 92.0051 107.963V107.365C91.7046 107.377 91.4423 107.373 91.2141 107.348C90.9859 107.323 90.7923 107.253 90.6326 107.141C90.4728 107.024 90.3507 106.858 90.2747 106.642C90.1986 106.426 90.157 106.127 90.157 105.753V99.2335H92.0168V98.6351H90.157V95.7308L90.1609 95.7225Z" fill="#ADADAD"/>
<path d="M100.475 107.094C100.395 107.031 100.335 106.947 100.299 106.844C100.263 106.741 100.243 106.626 100.239 106.499C100.231 106.372 100.231 106.244 100.231 106.117V100.928C100.231 100.245 99.9838 99.693 99.488 99.2721C98.9923 98.8513 98.2043 98.6408 97.1208 98.6408C96.0373 98.6408 95.2012 98.887 94.6135 99.3793C94.0258 99.8717 93.7063 100.61 93.6623 101.591H94.3259C94.3739 100.793 94.6422 100.197 95.1379 99.8042C95.6337 99.4111 96.2811 99.2126 97.0847 99.2126C97.5405 99.2126 97.9247 99.2602 98.2366 99.3516C98.5524 99.4429 98.8082 99.5699 99.0041 99.7327C99.2001 99.8955 99.3477 100.078 99.4397 100.289C99.5316 100.495 99.5793 100.721 99.5793 100.964C99.5793 101.277 99.5636 101.535 99.5276 101.746C99.4916 101.952 99.4034 102.123 99.2634 102.258C99.1235 102.393 98.9162 102.496 98.6443 102.572C98.3684 102.647 97.9961 102.703 97.5163 102.738L96.4846 102.826C96.1248 102.862 95.7495 102.917 95.3577 103C94.9658 103.08 94.6141 103.219 94.2903 103.409C93.9704 103.6 93.7063 103.862 93.4944 104.192C93.2825 104.521 93.1785 104.946 93.1785 105.466C93.1785 106.324 93.4423 106.955 93.9661 107.364C94.4898 107.773 95.2292 107.98 96.1848 107.98C96.6166 107.98 97.013 107.928 97.3728 107.825C97.7326 107.721 98.0566 107.575 98.3445 107.392C98.6283 107.205 98.8722 106.995 99.0681 106.761C99.264 106.522 99.4157 106.272 99.5237 106.006H99.5598V106.475C99.5598 106.661 99.5758 106.832 99.6038 106.987C99.6317 107.142 99.6878 107.281 99.7717 107.396C99.8517 107.511 99.9712 107.602 100.131 107.674C100.291 107.745 100.499 107.777 100.771 107.777C100.959 107.777 101.139 107.753 101.311 107.71V107.154C101.103 107.189 100.939 107.205 100.823 107.205C100.671 107.205 100.555 107.174 100.475 107.11V107.094ZM99.5681 104.362C99.5681 104.478 99.5359 104.7 99.4719 105.029C99.4079 105.359 99.26 105.7 99.0281 106.054C98.7962 106.407 98.4558 106.721 98.012 106.991C97.5682 107.261 96.9688 107.4 96.2131 107.4C95.4575 107.4 94.9015 107.241 94.4817 106.923C94.0619 106.606 93.8542 106.117 93.8542 105.458C93.8542 105.041 93.934 104.704 94.0979 104.442C94.2618 104.18 94.4738 103.977 94.7336 103.826C94.9975 103.675 95.2896 103.568 95.6174 103.505C95.9453 103.441 96.2691 103.394 96.5969 103.358L97.7165 103.255C98.1244 103.219 98.4921 103.167 98.824 103.1C99.1558 103.032 99.4042 102.897 99.5681 102.699V104.362Z" fill="#ADADAD"/>
<path d="M100.475 107.094C100.395 107.031 100.335 106.947 100.299 106.844C100.263 106.741 100.243 106.626 100.239 106.499C100.231 106.372 100.231 106.244 100.231 106.117V100.928C100.231 100.245 99.9838 99.693 99.488 99.2721C98.9923 98.8513 98.2043 98.6408 97.1208 98.6408C96.0373 98.6408 95.2012 98.887 94.6135 99.3793C94.0258 99.8717 93.7063 100.61 93.6623 101.591H94.3259C94.3739 100.793 94.6422 100.197 95.1379 99.8042C95.6337 99.4111 96.2811 99.2126 97.0847 99.2126C97.5405 99.2126 97.9247 99.2602 98.2366 99.3516C98.5524 99.4429 98.8082 99.5699 99.0041 99.7327C99.2001 99.8955 99.3477 100.078 99.4397 100.289C99.5316 100.495 99.5793 100.721 99.5793 100.964C99.5793 101.277 99.5636 101.535 99.5276 101.746C99.4916 101.952 99.4034 102.123 99.2634 102.258C99.1235 102.393 98.9162 102.496 98.6443 102.572C98.3684 102.647 97.9961 102.703 97.5163 102.738L96.4846 102.826C96.1248 102.862 95.7495 102.917 95.3577 103C94.9658 103.08 94.6141 103.219 94.2903 103.409C93.9704 103.6 93.7063 103.862 93.4944 104.192C93.2825 104.521 93.1785 104.946 93.1785 105.466C93.1785 106.324 93.4423 106.955 93.9661 107.364C94.4898 107.773 95.2292 107.98 96.1848 107.98C96.6166 107.98 97.013 107.928 97.3728 107.825C97.7326 107.721 98.0566 107.575 98.3445 107.392C98.6283 107.205 98.8722 106.995 99.0681 106.761C99.264 106.522 99.4157 106.272 99.5237 106.006H99.5598V106.475C99.5598 106.661 99.5758 106.832 99.6038 106.987C99.6317 107.142 99.6878 107.281 99.7717 107.396C99.8517 107.511 99.9712 107.602 100.131 107.674C100.291 107.745 100.499 107.777 100.771 107.777C100.959 107.777 101.139 107.753 101.311 107.71V107.154C101.103 107.189 100.939 107.205 100.823 107.205C100.671 107.205 100.555 107.174 100.475 107.11V107.094ZM99.5681 104.362C99.5681 104.478 99.5359 104.7 99.4719 105.029C99.4079 105.359 99.26 105.7 99.0281 106.054C98.7962 106.407 98.4558 106.721 98.012 106.991C97.5682 107.261 96.9688 107.4 96.2131 107.4C95.4575 107.4 94.9015 107.241 94.4817 106.923C94.0619 106.606 93.8542 106.117 93.8542 105.458C93.8542 105.041 93.934 104.704 94.0979 104.442C94.2618 104.18 94.4738 103.977 94.7336 103.826C94.9975 103.675 95.2896 103.568 95.6174 103.505C95.9453 103.441 96.2691 103.394 96.5969 103.358L97.7165 103.255C98.1244 103.219 98.4921 103.167 98.824 103.1C99.1558 103.032 99.4042 102.897 99.5681 102.699V104.362Z" fill="#ADADAD"/>
<path d="M103.053 95.1388H102.472V107.98H103.053V95.1388Z" fill="#ADADAD"/>
<path d="M103.053 95.1388H102.472V107.98H103.053V95.1388Z" fill="#ADADAD"/>
<path d="M116.769 99.4004C116.511 99.1445 116.208 98.9577 115.856 98.8317C115.504 98.7058 115.12 98.6449 114.703 98.6449C113.95 98.6449 113.348 98.8074 112.885 99.1323C112.427 99.4573 112.06 99.9407 111.785 100.578H111.748C111.699 100.343 111.613 100.107 111.478 99.8757C111.347 99.6442 111.167 99.437 110.942 99.2542C110.717 99.0714 110.443 98.9211 110.119 98.8114C109.796 98.6977 109.416 98.6408 108.974 98.6408C108.626 98.6408 108.298 98.6936 107.979 98.7992C107.66 98.9049 107.378 99.0551 107.12 99.242C106.862 99.4329 106.645 99.6523 106.469 99.9082C106.289 100.164 106.167 100.432 106.093 100.717H106.056V98.852H105.377V107.976H106.056V102.581C106.056 102 106.146 101.496 106.326 101.074C106.506 100.647 106.735 100.298 107.022 100.026C107.308 99.7538 107.624 99.5548 107.971 99.4207C108.315 99.2908 108.651 99.2258 108.974 99.2258C109.117 99.2258 109.309 99.2501 109.555 99.2948C109.8 99.3436 110.037 99.4492 110.271 99.6157C110.504 99.7823 110.705 100.034 110.881 100.371C111.052 100.708 111.138 101.159 111.138 101.728V107.976H111.818V102.581C111.818 102.037 111.887 101.553 112.031 101.135C112.174 100.717 112.374 100.363 112.628 100.079C112.885 99.7945 113.189 99.5832 113.541 99.441C113.893 99.2989 114.277 99.2298 114.695 99.2298C114.826 99.2298 115.014 99.2501 115.259 99.2907C115.505 99.3314 115.746 99.437 115.991 99.6117C116.237 99.7823 116.446 100.034 116.626 100.367C116.806 100.7 116.896 101.155 116.896 101.732V107.98H117.575V101.748C117.575 101.216 117.506 100.753 117.363 100.363C117.219 99.9732 117.019 99.6523 116.765 99.3964L116.769 99.4004Z" fill="#ADADAD"/>
<path d="M116.769 99.4004C116.511 99.1445 116.208 98.9577 115.856 98.8317C115.504 98.7058 115.12 98.6449 114.703 98.6449C113.95 98.6449 113.348 98.8074 112.885 99.1323C112.427 99.4573 112.06 99.9407 111.785 100.578H111.748C111.699 100.343 111.613 100.107 111.478 99.8757C111.347 99.6442 111.167 99.437 110.942 99.2542C110.717 99.0714 110.443 98.9211 110.119 98.8114C109.796 98.6977 109.416 98.6408 108.974 98.6408C108.626 98.6408 108.298 98.6936 107.979 98.7992C107.66 98.9049 107.378 99.0551 107.12 99.242C106.862 99.4329 106.645 99.6523 106.469 99.9082C106.289 100.164 106.167 100.432 106.093 100.717H106.056V98.852H105.377V107.976H106.056V102.581C106.056 102 106.146 101.496 106.326 101.074C106.506 100.647 106.735 100.298 107.022 100.026C107.308 99.7538 107.624 99.5548 107.971 99.4207C108.315 99.2908 108.651 99.2258 108.974 99.2258C109.117 99.2258 109.309 99.2501 109.555 99.2948C109.8 99.3436 110.037 99.4492 110.271 99.6157C110.504 99.7823 110.705 100.034 110.881 100.371C111.052 100.708 111.138 101.159 111.138 101.728V107.976H111.818V102.581C111.818 102.037 111.887 101.553 112.031 101.135C112.174 100.717 112.374 100.363 112.628 100.079C112.885 99.7945 113.189 99.5832 113.541 99.441C113.893 99.2989 114.277 99.2298 114.695 99.2298C114.826 99.2298 115.014 99.2501 115.259 99.2907C115.505 99.3314 115.746 99.437 115.991 99.6117C116.237 99.7823 116.446 100.034 116.626 100.367C116.806 100.7 116.896 101.155 116.896 101.732V107.98H117.575V101.748C117.575 101.216 117.506 100.753 117.363 100.363C117.219 99.9732 117.019 99.6523 116.765 99.3964L116.769 99.4004Z" fill="#ADADAD"/>
<path d="M126.903 100.031C126.535 99.6021 126.079 99.2645 125.538 99.0142C124.997 98.764 124.376 98.6408 123.675 98.6408C122.973 98.6408 122.352 98.764 121.811 99.0142C121.27 99.2645 120.814 99.6021 120.446 100.031C120.078 100.46 119.795 100.953 119.605 101.517C119.415 102.077 119.318 102.677 119.318 103.312C119.318 103.948 119.415 104.552 119.605 105.116C119.795 105.684 120.074 106.176 120.446 106.601C120.814 107.022 121.27 107.36 121.811 107.606C122.352 107.856 122.973 107.98 123.675 107.98C124.376 107.98 124.997 107.856 125.538 107.606C126.079 107.356 126.535 107.022 126.903 106.601C127.27 106.18 127.553 105.684 127.743 105.116C127.934 104.548 128.031 103.948 128.031 103.312C128.031 102.677 127.934 102.077 127.743 101.517C127.553 100.957 127.274 100.46 126.903 100.031ZM127.089 104.845C126.928 105.338 126.696 105.775 126.387 106.156C126.079 106.538 125.699 106.844 125.242 107.066C124.786 107.292 124.262 107.404 123.675 107.404C123.087 107.404 122.559 107.292 122.107 107.066C121.651 106.84 121.27 106.538 120.962 106.156C120.653 105.775 120.421 105.338 120.26 104.845C120.1 104.353 120.019 103.841 120.019 103.308C120.019 102.776 120.1 102.264 120.26 101.771C120.421 101.278 120.653 100.841 120.962 100.46C121.27 100.079 121.651 99.7729 122.107 99.5505C122.564 99.324 123.087 99.2128 123.675 99.2128C124.262 99.2128 124.79 99.324 125.242 99.5505C125.695 99.7769 126.079 100.079 126.387 100.46C126.696 100.841 126.928 101.278 127.089 101.771C127.249 102.264 127.329 102.776 127.329 103.308C127.329 103.841 127.249 104.353 127.089 104.845Z" fill="#ADADAD"/>
<path d="M126.903 100.031C126.535 99.6021 126.079 99.2645 125.538 99.0142C124.997 98.764 124.376 98.6408 123.675 98.6408C122.973 98.6408 122.352 98.764 121.811 99.0142C121.27 99.2645 120.814 99.6021 120.446 100.031C120.078 100.46 119.795 100.953 119.605 101.517C119.415 102.077 119.318 102.677 119.318 103.312C119.318 103.948 119.415 104.552 119.605 105.116C119.795 105.684 120.074 106.176 120.446 106.601C120.814 107.022 121.27 107.36 121.811 107.606C122.352 107.856 122.973 107.98 123.675 107.98C124.376 107.98 124.997 107.856 125.538 107.606C126.079 107.356 126.535 107.022 126.903 106.601C127.27 106.18 127.553 105.684 127.743 105.116C127.934 104.548 128.031 103.948 128.031 103.312C128.031 102.677 127.934 102.077 127.743 101.517C127.553 100.957 127.274 100.46 126.903 100.031ZM127.089 104.845C126.928 105.338 126.696 105.775 126.387 106.156C126.079 106.538 125.699 106.844 125.242 107.066C124.786 107.292 124.262 107.404 123.675 107.404C123.087 107.404 122.559 107.292 122.107 107.066C121.651 106.84 121.27 106.538 120.962 106.156C120.653 105.775 120.421 105.338 120.26 104.845C120.1 104.353 120.019 103.841 120.019 103.308C120.019 102.776 120.1 102.264 120.26 101.771C120.421 101.278 120.653 100.841 120.962 100.46C121.27 100.079 121.651 99.7729 122.107 99.5505C122.564 99.324 123.087 99.2128 123.675 99.2128C124.262 99.2128 124.79 99.324 125.242 99.5505C125.695 99.7769 126.079 100.079 126.387 100.46C126.696 100.841 126.928 101.278 127.089 101.771C127.249 102.264 127.329 102.776 127.329 103.308C127.329 103.841 127.249 104.353 127.089 104.845Z" fill="#ADADAD"/>
<path d="M130.354 95.1388H129.774V107.98H130.354V95.1388Z" fill="#ADADAD"/>
<path d="M130.354 95.1388H129.774V107.98H130.354V95.1388Z" fill="#ADADAD"/>
<path d="M139.176 100.031C138.833 99.6021 138.407 99.2645 137.903 99.0142C137.398 98.764 136.818 98.6408 136.163 98.6408C135.508 98.6408 134.928 98.764 134.424 99.0142C133.919 99.2645 133.493 99.6021 133.15 100.031C132.807 100.46 132.542 100.953 132.365 101.517C132.188 102.077 132.097 102.677 132.097 103.312C132.097 103.948 132.188 104.552 132.365 105.116C132.542 105.684 132.803 106.176 133.15 106.601C133.493 107.022 133.919 107.36 134.424 107.606C134.928 107.856 135.508 107.98 136.163 107.98C136.818 107.98 137.398 107.856 137.903 107.606C138.407 107.356 138.833 107.022 139.176 106.601C139.519 106.18 139.783 105.684 139.961 105.116C140.138 104.548 140.229 103.948 140.229 103.312C140.229 102.677 140.138 102.077 139.961 101.517C139.783 100.957 139.523 100.46 139.176 100.031ZM139.35 104.845C139.2 105.338 138.982 105.775 138.695 106.156C138.407 106.538 138.052 106.844 137.626 107.066C137.2 107.292 136.711 107.404 136.163 107.404C135.615 107.404 135.122 107.292 134.7 107.066C134.274 106.84 133.919 106.538 133.631 106.156C133.343 105.775 133.126 105.338 132.976 104.845C132.826 104.353 132.752 103.841 132.752 103.308C132.752 102.776 132.826 102.264 132.976 101.771C133.126 101.278 133.343 100.841 133.631 100.46C133.919 100.079 134.274 99.7729 134.7 99.5505C135.126 99.324 135.615 99.2128 136.163 99.2128C136.711 99.2128 137.204 99.324 137.626 99.5505C138.052 99.7769 138.407 100.079 138.695 100.46C138.982 100.841 139.2 101.278 139.35 101.771C139.5 102.264 139.574 102.776 139.574 103.308C139.574 103.841 139.5 104.353 139.35 104.845Z" fill="#ADADAD"/>
<path d="M139.176 100.031C138.833 99.6021 138.407 99.2645 137.903 99.0142C137.398 98.764 136.818 98.6408 136.163 98.6408C135.508 98.6408 134.928 98.764 134.424 99.0142C133.919 99.2645 133.493 99.6021 133.15 100.031C132.807 100.46 132.542 100.953 132.365 101.517C132.188 102.077 132.097 102.677 132.097 103.312C132.097 103.948 132.188 104.552 132.365 105.116C132.542 105.684 132.803 106.176 133.15 106.601C133.493 107.022 133.919 107.36 134.424 107.606C134.928 107.856 135.508 107.98 136.163 107.98C136.818 107.98 137.398 107.856 137.903 107.606C138.407 107.356 138.833 107.022 139.176 106.601C139.519 106.18 139.783 105.684 139.961 105.116C140.138 104.548 140.229 103.948 140.229 103.312C140.229 102.677 140.138 102.077 139.961 101.517C139.783 100.957 139.523 100.46 139.176 100.031ZM139.35 104.845C139.2 105.338 138.982 105.775 138.695 106.156C138.407 106.538 138.052 106.844 137.626 107.066C137.2 107.292 136.711 107.404 136.163 107.404C135.615 107.404 135.122 107.292 134.7 107.066C134.274 106.84 133.919 106.538 133.631 106.156C133.343 105.775 133.126 105.338 132.976 104.845C132.826 104.353 132.752 103.841 132.752 103.308C132.752 102.776 132.826 102.264 132.976 101.771C133.126 101.278 133.343 100.841 133.631 100.46C133.919 100.079 134.274 99.7729 134.7 99.5505C135.126 99.324 135.615 99.2128 136.163 99.2128C136.711 99.2128 137.204 99.324 137.626 99.5505C138.052 99.7769 138.407 100.079 138.695 100.46C138.982 100.841 139.2 101.278 139.35 101.771C139.5 102.264 139.574 102.776 139.574 103.308C139.574 103.841 139.5 104.353 139.35 104.845Z" fill="#ADADAD"/>
<path d="M137.62 94.5551L135.582 97.4735H136.212L138.487 94.5551H137.62Z" fill="#ADADAD"/>
<path d="M137.62 94.5551L135.582 97.4735H136.212L138.487 94.5551H137.62Z" fill="#ADADAD"/>
<path d="M148.845 100.757H148.807C148.541 100.082 148.096 99.5606 147.472 99.1903C146.848 98.824 146.166 98.6408 145.426 98.6408C144.773 98.6408 144.194 98.7629 143.691 99.0071C143.188 99.2513 142.768 99.5769 142.427 99.9839C142.086 100.395 141.828 100.871 141.654 101.417C141.479 101.962 141.391 102.536 141.391 103.142C141.391 103.781 141.474 104.375 141.636 104.921C141.799 105.466 142.049 105.942 142.382 106.353C142.714 106.765 143.134 107.082 143.637 107.314C144.141 107.546 144.736 107.66 145.426 107.66C146.225 107.66 146.907 107.481 147.472 107.127C148.034 106.773 148.483 106.256 148.807 105.58H148.845V107.68C148.845 108.071 148.795 108.462 148.691 108.844C148.587 109.231 148.408 109.573 148.155 109.874C147.901 110.175 147.556 110.423 147.127 110.611C146.699 110.802 146.162 110.896 145.517 110.896C145.13 110.896 144.765 110.855 144.428 110.769C144.087 110.688 143.783 110.554 143.509 110.371C143.234 110.187 143.013 109.951 142.847 109.666C142.676 109.382 142.573 109.04 142.539 108.637H141.849C141.874 109.17 141.986 109.618 142.185 109.98C142.385 110.342 142.647 110.631 142.976 110.851C143.3 111.071 143.683 111.229 144.12 111.331C144.557 111.433 145.022 111.482 145.517 111.482C146.316 111.482 146.973 111.372 147.493 111.152C148.013 110.932 148.421 110.639 148.716 110.273C149.011 109.907 149.219 109.483 149.34 109.003C149.461 108.523 149.523 108.026 149.523 107.517V98.8565H148.849V100.761L148.845 100.757ZM148.621 104.628C148.484 105.096 148.267 105.515 147.984 105.881C147.701 106.248 147.343 106.541 146.919 106.752C146.494 106.964 146 107.074 145.43 107.074C144.86 107.074 144.403 106.972 143.987 106.765C143.571 106.557 143.217 106.276 142.934 105.918C142.651 105.564 142.44 105.145 142.298 104.664C142.161 104.184 142.09 103.675 142.09 103.142C142.09 102.658 142.161 102.178 142.298 101.71C142.435 101.242 142.644 100.822 142.918 100.456C143.193 100.09 143.537 99.7926 143.953 99.5688C144.373 99.3449 144.864 99.231 145.434 99.231C146.004 99.231 146.499 99.3368 146.924 99.5525C147.348 99.7641 147.701 100.053 147.988 100.415C148.271 100.778 148.483 101.197 148.625 101.669C148.762 102.145 148.833 102.633 148.833 103.146C148.833 103.659 148.762 104.164 148.625 104.632L148.621 104.628Z" fill="#ADADAD"/>
<path d="M148.845 100.757H148.807C148.541 100.082 148.096 99.5606 147.472 99.1903C146.848 98.824 146.166 98.6408 145.426 98.6408C144.773 98.6408 144.194 98.7629 143.691 99.0071C143.188 99.2513 142.768 99.5769 142.427 99.9839C142.086 100.395 141.828 100.871 141.654 101.417C141.479 101.962 141.391 102.536 141.391 103.142C141.391 103.781 141.474 104.375 141.636 104.921C141.799 105.466 142.049 105.942 142.382 106.353C142.714 106.765 143.134 107.082 143.637 107.314C144.141 107.546 144.736 107.66 145.426 107.66C146.225 107.66 146.907 107.481 147.472 107.127C148.034 106.773 148.483 106.256 148.807 105.58H148.845V107.68C148.845 108.071 148.795 108.462 148.691 108.844C148.587 109.231 148.408 109.573 148.155 109.874C147.901 110.175 147.556 110.423 147.127 110.611C146.699 110.802 146.162 110.896 145.517 110.896C145.13 110.896 144.765 110.855 144.428 110.769C144.087 110.688 143.783 110.554 143.509 110.371C143.234 110.187 143.013 109.951 142.847 109.666C142.676 109.382 142.573 109.04 142.539 108.637H141.849C141.874 109.17 141.986 109.618 142.185 109.98C142.385 110.342 142.647 110.631 142.976 110.851C143.3 111.071 143.683 111.229 144.12 111.331C144.557 111.433 145.022 111.482 145.517 111.482C146.316 111.482 146.973 111.372 147.493 111.152C148.013 110.932 148.421 110.639 148.716 110.273C149.011 109.907 149.219 109.483 149.34 109.003C149.461 108.523 149.523 108.026 149.523 107.517V98.8565H148.849V100.761L148.845 100.757ZM148.621 104.628C148.484 105.096 148.267 105.515 147.984 105.881C147.701 106.248 147.343 106.541 146.919 106.752C146.494 106.964 146 107.074 145.43 107.074C144.86 107.074 144.403 106.972 143.987 106.765C143.571 106.557 143.217 106.276 142.934 105.918C142.651 105.564 142.44 105.145 142.298 104.664C142.161 104.184 142.09 103.675 142.09 103.142C142.09 102.658 142.161 102.178 142.298 101.71C142.435 101.242 142.644 100.822 142.918 100.456C143.193 100.09 143.537 99.7926 143.953 99.5688C144.373 99.3449 144.864 99.231 145.434 99.231C146.004 99.231 146.499 99.3368 146.924 99.5525C147.348 99.7641 147.701 100.053 147.988 100.415C148.271 100.778 148.483 101.197 148.625 101.669C148.762 102.145 148.833 102.633 148.833 103.146C148.833 103.659 148.762 104.164 148.625 104.632L148.621 104.628Z" fill="#ADADAD"/>
<path d="M152.427 95.1388H151.847V96.8898H152.427V95.1388Z" fill="#ADADAD"/>
<path d="M152.427 95.1388H151.847V96.8898H152.427V95.1388Z" fill="#ADADAD"/>
<path d="M152.427 98.6408H151.847V107.98H152.427V98.6408Z" fill="#ADADAD"/>
<path d="M152.427 98.6408H151.847V107.98H152.427V98.6408Z" fill="#ADADAD"/>
<path d="M161.259 105.758C161.078 106.1 160.848 106.39 160.569 106.636C160.286 106.879 159.965 107.07 159.6 107.209C159.234 107.348 158.836 107.415 158.405 107.415C157.805 107.415 157.288 107.312 156.844 107.101C156.4 106.895 156.031 106.601 155.731 106.223C155.431 105.846 155.209 105.404 155.065 104.896C154.921 104.387 154.852 103.831 154.852 103.227C154.852 102.718 154.93 102.221 155.086 101.74C155.242 101.26 155.468 100.83 155.768 100.457C156.068 100.079 156.437 99.7813 156.881 99.5548C157.324 99.3283 157.834 99.217 158.405 99.217C158.823 99.217 159.214 99.2687 159.579 99.372C159.945 99.4753 160.265 99.6264 160.54 99.8251C160.815 100.024 161.041 100.27 161.214 100.572C161.386 100.874 161.494 101.22 161.527 101.613H162.208C162.159 101.117 162.028 100.679 161.814 100.302C161.601 99.9244 161.321 99.6144 160.98 99.372C160.639 99.1296 160.249 98.9468 159.814 98.8236C159.378 98.7004 158.906 98.6408 158.405 98.6408C157.723 98.6408 157.119 98.764 156.593 99.0064C156.067 99.2488 155.624 99.5787 155.267 99.9959C154.91 100.413 154.634 100.898 154.449 101.454C154.265 102.011 154.17 102.599 154.17 103.227C154.17 103.855 154.252 104.451 154.412 105.023C154.573 105.595 154.827 106.104 155.168 106.541C155.509 106.982 155.944 107.332 156.478 107.59C157.012 107.852 157.653 107.98 158.409 107.98C158.898 107.98 159.366 107.904 159.809 107.753C160.253 107.602 160.647 107.387 160.992 107.101C161.337 106.819 161.625 106.469 161.855 106.052C162.081 105.635 162.233 105.162 162.302 104.63H161.62C161.559 105.035 161.44 105.408 161.263 105.75L161.259 105.758Z" fill="#ADADAD"/>
<path d="M161.259 105.758C161.078 106.1 160.848 106.39 160.569 106.636C160.286 106.879 159.965 107.07 159.6 107.209C159.234 107.348 158.836 107.415 158.405 107.415C157.805 107.415 157.288 107.312 156.844 107.101C156.4 106.895 156.031 106.601 155.731 106.223C155.431 105.846 155.209 105.404 155.065 104.896C154.921 104.387 154.852 103.831 154.852 103.227C154.852 102.718 154.93 102.221 155.086 101.74C155.242 101.26 155.468 100.83 155.768 100.457C156.068 100.079 156.437 99.7813 156.881 99.5548C157.324 99.3283 157.834 99.217 158.405 99.217C158.823 99.217 159.214 99.2687 159.579 99.372C159.945 99.4753 160.265 99.6264 160.54 99.8251C160.815 100.024 161.041 100.27 161.214 100.572C161.386 100.874 161.494 101.22 161.527 101.613H162.208C162.159 101.117 162.028 100.679 161.814 100.302C161.601 99.9244 161.321 99.6144 160.98 99.372C160.639 99.1296 160.249 98.9468 159.814 98.8236C159.378 98.7004 158.906 98.6408 158.405 98.6408C157.723 98.6408 157.119 98.764 156.593 99.0064C156.067 99.2488 155.624 99.5787 155.267 99.9959C154.91 100.413 154.634 100.898 154.449 101.454C154.265 102.011 154.17 102.599 154.17 103.227C154.17 103.855 154.252 104.451 154.412 105.023C154.573 105.595 154.827 106.104 155.168 106.541C155.509 106.982 155.944 107.332 156.478 107.59C157.012 107.852 157.653 107.98 158.409 107.98C158.898 107.98 159.366 107.904 159.809 107.753C160.253 107.602 160.647 107.387 160.992 107.101C161.337 106.819 161.625 106.469 161.855 106.052C162.081 105.635 162.233 105.162 162.302 104.63H161.62C161.559 105.035 161.44 105.408 161.263 105.75L161.259 105.758Z" fill="#ADADAD"/>
<path d="M171.049 100.031C170.681 99.6021 170.225 99.2645 169.684 99.0142C169.143 98.764 168.522 98.6408 167.821 98.6408C167.12 98.6408 166.498 98.764 165.957 99.0142C165.416 99.2645 164.96 99.6021 164.593 100.031C164.225 100.46 163.942 100.953 163.752 101.517C163.562 102.077 163.464 102.677 163.464 103.312C163.464 103.948 163.562 104.552 163.752 105.116C163.942 105.684 164.221 106.176 164.593 106.601C164.96 107.022 165.416 107.36 165.957 107.606C166.498 107.856 167.12 107.98 167.821 107.98C168.522 107.98 169.143 107.856 169.684 107.606C170.225 107.356 170.681 107.022 171.049 106.601C171.417 106.18 171.7 105.684 171.89 105.116C172.08 104.548 172.177 103.948 172.177 103.312C172.177 102.677 172.08 102.077 171.89 101.517C171.7 100.957 171.421 100.46 171.049 100.031ZM171.235 104.845C171.075 105.338 170.842 105.775 170.533 106.156C170.225 106.538 169.845 106.844 169.388 107.066C168.932 107.292 168.408 107.404 167.821 107.404C167.234 107.404 166.705 107.292 166.253 107.066C165.797 106.84 165.417 106.538 165.108 106.156C164.8 105.775 164.567 105.338 164.406 104.845C164.246 104.353 164.166 103.841 164.166 103.308C164.166 102.776 164.246 102.264 164.406 101.771C164.567 101.278 164.8 100.841 165.108 100.46C165.417 100.079 165.797 99.7729 166.253 99.5505C166.71 99.324 167.234 99.2128 167.821 99.2128C168.408 99.2128 168.936 99.324 169.388 99.5505C169.845 99.7769 170.225 100.079 170.533 100.46C170.842 100.841 171.075 101.278 171.235 101.771C171.396 102.264 171.476 102.776 171.476 103.308C171.476 103.841 171.396 104.353 171.235 104.845Z" fill="#ADADAD"/>
<path d="M171.049 100.031C170.681 99.6021 170.225 99.2645 169.684 99.0142C169.143 98.764 168.522 98.6408 167.821 98.6408C167.12 98.6408 166.498 98.764 165.957 99.0142C165.416 99.2645 164.96 99.6021 164.593 100.031C164.225 100.46 163.942 100.953 163.752 101.517C163.562 102.077 163.464 102.677 163.464 103.312C163.464 103.948 163.562 104.552 163.752 105.116C163.942 105.684 164.221 106.176 164.593 106.601C164.96 107.022 165.416 107.36 165.957 107.606C166.498 107.856 167.12 107.98 167.821 107.98C168.522 107.98 169.143 107.856 169.684 107.606C170.225 107.356 170.681 107.022 171.049 106.601C171.417 106.18 171.7 105.684 171.89 105.116C172.08 104.548 172.177 103.948 172.177 103.312C172.177 102.677 172.08 102.077 171.89 101.517C171.7 100.957 171.421 100.46 171.049 100.031ZM171.235 104.845C171.075 105.338 170.842 105.775 170.533 106.156C170.225 106.538 169.845 106.844 169.388 107.066C168.932 107.292 168.408 107.404 167.821 107.404C167.234 107.404 166.705 107.292 166.253 107.066C165.797 106.84 165.417 106.538 165.108 106.156C164.8 105.775 164.567 105.338 164.406 104.845C164.246 104.353 164.166 103.841 164.166 103.308C164.166 102.776 164.246 102.264 164.406 101.771C164.567 101.278 164.8 100.841 165.108 100.46C165.417 100.079 165.797 99.7729 166.253 99.5505C166.71 99.324 167.234 99.2128 167.821 99.2128C168.408 99.2128 168.936 99.324 169.388 99.5505C169.845 99.7769 170.225 100.079 170.533 100.46C170.842 100.841 171.075 101.278 171.235 101.771C171.396 102.264 171.476 102.776 171.476 103.308C171.476 103.841 171.396 104.353 171.235 104.845Z" fill="#ADADAD"/>
<path d="M45.6957 66.4452C43.6608 66.61 41.675 66.4781 39.7552 66.1236L39.8422 65.7733C30.1572 63.9925 22.478 55.8967 21.6229 45.5791C21.1913 40.1215 22.7408 34.9647 25.68 30.8303L25.327 30.6613C29.0719 25.3479 35.0483 21.6669 42.0243 21.098C45.5883 20.8054 49.0294 21.3577 52.1454 22.5902L53.9667 18.9216C50.2012 17.3716 46.0242 16.6668 41.6874 17.013C26.9503 18.2414 15.9951 31.1642 17.1708 45.9501C18.3958 60.7278 31.2834 71.7132 46.0287 70.5384C52.1907 70.0231 57.6742 67.4427 61.9042 63.5597L61.9579 63.6092C62.9445 62.6693 63.8694 61.647 64.7162 60.5506L61.6249 57.9248C57.8553 62.6817 52.2112 65.9217 45.6957 66.4493V66.4452Z" fill="#ADADAD"/>
<path d="M45.6957 66.4452C43.6608 66.61 41.675 66.4781 39.7552 66.1236L39.8422 65.7733C30.1572 63.9925 22.478 55.8967 21.6229 45.5791C21.1913 40.1215 22.7408 34.9647 25.68 30.8303L25.327 30.6613C29.0719 25.3479 35.0483 21.6669 42.0243 21.098C45.5883 20.8054 49.0294 21.3577 52.1454 22.5902L53.9667 18.9216C50.2012 17.3716 46.0242 16.6668 41.6874 17.013C26.9503 18.2414 15.9951 31.1642 17.1708 45.9501C18.3958 60.7278 31.2834 71.7132 46.0287 70.5384C52.1907 70.0231 57.6742 67.4427 61.9042 63.5597L61.9579 63.6092C62.9445 62.6693 63.8694 61.647 64.7162 60.5506L61.6249 57.9248C57.8553 62.6817 52.2112 65.9217 45.6957 66.4493V66.4452Z" fill="#ADADAD"/>
<path d="M24.1234 45.0752C24.8617 54.2115 31.6782 61.3865 40.2338 62.8761L40.2704 62.7313C41.8453 63.0085 43.4694 63.1119 45.1346 62.9795C47.251 62.8016 49.261 62.2885 51.1107 61.4982L49.0887 55.9701C47.8173 56.5783 46.6277 56.8349 45.2045 56.9797L45.2167 57.0459C45.0116 57.0749 44.8067 57.1121 44.5975 57.1286C37.1739 57.7369 30.6689 52.1633 30.0619 44.6655C29.6886 40.0353 31.6617 35.7568 34.9715 33.0258C31.7109 35.7568 29.7752 39.9981 30.1361 44.5869C30.7513 52.0681 37.2393 57.6252 44.6547 57.0335C44.8433 57.0211 45.024 57.0045 45.2045 56.9838L44.5482 53.806C44.4867 53.8142 44.4254 53.8184 44.3597 53.8267C38.7162 54.2901 33.7654 50.0488 33.306 44.3469C32.8467 38.6533 37.0509 33.6589 42.6986 33.1955C46.2668 32.9017 49.5558 34.4865 51.6024 37.1306L54.0389 35.1609C51.3443 31.6107 47.161 29.6121 42.4115 30.0011C39.7989 30.2162 37.4157 31.1721 35.4593 32.641C37.428 31.139 39.8317 30.1625 42.473 29.9432C45.4219 29.7032 48.2276 30.4562 50.5736 31.9086L54.2601 27.1874C50.7657 24.8495 46.4969 23.633 41.9935 23.993C36.2351 24.4771 31.2881 27.4563 28.0726 31.7721L27.9374 31.7059C25.1935 35.4092 23.7212 40.1056 24.119 45.0793L24.1234 45.0752Z" fill="#ADADAD"/>
<path d="M24.1234 45.0752C24.8617 54.2115 31.6782 61.3865 40.2338 62.8761L40.2704 62.7313C41.8453 63.0085 43.4694 63.1119 45.1346 62.9795C47.251 62.8016 49.261 62.2885 51.1107 61.4982L49.0887 55.9701C47.8173 56.5783 46.6277 56.8349 45.2045 56.9797L45.2167 57.0459C45.0116 57.0749 44.8067 57.1121 44.5975 57.1286C37.1739 57.7369 30.6689 52.1633 30.0619 44.6655C29.6886 40.0353 31.6617 35.7568 34.9715 33.0258C31.7109 35.7568 29.7752 39.9981 30.1361 44.5869C30.7513 52.0681 37.2393 57.6252 44.6547 57.0335C44.8433 57.0211 45.024 57.0045 45.2045 56.9838L44.5482 53.806C44.4867 53.8142 44.4254 53.8184 44.3597 53.8267C38.7162 54.2901 33.7654 50.0488 33.306 44.3469C32.8467 38.6533 37.0509 33.6589 42.6986 33.1955C46.2668 32.9017 49.5558 34.4865 51.6024 37.1306L54.0389 35.1609C51.3443 31.6107 47.161 29.6121 42.4115 30.0011C39.7989 30.2162 37.4157 31.1721 35.4593 32.641C37.428 31.139 39.8317 30.1625 42.473 29.9432C45.4219 29.7032 48.2276 30.4562 50.5736 31.9086L54.2601 27.1874C50.7657 24.8495 46.4969 23.633 41.9935 23.993C36.2351 24.4771 31.2881 27.4563 28.0726 31.7721L27.9374 31.7059C25.1935 35.4092 23.7212 40.1056 24.119 45.0793L24.1234 45.0752Z" fill="#ADADAD"/>
<path d="M66.3793 41.6345C65.6554 32.6429 59.8885 25.2913 52.1263 22.2016L51.9432 22.5743C48.9005 21.3691 45.5589 20.8017 42.0868 21.0833C35.2898 21.6507 29.462 25.2623 25.7977 30.4809L28.3046 31.6944C31.5272 27.3249 36.5206 24.3304 42.3075 23.85C46.8347 23.4772 51.1125 24.7197 54.6214 27.0764L54.5521 27.1634C59.3206 30.3649 62.641 35.6663 63.1522 41.8955C63.8311 50.5393 58.883 58.3091 51.4071 61.5107L51.4476 61.6184C49.5827 62.4136 47.5792 62.9355 45.4608 63.1135C43.7881 63.2544 42.1441 63.1715 40.5614 62.894L39.8905 65.5861C41.7554 65.934 43.7019 66.0417 45.6854 65.8844C52.0612 65.3459 57.5622 62.1278 61.2469 57.427L61.5619 57.6962C65.0013 53.3142 66.8658 47.6525 66.3832 41.6304L66.3793 41.6345Z" fill="#ADADAD"/>
<path d="M66.3793 41.6345C65.6554 32.6429 59.8885 25.2913 52.1263 22.2016L51.9432 22.5743C48.9005 21.3691 45.5589 20.8017 42.0868 21.0833C35.2898 21.6507 29.462 25.2623 25.7977 30.4809L28.3046 31.6944C31.5272 27.3249 36.5206 24.3304 42.3075 23.85C46.8347 23.4772 51.1125 24.7197 54.6214 27.0764L54.5521 27.1634C59.3206 30.3649 62.641 35.6663 63.1522 41.8955C63.8311 50.5393 58.883 58.3091 51.4071 61.5107L51.4476 61.6184C49.5827 62.4136 47.5792 62.9355 45.4608 63.1135C43.7881 63.2544 42.1441 63.1715 40.5614 62.894L39.8905 65.5861C41.7554 65.934 43.7019 66.0417 45.6854 65.8844C52.0612 65.3459 57.5622 62.1278 61.2469 57.427L61.5619 57.6962C65.0013 53.3142 66.8658 47.6525 66.3832 41.6304L66.3793 41.6345Z" fill="#ADADAD"/>
<path d="M17.1478 45.7002C15.9508 30.8184 26.9581 17.7788 41.7499 16.5659C46.1018 16.2099 50.281 16.9427 54.0653 18.5033L54.0409 18.5529C56.6899 19.6416 59.133 21.1484 61.2884 22.9947L63.0204 20.3785C57.2205 15.5311 49.6105 12.8652 41.4989 13.5234C28.9654 14.5458 18.8755 23.2141 15.3627 34.602L15.535 34.6558C14.4409 38.2076 13.9638 42.0077 14.2723 45.9403C15.6174 62.2294 29.6358 74.3583 45.7767 73.369L45.785 73.5429C45.9701 73.5346 46.1554 73.518 46.3446 73.5015C53.4279 72.9178 59.3595 70.0491 64.1351 65.4831L62.0331 63.434C57.8374 67.437 52.4361 69.9373 46.1014 70.4589C31.3138 71.6676 18.3572 60.586 17.1478 45.7002Z" fill="#ADADAD"/>
<path d="M17.1478 45.7002C15.9508 30.8184 26.9581 17.7788 41.7499 16.5659C46.1018 16.2099 50.281 16.9427 54.0653 18.5033L54.0409 18.5529C56.6899 19.6416 59.133 21.1484 61.2884 22.9947L63.0204 20.3785C57.2205 15.5311 49.6105 12.8652 41.4989 13.5234C28.9654 14.5458 18.8755 23.2141 15.3627 34.602L15.535 34.6558C14.4409 38.2076 13.9638 42.0077 14.2723 45.9403C15.6174 62.2294 29.6358 74.3583 45.7767 73.369L45.785 73.5429C45.9701 73.5346 46.1554 73.518 46.3446 73.5015C53.4279 72.9178 59.3595 70.0491 64.1351 65.4831L62.0331 63.434C57.8374 67.437 52.4361 69.9373 46.1014 70.4589C31.3138 71.6676 18.3572 60.586 17.1478 45.7002Z" fill="#ADADAD"/>
<path d="M14.0516 46.1645C13.7384 42.2258 14.186 38.4028 15.2762 34.8481L12.1722 33.8531C10.9599 37.8082 10.4511 42.0524 10.805 46.437C12.2614 64.5615 27.7451 78.0991 45.5472 76.9803L45.368 73.6857C29.3233 74.7054 15.3655 62.5013 14.0555 46.1645H14.0516Z" fill="#ADADAD"/>
<path d="M14.0516 46.1645C13.7384 42.2258 14.186 38.4028 15.2762 34.8481L12.1722 33.8531C10.9599 37.8082 10.4511 42.0524 10.805 46.437C12.2614 64.5615 27.7451 78.0991 45.5472 76.9803L45.368 73.6857C29.3233 74.7054 15.3655 62.5013 14.0555 46.1645H14.0516Z" fill="#ADADAD"/>
<path d="M76.9144 25.5484C74.8999 21.898 72.3054 18.6252 69.2631 15.8576L68.9344 16.1409C61.5548 9.44357 51.5358 5.68631 40.8055 6.54042C33.1175 7.17689 26.1733 10.0883 20.5697 14.5559L23.3861 17.5863C28.3278 13.7223 34.4123 11.2011 41.1341 10.6467C54.7053 9.57086 67.0061 16.7692 73.0702 28.0163L76.9056 25.5484H76.9144Z" fill="#ADADAD"/>
<path d="M76.9144 25.5484C74.8999 21.898 72.3054 18.6252 69.2631 15.8576L68.9344 16.1409C61.5548 9.44357 51.5358 5.68631 40.8055 6.54042C33.1175 7.17689 26.1733 10.0883 20.5697 14.5559L23.3861 17.5863C28.3278 13.7223 34.4123 11.2011 41.1341 10.6467C54.7053 9.57086 67.0061 16.7692 73.0702 28.0163L76.9056 25.5484H76.9144Z" fill="#ADADAD"/>
<path d="M46.6869 81.0153C48.7689 80.8424 50.7981 80.4924 52.7606 80.0025L52.8964 80.406C54.9784 79.8831 56.9858 79.1956 58.9071 78.3476L56.9735 74.2184C53.6917 75.6511 50.1256 76.5856 46.3573 76.8985C33.0032 77.9565 20.8777 71.0279 14.681 60.1184L11.2757 62.4938C18.3012 74.5642 31.8244 82.1886 46.6957 81.0111L46.6869 81.0153Z" fill="#ADADAD"/>
<path d="M46.6869 81.0153C48.7689 80.8424 50.7981 80.4924 52.7606 80.0025L52.8964 80.406C54.9784 79.8831 56.9858 79.1956 58.9071 78.3476L56.9735 74.2184C53.6917 75.6511 50.1256 76.5856 46.3573 76.8985C33.0032 77.9565 20.8777 71.0279 14.681 60.1184L11.2757 62.4938C18.3012 74.5642 31.8244 82.1886 46.6957 81.0111L46.6869 81.0153Z" fill="#ADADAD"/>
<path d="M40.5926 5.82341C51.4545 4.93873 61.6056 8.75726 69.0687 15.5755L69.9437 14.806C68.0409 13.0613 65.9697 11.5018 63.7587 10.1604L63.6727 10.2756C56.9534 6.20197 48.9436 4.11989 40.5106 4.79471C19.1732 6.56819 3.3097 25.2576 5.0111 46.6257C6.78236 67.9897 25.4482 83.8728 46.7938 82.1734C47.6486 82.1034 48.4874 81.9923 49.3216 81.8689L49.3544 81.9964C50.6695 81.803 51.9641 81.5397 53.2298 81.2187L52.8641 80.1242C50.8792 80.6303 48.8241 80.9718 46.7118 81.1447C31.7362 82.3626 18.1006 74.6556 11.0155 62.4676L11.3685 62.2207C8.66025 57.5628 6.92218 52.2424 6.44957 46.5105C5.42627 33.6312 11.0276 21.7641 20.4017 14.267L20.1063 13.9501C25.7776 9.41151 32.8089 6.45709 40.5926 5.82341Z" fill="#ADADAD"/>
<path d="M40.5926 5.82341C51.4545 4.93873 61.6056 8.75726 69.0687 15.5755L69.9437 14.806C68.0409 13.0613 65.9697 11.5018 63.7587 10.1604L63.6727 10.2756C56.9534 6.20197 48.9436 4.11989 40.5106 4.79471C19.1732 6.56819 3.3097 25.2576 5.0111 46.6257C6.78236 67.9897 25.4482 83.8728 46.7938 82.1734C47.6486 82.1034 48.4874 81.9923 49.3216 81.8689L49.3544 81.9964C50.6695 81.803 51.9641 81.5397 53.2298 81.2187L52.8641 80.1242C50.8792 80.6303 48.8241 80.9718 46.7118 81.1447C31.7362 82.3626 18.1006 74.6556 11.0155 62.4676L11.3685 62.2207C8.66025 57.5628 6.92218 52.2424 6.44957 46.5105C5.42627 33.6312 11.0276 21.7641 20.4017 14.267L20.1063 13.9501C25.7776 9.41151 32.8089 6.45709 40.5926 5.82341Z" fill="#ADADAD"/>
<path d="M4.81627 46.6484C3.07692 25.1677 19.027 6.34282 40.4462 4.59022C48.9168 3.90156 56.9683 5.98818 63.7201 10.0913L66.4584 6.54076C58.843 1.79432 49.7063 -0.638696 40.0843 0.144817C16.2186 2.09123 -1.55307 23.0729 0.383656 47.0071C2.32449 70.9414 23.2459 88.7684 47.1117 86.822C48.2342 86.7312 49.3402 86.5828 50.4339 86.4137L49.3031 82.0838C48.4601 82.2116 47.6093 82.3106 46.7499 82.3807C25.3307 84.125 6.55583 68.1249 4.81237 46.6443L4.81627 46.6484Z" fill="#ADADAD"/>
<path d="M4.81627 46.6484C3.07692 25.1677 19.027 6.34282 40.4462 4.59022C48.9168 3.90156 56.9683 5.98818 63.7201 10.0913L66.4584 6.54076C58.843 1.79432 49.7063 -0.638696 40.0843 0.144817C16.2186 2.09123 -1.55307 23.0729 0.383656 47.0071C2.32449 70.9414 23.2459 88.7684 47.1117 86.822C48.2342 86.7312 49.3402 86.5828 50.4339 86.4137L49.3031 82.0838C48.4601 82.2116 47.6093 82.3106 46.7499 82.3807C25.3307 84.125 6.55583 68.1249 4.81237 46.6443L4.81627 46.6484Z" fill="#ADADAD"/>
<path d="M53.6415 42.7794C53.477 40.7263 52.715 38.8599 51.5394 37.3465L50.7806 37.9632C48.9551 35.622 46.0427 34.2141 42.8812 34.4657C37.8701 34.8876 34.1387 39.3265 34.5399 44.4023C34.9572 49.4742 39.3506 53.2435 44.3617 52.8378C44.3938 52.8378 44.4301 52.8297 44.4662 52.8256L44.6424 53.698C50.0708 53.1543 54.0912 48.3056 53.6459 42.7794H53.6415Z" fill="#ADADAD"/>
<path d="M53.6415 42.7794C53.477 40.7263 52.715 38.8599 51.5394 37.3465L50.7806 37.9632C48.9551 35.622 46.0427 34.2141 42.8812 34.4657C37.8701 34.8876 34.1387 39.3265 34.5399 44.4023C34.9572 49.4742 39.3506 53.2435 44.3617 52.8378C44.3938 52.8378 44.4301 52.8297 44.4662 52.8256L44.6424 53.698C50.0708 53.1543 54.0912 48.3056 53.6459 42.7794H53.6415Z" fill="#ADADAD"/>
<path d="M71.1053 71.7918H78.6561V45.9896H78.7591L87.7497 71.7918H93.9646L102.951 45.7339H103.053V71.7918H110.605V35.0204H99.2532L91.1389 60.3072H91.0359L82.4569 35.0204H71.1053V71.7918Z" fill="#ADADAD"/>
<path d="M71.1053 71.7918H78.6561V45.9896H78.7591L87.7497 71.7918H93.9646L102.951 45.7339H103.053V71.7918H110.605V35.0204H99.2532L91.1389 60.3072H91.0359L82.4569 35.0204H71.1053V71.7918Z" fill="#ADADAD"/>
<path d="M123.965 45.5265H116.994V71.7918H123.965V45.5265Z" fill="#ADADAD"/>
<path d="M123.965 45.5265H116.994V71.7918H123.965V45.5265Z" fill="#ADADAD"/>
<path d="M123.965 35.0204H116.994V41.4408H123.965V35.0204Z" fill="#ADADAD"/>
<path d="M123.965 35.0204H116.994V41.4408H123.965V35.0204Z" fill="#ADADAD"/>
<path d="M145.943 51.2504C146.433 51.3001 146.848 51.3621 147.2 51.4324V44.6156C146.605 44.4419 146.064 44.3592 145.578 44.3592C144.635 44.3592 143.729 44.4957 142.858 44.7728C141.986 45.05 141.164 45.4346 140.397 45.9352C139.63 46.4357 138.947 47.0396 138.356 47.7428C137.761 48.4501 137.292 49.2153 136.944 50.0426H136.839V45.0831H129.774V71.7918H137.204V59.7549C137.204 58.5512 137.326 57.4302 137.569 56.3961C137.812 55.362 138.223 54.4603 138.797 53.6826C139.371 52.9091 140.13 52.297 141.072 51.8502C142.015 51.4035 143.168 51.1801 144.526 51.1801C144.979 51.1801 145.452 51.2049 145.938 51.2587L145.943 51.2504Z" fill="#ADADAD"/>
<path d="M145.943 51.2504C146.433 51.3001 146.848 51.3621 147.2 51.4324V44.6156C146.605 44.4419 146.064 44.3592 145.578 44.3592C144.635 44.3592 143.729 44.4957 142.858 44.7728C141.986 45.05 141.164 45.4346 140.397 45.9352C139.63 46.4357 138.947 47.0396 138.356 47.7428C137.761 48.4501 137.292 49.2153 136.944 50.0426H136.839V45.0831H129.774V71.7918H137.204V59.7549C137.204 58.5512 137.326 57.4302 137.569 56.3961C137.812 55.362 138.223 54.4603 138.797 53.6826C139.371 52.9091 140.13 52.297 141.072 51.8502C142.015 51.4035 143.168 51.1801 144.526 51.1801C144.979 51.1801 145.452 51.2049 145.938 51.2587L145.943 51.2504Z" fill="#ADADAD"/>
<path d="M166.872 70.4453C166.957 70.8743 167.067 71.295 167.201 71.7074H174.501C174.164 71.1589 173.924 70.334 173.79 69.2369C173.656 68.1399 173.587 66.9892 173.587 65.7849V51.9314C173.587 50.3188 173.234 49.0196 172.524 48.0422C171.813 47.0647 170.899 46.3017 169.787 45.7491C168.67 45.2005 167.436 44.8294 166.084 44.6438C164.732 44.454 163.396 44.3592 162.077 44.3592C160.623 44.3592 159.178 44.5077 157.74 44.7964C156.303 45.0892 155.013 45.5759 153.864 46.2646C152.715 46.9534 151.768 47.8607 151.025 48.9949C150.282 50.1291 149.86 51.552 149.759 53.2718H156.957C157.091 51.8283 157.566 50.8013 158.378 50.1827C159.19 49.5641 160.307 49.2547 161.724 49.2547C162.365 49.2547 162.966 49.3001 163.522 49.3826C164.078 49.4692 164.57 49.6383 164.992 49.8981C165.414 50.1538 165.751 50.5168 166.007 50.9787C166.259 51.4406 166.389 52.0675 166.389 52.8594C166.421 53.6141 166.202 54.1915 165.731 54.5833C165.256 54.9792 164.614 55.2803 163.802 55.4865C162.99 55.6927 162.061 55.8454 161.013 55.9485C159.966 56.0516 158.902 56.1877 157.818 56.3609C156.734 56.5341 155.662 56.7651 154.598 57.0579C153.535 57.3507 152.588 57.7879 151.76 58.3694C150.932 58.9551 150.254 59.7346 149.73 60.712C149.206 61.6895 148.942 62.935 148.942 64.4445C148.942 65.8179 149.17 67.0016 149.629 67.9996C150.083 68.9977 150.721 69.8185 151.529 70.4701C152.341 71.1217 153.287 71.6043 154.367 71.9136C155.447 72.2229 156.616 72.3755 157.867 72.3755C159.491 72.3755 161.079 72.1363 162.634 71.6538C164.189 71.1712 165.54 70.334 166.689 69.1297C166.722 69.5751 166.783 70.0123 166.868 70.4412L166.872 70.4453ZM166.393 61.4049C166.393 61.8173 166.348 62.3659 166.267 63.0546C166.182 63.7434 165.954 64.4197 165.581 65.0879C165.207 65.756 164.635 66.3334 163.855 66.8118C163.076 67.2944 161.979 67.5336 160.558 67.5336C159.982 67.5336 159.425 67.4841 158.885 67.381C158.345 67.2779 157.871 67.0964 157.465 66.8407C157.059 66.585 156.738 66.2303 156.502 65.7849C156.267 65.3395 156.149 64.7909 156.149 64.1352C156.149 63.4505 156.267 62.8814 156.502 62.436C156.738 61.9905 157.05 61.6194 157.44 61.3265C157.83 61.0337 158.285 60.8027 158.808 60.6295C159.332 60.4563 159.864 60.3202 160.404 60.2171C160.977 60.114 161.553 60.0274 162.13 59.9614C162.702 59.8913 163.254 59.8088 163.778 59.7057C164.302 59.6026 164.793 59.4747 165.248 59.318C165.703 59.1654 166.084 58.9509 166.389 58.6746V61.4049H166.393Z" fill="#ADADAD"/>
<path d="M166.872 70.4453C166.957 70.8743 167.067 71.295 167.201 71.7074H174.501C174.164 71.1589 173.924 70.334 173.79 69.2369C173.656 68.1399 173.587 66.9892 173.587 65.7849V51.9314C173.587 50.3188 173.234 49.0196 172.524 48.0422C171.813 47.0647 170.899 46.3017 169.787 45.7491C168.67 45.2005 167.436 44.8294 166.084 44.6438C164.732 44.454 163.396 44.3592 162.077 44.3592C160.623 44.3592 159.178 44.5077 157.74 44.7964C156.303 45.0892 155.013 45.5759 153.864 46.2646C152.715 46.9534 151.768 47.8607 151.025 48.9949C150.282 50.1291 149.86 51.552 149.759 53.2718H156.957C157.091 51.8283 157.566 50.8013 158.378 50.1827C159.19 49.5641 160.307 49.2547 161.724 49.2547C162.365 49.2547 162.966 49.3001 163.522 49.3826C164.078 49.4692 164.57 49.6383 164.992 49.8981C165.414 50.1538 165.751 50.5168 166.007 50.9787C166.259 51.4406 166.389 52.0675 166.389 52.8594C166.421 53.6141 166.202 54.1915 165.731 54.5833C165.256 54.9792 164.614 55.2803 163.802 55.4865C162.99 55.6927 162.061 55.8454 161.013 55.9485C159.966 56.0516 158.902 56.1877 157.818 56.3609C156.734 56.5341 155.662 56.7651 154.598 57.0579C153.535 57.3507 152.588 57.7879 151.76 58.3694C150.932 58.9551 150.254 59.7346 149.73 60.712C149.206 61.6895 148.942 62.935 148.942 64.4445C148.942 65.8179 149.17 67.0016 149.629 67.9996C150.083 68.9977 150.721 69.8185 151.529 70.4701C152.341 71.1217 153.287 71.6043 154.367 71.9136C155.447 72.2229 156.616 72.3755 157.867 72.3755C159.491 72.3755 161.079 72.1363 162.634 71.6538C164.189 71.1712 165.54 70.334 166.689 69.1297C166.722 69.5751 166.783 70.0123 166.868 70.4412L166.872 70.4453ZM166.393 61.4049C166.393 61.8173 166.348 62.3659 166.267 63.0546C166.182 63.7434 165.954 64.4197 165.581 65.0879C165.207 65.756 164.635 66.3334 163.855 66.8118C163.076 67.2944 161.979 67.5336 160.558 67.5336C159.982 67.5336 159.425 67.4841 158.885 67.381C158.345 67.2779 157.871 67.0964 157.465 66.8407C157.059 66.585 156.738 66.2303 156.502 65.7849C156.267 65.3395 156.149 64.7909 156.149 64.1352C156.149 63.4505 156.267 62.8814 156.502 62.436C156.738 61.9905 157.05 61.6194 157.44 61.3265C157.83 61.0337 158.285 60.8027 158.808 60.6295C159.332 60.4563 159.864 60.3202 160.404 60.2171C160.977 60.114 161.553 60.0274 162.13 59.9614C162.702 59.8913 163.254 59.8088 163.778 59.7057C164.302 59.6026 164.793 59.4747 165.248 59.318C165.703 59.1654 166.084 58.9509 166.389 58.6746V61.4049H166.393Z" fill="#ADADAD"/>
</g>
</svg>
