<svg width="159" height="87" viewBox="0 0 159 87" fill="none" xmlns="http://www.w3.org/2000/svg">
<g id="Vector">
<path d="M135.958 1.19979V0H123.733V1.19979C125.08 1.19979 126.005 1.4749 126.629 1.99073L108.156 35.027C106.607 37.801 104.682 39.6427 101.49 39.6427C96.0376 39.6427 97.3998 29.1235 87.5985 26.4259C94.1809 25.165 99.032 20.3009 99.032 13.4728C99.032 5.21946 91.9817 0 84.3415 0H53.8229V1.19979C55.1698 1.19979 56.0944 1.4749 56.7184 1.99073L38.2458 35.027C36.6973 37.801 34.772 39.6427 31.5797 39.6427C31.4732 39.6427 31.3705 39.6427 31.2716 39.6389C31.0661 39.6313 30.8682 39.616 30.6856 39.593C30.678 39.5892 30.6704 39.5892 30.6628 39.5892C28.1021 39.295 27.4933 37.6634 27.4933 35.0575V5.78879C27.4933 2.60973 28.4484 1.20361 31.5797 1.20361V0H19.3548V1.20361C22.7068 1.20361 23.4412 2.88484 23.4412 5.78879V32.9522L8.16092 5.61685C8.19136 2.56006 9.16921 1.20361 12.2435 1.20361V0H0.0185547V1.20361C3.37062 1.20361 4.10496 2.88484 4.10496 5.78879V35.0575C4.10496 38.2213 3.13853 39.6427 0.0185547 39.6427V40.8387H12.2435V39.6427C8.90667 39.6427 8.15712 37.95 8.15712 35.0575V7.97057L23.4412 35.0957C23.4336 38.2328 22.4633 39.6427 19.3548 39.6427V40.8387H40.9435V39.6121C37.4126 39.6121 38.0746 37.4609 39.4444 35.027L45.6272 24.0569C50.5887 24.2785 56.2275 26.808 57.9093 31.6798V35.0499C57.9093 38.229 56.9543 39.6351 53.8229 39.6351V40.8387H78.269V39.6427C74.9245 39.6427 74.1826 37.9538 74.1826 35.0575V34.1481C75.2023 28.5428 78.6495 27.5455 82.5951 27.064C90.6195 27.129 86.9478 40.8654 101.49 40.8387H110.854V39.6121C107.323 39.6121 107.985 37.4609 109.355 35.027L115.537 24.0569C120.499 24.2785 126.138 26.808 127.819 31.6798V35.0499C127.819 38.229 126.864 39.6427 123.733 39.6427V40.8387H135.958V39.6427C132.606 39.6427 131.872 37.9538 131.872 35.0499V5.78497C131.872 2.61737 132.838 1.19979 135.958 1.19979ZM57.9093 29.2152C55.6226 25.2911 50.7219 23.1857 46.2931 22.8762L57.4755 3.03004C57.7951 3.75603 57.9093 4.68071 57.9093 5.78497V29.2152ZM70.1266 35.0575C70.1266 38.2213 69.1716 39.6427 66.0478 39.6427C62.6958 39.6427 61.9614 37.9538 61.9614 35.0499V5.78497C61.9614 2.61737 62.9279 1.19979 66.0478 1.19979C69.4037 1.20361 70.1266 2.88866 70.1266 5.78879V35.0575ZM82.5418 25.8069C78.6609 26.4106 75.13 27.2513 73.7869 31.1181H73.7831L74.1826 5.78879C74.2321 2.70144 74.9626 1.20361 78.0978 1.20361H84.3415C91.2207 1.20361 94.9761 7.23694 94.9761 13.4728C94.9761 18.6502 92.4458 23.8697 87.1799 25.0313C85.6542 25.3675 84.0714 25.57 82.5418 25.8069ZM127.819 29.2152C125.533 25.2911 120.632 23.1857 116.203 22.8762L127.39 3.03004C127.705 3.75603 127.819 4.68071 127.819 5.78497V29.2152Z" fill="#ADADAD"/>
<path d="M25.3817 47.3878V46.1613H34.7454V47.3878C31.5493 47.3878 29.6279 49.199 28.0755 51.973L9.60296 85.0093C10.227 85.5289 11.1515 85.804 12.4984 85.804V87H0.277284V85.804C3.39726 85.804 4.36369 84.3826 4.36369 81.2188V51.9501C4.36369 49.0462 3.62935 47.3649 0.277284 47.3649V46.1613H12.4984V47.3649C9.37086 47.3649 8.41204 48.771 8.41204 51.9501V81.2188C8.41204 82.3193 8.52619 83.244 8.8458 83.97L26.877 51.973C28.2505 49.5391 28.9087 47.3878 25.3778 47.3878H25.3817Z" fill="#ADADAD"/>
<path d="M34.7454 46.1613H46.9665V47.3649C43.839 47.3649 42.8801 48.771 42.8801 51.9501V81.2188C42.8801 84.1113 43.6297 85.804 46.9665 85.804V87H34.7454V85.804C37.8653 85.804 38.8318 84.3826 38.8318 81.2188V51.9501C38.8318 49.0462 38.0974 47.3649 34.7454 47.3649V46.1613Z" fill="#ADADAD"/>
<path d="M68.3498 60.8989C68.3498 64.0512 66.9534 64.9949 63.784 64.9949H55.1089V51.9501C55.1089 49.0462 55.8432 47.3649 59.1953 47.3649H64.3813V46.1613H46.9703V47.3649C50.0979 47.3649 51.0567 48.771 51.0567 51.9501V81.2188C51.0567 84.119 50.3072 85.804 46.9703 85.804V87H63.8943C63.9628 86.6103 64.0351 86.2282 64.1112 85.804H59.1953C56.0791 85.804 55.1089 84.3826 55.1089 81.2188V66.2215C55.1089 65.9999 60.6944 66.2329 63.784 66.2329C66.6947 66.2329 68.3498 66.8787 68.3498 70.2985H69.5711V60.8989H68.3498Z" fill="#ADADAD"/>
<path d="M74.6886 81.6735C74.6886 84.8259 73.2923 85.8002 70.1228 85.8002H63.5671L63.6051 86.9962H75.91V81.6735H74.6886Z" fill="#ADADAD"/>
<path d="M75.8872 46.1499H88.1083V47.3535C84.9808 47.3535 84.0219 48.7596 84.0219 51.9386V81.2074C84.0219 84.0999 84.7715 85.804 88.1083 85.804V87H75.8872V85.804C79.0071 85.804 79.9736 84.375 79.9736 81.2074V51.9386C79.9736 49.0347 79.2392 47.3535 75.8872 47.3535V46.1499Z" fill="#ADADAD"/>
<path d="M123.55 85.8002V86.9962C109.012 87.0229 112.68 73.2865 104.656 73.2215C100.71 73.7068 97.2628 74.7002 96.2431 80.3056V81.215C96.2431 84.1113 96.985 85.8002 100.329 85.8002V86.9962H88.1083V85.8002C91.2321 85.8002 92.1871 84.3788 92.1871 81.215V51.9463C92.1871 49.0462 91.4642 47.3611 88.1083 47.3611V46.1575H106.402C114.046 46.1575 121.093 51.377 121.093 59.6303C121.093 66.4584 116.245 71.3225 109.659 72.5872C119.46 75.281 118.098 85.8002 123.55 85.8002ZM95.8474 77.2756C97.1905 73.4088 100.725 72.5681 104.602 71.9644C106.132 71.7275 107.719 71.525 109.244 71.1888C114.51 70.0272 117.04 64.8077 117.04 59.6303C117.04 53.3944 113.285 47.3611 106.406 47.3611H100.162C97.0269 47.3611 96.2964 48.8589 96.2507 51.9463L95.8512 77.2756H95.8474Z" fill="#ADADAD"/>
<path d="M127.637 81.2112V51.9425C127.637 48.7787 126.67 47.3573 123.55 47.3573V46.1613H135.772V47.3573C134.425 47.3573 133.5 47.6324 132.876 48.152L151.349 81.1883C152.901 83.9623 154.822 85.804 158.019 85.804V87H148.655V85.804C152.186 85.804 151.524 83.6222 150.154 81.1883L143.971 70.2182C139.01 70.4398 133.371 72.9693 131.689 77.8411V81.2112C131.689 84.3903 132.644 85.804 135.775 85.804V87H123.554V85.804C126.906 85.804 127.641 84.1152 127.641 81.2112H127.637ZM143.305 69.0375L132.119 49.1914C131.803 49.9173 131.685 50.842 131.685 51.9425V75.3766C133.972 71.4486 138.873 69.3432 143.305 69.0375Z" fill="#ADADAD"/>
<path d="M75.9252 51.461V46.1499H64.7085C64.3242 46.1537 63.959 46.1613 63.6204 46.1651L63.5823 47.3649H70.138C73.3113 47.3649 74.7039 48.3087 74.7039 51.461H75.9252Z" fill="#ADADAD"/>
</g>
</svg>
