<svg width="185" height="50" viewBox="0 0 185 50" fill="none" xmlns="http://www.w3.org/2000/svg">
<g id="Vector">
<path d="M84.9312 25.098H88.6227V15.2521L88.0573 10.9032L96.3824 25.098H99.91V6.42041H96.2188V15.4103L96.7841 19.8119L88.9423 6.42041H84.2266C84.6936 7.32914 84.9271 8.4407 84.9271 9.7551V25.0939L84.9312 25.098Z" fill="#ADADAD"/>
<path d="M84.9312 25.098H88.6227V15.2521L88.0573 10.9032L96.3824 25.098H99.91V6.42041H96.2188V15.4103L96.7841 19.8119L88.9423 6.42041H84.2266C84.6936 7.32914 84.9271 8.4407 84.9271 9.7551V25.0939L84.9312 25.098Z" fill="#ADADAD"/>
<path d="M108.189 25.6816C110.345 25.6816 112.215 25.1305 113.808 24.0324L113.891 23.761L112.586 21.6799C111.282 22.6176 109.928 23.0865 108.516 23.0865C106.344 23.0865 105.085 21.9513 104.742 19.677H113.998C114.287 19.0806 114.432 18.2539 114.432 17.1887C114.432 15.4038 113.833 14.0383 112.64 13.0924C111.447 12.1464 109.923 11.6735 108.078 11.6735C105.96 11.6735 104.263 12.2986 102.988 13.553C101.712 14.8074 101.072 16.5142 101.072 18.6776C101.072 20.8409 101.712 22.5518 102.988 23.8021C104.263 25.0565 105.997 25.6816 108.185 25.6816H108.189ZM108.024 14.2399C108.928 14.2399 109.618 14.4784 110.089 14.9555C110.559 15.4326 110.795 16.0248 110.795 16.7281C110.795 16.9625 110.766 17.2134 110.712 17.4848H104.713C104.986 15.3215 106.088 14.2399 108.024 14.2399Z" fill="#ADADAD"/>
<path d="M108.189 25.6816C110.345 25.6816 112.215 25.1305 113.808 24.0324L113.891 23.761L112.586 21.6799C111.282 22.6176 109.928 23.0865 108.516 23.0865C106.344 23.0865 105.085 21.9513 104.742 19.677H113.998C114.287 19.0806 114.432 18.2539 114.432 17.1887C114.432 15.4038 113.833 14.0383 112.64 13.0924C111.447 12.1464 109.923 11.6735 108.078 11.6735C105.96 11.6735 104.263 12.2986 102.988 13.553C101.712 14.8074 101.072 16.5142 101.072 18.6776C101.072 20.8409 101.712 22.5518 102.988 23.8021C104.263 25.0565 105.997 25.6816 108.185 25.6816H108.189ZM108.024 14.2399C108.928 14.2399 109.618 14.4784 110.089 14.9555C110.559 15.4326 110.795 16.0248 110.795 16.7281C110.795 16.9625 110.766 17.2134 110.712 17.4848H104.713C104.986 15.3215 106.088 14.2399 108.024 14.2399Z" fill="#ADADAD"/>
<path d="M122.854 11.6735C120.535 11.6735 118.744 12.2886 117.483 13.5189C116.222 14.7492 115.594 16.4708 115.594 18.6755C115.594 20.8801 116.222 22.6017 117.483 23.8362C118.744 25.0665 120.535 25.6816 122.854 25.6816C125.174 25.6816 126.965 25.0665 128.226 23.8362C129.487 22.6059 130.115 20.8843 130.115 18.6755C130.115 16.4667 129.487 14.7492 128.226 13.5189C126.965 12.2886 125.174 11.6735 122.854 11.6735ZM125.464 22.0031C124.848 22.738 123.975 23.1013 122.854 23.1013C121.734 23.1013 120.861 22.7339 120.245 22.0031C119.629 21.2682 119.319 20.1618 119.319 18.6755C119.319 17.1892 119.629 16.0828 120.245 15.3479C120.861 14.613 121.73 14.2497 122.854 14.2497C123.979 14.2497 124.848 14.6171 125.464 15.3479C126.08 16.0828 126.39 17.1892 126.39 18.6755C126.39 20.1618 126.08 21.2682 125.464 22.0031Z" fill="#ADADAD"/>
<path d="M122.854 11.6735C120.535 11.6735 118.744 12.2886 117.483 13.5189C116.222 14.7492 115.594 16.4708 115.594 18.6755C115.594 20.8801 116.222 22.6017 117.483 23.8362C118.744 25.0665 120.535 25.6816 122.854 25.6816C125.174 25.6816 126.965 25.0665 128.226 23.8362C129.487 22.6059 130.115 20.8843 130.115 18.6755C130.115 16.4667 129.487 14.7492 128.226 13.5189C126.965 12.2886 125.174 11.6735 122.854 11.6735ZM125.464 22.0031C124.848 22.738 123.975 23.1013 122.854 23.1013C121.734 23.1013 120.861 22.7339 120.245 22.0031C119.629 21.2682 119.319 20.1618 119.319 18.6755C119.319 17.1892 119.629 16.0828 120.245 15.3479C120.861 14.613 121.73 14.2497 122.854 14.2497C123.979 14.2497 124.848 14.6171 125.464 15.3479C126.08 16.0828 126.39 17.1892 126.39 18.6755C126.39 20.1618 126.08 21.2682 125.464 22.0031Z" fill="#ADADAD"/>
<path d="M92.493 38.0506L92.6272 38.2714H96.854V42.2721C96.0526 42.7472 94.9177 42.9847 93.4573 42.9847C91.7812 42.9847 90.4752 42.3804 89.5396 41.1761C88.6039 39.9717 88.1361 38.3089 88.1361 36.1878C88.1361 34.0666 88.5754 32.333 89.4623 31.1453C90.3451 29.9576 91.6795 29.3658 93.4613 29.3658C94.9787 29.3658 96.4229 29.7034 97.7938 30.3785L99.0509 27.4988C97.444 26.6779 95.5888 26.2653 93.4856 26.2653C90.524 26.2653 88.2419 27.1696 86.635 28.9783C85.0281 30.7869 84.2266 33.1914 84.2266 36.1878C84.2266 39.1841 85.032 41.5886 86.6471 43.3973C88.2621 45.2059 90.5403 46.1102 93.4816 46.1102C94.942 46.1102 96.2154 45.9477 97.2935 45.6185C98.3715 45.2892 99.4373 44.7517 100.491 44.0015V35.2584H93.6403L92.4889 38.0547L92.493 38.0506Z" fill="#ADADAD"/>
<path d="M92.493 38.0506L92.6272 38.2714H96.854V42.2721C96.0526 42.7472 94.9177 42.9847 93.4573 42.9847C91.7812 42.9847 90.4752 42.3804 89.5396 41.1761C88.6039 39.9717 88.1361 38.3089 88.1361 36.1878C88.1361 34.0666 88.5754 32.333 89.4623 31.1453C90.3451 29.9576 91.6795 29.3658 93.4613 29.3658C94.9787 29.3658 96.4229 29.7034 97.7938 30.3785L99.0509 27.4988C97.444 26.6779 95.5888 26.2653 93.4856 26.2653C90.524 26.2653 88.2419 27.1696 86.635 28.9783C85.0281 30.7869 84.2266 33.1914 84.2266 36.1878C84.2266 39.1841 85.032 41.5886 86.6471 43.3973C88.2621 45.2059 90.5403 46.1102 93.4816 46.1102C94.942 46.1102 96.2154 45.9477 97.2935 45.6185C98.3715 45.2892 99.4373 44.7517 100.491 44.0015V35.2584H93.6403L92.4889 38.0547L92.493 38.0506Z" fill="#ADADAD"/>
<path d="M113.221 33.5209C112.028 32.575 110.504 32.102 108.659 32.102C106.541 32.102 104.844 32.7272 103.568 33.9816C102.293 35.236 101.653 36.9428 101.653 39.1061C101.653 41.2695 102.293 42.9804 103.568 44.2307C104.844 45.4851 106.578 46.1102 108.766 46.1102C110.954 46.1102 112.792 45.5591 114.385 44.461L114.468 44.1895L113.163 42.1085C111.858 43.0462 110.504 43.515 109.092 43.515C106.921 43.515 105.662 42.3799 105.319 40.1055H114.579C114.868 39.5092 115.013 38.6825 115.013 37.6173C115.013 35.8323 114.414 34.4669 113.221 33.5209ZM111.293 37.9175H105.294C105.567 35.7542 106.669 34.6725 108.605 34.6725C109.509 34.6725 110.199 34.9111 110.669 35.3882C111.14 35.8652 111.375 36.4575 111.375 37.1608C111.375 37.3952 111.347 37.6461 111.293 37.9175Z" fill="#ADADAD"/>
<path d="M113.221 33.5209C112.028 32.575 110.504 32.102 108.659 32.102C106.541 32.102 104.844 32.7272 103.568 33.9816C102.293 35.236 101.653 36.9428 101.653 39.1061C101.653 41.2695 102.293 42.9804 103.568 44.2307C104.844 45.4851 106.578 46.1102 108.766 46.1102C110.954 46.1102 112.792 45.5591 114.385 44.461L114.468 44.1895L113.163 42.1085C111.858 43.0462 110.504 43.515 109.092 43.515C106.921 43.515 105.662 42.3799 105.319 40.1055H114.579C114.868 39.5092 115.013 38.6825 115.013 37.6173C115.013 35.8323 114.414 34.4669 113.221 33.5209ZM111.293 37.9175H105.294C105.567 35.7542 106.669 34.6725 108.605 34.6725C109.509 34.6725 110.199 34.9111 110.669 35.3882C111.14 35.8652 111.375 36.4575 111.375 37.1608C111.375 37.3952 111.347 37.6461 111.293 37.9175Z" fill="#ADADAD"/>
<path d="M123.439 32.102C121.91 32.102 120.529 32.654 119.287 33.7578L118.803 32.451H115.594C115.954 33.3398 116.135 34.6222 116.135 36.2942V45.5265H119.721V35.4135C120.763 34.8981 121.672 34.6384 122.443 34.6384C124.78 34.6384 125.948 36.071 125.948 38.936V45.5265H129.535V39.0415C129.535 36.7811 129.01 35.0605 127.956 33.8755C126.907 32.6905 125.399 32.102 123.439 32.102Z" fill="#ADADAD"/>
<path d="M123.439 32.102C121.91 32.102 120.529 32.654 119.287 33.7578L118.803 32.451H115.594C115.954 33.3398 116.135 34.6222 116.135 36.2942V45.5265H119.721V35.4135C120.763 34.8981 121.672 34.6384 122.443 34.6384C124.78 34.6384 125.948 36.071 125.948 38.936V45.5265H129.535V39.0415C129.535 36.7811 129.01 35.0605 127.956 33.8755C126.907 32.6905 125.399 32.102 123.439 32.102Z" fill="#ADADAD"/>
<path d="M142.268 33.5209C141.075 32.575 139.551 32.102 137.705 32.102C135.586 32.102 133.889 32.7272 132.613 33.9816C131.336 35.236 130.696 36.9428 130.696 39.1061C130.696 41.2695 131.336 42.9804 132.613 44.2307C133.889 45.4851 135.623 46.1102 137.812 46.1102C140.001 46.1102 141.839 45.5591 143.433 44.461L143.515 44.1895L142.21 42.1085C140.905 43.0462 139.547 43.515 138.138 43.515C135.966 43.515 134.706 42.3799 134.364 40.1055H143.623C143.912 39.5092 144.056 38.6825 144.056 37.6173C144.056 35.8323 143.457 34.4669 142.264 33.5209H142.268ZM140.339 37.9175H134.339C134.611 35.7542 135.714 34.6725 137.651 34.6725C138.555 34.6725 139.245 34.9111 139.716 35.3882C140.187 35.8652 140.422 36.4575 140.422 37.1608C140.422 37.3952 140.393 37.6461 140.339 37.9175Z" fill="#ADADAD"/>
<path d="M142.268 33.5209C141.075 32.575 139.551 32.102 137.705 32.102C135.586 32.102 133.889 32.7272 132.613 33.9816C131.336 35.236 130.696 36.9428 130.696 39.1061C130.696 41.2695 131.336 42.9804 132.613 44.2307C133.889 45.4851 135.623 46.1102 137.812 46.1102C140.001 46.1102 141.839 45.5591 143.433 44.461L143.515 44.1895L142.21 42.1085C140.905 43.0462 139.547 43.515 138.138 43.515C135.966 43.515 134.706 42.3799 134.364 40.1055H143.623C143.912 39.5092 144.056 38.6825 144.056 37.6173C144.056 35.8323 143.457 34.4669 142.264 33.5209H142.268ZM140.339 37.9175H134.339C134.611 35.7542 135.714 34.6725 137.651 34.6725C138.555 34.6725 139.245 34.9111 139.716 35.3882C140.187 35.8652 140.422 36.4575 140.422 37.1608C140.422 37.3952 140.393 37.6461 140.339 37.9175Z" fill="#ADADAD"/>
<path d="M153.365 35.2108L153.931 32.7574L153.779 32.4838H150.079V28.1241L149.927 28.0163L147.204 28.9695L146.692 32.4838L144.637 32.919V35.2066H146.692V41.6675C146.692 43.2672 146.993 44.4069 147.591 45.0866C148.188 45.7662 149.192 46.1102 150.595 46.1102C151.056 46.1102 151.775 46.0025 152.751 45.7828L153.65 42.8943L153.47 42.5959C152.732 42.7575 152.134 42.8404 151.673 42.8404C151.107 42.8404 150.7 42.7036 150.454 42.4301C150.204 42.1566 150.083 41.6758 150.083 40.9837V35.2066H153.373L153.365 35.2108Z" fill="#ADADAD"/>
<path d="M153.365 35.2108L153.931 32.7574L153.779 32.4838H150.079V28.1241L149.927 28.0163L147.204 28.9695L146.692 32.4838L144.637 32.919V35.2066H146.692V41.6675C146.692 43.2672 146.993 44.4069 147.591 45.0866C148.188 45.7662 149.192 46.1102 150.595 46.1102C151.056 46.1102 151.775 46.0025 152.751 45.7828L153.65 42.8943L153.47 42.5959C152.732 42.7575 152.134 42.8404 151.673 42.8404C151.107 42.8404 150.7 42.7036 150.454 42.4301C150.204 42.1566 150.083 41.6758 150.083 40.9837V35.2066H153.373L153.365 35.2108Z" fill="#ADADAD"/>
<path d="M157.098 25.6816C156.437 25.6816 155.939 25.8406 155.6 26.155C155.26 26.4693 155.093 26.8872 155.093 27.4086C155.093 27.93 155.265 28.3516 155.617 28.6844C155.964 29.0173 156.458 29.1837 157.098 29.1837C157.738 29.1837 158.266 29.0136 158.622 28.6733C158.979 28.3331 159.159 27.9115 159.159 27.4086C159.159 26.9057 158.979 26.4915 158.622 26.1698C158.266 25.8443 157.755 25.6853 157.098 25.6853V25.6816Z" fill="#ADADAD"/>
<path d="M157.098 25.6816C156.437 25.6816 155.939 25.8406 155.6 26.155C155.26 26.4693 155.093 26.8872 155.093 27.4086C155.093 27.93 155.265 28.3516 155.617 28.6844C155.964 29.0173 156.458 29.1837 157.098 29.1837C157.738 29.1837 158.266 29.0136 158.622 28.6733C158.979 28.3331 159.159 27.9115 159.159 27.4086C159.159 26.9057 158.979 26.4915 158.622 26.1698C158.266 25.8443 157.755 25.6853 157.098 25.6853V25.6816Z" fill="#ADADAD"/>
<path d="M159.159 32.6857H155.093V45.5265H159.159V32.6857Z" fill="#ADADAD"/>
<path d="M159.159 32.6857H155.093V45.5265H159.159V32.6857Z" fill="#ADADAD"/>
<path d="M171.224 42.3223C170.022 43.0996 168.723 43.4862 167.323 43.4862C166.279 43.4862 165.464 43.0914 164.871 42.2976C164.278 41.5039 163.983 40.4428 163.983 39.1061C163.983 37.7695 164.274 36.6796 164.859 35.8858C165.444 35.092 166.255 34.6972 167.299 34.6972C168.485 34.6972 169.59 35.0591 170.615 35.7789L170.772 35.7501L172.019 33.5333C170.587 32.5791 169.014 32.102 167.295 32.102C165.048 32.102 163.326 32.7436 162.124 34.0227C160.922 35.3018 160.321 36.9963 160.321 39.1061C160.321 41.216 160.926 42.9105 162.136 44.1895C163.346 45.4686 165.085 46.1102 167.348 46.1102C169.151 46.1102 170.877 45.5796 172.519 44.5144L171.378 42.3511L171.22 42.3223H171.224Z" fill="#ADADAD"/>
<path d="M171.224 42.3223C170.022 43.0996 168.723 43.4862 167.323 43.4862C166.279 43.4862 165.464 43.0914 164.871 42.2976C164.278 41.5039 163.983 40.4428 163.983 39.1061C163.983 37.7695 164.274 36.6796 164.859 35.8858C165.444 35.092 166.255 34.6972 167.299 34.6972C168.485 34.6972 169.59 35.0591 170.615 35.7789L170.772 35.7501L172.019 33.5333C170.587 32.5791 169.014 32.102 167.295 32.102C165.048 32.102 163.326 32.7436 162.124 34.0227C160.922 35.3018 160.321 36.9963 160.321 39.1061C160.321 41.216 160.926 42.9105 162.136 44.1895C163.346 45.4686 165.085 46.1102 167.348 46.1102C169.151 46.1102 170.877 45.5796 172.519 44.5144L171.378 42.3511L171.22 42.3223H171.224Z" fill="#ADADAD"/>
<path d="M183.607 39.2537C182.863 38.6342 181.707 38.1061 180.132 37.6695C179.105 37.3785 178.391 37.1124 177.99 36.8754C177.589 36.6384 177.385 36.3182 177.385 35.9191C177.385 35.208 177.89 34.8546 178.896 34.8546C179.28 34.8546 179.848 34.9461 180.6 35.129C181.352 35.312 181.907 35.4035 182.275 35.4035C182.696 35.4035 182.959 35.3868 183.072 35.3494L183.924 32.5345L183.761 32.3723C183.598 32.4097 183.331 32.4264 182.964 32.4264C182.487 32.4264 181.828 32.3723 180.984 32.2642C180.141 32.1561 179.447 32.102 178.896 32.102C177.284 32.102 176.048 32.4264 175.188 33.0708C174.328 33.7195 173.898 34.6633 173.898 35.9024C173.898 36.996 174.248 37.865 174.954 38.5136C175.66 39.1623 176.762 39.6945 178.261 40.1144C179.013 40.314 179.539 40.4637 179.84 40.5676C180.141 40.6674 180.441 40.8379 180.734 41.0749C181.026 41.3119 181.172 41.5947 181.172 41.9231C181.172 42.8878 180.412 43.3743 178.892 43.3743C178.178 43.3743 177.426 43.2371 176.641 42.9626C175.852 42.6882 175.196 42.3348 174.666 41.8982L174.445 41.9273L173.1 44.6341C174.474 45.6196 176.349 46.1102 178.729 46.1102C180.617 46.1102 182.082 45.7277 183.139 44.9626C184.191 44.1975 184.717 43.1497 184.717 41.8192C184.717 40.7423 184.346 39.8982 183.607 39.2745V39.2537Z" fill="#ADADAD"/>
<path d="M183.607 39.2537C182.863 38.6342 181.707 38.1061 180.132 37.6695C179.105 37.3785 178.391 37.1124 177.99 36.8754C177.589 36.6384 177.385 36.3182 177.385 35.9191C177.385 35.208 177.89 34.8546 178.896 34.8546C179.28 34.8546 179.848 34.9461 180.6 35.129C181.352 35.312 181.907 35.4035 182.275 35.4035C182.696 35.4035 182.959 35.3868 183.072 35.3494L183.924 32.5345L183.761 32.3723C183.598 32.4097 183.331 32.4264 182.964 32.4264C182.487 32.4264 181.828 32.3723 180.984 32.2642C180.141 32.1561 179.447 32.102 178.896 32.102C177.284 32.102 176.048 32.4264 175.188 33.0708C174.328 33.7195 173.898 34.6633 173.898 35.9024C173.898 36.996 174.248 37.865 174.954 38.5136C175.66 39.1623 176.762 39.6945 178.261 40.1144C179.013 40.314 179.539 40.4637 179.84 40.5676C180.141 40.6674 180.441 40.8379 180.734 41.0749C181.026 41.3119 181.172 41.5947 181.172 41.9231C181.172 42.8878 180.412 43.3743 178.892 43.3743C178.178 43.3743 177.426 43.2371 176.641 42.9626C175.852 42.6882 175.196 42.3348 174.666 41.8982L174.445 41.9273L173.1 44.6341C174.474 45.6196 176.349 46.1102 178.729 46.1102C180.617 46.1102 182.082 45.7277 183.139 44.9626C184.191 44.1975 184.717 43.1497 184.717 41.8192C184.717 40.7423 184.346 39.8982 183.607 39.2745V39.2537Z" fill="#ADADAD"/>
<path d="M42.9788 43.0821C41.2837 42.7955 39.6339 42.1726 38.0005 41.4125C35.4331 40.2164 32.9727 38.5716 30.5823 36.6487C28.7308 35.1576 26.9164 33.5545 25.1595 31.7852C23.7977 30.4146 22.4481 29.0066 21.1027 27.5862C19.2307 25.6134 17.3791 23.5948 15.5071 21.6303C13.9436 19.9939 12.372 18.3783 10.7838 16.8042C9.01051 15.0432 7.19614 13.4027 5.30353 12.0113C4.17207 11.1806 3.02416 10.3998 1.87213 9.64807C1.3496 9.3075 0.798225 9.08738 0.255127 8.81741C0.189297 8.78419 0.115203 8.78002 0 8.7551C0.0699445 8.8797 0.10705 8.95862 0.148193 9.02092C1.78572 11.3966 3.01176 14.2582 3.90869 17.502C4.04858 18.0045 4.22964 18.3035 4.54645 18.5361C5.74785 19.4042 6.93687 20.3179 8.11359 21.2773C10.1872 22.9719 12.2156 24.8201 14.2152 26.7347C15.6758 28.1344 17.1323 29.5424 18.597 30.9379C20.8147 33.0519 23.0571 35.0829 25.3735 36.8896C26.8012 38.0027 28.2535 39.0285 29.7388 39.9215C31.4257 40.9432 33.1537 41.7531 34.9147 42.3844C36.5234 42.9617 38.1486 43.377 39.7902 43.5805C41.5347 43.7923 43.2834 43.8546 45.032 43.6511C46.0565 43.5307 47.081 43.3604 48.1055 43.2109C48.1425 43.2067 48.1795 43.1943 48.2124 43.1237C47.8339 43.1652 47.4553 43.2067 47.0809 43.2483C45.7108 43.4019 44.3489 43.3147 42.983 43.0863L42.9788 43.0821Z" fill="#ADADAD"/>
<path d="M42.9788 43.0821C41.2837 42.7955 39.6339 42.1726 38.0005 41.4125C35.4331 40.2164 32.9727 38.5716 30.5823 36.6487C28.7308 35.1576 26.9164 33.5545 25.1595 31.7852C23.7977 30.4146 22.4481 29.0066 21.1027 27.5862C19.2307 25.6134 17.3791 23.5948 15.5071 21.6303C13.9436 19.9939 12.372 18.3783 10.7838 16.8042C9.01051 15.0432 7.19614 13.4027 5.30353 12.0113C4.17207 11.1806 3.02416 10.3998 1.87213 9.64807C1.3496 9.3075 0.798225 9.08738 0.255127 8.81741C0.189297 8.78419 0.115203 8.78002 0 8.7551C0.0699445 8.8797 0.10705 8.95862 0.148193 9.02092C1.78572 11.3966 3.01176 14.2582 3.90869 17.502C4.04858 18.0045 4.22964 18.3035 4.54645 18.5361C5.74785 19.4042 6.93687 20.3179 8.11359 21.2773C10.1872 22.9719 12.2156 24.8201 14.2152 26.7347C15.6758 28.1344 17.1323 29.5424 18.597 30.9379C20.8147 33.0519 23.0571 35.0829 25.3735 36.8896C26.8012 38.0027 28.2535 39.0285 29.7388 39.9215C31.4257 40.9432 33.1537 41.7531 34.9147 42.3844C36.5234 42.9617 38.1486 43.377 39.7902 43.5805C41.5347 43.7923 43.2834 43.8546 45.032 43.6511C46.0565 43.5307 47.081 43.3604 48.1055 43.2109C48.1425 43.2067 48.1795 43.1943 48.2124 43.1237C47.8339 43.1652 47.4553 43.2067 47.0809 43.2483C45.7108 43.4019 44.3489 43.3147 42.983 43.0863L42.9788 43.0821Z" fill="#ADADAD"/>
<path d="M61.5825 36.2478C60.3459 36.987 59.0679 37.092 57.765 36.8496C56.5449 36.6275 55.4158 35.9852 54.3239 35.149C52.7853 33.9736 51.3252 32.5961 49.9314 31.049C48.0412 28.9485 46.1759 26.7915 44.2982 24.6627C42.8547 23.0308 41.4113 21.3988 39.8603 20.0214C38.4995 18.8136 37.0643 17.9088 35.5009 17.6099C34.3717 17.3958 33.2551 17.5291 32.1466 17.9855C31.0588 18.4339 30.0414 19.1449 29.0571 19.977C28.3664 20.5627 27.6839 21.1727 26.9973 21.7705C26.8981 21.8553 26.807 21.9603 26.7202 22.0977C27.0097 21.9199 27.2992 21.722 27.5929 21.5645C29.3093 20.6677 31.0299 20.7566 32.7587 21.4635C34.1981 22.0532 35.5464 22.9985 36.8534 24.0931C38.971 25.8705 40.9481 28.0033 42.9292 30.128C44.4058 31.7115 45.8864 33.2909 47.4084 34.7653C48.8891 36.1993 50.4444 37.4273 52.1154 38.215C54.3116 39.2531 56.5242 39.4672 58.7452 38.4129C59.5269 38.0413 60.2756 37.5161 60.9994 36.9223C61.384 36.6073 61.7687 36.2962 62.1533 35.9852C62.1451 35.961 62.1327 35.9408 62.1244 35.9165C61.9424 36.0256 61.7604 36.1306 61.5784 36.2397L61.5825 36.2478Z" fill="#ADADAD"/>
<path d="M61.5825 36.2478C60.3459 36.987 59.0679 37.092 57.765 36.8496C56.5449 36.6275 55.4158 35.9852 54.3239 35.149C52.7853 33.9736 51.3252 32.5961 49.9314 31.049C48.0412 28.9485 46.1759 26.7915 44.2982 24.6627C42.8547 23.0308 41.4113 21.3988 39.8603 20.0214C38.4995 18.8136 37.0643 17.9088 35.5009 17.6099C34.3717 17.3958 33.2551 17.5291 32.1466 17.9855C31.0588 18.4339 30.0414 19.1449 29.0571 19.977C28.3664 20.5627 27.6839 21.1727 26.9973 21.7705C26.8981 21.8553 26.807 21.9603 26.7202 22.0977C27.0097 21.9199 27.2992 21.722 27.5929 21.5645C29.3093 20.6677 31.0299 20.7566 32.7587 21.4635C34.1981 22.0532 35.5464 22.9985 36.8534 24.0931C38.971 25.8705 40.9481 28.0033 42.9292 30.128C44.4058 31.7115 45.8864 33.2909 47.4084 34.7653C48.8891 36.1993 50.4444 37.4273 52.1154 38.215C54.3116 39.2531 56.5242 39.4672 58.7452 38.4129C59.5269 38.0413 60.2756 37.5161 60.9994 36.9223C61.384 36.6073 61.7687 36.2962 62.1533 35.9852C62.1451 35.961 62.1327 35.9408 62.1244 35.9165C61.9424 36.0256 61.7604 36.1306 61.5784 36.2397L61.5825 36.2478Z" fill="#ADADAD"/>
<path d="M50.5626 40.3375C49.2597 40.0783 48.0014 39.5436 46.7794 38.7861C45.4199 37.9395 44.1089 36.9187 42.8546 35.7278C41.2442 34.1966 39.6459 32.633 38.0557 31.0491C36.7407 29.7407 35.4501 28.3675 34.131 27.0632C32.8888 25.8358 31.6061 24.7178 30.2061 24.0251C28.9235 23.3892 27.6205 23.1097 26.2853 23.5877C25.4558 23.8834 24.6869 24.41 23.9708 25.135C23.3557 25.7589 22.7489 26.411 22.142 27.0511C22.1177 27.0754 22.0975 27.1159 22.0732 27.1483C23.3073 26.3786 24.5292 26.6338 25.7431 27.1807C26.9003 27.6992 27.9847 28.5053 29.0327 29.4288C30.6188 30.8264 32.1765 32.3089 33.7586 33.7186C35.102 34.9176 36.4453 36.1126 37.817 37.2346C39.2332 38.3932 40.7019 39.3694 42.2112 40.1674C44.6227 41.4474 47.0909 42.1482 49.636 42.0064C51.0157 41.9295 52.3753 41.6297 53.7106 41.0667C54.532 40.7224 55.3453 40.3213 56.1586 39.9446C56.2274 39.9122 56.288 39.8636 56.3446 39.7745C56.2718 39.7988 56.1989 39.8231 56.1261 39.8514C54.2891 40.6049 52.4319 40.7142 50.5544 40.3375H50.5626Z" fill="#ADADAD"/>
<path d="M50.5626 40.3375C49.2597 40.0783 48.0014 39.5436 46.7794 38.7861C45.4199 37.9395 44.1089 36.9187 42.8546 35.7278C41.2442 34.1966 39.6459 32.633 38.0557 31.0491C36.7407 29.7407 35.4501 28.3675 34.131 27.0632C32.8888 25.8358 31.6061 24.7178 30.2061 24.0251C28.9235 23.3892 27.6205 23.1097 26.2853 23.5877C25.4558 23.8834 24.6869 24.41 23.9708 25.135C23.3557 25.7589 22.7489 26.411 22.142 27.0511C22.1177 27.0754 22.0975 27.1159 22.0732 27.1483C23.3073 26.3786 24.5292 26.6338 25.7431 27.1807C26.9003 27.6992 27.9847 28.5053 29.0327 29.4288C30.6188 30.8264 32.1765 32.3089 33.7586 33.7186C35.102 34.9176 36.4453 36.1126 37.817 37.2346C39.2332 38.3932 40.7019 39.3694 42.2112 40.1674C44.6227 41.4474 47.0909 42.1482 49.636 42.0064C51.0157 41.9295 52.3753 41.6297 53.7106 41.0667C54.532 40.7224 55.3453 40.3213 56.1586 39.9446C56.2274 39.9122 56.288 39.8636 56.3446 39.7745C56.2718 39.7988 56.1989 39.8231 56.1261 39.8514C54.2891 40.6049 52.4319 40.7142 50.5544 40.3375H50.5626Z" fill="#ADADAD"/>
<path d="M14.7632 31.2598C14.0002 30.7839 13.2582 30.2186 12.5285 29.6288C10.9817 28.3842 9.45562 27.0746 7.9046 25.8422C7.05404 25.1671 6.16602 24.5976 5.22791 23.9306C5.45722 26.0496 5.44041 28.0589 5.36536 30.1087C5.45291 30.1616 5.54469 30.2226 5.63641 30.2796C6.81219 30.9913 7.98383 31.7031 9.15961 32.4067C10.0519 32.9436 10.9399 33.5171 11.8488 33.9848C13.4707 34.8227 15.0134 34.4892 16.4561 33.0372C16.9772 32.5084 17.4984 31.9797 18.0071 31.394C17.8737 31.4591 17.736 31.5282 17.6026 31.5933C16.627 32.061 15.6764 31.8251 14.7591 31.2557L14.7632 31.2598Z" fill="#ADADAD"/>
<path d="M14.7632 31.2598C14.0002 30.7839 13.2582 30.2186 12.5285 29.6288C10.9817 28.3842 9.45562 27.0746 7.9046 25.8422C7.05404 25.1671 6.16602 24.5976 5.22791 23.9306C5.45722 26.0496 5.44041 28.0589 5.36536 30.1087C5.45291 30.1616 5.54469 30.2226 5.63641 30.2796C6.81219 30.9913 7.98383 31.7031 9.15961 32.4067C10.0519 32.9436 10.9399 33.5171 11.8488 33.9848C13.4707 34.8227 15.0134 34.4892 16.4561 33.0372C16.9772 32.5084 17.4984 31.9797 18.0071 31.394C17.8737 31.4591 17.736 31.5282 17.6026 31.5933C16.627 32.061 15.6764 31.8251 14.7591 31.2557L14.7632 31.2598Z" fill="#ADADAD"/>
<path d="M10.5892 36.9046C10.1622 36.8222 9.73516 36.6945 9.32379 36.5009C8.42663 36.0806 7.54125 35.5986 6.65192 35.1536C6.19354 34.9229 5.72725 34.7169 5.26495 34.5027C5.18268 34.4656 5.09651 34.4532 5.02991 34.4367C4.70865 35.8334 4.39911 37.1889 4.0661 38.6556C5.40989 38.9976 6.73022 39.3807 8.06226 39.6485C8.90849 39.8216 9.71944 39.4384 10.4599 38.7215C11.2474 37.9594 12.0231 37.1518 12.7792 36.2866C12.65 36.3773 12.5207 36.4803 12.3875 36.5585C11.8037 36.9129 11.2003 37.0159 10.5931 36.9005L10.5892 36.9046Z" fill="#ADADAD"/>
<path d="M10.5892 36.9046C10.1622 36.8222 9.73516 36.6945 9.32379 36.5009C8.42663 36.0806 7.54125 35.5986 6.65192 35.1536C6.19354 34.9229 5.72725 34.7169 5.26495 34.5027C5.18268 34.4656 5.09651 34.4532 5.02991 34.4367C4.70865 35.8334 4.39911 37.1889 4.0661 38.6556C5.40989 38.9976 6.73022 39.3807 8.06226 39.6485C8.90849 39.8216 9.71944 39.4384 10.4599 38.7215C11.2474 37.9594 12.0231 37.1518 12.7792 36.2866C12.65 36.3773 12.5207 36.4803 12.3875 36.5585C11.8037 36.9129 11.2003 37.0159 10.5931 36.9005L10.5892 36.9046Z" fill="#ADADAD"/>
<path d="M2.61646 42.7355C2.37822 42.7355 2.25055 42.8793 2.12292 43.1389C1.59965 44.2174 1.00833 45.208 0.357422 46.1107C0.234048 46.2825 0.106357 46.4502 0 46.6939C0.306308 46.598 0.61268 46.5181 0.914734 46.3983C2.06764 45.931 3.178 45.2839 4.25433 44.525C5.24558 43.8299 6.21561 43.067 7.19409 42.332C7.31747 42.2402 7.43227 42.1283 7.55139 42.0245C6.74308 42.4958 5.90926 42.6077 5.07117 42.6556C4.25435 42.7035 3.43328 42.7395 2.61646 42.7395V42.7355Z" fill="#ADADAD"/>
<path d="M2.61646 42.7355C2.37822 42.7355 2.25055 42.8793 2.12292 43.1389C1.59965 44.2174 1.00833 45.208 0.357422 46.1107C0.234048 46.2825 0.106357 46.4502 0 46.6939C0.306308 46.598 0.61268 46.5181 0.914734 46.3983C2.06764 45.931 3.178 45.2839 4.25433 44.525C5.24558 43.8299 6.21561 43.067 7.19409 42.332C7.31747 42.2402 7.43227 42.1283 7.55139 42.0245C6.74308 42.4958 5.90926 42.6077 5.07117 42.6556C4.25435 42.7035 3.43328 42.7395 2.61646 42.7395V42.7355Z" fill="#ADADAD"/>
<path d="M64.9464 22.5428C63.7563 21.2166 62.5296 20.0076 61.2621 18.92C59.4322 17.3512 57.5329 16.0837 55.5685 15.1006C53.9668 14.2974 52.3406 13.7075 50.6859 13.3394C47.6089 12.6533 44.5399 12.6659 41.4792 13.4356C39.7552 13.8707 38.0599 14.494 36.4011 15.3725C35.8795 15.6486 35.3618 15.9331 34.8524 16.2928C35.1213 16.1883 35.3944 16.0795 35.6634 15.9749C37.7868 15.1592 39.8491 15.5398 41.8665 16.9664C43.2115 17.9202 44.4749 19.1375 45.6649 20.5557C46.9772 22.1202 48.2569 23.7601 49.557 25.3498C50.8979 26.9897 52.2347 28.6546 53.6041 30.2276C54.7697 31.5662 55.9801 32.8087 57.2883 33.729C59.534 35.302 61.7838 35.5111 64.0416 33.9507C65.3417 33.0555 66.5073 31.8172 67.5547 30.2694C68.0723 29.508 68.5858 28.7467 69.1238 27.9476C68.7692 27.4373 68.4391 26.9478 68.1008 26.4835C67.0819 25.0904 66.0346 23.7685 64.9382 22.5469L64.9464 22.5428ZM58.4785 26.3203C57.5248 26.3203 56.7545 25.4376 56.7545 24.3458C56.7545 23.2539 57.5248 22.3712 58.4785 22.3712C59.4322 22.3712 60.2025 23.2539 60.2025 24.3458C60.2025 25.4376 59.4322 26.3203 58.4785 26.3203Z" fill="#ADADAD"/>
<path d="M64.9464 22.5428C63.7563 21.2166 62.5296 20.0076 61.2621 18.92C59.4322 17.3512 57.5329 16.0837 55.5685 15.1006C53.9668 14.2974 52.3406 13.7075 50.6859 13.3394C47.6089 12.6533 44.5399 12.6659 41.4792 13.4356C39.7552 13.8707 38.0599 14.494 36.4011 15.3725C35.8795 15.6486 35.3618 15.9331 34.8524 16.2928C35.1213 16.1883 35.3944 16.0795 35.6634 15.9749C37.7868 15.1592 39.8491 15.5398 41.8665 16.9664C43.2115 17.9202 44.4749 19.1375 45.6649 20.5557C46.9772 22.1202 48.2569 23.7601 49.557 25.3498C50.8979 26.9897 52.2347 28.6546 53.6041 30.2276C54.7697 31.5662 55.9801 32.8087 57.2883 33.729C59.534 35.302 61.7838 35.5111 64.0416 33.9507C65.3417 33.0555 66.5073 31.8172 67.5547 30.2694C68.0723 29.508 68.5858 28.7467 69.1238 27.9476C68.7692 27.4373 68.4391 26.9478 68.1008 26.4835C67.0819 25.0904 66.0346 23.7685 64.9382 22.5469L64.9464 22.5428ZM58.4785 26.3203C57.5248 26.3203 56.7545 25.4376 56.7545 24.3458C56.7545 23.2539 57.5248 22.3712 58.4785 22.3712C59.4322 22.3712 60.2025 23.2539 60.2025 24.3458C60.2025 25.4376 59.4322 26.3203 58.4785 26.3203Z" fill="#ADADAD"/>
<path d="M76.6752 0H75.5134V49.6122H76.6752V0Z" fill="#ADADAD"/>
<path d="M76.6752 0H75.5134V49.6122H76.6752V0Z" fill="#ADADAD"/>
</g>
</svg>
