<svg width="230" height="73" viewBox="0 0 230 73" fill="none" xmlns="http://www.w3.org/2000/svg">
<g id="Vector">
<path d="M41.2835 26.3804C42.0799 26.9159 43.1403 26.9609 43.9854 26.4948L55.1059 20.3709C56.6824 19.5042 56.7718 17.3825 55.2725 16.4014L30.9065 0.42112C30.0411 -0.147122 28.8913 -0.138944 28.034 0.437473L3.36735 17.0882C1.84778 18.1143 2.01842 20.2932 3.67614 21.0986L14.9917 26.5888C15.8368 26.9977 16.8525 26.92 17.6123 26.3885L27.774 19.2916C28.6434 18.6866 29.8217 18.6744 30.7034 19.2671L41.2795 26.3804H41.2835Z" fill="#ADADAD"/>
<path d="M41.2835 26.3804C42.0799 26.9159 43.1403 26.9609 43.9854 26.4948L55.1059 20.3709C56.6824 19.5042 56.7718 17.3825 55.2725 16.4014L30.9065 0.42112C30.0411 -0.147122 28.8913 -0.138944 28.034 0.437473L3.36735 17.0882C1.84778 18.1143 2.01842 20.2932 3.67614 21.0986L14.9917 26.5888C15.8368 26.9977 16.8525 26.92 17.6123 26.3885L27.774 19.2916C28.6434 18.6866 29.8217 18.6744 30.7034 19.2671L41.2795 26.3804H41.2835Z" fill="#ADADAD"/>
<path d="M58.4638 37.466L46.3992 31.7638C45.4393 31.3125 44.2825 31.4947 43.5359 32.2193L35.8607 39.6318C34.7203 40.7333 34.9992 42.5636 36.4227 43.3131L45.0824 47.8806L31.8979 56.2869C31.2047 56.73 30.7862 57.4712 30.7862 58.2663V70.5693C30.7862 72.4659 33.0055 73.6046 34.6792 72.5652L58.6894 57.699C59.3991 57.26 59.8299 56.5064 59.8299 55.703V39.5614C59.8299 38.6752 59.3007 37.8635 58.4638 37.466Z" fill="#ADADAD"/>
<path d="M58.4638 37.466L46.3992 31.7638C45.4393 31.3125 44.2825 31.4947 43.5359 32.2193L35.8607 39.6318C34.7203 40.7333 34.9992 42.5636 36.4227 43.3131L45.0824 47.8806L31.8979 56.2869C31.2047 56.73 30.7862 57.4712 30.7862 58.2663V70.5693C30.7862 72.4659 33.0055 73.6046 34.6792 72.5652L58.6894 57.699C59.3991 57.26 59.8299 56.5064 59.8299 55.703V39.5614C59.8299 38.6752 59.3007 37.8635 58.4638 37.466Z" fill="#ADADAD"/>
<path d="M27.9524 55.9916L16.0068 48.2909C15.3217 47.8495 14.9074 47.1153 14.9074 46.3275V29.9609C14.9074 29.0741 14.3823 28.2574 13.5455 27.8491L3.67558 23.0315C2.00188 22.2148 0 23.3614 0 25.1433V53.8014C0 54.5686 0.393812 55.2904 1.05427 55.7358L25.0645 71.9292C26.73 73.0511 29.0436 71.9292 29.0436 69.9948V57.9549C29.0436 57.1712 28.6334 56.437 27.9442 55.9916H27.9524Z" fill="#ADADAD"/>
<path d="M27.9524 55.9916L16.0068 48.2909C15.3217 47.8495 14.9074 47.1153 14.9074 46.3275V29.9609C14.9074 29.0741 14.3823 28.2574 13.5455 27.8491L3.67558 23.0315C2.00188 22.2148 0 23.3614 0 25.1433V53.8014C0 54.5686 0.393812 55.2904 1.05427 55.7358L25.0645 71.9292C26.73 73.0511 29.0436 71.9292 29.0436 69.9948V57.9549C29.0436 57.1712 28.6334 56.437 27.9442 55.9916H27.9524Z" fill="#ADADAD"/>
<path d="M97.8946 32.102H86.2227L80.7413 58.3674H86.5873L88.3821 49.2448H95.2532C102.262 49.2448 106.881 46.2712 106.881 40.0277C106.881 34.977 103.169 32.102 97.8946 32.102ZM95.1235 44.4861H89.399L91.0155 36.8278H96.3632C99.5273 36.8278 100.885 38.1111 100.889 40.3033C100.893 43.3263 98.6927 44.4861 95.1235 44.4861Z" fill="#ADADAD"/>
<path d="M97.8946 32.102H86.2227L80.7413 58.3674H86.5873L88.3821 49.2448H95.2532C102.262 49.2448 106.881 46.2712 106.881 40.0277C106.881 34.977 103.169 32.102 97.8946 32.102ZM95.1235 44.4861H89.399L91.0155 36.8278H96.3632C99.5273 36.8278 100.885 38.1111 100.889 40.3033C100.893 43.3263 98.6927 44.4861 95.1235 44.4861Z" fill="#ADADAD"/>
<path d="M198.07 42.4361C200.601 42.4361 201.394 43.5986 201.529 44.7611H207.371C207.273 42.4319 205.436 38.5224 198.23 38.5224C192.466 38.5224 189.471 41.3439 189.471 44.9638C189.471 47.3591 190.679 49.3449 196.435 50.6687C199.565 51.3762 200.502 51.9098 200.502 53.064C200.502 54.4748 198.797 54.9133 197.293 54.9133C194.886 54.9133 193.62 54.09 193.365 52.4021H187.622C187.811 56.9073 191.693 58.951 196.899 58.951C203.094 58.951 206.529 56.2744 206.529 52.2739C206.529 49.3614 204.923 47.5287 199.228 46.1677C196.418 45.5016 195.457 45.0134 195.457 44.0205C195.457 42.7919 196.833 42.4319 198.07 42.4319V42.4361Z" fill="#ADADAD"/>
<path d="M198.07 42.4361C200.601 42.4361 201.394 43.5986 201.529 44.7611H207.371C207.273 42.4319 205.436 38.5224 198.23 38.5224C192.466 38.5224 189.471 41.3439 189.471 44.9638C189.471 47.3591 190.679 49.3449 196.435 50.6687C199.565 51.3762 200.502 51.9098 200.502 53.064C200.502 54.4748 198.797 54.9133 197.293 54.9133C194.886 54.9133 193.62 54.09 193.365 52.4021H187.622C187.811 56.9073 191.693 58.951 196.899 58.951C203.094 58.951 206.529 56.2744 206.529 52.2739C206.529 49.3614 204.923 47.5287 199.228 46.1677C196.418 45.5016 195.457 45.0134 195.457 44.0205C195.457 42.7919 196.833 42.4319 198.07 42.4319V42.4361Z" fill="#ADADAD"/>
<path d="M180.725 38.5224C177.056 38.5224 175.137 40.2339 174.089 41.5701C174.222 40.9103 174.411 39.6029 174.468 39.0462H168.871C168.589 40.5474 168.254 42.2877 167.923 43.9208L164.968 58.3674H170.637L172.516 49.0388C173.282 45.2941 174.939 43.195 177.794 43.195C180.649 43.195 180.786 45.0879 180.338 47.2984L178.072 58.3674H183.774L186.169 46.8324C187.35 41.0216 184.818 38.5224 180.721 38.5224H180.725Z" fill="#ADADAD"/>
<path d="M180.725 38.5224C177.056 38.5224 175.137 40.2339 174.089 41.5701C174.222 40.9103 174.411 39.6029 174.468 39.0462H168.871C168.589 40.5474 168.254 42.2877 167.923 43.9208L164.968 58.3674H170.637L172.516 49.0388C173.282 45.2941 174.939 43.195 177.794 43.195C180.649 43.195 180.786 45.0879 180.338 47.2984L178.072 58.3674H183.774L186.169 46.8324C187.35 41.0216 184.818 38.5224 180.721 38.5224H180.725Z" fill="#ADADAD"/>
<path d="M220.325 38.5224C212.198 38.5224 208.533 44.7888 208.533 50.1203C208.533 54.9431 211.32 58.951 217.736 58.951C223.767 58.951 226.905 55.9771 228.199 52.6764H222.159C221.376 53.8139 220.42 54.5088 218.193 54.5088C215.423 54.5088 214.268 52.8005 214.268 50.6373C214.268 50.4925 214.272 50.1947 214.276 50.0955H228.954C229.337 48.8629 229.445 47.9447 229.445 46.7948C229.445 42.2657 226.699 38.5266 220.321 38.5266L220.325 38.5224ZM223.875 46.406H215.13C215.711 44.2469 217.282 42.671 220.024 42.671C222.613 42.671 223.879 43.9781 223.879 46.0131C223.879 46.1661 223.875 46.3398 223.875 46.4101V46.406Z" fill="#ADADAD"/>
<path d="M220.325 38.5224C212.198 38.5224 208.533 44.7888 208.533 50.1203C208.533 54.9431 211.32 58.951 217.736 58.951C223.767 58.951 226.905 55.9771 228.199 52.6764H222.159C221.376 53.8139 220.42 54.5088 218.193 54.5088C215.423 54.5088 214.268 52.8005 214.268 50.6373C214.268 50.4925 214.272 50.1947 214.276 50.0955H228.954C229.337 48.8629 229.445 47.9447 229.445 46.7948C229.445 42.2657 226.699 38.5266 220.321 38.5266L220.325 38.5224ZM223.875 46.406H215.13C215.711 44.2469 217.282 42.671 220.024 42.671C222.613 42.671 223.879 43.9781 223.879 46.0131C223.879 46.1661 223.875 46.3398 223.875 46.4101V46.406Z" fill="#ADADAD"/>
<path d="M118.778 38.5307C111.593 38.5307 109.453 41.8521 108.783 44.6812H114.771C115.252 43.2956 116.394 42.547 118.645 42.547C121.517 42.547 122.283 43.8788 121.923 45.4712L121.84 45.8518C120.495 45.8848 118.385 45.9179 116.874 46.0668C111.974 46.5259 106.3 47.7006 106.3 53.2927C106.3 55.7331 107.823 58.951 112.864 58.951C116.357 58.951 118.405 57.8094 119.692 56.0888C119.56 56.6927 119.427 57.8094 119.419 58.4257H125.139C125.217 57.5902 125.565 55.8158 126.136 53.2017L127.552 46.5921C128.408 42.6628 127.303 38.5224 118.778 38.5224V38.5307ZM120.992 49.7728C120.16 53.0983 118.24 54.5708 115.045 54.5708C113.203 54.5708 112.309 53.7725 112.309 52.6558C112.309 50.5174 114.966 49.9921 117.019 49.7894C118.236 49.6736 119.634 49.6033 121.046 49.5702L120.996 49.777L120.992 49.7728Z" fill="#ADADAD"/>
<path d="M118.778 38.5307C111.593 38.5307 109.453 41.8521 108.783 44.6812H114.771C115.252 43.2956 116.394 42.547 118.645 42.547C121.517 42.547 122.283 43.8788 121.923 45.4712L121.84 45.8518C120.495 45.8848 118.385 45.9179 116.874 46.0668C111.974 46.5259 106.3 47.7006 106.3 53.2927C106.3 55.7331 107.823 58.951 112.864 58.951C116.357 58.951 118.405 57.8094 119.692 56.0888C119.56 56.6927 119.427 57.8094 119.419 58.4257H125.139C125.217 57.5902 125.565 55.8158 126.136 53.2017L127.552 46.5921C128.408 42.6628 127.303 38.5224 118.778 38.5224V38.5307ZM120.992 49.7728C120.16 53.0983 118.24 54.5708 115.045 54.5708C113.203 54.5708 112.309 53.7725 112.309 52.6558C112.309 50.5174 114.966 49.9921 117.019 49.7894C118.236 49.6736 119.634 49.6033 121.046 49.5702L120.996 49.777L120.992 49.7728Z" fill="#ADADAD"/>
<path d="M138.235 43.2611H142.562L143.475 39.031H139.148L140.44 33.2694H134.545L133.252 39.031H129.867L128.954 43.2611H132.339L130.305 52.5771C129.521 56.283 130.759 58.3674 135.383 58.3674C136.771 58.3674 138.155 58.2281 139.214 57.9292L140.09 53.8342C139.556 53.9489 138.568 53.998 137.984 53.998C136.158 53.998 136.071 53.2159 136.433 51.582L138.23 43.257L138.235 43.2611Z" fill="#ADADAD"/>
<path d="M138.235 43.2611H142.562L143.475 39.031H139.148L140.44 33.2694H134.545L133.252 39.031H129.867L128.954 43.2611H132.339L130.305 52.5771C129.521 56.283 130.759 58.3674 135.383 58.3674C136.771 58.3674 138.155 58.2281 139.214 57.9292L140.09 53.8342C139.556 53.9489 138.568 53.998 137.984 53.998C136.158 53.998 136.071 53.2159 136.433 51.582L138.23 43.257L138.235 43.2611Z" fill="#ADADAD"/>
<path d="M154.688 38.5224C146.561 38.5224 142.895 44.7888 142.895 50.1203C142.895 54.9431 145.682 58.951 152.099 58.951C158.132 58.951 161.27 55.9771 162.565 52.6764H156.519C155.736 53.8139 154.779 54.5088 152.552 54.5088C149.781 54.5088 148.627 52.8005 148.627 50.6373C148.627 50.4925 148.631 50.1947 148.635 50.0955H163.315C163.699 48.8629 163.806 47.9447 163.806 46.7948C163.806 42.2657 161.06 38.5266 154.68 38.5266L154.688 38.5224ZM158.239 46.406H149.493C150.074 44.2469 151.645 42.671 154.387 42.671C156.977 42.671 158.243 43.9781 158.243 46.0131C158.243 46.1661 158.239 46.3398 158.239 46.4101V46.406Z" fill="#ADADAD"/>
<path d="M154.688 38.5224C146.561 38.5224 142.895 44.7888 142.895 50.1203C142.895 54.9431 145.682 58.951 152.099 58.951C158.132 58.951 161.27 55.9771 162.565 52.6764H156.519C155.736 53.8139 154.779 54.5088 152.552 54.5088C149.781 54.5088 148.627 52.8005 148.627 50.6373C148.627 50.4925 148.631 50.1947 148.635 50.0955H163.315C163.699 48.8629 163.806 47.9447 163.806 46.7948C163.806 42.2657 161.06 38.5266 154.68 38.5266L154.688 38.5224ZM158.239 46.406H149.493C150.074 44.2469 151.645 42.671 154.387 42.671C156.977 42.671 158.243 43.9781 158.243 46.0131C158.243 46.1661 158.239 46.3398 158.239 46.4101V46.406Z" fill="#ADADAD"/>
<path d="M89.3234 24.5101C90.4649 24.5101 91.2663 24.215 91.9075 23.8658L92.5994 19.746H89.8668C89.7104 20.1575 89.6127 20.6107 89.6361 21.1137H91.0083L90.7034 22.9595C90.375 23.0759 89.988 23.1424 89.5267 23.1424C88.2287 23.1424 87.4625 22.2403 87.4625 20.8185C87.4625 18.5071 88.7604 17.1518 90.3633 17.1518C91.0787 17.1518 91.626 17.3597 92.0404 17.7339C92.4783 17.4761 92.7793 17.0105 92.9396 16.5075C92.5017 16.0959 91.7003 15.7592 90.6682 15.7592C88.045 15.7592 85.9691 17.7713 85.9691 20.989C85.9691 23.2214 87.2318 24.5143 89.3195 24.5143L89.3234 24.5101Z" fill="#ADADAD"/>
<path d="M89.3234 24.5101C90.4649 24.5101 91.2663 24.215 91.9075 23.8658L92.5994 19.746H89.8668C89.7104 20.1575 89.6127 20.6107 89.6361 21.1137H91.0083L90.7034 22.9595C90.375 23.0759 89.988 23.1424 89.5267 23.1424C88.2287 23.1424 87.4625 22.2403 87.4625 20.8185C87.4625 18.5071 88.7604 17.1518 90.3633 17.1518C91.0787 17.1518 91.626 17.3597 92.0404 17.7339C92.4783 17.4761 92.7793 17.0105 92.9396 16.5075C92.5017 16.0959 91.7003 15.7592 90.6682 15.7592C88.045 15.7592 85.9691 17.7713 85.9691 20.989C85.9691 23.2214 87.2318 24.5143 89.3195 24.5143L89.3234 24.5101Z" fill="#ADADAD"/>
<path d="M95.0348 24.4424L95.6022 21.4046C95.9349 21.4166 96.2762 21.4285 96.5962 21.4285C97.0739 22.4704 97.6712 23.4125 98.5286 24.4664C98.648 24.4903 98.8315 24.4903 98.9936 24.4903C99.4159 24.4903 99.8553 24.4544 100.188 24.3666C99.3007 23.3247 98.6395 22.3227 98.0807 21.2409C99.4458 20.8697 100.491 19.8877 100.491 18.3508C100.491 17.1372 99.5908 16.3429 97.5901 16.3429C96.7028 16.3429 95.7771 16.4427 94.9922 16.6023L93.5204 24.4384C93.7721 24.4863 94.011 24.5143 94.2627 24.5143C94.5144 24.5143 94.7661 24.4903 95.0306 24.4384L95.0348 24.4424ZM96.3103 17.6243C96.6815 17.5883 97.0398 17.5644 97.4109 17.5644C98.4433 17.5644 98.9339 17.9596 98.9339 18.6422C98.9339 19.4965 98.3921 20.231 97.0142 20.231C96.6303 20.231 96.2336 20.231 95.8368 20.207L96.3146 17.6283L96.3103 17.6243Z" fill="#ADADAD"/>
<path d="M95.0348 24.4424L95.6022 21.4046C95.9349 21.4166 96.2762 21.4285 96.5962 21.4285C97.0739 22.4704 97.6712 23.4125 98.5286 24.4664C98.648 24.4903 98.8315 24.4903 98.9936 24.4903C99.4159 24.4903 99.8553 24.4544 100.188 24.3666C99.3007 23.3247 98.6395 22.3227 98.0807 21.2409C99.4458 20.8697 100.491 19.8877 100.491 18.3508C100.491 17.1372 99.5908 16.3429 97.5901 16.3429C96.7028 16.3429 95.7771 16.4427 94.9922 16.6023L93.5204 24.4384C93.7721 24.4863 94.011 24.5143 94.2627 24.5143C94.5144 24.5143 94.7661 24.4903 95.0306 24.4384L95.0348 24.4424ZM96.3103 17.6243C96.6815 17.5883 97.0398 17.5644 97.4109 17.5644C98.4433 17.5644 98.9339 17.9596 98.9339 18.6422C98.9339 19.4965 98.3921 20.231 97.0142 20.231C96.6303 20.231 96.2336 20.231 95.8368 20.207L96.3146 17.6283L96.3103 17.6243Z" fill="#ADADAD"/>
<path d="M103.923 24.5143C106.223 24.5143 107.327 23.3238 107.716 21.2592L108.623 16.418C108.389 16.3705 108.142 16.3429 107.908 16.3429C107.661 16.3429 107.427 16.3666 107.168 16.418L106.286 21.1721C106.064 22.3745 105.558 23.1972 104.157 23.1972C102.756 23.1972 102.405 22.3983 102.652 21.097L103.522 16.418C103.262 16.3705 103.028 16.3429 102.782 16.3429C102.535 16.3429 102.288 16.3666 102.029 16.418L101.159 21.1089C100.77 23.2842 101.678 24.5103 103.923 24.5103V24.5143Z" fill="#ADADAD"/>
<path d="M103.923 24.5143C106.223 24.5143 107.327 23.3238 107.716 21.2592L108.623 16.418C108.389 16.3705 108.142 16.3429 107.908 16.3429C107.661 16.3429 107.427 16.3666 107.168 16.418L106.286 21.1721C106.064 22.3745 105.558 23.1972 104.157 23.1972C102.756 23.1972 102.405 22.3983 102.652 21.097L103.522 16.418C103.262 16.3705 103.028 16.3429 102.782 16.3429C102.535 16.3429 102.288 16.3666 102.029 16.418L101.159 21.1089C100.77 23.2842 101.678 24.5103 103.923 24.5103V24.5143Z" fill="#ADADAD"/>
<path d="M110.69 24.4428L111.184 21.7521C111.523 21.7878 111.9 21.7997 112.327 21.7997C114.68 21.7997 116.174 20.5279 116.174 18.5646C116.174 17.1934 115.237 16.3429 113.143 16.3429C112.193 16.3429 111.364 16.4541 110.661 16.6131L109.204 24.4388C109.451 24.4865 109.685 24.5143 109.945 24.5143C110.205 24.5143 110.426 24.4904 110.686 24.4388L110.69 24.4428ZM111.955 17.6147C112.294 17.5908 112.633 17.567 112.968 17.567C114.073 17.567 114.634 18.0121 114.634 18.803C114.634 19.7768 114.01 20.5915 112.541 20.5915C112.114 20.5915 111.749 20.5677 111.423 20.5438L111.955 17.6187V17.6147Z" fill="#ADADAD"/>
<path d="M110.69 24.4428L111.184 21.7521C111.523 21.7878 111.9 21.7997 112.327 21.7997C114.68 21.7997 116.174 20.5279 116.174 18.5646C116.174 17.1934 115.237 16.3429 113.143 16.3429C112.193 16.3429 111.364 16.4541 110.661 16.6131L109.204 24.4388C109.451 24.4865 109.685 24.5143 109.945 24.5143C110.205 24.5143 110.426 24.4904 110.686 24.4388L110.69 24.4428ZM111.955 17.6147C112.294 17.5908 112.633 17.567 112.968 17.567C114.073 17.567 114.634 18.0121 114.634 18.803C114.634 19.7768 114.01 20.5915 112.541 20.5915C112.114 20.5915 111.749 20.5677 111.423 20.5438L111.955 17.6187V17.6147Z" fill="#ADADAD"/>
<path d="M119.66 24.5143C122.432 24.5143 124.307 22.4577 124.307 19.2895C124.307 17.1289 122.934 15.7592 120.795 15.7592C118.049 15.7592 116.174 17.8657 116.174 20.9964C116.174 23.1571 117.573 24.5143 119.66 24.5143ZM120.596 17.133C121.93 17.133 122.683 18.0114 122.683 19.4477C122.683 21.5668 121.718 23.1446 119.873 23.1446C118.581 23.1446 117.798 22.2537 117.798 20.8424C117.798 18.7234 118.776 17.133 120.596 17.133Z" fill="#ADADAD"/>
<path d="M119.66 24.5143C122.432 24.5143 124.307 22.4577 124.307 19.2895C124.307 17.1289 122.934 15.7592 120.795 15.7592C118.049 15.7592 116.174 17.8657 116.174 20.9964C116.174 23.1571 117.573 24.5143 119.66 24.5143ZM120.596 17.133C121.93 17.133 122.683 18.0114 122.683 19.4477C122.683 21.5668 121.718 23.1446 119.873 23.1446C118.581 23.1446 117.798 22.2537 117.798 20.8424C117.798 18.7234 118.776 17.133 120.596 17.133Z" fill="#ADADAD"/>
</g>
</svg>
