<svg width="173" height="90" viewBox="0 0 173 90" fill="none" xmlns="http://www.w3.org/2000/svg">
<g id="Vector">
<path d="M20.4575 39.1061C23.2217 39.1061 25.1597 36.9648 25.1597 34.1653V28.512H31.2715C39.7944 28.512 45.3765 21.9631 45.3765 14.1685C45.3765 7.20299 40.675 0 30.9756 0H20.4536C17.6894 0 15.752 2.14132 15.752 4.94086V34.1653C15.752 36.9648 17.6894 39.1061 20.4536 39.1061H20.4575ZM25.1597 8.80689H30.2144C34.5622 8.80689 35.9731 11.1274 35.9731 14.1644C35.9731 17.2014 34.6201 19.6426 29.9185 19.6426H25.1597V8.80689Z" fill="#ADADAD"/>
<path d="M20.4575 39.1061C23.2217 39.1061 25.1597 36.9648 25.1597 34.1653V28.512H31.2715C39.7944 28.512 45.3765 21.9631 45.3765 14.1685C45.3765 7.20299 40.675 0 30.9756 0H20.4536C17.6894 0 15.752 2.14132 15.752 4.94086V34.1653C15.752 36.9648 17.6894 39.1061 20.4536 39.1061H20.4575ZM25.1597 8.80689H30.2144C34.5622 8.80689 35.9731 11.1274 35.9731 14.1644C35.9731 17.2014 34.6201 19.6426 29.9185 19.6426H25.1597V8.80689Z" fill="#ADADAD"/>
<path d="M62.8442 8.7551C54.3655 8.7551 47.1191 14.9672 47.1191 23.9306C47.1191 32.894 53.5988 39.1061 63.4336 39.1061C67.4401 39.1061 70.9726 38.1097 73.3262 36.8222C75.5067 35.5347 75.6841 33.8945 74.7979 32.0781C73.7385 29.8516 72.2055 29.4415 69.9673 30.2616C68.199 30.9054 66.1996 31.6106 63.7842 31.6106C60.0745 31.6106 57.6592 29.9131 56.7153 26.9813H73.145C76.0881 26.9813 77.3247 24.5785 77.3247 21.8845C77.3247 13.9749 70.6675 8.7633 62.8359 8.7633L62.8442 8.7551ZM56.6616 20.7077C57.5437 17.78 59.6659 15.6683 62.7285 15.6683C66.4382 15.6683 68.4996 18.596 68.6191 20.7077H56.6616Z" fill="#ADADAD"/>
<path d="M62.8442 8.7551C54.3655 8.7551 47.1191 14.9672 47.1191 23.9306C47.1191 32.894 53.5988 39.1061 63.4336 39.1061C67.4401 39.1061 70.9726 38.1097 73.3262 36.8222C75.5067 35.5347 75.6841 33.8945 74.7979 32.0781C73.7385 29.8516 72.2055 29.4415 69.9673 30.2616C68.199 30.9054 66.1996 31.6106 63.7842 31.6106C60.0745 31.6106 57.6592 29.9131 56.7153 26.9813H73.145C76.0881 26.9813 77.3247 24.5785 77.3247 21.8845C77.3247 13.9749 70.6675 8.7633 62.8359 8.7633L62.8442 8.7551ZM56.6616 20.7077C57.5437 17.78 59.6659 15.6683 62.7285 15.6683C66.4382 15.6683 68.4996 18.596 68.6191 20.7077H56.6616Z" fill="#ADADAD"/>
<path d="M83.7554 17.9022V27.2675C83.7554 35.3963 87.6193 39.1061 95.228 39.1061H96.6904C99.325 39.1061 101.14 37.6345 101.14 34.9263C101.14 32.2181 99.325 30.6847 96.6904 30.6847H96.0474C93.7652 30.6847 92.9458 29.2708 92.9458 26.5008V17.9022H96.5762C99.2681 17.9022 101.14 16.2533 101.14 13.7224C101.14 11.1914 99.2681 9.5426 96.5762 9.5426H92.9458V4.83107C92.9458 2.06104 91.0733 0 88.3813 0C85.6894 0 83.7554 2.06104 83.7554 4.83107V9.5426H82.8784C80.2439 9.5426 78.4863 11.1914 78.4863 13.7224C78.4863 16.2533 80.2439 17.9022 82.8784 17.9022H83.7554Z" fill="#ADADAD"/>
<path d="M83.7554 17.9022V27.2675C83.7554 35.3963 87.6193 39.1061 95.228 39.1061H96.6904C99.325 39.1061 101.14 37.6345 101.14 34.9263C101.14 32.2181 99.325 30.6847 96.6904 30.6847H96.0474C93.7652 30.6847 92.9458 29.2708 92.9458 26.5008V17.9022H96.5762C99.2681 17.9022 101.14 16.2533 101.14 13.7224C101.14 11.1914 99.2681 9.5426 96.5762 9.5426H92.9458V4.83107C92.9458 2.06104 91.0733 0 88.3813 0C85.6894 0 83.7554 2.06104 83.7554 4.83107V9.5426H82.8784C80.2439 9.5426 78.4863 11.1914 78.4863 13.7224C78.4863 16.2533 80.2439 17.9022 82.8784 17.9022H83.7554Z" fill="#ADADAD"/>
<path d="M130.18 29.7342C130.18 22.9955 124.554 21.3549 119.281 19.8906C116.235 19.1278 114.713 18.5413 114.713 17.3108C114.713 16.1993 115.71 15.6702 117.408 15.6702C119.577 15.6702 121.861 16.7817 123.033 17.4872C125.083 18.5987 126.666 18.3075 128.073 16.2567C129.422 14.2634 129.011 12.6228 127.076 11.3349C124.73 9.39903 121.102 8.7551 117.76 8.7551C111.49 8.7551 105.808 11.2734 105.808 18.1885C105.808 24.6935 111.257 26.1003 115.71 27.3307C119.458 28.3274 121.159 28.9139 121.159 30.2018C121.159 31.4897 119.986 32.0762 117.879 32.0762C114.775 32.0762 112.139 30.7268 110.499 29.4389C108.916 28.2659 107.16 28.2659 105.635 30.0828C104.347 31.7234 104.114 33.7742 105.988 35.4722C107.628 37.1128 111.962 39.1061 117.94 39.1061C125.145 39.1061 130.184 36.1161 130.184 29.7301L130.18 29.7342Z" fill="#ADADAD"/>
<path d="M130.18 29.7342C130.18 22.9955 124.554 21.3549 119.281 19.8906C116.235 19.1278 114.713 18.5413 114.713 17.3108C114.713 16.1993 115.71 15.6702 117.408 15.6702C119.577 15.6702 121.861 16.7817 123.033 17.4872C125.083 18.5987 126.666 18.3075 128.073 16.2567C129.422 14.2634 129.011 12.6228 127.076 11.3349C124.73 9.39903 121.102 8.7551 117.76 8.7551C111.49 8.7551 105.808 11.2734 105.808 18.1885C105.808 24.6935 111.257 26.1003 115.71 27.3307C119.458 28.3274 121.159 28.9139 121.159 30.2018C121.159 31.4897 119.986 32.0762 117.879 32.0762C114.775 32.0762 112.139 30.7268 110.499 29.4389C108.916 28.2659 107.16 28.2659 105.635 30.0828C104.347 31.7234 104.114 33.7742 105.988 35.4722C107.628 37.1128 111.962 39.1061 117.94 39.1061C125.145 39.1061 130.184 36.1161 130.184 29.7301L130.18 29.7342Z" fill="#ADADAD"/>
<path d="M62.2632 58.951C53.7843 58.951 46.5381 65.1631 46.5381 74.1265C46.5381 83.09 53.0176 89.302 62.8525 89.302C66.8591 89.302 70.3915 88.3057 72.7451 87.0181C74.9256 85.7306 75.1035 84.0905 74.2173 82.274C73.1579 80.0475 71.6245 79.6375 69.3862 80.4575C67.6179 81.1013 65.6186 81.8065 63.2031 81.8065C59.4934 81.8065 57.0777 80.109 56.1338 77.1772H72.564C75.507 77.1772 76.7437 74.7744 76.7437 72.0804C76.7437 64.1708 70.0871 58.9592 62.2554 58.9592L62.2632 58.951ZM56.0806 70.9036C56.9627 67.976 59.0853 65.8643 62.1479 65.8643C65.8577 65.8643 67.9185 68.7919 68.0381 70.9036H56.0806Z" fill="#ADADAD"/>
<path d="M62.2632 58.951C53.7843 58.951 46.5381 65.1631 46.5381 74.1265C46.5381 83.09 53.0176 89.302 62.8525 89.302C66.8591 89.302 70.3915 88.3057 72.7451 87.0181C74.9256 85.7306 75.1035 84.0905 74.2173 82.274C73.1579 80.0475 71.6245 79.6375 69.3862 80.4575C67.6179 81.1013 65.6186 81.8065 63.2031 81.8065C59.4934 81.8065 57.0777 80.109 56.1338 77.1772H72.564C75.507 77.1772 76.7437 74.7744 76.7437 72.0804C76.7437 64.1708 70.0871 58.9592 62.2554 58.9592L62.2632 58.951ZM56.0806 70.9036C56.9627 67.976 59.0853 65.8643 62.1479 65.8643C65.8577 65.8643 67.9185 68.7919 68.0381 70.9036H56.0806Z" fill="#ADADAD"/>
<path d="M85.1953 47.2776C82.6431 47.2776 80.8096 49.3287 80.8096 52.0854V83.9721C80.8096 86.7288 82.6392 88.7184 85.1953 88.7184C87.7514 88.7184 89.5229 86.7247 89.5229 83.9721V52.0854C89.5229 49.3287 87.7475 47.2776 85.1953 47.2776Z" fill="#ADADAD"/>
<path d="M85.1953 47.2776C82.6431 47.2776 80.8096 49.3287 80.8096 52.0854V83.9721C80.8096 86.7288 82.6392 88.7184 85.1953 88.7184C87.7514 88.7184 89.5229 86.7247 89.5229 83.9721V52.0854C89.5229 49.3287 87.7475 47.2776 85.1953 47.2776Z" fill="#ADADAD"/>
<path d="M99.4287 47.2776C96.7064 47.2776 94.7505 49.3287 94.7505 52.0854V83.9721C94.7505 86.7288 96.7064 88.7184 99.4287 88.7184C102.151 88.7184 104.044 86.7247 104.044 83.9721V52.0854C104.044 49.3287 102.151 47.2776 99.4287 47.2776Z" fill="#ADADAD"/>
<path d="M99.4287 47.2776C96.7064 47.2776 94.7505 49.3287 94.7505 52.0854V83.9721C94.7505 86.7288 96.7064 88.7184 99.4287 88.7184C102.151 88.7184 104.044 86.7247 104.044 83.9721V52.0854C104.044 49.3287 102.151 47.2776 99.4287 47.2776Z" fill="#ADADAD"/>
<path d="M124.113 58.951C115.002 58.951 108.111 65.3353 108.111 74.1265C108.111 82.9177 115.002 89.302 124.113 89.302C133.224 89.302 140.059 82.9752 140.059 74.1265C140.059 65.2779 133.167 58.951 124.113 58.951ZM124.113 81.0972C119.85 81.0972 117.34 77.9932 117.34 74.1265C117.34 70.2599 119.85 67.0944 124.113 67.0944C128.377 67.0944 130.829 70.3173 130.829 74.1265C130.829 77.9358 128.319 81.0972 124.113 81.0972Z" fill="#ADADAD"/>
<path d="M124.113 58.951C115.002 58.951 108.111 65.3353 108.111 74.1265C108.111 82.9177 115.002 89.302 124.113 89.302C133.224 89.302 140.059 82.9752 140.059 74.1265C140.059 65.2779 133.167 58.951 124.113 58.951ZM124.113 81.0972C119.85 81.0972 117.34 77.9932 117.34 74.1265C117.34 70.2599 119.85 67.0944 124.113 67.0944C128.377 67.0944 130.829 70.3173 130.829 74.1265C130.829 77.9358 128.319 81.0972 124.113 81.0972Z" fill="#ADADAD"/>
<path d="M161.227 58.951C157.458 58.951 154.618 60.5848 152.938 62.5126H152.588V62.4555C152.126 60.4132 150.442 59.4207 148.706 59.4207C145.979 59.4207 144.125 61.463 144.125 64.2077V83.9314C144.125 86.6761 145.923 88.7184 148.645 88.7184C151.368 88.7184 153.226 86.6761 153.226 83.9314V71.3269C153.226 69.5175 154.849 67.124 158.618 67.124C161.576 67.124 163.487 68.3493 163.487 72.6665V83.9314C163.487 86.6761 165.341 88.7184 168.067 88.7184C170.794 88.7184 172.587 86.6761 172.587 83.9314V71.094C172.587 62.4555 167.139 58.9551 161.227 58.9551V58.951Z" fill="#ADADAD"/>
<path d="M161.227 58.951C157.458 58.951 154.618 60.5848 152.938 62.5126H152.588V62.4555C152.126 60.4132 150.442 59.4207 148.706 59.4207C145.979 59.4207 144.125 61.463 144.125 64.2077V83.9314C144.125 86.6761 145.923 88.7184 148.645 88.7184C151.368 88.7184 153.226 86.6761 153.226 83.9314V71.3269C153.226 69.5175 154.849 67.124 158.618 67.124C161.576 67.124 163.487 68.3493 163.487 72.6665V83.9314C163.487 86.6761 165.341 88.7184 168.067 88.7184C170.794 88.7184 172.587 86.6761 172.587 83.9314V71.094C172.587 62.4555 167.139 58.9551 161.227 58.9551V58.951Z" fill="#ADADAD"/>
<path d="M23.1992 51.2034C17.7958 51.2034 12.8947 53.4022 9.31299 56.967V52.0854C9.31299 49.3287 7.42959 47.2776 4.72168 47.2776C2.01377 47.2776 0.0683594 49.3287 0.0683594 52.0854V83.9721C0.0683594 86.7288 2.00964 88.7184 4.72168 88.7184C7.43372 88.7184 9.31299 86.7247 9.31299 83.9721L9.32568 70.7875H9.34619C9.56052 67.8134 11.9678 65.4669 14.9106 65.4669C17.8535 65.4669 20.2562 67.8134 20.4746 70.7875H20.4951V83.9721C20.4951 86.7288 22.4405 88.7184 25.1484 88.7184C27.8564 88.7184 29.7397 86.7247 29.7397 83.9721V68.8799C29.7397 67.7272 30.647 66.7919 31.7681 66.7919C32.8892 66.7919 33.7959 67.7272 33.7959 68.8799L33.8081 83.968C33.8081 86.7247 35.7494 88.7143 38.4614 88.7143C41.1735 88.7143 43.0532 86.7206 43.0532 83.968C43.0532 83.968 42.9704 68.7035 42.8262 68.2154C41.3053 58.571 33.0994 51.1993 23.1992 51.1993V51.2034Z" fill="#ADADAD"/>
<path d="M23.1992 51.2034C17.7958 51.2034 12.8947 53.4022 9.31299 56.967V52.0854C9.31299 49.3287 7.42959 47.2776 4.72168 47.2776C2.01377 47.2776 0.0683594 49.3287 0.0683594 52.0854V83.9721C0.0683594 86.7288 2.00964 88.7184 4.72168 88.7184C7.43372 88.7184 9.31299 86.7247 9.31299 83.9721L9.32568 70.7875H9.34619C9.56052 67.8134 11.9678 65.4669 14.9106 65.4669C17.8535 65.4669 20.2562 67.8134 20.4746 70.7875H20.4951V83.9721C20.4951 86.7288 22.4405 88.7184 25.1484 88.7184C27.8564 88.7184 29.7397 86.7247 29.7397 83.9721V68.8799C29.7397 67.7272 30.647 66.7919 31.7681 66.7919C32.8892 66.7919 33.7959 67.7272 33.7959 68.8799L33.8081 83.968C33.8081 86.7247 35.7494 88.7143 38.4614 88.7143C41.1735 88.7143 43.0532 86.7206 43.0532 83.968C43.0532 83.968 42.9704 68.7035 42.8262 68.2154C41.3053 58.571 33.0994 51.1993 23.1992 51.1993V51.2034Z" fill="#ADADAD"/>
<path d="M50.5977 56.2586C56.062 58.3519 60.9902 55.2858 61.5796 49.7198C61.6205 49.3381 61.6411 48.9933 61.6411 48.6732C61.6452 47.4787 60.6257 46.5428 59.4346 46.6085C59.1521 46.6249 58.8656 46.6331 58.5791 46.6331C50.7981 46.6331 44.814 42.5039 43.4756 35.0703C43.1359 33.174 41.6663 32.353 40.7822 34.7337C40.3852 35.8009 38.4491 42.7009 33.3081 48.5582C33.0871 48.8086 33.157 49.2027 33.4517 49.3627C39.1738 52.4864 42.0426 56.6198 42.9922 58.1631C43.16 58.4381 43.5614 58.434 43.7251 58.159C44.5028 56.8578 43.983 57.6542 44.6665 56.6075C45.7553 54.9492 48.5061 55.4582 50.5977 56.2627V56.2586Z" fill="#ADADAD"/>
<path d="M50.5977 56.2586C56.062 58.3519 60.9902 55.2858 61.5796 49.7198C61.6205 49.3381 61.6411 48.9933 61.6411 48.6732C61.6452 47.4787 60.6257 46.5428 59.4346 46.6085C59.1521 46.6249 58.8656 46.6331 58.5791 46.6331C50.7981 46.6331 44.814 42.5039 43.4756 35.0703C43.1359 33.174 41.6663 32.353 40.7822 34.7337C40.3852 35.8009 38.4491 42.7009 33.3081 48.5582C33.0871 48.8086 33.157 49.2027 33.4517 49.3627C39.1738 52.4864 42.0426 56.6198 42.9922 58.1631C43.16 58.4381 43.5614 58.434 43.7251 58.159C44.5028 56.8578 43.983 57.6542 44.6665 56.6075C45.7553 54.9492 48.5061 55.4582 50.5977 56.2627V56.2586Z" fill="#ADADAD"/>
</g>
</svg>
