<svg width="222" height="83" viewBox="0 0 222 83" fill="none" xmlns="http://www.w3.org/2000/svg">
<g id="Vector">
<path d="M203.038 30.5073C203.053 30.3217 203.076 30.0975 203.099 29.8577C203.13 29.5252 203.122 29.1308 203.161 28.7287C203.2 28.3188 203.284 27.8935 203.323 27.4527C203.346 27.1743 203.323 26.8727 203.354 26.5943C203.385 26.2695 203.462 25.9602 203.485 25.6432C203.531 25.1328 203.578 24.6456 203.616 24.2125C203.655 23.7949 203.686 23.4237 203.717 23.1221C203.763 22.6582 203.786 22.372 203.786 22.3566C203.786 21.9235 203.462 21.5832 203.045 21.5987C202.629 21.6142 202.359 21.9854 202.351 22.4107L202.274 23.0293L202.32 24.3672L202.235 25.6509L202.212 27.0738L202.158 29.85V30.5228L202.135 31.2652C202.143 31.8142 202.891 31.8142 202.953 31.2729C202.953 31.2652 202.984 30.9636 203.022 30.4841L203.038 30.5073Z" fill="#ADADAD"/>
<path d="M196.642 33.5696C196.642 33.5696 196.449 33.3376 196.155 32.9819C196.04 32.8427 195.909 32.6803 195.762 32.5025C195.554 32.255 195.322 31.9689 195.075 31.675C194.828 31.3734 194.512 31.1182 194.242 30.7857C194.072 30.5769 193.941 30.2985 193.771 30.0897C193.571 29.85 193.332 29.6799 193.139 29.4401C192.83 29.0612 192.576 28.6359 192.305 28.3111C192.051 28.0018 191.819 27.7234 191.642 27.4991C191.357 27.1511 191.156 26.9887 191.148 26.981C190.863 26.6871 190.392 26.6098 190.091 26.9269C189.79 27.2439 189.798 27.7775 190.091 28.0714L190.531 28.4426L191.418 29.3551L192.259 30.2985L193.208 31.2729L194.011 32.1003L194.566 32.6185L195.091 33.1598L195.538 33.6238L196.009 34.1651C196.387 34.5286 196.942 33.9795 196.618 33.5696H196.642Z" fill="#ADADAD"/>
<path d="M212.929 30.747L213.862 29.8655L214.927 29.0535L215.359 28.605C215.691 28.3266 215.799 27.878 215.544 27.5455C215.29 27.213 214.819 27.1743 214.495 27.4527C214.487 27.4527 214.279 27.6615 213.947 27.9863C213.731 28.1951 213.469 28.458 213.168 28.7519C212.859 29.0612 212.512 29.4015 212.149 29.7649C211.926 29.9892 211.733 30.2444 211.501 30.4686C211.301 30.6697 211.062 30.8398 210.861 31.0409C210.545 31.3502 210.275 31.6905 209.981 31.9766C209.696 32.2627 209.387 32.5025 209.148 32.7345C208.978 32.9046 208.824 33.0593 208.685 33.1907C208.338 33.531 208.13 33.7398 208.122 33.7475C207.744 34.1419 208.222 34.7142 208.647 34.3816L209.218 33.9022L209.735 33.4691L210.329 32.9587L210.938 32.4483L211.856 31.675L212.944 30.7548L212.929 30.747Z" fill="#ADADAD"/>
<path d="M219.649 40.9548C219.703 40.5218 219.348 40.2047 218.939 40.166C218.931 40.166 218.677 40.1196 218.229 40.1119C217.944 40.1119 217.589 40.1119 217.18 40.1119C216.763 40.1119 216.269 40.1892 215.783 40.1815C215.482 40.1815 215.197 40.1042 214.881 40.1042C214.611 40.1042 214.31 40.1815 214.04 40.1815C213.615 40.1815 213.222 40.1042 212.828 40.0964C212.443 40.0964 212.08 40.0964 211.756 40.0964C211.524 40.0964 211.316 40.0964 211.139 40.0964C210.676 40.0964 210.39 40.0964 210.383 40.0964C209.858 40.1119 209.789 40.8852 210.305 40.9548L211.023 40.978L211.663 41.0321L212.412 41.094L213.168 41.2023L214.31 41.3028L215.668 41.4188L216.933 41.4729L218.198 41.5812L218.769 41.6895C219.178 41.7281 219.602 41.3956 219.656 40.9625L219.649 40.9548Z" fill="#ADADAD"/>
<path d="M212.527 36.7093L213.561 36.3536L215.128 35.9128L216.987 35.24L218.669 34.66L220.397 34.0568L221.207 33.8094C221.77 33.616 222.164 32.9587 221.932 32.4174C221.67 31.791 221.215 31.59 220.652 31.7833C220.636 31.7833 220.251 31.8915 219.656 32.1467C219.278 32.3091 218.808 32.5179 218.275 32.7499C217.72 32.9897 217.103 33.2603 216.462 33.5464C216.061 33.7243 215.66 33.9022 215.243 34.08C214.881 34.2347 214.533 34.4744 214.179 34.6368C213.615 34.8843 213.052 35.0467 212.535 35.2709C212.026 35.4952 211.555 35.7891 211.131 35.9747C210.83 36.1061 210.537 36.1448 210.298 36.2531C209.688 36.5237 209.31 36.6861 209.295 36.6938C208.616 37.0186 208.94 38.0394 209.657 37.8151L211.509 37.181L212.52 36.7325L212.527 36.7093Z" fill="#ADADAD"/>
<path d="M199.411 31.0641C199.342 30.8089 199.188 30.5614 199.095 30.2444C198.972 29.7959 198.902 29.2545 198.748 28.7132C198.594 28.1719 198.362 27.6306 198.2 27.0351C198.092 26.6562 198.061 26.2386 197.953 25.8597C197.83 25.4266 197.714 24.9936 197.598 24.576C197.405 23.8955 197.228 23.2459 197.066 22.6659C196.912 22.1091 196.773 21.6064 196.657 21.2121C196.48 20.5934 196.31 20.2222 196.31 20.2067C196.101 19.65 195.662 19.4257 195.006 19.6113C194.435 19.7814 194.18 20.5006 194.389 21.0574L194.713 21.8462L195.963 25.2488L196.618 27.1202L197.266 28.6204L197.645 29.6489L197.938 30.7238L198.262 31.5977L198.617 32.5643C198.902 33.2603 199.897 32.8659 199.712 32.1313C199.712 32.1158 199.597 31.7214 199.419 31.0718L199.411 31.0641Z" fill="#ADADAD"/>
<path d="M211.409 20.0443C210.876 19.8201 210.251 20.0907 210.012 20.6553L209.657 21.475L208.87 23.1995L208.145 24.893L207.397 26.7722L206.78 28.3884L206.293 29.4556L205.9 30.4532L205.522 31.3348L205.051 32.2627C204.766 32.9897 205.707 33.4304 206.085 32.7499C206.085 32.7345 206.286 32.3555 206.602 31.7524C206.726 31.5126 206.872 31.242 207.026 30.9404C207.25 30.515 207.497 30.0356 207.759 29.5252C208.029 29.0071 208.315 28.4658 208.6 27.9012C208.786 27.5455 208.971 27.1821 209.156 26.8263C209.372 26.4165 209.596 26.0298 209.804 25.6354C210.136 24.9936 210.46 24.3749 210.745 23.8259C211.023 23.2923 211.301 22.8206 211.494 22.4416C211.802 21.8539 211.972 21.4672 211.972 21.4518C212.211 20.8873 211.941 20.2531 211.409 20.0289V20.0443Z" fill="#ADADAD"/>
<path d="M64.107 30.1593V30.8166C57.2249 30.8166 53.4983 29.5484 51.5772 23.8413C49.4632 17.678 47.5421 16.5644 43.7384 16.5644H42.666V22.8824C42.666 26.0762 42.7431 27.7388 43.0132 30.8166H37.0569C37.3269 27.7388 37.4041 26.0762 37.4041 22.8824V7.93422C37.4041 4.74043 37.3269 3.0778 37.0569 0H45.4358C52.5879 0 58.8451 1.46157 58.8451 8.28221C58.8451 14.0975 54.2699 16.0231 48.5065 16.4484C52.0787 17.1057 55.1186 18.9153 57.0011 23.5784C58.9222 28.5122 60.6119 30.1671 64.1147 30.1671L64.107 30.1593ZM42.6583 15.8298H45.3895C49.5789 15.8298 53.4983 14.2909 53.4983 8.28221C53.4983 2.27355 49.5789 0.73465 45.3895 0.73465H42.6583V15.8375V15.8298Z" fill="#ADADAD"/>
<path d="M67.0697 30.8166C67.3783 27.7388 67.494 26.0762 67.494 22.8824V7.93422C67.494 4.74043 67.3783 3.0778 67.0697 0H86.7053L84.707 2.66021C81.5206 1.00531 78.0564 0.73465 76.0967 0.73465H72.7173V14.1749H74.9856C77.0225 14.1749 79.0979 14.1749 82.6701 13.7882V15.2885C79.0979 14.9018 77.0225 14.9018 74.9856 14.9018H72.7173V30.082H76.521C80.4404 30.082 82.9016 29.85 87.6311 28.2338L86.3658 30.8166H67.0697Z" fill="#ADADAD"/>
<path d="M90.9719 30.8166C91.2419 27.7388 91.3191 26.0762 91.3191 22.8824V7.93422C91.3191 4.74043 91.2419 3.0778 90.9719 0H97.1596L114.149 29.2004L114.226 29.2391V7.93422C114.226 4.74043 114.11 3.0778 113.84 0H115.221C114.913 3.08553 114.836 4.74043 114.836 7.93422V22.8824C114.836 26.0762 114.913 27.7388 115.221 30.8166H108.995L92.0443 1.61623L91.9672 1.57756V22.8824C91.9672 26.0762 92.0443 27.7388 92.3144 30.8166H90.9719Z" fill="#ADADAD"/>
<path d="M140.242 26.4242C140.782 28.3498 141.168 29.3164 141.97 30.8166H135.513C135.397 28.9684 135.165 28.1951 134.664 26.4242L132.781 19.7196H122.597L120.637 26.7335C120.213 28.1951 119.905 29.0844 119.75 30.8166H118.446C119.334 29.0071 119.48 28.1951 119.905 26.7722L126.671 2.46688C126.902 1.50023 126.941 1.00531 126.632 0H132.897L140.234 26.4242H140.242ZM132.596 18.9926L127.674 1.3533L122.79 18.9926H132.596Z" fill="#ADADAD"/>
<path d="M148.274 30.8166C148.544 27.7388 148.621 26.0762 148.621 22.8824V0.73465H148.158C146.198 0.73465 143.429 1.00531 140.204 2.66021L138.205 0H164.299L162.3 2.66021C159.075 1.00531 156.306 0.73465 154.346 0.73465H153.883V22.8824C153.883 26.0762 153.96 27.7388 154.23 30.8166H148.274Z" fill="#ADADAD"/>
<path d="M182.669 26.4242C183.209 28.3498 183.595 29.3164 184.397 30.8166H177.939C177.824 28.9684 177.592 28.1951 177.091 26.4242L175.208 19.7196H165.024L163.064 26.7335C162.64 28.1951 162.331 29.0844 162.177 30.8166H160.873C161.76 29.0071 161.907 28.1951 162.331 26.7722L169.098 2.46688C169.329 1.50023 169.368 1.00531 169.059 0H175.324L182.661 26.4242H182.669ZM175.023 18.9926L170.101 1.3533L165.217 18.9926H175.023Z" fill="#ADADAD"/>
<path d="M0.524645 51.41C0.524645 40.9471 8.15514 34.1806 17.591 34.1806C24.3806 34.1806 28.9943 37.7919 31.849 43.6769L26.3557 45.2312C25.2215 39.4314 22.5829 34.9771 17.591 34.9771C10.8401 34.9771 6.73551 42.1612 6.73551 51.0311C6.73551 59.901 10.6318 67.7579 19.273 67.7579C26.1937 67.7579 30.846 62.8396 32.7286 54.4801H33.3998C31.3475 63.6439 26.4406 69.4824 17.7222 69.4824C7.0287 69.4824 0.53236 61.873 0.53236 51.41H0.524645Z" fill="#ADADAD"/>
<path d="M57.8807 63.845C58.467 65.9484 58.8837 67.0001 59.7709 68.6318H52.7268C52.6034 66.6134 52.3488 65.7705 51.801 63.845L49.7487 56.5371H38.6386L36.5014 64.1852C36.0385 65.7783 35.7067 66.7449 35.537 68.6395H34.1096C35.0741 66.6676 35.2438 65.7783 35.699 64.2239L43.0749 37.7069C43.3295 36.6552 43.3681 36.1139 43.0363 35.0157H49.8721L57.8807 63.845ZM38.8469 55.7329H49.5404L44.1705 36.485L38.8469 55.7329Z" fill="#ADADAD"/>
<path d="M63.5823 68.6395C63.9141 65.2756 64.0453 63.4738 64.0453 59.9861V43.6846C64.0453 40.197 63.9604 38.3874 63.6672 35.0312H70.1635C69.8704 38.3951 69.7855 40.197 69.7855 43.6846V67.843H72.9719C77.2925 67.843 79.9312 67.5878 85.1313 65.8247L83.7503 68.6395H63.5823Z" fill="#ADADAD"/>
<path d="M88.5724 68.6395C88.8656 65.2756 88.9505 63.4738 88.9505 59.9861V43.6846C88.9505 40.197 88.8656 38.3874 88.5724 35.0312H98.803C109.62 35.0312 116.541 40.5372 116.541 51.8431C116.541 63.149 109.836 68.655 98.803 68.655H88.5724V68.6395ZM94.6907 67.843H98.6332C105.554 67.843 110.33 62.337 110.33 51.8354C110.33 41.3337 105.554 35.8277 98.6332 35.8277H94.6907V67.8507V67.843Z" fill="#ADADAD"/>
<path d="M120.607 68.6395C120.938 65.2756 121.07 63.4738 121.07 59.9861V43.6846C121.07 40.197 120.946 38.3874 120.607 35.0312H142.032L139.849 37.9311C136.369 36.1216 132.596 35.8277 130.459 35.8277H126.771V50.4898H129.248C131.47 50.4898 133.73 50.4898 137.634 50.0722V51.7116C133.738 51.294 131.47 51.294 129.248 51.294H126.771V67.8507H130.922C135.196 67.8507 137.881 67.5955 143.035 65.8324L141.654 68.6473H120.607V68.6395Z" fill="#ADADAD"/>
<path d="M146.685 68.6395C146.978 65.2756 147.063 63.4738 147.063 59.9861V43.6846C147.063 40.197 146.978 38.3874 146.685 35.0312H153.181C152.888 38.3951 152.803 40.197 152.803 43.6846V59.9861C152.803 63.4738 152.888 65.2833 153.181 68.6395H146.685Z" fill="#ADADAD"/>
<path d="M187.599 67.9203V68.6318C180.092 68.6318 176.026 67.2476 173.935 61.0224C171.628 54.3022 169.53 53.0804 165.387 53.0804H164.214V59.9707C164.214 63.4583 164.299 65.2679 164.592 68.6241H158.096C158.389 65.2601 158.474 63.4583 158.474 59.9707V43.6692C158.474 40.1815 158.389 38.3719 158.096 35.0157H167.238C175.039 35.0157 181.867 36.6088 181.867 44.0481C181.867 50.397 176.875 52.4927 170.587 52.9567C174.483 53.6681 177.801 55.6478 179.853 60.7285C181.951 66.1108 183.795 67.9126 187.607 67.9126L187.599 67.9203ZM164.206 52.2916H167.184C171.752 52.2916 176.034 50.6135 176.034 44.0558C176.034 37.4981 171.759 35.82 167.184 35.82H164.206V52.2916Z" fill="#ADADAD"/>
<path d="M213.97 63.845C214.557 65.9484 214.973 67.0001 215.861 68.6318H208.816C208.693 66.6134 208.438 65.7705 207.891 63.845L205.838 56.5371H194.728L192.591 64.1852C192.128 65.7783 191.796 66.7449 191.627 68.6395H190.199C191.164 66.6676 191.333 65.7783 191.789 64.2239L199.164 37.7069C199.419 36.6552 199.458 36.1139 199.126 35.0157H205.962L213.97 63.845ZM194.936 55.7329H205.63L200.26 36.485L194.936 55.7329Z" fill="#ADADAD"/>
<path d="M0 21.6528C0.1003 20.5161 0.131161 19.9052 0.131161 18.7297V13.2237C0.131161 12.0483 0.1003 11.4373 0 10.3006H3.45648C7.11357 10.3006 9.45132 12.1565 9.45132 15.9767C9.45132 19.7969 7.18301 21.6528 3.45648 21.6528H0ZM2.06772 21.3822H3.40248C5.74023 21.3822 7.35274 19.5262 7.35274 15.9767C7.35274 12.4272 5.74023 10.5712 3.40248 10.5712H2.06772V21.3899V21.3822Z" fill="#ADADAD"/>
<path d="M20.7852 21.4054V21.6451C18.2468 21.6451 16.8735 21.1734 16.1714 19.0777C15.3922 16.8042 14.6823 16.3943 13.2859 16.3943H12.8924V18.722C12.8924 19.8974 12.9232 20.5083 13.0235 21.6451H10.8247C10.925 20.5083 10.9558 19.8974 10.9558 18.722V13.216C10.9558 12.0405 10.925 11.4296 10.8247 10.2928H13.9108C16.5417 10.2928 18.8564 10.8342 18.8564 13.3474C18.8564 15.4895 17.1744 16.201 15.045 16.3556C16.3643 16.5954 17.483 17.2604 18.1774 18.9849C18.8872 20.8022 19.5122 21.4131 20.8006 21.4131L20.7852 21.4054ZM12.8847 16.1236H13.8877C15.4307 16.1236 16.8735 15.5591 16.8735 13.3397C16.8735 11.1203 15.4307 10.5558 13.8877 10.5558H12.8847V16.1236Z" fill="#ADADAD"/>
<path d="M29.6887 20.0289C29.8893 20.7403 30.0282 21.0961 30.3291 21.6451H27.9528C27.9142 20.9646 27.8216 20.6785 27.6442 20.0289L26.9498 17.562H23.2001L22.4749 20.1449C22.3206 20.6862 22.2048 21.011 22.1508 21.6528H21.6725C21.9965 20.9878 22.0582 20.6862 22.2125 20.1603L24.7046 11.2053C24.7895 10.8496 24.8049 10.664 24.6892 10.3006H26.9961L29.7042 20.0366L29.6887 20.0289ZM23.2618 17.2913H26.8726L25.0595 10.7878L23.2618 17.2913Z" fill="#ADADAD"/>
<path d="M32.96 21.9312L32.0265 20.9955L32.96 20.0443L33.909 20.9955L32.96 21.9312Z" fill="#ADADAD"/>
<path d="M57.4563 82.3195C57.0628 81.8632 56.87 81.2136 56.87 80.3785C56.87 79.5433 57.0628 78.8937 57.4563 78.4452C57.8498 77.9966 58.4053 77.7724 59.1228 77.7724C59.4315 77.7724 59.7169 77.811 59.9793 77.8961C60.2416 77.9812 60.4653 78.0972 60.6505 78.2441L60.4499 78.5921C60.041 78.3446 59.6012 78.2209 59.1306 78.2209C58.5673 78.2209 58.1353 78.4065 57.8267 78.7854C57.5181 79.1643 57.3715 79.6979 57.3715 80.3939C57.3715 81.0899 57.5258 81.6235 57.8344 81.9947C58.143 82.3659 58.5905 82.5515 59.1691 82.5515C59.4006 82.5515 59.6398 82.5128 59.879 82.4432C60.1181 82.3736 60.3264 82.2808 60.4962 82.1571V80.1774H60.9668V82.3813C60.3882 82.7912 59.7709 82.9923 59.1151 82.9923C58.3976 82.9923 57.8498 82.768 57.4563 82.3117V82.3195Z" fill="#ADADAD"/>
<path d="M65.488 82.4973V82.9227H62.6333V77.8497H65.4186V78.2673H63.1117V80.1387H65.1254V80.5641H63.1117V82.4896H65.4803L65.488 82.4973Z" fill="#ADADAD"/>
<path d="M69.9012 82.9227L68.6822 80.912H67.5249V82.9227H67.0388V77.8497H68.6436C69.1297 77.8497 69.5154 77.9889 69.7932 78.2596C70.071 78.5302 70.2098 78.9092 70.2098 79.3809C70.2098 79.7675 70.1172 80.0923 69.9321 80.3475C69.7469 80.6027 69.4846 80.7728 69.1451 80.8579L70.4181 82.9227H69.8935H69.9012ZM67.5249 80.4867H68.6436C68.9754 80.4867 69.2377 80.3862 69.4306 80.1929C69.6235 79.9995 69.716 79.7211 69.716 79.3731C69.716 79.0252 69.6235 78.7545 69.4306 78.5534C69.2377 78.3601 68.9754 78.2596 68.6436 78.2596H67.5249V80.4867Z" fill="#ADADAD"/>
<path d="M71.668 77.8497H72.1541V82.9227H71.668V77.8497Z" fill="#ADADAD"/>
<path d="M76.4593 81.407H74.1215L73.5583 82.9227H73.0568L74.9625 77.8497H75.626L77.524 82.9227H77.0148L76.4593 81.407ZM76.3127 81.0048L75.3174 78.2905H75.2711L74.2681 81.0048H76.3127Z" fill="#ADADAD"/>
<path d="M79.1442 78.2673H77.5008V77.8497H81.2737V78.2673H79.6303V82.9227H79.1442V78.2673Z" fill="#ADADAD"/>
<path d="M85.1854 82.9227L83.9663 80.912H82.809V82.9227H82.323V77.8497H83.9277C84.4138 77.8497 84.7996 77.9889 85.0773 78.2596C85.3551 78.5302 85.494 78.9092 85.494 79.3809C85.494 79.7675 85.4014 80.0923 85.2162 80.3475C85.031 80.6027 84.7687 80.7728 84.4292 80.8579L85.7023 82.9227H85.1776H85.1854ZM82.809 80.4867H83.9277C84.2595 80.4867 84.5218 80.3862 84.7147 80.1929C84.9076 79.9995 85.0002 79.7211 85.0002 79.3731C85.0002 79.0252 84.9076 78.7545 84.7147 78.5534C84.5218 78.3601 84.2595 78.2596 83.9277 78.2596H82.809V80.4867Z" fill="#ADADAD"/>
<path d="M86.9522 77.8497H87.4382V82.9227H86.9522V77.8497Z" fill="#ADADAD"/>
<path d="M91.7357 81.407H89.3979L88.8347 82.9227H88.3332L90.2389 77.8497H90.9024L92.8004 82.9227H92.2912L91.7357 81.407ZM91.5891 81.0048L90.5938 78.2905H90.5475L89.5445 81.0048H91.5891Z" fill="#ADADAD"/>
<path d="M95.115 80.5177H96.9127V80.9352H95.115V80.5177Z" fill="#ADADAD"/>
<path d="M100.192 82.3195C99.7983 81.8632 99.6054 81.2136 99.6054 80.3785C99.6054 79.5433 99.7983 78.8937 100.192 78.4452C100.585 77.9966 101.141 77.7724 101.858 77.7724C102.167 77.7724 102.452 77.811 102.715 77.8961C102.977 77.9812 103.201 78.0972 103.386 78.2441L103.178 78.5921C102.769 78.3446 102.337 78.2209 101.866 78.2209C101.303 78.2209 100.871 78.4065 100.562 78.7854C100.253 79.1643 100.107 79.6979 100.107 80.3939C100.107 81.0899 100.261 81.6235 100.562 81.9947C100.871 82.3659 101.31 82.5515 101.905 82.5515C102.406 82.5515 102.884 82.4045 103.324 82.1029L103.517 82.4587C103.301 82.6365 103.046 82.768 102.761 82.8608C102.475 82.9536 102.175 83 101.858 83C101.141 83 100.593 82.7757 100.199 82.3195H100.192Z" fill="#ADADAD"/>
<path d="M107.637 82.9227L106.418 80.912H105.261V82.9227H104.775V77.8497H106.379C106.866 77.8497 107.251 77.9889 107.529 78.2596C107.807 78.5302 107.946 78.9092 107.946 79.3809C107.946 79.7675 107.853 80.0923 107.668 80.3475C107.483 80.6027 107.22 80.7728 106.881 80.8579L108.154 82.9227H107.637ZM105.261 80.4867H106.379C106.711 80.4867 106.974 80.3862 107.166 80.1929C107.359 79.9995 107.452 79.7211 107.452 79.3731C107.452 79.0252 107.359 78.7545 107.166 78.5534C106.974 78.3601 106.711 78.2596 106.379 78.2596H105.261V80.4867Z" fill="#ADADAD"/>
<path d="M110.145 77.8497L111.865 82.1416H111.911L113.655 77.8497H114.326L114.465 82.9227H113.987L113.871 78.538H113.833L112.112 82.7371H111.641L109.936 78.538H109.89L109.759 82.9227H109.296L109.466 77.8497H110.145Z" fill="#ADADAD"/>
<path d="M118.585 77.8497L120.306 82.1416H120.352L122.096 77.8497H122.759L122.898 82.9227H122.42L122.304 78.538H122.265L120.545 82.7371H120.074L118.369 78.538H118.323L118.192 82.9227H117.729L117.899 77.8497H118.585Z" fill="#ADADAD"/>
<path d="M124.842 82.3195C124.449 81.8632 124.256 81.2136 124.256 80.3785C124.256 79.5433 124.449 78.8937 124.842 78.4452C125.236 77.9966 125.791 77.7724 126.509 77.7724C126.817 77.7724 127.103 77.811 127.365 77.8961C127.628 77.9812 127.851 78.0972 128.036 78.2441L127.836 78.5921C127.427 78.3446 126.987 78.2209 126.517 78.2209C125.953 78.2209 125.521 78.4065 125.213 78.7854C124.904 79.1643 124.757 79.6979 124.757 80.3939C124.757 81.0899 124.912 81.6235 125.22 81.9947C125.529 82.3659 125.976 82.5515 126.555 82.5515C126.787 82.5515 127.026 82.5128 127.265 82.4432C127.504 82.3736 127.712 82.2808 127.882 82.1571V80.1774H128.353V82.3813C127.774 82.7912 127.157 82.9923 126.501 82.9923C125.784 82.9923 125.236 82.768 124.842 82.3117V82.3195Z" fill="#ADADAD"/>
<path d="M133.684 81.6467H131.254V81.2368L133.545 77.9193H134.263V81.1982H134.973V81.6544H134.263V82.7448H133.676V81.6544L133.684 81.6467ZM133.684 81.1904V78.5457L131.856 81.1904H133.684Z" fill="#ADADAD"/>
<path d="M135.976 82.5205L136.06 81.9947C136.246 82.0875 136.446 82.1648 136.662 82.2112C136.878 82.2653 137.087 82.2885 137.295 82.2885C137.673 82.2885 137.958 82.1957 138.167 82.0179C138.375 81.84 138.475 81.5771 138.475 81.2446C138.475 80.9352 138.391 80.7032 138.213 80.5331C138.036 80.3707 137.781 80.2857 137.449 80.2857C137.295 80.2857 137.141 80.3011 136.979 80.3321C136.817 80.363 136.662 80.4094 136.531 80.4713L136.161 80.4094L136.338 77.9038H138.846V78.3988H136.824L136.724 79.9145C136.948 79.8371 137.218 79.7907 137.519 79.7907C138.012 79.7907 138.391 79.9145 138.653 80.1619C138.915 80.4094 139.046 80.7651 139.046 81.2291C139.046 81.7318 138.9 82.1184 138.599 82.3891C138.306 82.652 137.881 82.7912 137.341 82.7912C136.901 82.7912 136.439 82.6984 135.968 82.5051L135.976 82.5205Z" fill="#ADADAD"/>
<path d="M140.659 82.2808C141.23 82.1493 141.7 81.9328 142.055 81.6235C142.41 81.3142 142.642 80.943 142.742 80.4944L142.711 80.4713C142.518 80.6104 142.318 80.711 142.102 80.7883C141.886 80.8579 141.677 80.8966 141.469 80.8966C141.014 80.8966 140.659 80.7651 140.42 80.5099C140.173 80.247 140.049 79.8835 140.049 79.4041C140.049 78.9014 140.188 78.5148 140.474 78.2441C140.759 77.9734 141.16 77.842 141.685 77.842C142.21 77.842 142.626 78.0198 142.904 78.3833C143.189 78.739 143.328 79.2494 143.328 79.9145C143.328 80.6568 143.105 81.2755 142.649 81.7859C142.194 82.2885 141.569 82.6365 140.775 82.8221L140.659 82.2885V82.2808ZM142.233 80.2857C142.433 80.1929 142.619 80.0614 142.773 79.8913C142.773 79.3886 142.68 79.0097 142.495 78.739C142.31 78.4684 142.048 78.3369 141.7 78.3369C141.353 78.3369 141.091 78.4297 140.906 78.6076C140.721 78.7932 140.628 79.0484 140.628 79.3886C140.628 79.7289 140.713 79.9763 140.875 80.1542C141.045 80.3321 141.284 80.4249 141.592 80.4249C141.808 80.4249 142.017 80.3785 142.217 80.2934L142.233 80.2857Z" fill="#ADADAD"/>
<path d="M144.3 78.4065V77.9116H147.34V78.3756L145.427 82.7293H144.802L146.715 78.4065H144.3Z" fill="#ADADAD"/>
<path d="M150.496 81.6467H148.066V81.2368L150.357 77.9193H151.075V81.1982H151.784V81.6544H151.075V82.7448H150.488V81.6544L150.496 81.6467ZM150.496 81.1904V78.5457L148.667 81.1904H150.496Z" fill="#ADADAD"/>
</g>
</svg>
