<svg width="276" height="58" viewBox="0 0 276 58" fill="none" xmlns="http://www.w3.org/2000/svg">
<path d="M27.882 31.5184C30.5925 31.5184 33.0484 30.1779 34.876 27.9934C35.8329 26.8474 36.6174 25.4697 37.1759 23.9306H18.588C19.1466 25.4697 19.931 26.8474 20.8879 27.9934C22.7155 30.1779 25.1714 31.5184 27.882 31.5184Z" fill="#ADADAD"/>
<path d="M27.882 31.5184C30.5925 31.5184 33.0484 30.1779 34.876 27.9934C35.8329 26.8474 36.6174 25.4697 37.1759 23.9306H18.588C19.1466 25.4697 19.931 26.8474 20.8879 27.9934C22.7155 30.1779 25.1714 31.5184 27.882 31.5184Z" fill="#ADADAD"/>
<path d="M0 56.0327H55.7638V0H0V56.0327ZM7.42786 16.7634L48.332 16.7428C48.3934 17.3713 48.4219 18.0039 48.4219 18.6447C48.4219 22.0171 47.6166 25.2005 46.1858 28.0143C42.7887 34.7057 35.8678 39.2857 27.884 39.2857C19.9003 39.2857 12.9712 34.7057 9.5741 28.0143C8.14331 25.2005 7.33801 22.0171 7.33801 18.6447C7.33801 18.008 7.37063 17.3836 7.42786 16.7634Z" fill="#ADADAD"/>
<path d="M0 56.0327H55.7638V0H0V56.0327ZM7.42786 16.7634L48.332 16.7428C48.3934 17.3713 48.4219 18.0039 48.4219 18.6447C48.4219 22.0171 47.6166 25.2005 46.1858 28.0143C42.7887 34.7057 35.8678 39.2857 27.884 39.2857C19.9003 39.2857 12.9712 34.7057 9.5741 28.0143C8.14331 25.2005 7.33801 22.0171 7.33801 18.6447C7.33801 18.008 7.37063 17.3836 7.42786 16.7634Z" fill="#ADADAD"/>
<path d="M107.169 13.4245C100.593 13.4245 95.2631 18.9093 95.2631 25.6816C95.2631 32.454 100.593 37.9388 107.169 37.9388C113.746 37.9388 119.079 32.4499 119.079 25.6816C119.079 18.9134 113.75 13.4245 107.169 13.4245ZM107.169 33.3248C103.917 33.3248 101.274 29.9035 101.274 25.6816C101.274 21.4597 103.917 18.0385 107.169 18.0385C110.421 18.0385 113.072 21.4597 113.072 25.6816C113.072 29.9035 110.429 33.3248 107.169 33.3248Z" fill="#ADADAD"/>
<path d="M107.169 13.4245C100.593 13.4245 95.2631 18.9093 95.2631 25.6816C95.2631 32.454 100.593 37.9388 107.169 37.9388C113.746 37.9388 119.079 32.4499 119.079 25.6816C119.079 18.9134 113.75 13.4245 107.169 13.4245ZM107.169 33.3248C103.917 33.3248 101.274 29.9035 101.274 25.6816C101.274 21.4597 103.917 18.0385 107.169 18.0385C110.421 18.0385 113.072 21.4597 113.072 25.6816C113.072 29.9035 110.429 33.3248 107.169 33.3248Z" fill="#ADADAD"/>
<path d="M155.093 11.7167V13.4245C156.806 12.2528 158.782 11.5178 160.902 11.3708V7.58775H160.875C158.616 8.34869 156.624 9.80139 155.093 11.7167Z" fill="#ADADAD"/>
<path d="M155.093 11.7167V13.4245C156.806 12.2528 158.782 11.5178 160.902 11.3708V7.58775H160.875C158.616 8.34869 156.624 9.80139 155.093 11.7167Z" fill="#ADADAD"/>
<path d="M155.093 37.9347H160.902V14.0082C158.782 14.1511 156.806 14.8415 155.093 15.9527V37.9388V37.9347Z" fill="#ADADAD"/>
<path d="M155.093 37.9347H160.902V14.0082C158.782 14.1511 156.806 14.8415 155.093 15.9527V37.9388V37.9347Z" fill="#ADADAD"/>
<path d="M229.103 14.0082C226.406 14.0082 223.964 15.0662 222.138 16.7901V14.0082C219.93 14.1511 217.87 14.8415 216.085 15.9527V37.9388H222.138V23.8696C222.702 21.3409 224.927 19.4536 227.591 19.4536C230.683 19.4536 233.181 21.9905 233.181 25.1238V33.8577C233.209 33.8455 233.238 33.8332 233.266 33.8251V37.2198H239.319V24.0616H239.307C239.154 18.4814 234.644 14.0123 229.103 14.0123V14.0082Z" fill="#ADADAD"/>
<path d="M229.103 14.0082C226.406 14.0082 223.964 15.0662 222.138 16.7901V14.0082C219.93 14.1511 217.87 14.8415 216.085 15.9527V37.9388H222.138V23.8696C222.702 21.3409 224.927 19.4536 227.591 19.4536C230.683 19.4536 233.181 21.9905 233.181 25.1238V33.8577C233.209 33.8455 233.238 33.8332 233.266 33.8251V37.2198H239.319V24.0616H239.307C239.154 18.4814 234.644 14.0123 229.103 14.0123V14.0082Z" fill="#ADADAD"/>
<path d="M152.77 14.1389C152.246 14.0531 151.71 14.0082 151.158 14.0082C148.492 14.0082 146.062 15.0662 144.255 16.7901V14.0082C142.061 14.1511 140.018 14.8415 138.248 15.9527V37.9388H144.255V23.8696C144.811 21.3409 147.018 19.4536 149.66 19.4536C150.815 19.4536 151.882 19.8172 152.77 20.4341V14.1389Z" fill="#ADADAD"/>
<path d="M152.77 14.1389C152.246 14.0531 151.71 14.0082 151.158 14.0082C148.492 14.0082 146.062 15.0662 144.255 16.7901V14.0082C142.061 14.1511 140.018 14.8415 138.248 15.9527V37.9388H144.255V23.8696C144.811 21.3409 147.018 19.4536 149.66 19.4536C150.815 19.4536 151.882 19.8172 152.77 20.4341V14.1389Z" fill="#ADADAD"/>
<path d="M127.066 16.7901V14.0082C124.789 14.1511 122.662 14.8415 120.822 15.9527V37.9388H127.066V23.8696C127.644 21.3409 129.941 19.4536 132.688 19.4536C133.884 19.4536 134.998 19.8172 135.924 20.4341V14.143C135.376 14.0572 134.819 14.0123 134.25 14.0123C131.47 14.0123 128.952 15.0703 127.07 16.7942L127.066 16.7901Z" fill="#ADADAD"/>
<path d="M127.066 16.7901V14.0082C124.789 14.1511 122.662 14.8415 120.822 15.9527V37.9388H127.066V23.8696C127.644 21.3409 129.941 19.4536 132.688 19.4536C133.884 19.4536 134.998 19.8172 135.924 20.4341V14.143C135.376 14.0572 134.819 14.0123 134.25 14.0123C131.47 14.0123 128.952 15.0703 127.07 16.7942L127.066 16.7901Z" fill="#ADADAD"/>
<path d="M181.015 37.1549H187.041V5.25306H187.013C184.667 5.9754 182.606 7.35441 181.015 9.17256V15.1524C179.279 14.1427 177.274 13.5599 175.129 13.5599C168.554 13.5599 163.225 19.0144 163.225 25.7494C163.225 32.4843 168.554 37.9388 175.129 37.9388C177.274 37.9388 179.279 37.356 181.015 36.3463V37.1549ZM175.129 33.3503C171.878 33.3503 169.239 29.9479 169.239 25.7494C169.239 21.5508 171.878 18.1484 175.129 18.1484C178.381 18.1484 180.87 21.3661 181.015 25.4005V26.0941C180.87 30.1326 178.297 33.3503 175.129 33.3503Z" fill="#ADADAD"/>
<path d="M181.015 37.1549H187.041V5.25306H187.013C184.667 5.9754 182.606 7.35441 181.015 9.17256V15.1524C179.279 14.1427 177.274 13.5599 175.129 13.5599C168.554 13.5599 163.225 19.0144 163.225 25.7494C163.225 32.4843 168.554 37.9388 175.129 37.9388C177.274 37.9388 179.279 37.356 181.015 36.3463V37.1549ZM175.129 33.3503C171.878 33.3503 169.239 29.9479 169.239 25.7494C169.239 21.5508 171.878 18.1484 175.129 18.1484C178.381 18.1484 180.87 21.3661 181.015 25.4005V26.0941C180.87 30.1326 178.297 33.3503 175.129 33.3503Z" fill="#ADADAD"/>
<path d="M201.559 13.4245C194.823 13.4245 189.365 18.9093 189.365 25.6816C189.365 32.454 194.823 37.9388 201.559 37.9388C204.45 37.9388 207.107 36.9194 209.194 35.2273L205.481 31.4924C204.421 32.6315 203.054 33.3248 201.559 33.3248C198.523 33.3248 196.018 30.4896 195.591 26.8H213.708C213.737 26.4327 213.761 26.0572 213.761 25.6816C213.761 18.9093 208.298 13.4245 201.559 13.4245ZM196.063 22.5121C197.02 19.875 199.119 18.0385 201.559 18.0385C203.998 18.0385 206.097 19.875 207.05 22.5121H196.063Z" fill="#ADADAD"/>
<path d="M201.559 13.4245C194.823 13.4245 189.365 18.9093 189.365 25.6816C189.365 32.454 194.823 37.9388 201.559 37.9388C204.45 37.9388 207.107 36.9194 209.194 35.2273L205.481 31.4924C204.421 32.6315 203.054 33.3248 201.559 33.3248C198.523 33.3248 196.018 30.4896 195.591 26.8H213.708C213.737 26.4327 213.761 26.0572 213.761 25.6816C213.761 18.9093 208.298 13.4245 201.559 13.4245ZM196.063 22.5121C197.02 19.875 199.119 18.0385 201.559 18.0385C203.998 18.0385 206.097 19.875 207.05 22.5121H196.063Z" fill="#ADADAD"/>
<path d="M252.988 32.8155C251.035 32.8155 249.687 31.9147 249.633 29.8276H249.625V18.6991H255.659V14.0684H249.625V7.00408H249.601C247.2 7.72152 245.083 9.09118 243.456 10.897V14.0684H239.9V18.6991H243.456V32.1756H243.472C243.62 35.7098 246.547 38.5224 250.143 38.5224C253.74 38.5224 256.165 36.0929 256.165 36.0929L256.148 31.3888C255.499 32.3794 254.196 32.8155 252.988 32.8155Z" fill="#ADADAD"/>
<path d="M252.988 32.8155C251.035 32.8155 249.687 31.9147 249.633 29.8276H249.625V18.6991H255.659V14.0684H249.625V7.00408H249.601C247.2 7.72152 245.083 9.09118 243.456 10.897V14.0684H239.9V18.6991H243.456V32.1756H243.472C243.62 35.7098 246.547 38.5224 250.143 38.5224C253.74 38.5224 256.165 36.0929 256.165 36.0929L256.148 31.3888C255.499 32.3794 254.196 32.8155 252.988 32.8155Z" fill="#ADADAD"/>
<path d="M268.521 23.7888C265.391 22.6496 264.537 21.9951 264.537 20.7508C264.537 19.4055 265.776 18.5329 267.693 18.5329C269.789 18.5329 271.408 19.2883 272.186 19.7408L273.031 20.2256L274.605 15.8181L274.058 15.4868C272.514 14.5616 270.17 14.0082 267.792 14.0082C262.533 14.0082 258.719 17.0502 258.719 21.2437C258.719 24.3302 261.055 26.6774 265.643 28.2085C268.915 29.3357 269.519 30.1881 269.519 31.4687C269.519 33.0524 268.132 33.9573 265.709 33.9573C263.693 33.9573 261.543 33.1776 260.309 32.5151L259.473 32.0545L257.907 36.5631L258.495 36.8782C260.425 37.9245 263.022 38.5224 265.618 38.5224C271.52 38.5224 275.333 35.6097 275.333 31.1011C275.333 26.5925 271.685 24.8634 268.525 23.7767L268.521 23.7888Z" fill="#ADADAD"/>
<path d="M268.521 23.7888C265.391 22.6496 264.537 21.9951 264.537 20.7508C264.537 19.4055 265.776 18.5329 267.693 18.5329C269.789 18.5329 271.408 19.2883 272.186 19.7408L273.031 20.2256L274.605 15.8181L274.058 15.4868C272.514 14.5616 270.17 14.0082 267.792 14.0082C262.533 14.0082 258.719 17.0502 258.719 21.2437C258.719 24.3302 261.055 26.6774 265.643 28.2085C268.915 29.3357 269.519 30.1881 269.519 31.4687C269.519 33.0524 268.132 33.9573 265.709 33.9573C263.693 33.9573 261.543 33.1776 260.309 32.5151L259.473 32.0545L257.907 36.5631L258.495 36.8782C260.425 37.9245 263.022 38.5224 265.618 38.5224C271.52 38.5224 275.333 35.6097 275.333 31.1011C275.333 26.5925 271.685 24.8634 268.525 23.7767L268.521 23.7888Z" fill="#ADADAD"/>
<path d="M83.6574 16.7787C79.2151 15.1122 77.3652 14.0332 77.3652 11.6292C77.3652 9.22529 79.4142 7.71711 82.583 7.71711C85.7519 7.71711 88.3525 8.92532 89.5595 9.65025L90.302 10.0919L92.3302 4.25494L91.8449 3.95497C89.6134 2.57177 86.2041 1.75101 82.7324 1.75101C75.1545 1.75101 69.6544 6.22975 69.6544 12.4C69.6544 16.9204 73.0309 20.3742 79.6838 22.6573C84.2671 24.2822 85.8099 25.6695 85.8099 28.1526C85.8099 30.8649 83.4997 32.4855 79.6216 32.4855C76.4984 32.4855 73.1843 31.2523 71.2971 30.1941L70.5587 29.7816L68.543 35.7685L69.0573 36.056C71.8819 37.6225 75.6812 38.5224 79.4763 38.5224C88.0041 38.5224 93.5205 34.2312 93.5205 27.5943C93.5205 20.9575 88.2528 18.4036 83.6613 16.7829L83.6574 16.7787Z" fill="#ADADAD"/>
<path d="M83.6574 16.7787C79.2151 15.1122 77.3652 14.0332 77.3652 11.6292C77.3652 9.22529 79.4142 7.71711 82.583 7.71711C85.7519 7.71711 88.3525 8.92532 89.5595 9.65025L90.302 10.0919L92.3302 4.25494L91.8449 3.95497C89.6134 2.57177 86.2041 1.75101 82.7324 1.75101C75.1545 1.75101 69.6544 6.22975 69.6544 12.4C69.6544 16.9204 73.0309 20.3742 79.6838 22.6573C84.2671 24.2822 85.8099 25.6695 85.8099 28.1526C85.8099 30.8649 83.4997 32.4855 79.6216 32.4855C76.4984 32.4855 73.1843 31.2523 71.2971 30.1941L70.5587 29.7816L68.543 35.7685L69.0573 36.056C71.8819 37.6225 75.6812 38.5224 79.4763 38.5224C88.0041 38.5224 93.5205 34.2312 93.5205 27.5943C93.5205 20.9575 88.2528 18.4036 83.6613 16.7829L83.6574 16.7787Z" fill="#ADADAD"/>
<path d="M72.9762 46.4473C73.6724 46.4473 74.2606 46.6007 74.6687 46.7986L74.9326 45.9061C74.6445 45.7567 73.9844 45.5265 72.9362 45.5265C70.3275 45.5265 68.543 47.3276 68.543 49.9848C68.543 52.6421 70.3276 54.2816 72.7002 54.2816C73.7245 54.2816 74.5206 54.0797 74.9207 53.8778L74.6967 53.0096C74.2605 53.2236 73.5843 53.3609 72.9241 53.3609C70.8795 53.3609 69.6914 52.0242 69.6914 49.9485C69.6914 47.7193 71.0037 46.4473 72.9762 46.4473Z" fill="#ADADAD"/>
<path d="M72.9762 46.4473C73.6724 46.4473 74.2606 46.6007 74.6687 46.7986L74.9326 45.9061C74.6445 45.7567 73.9844 45.5265 72.9362 45.5265C70.3275 45.5265 68.543 47.3276 68.543 49.9848C68.543 52.6421 70.3276 54.2816 72.7002 54.2816C73.7245 54.2816 74.5206 54.0797 74.9207 53.8778L74.6967 53.0096C74.2605 53.2236 73.5843 53.3609 72.9241 53.3609C70.8795 53.3609 69.6914 52.0242 69.6914 49.9485C69.6914 47.7193 71.0037 46.4473 72.9762 46.4473Z" fill="#ADADAD"/>
<path d="M81.3222 45.5265H80.1604V54.2816H81.3222V45.5265Z" fill="#ADADAD"/>
<path d="M81.3222 45.5265H80.1604V54.2816H81.3222V45.5265Z" fill="#ADADAD"/>
<path d="M87.1309 47.2775H87.9241L89.4544 45.5265H88.2343L87.1309 47.2775Z" fill="#ADADAD"/>
<path d="M87.1309 47.2775H87.9241L89.4544 45.5265H88.2343L87.1309 47.2775Z" fill="#ADADAD"/>
<path d="M88.2926 47.8612H87.1309V54.2816H88.2926V47.8612Z" fill="#ADADAD"/>
<path d="M88.2926 47.8612H87.1309V54.2816H88.2926V47.8612Z" fill="#ADADAD"/>
<path d="M96.5977 47.8612C95.5948 47.8612 94.8898 48.4438 94.5878 49.0429H94.5639L94.5033 48.0027H93.5205C93.5568 48.5228 93.573 49.0554 93.573 49.7004V54.2816H94.6764V50.5076C94.6764 50.312 94.7007 50.1165 94.7531 49.975C94.9424 49.3384 95.5062 48.8099 96.2352 48.8099C97.2784 48.8099 97.6408 49.6504 97.6408 50.6616V54.2816H98.7484V50.5326C98.7484 48.3772 97.4394 47.8612 96.5977 47.8612Z" fill="#ADADAD"/>
<path d="M96.5977 47.8612C95.5948 47.8612 94.8898 48.4438 94.5878 49.0429H94.5639L94.5033 48.0027H93.5205C93.5568 48.5228 93.573 49.0554 93.573 49.7004V54.2816H94.6764V50.5076C94.6764 50.312 94.7007 50.1165 94.7531 49.975C94.9424 49.3384 95.5062 48.8099 96.2352 48.8099C97.2784 48.8099 97.6408 49.6504 97.6408 50.6616V54.2816H98.7484V50.5326C98.7484 48.3772 97.4394 47.8612 96.5977 47.8612Z" fill="#ADADAD"/>
<path d="M105.141 45.5265C104.803 45.5265 104.557 45.9168 104.557 46.4097C104.557 46.9027 104.789 47.2775 105.121 47.2775C105.496 47.2775 105.729 46.8924 105.719 46.4097C105.719 45.9168 105.497 45.5265 105.141 45.5265Z" fill="#ADADAD"/>
<path d="M105.141 45.5265C104.803 45.5265 104.557 45.9168 104.557 46.4097C104.557 46.9027 104.789 47.2775 105.121 47.2775C105.496 47.2775 105.729 46.8924 105.719 46.4097C105.719 45.9168 105.497 45.5265 105.141 45.5265Z" fill="#ADADAD"/>
<path d="M105.719 47.8612H104.557V54.2816H105.719V47.8612Z" fill="#ADADAD"/>
<path d="M105.719 47.8612H104.557V54.2816H105.719V47.8612Z" fill="#ADADAD"/>
<path d="M114.108 48.7516C114.693 48.7516 115.095 48.8905 115.348 49.0457L115.594 48.1798C115.297 48.0287 114.74 47.8612 114.108 47.8612C112.186 47.8612 110.947 49.2376 110.947 51.1327C110.947 53.0278 112.101 54.2816 113.878 54.2816C114.666 54.2816 115.286 54.0774 115.566 53.9263L115.387 53.0809C115.079 53.2238 114.681 53.3872 114.073 53.3872C112.904 53.3872 112.03 52.5091 112.03 51.0837C112.03 49.7971 112.759 48.7516 114.108 48.7516Z" fill="#ADADAD"/>
<path d="M114.108 48.7516C114.693 48.7516 115.095 48.8905 115.348 49.0457L115.594 48.1798C115.297 48.0287 114.74 47.8612 114.108 47.8612C112.186 47.8612 110.947 49.2376 110.947 51.1327C110.947 53.0278 112.101 54.2816 113.878 54.2816C114.666 54.2816 115.286 54.0774 115.566 53.9263L115.387 53.0809C115.079 53.2238 114.681 53.3872 114.073 53.3872C112.904 53.3872 112.03 52.5091 112.03 51.0837C112.03 49.7971 112.759 48.7516 114.108 48.7516Z" fill="#ADADAD"/>
<path d="M124.791 50.3716C124.791 49.1429 124.359 47.8612 122.576 47.8612C121.842 47.8612 121.144 48.0769 120.661 48.4064L120.905 49.1429C121.314 48.8621 121.877 48.6872 122.417 48.6872C123.61 48.6872 123.741 49.5986 123.741 50.1071V50.2333C121.491 50.2211 120.241 51.0307 120.241 52.5158C120.241 53.4028 120.843 54.2816 122.02 54.2816C122.854 54.2816 123.479 53.8504 123.803 53.3702H123.838L123.923 54.1392H124.888C124.814 53.7242 124.791 53.2034 124.791 52.6704V50.3716ZM123.768 52.0723C123.768 52.1862 123.741 52.3124 123.707 52.4304C123.537 52.9471 123.058 53.4557 122.298 53.4557C121.758 53.4557 121.302 53.1139 121.302 52.3897C121.302 51.1976 122.611 50.9819 123.768 51.0063V52.0723Z" fill="#ADADAD"/>
<path d="M124.791 50.3716C124.791 49.1429 124.359 47.8612 122.576 47.8612C121.842 47.8612 121.144 48.0769 120.661 48.4064L120.905 49.1429C121.314 48.8621 121.877 48.6872 122.417 48.6872C123.61 48.6872 123.741 49.5986 123.741 50.1071V50.2333C121.491 50.2211 120.241 51.0307 120.241 52.5158C120.241 53.4028 120.843 54.2816 122.02 54.2816C122.854 54.2816 123.479 53.8504 123.803 53.3702H123.838L123.923 54.1392H124.888C124.814 53.7242 124.791 53.2034 124.791 52.6704V50.3716ZM123.768 52.0723C123.768 52.1862 123.741 52.3124 123.707 52.4304C123.537 52.9471 123.058 53.4557 122.298 53.4557C121.758 53.4557 121.302 53.1139 121.302 52.3897C121.302 51.1976 122.611 50.9819 123.768 51.0063V52.0723Z" fill="#ADADAD"/>
<path d="M132.552 50.5802C131.741 50.2745 131.371 50.0462 131.371 49.5367C131.371 49.0801 131.741 48.701 132.412 48.701C132.988 48.701 133.437 48.9007 133.68 49.0556L133.964 48.2403C133.618 48.0406 133.062 47.8612 132.437 47.8612C131.099 47.8612 130.292 48.6724 130.292 49.663C130.292 50.4049 130.819 51.0123 131.935 51.4077C132.77 51.7094 133.091 52.0029 133.091 52.5369C133.091 53.0709 132.704 53.4541 131.885 53.4541C131.321 53.4541 130.729 53.2258 130.395 53.0098L130.115 53.8618C130.552 54.1145 131.177 54.2816 131.856 54.2816C133.334 54.2816 134.182 53.5193 134.182 52.4391C134.182 51.5219 133.63 50.9879 132.552 50.5802Z" fill="#ADADAD"/>
<path d="M132.552 50.5802C131.741 50.2745 131.371 50.0462 131.371 49.5367C131.371 49.0801 131.741 48.701 132.412 48.701C132.988 48.701 133.437 48.9007 133.68 49.0556L133.964 48.2403C133.618 48.0406 133.062 47.8612 132.437 47.8612C131.099 47.8612 130.292 48.6724 130.292 49.663C130.292 50.4049 130.819 51.0123 131.935 51.4077C132.77 51.7094 133.091 52.0029 133.091 52.5369C133.091 53.0709 132.704 53.4541 131.885 53.4541C131.321 53.4541 130.729 53.2258 130.395 53.0098L130.115 53.8618C130.552 54.1145 131.177 54.2816 131.856 54.2816C133.334 54.2816 134.182 53.5193 134.182 52.4391C134.182 51.5219 133.63 50.9879 132.552 50.5802Z" fill="#ADADAD"/>
<path d="M155.741 45.5265C153.364 45.5265 151.608 47.2888 151.608 49.9787C151.608 52.6685 153.258 54.2816 155.606 54.2816C157.954 54.2816 159.74 52.7331 159.74 49.8174C159.74 47.301 158.166 45.5265 155.741 45.5265ZM155.674 53.3864C153.867 53.3864 152.839 51.7652 152.839 49.9545C152.839 48.1438 153.787 46.4218 155.687 46.4218C157.586 46.4218 158.526 48.1801 158.526 49.8658C158.526 51.7894 157.493 53.3864 155.674 53.3864Z" fill="#ADADAD"/>
<path d="M155.741 45.5265C153.364 45.5265 151.608 47.2888 151.608 49.9787C151.608 52.6685 153.258 54.2816 155.606 54.2816C157.954 54.2816 159.74 52.7331 159.74 49.8174C159.74 47.301 158.166 45.5265 155.741 45.5265ZM155.674 53.3864C153.867 53.3864 152.839 51.7652 152.839 49.9545C152.839 48.1438 153.787 46.4218 155.687 46.4218C157.586 46.4218 158.526 48.1801 158.526 49.8658C158.526 51.7894 157.493 53.3864 155.674 53.3864Z" fill="#ADADAD"/>
<path d="M170.147 45.5265H169.026V49.0356H169.001C168.724 48.5604 168.088 48.1359 167.147 48.1359C165.647 48.1359 164.375 49.3394 164.387 51.2945C164.387 53.0782 165.532 54.2816 167.02 54.2816C168.023 54.2816 168.773 53.7831 169.119 53.1249H169.144L169.193 54.1453H170.196C170.159 53.7481 170.147 53.1522 170.147 52.6303V45.5265ZM169.026 51.6839C169.026 51.8514 169.013 51.9955 168.977 52.1435C168.773 52.9458 168.088 53.417 167.338 53.417C166.127 53.417 165.52 52.4356 165.52 51.2438C165.52 49.9469 166.205 48.9733 167.363 48.9733C168.202 48.9733 168.81 49.5302 168.977 50.2118C169.013 50.3442 169.026 50.5272 169.026 50.6635V51.6839Z" fill="#ADADAD"/>
<path d="M170.147 45.5265H169.026V49.0356H169.001C168.724 48.5604 168.088 48.1359 167.147 48.1359C165.647 48.1359 164.375 49.3394 164.387 51.2945C164.387 53.0782 165.532 54.2816 167.02 54.2816C168.023 54.2816 168.773 53.7831 169.119 53.1249H169.144L169.193 54.1453H170.196C170.159 53.7481 170.147 53.1522 170.147 52.6303V45.5265ZM169.026 51.6839C169.026 51.8514 169.013 51.9955 168.977 52.1435C168.773 52.9458 168.088 53.417 167.338 53.417C166.127 53.417 165.52 52.4356 165.52 51.2438C165.52 49.9469 166.205 48.9733 167.363 48.9733C168.202 48.9733 168.81 49.5302 168.977 50.2118C169.013 50.3442 169.026 50.5272 169.026 50.6635V51.6839Z" fill="#ADADAD"/>
<path d="M178.369 47.8612C176.723 47.8612 175.423 49.0656 175.423 51.1203C175.423 53.0651 176.66 54.2816 178.271 54.2816C179.708 54.2816 181.232 53.2889 181.232 51.0226C181.232 49.1429 180.078 47.8612 178.369 47.8612ZM178.318 53.4435C177.263 53.4435 176.514 52.4304 176.514 51.0836C176.514 49.9159 177.07 48.6994 178.346 48.6994C179.622 48.6994 180.126 50.0176 180.126 51.0592C180.126 52.4426 179.354 53.4435 178.318 53.4435Z" fill="#ADADAD"/>
<path d="M178.369 47.8612C176.723 47.8612 175.423 49.0656 175.423 51.1203C175.423 53.0651 176.66 54.2816 178.271 54.2816C179.708 54.2816 181.232 53.2889 181.232 51.0226C181.232 49.1429 180.078 47.8612 178.369 47.8612ZM178.318 53.4435C177.263 53.4435 176.514 52.4304 176.514 51.0836C176.514 49.9159 177.07 48.6994 178.346 48.6994C179.622 48.6994 180.126 50.0176 180.126 51.0592C180.126 52.4426 179.354 53.4435 178.318 53.4435Z" fill="#ADADAD"/>
<path d="M189.54 47.8612C188.536 47.8612 187.831 48.4438 187.528 49.0429H187.504L187.44 48.0027H186.46C186.5 48.5228 186.513 49.0554 186.513 49.7004V54.2816H187.617V50.5076C187.617 50.312 187.641 50.1165 187.693 49.975C187.879 49.3384 188.447 48.8099 189.177 48.8099C190.217 48.8099 190.584 49.6504 190.584 50.6616V54.2816H191.688V50.5326C191.688 48.3772 190.382 47.8612 189.54 47.8612Z" fill="#ADADAD"/>
<path d="M189.54 47.8612C188.536 47.8612 187.831 48.4438 187.528 49.0429H187.504L187.44 48.0027H186.46C186.5 48.5228 186.513 49.0554 186.513 49.7004V54.2816H187.617V50.5076C187.617 50.312 187.641 50.1165 187.693 49.975C187.879 49.3384 188.447 48.8099 189.177 48.8099C190.217 48.8099 190.584 49.6504 190.584 50.6616V54.2816H191.688V50.5326C191.688 48.3772 190.382 47.8612 189.54 47.8612Z" fill="#ADADAD"/>
<path d="M198.616 46.1102L197.398 46.4082V47.9026H196.335V48.7678H197.398V52.1788C197.398 52.9115 197.525 53.4661 197.88 53.8014C198.179 54.1119 198.647 54.2816 199.224 54.2816C199.706 54.2816 200.092 54.2154 200.333 54.1243L200.274 53.2757C200.115 53.313 199.874 53.3502 199.551 53.3502C198.856 53.3502 198.616 52.9114 198.616 52.1332V48.7678H200.401V47.9026H198.616V46.1102Z" fill="#ADADAD"/>
<path d="M198.616 46.1102L197.398 46.4082V47.9026H196.335V48.7678H197.398V52.1788C197.398 52.9115 197.525 53.4661 197.88 53.8014C198.179 54.1119 198.647 54.2816 199.224 54.2816C199.706 54.2816 200.092 54.2154 200.333 54.1243L200.274 53.2757C200.115 53.313 199.874 53.3502 199.551 53.3502C198.856 53.3502 198.616 52.9114 198.616 52.1332V48.7678H200.401V47.9026H198.616V46.1102Z" fill="#ADADAD"/>
<path d="M207.707 47.8612C205.897 47.8612 204.467 49.0656 204.467 51.1203C204.467 53.0651 205.832 54.2816 207.599 54.2816C209.18 54.2816 210.857 53.2889 210.857 51.0226C210.857 49.1429 209.587 47.8612 207.707 47.8612ZM207.655 53.4435C206.494 53.4435 205.671 52.4304 205.671 51.0836C205.671 49.9159 206.278 48.6994 207.681 48.6994C209.085 48.6994 209.639 50.0176 209.639 51.0592C209.639 52.4426 208.795 53.4435 207.655 53.4435Z" fill="#ADADAD"/>
<path d="M207.707 47.8612C205.897 47.8612 204.467 49.0656 204.467 51.1203C204.467 53.0651 205.832 54.2816 207.599 54.2816C209.18 54.2816 210.857 53.2889 210.857 51.0226C210.857 49.1429 209.587 47.8612 207.707 47.8612ZM207.655 53.4435C206.494 53.4435 205.671 52.4304 205.671 51.0836C205.671 49.9159 206.278 48.6994 207.681 48.6994C209.085 48.6994 209.639 50.0176 209.639 51.0592C209.639 52.4426 208.795 53.4435 207.655 53.4435Z" fill="#ADADAD"/>
<path d="M217.246 45.5265H216.085V54.2816H217.246V45.5265Z" fill="#ADADAD"/>
<path d="M217.246 45.5265H216.085V54.2816H217.246V45.5265Z" fill="#ADADAD"/>
<path d="M227.121 45.5265H225.601L224.217 47.2775H225.208L227.121 45.5265Z" fill="#ADADAD"/>
<path d="M227.121 45.5265H225.601L224.217 47.2775H225.208L227.121 45.5265Z" fill="#ADADAD"/>
<path d="M225.136 47.8612C223.326 47.8612 221.893 49.0656 221.893 51.1203C221.893 53.0651 223.257 54.2816 225.027 54.2816C226.607 54.2816 228.283 53.2889 228.283 51.0226C228.283 49.1429 227.01 47.8612 225.136 47.8612ZM225.084 53.4435C223.919 53.4435 223.097 52.4304 223.097 51.0836C223.097 49.9159 223.703 48.6994 225.11 48.6994C226.517 48.6994 227.066 50.0176 227.066 51.0592C227.066 52.4426 226.218 53.4435 225.084 53.4435Z" fill="#ADADAD"/>
<path d="M225.136 47.8612C223.326 47.8612 221.893 49.0656 221.893 51.1203C221.893 53.0651 223.257 54.2816 225.027 54.2816C226.607 54.2816 228.283 53.2889 228.283 51.0226C228.283 49.1429 227.01 47.8612 225.136 47.8612ZM225.084 53.4435C223.919 53.4435 223.097 52.4304 223.097 51.0836C223.097 49.9159 223.703 48.6994 225.11 48.6994C226.517 48.6994 227.066 50.0176 227.066 51.0592C227.066 52.4426 226.218 53.4435 225.084 53.4435Z" fill="#ADADAD"/>
<path d="M237.696 48.9759H237.672C237.404 48.4441 236.811 47.8612 235.731 47.8612C234.306 47.8612 232.93 49.0951 232.93 51.2691C232.93 53.0475 234.034 54.4005 235.579 54.4005C236.539 54.4005 237.206 53.924 237.556 53.3241H237.577V54.0431C237.577 55.6598 236.732 56.2853 235.579 56.2853C234.804 56.2853 234.162 56.047 233.754 55.779L233.47 56.6682C233.968 57.017 234.792 57.2 235.538 57.2C236.325 57.2 237.194 57.017 237.799 56.4299C238.401 55.8726 238.685 54.9706 238.685 53.4985V49.7715C238.685 48.9887 238.71 48.4696 238.739 48.0059H237.746L237.696 48.9759ZM237.569 51.6946C237.569 51.8946 237.544 52.12 237.478 52.32C237.235 53.0603 236.605 53.5113 235.908 53.5113C234.689 53.5113 234.071 52.4647 234.071 51.2053C234.071 49.7162 234.846 48.776 235.921 48.776C236.745 48.776 237.297 49.3333 237.503 50.0098C237.556 50.1672 237.569 50.3416 237.569 50.5416V51.6946Z" fill="#ADADAD"/>
<path d="M237.696 48.9759H237.672C237.404 48.4441 236.811 47.8612 235.731 47.8612C234.306 47.8612 232.93 49.0951 232.93 51.2691C232.93 53.0475 234.034 54.4005 235.579 54.4005C236.539 54.4005 237.206 53.924 237.556 53.3241H237.577V54.0431C237.577 55.6598 236.732 56.2853 235.579 56.2853C234.804 56.2853 234.162 56.047 233.754 55.779L233.47 56.6682C233.968 57.017 234.792 57.2 235.538 57.2C236.325 57.2 237.194 57.017 237.799 56.4299C238.401 55.8726 238.685 54.9706 238.685 53.4985V49.7715C238.685 48.9887 238.71 48.4696 238.739 48.0059H237.746L237.696 48.9759ZM237.569 51.6946C237.569 51.8946 237.544 52.12 237.478 52.32C237.235 53.0603 236.605 53.5113 235.908 53.5113C234.689 53.5113 234.071 52.4647 234.071 51.2053C234.071 49.7162 234.846 48.776 235.921 48.776C236.745 48.776 237.297 49.3333 237.503 50.0098C237.556 50.1672 237.569 50.3416 237.569 50.5416V51.6946Z" fill="#ADADAD"/>
<path d="M244.554 45.5265C244.212 45.5265 243.966 45.9168 243.966 46.4097C243.966 46.9027 244.202 47.2775 244.533 47.2775C244.906 47.2775 245.138 46.8924 245.128 46.4097C245.128 45.9168 244.906 45.5265 244.554 45.5265Z" fill="#ADADAD"/>
<path d="M244.554 45.5265C244.212 45.5265 243.966 45.9168 243.966 46.4097C243.966 46.9027 244.202 47.2775 244.533 47.2775C244.906 47.2775 245.138 46.8924 245.128 46.4097C245.128 45.9168 244.906 45.5265 244.554 45.5265Z" fill="#ADADAD"/>
<path d="M245.128 47.8612H243.966V54.2816H245.128V47.8612Z" fill="#ADADAD"/>
<path d="M245.128 47.8612H243.966V54.2816H245.128V47.8612Z" fill="#ADADAD"/>
<path d="M253.516 48.7516C254.106 48.7516 254.508 48.8905 254.761 49.0457L255.003 48.1798C254.71 48.0287 254.149 47.8612 253.516 47.8612C251.597 47.8612 250.356 49.2376 250.356 51.1327C250.356 53.0278 251.511 54.2816 253.286 54.2816C254.078 54.2816 254.699 54.0774 254.98 53.9263L254.796 53.0809C254.492 53.2238 254.09 53.3872 253.481 53.3872C252.315 53.3872 251.437 52.5091 251.437 51.0837C251.437 49.7971 252.17 48.7516 253.516 48.7516Z" fill="#ADADAD"/>
<path d="M253.516 48.7516C254.106 48.7516 254.508 48.8905 254.761 49.0457L255.003 48.1798C254.71 48.0287 254.149 47.8612 253.516 47.8612C251.597 47.8612 250.356 49.2376 250.356 51.1327C250.356 53.0278 251.511 54.2816 253.286 54.2816C254.078 54.2816 254.699 54.0774 254.98 53.9263L254.796 53.0809C254.492 53.2238 254.09 53.3872 253.481 53.3872C252.315 53.3872 251.437 52.5091 251.437 51.0837C251.437 49.7971 252.17 48.7516 253.516 48.7516Z" fill="#ADADAD"/>
<path d="M264.769 50.3716C264.769 49.1429 264.283 47.8612 262.279 47.8612C261.449 47.8612 260.663 48.0769 260.124 48.4064L260.393 49.1429C260.854 48.8621 261.493 48.6872 262.101 48.6872C263.444 48.6872 263.592 49.5986 263.592 50.1071V50.2333C261.058 50.2211 259.65 51.0307 259.65 52.5158C259.65 53.4028 260.328 54.2816 261.653 54.2816C262.588 54.2816 263.292 53.8504 263.657 53.3702H263.7L263.796 54.1392H264.878C264.8 53.7242 264.769 53.2034 264.769 52.6704V50.3716ZM263.618 52.0723C263.618 52.1862 263.591 52.3124 263.552 52.4304C263.361 52.9471 262.818 53.4557 261.966 53.4557C261.358 53.4557 260.841 53.1139 260.841 52.3897C260.841 51.1976 262.318 50.9819 263.618 51.0063V52.0723Z" fill="#ADADAD"/>
<path d="M264.769 50.3716C264.769 49.1429 264.283 47.8612 262.279 47.8612C261.449 47.8612 260.663 48.0769 260.124 48.4064L260.393 49.1429C260.854 48.8621 261.493 48.6872 262.101 48.6872C263.444 48.6872 263.592 49.5986 263.592 50.1071V50.2333C261.058 50.2211 259.65 51.0307 259.65 52.5158C259.65 53.4028 260.328 54.2816 261.653 54.2816C262.588 54.2816 263.292 53.8504 263.657 53.3702H263.7L263.796 54.1392H264.878C264.8 53.7242 264.769 53.2034 264.769 52.6704V50.3716ZM263.618 52.0723C263.618 52.1862 263.591 52.3124 263.552 52.4304C263.361 52.9471 262.818 53.4557 261.966 53.4557C261.358 53.4557 260.841 53.1139 260.841 52.3897C260.841 51.1976 262.318 50.9819 263.618 51.0063V52.0723Z" fill="#ADADAD"/>
<path d="M271.963 50.5802C271.153 50.2745 270.783 50.0462 270.783 49.5367C270.783 49.0801 271.153 48.701 271.819 48.701C272.395 48.701 272.847 48.9007 273.089 49.0556L273.369 48.2403C273.028 48.0406 272.477 47.8612 271.848 47.8612C270.512 47.8612 269.706 48.6724 269.706 49.663C269.706 50.4049 270.232 51.0123 271.346 51.4077C272.177 51.7094 272.501 52.0029 272.501 52.5369C272.501 53.0709 272.115 53.4541 271.297 53.4541C270.729 53.4541 270.141 53.2258 269.808 53.0098L269.525 53.8618C269.961 54.1145 270.589 54.2816 271.268 54.2816C272.744 54.2816 273.591 53.5193 273.591 52.4391C273.591 51.5219 273.04 50.9879 271.963 50.5802Z" fill="#ADADAD"/>
<path d="M271.963 50.5802C271.153 50.2745 270.783 50.0462 270.783 49.5367C270.783 49.0801 271.153 48.701 271.819 48.701C272.395 48.701 272.847 48.9007 273.089 49.0556L273.369 48.2403C273.028 48.0406 272.477 47.8612 271.848 47.8612C270.512 47.8612 269.706 48.6724 269.706 49.663C269.706 50.4049 270.232 51.0123 271.346 51.4077C272.177 51.7094 272.501 52.0029 272.501 52.5369C272.501 53.0709 272.115 53.4541 271.297 53.4541C270.729 53.4541 270.141 53.2258 269.808 53.0098L269.525 53.8618C269.961 54.1145 270.589 54.2816 271.268 54.2816C272.744 54.2816 273.591 53.5193 273.591 52.4391C273.591 51.5219 273.04 50.9879 271.963 50.5802Z" fill="#ADADAD"/>
</svg>
