<svg width="231" height="68" viewBox="0 0 231 68" fill="none" xmlns="http://www.w3.org/2000/svg">
<g id="Vector">
<path d="M211.437 23.732L223.041 34.1019L211.437 44.5619V51.3633L230.606 34.0815L211.437 16.9265V23.732Z" fill="#ADADAD"/>
<path d="M211.437 23.732L223.041 34.1019L211.437 44.5619V51.3633L230.606 34.0815L211.437 16.9265V23.732Z" fill="#ADADAD"/>
<path d="M4.18591 43.1918L0 47.028V55.449L13.3601 43.1918H4.18591Z" fill="#ADADAD"/>
<path d="M4.18591 43.1918L0 47.028V55.449L13.3601 43.1918H4.18591Z" fill="#ADADAD"/>
<path d="M14.5219 25.6816L0 12.2571V21.0607L5.00146 25.6816H14.5219Z" fill="#ADADAD"/>
<path d="M14.5219 25.6816L0 12.2571V21.0607L5.00146 25.6816H14.5219Z" fill="#ADADAD"/>
<path d="M4.06604 54.4448V67.7061L30.7863 43.1918H16.3398L4.06604 54.4448Z" fill="#ADADAD"/>
<path d="M4.06604 54.4448V67.7061L30.7863 43.1918H16.3398L4.06604 54.4448Z" fill="#ADADAD"/>
<path d="M4.06604 13.569L17.2289 25.6816H31.948L4.06604 0V13.569Z" fill="#ADADAD"/>
<path d="M4.06604 13.569L17.2289 25.6816H31.948L4.06604 0V13.569Z" fill="#ADADAD"/>
<path d="M10.9158 41.4408V29.8863H15.1027V27.4327H4.06604V29.8863H8.25293V41.4408H10.9158Z" fill="#ADADAD"/>
<path d="M10.9158 41.4408V29.8863H15.1027V27.4327H4.06604V29.8863H8.25293V41.4408H10.9158Z" fill="#ADADAD"/>
<path d="M29.6851 34.8717C30.2783 34.1167 30.579 33.2386 30.579 32.2292C30.579 30.8178 30.128 29.6689 29.23 28.7744C28.332 27.8799 27.1253 27.4327 25.6178 27.4327H19.0596V34.5762H17.4261V37.0258H19.0596V41.4408H21.6154V37.0258H24.7238L27.5885 41.4408H30.7863L27.3608 36.435C28.3157 36.1436 29.0877 35.6225 29.6891 34.8676L29.6851 34.8717ZM27.3772 33.9033C26.9343 34.3547 26.2842 34.5762 25.4309 34.5762H21.6112V29.8863H25.4309C26.2679 29.8863 26.9261 30.1202 27.4015 30.5962C27.8159 31.0147 28.0231 31.5563 28.0231 32.2292C28.0231 32.9022 27.8079 33.4725 27.3772 33.9033Z" fill="#ADADAD"/>
<path d="M29.6851 34.8717C30.2783 34.1167 30.579 33.2386 30.579 32.2292C30.579 30.8178 30.128 29.6689 29.23 28.7744C28.332 27.8799 27.1253 27.4327 25.6178 27.4327H19.0596V34.5762H17.4261V37.0258H19.0596V41.4408H21.6154V37.0258H24.7238L27.5885 41.4408H30.7863L27.3608 36.435C28.3157 36.1436 29.0877 35.6225 29.6891 34.8676L29.6851 34.8717ZM27.3772 33.9033C26.9343 34.3547 26.2842 34.5762 25.4309 34.5762H21.6112V29.8863H25.4309C26.2679 29.8863 26.9261 30.1202 27.4015 30.5962C27.8159 31.0147 28.0231 31.5563 28.0231 32.2292C28.0231 32.9022 27.8079 33.4725 27.3772 33.9033Z" fill="#ADADAD"/>
<path d="M112.689 27.4327H110.366V41.4408H112.689V27.4327Z" fill="#ADADAD"/>
<path d="M112.689 27.4327H110.366V41.4408H112.689V27.4327Z" fill="#ADADAD"/>
<path d="M125.468 26.849V25.3364L122.861 24.5143L120.241 25.3364V26.849L122.861 25.9653L125.468 26.849Z" fill="#ADADAD"/>
<path d="M125.468 26.849V25.3364L122.861 24.5143L120.241 25.3364V26.849L122.861 25.9653L125.468 26.849Z" fill="#ADADAD"/>
<path d="M142.044 36.3116L133.02 27.4327V41.7292H135.617V33.1537L144.637 42.0245V27.7279H142.044V36.3116Z" fill="#ADADAD"/>
<path d="M142.044 36.3116L133.02 27.4327V41.7292H135.617V33.1537L144.637 42.0245V27.7279H142.044V36.3116Z" fill="#ADADAD"/>
<path d="M118.038 27.4327V29.8863H121.137L116.174 41.4408H118.889L119.938 38.8025H125.747L126.804 41.4408H129.534L123.725 27.4327H118.038ZM120.849 36.476L122.854 31.4743L124.856 36.476H120.849Z" fill="#ADADAD"/>
<path d="M118.038 27.4327V29.8863H121.137L116.174 41.4408H118.889L119.938 38.8025H125.747L126.804 41.4408H129.534L123.725 27.4327H118.038ZM120.849 36.476L122.854 31.4743L124.856 36.476H120.849Z" fill="#ADADAD"/>
<path d="M105.198 34.8717C105.796 34.1167 106.092 33.2386 106.092 32.2292C106.092 30.8178 105.641 29.6689 104.743 28.7744C103.841 27.8799 102.639 27.4327 101.127 27.4327H94.5729V34.5762H92.9395V37.0258H94.5729V41.4408H97.1246V37.0258H100.237L103.102 41.4408H106.3L102.878 36.435C103.833 36.1436 104.605 35.6225 105.202 34.8676L105.198 34.8717ZM97.1246 34.5762V29.8863H100.944C101.785 29.8863 102.439 30.1202 102.915 30.5962C103.329 31.0147 103.536 31.5563 103.536 32.2292C103.536 32.9022 103.321 33.4725 102.89 33.9033C102.448 34.3547 101.797 34.5762 100.94 34.5762H97.1204H97.1246Z" fill="#ADADAD"/>
<path d="M105.198 34.8717C105.796 34.1167 106.092 33.2386 106.092 32.2292C106.092 30.8178 105.641 29.6689 104.743 28.7744C103.841 27.8799 102.639 27.4327 101.127 27.4327H94.5729V34.5762H92.9395V37.0258H94.5729V41.4408H97.1246V37.0258H100.237L103.102 41.4408H106.3L102.878 36.435C103.833 36.1436 104.605 35.6225 105.202 34.8676L105.198 34.8717ZM97.1246 34.5762V29.8863H100.944C101.785 29.8863 102.439 30.1202 102.915 30.5962C103.329 31.0147 103.536 31.5563 103.536 32.2292C103.536 32.9022 103.321 33.4725 102.89 33.9033C102.448 34.3547 101.797 34.5762 100.94 34.5762H97.1204H97.1246Z" fill="#ADADAD"/>
<path d="M34.4697 27.4327V29.8863H37.7043L32.5288 41.4408H35.3577L36.4528 38.8025H42.5162L43.6156 41.4408H46.4697L40.4064 27.4327H34.4697ZM37.3999 36.476L39.493 31.4743L41.5819 36.476H37.3999Z" fill="#ADADAD"/>
<path d="M34.4697 27.4327V29.8863H37.7043L32.5288 41.4408H35.3577L36.4528 38.8025H42.5162L43.6156 41.4408H46.4697L40.4064 27.4327H34.4697ZM37.3999 36.476L39.493 31.4743L41.5819 36.476H37.3999Z" fill="#ADADAD"/>
<path d="M79.5794 29.8863H83.7662V41.4408H86.4293V29.8863H90.616V27.4327H79.5794V29.8863Z" fill="#ADADAD"/>
<path d="M79.5794 29.8863H83.7662V41.4408H86.4293V29.8863H90.616V27.4327H79.5794V29.8863Z" fill="#ADADAD"/>
<path d="M155.647 35.789H160.441C160.159 36.991 159.594 37.9181 158.742 38.5786C157.882 39.2472 156.86 39.5836 155.672 39.5836C154.38 39.5836 153.258 39.1078 152.294 38.1642C151.338 37.2125 150.856 36.068 150.856 34.7265C150.856 33.3851 151.338 32.2241 152.294 31.2888C153.258 30.3535 154.384 29.8858 155.672 29.8858C157.296 29.8858 158.58 30.5627 159.527 31.9206L161.671 30.3248C160.89 29.3484 159.993 28.6223 158.979 28.1506C157.944 27.6706 156.843 27.4327 155.672 27.4327C153.561 27.4327 151.783 28.13 150.325 29.5289C148.854 30.936 148.122 32.6672 148.122 34.7183C148.122 36.7695 148.849 38.5047 150.308 39.9159C151.762 41.323 153.549 42.0245 155.676 42.0245C158.102 42.0245 160.051 41.1671 161.501 39.4524C162.648 38.0986 163.225 36.671 163.225 35.1819V33.3153H155.651V35.7849L155.647 35.789Z" fill="#ADADAD"/>
<path d="M155.647 35.789H160.441C160.159 36.991 159.594 37.9181 158.742 38.5786C157.882 39.2472 156.86 39.5836 155.672 39.5836C154.38 39.5836 153.258 39.1078 152.294 38.1642C151.338 37.2125 150.856 36.068 150.856 34.7265C150.856 33.3851 151.338 32.2241 152.294 31.2888C153.258 30.3535 154.384 29.8858 155.672 29.8858C157.296 29.8858 158.58 30.5627 159.527 31.9206L161.671 30.3248C160.89 29.3484 159.993 28.6223 158.979 28.1506C157.944 27.6706 156.843 27.4327 155.672 27.4327C153.561 27.4327 151.783 28.13 150.325 29.5289C148.854 30.936 148.122 32.6672 148.122 34.7183C148.122 36.7695 148.849 38.5047 150.308 39.9159C151.762 41.323 153.549 42.0245 155.676 42.0245C158.102 42.0245 160.051 41.1671 161.501 39.4524C162.648 38.0986 163.225 36.671 163.225 35.1819V33.3153H155.651V35.7849L155.647 35.789Z" fill="#ADADAD"/>
<path d="M210.993 29.5289C209.538 28.13 207.751 27.4327 205.631 27.4327C203.511 27.4327 201.74 28.13 200.281 29.5289C198.809 30.936 198.077 32.6672 198.077 34.7183C198.077 36.7695 198.805 38.5047 200.26 39.9159C201.719 41.323 203.507 42.0245 205.631 42.0245C207.755 42.0245 209.538 41.3189 210.993 39.9159C212.453 38.5047 213.18 36.7736 213.18 34.7183C213.18 32.6631 212.453 30.9237 210.993 29.5289ZM209.006 38.156C208.025 39.0996 206.903 39.5754 205.635 39.5754C204.367 39.5754 203.22 39.0996 202.255 38.156C201.299 37.2043 200.821 36.0598 200.821 34.7183C200.821 33.3769 201.299 32.2159 202.255 31.2806C203.22 30.3453 204.346 29.8776 205.635 29.8776C206.924 29.8776 208.029 30.3453 209.006 31.2806C209.967 32.2282 210.445 33.3769 210.445 34.7183C210.445 36.0598 209.962 37.2166 209.006 38.156Z" fill="#ADADAD"/>
<path d="M210.993 29.5289C209.538 28.13 207.751 27.4327 205.631 27.4327C203.511 27.4327 201.74 28.13 200.281 29.5289C198.809 30.936 198.077 32.6672 198.077 34.7183C198.077 36.7695 198.805 38.5047 200.26 39.9159C201.719 41.323 203.507 42.0245 205.631 42.0245C207.755 42.0245 209.538 41.3189 210.993 39.9159C212.453 38.5047 213.18 36.7736 213.18 34.7183C213.18 32.6631 212.453 30.9237 210.993 29.5289ZM209.006 38.156C208.025 39.0996 206.903 39.5754 205.635 39.5754C204.367 39.5754 203.22 39.0996 202.255 38.156C201.299 37.2043 200.821 36.0598 200.821 34.7183C200.821 33.3769 201.299 32.2159 202.255 31.2806C203.22 30.3453 204.346 29.8776 205.635 29.8776C206.924 29.8776 208.029 30.3453 209.006 31.2806C209.967 32.2282 210.445 33.3769 210.445 34.7183C210.445 36.0598 209.962 37.2166 209.006 38.156Z" fill="#ADADAD"/>
<path d="M74.4298 33.9412C74.1062 33.814 72.7251 33.5474 70.2825 33.1291C68.7948 32.879 68.0488 32.3417 68.0488 31.5133C68.0488 31.017 68.262 30.5905 68.696 30.2378C69.2051 29.8195 69.9312 29.6104 70.8665 29.6104C71.5255 29.6104 72.1488 29.7375 72.7407 29.9877C73.3169 30.2542 73.901 30.689 74.4968 31.2836L76.3081 29.5693C74.9822 28.1463 73.2066 27.4327 70.9928 27.4327C69.4499 27.4327 68.1435 27.8305 67.0662 28.6302C65.9928 29.4217 65.4562 30.4306 65.4562 31.6445C65.4562 33.2891 66.2021 34.4128 67.6937 35.0157C67.9621 35.1264 69.3471 35.4053 71.8411 35.8523C73.3288 36.1189 74.0746 36.6643 74.0746 37.4886C74.0746 38.1407 73.7866 38.6493 73.2065 39.0143C72.6304 39.3875 71.8569 39.5761 70.894 39.5761C70.1561 39.5761 69.4457 39.3998 68.7631 39.0553C68.0646 38.7026 67.457 38.2432 66.9282 37.6691L65.0577 39.4285C65.8746 40.3225 66.8097 40.9951 67.8594 41.4421C68.7828 41.8276 69.7615 42.0245 70.7954 42.0245C72.3936 42.0245 73.7589 41.6062 74.8796 40.7736C76.0793 39.896 76.6752 38.7518 76.6752 37.341C76.6752 35.68 75.9294 34.5481 74.4377 33.9453L74.4298 33.9412Z" fill="#ADADAD"/>
<path d="M74.4298 33.9412C74.1062 33.814 72.7251 33.5474 70.2825 33.1291C68.7948 32.879 68.0488 32.3417 68.0488 31.5133C68.0488 31.017 68.262 30.5905 68.696 30.2378C69.2051 29.8195 69.9312 29.6104 70.8665 29.6104C71.5255 29.6104 72.1488 29.7375 72.7407 29.9877C73.3169 30.2542 73.901 30.689 74.4968 31.2836L76.3081 29.5693C74.9822 28.1463 73.2066 27.4327 70.9928 27.4327C69.4499 27.4327 68.1435 27.8305 67.0662 28.6302C65.9928 29.4217 65.4562 30.4306 65.4562 31.6445C65.4562 33.2891 66.2021 34.4128 67.6937 35.0157C67.9621 35.1264 69.3471 35.4053 71.8411 35.8523C73.3288 36.1189 74.0746 36.6643 74.0746 37.4886C74.0746 38.1407 73.7866 38.6493 73.2065 39.0143C72.6304 39.3875 71.8569 39.5761 70.894 39.5761C70.1561 39.5761 69.4457 39.3998 68.7631 39.0553C68.0646 38.7026 67.457 38.2432 66.9282 37.6691L65.0577 39.4285C65.8746 40.3225 66.8097 40.9951 67.8594 41.4421C68.7828 41.8276 69.7615 42.0245 70.7954 42.0245C72.3936 42.0245 73.7589 41.6062 74.8796 40.7736C76.0793 39.896 76.6752 38.7518 76.6752 37.341C76.6752 35.68 75.9294 34.5481 74.4377 33.9453L74.4298 33.9412Z" fill="#ADADAD"/>
<path d="M58.3971 36.3116L49.3741 27.4327V41.7292H51.9728V33.1537L60.9916 42.0245V27.7279H58.3971V36.3116Z" fill="#ADADAD"/>
<path d="M58.3971 36.3116L49.3741 27.4327V41.7292H51.9728V33.1537L60.9916 42.0245V27.7279H58.3971V36.3116Z" fill="#ADADAD"/>
<path d="M192.633 38.9912H187.258V27.4327H184.717V41.4408H195.173V35.639H192.633V38.9912Z" fill="#ADADAD"/>
<path d="M192.633 38.9912H187.258V27.4327H184.717V41.4408H195.173V35.639H192.633V38.9912Z" fill="#ADADAD"/>
<path d="M176.942 35.3378C176.942 36.619 176.606 37.6365 175.93 38.3943C175.257 39.148 174.407 39.529 173.39 39.529C172.374 39.529 171.523 39.148 170.847 38.3943C170.171 37.6406 169.834 36.619 169.834 35.3378V27.4327H167.291V35.8947C167.291 37.603 167.866 39.0475 169.008 40.2324C170.138 41.4299 171.6 42.0245 173.394 42.0245C175.189 42.0245 176.651 41.4257 177.797 40.2324C178.927 39.0475 179.489 37.603 179.489 35.8947V27.4327H176.942V35.3378Z" fill="#ADADAD"/>
<path d="M176.942 35.3378C176.942 36.619 176.606 37.6365 175.93 38.3943C175.257 39.148 174.407 39.529 173.39 39.529C172.374 39.529 171.523 39.148 170.847 38.3943C170.171 37.6406 169.834 36.619 169.834 35.3378V27.4327H167.291V35.8947C167.291 37.603 167.866 39.0475 169.008 40.2324C170.138 41.4299 171.6 42.0245 173.394 42.0245C175.189 42.0245 176.651 41.4257 177.797 40.2324C178.927 39.0475 179.489 37.603 179.489 35.8947V27.4327H176.942V35.3378Z" fill="#ADADAD"/>
</g>
</svg>
