<svg width="59" height="94" viewBox="0 0 59 94" fill="none" xmlns="http://www.w3.org/2000/svg">
<g id="Vector">
<path d="M10.8678 16.8589L14.4879 14.4148L18.0485 16.9265L16.8417 12.735L20.3305 10.1238L15.9813 9.9765L14.5557 5.83674L13.0741 9.94068L8.71302 10.0163L12.15 12.6872L10.8678 16.8589Z" fill="#ADADAD"/>
<path d="M10.8678 16.8589L14.4879 14.4148L18.0485 16.9265L16.8417 12.735L20.3305 10.1238L15.9813 9.9765L14.5557 5.83674L13.0741 9.94068L8.71302 10.0163L12.15 12.6872L10.8678 16.8589Z" fill="#ADADAD"/>
<path d="M40.018 16.8549L43.8099 14.4148L47.5396 16.9265L46.2922 12.739L49.955 10.1198L45.3744 9.9566L43.9017 5.83674L42.3374 9.94068L37.7567 9.99641L41.3612 12.6833L40.018 16.8549Z" fill="#ADADAD"/>
<path d="M40.018 16.8549L43.8099 14.4148L47.5396 16.9265L46.2922 12.739L49.955 10.1198L45.3744 9.9566L43.9017 5.83674L42.3374 9.94068L37.7567 9.99641L41.3612 12.6833L40.018 16.8549Z" fill="#ADADAD"/>
<path d="M25.3844 11.598L28.9959 9.0286L32.5598 11.6735L31.372 7.25558L34.8523 4.49754L30.4978 4.33406L29.0914 0L27.5934 4.3173L23.2349 4.3676L26.6637 7.20528L25.3844 11.598Z" fill="#ADADAD"/>
<path d="M25.3844 11.598L28.9959 9.0286L32.5598 11.6735L31.372 7.25558L34.8523 4.49754L30.4978 4.33406L29.0914 0L27.5934 4.3173L23.2349 4.3676L26.6637 7.20528L25.3844 11.598Z" fill="#ADADAD"/>
<path d="M12.9041 41.272C12.6808 41.6431 12.4491 41.8686 12.2174 41.9344C12.0321 41.9861 11.8342 41.9391 11.6235 41.8029C11.653 41.7559 11.6866 41.7089 11.7203 41.6572H11.7161L13.0432 39.5572L12.7483 39.3269L11.3328 41.582C11.198 41.7747 11.0548 41.8921 10.9074 41.9391C10.7894 41.972 10.6589 41.9438 10.5156 41.8592L11.6825 40.0082L11.3917 39.778L10.0986 41.8216C9.99754 41.9673 9.89634 42.0706 9.79103 42.1411C9.70256 42.1928 9.60575 42.2116 9.51307 42.2069C9.43725 42.3337 9.36557 42.4512 9.29395 42.5686L9.38246 42.5874C9.58466 42.6344 9.7784 42.6015 9.96375 42.4888C10.0775 42.4183 10.187 42.3149 10.2965 42.1834C10.5324 42.3431 10.7684 42.3901 10.9959 42.3243C11.1307 42.2868 11.2569 42.2116 11.3749 42.1082C11.695 42.3384 12.0026 42.4136 12.3059 42.3243C12.6303 42.2304 12.9336 41.9626 13.2074 41.5069L14.5217 39.3316L14.2268 39.1061L12.9126 41.2814L12.9041 41.272Z" fill="#ADADAD"/>
<path d="M12.9041 41.272C12.6808 41.6431 12.4491 41.8686 12.2174 41.9344C12.0321 41.9861 11.8342 41.9391 11.6235 41.8029C11.653 41.7559 11.6866 41.7089 11.7203 41.6572H11.7161L13.0432 39.5572L12.7483 39.3269L11.3328 41.582C11.198 41.7747 11.0548 41.8921 10.9074 41.9391C10.7894 41.972 10.6589 41.9438 10.5156 41.8592L11.6825 40.0082L11.3917 39.778L10.0986 41.8216C9.99754 41.9673 9.89634 42.0706 9.79103 42.1411C9.70256 42.1928 9.60575 42.2116 9.51307 42.2069C9.43725 42.3337 9.36557 42.4512 9.29395 42.5686L9.38246 42.5874C9.58466 42.6344 9.7784 42.6015 9.96375 42.4888C10.0775 42.4183 10.187 42.3149 10.2965 42.1834C10.5324 42.3431 10.7684 42.3901 10.9959 42.3243C11.1307 42.2868 11.2569 42.2116 11.3749 42.1082C11.695 42.3384 12.0026 42.4136 12.3059 42.3243C12.6303 42.2304 12.9336 41.9626 13.2074 41.5069L14.5217 39.3316L14.2268 39.1061L12.9126 41.2814L12.9041 41.272Z" fill="#ADADAD"/>
<path d="M11.1406 33.209C12.3887 33.4051 13.71 33.1272 14.8118 32.3222C15.9135 31.513 16.5884 30.3319 16.7836 29.0814C16.9828 27.8267 16.7023 26.4985 15.9014 25.391C15.1005 24.2794 13.9295 23.601 12.6814 23.4089C11.4333 23.2087 10.1081 23.4907 9.00636 24.2958H9.01026C7.90852 25.1009 7.2338 26.2778 7.03053 27.5325C6.83538 28.7871 7.11179 30.1194 7.91676 31.231C8.71766 32.3344 9.88838 33.0128 11.1365 33.2131L11.1406 33.209ZM13.5149 32.1342L13.3319 32.6981C12.6327 32.9229 11.9009 32.9801 11.1935 32.8657C10.8561 32.8126 10.5187 32.7145 10.1975 32.5919L10.0593 32.1669L9.7544 31.2473L10.8601 29.7638H12.7466L13.8117 31.231L13.5149 32.1382V32.1342ZM16.1331 27.7246L16.495 27.9902C16.5194 28.3335 16.499 28.6849 16.4502 29.0323C16.3364 29.7434 16.0598 30.43 15.6248 31.0266H14.0881L13.0311 29.5554L13.3239 28.6522L13.6207 27.7327L15.381 27.1769L16.1372 27.7286L16.1331 27.7246ZM12.2343 24.4265L12.9946 23.8748L13.0475 23.834C14.0476 24.0914 14.9743 24.6922 15.6248 25.5994L15.6533 25.6321L15.5558 25.9305L15.259 26.8459L13.4905 27.4017L12.7426 26.8541L11.9741 26.2983L12.2302 24.4225L12.2343 24.4265ZM9.21363 24.5737C9.76247 24.1732 10.3683 23.9116 10.9984 23.7849L11.1123 23.8707L11.8847 24.4265L11.6287 26.2901L10.8643 26.8541L10.1162 27.4017L8.26234 27.087L7.96559 26.1716L7.92091 26.0326C8.23395 25.4768 8.66882 24.9742 9.21766 24.5737H9.21363ZM7.33131 28.0065L7.38416 27.9738L8.14039 27.4221L9.98609 27.7368L10.283 28.6522L10.5757 29.5677L9.46571 31.0553H8.22584C8.22584 31.0553 8.20943 31.0307 8.2013 31.0226C7.5427 30.1153 7.2622 29.0527 7.33131 28.0106V28.0065Z" fill="#ADADAD"/>
<path d="M11.1406 33.209C12.3887 33.4051 13.71 33.1272 14.8118 32.3222C15.9135 31.513 16.5884 30.3319 16.7836 29.0814C16.9828 27.8267 16.7023 26.4985 15.9014 25.391C15.1005 24.2794 13.9295 23.601 12.6814 23.4089C11.4333 23.2087 10.1081 23.4907 9.00636 24.2958H9.01026C7.90852 25.1009 7.2338 26.2778 7.03053 27.5325C6.83538 28.7871 7.11179 30.1194 7.91676 31.231C8.71766 32.3344 9.88838 33.0128 11.1365 33.2131L11.1406 33.209ZM13.5149 32.1342L13.3319 32.6981C12.6327 32.9229 11.9009 32.9801 11.1935 32.8657C10.8561 32.8126 10.5187 32.7145 10.1975 32.5919L10.0593 32.1669L9.7544 31.2473L10.8601 29.7638H12.7466L13.8117 31.231L13.5149 32.1382V32.1342ZM16.1331 27.7246L16.495 27.9902C16.5194 28.3335 16.499 28.6849 16.4502 29.0323C16.3364 29.7434 16.0598 30.43 15.6248 31.0266H14.0881L13.0311 29.5554L13.3239 28.6522L13.6207 27.7327L15.381 27.1769L16.1372 27.7286L16.1331 27.7246ZM12.2343 24.4265L12.9946 23.8748L13.0475 23.834C14.0476 24.0914 14.9743 24.6922 15.6248 25.5994L15.6533 25.6321L15.5558 25.9305L15.259 26.8459L13.4905 27.4017L12.7426 26.8541L11.9741 26.2983L12.2302 24.4225L12.2343 24.4265ZM9.21363 24.5737C9.76247 24.1732 10.3683 23.9116 10.9984 23.7849L11.1123 23.8707L11.8847 24.4265L11.6287 26.2901L10.8643 26.8541L10.1162 27.4017L8.26234 27.087L7.96559 26.1716L7.92091 26.0326C8.23395 25.4768 8.66882 24.9742 9.21766 24.5737H9.21363ZM7.33131 28.0065L7.38416 27.9738L8.14039 27.4221L9.98609 27.7368L10.283 28.6522L10.5757 29.5677L9.46571 31.0553H8.22584C8.22584 31.0553 8.20943 31.0307 8.2013 31.0226C7.5427 30.1153 7.2622 29.0527 7.33131 28.0106V28.0065Z" fill="#ADADAD"/>
<path d="M26.8041 39.1206C26.4225 39.1736 25.925 39.4262 25.2648 39.858L23.8157 40.8725L25.1321 42.6082L26.5983 41.6181C27.1514 41.2392 27.5458 40.8562 27.7388 40.4936C27.9317 40.1269 27.9316 39.801 27.7258 39.5402C27.4772 39.2143 27.1728 39.0635 26.8041 39.1165V39.1206Z" fill="#ADADAD"/>
<path d="M26.8041 39.1206C26.4225 39.1736 25.925 39.4262 25.2648 39.858L23.8157 40.8725L25.1321 42.6082L26.5983 41.6181C27.1514 41.2392 27.5458 40.8562 27.7388 40.4936C27.9317 40.1269 27.9316 39.801 27.7258 39.5402C27.4772 39.2143 27.1728 39.0635 26.8041 39.1165V39.1206Z" fill="#ADADAD"/>
<path d="M18.007 30.99C18.007 31.0872 18.007 31.2703 18.007 31.4018C18.007 31.5277 18.007 31.5563 18.007 31.4647C18.007 31.3675 18.007 31.1845 18.007 31.0529C18.007 30.9213 18.007 30.8985 18.007 30.99Z" fill="#ADADAD"/>
<path d="M18.007 30.99C18.007 31.0872 18.007 31.2703 18.007 31.4018C18.007 31.5277 18.007 31.5563 18.007 31.4647C18.007 31.3675 18.007 31.1845 18.007 31.0529C18.007 30.9213 18.007 30.8985 18.007 30.99Z" fill="#ADADAD"/>
<path d="M30.3681 30.2019C30.1528 30.467 29.8886 30.7199 29.584 30.936C29.2794 31.1603 28.9628 31.3316 28.642 31.458C28.3089 31.5885 27.9799 31.6701 27.6591 31.7027L27.5087 31.715L27.4478 31.8536C27.3219 32.1513 27.1392 32.445 26.9158 32.7182C26.7005 32.9833 26.4366 33.228 26.132 33.4523C25.8274 33.6684 25.5106 33.8479 25.1939 33.9743C25.0273 34.0355 24.8688 34.0885 24.7063 34.1293C24.9216 33.9458 25.1166 33.75 25.2953 33.5461C25.9086 32.8161 26.2538 31.923 26.1522 30.8137C26.136 30.5853 26.1644 30.3895 26.2254 30.1979C26.2944 29.998 26.4041 29.8023 26.5219 29.5943C26.6193 29.423 26.6234 29.3088 26.5341 29.2272C26.4488 29.1579 26.3392 29.1742 26.193 29.2558C25.7666 29.4841 25.1206 29.6514 24.418 29.8308C22.7285 30.259 20.7263 30.7729 20.2918 32.5714C20.1252 32.4572 19.9789 32.2981 19.8408 32.0942C19.6418 31.7965 19.4794 31.4172 19.3616 30.989C19.191 30.3732 18.7037 30.0877 18.1961 30.0429C18.0092 30.0266 17.8143 30.0429 17.6356 30.0877C17.4529 30.1408 17.2863 30.2264 17.1482 30.3324C16.8964 30.5323 16.7542 30.8259 16.811 31.1766C16.742 31.2052 16.6812 31.246 16.6284 31.2908C16.5431 31.3724 16.4781 31.4703 16.4415 31.5763L15.9054 31.8536C15.812 31.8985 15.7511 31.9637 15.7105 32.0371C15.6698 32.1065 15.6537 32.188 15.6577 32.2655C15.6618 32.3349 15.6861 32.4042 15.7186 32.4654C15.7796 32.5796 15.8891 32.6815 15.9988 32.7468L16.0597 32.7794L16.1288 32.7549L16.2304 32.7264C16.4984 32.6448 17.0263 32.4857 17.3919 32.5021C17.9645 32.5184 18.1879 33.4319 18.3463 34.1007C18.3869 34.2883 18.4276 34.4555 18.4723 34.5942C18.6023 34.9939 18.797 35.3161 19.0326 35.5567C19.3575 35.8952 19.7638 36.0909 20.1984 36.1643C20.6329 36.2337 21.0878 36.1888 21.5346 36.0379C22.03 35.8789 22.5133 35.5893 22.9072 35.21C23.2159 35.0714 23.5124 34.9164 23.7926 34.7533C23.6951 34.9123 23.5856 35.0673 23.4678 35.2182C23.2525 35.4833 22.9883 35.728 22.6837 35.9523C22.3751 36.1766 22.0626 36.3478 21.7417 36.4743C21.4168 36.6048 21.0836 36.6863 20.7627 36.7149L20.6084 36.7312L20.5516 36.8699C20.4217 37.1676 20.2429 37.4531 20.0195 37.7304C19.8043 37.9955 19.5404 38.2402 19.2317 38.4645C18.9271 38.6888 18.6143 38.86 18.2935 38.9865C17.9686 39.117 17.6356 39.1985 17.3147 39.2271L17.1604 39.2434L17.1035 39.3821C16.9736 39.6798 16.795 39.9734 16.5675 40.2426C16.3523 40.5077 16.0883 40.7605 15.7837 40.9767C15.4791 41.201 15.1621 41.3722 14.8453 41.4987C14.6666 41.5721 14.484 41.6251 14.3093 41.67C14.553 41.4538 14.7885 41.2173 15.0119 40.9644C15.4911 40.6993 15.9135 40.3323 16.2181 39.9163C16.4984 39.533 16.6853 39.1088 16.7503 38.6765C16.8193 38.2361 16.7624 37.7875 16.5391 37.3756C16.3847 37.0779 16.1411 36.7924 15.804 36.5436C15.6821 36.458 15.5359 36.3642 15.3734 36.2663C14.7845 35.9033 13.9925 35.418 14.1469 34.8593C14.2484 34.5086 14.5652 34.0518 14.7236 33.8193L14.8212 33.6725L14.809 33.6032C14.7846 33.4768 14.7195 33.3463 14.6261 33.2484C14.5814 33.1954 14.5165 33.1546 14.4556 33.126C14.3865 33.0975 14.3052 33.0853 14.228 33.1016C14.1509 33.1179 14.0697 33.1587 13.9926 33.228L13.562 33.6562C13.4483 33.6603 13.3345 33.6888 13.2371 33.7459C13.1761 33.7786 13.1153 33.8316 13.0665 33.8887C12.7538 33.7215 12.433 33.7663 12.1649 33.9458C12.0228 34.0436 11.8889 34.1741 11.7874 34.3373C11.6858 34.4922 11.6085 34.6717 11.5639 34.8593C11.4501 35.3528 11.5759 35.9074 12.0999 36.2581C12.4776 36.5028 12.7783 36.7801 13.0017 37.0615C13.152 37.2573 13.2534 37.4449 13.3143 37.6407C11.4745 37.4979 10.3738 39.2516 9.43971 40.732C9.04982 41.3478 8.69637 41.9065 8.34303 42.245C8.22119 42.3674 8.17668 42.4611 8.21729 42.5672C8.26197 42.6773 8.37159 42.7099 8.56654 42.6691C8.8021 42.6161 9.01749 42.5753 9.22462 42.5713C9.42363 42.5713 9.62253 42.5998 9.83778 42.6936C10.8491 43.13 11.8075 43.077 12.6889 42.7181C12.9407 42.6161 13.1803 42.4897 13.4199 42.3388C13.3346 42.4775 13.233 42.6161 13.1233 42.7507C12.908 43.0158 12.6441 43.2605 12.3395 43.4848C12.0349 43.7009 11.718 43.8804 11.4013 44.0068C11.0682 44.1332 10.7393 44.2148 10.4185 44.2474L10.2683 44.2597L10.2074 44.4024C10.0815 44.696 9.89868 44.9897 9.6753 45.2629C9.46005 45.528 9.19609 45.7727 8.89149 45.997C8.58689 46.2213 8.27004 46.3926 7.95326 46.519C7.62022 46.6495 7.29132 46.7311 6.97047 46.7596L7.0232 47.2776C7.38873 47.2449 7.76635 47.1511 8.14405 47.0002C8.50551 46.8575 8.86302 46.6617 9.19605 46.417C9.53315 46.1764 9.82548 45.895 10.0773 45.5973C10.2925 45.3241 10.4754 45.0427 10.6216 44.749C10.9424 44.7042 11.2673 44.6185 11.5922 44.4921C11.9536 44.3494 12.3111 44.1536 12.6442 43.9089C12.9813 43.6683 13.2736 43.3869 13.5254 43.081C13.7488 42.8119 13.9316 42.5264 14.0697 42.2368C14.3906 42.192 14.7196 42.1063 15.0404 41.9718C15.4059 41.829 15.7592 41.6373 16.0963 41.3926C16.4294 41.148 16.7258 40.8706 16.9695 40.5648C17.1929 40.2956 17.3756 40.0101 17.5177 39.7165C17.8304 39.6757 18.1636 39.5901 18.4885 39.4596C18.85 39.3168 19.2032 39.1211 19.5403 38.8804C19.8733 38.6357 20.1699 38.3544 20.4136 38.0526C20.637 37.7834 20.8198 37.4979 20.9619 37.2043C21.2828 37.1594 21.6077 37.0738 21.9326 36.9474C22.2941 36.8046 22.6473 36.6089 22.9844 36.3601C23.3215 36.1195 23.6139 35.8381 23.8576 35.5404C24.0809 35.263 24.2636 34.9857 24.4058 34.6921C24.7266 34.6472 25.0517 34.5616 25.3766 34.4352C25.7381 34.2924 26.0953 34.0967 26.4284 33.852C26.7654 33.6073 27.058 33.3299 27.3098 33.0241C27.5332 32.7549 27.7158 32.4694 27.8539 32.1799C28.1747 32.135 28.4997 32.0494 28.8246 31.9148C29.1901 31.7721 29.5517 31.5804 29.8806 31.3357C30.2177 31.091 30.5142 30.8096 30.762 30.5078C31.0178 30.1979 31.2249 29.8634 31.3671 29.5209L30.8919 29.3129C30.766 29.6106 30.5873 29.9042 30.3599 30.1734L30.3681 30.2019ZM12.5629 42.4244C11.7628 42.7507 10.9017 42.7956 9.97572 42.4C9.71985 42.2899 9.47221 42.2491 9.22853 42.2572C9.09044 42.2572 8.94828 42.2735 8.81019 42.298C9.11479 41.9432 9.41546 41.462 9.74037 40.944C10.6542 39.4881 11.7465 37.7467 13.5092 38.0403L13.7326 38.073C13.6757 37.5672 13.6027 37.294 13.2737 36.8739C13.0341 36.564 12.6969 36.2581 12.2948 35.9971C11.9049 35.7402 11.8156 35.3242 11.9009 34.9572C11.9334 34.8144 11.9944 34.6717 12.0715 34.5493C12.1528 34.427 12.2502 34.3332 12.3517 34.2639C12.5507 34.1334 12.7903 34.113 13.0137 34.2883L13.0259 34.3006C13.0259 34.374 13.0381 34.4555 13.0665 34.529C13.1193 34.6676 13.2168 34.7859 13.3386 34.8674C13.363 34.8838 13.3793 34.8919 13.3955 34.9001C13.3996 34.9042 13.4402 34.9245 13.4646 34.9327C13.4687 34.8919 13.4809 34.8471 13.4931 34.8022C13.5052 34.7736 13.5092 34.741 13.5214 34.7043C13.5051 34.7002 13.489 34.688 13.4646 34.6758C13.3834 34.6187 13.3142 34.533 13.2817 34.4474C13.2249 34.3046 13.2696 34.1497 13.4077 34.0681C13.4321 34.0559 13.4605 34.0436 13.4808 34.0396C13.493 34.1007 13.5255 34.1619 13.5783 34.2109C13.5945 34.2272 13.6189 34.2435 13.6392 34.2557C13.6432 34.2679 13.6921 34.2883 13.7084 34.3006C13.749 34.2312 13.7814 34.1619 13.822 34.1007C13.8098 34.0967 13.7773 34.0722 13.7692 34.0681C13.757 34.064 13.7448 34.0559 13.7367 34.0436C13.7245 34.0314 13.7204 34.0273 13.7123 34.0151L14.228 33.4972C14.2524 33.4727 14.2727 33.4645 14.2849 33.4564C14.2971 33.4564 14.3093 33.4564 14.3174 33.4605C14.3336 33.4645 14.3498 33.4849 14.3701 33.5012C14.4026 33.5339 14.4271 33.5746 14.4434 33.6154L14.4312 33.6399C14.2606 33.8846 13.9276 34.3699 13.8098 34.7737C13.5824 35.5811 14.5084 36.1562 15.1867 36.5681C15.345 36.666 15.4912 36.7557 15.5928 36.8332C15.8893 37.0452 16.0964 37.294 16.2345 37.5428C16.4173 37.8853 16.4618 38.2605 16.4049 38.6317C16.3481 39.0028 16.1816 39.378 15.942 39.7165C15.6577 40.108 15.2679 40.4465 14.8212 40.6789L14.7926 40.6953L14.7764 40.7197C14.1063 41.4579 13.3671 42.0778 12.5548 42.4122L12.5629 42.4244ZM22.7448 34.9245L22.7164 34.9368L22.692 34.9531C22.3265 35.3079 21.8879 35.573 21.429 35.728C21.0391 35.8544 20.6328 35.8992 20.2592 35.8381C19.8936 35.7769 19.5566 35.6138 19.2886 35.3324C19.0815 35.1244 18.9229 34.8511 18.8092 34.5045C18.7686 34.3821 18.7282 34.219 18.6835 34.0355C18.5007 33.2606 18.2488 32.2003 17.4081 32.1636C16.9857 32.1513 16.4253 32.3185 16.141 32.4042H16.1166C16.0841 32.3797 16.0475 32.3471 16.0272 32.3063C16.015 32.2818 16.011 32.2614 16.011 32.2451C16.0069 32.2329 16.0111 32.2207 16.0151 32.2125C16.0192 32.2003 16.0395 32.184 16.0679 32.1676L16.7178 31.8414C16.7178 31.8414 16.7298 31.8577 16.7339 31.8699C16.738 31.8822 16.7462 31.8944 16.7503 31.9107C16.7503 31.9148 16.7543 31.9556 16.7625 31.9678C16.8356 31.9515 16.9126 31.9352 16.9857 31.923C16.9817 31.8985 16.9736 31.8536 16.9695 31.8414C16.9654 31.8128 16.9534 31.7884 16.9412 31.768C16.9127 31.7068 16.8679 31.6538 16.811 31.6252C16.8232 31.6008 16.8437 31.5804 16.864 31.5641C16.9859 31.4621 17.1402 31.4662 17.2579 31.56C17.331 31.6212 17.396 31.7109 17.4163 31.8128C17.4203 31.8292 17.4284 31.8536 17.4284 31.874H17.5299C17.5746 31.874 17.6234 31.8781 17.6681 31.8862C17.664 31.8577 17.6559 31.8251 17.6559 31.8128C17.6518 31.7884 17.6437 31.7721 17.6397 31.7517C17.599 31.6089 17.5137 31.4743 17.4041 31.3846C17.3431 31.3316 17.266 31.299 17.1929 31.2745V31.2623C17.0954 30.989 17.189 30.7688 17.3717 30.6179C17.4692 30.5363 17.595 30.4752 17.733 30.4385C17.8711 30.3977 18.0254 30.3814 18.1716 30.3977C18.5412 30.4303 18.9067 30.6424 19.0326 31.091C19.1585 31.56 19.3413 31.976 19.5647 32.3022C19.8571 32.7386 20.0968 32.8977 20.5516 33.1056L20.5841 32.8813C20.8603 31.1032 22.8422 30.5975 24.5033 30.1734C25.0922 30.0225 25.6405 29.8879 26.0751 29.7044C26.0142 29.8349 25.9492 29.9613 25.9046 30.0959C25.8233 30.3324 25.7907 30.5731 25.811 30.8585C25.9045 31.8577 25.5876 32.6733 25.0353 33.3299C24.4708 34.0029 23.6464 34.5249 22.7448 34.9286V34.9245Z" fill="#ADADAD"/>
<path d="M30.3681 30.2019C30.1528 30.467 29.8886 30.7199 29.584 30.936C29.2794 31.1603 28.9628 31.3316 28.642 31.458C28.3089 31.5885 27.9799 31.6701 27.6591 31.7027L27.5087 31.715L27.4478 31.8536C27.3219 32.1513 27.1392 32.445 26.9158 32.7182C26.7005 32.9833 26.4366 33.228 26.132 33.4523C25.8274 33.6684 25.5106 33.8479 25.1939 33.9743C25.0273 34.0355 24.8688 34.0885 24.7063 34.1293C24.9216 33.9458 25.1166 33.75 25.2953 33.5461C25.9086 32.8161 26.2538 31.923 26.1522 30.8137C26.136 30.5853 26.1644 30.3895 26.2254 30.1979C26.2944 29.998 26.4041 29.8023 26.5219 29.5943C26.6193 29.423 26.6234 29.3088 26.5341 29.2272C26.4488 29.1579 26.3392 29.1742 26.193 29.2558C25.7666 29.4841 25.1206 29.6514 24.418 29.8308C22.7285 30.259 20.7263 30.7729 20.2918 32.5714C20.1252 32.4572 19.9789 32.2981 19.8408 32.0942C19.6418 31.7965 19.4794 31.4172 19.3616 30.989C19.191 30.3732 18.7037 30.0877 18.1961 30.0429C18.0092 30.0266 17.8143 30.0429 17.6356 30.0877C17.4529 30.1408 17.2863 30.2264 17.1482 30.3324C16.8964 30.5323 16.7542 30.8259 16.811 31.1766C16.742 31.2052 16.6812 31.246 16.6284 31.2908C16.5431 31.3724 16.4781 31.4703 16.4415 31.5763L15.9054 31.8536C15.812 31.8985 15.7511 31.9637 15.7105 32.0371C15.6698 32.1065 15.6537 32.188 15.6577 32.2655C15.6618 32.3349 15.6861 32.4042 15.7186 32.4654C15.7796 32.5796 15.8891 32.6815 15.9988 32.7468L16.0597 32.7794L16.1288 32.7549L16.2304 32.7264C16.4984 32.6448 17.0263 32.4857 17.3919 32.5021C17.9645 32.5184 18.1879 33.4319 18.3463 34.1007C18.3869 34.2883 18.4276 34.4555 18.4723 34.5942C18.6023 34.9939 18.797 35.3161 19.0326 35.5567C19.3575 35.8952 19.7638 36.0909 20.1984 36.1643C20.6329 36.2337 21.0878 36.1888 21.5346 36.0379C22.03 35.8789 22.5133 35.5893 22.9072 35.21C23.2159 35.0714 23.5124 34.9164 23.7926 34.7533C23.6951 34.9123 23.5856 35.0673 23.4678 35.2182C23.2525 35.4833 22.9883 35.728 22.6837 35.9523C22.3751 36.1766 22.0626 36.3478 21.7417 36.4743C21.4168 36.6048 21.0836 36.6863 20.7627 36.7149L20.6084 36.7312L20.5516 36.8699C20.4217 37.1676 20.2429 37.4531 20.0195 37.7304C19.8043 37.9955 19.5404 38.2402 19.2317 38.4645C18.9271 38.6888 18.6143 38.86 18.2935 38.9865C17.9686 39.117 17.6356 39.1985 17.3147 39.2271L17.1604 39.2434L17.1035 39.3821C16.9736 39.6798 16.795 39.9734 16.5675 40.2426C16.3523 40.5077 16.0883 40.7605 15.7837 40.9767C15.4791 41.201 15.1621 41.3722 14.8453 41.4987C14.6666 41.5721 14.484 41.6251 14.3093 41.67C14.553 41.4538 14.7885 41.2173 15.0119 40.9644C15.4911 40.6993 15.9135 40.3323 16.2181 39.9163C16.4984 39.533 16.6853 39.1088 16.7503 38.6765C16.8193 38.2361 16.7624 37.7875 16.5391 37.3756C16.3847 37.0779 16.1411 36.7924 15.804 36.5436C15.6821 36.458 15.5359 36.3642 15.3734 36.2663C14.7845 35.9033 13.9925 35.418 14.1469 34.8593C14.2484 34.5086 14.5652 34.0518 14.7236 33.8193L14.8212 33.6725L14.809 33.6032C14.7846 33.4768 14.7195 33.3463 14.6261 33.2484C14.5814 33.1954 14.5165 33.1546 14.4556 33.126C14.3865 33.0975 14.3052 33.0853 14.228 33.1016C14.1509 33.1179 14.0697 33.1587 13.9926 33.228L13.562 33.6562C13.4483 33.6603 13.3345 33.6888 13.2371 33.7459C13.1761 33.7786 13.1153 33.8316 13.0665 33.8887C12.7538 33.7215 12.433 33.7663 12.1649 33.9458C12.0228 34.0436 11.8889 34.1741 11.7874 34.3373C11.6858 34.4922 11.6085 34.6717 11.5639 34.8593C11.4501 35.3528 11.5759 35.9074 12.0999 36.2581C12.4776 36.5028 12.7783 36.7801 13.0017 37.0615C13.152 37.2573 13.2534 37.4449 13.3143 37.6407C11.4745 37.4979 10.3738 39.2516 9.43971 40.732C9.04982 41.3478 8.69637 41.9065 8.34303 42.245C8.22119 42.3674 8.17668 42.4611 8.21729 42.5672C8.26197 42.6773 8.37159 42.7099 8.56654 42.6691C8.8021 42.6161 9.01749 42.5753 9.22462 42.5713C9.42363 42.5713 9.62253 42.5998 9.83778 42.6936C10.8491 43.13 11.8075 43.077 12.6889 42.7181C12.9407 42.6161 13.1803 42.4897 13.4199 42.3388C13.3346 42.4775 13.233 42.6161 13.1233 42.7507C12.908 43.0158 12.6441 43.2605 12.3395 43.4848C12.0349 43.7009 11.718 43.8804 11.4013 44.0068C11.0682 44.1332 10.7393 44.2148 10.4185 44.2474L10.2683 44.2597L10.2074 44.4024C10.0815 44.696 9.89868 44.9897 9.6753 45.2629C9.46005 45.528 9.19609 45.7727 8.89149 45.997C8.58689 46.2213 8.27004 46.3926 7.95326 46.519C7.62022 46.6495 7.29132 46.7311 6.97047 46.7596L7.0232 47.2776C7.38873 47.2449 7.76635 47.1511 8.14405 47.0002C8.50551 46.8575 8.86302 46.6617 9.19605 46.417C9.53315 46.1764 9.82548 45.895 10.0773 45.5973C10.2925 45.3241 10.4754 45.0427 10.6216 44.749C10.9424 44.7042 11.2673 44.6185 11.5922 44.4921C11.9536 44.3494 12.3111 44.1536 12.6442 43.9089C12.9813 43.6683 13.2736 43.3869 13.5254 43.081C13.7488 42.8119 13.9316 42.5264 14.0697 42.2368C14.3906 42.192 14.7196 42.1063 15.0404 41.9718C15.4059 41.829 15.7592 41.6373 16.0963 41.3926C16.4294 41.148 16.7258 40.8706 16.9695 40.5648C17.1929 40.2956 17.3756 40.0101 17.5177 39.7165C17.8304 39.6757 18.1636 39.5901 18.4885 39.4596C18.85 39.3168 19.2032 39.1211 19.5403 38.8804C19.8733 38.6357 20.1699 38.3544 20.4136 38.0526C20.637 37.7834 20.8198 37.4979 20.9619 37.2043C21.2828 37.1594 21.6077 37.0738 21.9326 36.9474C22.2941 36.8046 22.6473 36.6089 22.9844 36.3601C23.3215 36.1195 23.6139 35.8381 23.8576 35.5404C24.0809 35.263 24.2636 34.9857 24.4058 34.6921C24.7266 34.6472 25.0517 34.5616 25.3766 34.4352C25.7381 34.2924 26.0953 34.0967 26.4284 33.852C26.7654 33.6073 27.058 33.3299 27.3098 33.0241C27.5332 32.7549 27.7158 32.4694 27.8539 32.1799C28.1747 32.135 28.4997 32.0494 28.8246 31.9148C29.1901 31.7721 29.5517 31.5804 29.8806 31.3357C30.2177 31.091 30.5142 30.8096 30.762 30.5078C31.0178 30.1979 31.2249 29.8634 31.3671 29.5209L30.8919 29.3129C30.766 29.6106 30.5873 29.9042 30.3599 30.1734L30.3681 30.2019ZM12.5629 42.4244C11.7628 42.7507 10.9017 42.7956 9.97572 42.4C9.71985 42.2899 9.47221 42.2491 9.22853 42.2572C9.09044 42.2572 8.94828 42.2735 8.81019 42.298C9.11479 41.9432 9.41546 41.462 9.74037 40.944C10.6542 39.4881 11.7465 37.7467 13.5092 38.0403L13.7326 38.073C13.6757 37.5672 13.6027 37.294 13.2737 36.8739C13.0341 36.564 12.6969 36.2581 12.2948 35.9971C11.9049 35.7402 11.8156 35.3242 11.9009 34.9572C11.9334 34.8144 11.9944 34.6717 12.0715 34.5493C12.1528 34.427 12.2502 34.3332 12.3517 34.2639C12.5507 34.1334 12.7903 34.113 13.0137 34.2883L13.0259 34.3006C13.0259 34.374 13.0381 34.4555 13.0665 34.529C13.1193 34.6676 13.2168 34.7859 13.3386 34.8674C13.363 34.8838 13.3793 34.8919 13.3955 34.9001C13.3996 34.9042 13.4402 34.9245 13.4646 34.9327C13.4687 34.8919 13.4809 34.8471 13.4931 34.8022C13.5052 34.7736 13.5092 34.741 13.5214 34.7043C13.5051 34.7002 13.489 34.688 13.4646 34.6758C13.3834 34.6187 13.3142 34.533 13.2817 34.4474C13.2249 34.3046 13.2696 34.1497 13.4077 34.0681C13.4321 34.0559 13.4605 34.0436 13.4808 34.0396C13.493 34.1007 13.5255 34.1619 13.5783 34.2109C13.5945 34.2272 13.6189 34.2435 13.6392 34.2557C13.6432 34.2679 13.6921 34.2883 13.7084 34.3006C13.749 34.2312 13.7814 34.1619 13.822 34.1007C13.8098 34.0967 13.7773 34.0722 13.7692 34.0681C13.757 34.064 13.7448 34.0559 13.7367 34.0436C13.7245 34.0314 13.7204 34.0273 13.7123 34.0151L14.228 33.4972C14.2524 33.4727 14.2727 33.4645 14.2849 33.4564C14.2971 33.4564 14.3093 33.4564 14.3174 33.4605C14.3336 33.4645 14.3498 33.4849 14.3701 33.5012C14.4026 33.5339 14.4271 33.5746 14.4434 33.6154L14.4312 33.6399C14.2606 33.8846 13.9276 34.3699 13.8098 34.7737C13.5824 35.5811 14.5084 36.1562 15.1867 36.5681C15.345 36.666 15.4912 36.7557 15.5928 36.8332C15.8893 37.0452 16.0964 37.294 16.2345 37.5428C16.4173 37.8853 16.4618 38.2605 16.4049 38.6317C16.3481 39.0028 16.1816 39.378 15.942 39.7165C15.6577 40.108 15.2679 40.4465 14.8212 40.6789L14.7926 40.6953L14.7764 40.7197C14.1063 41.4579 13.3671 42.0778 12.5548 42.4122L12.5629 42.4244ZM22.7448 34.9245L22.7164 34.9368L22.692 34.9531C22.3265 35.3079 21.8879 35.573 21.429 35.728C21.0391 35.8544 20.6328 35.8992 20.2592 35.8381C19.8936 35.7769 19.5566 35.6138 19.2886 35.3324C19.0815 35.1244 18.9229 34.8511 18.8092 34.5045C18.7686 34.3821 18.7282 34.219 18.6835 34.0355C18.5007 33.2606 18.2488 32.2003 17.4081 32.1636C16.9857 32.1513 16.4253 32.3185 16.141 32.4042H16.1166C16.0841 32.3797 16.0475 32.3471 16.0272 32.3063C16.015 32.2818 16.011 32.2614 16.011 32.2451C16.0069 32.2329 16.0111 32.2207 16.0151 32.2125C16.0192 32.2003 16.0395 32.184 16.0679 32.1676L16.7178 31.8414C16.7178 31.8414 16.7298 31.8577 16.7339 31.8699C16.738 31.8822 16.7462 31.8944 16.7503 31.9107C16.7503 31.9148 16.7543 31.9556 16.7625 31.9678C16.8356 31.9515 16.9126 31.9352 16.9857 31.923C16.9817 31.8985 16.9736 31.8536 16.9695 31.8414C16.9654 31.8128 16.9534 31.7884 16.9412 31.768C16.9127 31.7068 16.8679 31.6538 16.811 31.6252C16.8232 31.6008 16.8437 31.5804 16.864 31.5641C16.9859 31.4621 17.1402 31.4662 17.2579 31.56C17.331 31.6212 17.396 31.7109 17.4163 31.8128C17.4203 31.8292 17.4284 31.8536 17.4284 31.874H17.5299C17.5746 31.874 17.6234 31.8781 17.6681 31.8862C17.664 31.8577 17.6559 31.8251 17.6559 31.8128C17.6518 31.7884 17.6437 31.7721 17.6397 31.7517C17.599 31.6089 17.5137 31.4743 17.4041 31.3846C17.3431 31.3316 17.266 31.299 17.1929 31.2745V31.2623C17.0954 30.989 17.189 30.7688 17.3717 30.6179C17.4692 30.5363 17.595 30.4752 17.733 30.4385C17.8711 30.3977 18.0254 30.3814 18.1716 30.3977C18.5412 30.4303 18.9067 30.6424 19.0326 31.091C19.1585 31.56 19.3413 31.976 19.5647 32.3022C19.8571 32.7386 20.0968 32.8977 20.5516 33.1056L20.5841 32.8813C20.8603 31.1032 22.8422 30.5975 24.5033 30.1734C25.0922 30.0225 25.6405 29.8879 26.0751 29.7044C26.0142 29.8349 25.9492 29.9613 25.9046 30.0959C25.8233 30.3324 25.7907 30.5731 25.811 30.8585C25.9045 31.8577 25.5876 32.6733 25.0353 33.3299C24.4708 34.0029 23.6464 34.5249 22.7448 34.9286V34.9245Z" fill="#ADADAD"/>
<path d="M25.3785 31.9053C25.5097 31.7031 25.5447 31.4714 25.4835 31.2019C25.6322 31.1387 25.7545 31.0587 25.8507 30.9702C26.0125 30.8228 26.1041 30.6501 26.126 30.4437L26.1392 30.351C26.008 30.3931 25.8814 30.4268 25.7459 30.4648C25.7284 30.5616 25.6802 30.6417 25.5972 30.7133C25.5054 30.7975 25.3828 30.8607 25.2211 30.9197L22.9962 31.5767L23.1054 31.9221L25.1206 31.324C25.1512 31.4799 25.125 31.6146 25.0595 31.7199C24.9808 31.8463 24.8277 31.9432 24.6091 32.0232L22.161 32.7477L22.2704 33.0931L24.5524 32.4192C24.6092 32.4065 24.6617 32.3897 24.7141 32.3728C24.771 32.6087 24.7447 32.8109 24.6398 32.9709C24.5043 33.1773 24.2333 33.3374 23.8355 33.4469L21.4922 34.0913L21.5929 34.4367L23.9404 33.7923C24.4344 33.6575 24.7709 33.4469 24.9545 33.1647C25.125 32.9035 25.1644 32.5834 25.0595 32.217C25.195 32.1327 25.3 32.0316 25.3743 31.9221L25.3785 31.9053Z" fill="#ADADAD"/>
<path d="M25.3785 31.9053C25.5097 31.7031 25.5447 31.4714 25.4835 31.2019C25.6322 31.1387 25.7545 31.0587 25.8507 30.9702C26.0125 30.8228 26.1041 30.6501 26.126 30.4437L26.1392 30.351C26.008 30.3931 25.8814 30.4268 25.7459 30.4648C25.7284 30.5616 25.6802 30.6417 25.5972 30.7133C25.5054 30.7975 25.3828 30.8607 25.2211 30.9197L22.9962 31.5767L23.1054 31.9221L25.1206 31.324C25.1512 31.4799 25.125 31.6146 25.0595 31.7199C24.9808 31.8463 24.8277 31.9432 24.6091 32.0232L22.161 32.7477L22.2704 33.0931L24.5524 32.4192C24.6092 32.4065 24.6617 32.3897 24.7141 32.3728C24.771 32.6087 24.7447 32.8109 24.6398 32.9709C24.5043 33.1773 24.2333 33.3374 23.8355 33.4469L21.4922 34.0913L21.5929 34.4367L23.9404 33.7923C24.4344 33.6575 24.7709 33.4469 24.9545 33.1647C25.125 32.9035 25.1644 32.5834 25.0595 32.217C25.195 32.1327 25.3 32.0316 25.3743 31.9221L25.3785 31.9053Z" fill="#ADADAD"/>
<path d="M24.5595 36.4758C24.346 36.7431 24.0881 36.9898 23.782 37.216C23.4799 37.4421 23.1698 37.6148 22.8516 37.7423C22.5293 37.8698 22.1991 37.9561 21.8768 37.9849L21.7277 38.0014L21.6674 38.1412C21.5425 38.4414 21.3651 38.7292 21.1395 39.0088C20.9261 39.2761 20.6644 39.5228 20.3623 39.749C20.0602 39.9751 19.7458 40.1478 19.4317 40.2753C19.1014 40.4069 18.7753 40.4891 18.457 40.5179L18.308 40.5344L18.2476 40.6742C18.1227 40.9743 17.9414 41.2704 17.7199 41.5418C17.5064 41.8091 17.2445 42.064 16.9424 42.282C16.6403 42.5081 16.3262 42.6808 16.012 42.8083C15.6817 42.9399 15.3555 43.0221 15.0372 43.0509L14.8881 43.0673L14.8276 43.2071C14.6987 43.5073 14.5215 43.8034 14.2999 44.0789C14.0865 44.3462 13.8248 44.5929 13.5227 44.819C13.2166 45.037 12.9064 45.2179 12.5881 45.3454C12.2659 45.4728 11.9357 45.5551 11.6174 45.588L11.6698 46.1102C12.0323 46.0773 12.4068 45.9786 12.7814 45.8306C13.1399 45.6867 13.4904 45.4893 13.8247 45.2385C14.159 44.9917 14.4491 44.7121 14.6908 44.4037C14.9123 44.1323 15.0935 43.8445 15.2345 43.5484C15.5527 43.5073 15.8749 43.421 16.1972 43.2894C16.5556 43.1455 16.9102 42.9522 17.2405 42.7055C17.5748 42.4588 17.8648 42.175 18.1145 41.8708C18.3361 41.5994 18.5175 41.3115 18.6544 41.0155C18.9726 40.9743 19.2948 40.8839 19.6171 40.7564C19.9796 40.6125 20.3301 40.4151 20.6604 40.1725C20.9947 39.9258 21.2886 39.6421 21.5343 39.3378C21.7559 39.0664 21.9372 38.7785 22.0741 38.4825C22.3923 38.4372 22.7185 38.3509 23.0368 38.2234C23.3993 38.0795 23.7499 37.8821 24.0842 37.6354C24.4145 37.3928 24.7084 37.1091 24.9501 36.8089C25.2038 36.4923 25.4093 36.1551 25.5584 35.8138L25.087 35.6041C24.9581 35.9001 24.781 36.1962 24.5554 36.4717L24.5595 36.4758Z" fill="#ADADAD"/>
<path d="M24.5595 36.4758C24.346 36.7431 24.0881 36.9898 23.782 37.216C23.4799 37.4421 23.1698 37.6148 22.8516 37.7423C22.5293 37.8698 22.1991 37.9561 21.8768 37.9849L21.7277 38.0014L21.6674 38.1412C21.5425 38.4414 21.3651 38.7292 21.1395 39.0088C20.9261 39.2761 20.6644 39.5228 20.3623 39.749C20.0602 39.9751 19.7458 40.1478 19.4317 40.2753C19.1014 40.4069 18.7753 40.4891 18.457 40.5179L18.308 40.5344L18.2476 40.6742C18.1227 40.9743 17.9414 41.2704 17.7199 41.5418C17.5064 41.8091 17.2445 42.064 16.9424 42.282C16.6403 42.5081 16.3262 42.6808 16.012 42.8083C15.6817 42.9399 15.3555 43.0221 15.0372 43.0509L14.8881 43.0673L14.8276 43.2071C14.6987 43.5073 14.5215 43.8034 14.2999 44.0789C14.0865 44.3462 13.8248 44.5929 13.5227 44.819C13.2166 45.037 12.9064 45.2179 12.5881 45.3454C12.2659 45.4728 11.9357 45.5551 11.6174 45.588L11.6698 46.1102C12.0323 46.0773 12.4068 45.9786 12.7814 45.8306C13.1399 45.6867 13.4904 45.4893 13.8247 45.2385C14.159 44.9917 14.4491 44.7121 14.6908 44.4037C14.9123 44.1323 15.0935 43.8445 15.2345 43.5484C15.5527 43.5073 15.8749 43.421 16.1972 43.2894C16.5556 43.1455 16.9102 42.9522 17.2405 42.7055C17.5748 42.4588 17.8648 42.175 18.1145 41.8708C18.3361 41.5994 18.5175 41.3115 18.6544 41.0155C18.9726 40.9743 19.2948 40.8839 19.6171 40.7564C19.9796 40.6125 20.3301 40.4151 20.6604 40.1725C20.9947 39.9258 21.2886 39.6421 21.5343 39.3378C21.7559 39.0664 21.9372 38.7785 22.0741 38.4825C22.3923 38.4372 22.7185 38.3509 23.0368 38.2234C23.3993 38.0795 23.7499 37.8821 24.0842 37.6354C24.4145 37.3928 24.7084 37.1091 24.9501 36.8089C25.2038 36.4923 25.4093 36.1551 25.5584 35.8138L25.087 35.6041C24.9581 35.9001 24.781 36.1962 24.5554 36.4717L24.5595 36.4758Z" fill="#ADADAD"/>
<path d="M52.6253 41.4206C52.1279 39.4707 52.0456 37.5497 52.5142 35.5258C52.9827 33.4731 54.0102 31.2971 55.7365 28.866L56.0736 28.397L47.874 19.8449L47.4342 20.0177C44.5079 21.1859 41.5322 22.0827 38.5072 22.6833C35.4822 23.2838 32.4324 23.5924 29.3375 23.58H29.3252C26.2386 23.5924 23.1807 23.2838 20.1598 22.6833C17.1307 22.0827 14.1591 21.1859 11.2286 20.0177L10.7929 19.8449L2.58937 28.397L2.92628 28.866C4.64839 31.2971 5.68006 33.4731 6.15272 35.5258C6.61305 37.5497 6.53509 39.4707 6.04188 41.4206C5.43359 43.8105 4.29499 45.9619 3.18116 48.0681C0.760337 52.6547 -1.54948 57.0315 1.35633 63.3746C4.12651 69.4257 10.9286 72.9263 17.7719 76.4517C21.7545 78.5002 25.7577 80.5611 28.8937 83.1074L29.3375 83.4653L29.7774 83.1074C32.9092 80.5611 36.9124 78.5002 40.8992 76.4517C47.7342 72.9263 54.5363 69.4257 57.3147 63.3746C60.2164 57.0315 57.9068 52.6588 55.4818 48.0681C54.368 45.9619 53.2335 43.8105 52.6253 41.4206ZM10.752 70.9971C8.08864 69.3229 5.7458 67.4718 4.08534 65.2504L10.752 60.4088V70.9971ZM16.806 53.5391C16.4115 54.366 15.6141 55.2298 14.3934 56.1019C13.0289 57.0686 11.9355 57.6115 11.1094 57.6979C10.2997 57.8008 9.61749 57.4676 9.07496 56.7066L7.19666 54.078C7.02815 53.8394 6.86786 53.7242 6.69935 53.7242C6.53906 53.7407 6.276 53.8682 5.92665 54.1068L5.38819 54.4894L4.89515 53.8065L7.31593 52.0747L9.75733 50.3141L10.2505 51.0134L9.72022 51.3795C9.3832 51.6181 9.19826 51.8238 9.12428 51.9924C9.0914 52.1364 9.12434 52.3215 9.30519 52.5601L10.9121 54.7979C11.3519 55.4272 11.8411 55.7481 12.3754 55.7687C12.9138 55.7851 13.5714 55.5301 14.3358 54.9871C15.0921 54.4359 15.5402 53.8888 15.6881 53.354C15.8402 52.8234 15.6593 52.2145 15.2195 51.5769L13.6701 49.4297C13.5098 49.1911 13.3248 49.0759 13.1563 49.0924C12.9713 49.1088 12.6918 49.2363 12.3219 49.5161L11.7135 49.948L11.2411 49.2487L13.1276 47.9159L14.9934 46.5625L15.4867 47.2454L15.0634 47.558C14.8044 47.7596 14.636 47.9035 14.6195 48.0557C14.5784 48.1832 14.6318 48.3848 14.8168 48.6234L16.6951 51.2314C17.1677 51.9266 17.2211 52.6794 16.8101 53.5227L16.806 53.5391ZM25.6591 79.1584C23.3657 77.7598 20.8832 76.4805 18.4048 75.2053C18.1582 75.0777 17.9076 74.9461 17.661 74.8186V55.382L25.6632 49.5531V79.1543L25.6591 79.1584ZM20.0119 50.0714C20.1434 49.7999 20.3818 49.5202 20.7764 49.2487C21.1463 48.9689 21.475 48.8085 21.7874 48.8085C22.0833 48.7756 22.3011 48.8743 22.445 49.0924C22.6299 49.3104 22.63 49.5736 22.5149 49.8287C22.4039 50.1084 22.145 50.3799 21.7587 50.6349C21.3888 50.9311 21.0353 51.0586 20.7599 51.0916C20.4722 51.1245 20.2462 51.034 20.0653 50.8118C19.9215 50.5856 19.905 50.3305 20.0119 50.0714ZM30.5789 43.971C30.1555 43.9298 29.7362 43.6707 29.3375 43.1153C29.1855 42.9302 29.0211 42.7287 28.8156 42.5271C28.6347 42.342 28.4169 42.2433 28.1744 42.2597C27.9361 42.2762 27.6443 42.4202 27.3073 42.6587L25.7905 43.7365L26.7976 45.1269C26.9415 45.3531 27.1429 45.4642 27.3484 45.4436C27.5498 45.4107 27.8622 45.2421 28.306 44.9335L28.9882 44.4029L29.5101 45.0899L26.8222 47.0397L24.1055 48.9566L23.6124 48.2902L24.1836 47.8747C24.5699 47.595 24.7713 47.377 24.8494 47.233C24.9069 47.0479 24.8534 46.8628 24.689 46.6242L22.2847 43.2552C22.1162 43.0536 21.956 42.9385 21.771 42.9385C21.5861 42.9549 21.3107 43.0989 20.9367 43.3539L20.3488 43.7776L19.8557 43.1112L22.4244 41.2478L25.9921 38.6974C26.8429 38.0968 27.5991 37.7471 28.2814 37.6608C28.9472 37.5744 29.4279 37.7759 29.7567 38.2202C30.102 38.7015 30.1391 39.2321 29.8185 39.8245C29.6171 40.2482 29.2596 40.6883 28.754 41.145C29.013 41.0174 29.2185 40.9269 29.424 40.8735C30.1967 40.6184 30.7554 40.6925 31.0596 41.1408L31.5693 41.8648C31.7009 42.0335 31.8078 42.161 31.9147 42.2021C32.0092 42.2556 32.1159 42.235 32.2105 42.1857C32.342 42.0746 32.4367 41.9677 32.4531 41.8566C32.4778 41.7455 32.4366 41.6139 32.3421 41.4699L31.8159 40.783L32.7243 40.1289L33.2339 40.8282C33.5216 41.2396 33.5791 41.6262 33.4147 42.0088C33.2626 42.4119 32.8723 42.8356 32.2229 43.2717C31.5571 43.7694 31.0104 43.9998 30.5789 43.9833V43.971ZM41.0101 74.8186C40.7553 74.9461 40.5087 75.0777 40.2579 75.2053C37.7837 76.4805 35.2972 77.7557 33.0038 79.1584V44.2219L41.0101 38.4012V74.8227V74.8186ZM34.4711 39.7093C34.5862 39.4502 34.8286 39.154 35.215 38.8989C35.5849 38.611 35.9302 38.4835 36.2261 38.4464C36.522 38.4135 36.7398 38.504 36.9083 38.7262C37.0686 38.9689 37.0687 39.2075 36.9536 39.4666C36.8427 39.7381 36.5837 40.0178 36.2138 40.2893C35.8274 40.5608 35.4986 40.7295 35.2026 40.7459C34.9273 40.7583 34.689 40.6637 34.5205 40.4456C34.3602 40.2276 34.3396 39.9808 34.4671 39.7093H34.4711ZM42.9461 35.4682L40.3402 37.3317L39.8674 36.6324L40.4389 36.2087C40.8252 35.9536 41.0512 35.7356 41.1088 35.5505C41.1828 35.4065 41.1253 35.205 40.9815 34.9828L38.1701 31.0585L37.5043 31.5315C36.8754 31.9717 36.5055 32.3707 36.3945 32.6833C36.2836 32.996 36.3905 33.3826 36.6618 33.8968L37.0275 34.3987L35.9589 35.1638L34.2655 32.7779L38.7003 29.5858L43.1597 26.3937L44.0147 27.599L44.8695 28.7796L43.8008 29.5488L43.4351 29.047C43.0652 28.6233 42.6994 28.4011 42.3706 28.4011C42.0336 28.397 41.5567 28.6315 40.932 29.0881L40.2827 29.5611L43.0693 33.469C43.2379 33.687 43.3981 33.7981 43.583 33.7817C43.768 33.7652 44.0639 33.6377 44.4338 33.3662L45.0421 32.9302L45.5394 33.613L42.9501 35.4723L42.9461 35.4682ZM1.81666 54.7074C2.35508 52.6341 3.37838 50.6966 4.41822 48.7262C5.57315 46.5378 6.75288 44.3124 7.39405 41.7661C7.9448 39.6065 8.03102 37.4715 7.50904 35.2173C7.02817 33.1235 6.02949 30.9351 4.39369 28.541L11.1505 21.4944C14.0317 22.6174 16.9376 23.4772 19.8804 24.0695C22.9794 24.6825 26.1235 24.9992 29.3335 24.9827C32.5352 24.9992 35.6794 24.6825 38.7743 24.0695C41.7048 23.4854 44.6064 22.6216 47.4794 21.4986L1.81251 54.7115L1.81666 54.7074ZM48.0219 29.9972C48.1328 29.738 48.3918 29.446 48.7617 29.1868C49.1481 28.8989 49.4851 28.7713 49.781 28.7343C50.0769 28.7014 50.3112 28.8084 50.4591 29.0346C50.6276 29.2362 50.6441 29.4912 50.5291 29.7709C50.4017 30.026 50.1591 30.3016 49.7727 30.5772C49.3864 30.8487 49.0495 31.0009 48.7536 31.0338C48.4823 31.0461 48.2397 30.9515 48.0753 30.7335C47.9315 30.5073 47.8903 30.2687 48.0219 29.9972ZM56.0407 62.7946C54.4953 66.1678 51.4949 68.7387 47.9109 70.993V33.3827L53.9692 28.9729C52.5061 31.2025 51.5977 33.251 51.1497 35.2091C50.6277 37.4674 50.714 39.6024 51.2648 41.7579C51.9142 44.3042 53.0897 46.5296 54.2405 48.718C56.501 52.9961 58.6588 57.0727 56.0407 62.7905V62.7946Z" fill="#ADADAD"/>
<path d="M52.6253 41.4206C52.1279 39.4707 52.0456 37.5497 52.5142 35.5258C52.9827 33.4731 54.0102 31.2971 55.7365 28.866L56.0736 28.397L47.874 19.8449L47.4342 20.0177C44.5079 21.1859 41.5322 22.0827 38.5072 22.6833C35.4822 23.2838 32.4324 23.5924 29.3375 23.58H29.3252C26.2386 23.5924 23.1807 23.2838 20.1598 22.6833C17.1307 22.0827 14.1591 21.1859 11.2286 20.0177L10.7929 19.8449L2.58937 28.397L2.92628 28.866C4.64839 31.2971 5.68006 33.4731 6.15272 35.5258C6.61305 37.5497 6.53509 39.4707 6.04188 41.4206C5.43359 43.8105 4.29499 45.9619 3.18116 48.0681C0.760337 52.6547 -1.54948 57.0315 1.35633 63.3746C4.12651 69.4257 10.9286 72.9263 17.7719 76.4517C21.7545 78.5002 25.7577 80.5611 28.8937 83.1074L29.3375 83.4653L29.7774 83.1074C32.9092 80.5611 36.9124 78.5002 40.8992 76.4517C47.7342 72.9263 54.5363 69.4257 57.3147 63.3746C60.2164 57.0315 57.9068 52.6588 55.4818 48.0681C54.368 45.9619 53.2335 43.8105 52.6253 41.4206ZM10.752 70.9971C8.08864 69.3229 5.7458 67.4718 4.08534 65.2504L10.752 60.4088V70.9971ZM16.806 53.5391C16.4115 54.366 15.6141 55.2298 14.3934 56.1019C13.0289 57.0686 11.9355 57.6115 11.1094 57.6979C10.2997 57.8008 9.61749 57.4676 9.07496 56.7066L7.19666 54.078C7.02815 53.8394 6.86786 53.7242 6.69935 53.7242C6.53906 53.7407 6.276 53.8682 5.92665 54.1068L5.38819 54.4894L4.89515 53.8065L7.31593 52.0747L9.75733 50.3141L10.2505 51.0134L9.72022 51.3795C9.3832 51.6181 9.19826 51.8238 9.12428 51.9924C9.0914 52.1364 9.12434 52.3215 9.30519 52.5601L10.9121 54.7979C11.3519 55.4272 11.8411 55.7481 12.3754 55.7687C12.9138 55.7851 13.5714 55.5301 14.3358 54.9871C15.0921 54.4359 15.5402 53.8888 15.6881 53.354C15.8402 52.8234 15.6593 52.2145 15.2195 51.5769L13.6701 49.4297C13.5098 49.1911 13.3248 49.0759 13.1563 49.0924C12.9713 49.1088 12.6918 49.2363 12.3219 49.5161L11.7135 49.948L11.2411 49.2487L13.1276 47.9159L14.9934 46.5625L15.4867 47.2454L15.0634 47.558C14.8044 47.7596 14.636 47.9035 14.6195 48.0557C14.5784 48.1832 14.6318 48.3848 14.8168 48.6234L16.6951 51.2314C17.1677 51.9266 17.2211 52.6794 16.8101 53.5227L16.806 53.5391ZM25.6591 79.1584C23.3657 77.7598 20.8832 76.4805 18.4048 75.2053C18.1582 75.0777 17.9076 74.9461 17.661 74.8186V55.382L25.6632 49.5531V79.1543L25.6591 79.1584ZM20.0119 50.0714C20.1434 49.7999 20.3818 49.5202 20.7764 49.2487C21.1463 48.9689 21.475 48.8085 21.7874 48.8085C22.0833 48.7756 22.3011 48.8743 22.445 49.0924C22.6299 49.3104 22.63 49.5736 22.5149 49.8287C22.4039 50.1084 22.145 50.3799 21.7587 50.6349C21.3888 50.9311 21.0353 51.0586 20.7599 51.0916C20.4722 51.1245 20.2462 51.034 20.0653 50.8118C19.9215 50.5856 19.905 50.3305 20.0119 50.0714ZM30.5789 43.971C30.1555 43.9298 29.7362 43.6707 29.3375 43.1153C29.1855 42.9302 29.0211 42.7287 28.8156 42.5271C28.6347 42.342 28.4169 42.2433 28.1744 42.2597C27.9361 42.2762 27.6443 42.4202 27.3073 42.6587L25.7905 43.7365L26.7976 45.1269C26.9415 45.3531 27.1429 45.4642 27.3484 45.4436C27.5498 45.4107 27.8622 45.2421 28.306 44.9335L28.9882 44.4029L29.5101 45.0899L26.8222 47.0397L24.1055 48.9566L23.6124 48.2902L24.1836 47.8747C24.5699 47.595 24.7713 47.377 24.8494 47.233C24.9069 47.0479 24.8534 46.8628 24.689 46.6242L22.2847 43.2552C22.1162 43.0536 21.956 42.9385 21.771 42.9385C21.5861 42.9549 21.3107 43.0989 20.9367 43.3539L20.3488 43.7776L19.8557 43.1112L22.4244 41.2478L25.9921 38.6974C26.8429 38.0968 27.5991 37.7471 28.2814 37.6608C28.9472 37.5744 29.4279 37.7759 29.7567 38.2202C30.102 38.7015 30.1391 39.2321 29.8185 39.8245C29.6171 40.2482 29.2596 40.6883 28.754 41.145C29.013 41.0174 29.2185 40.9269 29.424 40.8735C30.1967 40.6184 30.7554 40.6925 31.0596 41.1408L31.5693 41.8648C31.7009 42.0335 31.8078 42.161 31.9147 42.2021C32.0092 42.2556 32.1159 42.235 32.2105 42.1857C32.342 42.0746 32.4367 41.9677 32.4531 41.8566C32.4778 41.7455 32.4366 41.6139 32.3421 41.4699L31.8159 40.783L32.7243 40.1289L33.2339 40.8282C33.5216 41.2396 33.5791 41.6262 33.4147 42.0088C33.2626 42.4119 32.8723 42.8356 32.2229 43.2717C31.5571 43.7694 31.0104 43.9998 30.5789 43.9833V43.971ZM41.0101 74.8186C40.7553 74.9461 40.5087 75.0777 40.2579 75.2053C37.7837 76.4805 35.2972 77.7557 33.0038 79.1584V44.2219L41.0101 38.4012V74.8227V74.8186ZM34.4711 39.7093C34.5862 39.4502 34.8286 39.154 35.215 38.8989C35.5849 38.611 35.9302 38.4835 36.2261 38.4464C36.522 38.4135 36.7398 38.504 36.9083 38.7262C37.0686 38.9689 37.0687 39.2075 36.9536 39.4666C36.8427 39.7381 36.5837 40.0178 36.2138 40.2893C35.8274 40.5608 35.4986 40.7295 35.2026 40.7459C34.9273 40.7583 34.689 40.6637 34.5205 40.4456C34.3602 40.2276 34.3396 39.9808 34.4671 39.7093H34.4711ZM42.9461 35.4682L40.3402 37.3317L39.8674 36.6324L40.4389 36.2087C40.8252 35.9536 41.0512 35.7356 41.1088 35.5505C41.1828 35.4065 41.1253 35.205 40.9815 34.9828L38.1701 31.0585L37.5043 31.5315C36.8754 31.9717 36.5055 32.3707 36.3945 32.6833C36.2836 32.996 36.3905 33.3826 36.6618 33.8968L37.0275 34.3987L35.9589 35.1638L34.2655 32.7779L38.7003 29.5858L43.1597 26.3937L44.0147 27.599L44.8695 28.7796L43.8008 29.5488L43.4351 29.047C43.0652 28.6233 42.6994 28.4011 42.3706 28.4011C42.0336 28.397 41.5567 28.6315 40.932 29.0881L40.2827 29.5611L43.0693 33.469C43.2379 33.687 43.3981 33.7981 43.583 33.7817C43.768 33.7652 44.0639 33.6377 44.4338 33.3662L45.0421 32.9302L45.5394 33.613L42.9501 35.4723L42.9461 35.4682ZM1.81666 54.7074C2.35508 52.6341 3.37838 50.6966 4.41822 48.7262C5.57315 46.5378 6.75288 44.3124 7.39405 41.7661C7.9448 39.6065 8.03102 37.4715 7.50904 35.2173C7.02817 33.1235 6.02949 30.9351 4.39369 28.541L11.1505 21.4944C14.0317 22.6174 16.9376 23.4772 19.8804 24.0695C22.9794 24.6825 26.1235 24.9992 29.3335 24.9827C32.5352 24.9992 35.6794 24.6825 38.7743 24.0695C41.7048 23.4854 44.6064 22.6216 47.4794 21.4986L1.81251 54.7115L1.81666 54.7074ZM48.0219 29.9972C48.1328 29.738 48.3918 29.446 48.7617 29.1868C49.1481 28.8989 49.4851 28.7713 49.781 28.7343C50.0769 28.7014 50.3112 28.8084 50.4591 29.0346C50.6276 29.2362 50.6441 29.4912 50.5291 29.7709C50.4017 30.026 50.1591 30.3016 49.7727 30.5772C49.3864 30.8487 49.0495 31.0009 48.7536 31.0338C48.4823 31.0461 48.2397 30.9515 48.0753 30.7335C47.9315 30.5073 47.8903 30.2687 48.0219 29.9972ZM56.0407 62.7946C54.4953 66.1678 51.4949 68.7387 47.9109 70.993V33.3827L53.9692 28.9729C52.5061 31.2025 51.5977 33.251 51.1497 35.2091C50.6277 37.4674 50.714 39.6024 51.2648 41.7579C51.9142 44.3042 53.0897 46.5296 54.2405 48.718C56.501 52.9961 58.6588 57.0727 56.0407 62.7905V62.7946Z" fill="#ADADAD"/>
<path d="M12.1983 91.188C12.1983 91.0016 12.1529 90.8501 12.0659 90.7336C11.979 90.617 11.8694 90.5393 11.7371 90.5043C11.6539 90.481 11.4686 90.4694 11.1926 90.4694H10.4557V92.8041H10.913V91.9223H11.2117C11.4196 91.9223 11.5783 91.9106 11.6879 91.8873C11.7673 91.8679 11.8468 91.8329 11.9262 91.7785C12.0055 91.7241 12.0698 91.6464 12.1189 91.5493C12.168 91.4522 12.1945 91.3318 12.1945 91.188H12.1983ZM11.6729 91.3745C11.6388 91.425 11.5897 91.4639 11.5292 91.4911C11.4687 91.5144 11.3477 91.526 11.1663 91.526H10.9169V90.8618H11.1399C11.3062 90.8618 11.4157 90.8656 11.4686 90.8773C11.5442 90.8928 11.6047 90.9239 11.6538 90.9822C11.703 91.0366 11.7257 91.1065 11.7257 91.1919C11.7257 91.2619 11.7069 91.3201 11.6729 91.3745Z" fill="#ADADAD"/>
<path d="M12.1983 91.188C12.1983 91.0016 12.1529 90.8501 12.0659 90.7336C11.979 90.617 11.8694 90.5393 11.7371 90.5043C11.6539 90.481 11.4686 90.4694 11.1926 90.4694H10.4557V92.8041H10.913V91.9223H11.2117C11.4196 91.9223 11.5783 91.9106 11.6879 91.8873C11.7673 91.8679 11.8468 91.8329 11.9262 91.7785C12.0055 91.7241 12.0698 91.6464 12.1189 91.5493C12.168 91.4522 12.1945 91.3318 12.1945 91.188H12.1983ZM11.6729 91.3745C11.6388 91.425 11.5897 91.4639 11.5292 91.4911C11.4687 91.5144 11.3477 91.526 11.1663 91.526H10.9169V90.8618H11.1399C11.3062 90.8618 11.4157 90.8656 11.4686 90.8773C11.5442 90.8928 11.6047 90.9239 11.6538 90.9822C11.703 91.0366 11.7257 91.1065 11.7257 91.1919C11.7257 91.2619 11.7069 91.3201 11.6729 91.3745Z" fill="#ADADAD"/>
<path d="M13.3253 90.4694L12.1983 92.8041H12.8196L13.0604 92.2719H14.2163L14.4669 92.8041H15.1027L13.9418 90.4694H13.3253ZM13.2387 91.8795L13.6288 91.0132L14.0285 91.8795H13.2387Z" fill="#ADADAD"/>
<path d="M13.3253 90.4694L12.1983 92.8041H12.8196L13.0604 92.2719H14.2163L14.4669 92.8041H15.1027L13.9418 90.4694H13.3253ZM13.2387 91.8795L13.6288 91.0132L14.0285 91.8795H13.2387Z" fill="#ADADAD"/>
<path d="M14.5217 90.8656H15.392V92.8041H15.9801V90.8656H16.8452V90.4694H14.5217V90.8656Z" fill="#ADADAD"/>
<path d="M14.5217 90.8656H15.392V92.8041H15.9801V90.8656H16.8452V90.4694H14.5217V90.8656Z" fill="#ADADAD"/>
<path d="M18.005 90.4694C17.8097 90.4694 17.6383 90.4995 17.4868 90.5596C17.3752 90.6047 17.2717 90.6724 17.176 90.7626C17.0804 90.8529 17.0086 90.9581 16.9528 91.0709C16.881 91.2288 16.8452 91.4206 16.8452 91.6499C16.8452 92.0108 16.9488 92.2928 17.16 92.4958C17.3713 92.7026 17.6543 92.8041 18.009 92.8041C18.3638 92.8041 18.6427 92.7026 18.8539 92.4958C19.0651 92.289 19.1687 92.0033 19.1687 91.6386C19.1687 91.2739 19.0612 90.9845 18.85 90.7777C18.6388 90.5709 18.3558 90.4694 18.0011 90.4694H18.005ZM18.4833 92.2176C18.3597 92.3492 18.2003 92.4131 18.009 92.4131C17.8177 92.4131 17.6583 92.3454 17.5308 92.2138C17.4072 92.0823 17.3435 91.8868 17.3435 91.6311C17.3435 91.3755 17.4033 91.1762 17.5269 91.0484C17.6504 90.9205 17.8098 90.8566 18.009 90.8566C18.2083 90.8566 18.3676 90.9205 18.4872 91.0484C18.6068 91.1762 18.6666 91.3679 18.6666 91.6273C18.6666 91.8868 18.6028 92.086 18.4793 92.2176H18.4833Z" fill="#ADADAD"/>
<path d="M18.005 90.4694C17.8097 90.4694 17.6383 90.4995 17.4868 90.5596C17.3752 90.6047 17.2717 90.6724 17.176 90.7626C17.0804 90.8529 17.0086 90.9581 16.9528 91.0709C16.881 91.2288 16.8452 91.4206 16.8452 91.6499C16.8452 92.0108 16.9488 92.2928 17.16 92.4958C17.3713 92.7026 17.6543 92.8041 18.009 92.8041C18.3638 92.8041 18.6427 92.7026 18.8539 92.4958C19.0651 92.289 19.1687 92.0033 19.1687 91.6386C19.1687 91.2739 19.0612 90.9845 18.85 90.7777C18.6388 90.5709 18.3558 90.4694 18.0011 90.4694H18.005ZM18.4833 92.2176C18.3597 92.3492 18.2003 92.4131 18.009 92.4131C17.8177 92.4131 17.6583 92.3454 17.5308 92.2138C17.4072 92.0823 17.3435 91.8868 17.3435 91.6311C17.3435 91.3755 17.4033 91.1762 17.5269 91.0484C17.6504 90.9205 17.8098 90.8566 18.009 90.8566C18.2083 90.8566 18.3676 90.9205 18.4872 91.0484C18.6068 91.1762 18.6666 91.3679 18.6666 91.6273C18.6666 91.8868 18.6028 92.086 18.4793 92.2176H18.4833Z" fill="#ADADAD"/>
<path d="M21.0647 91.7737C20.9317 91.7034 20.7225 91.6377 20.4421 91.572C20.1618 91.5063 19.9859 91.4453 19.9099 91.3843C19.8529 91.3374 19.8244 91.2811 19.8244 91.2154C19.8244 91.1403 19.8529 91.084 19.9147 91.0418C20.0097 90.9714 20.1428 90.9386 20.3091 90.9386C20.4754 90.9386 20.5942 90.9714 20.6749 91.0324C20.7557 91.0934 20.808 91.2013 20.8318 91.3468L21.4067 91.3233C21.3972 91.0653 21.3022 90.8588 21.1216 90.704C20.941 90.5492 20.6702 90.4694 20.3139 90.4694C20.0953 90.4694 19.9052 90.5022 19.7532 90.5679C19.5964 90.6336 19.4775 90.7274 19.3967 90.8541C19.316 90.9808 19.2733 91.1122 19.2733 91.2576C19.2733 91.4828 19.3589 91.6705 19.5347 91.8253C19.6582 91.938 19.8767 92.0271 20.1856 92.1022C20.4279 92.1632 20.58 92.2007 20.6465 92.2242C20.7463 92.257 20.8127 92.2992 20.8555 92.3462C20.8935 92.3931 20.9125 92.4494 20.9125 92.5151C20.9125 92.6183 20.8651 92.7074 20.77 92.7872C20.675 92.867 20.5373 92.9045 20.3519 92.9045C20.1761 92.9045 20.0383 92.8623 19.9337 92.7731C19.8292 92.684 19.7626 92.5479 19.7294 92.3649L19.1687 92.4165C19.2067 92.7309 19.3208 92.9702 19.5156 93.1391C19.7105 93.3033 19.9859 93.3878 20.3471 93.3878C20.5941 93.3878 20.8032 93.3549 20.9695 93.2845C21.1358 93.2141 21.2641 93.1109 21.3544 92.9702C21.4447 92.8294 21.4922 92.6793 21.4922 92.5151C21.4922 92.3368 21.4542 92.1866 21.3782 92.0646C21.3022 91.9426 21.1978 91.8488 21.0647 91.7784V91.7737Z" fill="#ADADAD"/>
<path d="M21.0647 91.7737C20.9317 91.7034 20.7225 91.6377 20.4421 91.572C20.1618 91.5063 19.9859 91.4453 19.9099 91.3843C19.8529 91.3374 19.8244 91.2811 19.8244 91.2154C19.8244 91.1403 19.8529 91.084 19.9147 91.0418C20.0097 90.9714 20.1428 90.9386 20.3091 90.9386C20.4754 90.9386 20.5942 90.9714 20.6749 91.0324C20.7557 91.0934 20.808 91.2013 20.8318 91.3468L21.4067 91.3233C21.3972 91.0653 21.3022 90.8588 21.1216 90.704C20.941 90.5492 20.6702 90.4694 20.3139 90.4694C20.0953 90.4694 19.9052 90.5022 19.7532 90.5679C19.5964 90.6336 19.4775 90.7274 19.3967 90.8541C19.316 90.9808 19.2733 91.1122 19.2733 91.2576C19.2733 91.4828 19.3589 91.6705 19.5347 91.8253C19.6582 91.938 19.8767 92.0271 20.1856 92.1022C20.4279 92.1632 20.58 92.2007 20.6465 92.2242C20.7463 92.257 20.8127 92.2992 20.8555 92.3462C20.8935 92.3931 20.9125 92.4494 20.9125 92.5151C20.9125 92.6183 20.8651 92.7074 20.77 92.7872C20.675 92.867 20.5373 92.9045 20.3519 92.9045C20.1761 92.9045 20.0383 92.8623 19.9337 92.7731C19.8292 92.684 19.7626 92.5479 19.7294 92.3649L19.1687 92.4165C19.2067 92.7309 19.3208 92.9702 19.5156 93.1391C19.7105 93.3033 19.9859 93.3878 20.3471 93.3878C20.5941 93.3878 20.8032 93.3549 20.9695 93.2845C21.1358 93.2141 21.2641 93.1109 21.3544 92.9702C21.4447 92.8294 21.4922 92.6793 21.4922 92.5151C21.4922 92.3368 21.4542 92.1866 21.3782 92.0646C21.3022 91.9426 21.1978 91.8488 21.0647 91.7784V91.7737Z" fill="#ADADAD"/>
<path d="M24.6304 90.7258C24.5147 90.6209 24.3757 90.551 24.2091 90.5121C24.0888 90.481 23.9128 90.4694 23.6814 90.4694H22.6539V92.8041H23.7092C23.9175 92.8041 24.0841 92.7885 24.2045 92.7536C24.3711 92.7108 24.5008 92.6487 24.598 92.5671C24.7276 92.4622 24.8246 92.3263 24.8941 92.1553C24.9496 92.0155 24.9774 91.8523 24.9774 91.6581C24.9774 91.4406 24.9451 91.2541 24.8849 91.1065C24.8247 90.9589 24.7368 90.8307 24.6211 90.7297L24.6304 90.7258ZM24.3479 92.0621C24.3109 92.167 24.2599 92.2408 24.1997 92.2874C24.1395 92.334 24.0656 92.3651 23.973 92.3845C23.9036 92.4001 23.788 92.4079 23.6353 92.4079H23.214V90.8617H23.4686C23.6954 90.8617 23.8527 90.8695 23.9314 90.885C24.0379 90.9045 24.1211 90.9394 24.1906 90.9938C24.26 91.0482 24.3109 91.122 24.3479 91.2191C24.3849 91.3162 24.4036 91.4561 24.4036 91.6348C24.4036 91.8135 24.3849 91.9572 24.3479 92.0621Z" fill="#ADADAD"/>
<path d="M24.6304 90.7258C24.5147 90.6209 24.3757 90.551 24.2091 90.5121C24.0888 90.481 23.9128 90.4694 23.6814 90.4694H22.6539V92.8041H23.7092C23.9175 92.8041 24.0841 92.7885 24.2045 92.7536C24.3711 92.7108 24.5008 92.6487 24.598 92.5671C24.7276 92.4622 24.8246 92.3263 24.8941 92.1553C24.9496 92.0155 24.9774 91.8523 24.9774 91.6581C24.9774 91.4406 24.9451 91.2541 24.8849 91.1065C24.8247 90.9589 24.7368 90.8307 24.6211 90.7297L24.6304 90.7258ZM24.3479 92.0621C24.3109 92.167 24.2599 92.2408 24.1997 92.2874C24.1395 92.334 24.0656 92.3651 23.973 92.3845C23.9036 92.4001 23.788 92.4079 23.6353 92.4079H23.214V90.8617H23.4686C23.6954 90.8617 23.8527 90.8695 23.9314 90.885C24.0379 90.9045 24.1211 90.9394 24.1906 90.9938C24.26 91.0482 24.3109 91.122 24.3479 91.2191C24.3849 91.3162 24.4036 91.4561 24.4036 91.6348C24.4036 91.8135 24.3849 91.9572 24.3479 92.0621Z" fill="#ADADAD"/>
<path d="M26.0198 91.7746H27.1714V91.3823H26.0198V90.8656H27.2553V90.4694H25.5584V92.8041H27.3009V92.4117H26.0198V91.7746Z" fill="#ADADAD"/>
<path d="M26.0198 91.7746H27.1714V91.3823H26.0198V90.8656H27.2553V90.4694H25.5584V92.8041H27.3009V92.4117H26.0198V91.7746Z" fill="#ADADAD"/>
<path d="M29.6265 92.0621L29.1906 90.4694H28.4628V92.8041H28.9146V90.9666L29.3905 92.8041H29.8584L30.3342 90.9666V92.8041H30.7863V90.4694H30.0584L29.6265 92.0621Z" fill="#ADADAD"/>
<path d="M29.6265 92.0621L29.1906 90.4694H28.4628V92.8041H28.9146V90.9666L29.3905 92.8041H29.8584L30.3342 90.9666V92.8041H30.7863V90.4694H30.0584L29.6265 92.0621Z" fill="#ADADAD"/>
<path d="M31.948 90.4694H31.3671V92.8041H31.948V90.4694Z" fill="#ADADAD"/>
<path d="M31.948 90.4694H31.3671V92.8041H31.948V90.4694Z" fill="#ADADAD"/>
<path d="M33.8587 92.0271L32.96 90.4694H32.5288V92.8041H32.9417V91.2813L33.8257 92.8041H34.2715V90.4694H33.8587V92.0271Z" fill="#ADADAD"/>
<path d="M33.8587 92.0271L32.96 90.4694H32.5288V92.8041H32.9417V91.2813L33.8257 92.8041H34.2715V90.4694H33.8587V92.0271Z" fill="#ADADAD"/>
<path d="M35.7539 90.4694L34.8523 92.8041H35.3494L35.542 92.2719H36.4669L36.6672 92.8041H37.1758L36.2472 90.4694H35.7539ZM35.6846 91.8795L35.9967 91.0132L36.3165 91.8795H35.6846Z" fill="#ADADAD"/>
<path d="M35.7539 90.4694L34.8523 92.8041H35.3494L35.542 92.2719H36.4669L36.6672 92.8041H37.1758L36.2472 90.4694H35.7539ZM35.6846 91.8795L35.9967 91.0132L36.3165 91.8795H35.6846Z" fill="#ADADAD"/>
<path d="M39.0669 91.7737C38.9339 91.7034 38.7247 91.6377 38.4443 91.572C38.164 91.5063 37.9884 91.4453 37.9171 91.3843C37.8601 91.3374 37.8316 91.2811 37.8316 91.2154C37.8316 91.1403 37.86 91.084 37.9218 91.0418C38.0168 90.9714 38.1499 90.9386 38.3162 90.9386C38.4825 90.9386 38.6012 90.9714 38.682 91.0324C38.7628 91.0934 38.815 91.2013 38.8388 91.3468L39.4136 91.3233C39.4041 91.0653 39.3092 90.8588 39.1287 90.704C38.9481 90.5492 38.6772 90.4694 38.3208 90.4694C38.1022 90.4694 37.9123 90.5022 37.7603 90.5679C37.6035 90.6336 37.4846 90.7274 37.4038 90.8541C37.323 90.9808 37.2803 91.1122 37.2803 91.2576C37.2803 91.4828 37.3658 91.6705 37.5416 91.8253C37.6652 91.938 37.8838 92.0271 38.1926 92.1022C38.435 92.1632 38.5869 92.2007 38.6535 92.2242C38.7532 92.257 38.8198 92.2992 38.8626 92.3462C38.9006 92.3931 38.9196 92.4494 38.9196 92.5151C38.9196 92.6183 38.872 92.7074 38.777 92.7872C38.682 92.867 38.5443 92.9045 38.359 92.9045C38.1832 92.9045 38.0455 92.8623 37.9409 92.7731C37.8364 92.684 37.7696 92.5479 37.7363 92.3649L37.1758 92.4165C37.2138 92.7309 37.3279 92.9702 37.5227 93.1391C37.7175 93.3033 37.993 93.3878 38.3541 93.3878C38.6012 93.3878 38.8103 93.3549 38.9766 93.2845C39.1429 93.2141 39.2712 93.1109 39.3615 92.9702C39.4517 92.8294 39.4993 92.6793 39.4993 92.5151C39.4993 92.3368 39.4612 92.1866 39.3851 92.0646C39.3091 91.9426 39.2046 91.8488 39.0715 91.7784L39.0669 91.7737Z" fill="#ADADAD"/>
<path d="M39.0669 91.7737C38.9339 91.7034 38.7247 91.6377 38.4443 91.572C38.164 91.5063 37.9884 91.4453 37.9171 91.3843C37.8601 91.3374 37.8316 91.2811 37.8316 91.2154C37.8316 91.1403 37.86 91.084 37.9218 91.0418C38.0168 90.9714 38.1499 90.9386 38.3162 90.9386C38.4825 90.9386 38.6012 90.9714 38.682 91.0324C38.7628 91.0934 38.815 91.2013 38.8388 91.3468L39.4136 91.3233C39.4041 91.0653 39.3092 90.8588 39.1287 90.704C38.9481 90.5492 38.6772 90.4694 38.3208 90.4694C38.1022 90.4694 37.9123 90.5022 37.7603 90.5679C37.6035 90.6336 37.4846 90.7274 37.4038 90.8541C37.323 90.9808 37.2803 91.1122 37.2803 91.2576C37.2803 91.4828 37.3658 91.6705 37.5416 91.8253C37.6652 91.938 37.8838 92.0271 38.1926 92.1022C38.435 92.1632 38.5869 92.2007 38.6535 92.2242C38.7532 92.257 38.8198 92.2992 38.8626 92.3462C38.9006 92.3931 38.9196 92.4494 38.9196 92.5151C38.9196 92.6183 38.872 92.7074 38.777 92.7872C38.682 92.867 38.5443 92.9045 38.359 92.9045C38.1832 92.9045 38.0455 92.8623 37.9409 92.7731C37.8364 92.684 37.7696 92.5479 37.7363 92.3649L37.1758 92.4165C37.2138 92.7309 37.3279 92.9702 37.5227 93.1391C37.7175 93.3033 37.993 93.3878 38.3541 93.3878C38.6012 93.3878 38.8103 93.3549 38.9766 93.2845C39.1429 93.2141 39.2712 93.1109 39.3615 92.9702C39.4517 92.8294 39.4993 92.6793 39.4993 92.5151C39.4993 92.3368 39.4612 92.1866 39.3851 92.0646C39.3091 91.9426 39.2046 91.8488 39.0715 91.7784L39.0669 91.7737Z" fill="#ADADAD"/>
<path d="M41.242 91.6367H40.661V92.2204H41.242V91.6367Z" fill="#ADADAD"/>
<path d="M41.242 91.6367H40.661V92.2204H41.242V91.6367Z" fill="#ADADAD"/>
<path d="M44.1503 92.0621L43.7136 90.4694H42.9845V92.8041H43.4371V90.9666L43.9138 92.8041H44.3787L44.8593 90.9666V92.8041H45.308V90.4694H44.579L44.1503 92.0621Z" fill="#ADADAD"/>
<path d="M44.1503 92.0621L43.7136 90.4694H42.9845V92.8041H43.4371V90.9666L43.9138 92.8041H44.3787L44.8593 90.9666V92.8041H45.308V90.4694H44.579L44.1503 92.0621Z" fill="#ADADAD"/>
<path d="M46.5504 91.9408H47.1262V92.226C47.0517 92.2786 46.9606 92.3236 46.8529 92.3612C46.7452 92.3987 46.6416 92.4175 46.5381 92.4175C46.3269 92.4175 46.153 92.3499 46.0205 92.2148C45.888 92.0797 45.8215 91.8807 45.8215 91.6105C45.8215 91.3627 45.888 91.175 46.0164 91.0474C46.1448 90.9198 46.3186 90.8597 46.5381 90.8597C46.6831 90.8597 46.8032 90.8935 46.9026 90.9573C46.9979 91.0211 47.0642 91.1075 47.1015 91.2201L47.6024 91.1338C47.5527 90.9273 47.441 90.7659 47.2671 90.6458C47.0932 90.5294 46.853 90.4694 46.5424 90.4694C46.3063 90.4694 46.1075 90.5069 45.9459 90.582C45.7347 90.6796 45.5772 90.8185 45.4695 91.0024C45.3618 91.1863 45.308 91.3928 45.308 91.6292C45.308 91.8469 45.3576 92.0459 45.4529 92.2298C45.5523 92.4137 45.6974 92.5563 45.888 92.6539C46.0826 92.7515 46.3102 92.8041 46.567 92.8041C46.77 92.8041 46.973 92.7703 47.1759 92.699C47.3747 92.6277 47.5279 92.5488 47.6315 92.455V91.5579H46.5464V91.937L46.5504 91.9408Z" fill="#ADADAD"/>
<path d="M46.5504 91.9408H47.1262V92.226C47.0517 92.2786 46.9606 92.3236 46.8529 92.3612C46.7452 92.3987 46.6416 92.4175 46.5381 92.4175C46.3269 92.4175 46.153 92.3499 46.0205 92.2148C45.888 92.0797 45.8215 91.8807 45.8215 91.6105C45.8215 91.3627 45.888 91.175 46.0164 91.0474C46.1448 90.9198 46.3186 90.8597 46.5381 90.8597C46.6831 90.8597 46.8032 90.8935 46.9026 90.9573C46.9979 91.0211 47.0642 91.1075 47.1015 91.2201L47.6024 91.1338C47.5527 90.9273 47.441 90.7659 47.2671 90.6458C47.0932 90.5294 46.853 90.4694 46.5424 90.4694C46.3063 90.4694 46.1075 90.5069 45.9459 90.582C45.7347 90.6796 45.5772 90.8185 45.4695 91.0024C45.3618 91.1863 45.308 91.3928 45.308 91.6292C45.308 91.8469 45.3576 92.0459 45.4529 92.2298C45.5523 92.4137 45.6974 92.5563 45.888 92.6539C46.0826 92.7515 46.3102 92.8041 46.567 92.8041C46.77 92.8041 46.973 92.7703 47.1759 92.699C47.3747 92.6277 47.5279 92.5488 47.6315 92.455V91.5579H46.5464V91.937L46.5504 91.9408Z" fill="#ADADAD"/>
</g>
</svg>
