<svg width="231" height="73" viewBox="0 0 231 73" fill="none" xmlns="http://www.w3.org/2000/svg">
<g id="Vector">
<path d="M6.65674 1.21435C6.56987 0.822754 6.31289 0.633135 5.91162 0.620769L0.956055 0.583671V1.60594L17.8882 71.1612C17.9875 71.5775 18.2563 71.7795 18.6865 71.7918H23.0884C23.5186 71.7918 23.684 71.5899 23.5806 71.1735L6.66113 1.21847L6.65674 1.21435Z" fill="#ADADAD"/>
<path d="M6.65674 1.21435C6.56987 0.822754 6.31289 0.633135 5.91162 0.620769L0.956055 0.583671V1.60594L17.8882 71.1612C17.9875 71.5775 18.2563 71.7795 18.6865 71.7918H23.0884C23.5186 71.7918 23.684 71.5899 23.5806 71.1735L6.66113 1.21847L6.65674 1.21435Z" fill="#ADADAD"/>
<path d="M39.0176 15.2466C38.5357 12.8709 37.9006 10.4994 37.1279 8.12376C36.887 7.40487 36.6835 7.41727 36.5049 8.14855L29.7627 35.9457C29.663 36.3382 29.1021 36.3382 29.0024 35.9457L20.624 1.22819C20.5243 0.860482 20.192 0.596065 19.7974 0.596065L15.3906 0.583671C14.9835 0.583671 14.8342 0.786117 14.9214 1.17861L29.1436 59.9293C29.2059 60.1814 29.5637 60.1814 29.626 59.9293C32.6625 47.4396 35.6823 34.95 38.7188 22.4561C39.3668 19.8161 39.4664 17.4156 39.022 15.2466H39.0176Z" fill="#ADADAD"/>
<path d="M39.0176 15.2466C38.5357 12.8709 37.9006 10.4994 37.1279 8.12376C36.887 7.40487 36.6835 7.41727 36.5049 8.14855L29.7627 35.9457C29.663 36.3382 29.1021 36.3382 29.0024 35.9457L20.624 1.22819C20.5243 0.860482 20.192 0.596065 19.7974 0.596065L15.3906 0.583671C14.9835 0.583671 14.8342 0.786117 14.9214 1.17861L29.1436 59.9293C29.2059 60.1814 29.5637 60.1814 29.626 59.9293C32.6625 47.4396 35.6823 34.95 38.7188 22.4561C39.3668 19.8161 39.4664 17.4156 39.022 15.2466H39.0176Z" fill="#ADADAD"/>
<path d="M40.2539 0.583671C40.0081 0.583671 39.8344 0.822814 39.8828 1.06196L56.479 71.4908C56.5274 71.6681 56.6768 71.7918 56.8501 71.7918H61.5688C61.8147 71.7918 61.9878 71.5527 61.9395 71.3135L45.3716 0.884662C45.3232 0.707363 45.1743 0.583671 45.001 0.583671H40.2539Z" fill="#ADADAD"/>
<path d="M40.2539 0.583671C40.0081 0.583671 39.8344 0.822814 39.8828 1.06196L56.479 71.4908C56.5274 71.6681 56.6768 71.7918 56.8501 71.7918H61.5688C61.8147 71.7918 61.9878 71.5527 61.9395 71.3135L45.3716 0.884662C45.3232 0.707363 45.1743 0.583671 45.001 0.583671H40.2539Z" fill="#ADADAD"/>
<path d="M81.5679 0.596545L77.5547 0.584152C77.0924 0.571757 76.8182 0.798992 76.7036 1.25346L68.3501 36.2599C68.2765 36.5615 67.8507 36.5615 67.7729 36.2599L59.3945 1.26585C59.28 0.811382 59.0062 0.584152 58.5439 0.584152H54.5308C53.9417 0.584152 53.7164 0.873357 53.8555 1.44351L67.8223 59.9293C67.8836 60.1814 68.2233 60.1814 68.2847 59.9293L82.2383 1.4559C82.3774 0.885747 82.1526 0.596545 81.5635 0.596545H81.5679Z" fill="#ADADAD"/>
<path d="M81.5679 0.596545L77.5547 0.584152C77.0924 0.571757 76.8182 0.798992 76.7036 1.25346L68.3501 36.2599C68.2765 36.5615 67.8507 36.5615 67.7729 36.2599L59.3945 1.26585C59.28 0.811382 59.0062 0.584152 58.5439 0.584152H54.5308C53.9417 0.584152 53.7164 0.873357 53.8555 1.44351L67.8223 59.9293C67.8836 60.1814 68.2233 60.1814 68.2847 59.9293L82.2383 1.4559C82.3774 0.885747 82.1526 0.596545 81.5635 0.596545H81.5679Z" fill="#ADADAD"/>
<path d="M95.9385 1.11829L91.3462 0.0116608C91.1456 -0.0377058 90.9573 0.0733672 90.9082 0.274947L74.2051 69.6514C73.98 70.6182 74.4181 71.5521 75.208 71.7372L77.6719 72.3419C78.4495 72.5312 79.2719 71.9017 79.5093 70.935L96.2124 1.55848C96.2492 1.36924 96.139 1.16766 95.9385 1.11829Z" fill="#ADADAD"/>
<path d="M95.9385 1.11829L91.3462 0.0116608C91.1456 -0.0377058 90.9573 0.0733672 90.9082 0.274947L74.2051 69.6514C73.98 70.6182 74.4181 71.5521 75.208 71.7372L77.6719 72.3419C78.4495 72.5312 79.2719 71.9017 79.5093 70.935L96.2124 1.55848C96.2492 1.36924 96.139 1.16766 95.9385 1.11829Z" fill="#ADADAD"/>
<path d="M102.645 0.583671H98.5063C98.2058 0.583671 97.9619 0.803335 97.9619 1.07431V71.3012C97.9619 71.5722 98.2058 71.7918 98.5063 71.7918H102.645C102.946 71.7918 103.19 71.5722 103.19 71.3012V1.07431C103.19 0.803335 102.946 0.583671 102.645 0.583671Z" fill="#ADADAD"/>
<path d="M102.645 0.583671H98.5063C98.2058 0.583671 97.9619 0.803335 97.9619 1.07431V71.3012C97.9619 71.5722 98.2058 71.7918 98.5063 71.7918H102.645C102.946 71.7918 103.19 71.5722 103.19 71.3012V1.07431C103.19 0.803335 102.946 0.583671 102.645 0.583671Z" fill="#ADADAD"/>
<path d="M135.864 32.102C136.1 32.102 136.287 31.9104 136.287 31.6688L136.299 27.4405C136.299 27.1989 136.112 27.0073 135.876 27.0073H115.563C115.327 27.0073 115.14 26.8157 115.14 26.574V1.01691C115.14 0.775294 114.952 0.583671 114.716 0.583671H110.584C110.348 0.583671 110.16 0.775294 110.16 1.01691V31.6688C110.16 31.9104 110.348 32.102 110.584 32.102H135.864Z" fill="#ADADAD"/>
<path d="M135.864 32.102C136.1 32.102 136.287 31.9104 136.287 31.6688L136.299 27.4405C136.299 27.1989 136.112 27.0073 135.876 27.0073H115.563C115.327 27.0073 115.14 26.8157 115.14 26.574V1.01691C115.14 0.775294 114.952 0.583671 114.716 0.583671H110.584C110.348 0.583671 110.16 0.775294 110.16 1.01691V31.6688C110.16 31.9104 110.348 32.102 110.584 32.102H135.864Z" fill="#ADADAD"/>
<path d="M145.136 0.583671H140.823C140.571 0.583671 140.366 0.781187 140.366 1.02483V71.3507C140.366 71.5943 140.571 71.7918 140.823 71.7918H145.136C145.389 71.7918 145.594 71.5943 145.594 71.3507V1.02483C145.594 0.781187 145.389 0.583671 145.136 0.583671Z" fill="#ADADAD"/>
<path d="M145.136 0.583671H140.823C140.571 0.583671 140.366 0.781187 140.366 1.02483V71.3507C140.366 71.5943 140.571 71.7918 140.823 71.7918H145.136C145.389 71.7918 145.594 71.5943 145.594 71.3507V1.02483C145.594 0.781187 145.389 0.583671 145.136 0.583671Z" fill="#ADADAD"/>
<path d="M156.776 0.583671H152.999C152.759 0.583671 152.564 0.781187 152.564 1.02483V71.3507C152.564 71.5943 152.759 71.7918 152.999 71.7918H156.776C157.016 71.7918 157.211 71.5943 157.211 71.3507V1.02483C157.211 0.781187 157.016 0.583671 156.776 0.583671Z" fill="#ADADAD"/>
<path d="M156.776 0.583671H152.999C152.759 0.583671 152.564 0.781187 152.564 1.02483V71.3507C152.564 71.5943 152.759 71.7918 152.999 71.7918H156.776C157.016 71.7918 157.211 71.5943 157.211 71.3507V1.02483C157.211 0.781187 157.016 0.583671 156.776 0.583671Z" fill="#ADADAD"/>
<path d="M230.377 36.1962H226.703C226.315 36.1962 226.127 36.3863 226.114 36.7789C225.702 59.2903 203.277 73.4535 182.876 64.5845C154.219 52.1158 162.401 5.85301 195.067 5.60091C195.504 5.58851 195.729 5.37361 195.729 4.9314V1.1788C195.729 0.78618 195.529 0.583671 195.128 0.583671C163.946 0.926695 149.107 38.2667 169.467 60.9848C176.987 69.3868 187.081 72.8873 199.763 71.4945C218.129 69.4736 230.969 55.5625 230.982 36.8161C230.982 36.3987 230.781 36.1962 230.368 36.1962H230.377Z" fill="#ADADAD"/>
<path d="M230.377 36.1962H226.703C226.315 36.1962 226.127 36.3863 226.114 36.7789C225.702 59.2903 203.277 73.4535 182.876 64.5845C154.219 52.1158 162.401 5.85301 195.067 5.60091C195.504 5.58851 195.729 5.37361 195.729 4.9314V1.1788C195.729 0.78618 195.529 0.583671 195.128 0.583671C163.946 0.926695 149.107 38.2667 169.467 60.9848C176.987 69.3868 187.081 72.8873 199.763 71.4945C218.129 69.4736 230.969 55.5625 230.982 36.8161C230.982 36.3987 230.781 36.1962 230.368 36.1962H230.377Z" fill="#ADADAD"/>
<path d="M195.038 17.7107C195.525 17.6736 195.763 17.4102 195.763 16.9162L195.775 13.5575C195.775 13.0677 195.537 12.8289 195.05 12.8413C180.481 13.2323 170.655 25.6877 172.546 40.0819C174.311 53.5457 186.878 61.1441 199.383 59.2466C210.434 57.5713 216.907 51.1172 218.77 39.8843C218.832 39.4932 218.672 39.2916 218.271 39.2916H183.577C183.163 39.2916 182.951 39.5056 182.951 39.9213V43.5435C182.951 44.058 183.213 44.3256 183.741 44.3256H211.429C212.043 44.3256 212.207 44.6014 211.916 45.1447C204.03 60.3044 181.387 56.7316 177.448 40.44C174.708 29.1165 183.479 18.4968 195.046 17.7148L195.038 17.7107Z" fill="#ADADAD"/>
<path d="M195.038 17.7107C195.525 17.6736 195.763 17.4102 195.763 16.9162L195.775 13.5575C195.775 13.0677 195.537 12.8289 195.05 12.8413C180.481 13.2323 170.655 25.6877 172.546 40.0819C174.311 53.5457 186.878 61.1441 199.383 59.2466C210.434 57.5713 216.907 51.1172 218.77 39.8843C218.832 39.4932 218.672 39.2916 218.271 39.2916H183.577C183.163 39.2916 182.951 39.5056 182.951 39.9213V43.5435C182.951 44.058 183.213 44.3256 183.741 44.3256H211.429C212.043 44.3256 212.207 44.6014 211.916 45.1447C204.03 60.3044 181.387 56.7316 177.448 40.44C174.708 29.1165 183.479 18.4968 195.046 17.7148L195.038 17.7107Z" fill="#ADADAD"/>
<path d="M183.246 26.849H220.63C220.893 26.849 221.107 27.0725 221.107 27.3476V31.6034C221.107 31.8785 220.893 32.102 220.63 32.102H183.246C182.983 32.102 182.769 31.8785 182.769 31.6034V27.3476C182.769 27.0725 182.983 26.849 183.246 26.849Z" fill="#ADADAD"/>
<path d="M183.246 26.849H220.63C220.893 26.849 221.107 27.0725 221.107 27.3476V31.6034C221.107 31.8785 220.893 32.102 220.63 32.102H183.246C182.983 32.102 182.769 31.8785 182.769 31.6034V27.3476C182.769 27.0725 182.983 26.849 183.246 26.849Z" fill="#ADADAD"/>
<path d="M44.1162 37.3895C43.8754 36.5634 43.6595 36.5634 43.4561 37.4018L35.2686 70.9412C35.1274 71.5056 35.3555 71.7796 35.9409 71.7796L40.0137 71.7918C40.4455 71.7918 40.8154 71.5056 40.915 71.1048C42.6173 64.365 44.2531 57.6048 45.8516 50.8527C46.3706 48.6647 46.3959 46.579 45.9517 44.5914C45.4078 42.1908 44.7844 39.7901 44.1118 37.3895H44.1162Z" fill="#ADADAD"/>
<path d="M44.1162 37.3895C43.8754 36.5634 43.6595 36.5634 43.4561 37.4018L35.2686 70.9412C35.1274 71.5056 35.3555 71.7796 35.9409 71.7796L40.0137 71.7918C40.4455 71.7918 40.8154 71.5056 40.915 71.1048C42.6173 64.365 44.2531 57.6048 45.8516 50.8527C46.3706 48.6647 46.3959 46.579 45.9517 44.5914C45.4078 42.1908 44.7844 39.7901 44.1118 37.3895H44.1162Z" fill="#ADADAD"/>
<path d="M135.889 40.2735H110.572C110.348 40.2735 110.16 40.4613 110.16 40.6859V71.3794C110.16 71.604 110.348 71.7918 110.572 71.7918H114.726C114.95 71.7918 115.138 71.604 115.138 71.3794V45.3693C115.138 45.1447 115.325 44.9569 115.549 44.9569H135.851C136.075 44.9569 136.263 44.7691 136.263 44.5445L136.299 40.6859C136.299 40.4613 136.112 40.2735 135.889 40.2735Z" fill="#ADADAD"/>
<path d="M135.889 40.2735H110.572C110.348 40.2735 110.16 40.4613 110.16 40.6859V71.3794C110.16 71.604 110.348 71.7918 110.572 71.7918H114.726C114.95 71.7918 115.138 71.604 115.138 71.3794V45.3693C115.138 45.1447 115.325 44.9569 115.549 44.9569H135.851C136.075 44.9569 136.263 44.7691 136.263 44.5445L136.299 40.6859C136.299 40.4613 136.112 40.2735 135.889 40.2735Z" fill="#ADADAD"/>
</g>
</svg>
