<svg width="221" height="115" viewBox="0 0 221 115" fill="none" xmlns="http://www.w3.org/2000/svg">
<g id="Vector">
<path d="M19.8938 66.3198C19.6513 65.9085 19.2288 65.6903 18.7646 65.7113C9.49194 66.2275 5.14631 69.8159 0.0185547 71.8346V63.5834H32.0649L12.1436 96.0928C11.8885 96.4916 11.8885 96.97 12.1311 97.3771C12.3779 97.7968 12.7961 98.0192 13.2729 97.9857C21.9265 97.461 23.884 95.1108 32.0649 91.8707V100.122H0.0185547L19.8938 67.5999C20.1364 67.1928 20.149 66.7102 19.8938 66.3156V66.3198Z" fill="#ADADAD"/>
<path d="M60.7862 100.126V97.3435C60.7862 96.9574 60.5646 96.6175 60.2049 96.479C59.8452 96.3405 59.4604 96.4202 59.1802 96.7014C56.9676 99.0391 52.8186 100.126 49.0208 100.126C42.425 100.126 36.9752 96.4915 36.9752 89.533C36.9752 76.4512 53.0737 80.9042 60.1589 77.4795C60.4851 77.3284 60.6817 77.0136 60.6817 76.6485C60.6942 74.2856 60.3429 65.6357 52.9942 65.6357C43.2071 65.6357 43.7341 77.8656 39.5642 73.6896C34.7417 68.8506 46.0303 63.5792 52.9942 63.5792C61.836 63.5792 69.0132 70.7812 69.0132 79.6535V100.122H60.7904L60.7862 100.126ZM60.368 79.4604C60.1128 79.2758 59.8201 79.238 59.5273 79.3303C53.8893 81.2483 45.198 80.2536 45.198 89.533C45.198 101.96 60.8448 99.5259 60.7862 90.704C60.7862 89.6044 60.7611 84.0183 60.7611 80.2075C60.7611 79.9053 60.6231 79.6325 60.3638 79.4604H60.368Z" fill="#ADADAD"/>
<path d="M82.1421 63.5834V67.9902C82.1421 68.3973 82.3973 68.7624 82.7946 68.88C83.1794 69.0101 83.5976 68.8674 83.8319 68.5274C86.1615 65.2202 89.4824 63.5834 93.1756 63.5834C100.223 63.5834 105.953 69.5934 105.953 81.8527V100.122H97.7303V81.8527C97.7303 70.97 94.2338 65.6399 89.9383 65.6399C85.6429 65.6399 82.1463 70.97 82.1463 81.8527V100.122H73.9235V63.5792H82.1463L82.1421 63.5834Z" fill="#ADADAD"/>
<path d="M129.07 63.5834C139.125 63.5834 147.276 71.7675 147.276 81.8527C147.276 91.9379 139.12 100.122 129.07 100.122C119.019 100.122 110.863 91.9379 110.863 81.8527C110.863 71.7675 119.019 63.5834 129.07 63.5834ZM129.07 98.057C134.582 98.057 139.054 90.7963 139.054 81.8527C139.054 72.909 134.582 65.6609 129.07 65.6609C123.557 65.6609 119.086 72.909 119.086 81.8527C119.086 90.7963 123.562 98.0444 129.07 98.057Z" fill="#ADADAD"/>
<path d="M201.812 63.5834C211.867 63.5834 220.019 71.7675 220.019 81.8527C220.019 91.9379 211.863 100.122 201.812 100.122C191.762 100.122 183.606 91.9379 183.606 81.8527C183.606 71.7675 191.762 63.5834 201.812 63.5834ZM201.812 98.057C207.32 98.057 211.796 90.7963 211.796 81.8527C211.796 72.909 207.32 65.6609 201.812 65.6609C196.304 65.6609 191.828 72.909 191.828 81.8527C191.828 90.7963 196.3 98.0444 201.812 98.057Z" fill="#ADADAD"/>
<path d="M161.342 63.5834C160.832 63.5834 160.409 63.1638 160.409 62.6475V49.8133H152.187V60.3266C152.162 60.7967 152.396 61.2164 152.814 61.4514C156.311 63.424 162.789 63.5834 154.014 63.5834H148.226V65.6399H151.266C151.768 65.6399 152.187 66.0596 152.187 66.5759V100.126H160.409V66.5759C160.409 66.0596 160.832 65.6399 161.342 65.6399H165.437V63.5834H161.342Z" fill="#ADADAD"/>
<path d="M163.195 65.6399C161.656 65.6399 160.414 66.8906 160.414 68.4309C160.414 66.8864 159.167 65.6399 157.632 65.6399C159.167 65.6399 160.414 64.3893 160.414 62.849C160.414 64.3893 161.66 65.6399 163.195 65.6399Z" fill="#ADADAD"/>
<path d="M165.437 63.5834V65.6399H169.531C170.042 65.6399 170.464 66.0596 170.464 66.5759V100.126H178.687V66.5759C178.687 66.0596 179.105 65.6399 179.607 65.6399H182.648V63.5834H176.859C168.084 63.5834 174.563 63.424 178.06 61.4514C178.478 61.2164 178.712 60.7967 178.687 60.3266V49.8133H170.464V62.6475C170.464 63.1638 170.042 63.5834 169.531 63.5834H165.437Z" fill="#ADADAD"/>
<path d="M167.683 65.6399C169.222 65.6399 170.464 66.8906 170.464 68.4309C170.464 66.8864 171.711 65.6399 173.246 65.6399C171.711 65.6399 170.464 64.3893 170.464 62.849C170.464 64.3893 169.218 65.6399 167.683 65.6399Z" fill="#ADADAD"/>
<path d="M44.1022 112.667V114.433C43.8763 114.614 43.6087 114.752 43.3075 114.849C43.0064 114.945 42.6927 114.996 42.3748 114.996C41.9231 114.996 41.5216 114.899 41.1577 114.702C40.798 114.505 40.5136 114.236 40.3045 113.888C40.0995 113.544 39.995 113.153 39.995 112.717C39.995 112.28 40.0995 111.894 40.3045 111.546C40.5094 111.198 40.7938 110.929 41.1577 110.732C41.5216 110.534 41.9315 110.438 42.3832 110.438C42.7513 110.438 43.09 110.501 43.3912 110.623C43.6923 110.744 43.9475 110.925 44.1524 111.16L43.6338 111.668C43.2992 111.332 42.8935 111.16 42.4167 111.16C42.1071 111.16 41.8311 111.227 41.5885 111.357C41.3459 111.487 41.1577 111.672 41.0197 111.907C40.8817 112.142 40.8148 112.415 40.8148 112.717C40.8148 113.019 40.8817 113.279 41.0197 113.514C41.1577 113.749 41.3459 113.934 41.5885 114.072C41.8311 114.207 42.103 114.274 42.4125 114.274C42.7554 114.274 43.0608 114.198 43.3201 114.047V112.667H44.1022Z" fill="#ADADAD"/>
<path d="M46.9212 110.501H47.741V114.929H46.9212V110.501Z" fill="#ADADAD"/>
<path d="M54.5919 110.501V114.929H53.9186L51.4843 111.932V114.929H50.6729V110.501H51.3463L53.7805 113.497V110.501H54.5919Z" fill="#ADADAD"/>
<path d="M60.8281 114.929H57.5197V110.501H60.7402V111.189H58.3395V112.339H60.4684V113.015H58.3395V114.236H60.8281V114.929Z" fill="#ADADAD"/>
<path d="M64.3163 114.698C63.9566 114.501 63.6764 114.232 63.4714 113.884C63.2665 113.539 63.1661 113.149 63.1661 112.713C63.1661 112.276 63.2706 111.89 63.4756 111.542C63.6805 111.193 63.9649 110.925 64.3246 110.728C64.6843 110.53 65.0859 110.434 65.5334 110.434C65.8931 110.434 66.2235 110.497 66.5246 110.623C66.8216 110.749 67.0767 110.933 67.2817 111.172L66.7505 111.672C66.4326 111.328 66.0395 111.151 65.571 111.151C65.2699 111.151 64.998 111.219 64.7596 111.353C64.5212 111.487 64.333 111.672 64.1992 111.907C64.0653 112.142 63.9984 112.41 63.9984 112.708C63.9984 113.006 64.0653 113.275 64.1992 113.51C64.333 113.745 64.5212 113.93 64.7596 114.064C64.998 114.198 65.2699 114.261 65.571 114.261C66.0395 114.261 66.4326 114.085 66.7505 113.737L67.2817 114.245C67.0767 114.484 66.8216 114.668 66.5205 114.794C66.2193 114.92 65.8889 114.983 65.5292 114.983C65.0859 114.983 64.6802 114.887 64.3205 114.689L64.3163 114.698Z" fill="#ADADAD"/>
<path d="M70.6486 114.698C70.2889 114.501 70.0045 114.228 69.7954 113.884C69.5862 113.539 69.4859 113.145 69.4859 112.717C69.4859 112.289 69.5904 111.898 69.7954 111.55C70.0003 111.202 70.2847 110.929 70.6486 110.736C71.0083 110.539 71.414 110.442 71.8657 110.442C72.3174 110.442 72.7189 110.539 73.0828 110.736C73.4425 110.933 73.7269 111.202 73.936 111.55C74.1452 111.898 74.2456 112.285 74.2456 112.721C74.2456 113.158 74.141 113.544 73.936 113.892C73.7311 114.236 73.4467 114.509 73.0828 114.706C72.7231 114.903 72.3174 115 71.8657 115C71.414 115 71.0125 114.903 70.6486 114.706V114.698ZM72.6604 114.072C72.8946 113.938 73.0786 113.754 73.2167 113.514C73.3505 113.275 73.4174 113.011 73.4174 112.713C73.4174 112.415 73.3505 112.15 73.2167 111.911C73.0828 111.672 72.8988 111.487 72.6604 111.353C72.4262 111.219 72.1585 111.151 71.8657 111.151C71.5729 111.151 71.3052 111.219 71.071 111.353C70.8368 111.487 70.6528 111.672 70.5148 111.911C70.3809 112.15 70.314 112.415 70.314 112.713C70.314 113.011 70.3809 113.275 70.5148 113.514C70.6486 113.754 70.8326 113.938 71.071 114.072C71.3094 114.207 71.5729 114.27 71.8657 114.27C72.1585 114.27 72.4262 114.203 72.6604 114.072Z" fill="#ADADAD"/>
<path d="M76.8513 110.501H77.671V114.232H79.9798V114.929H76.8513V110.501Z" fill="#ADADAD"/>
<path d="M83.2129 114.698C82.8532 114.501 82.5687 114.228 82.3596 113.884C82.1505 113.539 82.0501 113.145 82.0501 112.717C82.0501 112.289 82.1547 111.898 82.3596 111.55C82.5646 111.202 82.849 110.929 83.2129 110.736C83.5725 110.539 83.9783 110.442 84.43 110.442C84.8817 110.442 85.2832 110.539 85.6471 110.736C86.0068 110.933 86.2912 111.202 86.5003 111.55C86.7094 111.898 86.8098 112.285 86.8098 112.721C86.8098 113.158 86.7052 113.544 86.5003 113.892C86.2954 114.236 86.0109 114.509 85.6471 114.706C85.2874 114.903 84.8817 115 84.43 115C83.9783 115 83.5767 114.903 83.2129 114.706V114.698ZM85.2246 114.072C85.4589 113.938 85.6429 113.754 85.7809 113.514C85.9148 113.275 85.9817 113.011 85.9817 112.713C85.9817 112.415 85.9148 112.15 85.7809 111.911C85.6471 111.672 85.463 111.487 85.2246 111.353C84.9904 111.219 84.7227 111.151 84.43 111.151C84.1372 111.151 83.8695 111.219 83.6353 111.353C83.4011 111.487 83.217 111.672 83.079 111.911C82.9452 112.15 82.8783 112.415 82.8783 112.713C82.8783 113.011 82.9452 113.275 83.079 113.514C83.2128 113.754 83.3969 113.938 83.6353 114.072C83.8737 114.207 84.1372 114.27 84.43 114.27C84.7227 114.27 84.9904 114.203 85.2246 114.072Z" fill="#ADADAD"/>
<path d="M93.2049 112.667V114.433C92.979 114.614 92.7113 114.752 92.4102 114.849C92.109 114.945 91.7954 114.996 91.4775 114.996C91.0258 114.996 90.6243 114.899 90.2604 114.702C89.9007 114.505 89.6163 114.236 89.4071 113.888C89.2022 113.544 89.0976 113.153 89.0976 112.717C89.0976 112.28 89.2022 111.894 89.4071 111.546C89.6121 111.198 89.8965 110.929 90.2604 110.732C90.6243 110.534 91.0341 110.438 91.4859 110.438C91.8539 110.438 92.1927 110.501 92.4938 110.623C92.795 110.744 93.0501 110.925 93.2551 111.16L92.7364 111.668C92.4018 111.332 91.9961 111.16 91.5193 111.16C91.2098 111.16 90.9338 111.227 90.6912 111.357C90.4486 111.487 90.2604 111.672 90.1224 111.907C89.9843 112.142 89.9174 112.415 89.9174 112.717C89.9174 113.019 89.9843 113.279 90.1224 113.514C90.2604 113.749 90.4486 113.934 90.6912 114.072C90.9338 114.207 91.2056 114.274 91.5151 114.274C91.8581 114.274 92.1634 114.198 92.4227 114.047V112.667H93.2049Z" fill="#ADADAD"/>
<path d="M96.0239 110.501H96.8436V114.929H96.0239V110.501Z" fill="#ADADAD"/>
<path d="M102.636 113.905H100.428L99.9931 114.929H99.1482L101.135 110.501H101.942L103.933 114.929H103.076L102.636 113.905ZM102.365 113.258L101.532 111.323L100.708 113.258H102.365Z" fill="#ADADAD"/>
<path d="M113.026 115L112.469 114.463C112.06 114.815 111.562 114.996 110.989 114.996C110.684 114.996 110.408 114.945 110.165 114.845C109.922 114.744 109.73 114.601 109.592 114.425C109.454 114.245 109.383 114.043 109.383 113.812C109.383 113.539 109.462 113.296 109.621 113.086C109.78 112.876 110.039 112.671 110.403 112.469C110.228 112.293 110.102 112.125 110.027 111.974C109.952 111.819 109.914 111.659 109.914 111.496C109.914 111.185 110.031 110.933 110.265 110.74C110.5 110.547 110.809 110.451 111.194 110.451C111.549 110.451 111.838 110.539 112.051 110.711C112.265 110.887 112.373 111.122 112.373 111.424C112.373 111.651 112.302 111.852 112.16 112.033C112.018 112.209 111.788 112.39 111.47 112.57L112.423 113.481C112.528 113.275 112.612 113.023 112.67 112.734L113.306 112.943C113.222 113.334 113.089 113.674 112.909 113.955L113.465 114.488L113.03 115H113.026ZM112.005 114.014L110.838 112.893C110.587 113.032 110.408 113.166 110.307 113.296C110.203 113.426 110.152 113.569 110.152 113.728C110.152 113.913 110.236 114.064 110.399 114.177C110.562 114.291 110.78 114.349 111.047 114.349C111.416 114.349 111.733 114.236 112.005 114.014ZM110.784 111.147C110.684 111.235 110.633 111.344 110.633 111.487C110.633 111.588 110.663 111.684 110.717 111.777C110.771 111.869 110.876 111.991 111.031 112.146C111.282 112.008 111.457 111.886 111.558 111.781C111.658 111.676 111.704 111.567 111.704 111.441C111.704 111.311 111.658 111.206 111.57 111.13C111.478 111.055 111.353 111.017 111.194 111.017C111.022 111.017 110.884 111.059 110.784 111.147Z" fill="#ADADAD"/>
<path d="M120.228 114.698C119.868 114.501 119.584 114.228 119.375 113.884C119.166 113.539 119.065 113.145 119.065 112.717C119.065 112.289 119.17 111.898 119.375 111.55C119.58 111.202 119.864 110.929 120.228 110.736C120.588 110.539 120.993 110.442 121.445 110.442C121.897 110.442 122.298 110.539 122.662 110.736C123.022 110.933 123.306 111.202 123.516 111.55C123.725 111.898 123.825 112.285 123.825 112.721C123.825 113.158 123.72 113.544 123.516 113.892C123.311 114.236 123.026 114.509 122.662 114.706C122.303 114.903 121.897 115 121.445 115C120.993 115 120.592 114.903 120.228 114.706V114.698ZM122.24 114.072C122.474 113.938 122.658 113.754 122.796 113.514C122.93 113.275 122.997 113.011 122.997 112.713C122.997 112.415 122.93 112.15 122.796 111.911C122.662 111.672 122.478 111.487 122.24 111.353C122.006 111.219 121.738 111.151 121.445 111.151C121.152 111.151 120.885 111.219 120.65 111.353C120.416 111.487 120.232 111.672 120.094 111.911C119.96 112.15 119.893 112.415 119.893 112.713C119.893 113.011 119.96 113.275 120.094 113.514C120.228 113.754 120.412 113.938 120.65 114.072C120.889 114.207 121.152 114.27 121.445 114.27C121.738 114.27 122.006 114.203 122.24 114.072Z" fill="#ADADAD"/>
<path d="M130.141 113.027C130.283 113.216 130.354 113.447 130.354 113.728C130.354 114.11 130.208 114.408 129.911 114.618C129.614 114.828 129.187 114.933 128.627 114.933H126.431V110.505H128.497C129.02 110.505 129.421 110.606 129.701 110.811C129.982 111.017 130.124 111.298 130.124 111.655C130.124 111.873 130.074 112.071 129.973 112.238C129.873 112.406 129.735 112.536 129.555 112.629C129.798 112.708 129.99 112.843 130.136 113.032L130.141 113.027ZM127.255 111.147V112.369H128.413C128.698 112.369 128.919 112.318 129.074 112.213C129.229 112.108 129.304 111.957 129.304 111.76C129.304 111.563 129.229 111.403 129.074 111.303C128.919 111.198 128.702 111.147 128.413 111.147H127.255ZM129.53 113.644C129.53 113.22 129.212 113.006 128.576 113.006H127.25V114.282H128.576C129.212 114.282 129.53 114.068 129.53 113.644Z" fill="#ADADAD"/>
<path d="M133.353 114.849C133.035 114.752 132.784 114.622 132.6 114.463L132.884 113.825C133.064 113.968 133.286 114.085 133.549 114.177C133.813 114.27 134.076 114.312 134.34 114.312C134.666 114.312 134.913 114.261 135.076 114.152C135.239 114.043 135.319 113.909 135.319 113.733C135.319 113.607 135.273 113.502 135.185 113.418C135.093 113.334 134.98 113.271 134.842 113.225C134.704 113.179 134.516 113.124 134.273 113.065C133.938 112.985 133.666 112.906 133.457 112.826C133.248 112.746 133.073 112.62 132.922 112.448C132.771 112.276 132.696 112.045 132.696 111.756C132.696 111.512 132.763 111.29 132.893 111.088C133.027 110.887 133.223 110.728 133.491 110.61C133.758 110.492 134.085 110.434 134.47 110.434C134.737 110.434 135.005 110.467 135.264 110.534C135.523 110.602 135.749 110.698 135.938 110.824L135.678 111.462C135.486 111.349 135.285 111.261 135.072 111.202C134.863 111.143 134.658 111.114 134.461 111.114C134.139 111.114 133.896 111.168 133.738 111.277C133.579 111.386 133.503 111.533 133.503 111.714C133.503 111.84 133.549 111.945 133.637 112.024C133.729 112.104 133.842 112.167 133.98 112.213C134.118 112.259 134.306 112.314 134.549 112.373C134.875 112.448 135.147 112.528 135.356 112.612C135.565 112.696 135.745 112.822 135.896 112.99C136.046 113.158 136.122 113.384 136.122 113.674C136.122 113.917 136.055 114.14 135.925 114.337C135.791 114.534 135.59 114.694 135.323 114.811C135.055 114.929 134.725 114.987 134.34 114.987C134.001 114.987 133.671 114.937 133.353 114.841V114.849Z" fill="#ADADAD"/>
<path d="M139.568 111.198H138.104V110.501H141.847V111.198H140.384V114.929H139.564V111.198H139.568Z" fill="#ADADAD"/>
<path d="M147.519 114.929H144.211V110.501H147.431V111.189H145.03V112.339H147.159V113.015H145.03V114.236H147.519V114.929Z" fill="#ADADAD"/>
<path d="M151.066 111.198H149.602V110.501H153.345V111.198H151.881V114.929H151.062V111.198H151.066Z" fill="#ADADAD"/>
<path d="M158.594 114.929L157.691 113.632C157.653 113.632 157.595 113.636 157.519 113.636H156.524V114.929H155.704V110.501H157.519C157.9 110.501 158.235 110.564 158.519 110.69C158.803 110.816 159.021 110.996 159.171 111.235C159.322 111.47 159.397 111.752 159.397 112.075C159.397 112.398 159.318 112.696 159.155 112.935C158.992 113.174 158.762 113.355 158.456 113.472L159.473 114.929H158.59H158.594ZM158.297 111.424C158.113 111.273 157.841 111.198 157.486 111.198H156.528V112.964H157.486C157.841 112.964 158.113 112.889 158.297 112.734C158.481 112.578 158.573 112.36 158.573 112.079C158.573 111.798 158.481 111.579 158.297 111.428V111.424Z" fill="#ADADAD"/>
<path d="M162.785 109.275H163.714L162.618 110.14H161.936L162.785 109.275ZM162.053 110.501H162.873V114.929H162.053V110.501Z" fill="#ADADAD"/>
<path d="M166.641 114.698C166.282 114.501 166.001 114.232 165.796 113.884C165.592 113.539 165.491 113.149 165.491 112.713C165.491 112.276 165.596 111.89 165.801 111.542C166.006 111.193 166.29 110.925 166.65 110.728C167.009 110.53 167.411 110.434 167.858 110.434C168.218 110.434 168.549 110.497 168.85 110.623C169.147 110.749 169.402 110.933 169.607 111.172L169.076 111.672C168.758 111.328 168.365 111.151 167.896 111.151C167.595 111.151 167.323 111.219 167.085 111.353C166.846 111.487 166.658 111.672 166.524 111.907C166.39 112.142 166.323 112.41 166.323 112.708C166.323 113.006 166.39 113.275 166.524 113.51C166.658 113.745 166.846 113.93 167.085 114.064C167.323 114.198 167.595 114.261 167.896 114.261C168.365 114.261 168.758 114.085 169.076 113.737L169.607 114.245C169.402 114.484 169.147 114.668 168.846 114.794C168.544 114.92 168.214 114.983 167.854 114.983C167.411 114.983 167.005 114.887 166.646 114.689L166.641 114.698Z" fill="#ADADAD"/>
<path d="M172.129 110.501H172.949V114.929H172.129V110.501Z" fill="#ADADAD"/>
<path d="M178.741 113.905H176.533L176.098 114.929H175.253L177.24 110.501H178.047L180.038 114.929H179.181L178.741 113.905ZM178.47 113.258L177.637 111.323L176.813 113.258H178.47Z" fill="#ADADAD"/>
<path d="M106.079 3.95351C106.079 1.7711 107.844 0 110.019 0C112.193 0 113.963 1.7711 113.963 3.95351C113.963 6.13591 112.198 7.90701 110.019 7.90701C107.839 7.90701 106.079 6.1401 106.079 3.95351Z" fill="#ADADAD"/>
<path d="M134.478 11.8689C129.329 6.62275 120.717 6.74866 115.531 11.957L110.014 17.4886L106.367 13.8373L104.339 11.7934C101.838 9.2878 98.5167 7.90701 94.9824 7.90701C91.4482 7.90701 88.1273 9.2836 85.622 11.7934C80.4649 16.9724 80.4649 25.3956 85.622 30.5746L101.081 46.0865C103.481 48.4955 106.664 49.8175 110.056 49.8175H110.077C113.469 49.8133 116.66 48.4787 119.057 46.0613L133.52 31.4602L134.411 30.5746C136.908 28.0607 138.284 24.7283 138.284 21.1861C138.284 17.6439 136.933 14.3703 134.478 11.8689ZM130.726 26.8813L129.831 27.7837H129.827L126.18 31.4476C123.766 33.865 120.529 35.1493 117.104 35.0317C113.938 34.9226 110.951 33.5125 108.714 31.2671L98.6672 21.1861C98.157 20.6783 97.4919 20.4264 96.8269 20.4264C96.1619 20.4264 95.5052 20.6783 94.9992 21.1777C93.9744 22.1933 94.0414 23.9267 95.0577 24.9465L105.221 35.1451C105.648 35.569 106.091 35.9719 106.547 36.3454C110.295 39.4133 115.506 39.9547 119.864 37.8647L116.493 41.2516L115.376 42.3806C113.967 43.8075 112.085 44.5923 110.077 44.5923H110.069C108.07 44.5923 106.187 43.8159 104.77 42.3932L89.311 26.8813C87.7969 25.3578 86.9687 23.3349 86.9687 21.1861C86.9687 18.6637 88.1064 16.326 90.1475 14.7606C91.2516 13.9128 92.5649 13.3714 93.9452 13.1951C96.4756 12.8762 98.9056 13.7156 100.671 15.4867L108.191 23.0327C110.771 25.618 114.159 26.9107 117.547 26.9107C119.914 26.9107 122.277 26.2812 124.369 25.0179C125.18 24.5268 125.598 23.6749 125.598 22.8145C125.598 22.1514 125.347 21.4715 124.833 20.9553C123.98 20.1033 122.671 19.9648 121.633 20.5775C120.349 21.3456 118.869 21.7359 117.33 21.6981H117.313C115.686 21.6519 114.071 22.0255 112.633 22.7809L111.558 23.3475L119.392 15.4867C122.524 12.3432 127.614 12.3432 130.747 15.4867C132.265 17.0059 133.098 19.0289 133.098 21.1819C133.098 23.3349 132.265 25.3536 130.747 26.8771L130.726 26.8813Z" fill="#ADADAD"/>
</g>
</svg>
