<svg width="242" height="70" viewBox="0 0 242 70" fill="none" xmlns="http://www.w3.org/2000/svg">
<g id="Vector">
<path d="M47.6572 18.4231C46.5414 18.4231 45.4709 17.9728 44.7202 17.1908C43.8177 16.2493 42.5215 14.7222 41.4878 12.8186C40.8807 11.7009 39.7647 10.9149 38.5054 10.7225C35.3139 10.2312 27.1835 9.91597 20.5996 17.5593C14.8936 24.1832 14.6188 32.4939 14.9634 36.858C15.1357 39.0236 15.9521 41.0215 17.2319 42.6058C16.1285 44.5791 13.277 50.0035 13.4165 53.2418C13.4411 53.8272 13.9255 54.2816 14.5039 54.2816C14.5203 54.2816 14.5368 54.2816 14.5532 54.2816C15.1521 54.2571 15.6198 53.7494 15.5952 53.1476C15.4968 50.9082 17.5314 46.6301 18.8481 44.1902C19.3527 44.575 19.894 44.9107 20.4683 45.1891C22.708 46.2658 27.081 47.2074 31.1831 41.4022C37.4881 32.4775 26.2647 21.1906 22.9707 18.1816C28.7014 12.184 35.4577 12.4542 38.1733 12.8718C38.764 12.9618 39.2892 13.3303 39.5723 13.8584C40.7209 15.975 42.1523 17.6576 43.145 18.6974C44.3018 19.9051 45.9466 20.6011 47.6572 20.6011H55.4761C56.116 20.6011 56.6943 20.8754 57.0225 21.338C58.4008 23.2703 57.281 25.612 57.2358 25.7021C54.7089 30.7171 47.0955 35.1958 43.9409 36.8866C42.0293 37.9142 41.0449 40.0471 41.5576 42.0695C42.8293 47.1378 48.1619 52.9184 48.3916 53.164C48.6049 53.3933 48.8961 53.512 49.1914 53.512C49.458 53.512 49.721 53.4178 49.9302 53.2213C50.3691 52.8119 50.3975 52.1282 49.9873 51.6861C49.934 51.6288 44.8062 46.0652 43.6699 41.5414C43.4033 40.4811 43.9409 39.3552 44.9746 38.7985C49.1219 36.5755 56.4808 32.0435 59.1841 26.6723C59.2579 26.529 60.9396 23.082 58.7983 20.073C58.0641 19.0413 56.8214 18.4231 55.48 18.4231H47.6572ZM29.3984 40.1495C26.9413 43.6252 24.3325 44.6323 21.4077 43.2322C18.9957 42.0736 17.3586 39.5681 17.1289 36.686C16.8253 32.85 17.0311 25.7184 21.5435 19.8396C24.5667 22.6398 34.5837 32.805 29.3945 40.1495H29.3984Z" fill="#ADADAD"/>
<path d="M47.6572 18.4231C46.5414 18.4231 45.4709 17.9728 44.7202 17.1908C43.8177 16.2493 42.5215 14.7222 41.4878 12.8186C40.8807 11.7009 39.7647 10.9149 38.5054 10.7225C35.3139 10.2312 27.1835 9.91597 20.5996 17.5593C14.8936 24.1832 14.6188 32.4939 14.9634 36.858C15.1357 39.0236 15.9521 41.0215 17.2319 42.6058C16.1285 44.5791 13.277 50.0035 13.4165 53.2418C13.4411 53.8272 13.9255 54.2816 14.5039 54.2816C14.5203 54.2816 14.5368 54.2816 14.5532 54.2816C15.1521 54.2571 15.6198 53.7494 15.5952 53.1476C15.4968 50.9082 17.5314 46.6301 18.8481 44.1902C19.3527 44.575 19.894 44.9107 20.4683 45.1891C22.708 46.2658 27.081 47.2074 31.1831 41.4022C37.4881 32.4775 26.2647 21.1906 22.9707 18.1816C28.7014 12.184 35.4577 12.4542 38.1733 12.8718C38.764 12.9618 39.2892 13.3303 39.5723 13.8584C40.7209 15.975 42.1523 17.6576 43.145 18.6974C44.3018 19.9051 45.9466 20.6011 47.6572 20.6011H55.4761C56.116 20.6011 56.6943 20.8754 57.0225 21.338C58.4008 23.2703 57.281 25.612 57.2358 25.7021C54.7089 30.7171 47.0955 35.1958 43.9409 36.8866C42.0293 37.9142 41.0449 40.0471 41.5576 42.0695C42.8293 47.1378 48.1619 52.9184 48.3916 53.164C48.6049 53.3933 48.8961 53.512 49.1914 53.512C49.458 53.512 49.721 53.4178 49.9302 53.2213C50.3691 52.8119 50.3975 52.1282 49.9873 51.6861C49.934 51.6288 44.8062 46.0652 43.6699 41.5414C43.4033 40.4811 43.9409 39.3552 44.9746 38.7985C49.1219 36.5755 56.4808 32.0435 59.1841 26.6723C59.2579 26.529 60.9396 23.082 58.7983 20.073C58.0641 19.0413 56.8214 18.4231 55.48 18.4231H47.6572ZM29.3984 40.1495C26.9413 43.6252 24.3325 44.6323 21.4077 43.2322C18.9957 42.0736 17.3586 39.5681 17.1289 36.686C16.8253 32.85 17.0311 25.7184 21.5435 19.8396C24.5667 22.6398 34.5837 32.805 29.3945 40.1495H29.3984Z" fill="#ADADAD"/>
<path d="M35.4849 0C16.2676 0 0.632812 15.5796 0.632812 34.7286C0.632812 53.8776 16.2676 69.4571 35.4849 69.4571C54.7022 69.4571 70.3374 53.8776 70.3374 34.7286C70.3374 15.5796 54.7022 0 35.4849 0ZM35.4849 67.2835C17.4712 67.2835 2.81396 52.6782 2.81396 34.7286C2.81396 16.7789 17.4712 2.17361 35.4849 2.17361C53.4985 2.17361 68.1558 16.7789 68.1558 34.7286C68.1558 52.6782 53.4985 67.2835 35.4849 67.2835Z" fill="#ADADAD"/>
<path d="M35.4849 0C16.2676 0 0.632812 15.5796 0.632812 34.7286C0.632812 53.8776 16.2676 69.4571 35.4849 69.4571C54.7022 69.4571 70.3374 53.8776 70.3374 34.7286C70.3374 15.5796 54.7022 0 35.4849 0ZM35.4849 67.2835C17.4712 67.2835 2.81396 52.6782 2.81396 34.7286C2.81396 16.7789 17.4712 2.17361 35.4849 2.17361C53.4985 2.17361 68.1558 16.7789 68.1558 34.7286C68.1558 52.6782 53.4985 67.2835 35.4849 67.2835Z" fill="#ADADAD"/>
<path d="M107.377 31.1979H96.4976L108.867 15.9258C110.916 13.2613 108.94 9.92245 105.588 9.92245H93.9243C92.581 9.92245 91.4287 11.0095 91.4287 12.4358C91.4287 13.862 92.5851 14.9123 93.9243 14.9123H103.834L91.5015 30.1844C89.4521 32.8489 91.4286 36.1878 94.7441 36.1878H107.377C108.721 36.1878 109.837 35.1007 109.837 33.7112C109.837 32.3217 108.721 31.1979 107.377 31.1979Z" fill="#ADADAD"/>
<path d="M107.377 31.1979H96.4976L108.867 15.9258C110.916 13.2613 108.94 9.92245 105.588 9.92245H93.9243C92.581 9.92245 91.4287 11.0095 91.4287 12.4358C91.4287 13.862 92.5851 14.9123 93.9243 14.9123H103.834L91.5015 30.1844C89.4521 32.8489 91.4286 36.1878 94.7441 36.1878H107.377C108.721 36.1878 109.837 35.1007 109.837 33.7112C109.837 32.3217 108.721 31.1979 107.377 31.1979Z" fill="#ADADAD"/>
<path d="M121.745 16.3429C117.399 16.3429 111.579 19.7908 111.579 26.6156C111.579 33.4404 117.399 36.7714 121.745 36.7714C126.091 36.7714 131.91 33.4738 131.91 26.6156C131.91 19.7574 126.054 16.3429 121.745 16.3429ZM121.745 31.9043C119.214 31.9043 117.02 29.8339 117.02 26.6156C117.02 23.3973 119.214 21.21 121.745 21.21C124.276 21.21 126.432 23.2804 126.432 26.6156C126.432 29.9508 124.239 31.9043 121.745 31.9043Z" fill="#ADADAD"/>
<path d="M121.745 16.3429C117.399 16.3429 111.579 19.7908 111.579 26.6156C111.579 33.4404 117.399 36.7714 121.745 36.7714C126.091 36.7714 131.91 33.4738 131.91 26.6156C131.91 19.7574 126.054 16.3429 121.745 16.3429ZM121.745 31.9043C119.214 31.9043 117.02 29.8339 117.02 26.6156C117.02 23.3973 119.214 21.21 121.745 21.21C124.276 21.21 126.432 23.2804 126.432 26.6156C126.432 29.9508 124.239 31.9043 121.745 31.9043Z" fill="#ADADAD"/>
<path d="M144.398 16.3429C140.052 16.3429 134.233 19.7908 134.233 26.6156C134.233 33.4404 140.052 36.7714 144.398 36.7714C148.744 36.7714 154.564 33.4738 154.564 26.6156C154.564 19.7574 148.707 16.3429 144.398 16.3429ZM144.398 31.9043C141.867 31.9043 139.674 29.8339 139.674 26.6156C139.674 23.3973 141.867 21.21 144.398 21.21C146.929 21.21 149.086 23.2804 149.086 26.6156C149.086 29.9508 146.892 31.9043 144.398 31.9043Z" fill="#ADADAD"/>
<path d="M144.398 16.3429C140.052 16.3429 134.233 19.7908 134.233 26.6156C134.233 33.4404 140.052 36.7714 144.398 36.7714C148.744 36.7714 154.564 33.4738 154.564 26.6156C154.564 19.7574 148.707 16.3429 144.398 16.3429ZM144.398 31.9043C141.867 31.9043 139.674 29.8339 139.674 26.6156C139.674 23.3973 141.867 21.21 144.398 21.21C146.929 21.21 149.086 23.2804 149.086 26.6156C149.086 29.9508 146.892 31.9043 144.398 31.9043Z" fill="#ADADAD"/>
<path d="M189.997 33.9928V25.7072C189.997 18.9998 186.782 16.3429 182.973 16.3429C179.46 16.3429 177.104 18.7312 176.058 21.0817C174.939 17.7658 172.509 16.3429 169.742 16.3429C165.782 16.3429 163.649 19.3859 163.503 20.813V19.2726C163.503 17.6944 162.27 16.4226 160.776 16.4226C159.282 16.4226 158.049 17.6944 158.049 19.2726V33.9928C158.049 35.529 159.274 36.7588 160.76 36.7672C162.27 36.7756 163.507 35.4409 163.507 33.8836V25.8289C163.507 24.7544 163.812 23.6966 164.422 22.832C165.057 21.9296 166.087 21.1236 167.69 21.1236C169.746 21.1236 171.276 22.513 171.276 25.7114V33.997C171.276 35.5374 172.546 36.7714 174.003 36.7714C175.46 36.7714 176.729 35.5374 176.729 33.997V25.0944C176.803 24.364 177.739 21.1236 180.913 21.1236C183.005 21.1236 184.54 22.513 184.54 25.7114V33.997C184.54 35.5374 185.772 36.7714 187.266 36.7714C188.76 36.7714 189.993 35.5374 189.993 33.997L189.997 33.9928Z" fill="#ADADAD"/>
<path d="M189.997 33.9928V25.7072C189.997 18.9998 186.782 16.3429 182.973 16.3429C179.46 16.3429 177.104 18.7312 176.058 21.0817C174.939 17.7658 172.509 16.3429 169.742 16.3429C165.782 16.3429 163.649 19.3859 163.503 20.813V19.2726C163.503 17.6944 162.27 16.4226 160.776 16.4226C159.282 16.4226 158.049 17.6944 158.049 19.2726V33.9928C158.049 35.529 159.274 36.7588 160.76 36.7672C162.27 36.7756 163.507 35.4409 163.507 33.8836V25.8289C163.507 24.7544 163.812 23.6966 164.422 22.832C165.057 21.9296 166.087 21.1236 167.69 21.1236C169.746 21.1236 171.276 22.513 171.276 25.7114V33.997C171.276 35.5374 172.546 36.7714 174.003 36.7714C175.46 36.7714 176.729 35.5374 176.729 33.997V25.0944C176.803 24.364 177.739 21.1236 180.913 21.1236C183.005 21.1236 184.54 22.513 184.54 25.7114V33.997C184.54 35.5374 185.772 36.7714 187.266 36.7714C188.76 36.7714 189.993 35.5374 189.993 33.997L189.997 33.9928Z" fill="#ADADAD"/>
<path d="M197.548 8.7551C195.979 8.7551 194.644 10.0929 194.644 11.6735C194.644 13.2541 195.979 14.5918 197.548 14.5918C199.118 14.5918 200.453 13.2541 200.453 11.6735C200.453 10.0929 199.118 8.7551 197.548 8.7551Z" fill="#ADADAD"/>
<path d="M197.548 8.7551C195.979 8.7551 194.644 10.0929 194.644 11.6735C194.644 13.2541 195.979 14.5918 197.548 14.5918C199.118 14.5918 200.453 13.2541 200.453 11.6735C200.453 10.0929 199.118 8.7551 197.548 8.7551Z" fill="#ADADAD"/>
<path d="M197.548 16.3429C195.957 16.3429 194.644 17.6175 194.644 19.1993V33.915C194.644 35.4968 195.957 36.7714 197.548 36.7714C199.139 36.7714 200.453 35.4968 200.453 33.915V19.1993C200.453 17.6175 199.139 16.3429 197.548 16.3429Z" fill="#ADADAD"/>
<path d="M197.548 16.3429C195.957 16.3429 194.644 17.6175 194.644 19.1993V33.915C194.644 35.4968 195.957 36.7714 197.548 36.7714C199.139 36.7714 200.453 35.4968 200.453 33.915V19.1993C200.453 17.6175 199.139 16.3429 197.548 16.3429Z" fill="#ADADAD"/>
<path d="M214.061 16.3429C209.705 16.3429 203.938 19.6527 203.938 26.6535C203.938 33.6544 209.363 36.7714 214.518 36.7714C216.923 36.7714 218.758 36.1179 220.097 35.2338C221.166 34.3875 221.433 33.6166 221.433 32.9254C221.433 31.8486 220.709 31.0023 219.561 31.0023C218.837 31.0023 218.263 31.3501 217.497 31.6559C216.39 32.0414 216.008 32.2341 214.747 32.2341C212.109 32.2341 210.241 30.9269 209.742 28.543L220.209 28.698C222.502 28.698 223.687 27.9271 223.687 25.6983C223.687 19.8496 218.417 16.3512 214.061 16.3512V16.3429ZM209.742 24.7682C210.087 22.2293 212.072 21.228 214.061 21.228C216.049 21.228 217.805 22.2293 218.188 24.7682H209.742Z" fill="#ADADAD"/>
<path d="M214.061 16.3429C209.705 16.3429 203.938 19.6527 203.938 26.6535C203.938 33.6544 209.363 36.7714 214.518 36.7714C216.923 36.7714 218.758 36.1179 220.097 35.2338C221.166 34.3875 221.433 33.6166 221.433 32.9254C221.433 31.8486 220.709 31.0023 219.561 31.0023C218.837 31.0023 218.263 31.3501 217.497 31.6559C216.39 32.0414 216.008 32.2341 214.747 32.2341C212.109 32.2341 210.241 30.9269 209.742 28.543L220.209 28.698C222.502 28.698 223.687 27.9271 223.687 25.6983C223.687 19.8496 218.417 16.3512 214.061 16.3512V16.3429ZM209.742 24.7682C210.087 22.2293 212.072 21.228 214.061 21.228C216.049 21.228 217.805 22.2293 218.188 24.7682H209.742Z" fill="#ADADAD"/>
<path d="M235.766 24.5453L233.514 23.8914C231.962 23.4304 231.89 22.6592 231.89 22.2736C231.89 21.3892 232.629 20.7731 233.808 20.7731C234.62 20.7731 235.36 21.0791 236.096 21.888C236.795 22.6969 237.535 23.0029 238.311 23.0029C239.493 23.0029 240.378 22.2736 240.378 20.8863C240.378 19.9642 239.936 19.3858 239.715 19.0756C238.496 17.3069 236.059 16.3429 233.623 16.3429C230.152 16.3429 226.606 18.2667 226.606 22.3071C226.606 25.0776 228.194 27.1942 231.958 28.3091L233.876 28.9252C235.613 29.4659 235.758 30.3126 235.758 30.694C235.758 31.4652 235.058 32.2322 233.434 32.2322C232.4 32.2322 231.367 31.964 230.257 30.6563C229.779 30.0779 229.152 29.3863 228.078 29.3863C226.566 29.3863 226.011 30.5808 226.011 31.5029C226.011 32.8106 226.936 33.9255 227.157 34.156C228.191 35.2709 230.036 36.7714 233.434 36.7714C237.274 36.7714 241.114 34.7303 241.114 30.3838C241.114 26.8799 238.565 25.4213 235.762 24.5327L235.766 24.5453Z" fill="#ADADAD"/>
<path d="M235.766 24.5453L233.514 23.8914C231.962 23.4304 231.89 22.6592 231.89 22.2736C231.89 21.3892 232.629 20.7731 233.808 20.7731C234.62 20.7731 235.36 21.0791 236.096 21.888C236.795 22.6969 237.535 23.0029 238.311 23.0029C239.493 23.0029 240.378 22.2736 240.378 20.8863C240.378 19.9642 239.936 19.3858 239.715 19.0756C238.496 17.3069 236.059 16.3429 233.623 16.3429C230.152 16.3429 226.606 18.2667 226.606 22.3071C226.606 25.0776 228.194 27.1942 231.958 28.3091L233.876 28.9252C235.613 29.4659 235.758 30.3126 235.758 30.694C235.758 31.4652 235.058 32.2322 233.434 32.2322C232.4 32.2322 231.367 31.964 230.257 30.6563C229.779 30.0779 229.152 29.3863 228.078 29.3863C226.566 29.3863 226.011 30.5808 226.011 31.5029C226.011 32.8106 226.936 33.9255 227.157 34.156C228.191 35.2709 230.036 36.7714 233.434 36.7714C237.274 36.7714 241.114 34.7303 241.114 30.3838C241.114 26.8799 238.565 25.4213 235.762 24.5327L235.766 24.5453Z" fill="#ADADAD"/>
<path d="M95.209 48.449H90.668V60.1184H93.6548V56.6163H95.209C96.394 56.6163 97.3802 56.2353 98.1797 55.4652C98.9792 54.6991 99.3809 53.7142 99.3809 52.5306C99.3809 51.3471 98.9792 50.3621 98.1797 49.596C97.3802 48.83 96.394 48.4449 95.209 48.4449V48.449ZM95.209 53.7831H93.6548V51.2984H95.209C95.8745 51.2984 96.394 51.797 96.394 52.5306C96.394 53.2643 95.8786 53.779 95.209 53.779V53.7831Z" fill="#ADADAD"/>
<path d="M95.209 48.449H90.668V60.1184H93.6548V56.6163H95.209C96.394 56.6163 97.3802 56.2353 98.1797 55.4652C98.9792 54.6991 99.3809 53.7142 99.3809 52.5306C99.3809 51.3471 98.9792 50.3621 98.1797 49.596C97.3802 48.83 96.394 48.4449 95.209 48.4449V48.449ZM95.209 53.7831H93.6548V51.2984H95.209C95.8745 51.2984 96.394 51.797 96.394 52.5306C96.394 53.2643 95.8786 53.779 95.209 53.779V53.7831Z" fill="#ADADAD"/>
<path d="M114.582 55.5999H118.629V52.8458H114.582V51.2274H119.045V48.4449H111.579V60.1184H119.131V57.3156H114.582V55.5999Z" fill="#ADADAD"/>
<path d="M114.582 55.5999H118.629V52.8458H114.582V51.2274H119.045V48.4449H111.579V60.1184H119.131V57.3156H114.582V55.5999Z" fill="#ADADAD"/>
<path d="M130.748 51.3288H133.622V60.1184H136.592V51.3288H139.461V48.4449H130.748V51.3288Z" fill="#ADADAD"/>
<path d="M130.748 51.3288H133.622V60.1184H136.592V51.3288H139.461V48.4449H130.748V51.3288Z" fill="#ADADAD"/>
<path d="M172.21 50.941C173.283 50.941 174.212 51.4842 174.658 52.3482L177.218 50.7827C176.707 49.8844 176.012 49.183 175.12 48.6526C174.228 48.1264 173.251 47.8612 172.21 47.8612C170.474 47.8612 169.019 48.4772 167.881 49.7091C166.74 50.9239 166.181 52.4552 166.181 54.2816C166.181 56.1081 166.744 57.6394 167.881 58.8713C169.023 60.0861 170.478 60.702 172.21 60.702C174.324 60.702 176.209 59.5942 177.218 57.7806L174.658 56.1979C174.212 57.0962 173.287 57.6223 172.21 57.6223C171.286 57.6223 170.542 57.3229 169.963 56.7069C169.401 56.091 169.12 55.2825 169.12 54.2774C169.12 53.2722 169.401 52.4851 169.963 51.8692C170.542 51.2532 171.286 50.9367 172.21 50.9367V50.941Z" fill="#ADADAD"/>
<path d="M172.21 50.941C173.283 50.941 174.212 51.4842 174.658 52.3482L177.218 50.7827C176.707 49.8844 176.012 49.183 175.12 48.6526C174.228 48.1264 173.251 47.8612 172.21 47.8612C170.474 47.8612 169.019 48.4772 167.881 49.7091C166.74 50.9239 166.181 52.4552 166.181 54.2816C166.181 56.1081 166.744 57.6394 167.881 58.8713C169.023 60.0861 170.478 60.702 172.21 60.702C174.324 60.702 176.209 59.5942 177.218 57.7806L174.658 56.1979C174.212 57.0962 173.287 57.6223 172.21 57.6223C171.286 57.6223 170.542 57.3229 169.963 56.7069C169.401 56.091 169.12 55.2825 169.12 54.2774C169.12 53.2722 169.401 52.4851 169.963 51.8692C170.542 51.2532 171.286 50.9367 172.21 50.9367V50.941Z" fill="#ADADAD"/>
<path d="M192.202 48.4449L188.254 60.1184H191.57L192.081 58.4357H196.062L196.573 60.1184H199.872L195.925 48.4449H192.202ZM192.867 55.865L194.063 51.8954L195.276 55.865H192.867Z" fill="#ADADAD"/>
<path d="M192.202 48.4449L188.254 60.1184H191.57L192.081 58.4357H196.062L196.573 60.1184H199.872L195.925 48.4449H192.202ZM192.867 55.865L194.063 51.8954L195.276 55.865H192.867Z" fill="#ADADAD"/>
<path d="M220.361 52.4793C220.361 51.3116 219.959 50.3465 219.144 49.5964C218.345 48.8301 217.343 48.4449 216.159 48.4449H211.489V60.1184H214.475V56.3516H215.542L217.579 60.1184H220.783L218.382 55.8001C219.599 55.1149 220.366 53.8822 220.366 52.4834L220.361 52.4793ZM216.126 53.8133H214.475V51.194H216.126C216.86 51.194 217.376 51.7292 217.376 52.5118C217.376 53.2943 216.86 53.8295 216.126 53.8133Z" fill="#ADADAD"/>
<path d="M220.361 52.4793C220.361 51.3116 219.959 50.3465 219.144 49.5964C218.345 48.8301 217.343 48.4449 216.159 48.4449H211.489V60.1184H214.475V56.3516H215.542L217.579 60.1184H220.783L218.382 55.8001C219.599 55.1149 220.366 53.8822 220.366 52.4834L220.361 52.4793ZM216.126 53.8133H214.475V51.194H216.126C216.86 51.194 217.376 51.7292 217.376 52.5118C217.376 53.2943 216.86 53.8295 216.126 53.8133Z" fill="#ADADAD"/>
<path d="M235.984 55.5999H240.027V52.8458H235.984V51.2274H240.447V48.4449H232.981V60.1184H240.533V57.3156H235.984V55.5999Z" fill="#ADADAD"/>
<path d="M235.984 55.5999H240.027V52.8458H235.984V51.2274H240.447V48.4449H232.981V60.1184H240.533V57.3156H235.984V55.5999Z" fill="#ADADAD"/>
</g>
</svg>
